<svg width="15" height="20" viewBox="0 0 15 20" fill="none" xmlns="http://www.w3.org/2000/svg">
<path d="M5.54038 0.49256L5.71282 0.590854C5.21934 0.280174 4.6516 0.107433 4.0687 0.0906108C3.4858 0.0737883 2.90904 0.213498 2.39846 0.495201C1.88787 0.776903 1.46212 1.1903 1.16551 1.69237C0.868893 2.19444 0.712262 2.76683 0.711916 3.34998V16.2075C0.711551 16.7617 0.852355 17.3068 1.12105 17.7915C1.38974 18.2762 1.77746 18.6845 2.24765 18.9778C2.71784 19.2711 3.255 19.4398 3.80847 19.4681C4.36193 19.4963 4.91346 19.383 5.41105 19.139C5.63015 19.0291 5.83658 18.8955 6.02667 18.7407C7.78217 17.3198 13.5453 12.3206 13.5453 12.3223C13.9334 12.0098 14.2448 11.6125 14.4557 11.161C14.6666 10.7095 14.7713 10.2158 14.7618 9.71755C14.7523 9.21933 14.6289 8.7299 14.401 8.28676C14.1731 7.84362 13.8467 7.45853 13.447 7.16101L13.5453 7.23689L6.05771 0.839175C5.58071 0.44346 5.00086 0.191796 4.38603 0.113636C3.7712 0.0354754 3.14683 0.134052 2.58599 0.39783C2.02514 0.661607 1.55103 1.07967 1.21914 1.6031C0.887252 2.12652 0.711312 2.73365 0.711916 3.35342V16.2075C0.711947 16.8238 0.886517 17.4274 1.21542 17.9486C1.54432 18.4697 2.01409 18.8871 2.57037 19.1523C3.12664 19.4176 3.74666 19.5198 4.35864 19.4473C4.97063 19.3748 5.54955 19.1304 6.0284 18.7424" fill="#F7B916"/>
</svg>
