<svg width="97" height="73" viewBox="0 0 97 73" fill="none" xmlns="http://www.w3.org/2000/svg">
<path d="M45.8029 10.6852V10.7816C45.706 10.4816 45.706 10.1587 45.8029 9.8587C45.8572 9.64783 45.953 9.4499 46.0847 9.27646C46.2163 9.10303 46.3812 8.95756 46.5697 8.84856C46.7582 8.73956 46.9665 8.66922 47.1825 8.64163C47.3985 8.61404 47.6179 8.62976 47.8277 8.68788L54.1639 10.3821C54.5888 10.4982 54.9505 10.7778 55.1699 11.1598C55.3893 11.5418 55.4486 11.9952 55.3347 12.4207C55.2686 12.6661 55.146 12.8925 54.9766 13.0819C54.8924 13.1727 54.8002 13.2556 54.7011 13.3298C53.7644 14.0048 50.5688 16.1811 50.5688 16.1811C50.3724 16.323 50.1472 16.42 49.9092 16.4652C49.6712 16.5105 49.4261 16.5028 49.1914 16.4428C48.9416 16.3746 48.7109 16.2497 48.5173 16.0776C48.3238 15.9056 48.1726 15.6911 48.0757 15.4511L45.8993 10.9744C45.7406 10.624 45.7113 10.2287 45.8167 9.8587C45.871 9.64783 45.9668 9.4499 46.0984 9.27646C46.2301 9.10303 46.395 8.95756 46.5835 8.84856C46.772 8.73956 46.9803 8.66922 47.1963 8.64163C47.4123 8.61404 47.6316 8.62976 47.8415 8.68788L54.1777 10.3821C54.6026 10.4982 54.9643 10.7778 55.1837 11.1598C55.4031 11.5418 55.4623 11.9952 55.3485 12.4207C55.2503 12.7886 55.026 13.1104 54.7149 13.3298" fill="#F7B916"/>
<path d="M11.9591 66.8842L11.3255 67.2424C10.9767 67.4215 10.6125 67.5691 10.2373 67.6832C9.74412 67.8311 9.24284 67.9507 8.73594 68.0413C8.1122 68.1441 7.481 68.1947 6.84886 68.1928C5.92418 68.1935 5.00626 68.0351 4.13532 67.7245C3.33152 67.4496 2.59466 67.0084 1.97276 66.4297C1.33369 65.8485 0.830484 65.1337 0.498912 64.336C0.143533 63.4382 -0.0251899 62.4774 0.00303813 61.5123C-0.0014505 60.5688 0.176277 59.6334 0.526461 58.7574C0.859 57.9396 1.35596 57.1989 1.98654 56.5811C2.623 55.9877 3.36615 55.5203 4.17665 55.2036C5.82301 54.5987 7.62145 54.5455 9.30068 55.0521C9.92984 55.2532 10.5177 55.5658 11.0362 55.975C11.4763 56.3341 11.8291 56.7885 12.0677 57.304C12.3063 57.8194 12.4246 58.3824 12.4137 58.9502C12.4227 59.5096 12.3099 60.0642 12.0831 60.5756C11.8227 61.1027 11.41 61.5394 10.8985 61.8291C10.1928 62.2276 9.42412 62.5024 8.62574 62.6418C7.43189 62.8675 6.21787 62.9691 5.0031 62.9448H4.13532H3.17112C3.30336 63.7492 3.73673 64.4731 4.38326 64.9696C5.2788 65.5613 6.34216 65.8465 7.4136 65.7823C7.82474 65.7829 8.23508 65.746 8.63952 65.6721C8.98031 65.5964 9.31611 65.4998 9.64504 65.3828C9.90353 65.2921 10.1565 65.1863 10.4026 65.066L10.8847 64.8457L11.9591 66.8842ZM2.99206 60.8373C3.39151 60.8373 3.76342 60.8373 4.12155 60.8373H5.19595C5.95763 60.8544 6.71909 60.7945 7.4687 60.6583C7.94939 60.5822 8.41456 60.4287 8.84613 60.2037C9.12576 60.0629 9.35271 59.8359 9.49352 59.5563C9.59104 59.3251 9.64251 59.0772 9.64504 58.8263C9.66024 58.5344 9.59508 58.2439 9.45664 57.9865C9.31821 57.729 9.11181 57.5145 8.85991 57.3662C8.27693 57.0232 7.60732 56.8558 6.93151 56.8841C6.35855 56.8722 5.78985 56.985 5.26482 57.2147C4.80928 57.4235 4.40142 57.7235 4.06645 58.0962C3.7379 58.4683 3.48104 58.8979 3.30887 59.3635C3.11861 59.8327 3.01141 60.3314 2.99206 60.8373Z" fill="#575756"/>
<path d="M14.3146 62.008C14.2999 60.9304 14.4723 59.8585 14.8242 58.8399C15.1243 57.9884 15.5927 57.2061 16.2017 56.5396C16.8398 55.9279 17.6003 55.4584 18.4331 55.1622C19.357 54.8339 20.3315 54.6707 21.3119 54.6801C22.2319 54.6735 23.1443 54.8466 23.9979 55.1897C24.791 55.5084 25.5157 55.9759 26.1329 56.5671C26.7281 57.1865 27.1961 57.9165 27.5104 58.7159C27.8628 59.5909 28.0361 60.5277 28.02 61.4708C28.0343 62.4125 27.8659 63.348 27.5241 64.2256C27.2268 65.002 26.7776 65.7113 26.2029 66.3121C25.6282 66.9128 24.9395 67.3929 24.177 67.7243C23.3506 68.0604 22.4657 68.2289 21.5736 68.2202C20.6828 68.2353 19.8007 68.0419 18.9978 67.6554C18.3144 67.3342 17.7119 66.8634 17.2347 66.278V72.9999H14.3146V62.008ZM21.2017 65.5755C21.7511 65.5879 22.2965 65.4798 22.7996 65.2587C23.2763 65.0591 23.704 64.7583 24.053 64.3772C24.4182 63.9806 24.6951 63.5111 24.8657 62.9997C25.0506 62.4636 25.1437 61.9002 25.1412 61.3331C25.1428 60.7795 25.0496 60.2298 24.8657 59.7077C24.6881 59.2241 24.4113 58.7831 24.053 58.4129C23.7035 58.0357 23.2757 57.7395 22.7996 57.5451C22.2974 57.3197 21.7521 57.2069 21.2017 57.2145C20.6576 57.2104 20.1184 57.3182 19.6177 57.5313C19.1433 57.7161 18.7154 58.003 18.3642 58.3716C17.9987 58.7386 17.7168 59.1803 17.5378 59.6664C17.3392 60.1993 17.2411 60.7644 17.2485 61.3331C17.2436 61.9015 17.3416 62.4662 17.5378 62.9997C17.7137 63.5087 17.9901 63.9771 18.3505 64.3772C18.6915 64.7612 19.1154 65.0626 19.5901 65.2587C20.0854 65.4738 20.6205 65.5818 21.1604 65.5755H21.2017Z" fill="#575756"/>
<path d="M37.1115 54.6387C38.0531 54.6396 38.9867 54.8123 39.8664 55.1483C40.6915 55.4603 41.4491 55.9279 42.0978 56.5258C42.7334 57.1344 43.2394 57.8653 43.5854 58.6745C43.94 59.5256 44.1226 60.4385 44.1226 61.3605C44.1226 62.2825 43.94 63.1954 43.5854 64.0465C43.2394 64.8557 42.7334 65.5866 42.0978 66.1953C41.4815 66.8326 40.7531 67.3509 39.949 67.7242C38.1768 68.4117 36.2115 68.4117 34.4393 67.7242C33.6159 67.4086 32.859 66.9414 32.2079 66.3468C31.5722 65.7381 31.0662 65.0072 30.7202 64.198C30.3656 63.3469 30.183 62.4341 30.183 61.512C30.183 60.59 30.3656 59.6771 30.7202 58.8261C31.0662 58.0169 31.5722 57.286 32.2079 56.6773C32.8551 56.0775 33.6131 55.6096 34.4393 55.2998C35.2832 54.921 36.1883 54.6971 37.1115 54.6387ZM37.1115 65.6581C37.6651 65.6677 38.2144 65.5597 38.7231 65.3413C39.2077 65.1423 39.6409 64.8362 39.9903 64.446C40.3486 64.0419 40.6289 63.5748 40.8168 63.0685C41.0131 62.5398 41.1112 61.9796 41.1061 61.4156C41.11 60.8428 41.012 60.2737 40.8168 59.7352C40.6341 59.2264 40.3533 58.7584 39.9903 58.3577C39.6365 57.9759 39.2042 57.6752 38.7231 57.4762C38.2125 57.2638 37.6645 57.1561 37.1115 57.1594C36.5583 57.1538 36.0098 57.2616 35.4999 57.4762C35.0232 57.6758 34.5955 57.9765 34.2465 58.3577C33.8835 58.7584 33.6027 59.2264 33.42 59.7352C33.2248 60.2737 33.1268 60.8428 33.1307 61.4156C33.1256 61.9796 33.2237 62.5398 33.42 63.0685C33.6079 63.5748 33.8882 64.0419 34.2465 64.446C34.591 64.8356 35.0196 65.1417 35.4999 65.3413C36.0121 65.5434 36.5617 65.6326 37.1115 65.603V65.6581Z" fill="#575756"/>
<path d="M57.7455 66.9119C57.5019 67.0696 57.2489 67.2122 56.9879 67.3389C56.6573 67.4945 56.3168 67.6279 55.9686 67.7384C55.5203 67.8866 55.0592 67.9927 54.5912 68.0552C54.0505 68.1542 53.5016 68.2003 52.952 68.1929C52.0151 68.207 51.0829 68.0579 50.1972 67.7521C49.3807 67.478 48.6302 67.0371 47.9933 66.4574C47.3469 65.8742 46.8387 65.1543 46.5057 64.3499C46.12 63.4402 45.9322 62.4589 45.9547 61.4711C45.9375 60.4716 46.1202 59.4788 46.4919 58.5509C46.8175 57.7355 47.32 57.0024 47.9631 56.4046C48.6062 55.8067 49.3739 55.359 50.2109 55.0936C51.0968 54.7869 52.0284 54.6332 52.9658 54.639C53.683 54.627 54.3992 54.6963 55.1008 54.8456C55.5806 54.9533 56.0439 55.1247 56.4782 55.3553C56.7943 55.5143 57.0645 55.7514 57.2634 56.044C57.4215 56.2705 57.5079 56.5392 57.5113 56.8154C57.5122 57.1629 57.3902 57.4995 57.167 57.7658C56.9796 58.0124 56.7621 58.2345 56.5196 58.427C56.1071 58.0802 55.6422 57.8012 55.1421 57.6005C54.4642 57.3101 53.7303 57.1737 52.9933 57.201C52.4463 57.1962 51.9021 57.2799 51.3818 57.449C50.894 57.6133 50.4476 57.8811 50.0732 58.2341C49.6801 58.619 49.3828 59.0908 49.2054 59.6115C48.9763 60.1991 48.8685 60.827 48.8886 61.4573C48.8704 62.1111 48.9828 62.7621 49.2192 63.3719C49.4169 63.8761 49.7335 64.325 50.1421 64.6805C50.542 65.0283 51.0116 65.2866 51.5195 65.4381C52.0562 65.5958 52.613 65.6747 53.1724 65.6722C53.8775 65.7009 54.5809 65.5837 55.2386 65.3279C55.6054 65.1818 55.9601 65.0068 56.2992 64.8045L57.7455 66.9119Z" fill="#575756"/>
<path d="M59.4119 50.3411C59.3949 50.1519 59.4222 49.9613 59.4915 49.7844C59.5608 49.6075 59.6703 49.4491 59.8113 49.3218C60.1478 49.0825 60.5562 48.9658 60.9684 48.9912C61.252 48.9913 61.5345 49.0283 61.8086 49.1014L62.3183 49.2805V56.3054C62.7492 55.8254 63.2682 55.4326 63.8472 55.1483C64.6778 54.7596 65.5893 54.5754 66.5056 54.6111C67.2397 54.6025 67.9702 54.7142 68.6682 54.9417C69.2991 55.1527 69.8802 55.4901 70.3762 55.9335C70.861 56.3828 71.2337 56.9394 71.4644 57.5588C71.7375 58.2847 71.8684 59.0563 71.8501 59.8316V67.8344H68.9437V60.6994C69.0193 59.772 68.771 58.8471 68.2412 58.0822C67.9285 57.7644 67.5481 57.5214 67.1283 57.3711C66.7085 57.2208 66.2603 57.1673 65.8169 57.2145C65.3325 57.1809 64.8467 57.2548 64.3942 57.431C63.9417 57.6072 63.5339 57.8814 63.1998 58.2338C62.5823 58.983 62.2678 59.9364 62.3183 60.906V67.7931H59.4119V50.3411Z" fill="#575756"/>
<path d="M74.8939 52.724C74.8752 52.5314 74.903 52.337 74.9749 52.1573C75.0468 51.9776 75.1607 51.8177 75.3071 51.691C75.6317 51.4605 76.0256 51.3487 76.4228 51.3742C76.716 51.3673 77.0085 51.4045 77.2906 51.4844L77.814 51.6496V54.9968H81.5193C81.9232 54.9685 82.3239 55.0858 82.6488 55.3274C82.7716 55.4655 82.8654 55.6269 82.9246 55.802C82.9838 55.9771 83.0071 56.1624 82.9931 56.3467C82.9956 56.6179 82.9537 56.8878 82.8692 57.1456C82.815 57.3255 82.7459 57.5006 82.6626 57.669H77.814V63.3716C77.7997 63.7426 77.8607 64.1128 77.9931 64.4597C78.093 64.7261 78.2646 64.9597 78.489 65.1347C78.7072 65.3079 78.9613 65.4302 79.2328 65.4928C79.5215 65.5611 79.8176 65.5934 80.1143 65.5892C80.5826 65.5943 81.0484 65.5198 81.4917 65.3688C81.8152 65.2576 82.1248 65.1098 82.4146 64.9281L83.5854 66.8702C83.4003 67.01 83.2071 67.1388 83.0069 67.2559C82.7201 67.4304 82.4153 67.5736 82.0978 67.6829C81.708 67.8324 81.3074 67.9521 80.8995 68.0411C80.4181 68.1324 79.9293 68.1785 79.4394 68.1788C78.8246 68.2252 78.2068 68.1452 77.624 67.9439C77.0413 67.7425 76.5059 67.424 76.0509 67.008C75.6619 66.6054 75.3588 66.128 75.1599 65.6047C74.961 65.0814 74.8705 64.5232 74.8939 63.9639V52.724Z" fill="#575756"/>
<path d="M96.6439 67.7245C96.3796 67.7746 96.1129 67.8114 95.845 67.8347L94.5502 67.9724L92.8835 68.0826C92.2774 68.0826 91.6438 68.0826 90.9689 68.0826C89.8752 68.104 88.7831 67.9883 87.7181 67.7382C86.9971 67.568 86.3178 67.2541 85.7209 66.8153C85.263 66.4628 84.9182 65.984 84.7291 65.4379C84.5489 64.9434 84.4557 64.4215 84.4536 63.8952C84.4608 63.3209 84.568 62.7522 84.7704 62.2147C84.9815 61.6655 85.3446 61.1878 85.8173 60.8373C86.3954 60.4453 87.0466 60.1736 87.7319 60.0384C88.6691 59.8409 89.6255 59.7486 90.5832 59.7629C91.2306 59.7629 91.8504 59.7629 92.4289 59.7629L93.8064 59.8731C93.8252 59.3602 93.7213 58.8502 93.5033 58.3855C93.3258 58.0146 93.0494 57.7 92.7044 57.4764C92.3307 57.2409 91.914 57.0817 91.4785 57.0081C90.955 56.9219 90.425 56.8804 89.8945 56.8841C89.1007 56.8584 88.3085 56.9703 87.5528 57.2147C87.1415 57.3451 86.7517 57.5354 86.3958 57.7794C86.2351 57.636 86.0918 57.4742 85.9688 57.2973C85.7859 57.0453 85.6893 56.7409 85.6933 56.4295C85.6934 56.1823 85.76 55.9397 85.8861 55.7271C86.0542 55.4609 86.2926 55.2464 86.5749 55.1072C86.9828 54.9012 87.4192 54.7572 87.8696 54.6802C88.5528 54.5712 89.244 54.5205 89.9358 54.5287C90.863 54.5173 91.7881 54.6191 92.6906 54.8317C93.4564 54.9949 94.1821 55.3086 94.8257 55.7546C95.4226 56.1918 95.8969 56.7753 96.2031 57.4488C96.5534 58.2419 96.7228 59.1029 96.699 59.9695L96.6439 67.7245ZM93.765 62.0494L92.8008 61.8979C92.1012 61.8195 91.3972 61.7873 90.6934 61.8015C89.816 61.7322 88.937 61.9137 88.1589 62.3249C87.8957 62.5053 87.6846 62.7517 87.5468 63.0394C87.409 63.3271 87.3493 63.646 87.3738 63.9641C87.3688 64.2527 87.4251 64.5391 87.5391 64.8043C87.6594 65.0747 87.8555 65.3044 88.1038 65.4655C88.4455 65.6714 88.8248 65.8072 89.2195 65.8649C89.7763 65.988 90.3437 66.0572 90.9138 66.0715C91.5397 66.0826 92.1656 66.0504 92.7871 65.9751C93.2416 65.9751 93.5446 65.8787 93.7099 65.8374L93.765 62.0494Z" fill="#575756"/>
<path d="M87.4561 27.779L78.6956 16.0157C77.1329 13.7368 74.8078 12.0906 72.1391 11.3738C71.28 11.1436 70.3971 11.0142 69.5082 10.9881C68.6064 9.53041 67.1828 8.47133 65.5274 8.02665L39.3563 1.01554C38.5003 0.780543 37.606 0.719195 36.726 0.83511C35.846 0.951024 34.9981 1.24186 34.2322 1.69048C33.2826 1.1196 32.258 0.683816 31.1881 0.395699C28.5184 -0.318778 25.6816 -0.0599995 23.1852 1.12573L9.64512 6.92471C9.46423 7.00249 9.30044 7.11514 9.16309 7.25622C9.02573 7.3973 8.91751 7.56406 8.84461 7.74696C8.7717 7.92987 8.73553 8.12534 8.73817 8.32223C8.74081 8.51911 8.7822 8.71355 8.85998 8.89443C8.93776 9.07532 9.05041 9.23911 9.1915 9.37647C9.33258 9.51382 9.49933 9.62204 9.68224 9.69494C9.86514 9.76785 10.0606 9.80402 10.2575 9.80138C10.4544 9.79874 10.6488 9.75735 10.8297 9.67957L24.301 3.85304C26.1712 2.95389 28.3015 2.75357 30.3065 3.2883C30.836 3.43777 31.3521 3.63128 31.8493 3.86682C31.4905 4.44764 31.2212 5.07915 31.0504 5.74012L26.1743 23.7707C25.7193 25.5002 25.9664 27.3394 26.8617 28.8875C27.7571 30.4356 29.228 31.567 30.9539 32.0352L57.1251 39.0601C58.8546 39.5151 60.6938 39.268 62.2419 38.3726C63.79 37.4773 64.9214 36.0064 65.3897 34.2804L70.252 16.2912C70.4711 15.55 70.5597 14.7763 70.5137 14.0047C71.6708 14.2065 72.7765 14.6353 73.7671 15.2665C74.7577 15.8977 75.6135 16.7188 76.2851 17.6824L85.0456 29.4594C85.2386 29.7288 85.5222 29.9195 85.8445 29.9966C86.1307 30.0704 86.4325 30.0563 86.7107 29.9563C86.9889 29.8563 87.2306 29.6749 87.4043 29.4358C87.5781 29.1967 87.676 28.9108 87.6852 28.6154C87.6944 28.3199 87.6146 28.0285 87.4561 27.779ZM64.7423 10.8779C65.2478 11.0212 65.7173 11.27 66.1197 11.608L50.8853 18.3436L50.7338 18.4125C50.0648 18.7465 49.2955 18.8202 48.5752 18.6191C47.8549 18.418 47.235 17.9566 46.8357 17.3243V17.2416L36.8356 3.79795C37.4013 3.66065 37.9916 3.66065 38.5573 3.79795L64.7423 10.8779ZM62.621 33.5229C62.3596 34.4963 61.7223 35.326 60.8492 35.8297C59.9762 36.3334 58.9389 36.4698 57.9653 36.2088L31.7666 29.1564C31.2784 29.0344 30.8193 28.8167 30.4159 28.5159C30.0124 28.2151 29.6727 27.8372 29.4165 27.4041C29.1602 26.971 28.9925 26.4914 28.923 25.993C28.8535 25.4946 28.8837 24.9874 29.0118 24.5007L33.8328 6.49771C33.9791 6.12359 34.1837 5.77494 34.4388 5.46463L44.4803 18.9772C45.2888 20.2006 46.5196 21.0832 47.9376 21.4566C49.3675 21.8473 50.8921 21.685 52.2077 21.002L67.6073 14.2251C67.6461 14.6872 67.6089 15.1525 67.4971 15.6025L62.621 33.5229Z" fill="#1062AA"/>
<path d="M23.1714 8.0404L14.2181 11.911C13.8528 12.0662 13.5641 12.3603 13.4156 12.7284C13.267 13.0965 13.2708 13.5085 13.4261 13.8738C13.5813 14.2391 13.8753 14.5278 14.2434 14.6763C14.6115 14.8249 15.0236 14.8211 15.3889 14.6658L24.356 10.7953C24.5368 10.7175 24.7006 10.6048 24.838 10.4637C24.9753 10.3227 25.0836 10.1559 25.1565 9.97301C25.2294 9.7901 25.2655 9.59462 25.2629 9.39774C25.2603 9.20086 25.2189 9.00642 25.1411 8.82554C25.0633 8.64465 24.9507 8.48086 24.8096 8.34351C24.6685 8.20615 24.5017 8.09793 24.3188 8.02503C24.1359 7.95212 23.9405 7.91595 23.7436 7.91859C23.5467 7.92123 23.3523 7.96262 23.1714 8.0404Z" fill="#1062AA"/>
<path d="M20.8987 15.8092L18.5983 16.7596C18.3249 16.884 18.0961 17.0891 17.9424 17.3472C17.7888 17.6053 17.7177 17.9043 17.7386 18.2039C17.7596 18.5036 17.8717 18.7897 18.0598 19.0239C18.2479 19.2582 18.5031 19.4293 18.7912 19.5144C19.1157 19.6016 19.4601 19.5773 19.7692 19.4456L22.0419 18.5365C22.2228 18.4587 22.3866 18.346 22.524 18.205C22.6613 18.0639 22.7695 17.8971 22.8424 17.7142C22.9153 17.5313 22.9515 17.3358 22.9489 17.139C22.9462 16.9421 22.9048 16.7476 22.8271 16.5668C22.7493 16.3859 22.6366 16.2221 22.4955 16.0847C22.3545 15.9474 22.1877 15.8391 22.0048 15.7662C21.8219 15.6933 21.6264 15.6572 21.4295 15.6598C21.2327 15.6624 21.0382 15.7038 20.8573 15.7816L20.8987 15.8092Z" fill="#1062AA"/>
<path d="M75.1284 22.1039L80.886 29.9966C81.1155 30.3135 81.211 30.708 81.1517 31.0947C81.0924 31.4814 80.8831 31.8292 80.5692 32.0627C80.3888 32.1938 80.1808 32.2818 79.9612 32.32C79.7415 32.3582 79.516 32.3456 79.302 32.2831C78.9777 32.2025 78.6937 32.0066 78.5031 31.7322L72.7317 23.8533C72.533 23.5344 72.4624 23.1522 72.5339 22.7834C72.6055 22.4147 72.8139 22.0866 73.1173 21.8651C73.4207 21.6437 73.7967 21.5452 74.1698 21.5895C74.5428 21.6338 74.8853 21.8176 75.1284 22.1039Z" fill="#1062AA"/>
<path d="M73.1723 30.1207L74.6599 32.1455C74.8894 32.4623 74.9849 32.8568 74.9256 33.2436C74.8663 33.6303 74.657 33.9781 74.3431 34.2116C74.16 34.3425 73.9502 34.4314 73.7288 34.4719C73.5074 34.5124 73.2797 34.5035 73.0621 34.4458C72.7472 34.3529 72.4714 34.1594 72.277 33.8948L70.7756 31.9113C70.6616 31.7539 70.5798 31.5757 70.5347 31.3867C70.4897 31.1977 70.4823 31.0016 70.513 30.8098C70.5437 30.6179 70.6119 30.434 70.7136 30.2685C70.8154 30.103 70.9488 29.9591 71.1062 29.8452C71.2635 29.7312 71.4418 29.6494 71.6308 29.6043C71.8198 29.5592 72.0159 29.5519 72.2077 29.5825C72.3996 29.6132 72.5835 29.6814 72.749 29.7832C72.9145 29.885 73.0584 30.0184 73.1723 30.1758V30.1207Z" fill="#1062AA"/>
</svg>
