<svg width="51" height="42" viewBox="0 0 51 42" fill="none" xmlns="http://www.w3.org/2000/svg">
<path d="M10.3096 0.877441L10.6778 1.09041C9.62408 0.417272 8.41187 0.0430034 7.16728 0.00655482C5.9227 -0.0298938 4.69123 0.27281 3.60105 0.883162C2.51086 1.49351 1.60181 2.38921 0.968492 3.47702C0.335175 4.56484 0.000743251 5.80501 3.30068e-06 7.06848V34.9263C-0.000774272 36.127 0.299864 37.3082 0.873566 38.3583C1.44727 39.4085 2.27512 40.293 3.27905 40.9286C4.28298 41.5641 5.42991 41.9297 6.61165 41.9908C7.79339 42.052 8.971 41.8066 10.0334 41.278C10.5012 41.0397 10.942 40.7503 11.3479 40.4149C15.0961 37.3362 27.4013 26.5047 27.4013 26.5084C28.2301 25.8313 28.895 24.9706 29.3452 23.9924C29.7954 23.0141 30.019 21.9443 29.9987 20.8648C29.9785 19.7854 29.7149 18.7249 29.2283 17.7648C28.7417 16.8047 28.045 15.9703 27.1915 15.3257L27.4013 15.4901L11.4142 1.62844C10.3957 0.771059 9.1576 0.225789 7.84484 0.0564422C6.53208 -0.112905 5.19894 0.100678 4.00145 0.672193C2.80396 1.24371 1.79165 2.14951 1.08301 3.28359C0.374374 4.41767 -0.00128464 5.73311 3.30068e-06 7.07595V34.9263C7.02424e-05 36.2615 0.372806 37.5695 1.07506 38.6986C1.77731 39.8278 2.78037 40.7321 3.9681 41.3068C5.15583 41.8815 6.47967 42.103 7.78636 41.9458C9.09305 41.7887 10.3292 41.2592 11.3516 40.4186" fill="#00F3FF"/>
<path d="M43.99 5.21875H21.6939C19.1015 5.21875 17 7.32028 17 9.91266V32.2087C17 34.8011 19.1015 36.9026 21.6939 36.9026H43.99C46.5824 36.9026 48.6839 34.8011 48.6839 32.2087V9.91266C48.6839 7.32028 46.5824 5.21875 43.99 5.21875Z" stroke="#1062AA" stroke-width="3" stroke-miterlimit="10"/>
<path d="M21.6992 29.4707L28.7401 23.2121L31.4782 26.3414L41.6483 16.1713" stroke="#1062AA" stroke-width="3" stroke-linecap="round" stroke-linejoin="round"/>
<path d="M35.7812 16.5623L43.2133 14.2153L42.0398 21.6474" stroke="#1062AA" stroke-width="3" stroke-linecap="round" stroke-linejoin="round"/>
</svg>
