<svg width="48" height="43" viewBox="0 0 48 43" fill="none" xmlns="http://www.w3.org/2000/svg">
<path d="M10.6251 0.887304L10.9879 1.10344C9.90313 0.419863 8.6548 0.0398307 7.37312 0.0029638C6.09143 -0.0339031 4.82333 0.273745 3.70102 0.893832C2.57872 1.51392 1.64332 2.42373 0.99235 3.52841C0.341383 4.63309 -0.00130993 5.89218 3.7628e-06 7.17439V35.4296C0.000558993 36.6471 0.310911 37.8444 0.901845 38.9088C1.49278 39.9733 2.34486 40.8698 3.37788 41.5141C4.4109 42.1584 5.59088 42.5292 6.80674 42.5917C8.02261 42.6541 9.23437 42.4061 10.328 41.8711C10.8086 41.6267 11.2626 41.3331 11.6826 40.995C15.5421 37.8727 28.2089 26.8886 28.2089 26.8886C29.0617 26.2021 29.7461 25.3294 30.2094 24.3375C30.6727 23.3455 30.9028 22.2606 30.8819 21.166C30.8611 20.0714 30.5898 18.9961 30.089 18.0225C29.5882 17.049 28.8712 16.203 27.9928 15.5495L28.2089 15.7154L11.7405 1.64762C10.6919 0.780551 9.41827 0.229712 8.06831 0.0594327C6.71836 -0.110847 5.34781 0.106462 4.11674 0.685981C2.88566 1.2655 1.84488 2.18331 1.11592 3.33222C0.386961 4.48114 -7.70433e-05 5.81374 3.7628e-06 7.17439V35.4296C0.000260116 36.7842 0.384175 38.111 1.1073 39.2564C1.83042 40.4018 2.86317 41.3189 4.08599 41.9017C5.3088 42.4844 6.67166 42.7089 8.01677 42.5491C9.36188 42.3893 10.6342 41.8518 11.6865 40.9988" fill="#F7B916"/>
<path d="M25.2463 35.9196C22.2545 35.9204 19.3297 35.0338 16.8417 33.3722C14.3538 31.7105 12.4146 29.3483 11.2693 26.5843C10.124 23.8204 9.82414 20.7789 10.4076 17.8445C10.9911 14.9101 12.4317 12.2147 14.5473 10.0991C16.6628 7.9836 19.3583 6.54297 22.2926 5.95948C25.227 5.37599 28.2685 5.67585 31.0325 6.82113C33.7964 7.9664 36.1586 9.90565 37.8203 12.3936C39.482 14.8815 40.3685 17.8064 40.3678 20.7982C40.3627 24.8071 38.7679 28.6503 35.9332 31.485C33.0985 34.3197 29.2552 35.9145 25.2463 35.9196ZM25.2463 8.47102C22.8081 8.47026 20.4244 9.19259 18.3967 10.5466C16.369 11.9007 14.7884 13.8257 13.8548 16.0781C12.9212 18.3305 12.6765 20.8092 13.1517 23.2007C13.6269 25.5922 14.8007 27.7891 16.5245 29.5135C18.2483 31.2378 20.4448 32.4123 22.8362 32.8882C25.2275 33.3642 27.7063 33.1203 29.959 32.1874C32.2117 31.2545 34.1372 29.6745 35.4919 27.6472C36.8466 25.6199 37.5696 23.2364 37.5696 20.7982C37.5635 17.5314 36.2633 14.4 33.9537 12.0897C31.6441 9.77933 28.5132 8.47816 25.2463 8.47102Z" fill="#1062AA"/>
<path d="M35.6805 13.2878C35.3903 13.2931 35.1055 13.2079 34.8659 13.0439C34.6263 12.88 34.4438 12.6454 34.3436 12.3729C34.2434 12.1005 34.2306 11.8035 34.307 11.5234C34.3834 11.2433 34.5451 10.994 34.7697 10.81L45.0745 2.01041C45.3587 1.78313 45.7201 1.67532 46.0823 1.7098C46.4445 1.74427 46.7792 1.91832 47.0153 2.19512C47.2515 2.47192 47.3707 2.82975 47.3478 3.19289C47.3248 3.55603 47.1615 3.89599 46.8923 4.14084L36.5875 12.952C36.3357 13.1699 36.0135 13.2891 35.6805 13.2878Z" fill="#1062AA"/>
</svg>
