<svg width="67" height="74" viewBox="0 0 67 74" fill="none" xmlns="http://www.w3.org/2000/svg">
<path d="M21.6251 20.3958L21.9879 20.612C20.9031 19.9284 19.6548 19.5484 18.3731 19.5115C17.0914 19.4746 15.8233 19.7823 14.701 20.4024C13.5787 21.0225 12.6433 21.9323 11.9924 23.037C11.3414 24.1416 10.9987 25.4007 11 26.6829V54.9382C11.0006 56.1556 11.3109 57.3529 11.9018 58.4174C12.4928 59.4818 13.3449 60.3784 14.3779 61.0227C15.4109 61.6669 16.5909 62.0378 17.8067 62.1002C19.0226 62.1627 20.2344 61.9147 21.328 61.3796C21.8086 61.1352 22.2626 60.8416 22.6826 60.5035C26.5421 57.3812 39.2089 46.3971 39.2089 46.3971C40.0617 45.7106 40.7461 44.8379 41.2094 43.846C41.6727 42.8541 41.9028 41.7692 41.8819 40.6746C41.8611 39.5799 41.5898 38.5046 41.089 37.5311C40.5882 36.5575 39.8712 35.7115 38.9928 35.058L39.2089 35.224L22.7405 21.1562C21.6919 20.2891 20.4183 19.7383 19.0683 19.568C17.7184 19.3977 16.3478 19.615 15.1167 20.1945C13.8857 20.774 12.8449 21.6919 12.1159 22.8408C11.387 23.9897 10.9999 25.3223 11 26.6829V54.9382C11.0003 56.2927 11.3842 57.6195 12.1073 58.7649C12.8304 59.9103 13.8632 60.8275 15.086 61.4102C16.3088 61.993 17.6717 62.2174 19.0168 62.0577C20.3619 61.8979 21.6342 61.3604 22.6865 60.5074" fill="#4AE4E4"/>
<path d="M38.1747 58.1069C34.7779 58.1069 31.4573 57.0996 28.6329 55.2125C25.8086 53.3253 23.6073 50.643 22.3074 47.5047C21.0074 44.3664 20.6673 40.9132 21.33 37.5816C21.9927 34.2501 23.6284 31.1898 26.0304 28.7879C28.4323 26.386 31.4925 24.7503 34.8241 24.0876C38.1556 23.4249 41.6089 23.765 44.7471 25.0649C47.8854 26.3648 50.5677 28.5662 52.4549 31.3905C54.3421 34.2149 55.3493 37.5354 55.3493 40.9322" stroke="#1062AA" stroke-width="3" stroke-linecap="round" stroke-linejoin="round"/>
<path d="M38.1752 50.0021C43.1843 50.0021 47.245 45.9414 47.245 40.9323C47.245 35.9232 43.1843 31.8625 38.1752 31.8625C33.1661 31.8625 29.1055 35.9232 29.1055 40.9323C29.1055 45.9414 33.1661 50.0021 38.1752 50.0021Z" stroke="#1062AA" stroke-width="3" stroke-miterlimit="10"/>
<path d="M55.3471 40.739C55.3471 43.3519 53.5331 45.1851 51.2946 45.1851C50.7618 45.1851 50.2342 45.0801 49.7421 44.8759C49.2499 44.6718 48.8028 44.3726 48.4264 43.9955C48.05 43.6183 47.7517 43.1707 47.5485 42.6781C47.3453 42.1856 47.2412 41.6578 47.2422 41.125" stroke="#1062AA" stroke-width="3" stroke-miterlimit="10"/>
<rect x="1.5" y="8.00854" width="64" height="64" rx="4.5" stroke="#1062AA" stroke-width="3"/>
<path d="M5.5 7.50773C5.5 7.50773 39.5 3.00854 56.5 2.00867C60.9535 1.74673 61.5 7.50828 61.5 7.50828" stroke="#1062AA" stroke-width="3"/>
</svg>
