<svg width="48" height="43" viewBox="0 0 48 43" fill="none" xmlns="http://www.w3.org/2000/svg">
<path d="M10.6251 0.887304L10.9879 1.10344C9.90313 0.419863 8.6548 0.0398307 7.37312 0.0029638C6.09143 -0.0339031 4.82333 0.273745 3.70102 0.893832C2.57872 1.51392 1.64332 2.42373 0.99235 3.52841C0.341383 4.63309 -0.00130993 5.89218 3.7628e-06 7.17439V35.4296C0.000558993 36.6471 0.310911 37.8444 0.901845 38.9088C1.49278 39.9733 2.34486 40.8698 3.37788 41.5141C4.4109 42.1584 5.59088 42.5292 6.80674 42.5917C8.02261 42.6541 9.23437 42.4061 10.328 41.8711C10.8086 41.6267 11.2626 41.3331 11.6826 40.995C15.5421 37.8727 28.2089 26.8886 28.2089 26.8886C29.0617 26.2021 29.7461 25.3294 30.2094 24.3375C30.6727 23.3455 30.9028 22.2606 30.8819 21.166C30.8611 20.0714 30.5898 18.9961 30.089 18.0225C29.5882 17.049 28.8712 16.203 27.9928 15.5495L28.2089 15.7154L11.7405 1.64762C10.6919 0.780551 9.41827 0.229712 8.06831 0.0594327C6.71836 -0.110847 5.34781 0.106462 4.11674 0.685981C2.88566 1.2655 1.84488 2.18331 1.11592 3.33222C0.386961 4.48114 -7.70433e-05 5.81374 3.7628e-06 7.17439V35.4296C0.000260116 36.7842 0.384175 38.111 1.1073 39.2564C1.83042 40.4018 2.86317 41.3189 4.08599 41.9017C5.3088 42.4844 6.67166 42.7089 8.01677 42.5491C9.36188 42.3893 10.6342 41.8518 11.6865 40.9988" fill="#FFE98F"/>
<path d="M41.8986 39H16.1255C13.3034 39 11 36.6966 11 33.8744V8.10144C11 5.27928 13.3034 2.97589 16.1255 2.97589H41.8986C44.7207 2.97589 47.0241 5.27928 47.0241 8.10144V33.8744C47.0241 36.6966 44.7207 39 41.8986 39ZM16.1255 4.73974C14.2787 4.73974 12.7639 6.25458 12.7639 8.10144V33.8744C12.7639 35.7213 14.2787 37.2361 16.1255 37.2361H41.8986C43.7454 37.2361 45.2603 35.7213 45.2603 33.8744V8.10144C45.2603 6.25458 43.7454 4.73974 41.8986 4.73974H16.1255Z" fill="#A81127"/>
<path d="M26.2292 32.6709H17.9079C17.4099 32.6709 17.0156 32.2766 17.0156 31.7786V22.0878C17.0156 21.5897 17.4099 21.1955 17.9079 21.1955H26.2292C26.7272 21.1955 27.1215 21.5897 27.1215 22.0878V31.7786C27.1007 32.2766 26.7064 32.6709 26.2292 32.6709ZM18.8002 30.907H25.3369V22.9593H18.8002V30.907Z" fill="#A81127"/>
<path d="M39.9457 12.1272H17.9079C17.4099 12.1272 17.0156 11.7329 17.0156 11.2349C17.0156 10.7368 17.4099 10.3426 17.9079 10.3426H39.9457C40.4437 10.3426 40.838 10.7368 40.838 11.2349C40.838 11.7329 40.4437 12.1272 39.9457 12.1272Z" fill="#A81127"/>
<path d="M39.9457 17.5433H17.9079C17.4306 17.5433 17.0156 17.149 17.0156 16.6717C17.0156 16.1737 17.4099 15.7794 17.9079 15.7794H39.9457C40.4437 15.7794 40.838 16.1737 40.838 16.6717C40.838 17.149 40.4437 17.5433 39.9457 17.5433Z" fill="#A81127"/>
<path d="M39.9474 22.9593H31.1696C30.6716 22.9593 30.2773 22.5651 30.2773 22.067C30.2773 21.569 30.6716 21.1747 31.1696 21.1747H39.9474C40.4454 21.1747 40.8397 21.569 40.8397 22.067C40.8397 22.5651 40.4454 22.9593 39.9474 22.9593Z" fill="#A81127"/>
<path d="M39.9474 32.6709H31.1696C30.6716 32.6709 30.2773 32.2766 30.2773 31.7786C30.2773 31.2806 30.6716 30.8863 31.1696 30.8863H39.9474C40.4454 30.8863 40.8397 31.2806 40.8397 31.7786C40.8397 32.2766 40.4454 32.6709 39.9474 32.6709Z" fill="#A81127"/>
<path d="M39.9474 27.8151H31.1696C30.6716 27.8151 30.2773 27.4208 30.2773 26.9228C30.2773 26.4248 30.6716 26.0305 31.1696 26.0305H39.9474C40.4454 26.0305 40.8397 26.4248 40.8397 26.9228C40.8397 27.4208 40.4454 27.8151 39.9474 27.8151Z" fill="#A81127"/>
</svg>
