<svg width="51" height="43" viewBox="0 0 51 43" fill="none" xmlns="http://www.w3.org/2000/svg">
<path d="M10.6251 0.887304L10.9879 1.10344C9.90313 0.419863 8.6548 0.0398307 7.37312 0.0029638C6.09143 -0.0339031 4.82333 0.273745 3.70102 0.893832C2.57872 1.51392 1.64332 2.42373 0.99235 3.52841C0.341383 4.63309 -0.00130993 5.89218 3.7628e-06 7.17439V35.4296C0.000558993 36.6471 0.310911 37.8444 0.901845 38.9088C1.49278 39.9733 2.34486 40.8698 3.37788 41.5141C4.4109 42.1584 5.59088 42.5292 6.80674 42.5917C8.02261 42.6541 9.23437 42.4061 10.328 41.8711C10.8086 41.6267 11.2626 41.3331 11.6826 40.995C15.5421 37.8727 28.2089 26.8886 28.2089 26.8886C29.0617 26.2021 29.7461 25.3294 30.2094 24.3375C30.6727 23.3455 30.9028 22.2606 30.8819 21.166C30.8611 20.0714 30.5898 18.9961 30.089 18.0225C29.5882 17.0489 28.8712 16.203 27.9928 15.5495L28.2089 15.7154L11.7405 1.64762C10.6919 0.780551 9.41827 0.229712 8.06831 0.0594327C6.71836 -0.110847 5.34781 0.106462 4.11674 0.685981C2.88566 1.2655 1.84488 2.18331 1.11592 3.33222C0.386961 4.48114 -7.70433e-05 5.81374 3.7628e-06 7.17439V35.4296C0.000260116 36.7842 0.384175 38.111 1.1073 39.2564C1.83042 40.4018 2.86317 41.319 4.08599 41.9017C5.3088 42.4844 6.67166 42.7089 8.01677 42.5491C9.36188 42.3893 10.6342 41.8518 11.6865 40.9988" fill="#F7B916"/>
<path d="M28.1292 35.9196C25.1373 35.9204 22.2125 35.0338 19.7245 33.3722C17.2366 31.7105 15.2974 29.3483 14.1521 26.5843C13.0068 23.8204 12.707 20.7789 13.2904 17.8445C13.8739 14.9101 15.3146 12.2147 17.4301 10.0991C19.5456 7.9836 22.2411 6.54297 25.1754 5.95948C28.1098 5.37599 31.1513 5.67585 33.9153 6.82113C36.6792 7.9664 39.0414 9.90565 40.7031 12.3936C42.3648 14.8815 43.2513 17.8064 43.2506 20.7982C43.2455 24.8071 41.6507 28.6503 38.816 31.485C35.9813 34.3197 32.138 35.9145 28.1292 35.9196ZM28.1292 8.47102C25.6909 8.47026 23.3072 9.19259 21.2795 10.5466C19.2518 11.9007 17.6712 13.8257 16.7376 16.0781C15.804 18.3305 15.5593 20.8092 16.0345 23.2007C16.5097 25.5922 17.6835 27.7891 19.4073 29.5135C21.1311 31.2378 23.3276 32.4123 25.719 32.8882C28.1103 33.3642 30.5891 33.1203 32.8418 32.1874C35.0945 31.2545 37.02 29.6745 38.3747 27.6472C39.7294 25.6199 40.4525 23.2364 40.4525 20.7982C40.4463 17.5314 39.1462 14.4 36.8365 12.0897C34.5269 9.77933 31.396 8.47816 28.1292 8.47102Z" fill="#1062AA"/>
<path d="M38.5633 13.2878C38.2731 13.2931 37.9884 13.2079 37.7488 13.0439C37.5092 12.88 37.3266 12.6454 37.2264 12.3729C37.1263 12.1005 37.1135 11.8035 37.1898 11.5234C37.2662 11.2433 37.4279 10.994 37.6525 10.81L47.9573 2.01041C48.2415 1.78313 48.6029 1.67532 48.9651 1.7098C49.3274 1.74427 49.662 1.91832 49.8981 2.19512C50.1343 2.47192 50.2536 2.82975 50.2306 3.19289C50.2076 3.55603 50.0443 3.89599 49.7751 4.14084L39.4703 12.952C39.2185 13.1699 38.8963 13.2891 38.5633 13.2878Z" fill="#1062AA"/>
</svg>
