<svg width="50" height="44" viewBox="0 0 50 44" fill="none" xmlns="http://www.w3.org/2000/svg">
<path d="M10.8065 0.906369L11.1925 1.12636C10.088 0.431029 8.81736 0.0444212 7.51278 0.00677092C6.2082 -0.0308794 4.91737 0.281804 3.77464 0.91228C2.6319 1.54275 1.67903 2.46798 1.01518 3.59166C0.351332 4.71533 0.00077908 5.9964 3.45979e-06 7.30152V36.0778C-0.000811596 37.3181 0.314319 38.5382 0.915676 39.623C1.51703 40.7077 2.38479 41.6215 3.43712 42.278C4.48945 42.9345 5.69166 43.3121 6.93036 43.3752C8.16907 43.4384 9.40344 43.185 10.5171 42.6389C11.0074 42.3928 11.4695 42.0938 11.8949 41.7473C15.8239 38.5671 28.7222 27.3785 28.7222 27.3824C29.5909 26.6829 30.2879 25.7939 30.7598 24.7834C31.2317 23.7729 31.4661 22.6678 31.4448 21.5527C31.4236 20.4377 31.1474 19.3423 30.6373 18.3505C30.1272 17.3587 29.3969 16.4968 28.5022 15.831L28.7222 16.0008L11.9644 1.68212C10.8968 0.79648 9.59905 0.233233 8.22301 0.0583031C6.84696 -0.116627 5.44956 0.103997 4.19434 0.694354C2.93912 1.28471 1.87802 2.22038 1.13522 3.39185C0.392421 4.56332 -0.00134657 5.92212 3.45979e-06 7.30924V36.0778C7.36285e-05 37.457 0.390777 38.8081 1.12688 39.9745C1.86299 41.1409 2.9144 42.075 4.15938 42.6686C5.40437 43.2622 6.79203 43.4911 8.1617 43.3288C9.53138 43.1664 10.8271 42.6194 11.8988 41.7512" fill="#EB008B"/>
<path d="M32.009 40C28.4486 40.0018 24.9676 38.9476 22.0063 36.9708C19.045 34.9941 16.7365 32.1835 15.3728 28.8946C14.009 25.6056 13.6513 21.9862 14.3448 18.4939C15.0383 15.0017 16.7519 11.7935 19.2689 9.27528C21.7859 6.75703 24.9932 5.0418 28.4851 4.34653C31.977 3.65127 35.5966 4.0072 38.8862 5.36931C42.1758 6.73142 44.9876 9.03852 46.9658 11.9988C48.9441 14.9591 50 18.4396 50 22C49.994 26.7705 48.0969 31.344 44.7245 34.7181C41.3521 38.0922 36.7795 39.9916 32.009 40ZM32.009 7.33384C29.1071 7.33295 26.27 8.19272 23.8567 9.80441C21.4435 11.4161 19.5624 13.7073 18.4514 16.3882C17.3405 19.0691 17.0496 22.0193 17.6155 24.8655C18.1814 27.7118 19.5788 30.3262 21.6308 32.3782C23.6828 34.4302 26.2973 35.8276 29.1435 36.3935C31.9898 36.9594 34.9399 36.6685 37.6208 35.5576C40.3017 34.4466 42.5929 32.5656 44.2046 30.1523C45.8163 27.739 46.6761 24.902 46.6752 22C46.6716 18.1114 45.1253 14.3831 42.3756 11.6334C39.6259 8.88375 35.8976 7.33742 32.009 7.33384Z" fill="#1062AA"/>
<path d="M31.5583 26C31.3363 26.0002 31.1165 25.9579 30.9116 25.8754C30.7067 25.7929 30.5209 25.6719 30.365 25.5194L24.4943 19.8585C24.1778 19.5533 24 19.1394 24 18.7078C24 18.2762 24.1778 17.8623 24.4943 17.5571C24.8108 17.2519 25.2401 17.0805 25.6876 17.0805C26.1352 17.0805 26.5645 17.2519 26.881 17.5571L31.3846 21.8998L44.9686 4.64372C45.239 4.29995 45.64 4.07384 46.0833 4.01513C46.5266 3.95643 46.9759 4.06994 47.3324 4.33069C47.6889 4.59144 47.9234 4.97808 47.9843 5.40554C48.0452 5.833 47.9275 6.26628 47.6571 6.61005L32.9026 25.3563C32.756 25.5406 32.5706 25.6928 32.3586 25.803C32.1466 25.9132 31.9128 25.9788 31.6727 25.9956L31.5583 26Z" fill="#1062AA"/>
</svg>
