<svg width="45" height="39" viewBox="0 0 45 39" fill="none" xmlns="http://www.w3.org/2000/svg">
<path d="M9.62226 0.814766L9.96591 1.01252C8.98247 0.387467 7.85108 0.0399317 6.68946 0.00608662C5.52785 -0.0277585 4.37848 0.253324 3.36098 0.820079C2.34347 1.38684 1.49502 2.21855 0.903926 3.22866C0.31283 4.23878 0.000693701 5.39037 3.08063e-06 6.56359V32.4315C-0.000722654 33.5465 0.279873 34.6433 0.815328 35.6184C1.35078 36.5936 2.12345 37.415 3.06045 38.0051C3.99745 38.5953 5.06791 38.9347 6.17087 38.9915C7.27383 39.0483 8.37293 38.8204 9.36452 38.3296C9.80115 38.1083 10.2125 37.8396 10.5914 37.5281C14.0897 34.6693 25.5746 24.6115 25.5746 24.615C26.348 23.9862 26.9687 23.187 27.3889 22.2786C27.8091 21.3703 28.0177 20.3768 27.9988 19.3745C27.9799 18.3721 27.734 17.3874 27.2798 16.4959C26.8256 15.6043 26.1753 14.8296 25.3787 14.231L25.5746 14.3836L10.6532 1.51212C9.70263 0.715983 8.5471 0.209661 7.32185 0.0524106C6.09661 -0.10484 4.85235 0.0934866 3.73469 0.624179C2.61703 1.15487 1.67221 1.99597 1.01081 3.04905C0.349416 4.10212 -0.001199 5.3236 3.08063e-06 6.57053V32.4315C6.55596e-05 33.6714 0.347952 34.8859 1.00339 35.9345C1.65883 36.983 2.59501 37.8227 3.70356 38.3563C4.81211 38.8899 6.04769 39.0957 7.26727 38.9497C8.48685 38.8038 9.64054 38.3121 10.5948 37.5316" fill="#00F3FF"/>
<path d="M38.3025 3.21875H16.0064C13.414 3.21875 11.3125 5.32028 11.3125 7.91266V30.2087C11.3125 32.8011 13.414 34.9026 16.0064 34.9026H38.3025C40.8949 34.9026 42.9964 32.8011 42.9964 30.2087V7.91266C42.9964 5.32028 40.8949 3.21875 38.3025 3.21875Z" stroke="#1062AA" stroke-width="3" stroke-miterlimit="10"/>
<path d="M16.0117 27.4707L23.0526 21.2121L25.7907 24.3414L35.9608 14.1713" stroke="#1062AA" stroke-width="3" stroke-linecap="round" stroke-linejoin="round"/>
<path d="M30.0938 14.5623L37.5258 12.2153L36.3523 19.6474" stroke="#1062AA" stroke-width="3" stroke-linecap="round" stroke-linejoin="round"/>
</svg>
