<svg width="69" height="68" viewBox="0 0 69 68" fill="none" xmlns="http://www.w3.org/2000/svg">
<path d="M55.02 2H14C7.37258 2 2 7.37258 2 14V54C2 60.6274 7.37258 66 14 66H55.02C61.6474 66 67.02 60.6274 67.02 54V14C67.02 7.37258 61.6474 2 55.02 2Z" stroke="#1062AA" stroke-width="3" stroke-linecap="round" stroke-linejoin="round"/>
<path d="M43.6891 43.71H25.2091C19.6591 43.71 19.4691 39.52 21.6391 36.05L30.3091 22.2C30.7418 21.4817 31.354 20.8885 32.0855 20.4787C32.8171 20.0688 33.6427 19.8565 34.4812 19.8626C35.3197 19.8686 36.1421 20.0928 36.8677 20.5132C37.5932 20.9336 38.1968 21.5356 38.6191 22.26L47.2591 36.05C49.6491 39.61 49.1891 43.71 43.6891 43.71Z" fill="#F7B916"/>
<path d="M34.5117 34.3101V25.05" stroke="#1062AA" stroke-width="3" stroke-linecap="round" stroke-linejoin="round"/>
<path d="M34.4805 40.33C35.3089 40.33 35.9805 39.6584 35.9805 38.83C35.9805 38.0015 35.3089 37.33 34.4805 37.33C33.652 37.33 32.9805 38.0015 32.9805 38.83C32.9805 39.6584 33.652 40.33 34.4805 40.33Z" fill="#1062AA"/>
</svg>
