<svg width="51" height="43" viewBox="0 0 51 43" fill="none" xmlns="http://www.w3.org/2000/svg">
<path d="M10.6251 0.887304L10.9879 1.10344C9.90313 0.419863 8.6548 0.0398307 7.37312 0.0029638C6.09143 -0.0339031 4.82333 0.273745 3.70102 0.893832C2.57872 1.51392 1.64332 2.42373 0.99235 3.52841C0.341383 4.63309 -0.00130993 5.89218 3.7628e-06 7.17439V35.4296C0.000558993 36.6471 0.310911 37.8444 0.901845 38.9088C1.49278 39.9733 2.34486 40.8698 3.37788 41.5141C4.4109 42.1584 5.59088 42.5292 6.80674 42.5917C8.02261 42.6541 9.23437 42.4061 10.328 41.8711C10.8086 41.6267 11.2626 41.3331 11.6826 40.995C15.5421 37.8727 28.2089 26.8886 28.2089 26.8886C29.0617 26.2021 29.7461 25.3294 30.2094 24.3375C30.6727 23.3455 30.9028 22.2606 30.8819 21.166C30.8611 20.0714 30.5898 18.9961 30.089 18.0225C29.5882 17.049 28.8712 16.203 27.9928 15.5495L28.2089 15.7154L11.7405 1.64762C10.6919 0.780551 9.41827 0.229712 8.06831 0.0594327C6.71836 -0.110847 5.34781 0.106462 4.11674 0.685981C2.88566 1.2655 1.84488 2.18331 1.11592 3.33222C0.386961 4.48114 -7.70433e-05 5.81374 3.7628e-06 7.17439V35.4296C0.000260116 36.7842 0.384175 38.111 1.1073 39.2564C1.83042 40.4018 2.86317 41.3189 4.08599 41.9017C5.3088 42.4844 6.67166 42.7089 8.01677 42.5491C9.36188 42.3893 10.6342 41.8518 11.6865 40.9988" fill="#DDF516"/>
<path d="M44.4016 5.21368H17.3853C14.8274 5.21368 12.7539 7.28722 12.7539 9.84506V27.5986C12.7539 30.1565 14.8274 32.23 17.3853 32.23H44.4016C46.9594 32.23 49.033 30.1565 49.033 27.5986V9.84506C49.033 7.28722 46.9594 5.21368 44.4016 5.21368Z" stroke="#1062AA" stroke-width="3" stroke-miterlimit="10"/>
<path d="M44.0812 9.07324H17.7055C17.1023 9.07324 16.6133 9.56225 16.6133 10.1655V27.2784C16.6133 27.8816 17.1023 28.3706 17.7055 28.3706H44.0812C44.6844 28.3706 45.1734 27.8816 45.1734 27.2784V10.1655C45.1734 9.56225 44.6844 9.07324 44.0812 9.07324Z" stroke="#1062AA" stroke-width="3" stroke-miterlimit="10"/>
<path d="M21.3555 37.4866H40.9307" stroke="#1062AA" stroke-width="3" stroke-linecap="round" stroke-linejoin="round"/>
</svg>
