<svg width="40" height="44" viewBox="0 0 40 44" fill="none" xmlns="http://www.w3.org/2000/svg">
<path d="M10.8065 0.906369L11.1925 1.12636C10.088 0.431029 8.81736 0.0444212 7.51278 0.00677092C6.2082 -0.0308794 4.91737 0.281804 3.77464 0.91228C2.6319 1.54275 1.67903 2.46798 1.01518 3.59166C0.351332 4.71533 0.00077908 5.9964 3.45979e-06 7.30152V36.0778C-0.000811596 37.3181 0.314319 38.5382 0.915676 39.623C1.51703 40.7077 2.38479 41.6215 3.43712 42.278C4.48945 42.9345 5.69166 43.3121 6.93036 43.3752C8.16907 43.4384 9.40344 43.185 10.5171 42.6389C11.0074 42.3928 11.4695 42.0938 11.8949 41.7473C15.8239 38.5671 28.7222 27.3785 28.7222 27.3824C29.5909 26.6829 30.2879 25.7939 30.7598 24.7834C31.2317 23.7729 31.4661 22.6678 31.4448 21.5527C31.4236 20.4377 31.1474 19.3423 30.6373 18.3505C30.1272 17.3587 29.3969 16.4968 28.5022 15.831L28.7222 16.0008L11.9644 1.68212C10.8968 0.79648 9.59905 0.233233 8.22301 0.0583031C6.84696 -0.116627 5.44956 0.103997 4.19434 0.694354C2.93912 1.28471 1.87802 2.22038 1.13522 3.39185C0.392421 4.56332 -0.00134657 5.92212 3.45979e-06 7.30924V36.0778C7.36285e-05 37.457 0.390777 38.8081 1.12688 39.9745C1.86299 41.1409 2.9144 42.075 4.15938 42.6686C5.40437 43.2622 6.79203 43.4911 8.1617 43.3288C9.53138 43.1664 10.8271 42.6194 11.8988 41.7512" fill="#EB008B"/>
<path d="M24.3602 37.6948C21.3141 37.6963 18.3361 36.7945 15.8027 35.1033C13.2692 33.4121 11.2943 31.0076 10.1276 28.1939C8.96083 25.3802 8.65477 22.2837 9.24808 19.296C9.8414 16.3083 11.3074 13.5637 13.4608 11.4093C15.6141 9.25486 18.358 7.78746 21.3453 7.19264C24.3327 6.59783 27.4294 6.90234 30.2437 8.06765C33.058 9.23296 35.4635 11.2067 37.156 13.7393C38.8484 16.2719 39.7518 19.2495 39.7518 22.2955C39.7467 26.3767 38.1236 30.2895 35.2385 33.1761C32.3533 36.0627 28.4414 37.6877 24.3602 37.6948ZM24.3602 9.74834C21.8775 9.74757 19.4503 10.4831 17.3857 11.862C15.3211 13.2408 13.7118 15.2009 12.7614 17.4945C11.811 19.7881 11.5621 22.312 12.0463 24.747C12.5304 27.182 13.7259 29.4187 15.4814 31.1743C17.2369 32.9298 19.4736 34.1252 21.9087 34.6094C24.3437 35.0936 26.8676 34.8447 29.1612 33.8942C31.4547 32.9438 33.4149 31.3345 34.7937 29.2699C36.1725 27.2053 36.9081 24.7782 36.9073 22.2955C36.9043 18.9687 35.5813 15.7791 33.229 13.4267C30.8766 11.0743 27.6869 9.7514 24.3602 9.74834Z" fill="#1062AA"/>
<path d="M24.3606 26.159C24.1732 26.1592 23.9876 26.1221 23.8147 26.0499C23.6417 25.9777 23.4849 25.8718 23.3533 25.7383L18.3977 20.7828C18.1306 20.5156 17.9805 20.1533 17.9805 19.7754C17.9805 19.3976 18.1306 19.0353 18.3977 18.7681C18.6649 18.501 19.0272 18.3509 19.405 18.3509C19.7829 18.3509 20.1452 18.501 20.4124 18.7681L24.2139 22.5697L35.6804 7.46372C35.9087 7.16278 36.2472 6.96485 36.6214 6.91346C36.9956 6.86207 37.3749 6.96143 37.6758 7.18969C37.9767 7.41796 38.1747 7.75642 38.2261 8.13062C38.2774 8.50482 38.1781 8.88411 37.9498 9.18504L25.4953 25.5955C25.3716 25.7568 25.2151 25.8901 25.0361 25.9866C24.8572 26.083 24.6598 26.1405 24.4571 26.1552L24.3606 26.159Z" fill="#1062AA"/>
</svg>
