<svg width="67" height="74" viewBox="0 0 67 74" fill="none" xmlns="http://www.w3.org/2000/svg">
<path d="M23.8065 20.4149L24.1925 20.6349C23.088 19.9396 21.8174 19.553 20.5128 19.5153C19.2082 19.4777 17.9174 19.7903 16.7746 20.4208C15.6319 21.0513 14.679 21.9765 14.0152 23.1002C13.3513 24.2239 13.0008 25.5049 13 26.8101V55.5863C12.9992 56.8266 13.3143 58.0467 13.9157 59.1315C14.517 60.2163 15.3848 61.13 16.4371 61.7865C17.4894 62.443 18.6917 62.8206 19.9304 62.8838C21.1691 62.9469 22.4034 62.6935 23.5171 62.1474C24.0074 61.9013 24.4695 61.6024 24.8949 61.2559C28.8239 58.0757 41.7222 46.8871 41.7222 46.8909C42.5909 46.1915 43.2879 45.3024 43.7598 44.2919C44.2317 43.2814 44.4661 42.1763 44.4448 41.0613C44.4236 39.9462 44.1474 38.8508 43.6373 37.859C43.1272 36.8672 42.3969 36.0054 41.5022 35.3395L41.7222 35.5093L24.9644 21.1907C23.8968 20.305 22.599 19.7418 21.223 19.5668C19.847 19.3919 18.4496 19.6125 17.1943 20.2029C15.9391 20.7933 14.878 21.7289 14.1352 22.9004C13.3924 24.0719 12.9987 25.4307 13 26.8178V55.5863C13.0001 56.9656 13.3908 58.3166 14.1269 59.483C14.863 60.6495 15.9144 61.5836 17.1594 62.1772C18.4044 62.7708 19.792 62.9997 21.1617 62.8373C22.5314 62.6749 23.8271 62.128 24.8988 61.2598" fill="#EB008B"/>
<path d="M37.3602 57.2033C34.3141 57.2048 31.3361 56.303 28.8027 54.6118C26.2692 52.9206 24.2943 50.5161 23.1276 47.7024C21.9608 44.8887 21.6548 41.7921 22.2481 38.8045C22.8414 35.8168 24.3074 33.0722 26.4608 30.9178C28.6141 28.7633 31.358 27.2959 34.3453 26.7011C37.3327 26.1063 40.4294 26.4108 43.2437 27.5761C46.058 28.7414 48.4635 30.7152 50.156 33.2478C51.8484 35.7803 52.7518 38.758 52.7518 41.804C52.7467 45.8852 51.1236 49.798 48.2385 52.6846C45.3533 55.5712 41.4414 57.1961 37.3602 57.2033ZM37.3602 29.2568C34.8775 29.2561 32.4503 29.9916 30.3857 31.3704C28.3211 32.7493 26.7118 34.7094 25.7614 37.003C24.811 39.2965 24.5621 41.8205 25.0463 44.2555C25.5304 46.6905 26.7259 48.9272 28.4814 50.6827C30.2369 52.4383 32.4736 53.6337 34.9087 54.1179C37.3437 54.602 39.8676 54.3532 42.1612 53.4027C44.4547 52.4523 46.4149 50.843 47.7937 48.7784C49.1725 46.7138 49.9081 44.2867 49.9073 41.804C49.9043 38.4772 48.5813 35.2876 46.229 32.9352C43.8766 30.5828 40.6869 29.2599 37.3602 29.2568Z" fill="#1062AA"/>
<path d="M37.3606 45.6675C37.1732 45.6677 36.9876 45.6306 36.8147 45.5584C36.6417 45.4862 36.4849 45.3803 36.3533 45.2468L31.3977 40.2913C31.1306 40.0241 30.9805 39.6618 30.9805 39.2839C30.9805 38.9061 31.1306 38.5438 31.3977 38.2766C31.6649 38.0094 32.0272 37.8594 32.405 37.8594C32.7829 37.8594 33.1452 38.0094 33.4124 38.2766L37.2139 42.0782L48.6804 26.9722C48.9087 26.6713 49.2472 26.4733 49.6214 26.4219C49.9956 26.3706 50.3749 26.4699 50.6758 26.6982C50.9767 26.9264 51.1747 27.2649 51.2261 27.6391C51.2774 28.0133 51.1781 28.3926 50.9498 28.6935L38.4953 45.104C38.3716 45.2653 38.2151 45.3986 38.0361 45.495C37.8572 45.5915 37.6598 45.649 37.4571 45.6636L37.3606 45.6675Z" fill="#1062AA"/>
<rect x="1.5" y="8.00854" width="64" height="64" rx="4.5" stroke="#1062AA" stroke-width="3"/>
<path d="M5.5 7.50773C5.5 7.50773 39.5 3.00854 56.5 2.00867C60.9535 1.74673 61.5 7.50828 61.5 7.50828" stroke="#1062AA" stroke-width="3"/>
</svg>
