<svg width="50" height="43" viewBox="0 0 50 43" fill="none" xmlns="http://www.w3.org/2000/svg">
<path d="M10.6251 0.887304L10.9879 1.10344C9.90313 0.419863 8.6548 0.0398307 7.37312 0.0029638C6.09143 -0.0339031 4.82333 0.273745 3.70102 0.893832C2.57872 1.51392 1.64332 2.42373 0.99235 3.52841C0.341383 4.63309 -0.00130993 5.89218 3.7628e-06 7.17439V35.4296C0.000558993 36.6471 0.310911 37.8444 0.901845 38.9088C1.49278 39.9733 2.34486 40.8698 3.37788 41.5141C4.4109 42.1584 5.59088 42.5292 6.80674 42.5917C8.02261 42.6541 9.23437 42.4061 10.328 41.8711C10.8086 41.6267 11.2626 41.3331 11.6826 40.995C15.5421 37.8727 28.2089 26.8886 28.2089 26.8886C29.0617 26.2021 29.7461 25.3294 30.2094 24.3375C30.6727 23.3455 30.9028 22.2606 30.8819 21.166C30.8611 20.0714 30.5898 18.9961 30.089 18.0225C29.5882 17.0489 28.8712 16.203 27.9928 15.5495L28.2089 15.7154L11.7405 1.64762C10.6919 0.780551 9.41827 0.229712 8.06831 0.0594327C6.71836 -0.110847 5.34781 0.106462 4.11674 0.685981C2.88566 1.2655 1.84488 2.18331 1.11592 3.33222C0.386961 4.48114 -7.70433e-05 5.81374 3.7628e-06 7.17439V35.4296C0.000260116 36.7842 0.384175 38.111 1.1073 39.2564C1.83042 40.4018 2.86317 41.319 4.08599 41.9017C5.3088 42.4844 6.67166 42.7089 8.01677 42.5491C9.36188 42.3893 10.6342 41.8518 11.6865 40.9988" fill="#4AE4E4"/>
<path d="M31.1747 38.5984C27.7779 38.5984 24.4573 37.5911 21.6329 35.7039C18.8086 33.8167 16.6073 31.1344 15.3074 27.9962C14.0074 24.8579 13.6673 21.4046 14.33 18.0731C14.9927 14.7415 16.6284 11.6813 19.0304 9.27938C21.4323 6.87745 24.4925 5.24173 27.8241 4.57904C31.1556 3.91635 34.6089 4.25646 37.7471 5.55638C40.8854 6.85629 43.5677 9.05761 45.4549 11.882C47.3421 14.7063 48.3493 18.0269 48.3493 21.4237" stroke="#1062AA" stroke-width="3" stroke-linecap="round" stroke-linejoin="round"/>
<path d="M31.1752 30.4935C36.1843 30.4935 40.245 26.4329 40.245 21.4238C40.245 16.4147 36.1843 12.354 31.1752 12.354C26.1661 12.354 22.1055 16.4147 22.1055 21.4238C22.1055 26.4329 26.1661 30.4935 31.1752 30.4935Z" stroke="#1062AA" stroke-width="3" stroke-miterlimit="10"/>
<path d="M48.3471 21.2305C48.3471 23.8433 46.5331 25.6766 44.2946 25.6766C43.7618 25.6766 43.2342 25.5715 42.7421 25.3674C42.2499 25.1632 41.8028 24.864 41.4264 24.4869C41.05 24.1098 40.7517 23.6622 40.5485 23.1696C40.3453 22.677 40.2412 22.1492 40.2422 21.6164" stroke="#1062AA" stroke-width="3" stroke-miterlimit="10"/>
</svg>
