<svg width="67" height="74" viewBox="0 0 67 74" fill="none" xmlns="http://www.w3.org/2000/svg">
<path d="M19.6251 20.3958L19.9879 20.612C18.9031 19.9284 17.6548 19.5484 16.3731 19.5115C15.0914 19.4746 13.8233 19.7823 12.701 20.4024C11.5787 21.0225 10.6433 21.9323 9.99235 23.037C9.34138 24.1416 8.99869 25.4007 9 26.6829V54.9382C9.00056 56.1556 9.31091 57.3529 9.90185 58.4174C10.4928 59.4818 11.3449 60.3784 12.3779 61.0227C13.4109 61.6669 14.5909 62.0378 15.8067 62.1002C17.0226 62.1627 18.2344 61.9147 19.328 61.3796C19.8086 61.1352 20.2626 60.8416 20.6826 60.5035C24.5421 57.3812 37.2089 46.3971 37.2089 46.3971C38.0617 45.7106 38.7461 44.8379 39.2094 43.846C39.6727 42.8541 39.9028 41.7692 39.8819 40.6746C39.8611 39.5799 39.5898 38.5046 39.089 37.5311C38.5882 36.5575 37.8712 35.7115 36.9928 35.058L37.2089 35.224L20.7405 21.1562C19.6919 20.2891 18.4183 19.7383 17.0683 19.568C15.7184 19.3977 14.3478 19.615 13.1167 20.1945C11.8857 20.774 10.8449 21.6919 10.1159 22.8408C9.38696 23.9897 8.99992 25.3223 9 26.6829V54.9382C9.00026 56.2927 9.38417 57.6195 10.1073 58.7649C10.8304 59.9103 11.8632 60.8275 13.086 61.4102C14.3088 61.993 15.6717 62.2174 17.0168 62.0577C18.3619 61.8979 19.6342 61.3604 20.6865 60.5074" fill="#F7B916"/>
<path d="M34.2463 55.4282C31.2545 55.429 28.3297 54.5424 25.8417 52.8807C23.3538 51.219 21.4146 48.8568 20.2693 46.0929C19.124 43.3289 18.8241 40.2874 19.4076 37.3531C19.9911 34.4187 21.4317 31.7233 23.5473 29.6077C25.6628 27.4922 28.3583 26.0515 31.2926 25.4681C34.227 24.8846 37.2685 25.1844 40.0325 26.3297C42.7964 27.475 45.1586 29.4142 46.8203 31.9022C48.482 34.3901 49.3685 37.3149 49.3678 40.3068C49.3627 44.3157 47.7679 48.1589 44.9332 50.9936C42.0985 53.8283 38.2552 55.4231 34.2463 55.4282ZM34.2463 27.9796C31.8081 27.9788 29.4244 28.7012 27.3967 30.0552C25.369 31.4093 23.7884 33.3343 22.8548 35.5867C21.9212 37.8391 21.6765 40.3178 22.1517 42.7093C22.6269 45.1008 23.8007 47.2977 25.5245 49.022C27.2483 50.7464 29.4448 51.9208 31.8362 52.3968C34.2275 52.8727 36.7063 52.6289 38.959 51.696C41.2117 50.7631 43.1372 49.1831 44.4919 47.1558C45.8466 45.1285 46.5696 42.745 46.5696 40.3068C46.5635 37.0399 45.2633 33.9086 42.9537 31.5983C40.6441 29.2879 37.5132 27.9867 34.2463 27.9796Z" fill="#1062AA"/>
<path d="M44.6805 32.7963C44.3903 32.8017 44.1055 32.7164 43.8659 32.5525C43.6263 32.3885 43.4438 32.154 43.3436 31.8815C43.2434 31.609 43.2306 31.3121 43.307 31.032C43.3834 30.7519 43.5451 30.5025 43.7697 30.3186L54.0745 21.519C54.3587 21.2917 54.7201 21.1839 55.0823 21.2183C55.4445 21.2528 55.7792 21.4269 56.0153 21.7037C56.2515 21.9805 56.3707 22.3383 56.3478 22.7014C56.3248 23.0646 56.1615 23.4045 55.8923 23.6494L45.5875 32.4606C45.3357 32.6784 45.0135 32.7977 44.6805 32.7963Z" fill="#1062AA"/>
<rect x="1.5" y="8.00854" width="64" height="64" rx="4.5" stroke="#1062AA" stroke-width="3"/>
<path d="M5.5 7.50773C5.5 7.50773 39.5 3.00854 56.5 2.00867C60.9535 1.74673 61.5 7.50828 61.5 7.50828" stroke="#1062AA" stroke-width="3"/>
</svg>
