<svg width="48" height="43" viewBox="0 0 48 43" fill="none" xmlns="http://www.w3.org/2000/svg">
<path d="M10.822 0.899091L11.1775 1.13364C10.0716 0.390909 8.72872 0 7.30684 0C3.27821 0 0 3.24455 0 7.23182V35.7291C0 39.7555 3.27821 43 7.30684 43C8.45224 43 9.55814 42.7264 10.5456 42.2573C10.5456 42.2573 11.217 41.9445 11.9279 41.3582C15.8381 38.1918 28.7929 27.1291 28.7929 27.1291C30.4123 25.8 31.4787 23.7673 31.4787 21.5C31.4787 19.1155 30.3333 17.0045 28.5164 15.7145L28.7534 15.8709L11.9674 1.64182C10.7035 0.625455 9.08418 0 7.30684 0C3.27821 0 0 3.24455 0 7.23182V35.7291C0 39.7555 3.27821 43 7.30684 43C9.04469 43 10.664 42.4136 11.9279 41.3973" fill="#00ADEE"/>
<path d="M42.6982 39.2079H18.0919C17.8154 39.2079 15.5247 39.0906 14.2213 37.2925C12.8389 35.377 13.4313 33.227 13.9843 31.7415C16.5516 24.9397 23.1475 20.4052 30.4938 20.4052C37.7612 20.4052 44.1596 24.7052 46.8453 31.3897C47.6748 33.4615 47.5958 35.8461 46.6084 37.2534C45.2655 39.1297 42.9747 39.2079 42.6982 39.2079ZM30.4543 23.2197C24.3324 23.2197 18.7634 27.0506 16.6306 32.7188C15.9591 34.4779 16.1961 35.1815 16.5121 35.6506C16.986 36.3152 18.0919 36.3934 18.0919 36.3934H42.6587C42.6587 36.3934 43.6856 36.3543 44.1596 35.6506C44.4756 35.1815 44.673 33.8525 44.1201 32.4061C41.9083 26.8161 36.5368 23.2197 30.4543 23.2197Z" fill="#1062AA"/>
<path d="M30.4518 23.2197C25.0408 23.2197 20.6172 18.8807 20.6172 13.4861C20.6172 8.09156 25.0408 3.79156 30.4518 3.79156C35.8628 3.79156 40.2864 8.13065 40.2864 13.5252C40.2864 18.9197 35.8628 23.2197 30.4518 23.2197ZM30.4518 6.60611C26.6207 6.60611 23.5004 9.69429 23.5004 13.4861C23.5004 17.2779 26.6207 20.3661 30.4518 20.3661C34.283 20.3661 37.4427 17.2779 37.4427 13.4861C37.4427 9.69429 34.3225 6.60611 30.4518 6.60611Z" fill="#1062AA"/>
</svg>
