<svg width="45" height="43" viewBox="0 0 45 43" fill="none" xmlns="http://www.w3.org/2000/svg">
<path d="M10.6251 0.887304L10.9879 1.10344C9.90313 0.419863 8.6548 0.0398307 7.37312 0.0029638C6.09143 -0.0339031 4.82333 0.273745 3.70102 0.893832C2.57872 1.51392 1.64332 2.42373 0.99235 3.52841C0.341383 4.63309 -0.00130993 5.89218 3.7628e-06 7.17439V35.4296C0.000558993 36.6471 0.310911 37.8444 0.901845 38.9088C1.49278 39.9733 2.34486 40.8698 3.37788 41.5141C4.4109 42.1584 5.59088 42.5292 6.80674 42.5917C8.02261 42.6541 9.23437 42.4061 10.328 41.8711C10.8086 41.6267 11.2626 41.3331 11.6826 40.995C15.5421 37.8727 28.2089 26.8886 28.2089 26.8886C29.0617 26.2021 29.7461 25.3294 30.2094 24.3375C30.6727 23.3455 30.9028 22.2606 30.8819 21.166C30.8611 20.0714 30.5898 18.9961 30.089 18.0225C29.5882 17.049 28.8712 16.203 27.9928 15.5495L28.2089 15.7154L11.7405 1.64762C10.6919 0.780551 9.41827 0.229712 8.06831 0.0594327C6.71836 -0.110847 5.34781 0.106462 4.11674 0.685981C2.88566 1.2655 1.84488 2.18331 1.11592 3.33222C0.386961 4.48114 -7.70433e-05 5.81374 3.7628e-06 7.17439V35.4296C0.000260116 36.7842 0.384175 38.111 1.1073 39.2564C1.83042 40.4018 2.86317 41.3189 4.08599 41.9017C5.3088 42.4844 6.67166 42.7089 8.01677 42.5491C9.36188 42.3893 10.6342 41.8518 11.6865 40.9988" fill="#F7B916"/>
<path d="M34.7367 25.9854H24.5438C24.2354 25.9751 23.933 25.8976 23.6577 25.7583C23.3824 25.619 23.1408 25.4212 22.9499 25.1788C22.3825 24.3837 22.618 23.4767 22.8457 22.8631C23.3582 21.4852 24.2763 20.2951 25.4789 19.4496C26.6815 18.6042 28.1122 18.1431 29.5822 18.1272C31.0522 18.1113 32.4925 18.5414 33.7131 19.3607C34.9337 20.1799 35.8773 21.35 36.4195 22.7164C36.5916 23.1054 36.6718 23.5289 36.6537 23.954C36.6357 24.379 36.5198 24.7942 36.3152 25.1672C36.1319 25.4148 35.8943 25.6173 35.6207 25.7591C35.3471 25.9009 35.0448 25.9783 34.7367 25.9854ZM29.6615 19.3008C28.4192 19.3044 27.2075 19.6864 26.1878 20.3958C25.168 21.1053 24.3886 22.1086 23.9533 23.2722C23.6793 24.0132 23.7681 24.2949 23.9109 24.4918C24.0788 24.6776 24.3131 24.7899 24.5631 24.8044H34.7367C34.856 24.7999 34.9731 24.7708 35.0807 24.719C35.1883 24.6672 35.284 24.5938 35.362 24.5034C35.4567 24.2908 35.5056 24.0607 35.5056 23.8279C35.5056 23.5952 35.4567 23.3651 35.362 23.1525C34.9144 22.0083 34.1295 21.0271 33.1114 20.3392C32.0933 19.6513 30.8902 19.2891 29.6615 19.3008Z" fill="#1062AA" stroke="#1062AA" stroke-linecap="round" stroke-linejoin="round"/>
<path d="M29.6617 19.3008C28.8593 19.3016 28.0747 19.0643 27.4071 18.6191C26.7396 18.1738 26.219 17.5406 25.9114 16.7994C25.6038 16.0583 25.523 15.2426 25.679 14.4555C25.8351 13.6684 26.2211 12.9453 26.7883 12.3776C27.3554 11.8099 28.0782 11.4232 28.8651 11.2664C29.6521 11.1096 30.4678 11.1897 31.2093 11.4966C31.9507 11.8035 32.5844 12.3234 33.0303 12.9905C33.4762 13.6577 33.7142 14.4421 33.7142 15.2445C33.7132 16.3193 33.286 17.3499 32.5264 18.1102C31.7667 18.8706 30.7366 19.2987 29.6617 19.3008ZM29.6617 12.3537C29.0921 12.353 28.5351 12.5212 28.0611 12.8371C27.5871 13.153 27.2175 13.6024 26.999 14.1284C26.7805 14.6544 26.7229 15.2335 26.8336 15.7922C26.9442 16.351 27.2181 16.8644 27.6206 17.2674C28.0231 17.6705 28.5361 17.9451 29.0948 18.0565C29.6534 18.1679 30.2325 18.1111 30.7588 17.8933C31.2851 17.6755 31.735 17.3064 32.0515 16.8329C32.3681 16.3593 32.537 15.8025 32.537 15.2329C32.5309 14.4736 32.2256 13.7474 31.6872 13.212C31.1489 12.6765 30.421 12.375 29.6617 12.373V12.3537Z" fill="#1062AA" stroke="#1062AA" stroke-linecap="round" stroke-linejoin="round"/>
<path d="M29.1761 4.39148C32.1676 4.39148 35.0919 5.27856 37.5792 6.94055C40.0666 8.60254 42.0052 10.9648 43.15 13.7286C44.2948 16.4924 44.5943 19.5335 44.0107 22.4676C43.4271 25.4016 41.9866 28.0967 39.8713 30.212C37.756 32.3273 35.0609 33.7678 32.1269 34.3514C29.1928 34.935 26.1517 34.6355 23.3879 33.4907C20.6241 32.3459 18.2618 30.4073 16.5999 27.9199C14.9379 25.4326 14.0508 22.5083 14.0508 19.5168C14.0549 15.5065 15.6497 11.6617 18.4854 8.82609C21.321 5.99043 25.1658 4.39557 29.1761 4.39148ZM29.1761 31.8401C31.6134 31.8401 33.996 31.1173 36.0225 29.7632C38.0491 28.4091 39.6286 26.4845 40.5613 24.2327C41.494 21.9809 41.7381 19.5031 41.2626 17.1126C40.7871 14.7221 39.6134 12.5263 37.89 10.8029C36.1665 9.07943 33.9707 7.90575 31.5802 7.43025C29.1897 6.95475 26.7119 7.19879 24.4601 8.13152C22.2084 9.06424 20.2837 10.6437 18.9296 12.6703C17.5755 14.6969 16.8528 17.0794 16.8528 19.5168C16.8599 22.7829 18.1605 25.9133 20.4701 28.2228C22.7796 30.5323 25.9099 31.8329 29.1761 31.8401Z" fill="#1062AA"/>
<path d="M18.7368 27.0196C19.0233 27.0194 19.303 27.1071 19.5382 27.2708C19.7733 27.4345 19.9526 27.6664 20.0519 27.9352C20.1511 28.204 20.1656 28.4967 20.0933 28.774C20.021 29.0513 19.8655 29.2997 19.6476 29.4858L9.33897 38.2854C9.19934 38.4048 9.03757 38.4955 8.86289 38.5523C8.68821 38.6091 8.50404 38.631 8.3209 38.6167C8.13777 38.6023 7.95925 38.5521 7.79554 38.4687C7.63183 38.3854 7.48614 38.2707 7.36678 38.131C7.24742 37.9914 7.15673 37.8296 7.0999 37.6549C7.04306 37.4803 7.02118 37.2961 7.03552 37.113C7.04985 36.9298 7.10012 36.7513 7.18344 36.5876C7.26677 36.4239 7.38153 36.2782 7.52116 36.1588L17.8298 27.3592C18.082 27.1415 18.4036 27.021 18.7368 27.0196Z" fill="#1062AA"/>
</svg>
