<svg width="49" height="42" viewBox="0 0 49 42" fill="none" xmlns="http://www.w3.org/2000/svg">
<path d="M10.3213 0.874784L10.6737 1.08787C9.61991 0.413938 8.40728 0.0392687 7.16225 0.00292198C5.91722 -0.0334247 4.68539 0.269883 3.59518 0.881219C2.50497 1.49256 1.59632 2.38953 0.96397 3.47862C0.33162 4.56772 -0.00127247 5.80904 3.65519e-06 7.07316V34.9297C0.000543007 36.13 0.302019 37.3104 0.876053 38.3598C1.45009 39.4092 2.2778 40.2931 3.28127 40.9283C4.28475 41.5635 5.43098 41.9291 6.61208 41.9907C7.79317 42.0523 8.97028 41.8078 10.0326 41.2803C10.4995 41.0393 10.9405 40.7499 11.3485 40.4165C15.0976 37.3383 27.4022 26.5092 27.4022 26.5092C28.2306 25.8324 28.8954 24.972 29.3454 23.994C29.7955 23.0161 30.019 21.9465 29.9987 20.8674C29.9785 19.7882 29.715 18.728 29.2285 17.7682C28.742 16.8084 28.0455 15.9743 27.1922 15.33L27.4022 15.4937L11.4048 1.62437C10.3861 0.769537 9.14892 0.226471 7.83757 0.0585941C6.52622 -0.109283 5.19487 0.10496 3.999 0.676302C2.80314 1.24764 1.79211 2.1525 1.084 3.28521C0.375894 4.41791 -7.48399e-05 5.7317 3.65519e-06 7.07316V34.9297C0.000252677 36.2652 0.373188 37.5732 1.07563 38.7025C1.77807 39.8317 2.78129 40.7359 3.96913 41.3104C5.15698 41.8849 6.48086 42.1063 7.7875 41.9487C9.09414 41.7912 10.3301 41.2613 11.3523 40.4203" fill="#8CC63F"/>
<path d="M42.4236 4H21.5764C19.0489 4 17 6.04572 17 8.56923V33.4308C17 35.9543 19.0489 38 21.5764 38H42.4236C44.9511 38 47 35.9543 47 33.4308V8.56923C47 6.04572 44.9511 4 42.4236 4Z" stroke="#1062AA" stroke-width="3" stroke-miterlimit="10"/>
<path d="M24 14H41" stroke="#1062AA" stroke-width="3" stroke-linecap="round" stroke-linejoin="round"/>
<path d="M24 21H41" stroke="#1062AA" stroke-width="3" stroke-linecap="round" stroke-linejoin="round"/>
<path d="M24 28H41" stroke="#1062AA" stroke-width="3" stroke-linecap="round" stroke-linejoin="round"/>
</svg>
