<svg width="50" height="41" viewBox="0 0 50 41" fill="none" xmlns="http://www.w3.org/2000/svg">
<path d="M10.3137 0.857273L10.6524 1.08091C9.59849 0.372727 8.3187 0 6.96361 0C3.12422 0 0 3.09364 0 6.89545V34.0673C0 37.9064 3.12422 41 6.96361 41C8.05521 41 9.10916 40.7391 10.0502 40.2918C10.0502 40.2918 10.6901 39.9936 11.3676 39.4345C15.0941 36.4155 27.4404 25.8673 27.4404 25.8673C28.9837 24.6 30 22.6618 30 20.5C30 18.2264 28.9084 16.2136 27.1769 14.9836L27.4028 15.1327L11.4053 1.56545C10.2008 0.596364 8.65747 0 6.96361 0C3.12422 0 0 3.09364 0 6.89545V34.0673C0 37.9064 3.12422 41 6.96361 41C8.61982 41 10.1631 40.4409 11.3676 39.4718" fill="#00ADEE"/>
<path d="M44.3271 38.2079H19.7208C19.4444 38.2079 17.1536 38.0906 15.8502 36.2925C14.4678 34.377 15.0602 32.227 15.6132 30.7415C18.1805 23.9397 24.7764 19.4052 32.1227 19.4052C39.3901 19.4052 45.7885 23.7052 48.4743 30.3897C49.3037 32.4615 49.2247 34.8461 48.2373 36.2534C46.8944 38.1297 44.6036 38.2079 44.3271 38.2079ZM32.0832 22.2197C25.9613 22.2197 20.3923 26.0506 18.2595 31.7188C17.588 33.4779 17.825 34.1815 18.141 34.6506C18.6149 35.3152 19.7208 35.3934 19.7208 35.3934H44.2876C44.2876 35.3934 45.3145 35.3543 45.7885 34.6506C46.1045 34.1815 46.3019 32.8525 45.749 31.4061C43.5372 25.8161 38.1657 22.2197 32.0832 22.2197Z" fill="#1062AA"/>
<path d="M32.0807 22.2197C26.6697 22.2197 22.2461 17.8807 22.2461 12.4861C22.2461 7.09156 26.6697 2.79156 32.0807 2.79156C37.4917 2.79156 41.9153 7.13065 41.9153 12.5252C41.9153 17.9197 37.4917 22.2197 32.0807 22.2197ZM32.0807 5.60611C28.2496 5.60611 25.1293 8.69429 25.1293 12.4861C25.1293 16.2779 28.2496 19.3661 32.0807 19.3661C35.9119 19.3661 39.0716 16.2779 39.0716 12.4861C39.0716 8.69429 35.9514 5.60611 32.0807 5.60611Z" fill="#1062AA"/>
</svg>
