<svg width="50" height="42" viewBox="0 0 50 42" fill="none" xmlns="http://www.w3.org/2000/svg">
<path d="M10.3213 0.874784L10.6737 1.08787C9.61991 0.413938 8.40728 0.0392687 7.16225 0.00292198C5.91722 -0.0334247 4.68539 0.269883 3.59518 0.881219C2.50497 1.49256 1.59632 2.38953 0.96397 3.47862C0.33162 4.56772 -0.00127247 5.80904 3.65519e-06 7.07316V34.9297C0.000543007 36.13 0.302019 37.3104 0.876053 38.3598C1.45009 39.4092 2.2778 40.2931 3.28127 40.9283C4.28475 41.5635 5.43098 41.9291 6.61208 41.9907C7.79317 42.0523 8.97028 41.8078 10.0326 41.2803C10.4995 41.0393 10.9405 40.7499 11.3485 40.4165C15.0976 37.3383 27.4022 26.5092 27.4022 26.5092C28.2306 25.8324 28.8954 24.972 29.3454 23.994C29.7955 23.0161 30.019 21.9465 29.9987 20.8674C29.9785 19.7882 29.715 18.728 29.2285 17.7682C28.742 16.8084 28.0455 15.9743 27.1922 15.33L27.4022 15.4937L11.4048 1.62437C10.3861 0.769537 9.14892 0.226471 7.83757 0.0585941C6.52622 -0.109283 5.19487 0.10496 3.999 0.676302C2.80314 1.24764 1.79211 2.1525 1.084 3.28521C0.375894 4.41791 -7.48399e-05 5.7317 3.65519e-06 7.07316V34.9297C0.000252677 36.2652 0.373188 37.5732 1.07563 38.7025C1.77807 39.8317 2.78129 40.7359 3.96913 41.3104C5.15698 41.8849 6.48086 42.1063 7.7875 41.9487C9.09414 41.7912 10.3301 41.2613 11.3523 40.4203" fill="#F7B916"/>
<path d="M39.7055 26.9854H29.5126C29.2042 26.9751 28.9018 26.8976 28.6264 26.7583C28.3511 26.619 28.1096 26.4212 27.9186 26.1788C27.3513 25.3837 27.5867 24.4767 27.8144 23.8631C28.3269 22.4852 29.245 21.2951 30.4477 20.4496C31.6503 19.6042 33.0809 19.1431 34.5509 19.1272C36.0209 19.1113 37.4612 19.5414 38.6818 20.3607C39.9024 21.1799 40.846 22.35 41.3882 23.7164C41.5604 24.1054 41.6406 24.5289 41.6225 24.954C41.6044 25.379 41.4886 25.7942 41.284 26.1672C41.1006 26.4148 40.8631 26.6173 40.5895 26.7591C40.3159 26.9009 40.0135 26.9783 39.7055 26.9854ZM34.6303 20.3008C33.388 20.3044 32.1763 20.6864 31.1565 21.3958C30.1368 22.1053 29.3574 23.1086 28.9221 24.2722C28.6481 25.0132 28.7368 25.2949 28.8796 25.4918C29.0475 25.6776 29.2818 25.7899 29.5319 25.8044H39.7055C39.8248 25.7999 39.9419 25.7708 40.0495 25.719C40.157 25.6672 40.2528 25.5938 40.3307 25.5034C40.4254 25.2908 40.4744 25.0607 40.4744 24.8279C40.4744 24.5952 40.4254 24.3651 40.3307 24.1525C39.8831 23.0083 39.0982 22.0271 38.0801 21.3392C37.0621 20.6513 35.8589 20.2891 34.6303 20.3008Z" fill="#1062AA" stroke="#1062AA" stroke-linecap="round" stroke-linejoin="round"/>
<path d="M34.6305 20.3008C33.8281 20.3016 33.0434 20.0643 32.3759 19.6191C31.7083 19.1738 31.1878 18.5406 30.8802 17.7994C30.5726 17.0583 30.4917 16.2426 30.6478 15.4555C30.8039 14.6684 31.1899 13.9453 31.757 13.3776C32.3241 12.8099 33.0469 12.4232 33.8339 12.2664C34.6208 12.1096 35.4366 12.1897 36.178 12.4966C36.9194 12.8035 37.5532 13.3234 37.9991 13.9905C38.4449 14.6577 38.6829 15.4421 38.6829 16.2445C38.6819 17.3193 38.2548 18.3499 37.4951 19.1102C36.7355 19.8706 35.7053 20.2987 34.6305 20.3008ZM34.6305 13.3537C34.0609 13.353 33.5038 13.5212 33.0299 13.8371C32.5559 14.153 32.1862 14.6024 31.9677 15.1284C31.7492 15.6544 31.6917 16.2335 31.8023 16.7922C31.913 17.351 32.1869 17.8644 32.5894 18.2674C32.9919 18.6705 33.5049 18.9451 34.0635 19.0565C34.6221 19.1679 35.2012 19.1111 35.7275 18.8933C36.2539 18.6755 36.7038 18.3064 37.0203 17.8329C37.3368 17.3593 37.5058 16.8025 37.5058 16.2329C37.4997 15.4736 37.1943 14.7474 36.656 14.212C36.1176 13.6765 35.3898 13.375 34.6305 13.373V13.3537Z" fill="#1062AA" stroke="#1062AA" stroke-linecap="round" stroke-linejoin="round"/>
<path d="M34.1448 5.39148C37.1363 5.39148 40.0606 6.27856 42.548 7.94055C45.0353 9.60254 46.974 11.9648 48.1188 14.7286C49.2636 17.4924 49.5631 20.5335 48.9795 23.4676C48.3959 26.4016 46.9553 29.0967 44.84 31.212C42.7247 33.3273 40.0296 34.7678 37.0956 35.3514C34.1616 35.935 31.1204 35.6355 28.3566 34.4907C25.5928 33.3459 23.2306 31.4073 21.5686 28.9199C19.9066 26.4326 19.0195 23.5083 19.0195 20.5168C19.0236 16.5065 20.6185 12.6617 23.4541 9.82609C26.2898 6.99043 30.1346 5.39557 34.1448 5.39148ZM34.1448 32.8401C36.5821 32.8401 38.9647 32.1173 40.9913 30.7632C43.0178 29.4091 44.5973 27.4845 45.5301 25.2327C46.4628 22.9809 46.7068 20.5031 46.2313 18.1126C45.7558 15.7221 44.5822 13.5263 42.8587 11.8029C41.1353 10.0794 38.9395 8.90575 36.549 8.43025C34.1585 7.95475 31.6807 8.19879 29.4289 9.13152C27.1771 10.0642 25.2525 11.6437 23.8984 13.6703C22.5443 15.6969 21.8215 18.0794 21.8215 20.5168C21.8286 23.7829 23.1293 26.9133 25.4388 29.2228C27.7483 31.5323 30.8787 32.8329 34.1448 32.8401Z" fill="#1062AA"/>
<path d="M23.7055 28.0196C23.9921 28.0194 24.2718 28.1071 24.5069 28.2708C24.7421 28.4345 24.9213 28.6664 25.0206 28.9352C25.1199 29.204 25.1344 29.4967 25.0621 29.774C24.9898 30.0513 24.8342 30.2997 24.6164 30.4858L14.3077 39.2854C14.1681 39.4048 14.0063 39.4955 13.8316 39.5523C13.657 39.6091 13.4728 39.631 13.2897 39.6167C13.1065 39.6023 12.928 39.5521 12.7643 39.4687C12.6006 39.3854 12.4549 39.2707 12.3355 39.131C12.2162 38.9914 12.1255 38.8296 12.0686 38.6549C12.0118 38.4803 11.9899 38.2961 12.0043 38.113C12.0186 37.9298 12.0689 37.7513 12.1522 37.5876C12.2355 37.4239 12.3503 37.2782 12.4899 37.1588L22.7986 28.3592C23.0507 28.1415 23.3724 28.021 23.7055 28.0196Z" fill="#1062AA"/>
</svg>
