<svg width="45" height="39" viewBox="0 0 45 39" fill="none" xmlns="http://www.w3.org/2000/svg">
<path d="M9.34454 0.8125L9.65036 1.02446C8.69891 0.353261 7.54359 0 6.3203 0C2.82035 0 0 2.93207 0 6.57065V32.4293C0 36.0679 2.82035 39 6.3203 39C7.30573 39 8.25717 38.7527 9.10668 38.3288C9.10668 38.3288 9.68434 38.0462 10.296 37.5163C13.694 34.6549 24.8395 24.587 24.8395 24.587C26.2666 23.4212 27.1841 21.5489 27.1841 19.5C27.1841 17.3451 26.1987 15.4375 24.6356 14.2364L24.8395 14.3777L10.33 1.51902C9.2426 0.565217 7.84941 0 6.3203 0C2.82035 0 0 2.93207 0 6.57065V32.4293C0 36.0679 2.82035 39 6.3203 39C7.81543 39 9.20862 38.4348 10.296 37.5516" fill="#DDF516"/>
<path d="M38.9385 29.4973H15.2386C13.0041 29.4973 11.1758 27.5897 11.1758 25.2582V9.00817C11.1758 6.67665 13.0041 4.76904 15.2386 4.76904H38.9385C41.1731 4.76904 43.0014 6.67665 43.0014 9.00817V25.2582C43.0014 27.5897 41.1731 29.4973 38.9385 29.4973Z" stroke="#1062AA" stroke-width="3" stroke-miterlimit="10"/>
<path d="M37.3948 24.8182H16.9814C16.5032 24.8182 16.1445 24.4264 16.1445 23.9744V10.5938C16.1445 10.1116 16.5331 9.75 16.9814 9.75H37.3948C37.873 9.75 38.2316 10.1418 38.2316 10.5938V23.9442C38.2316 24.4264 37.873 24.8182 37.3948 24.8182Z" stroke="#1062AA" stroke-width="3" stroke-miterlimit="10"/>
<path d="M18.7227 34.3018H35.8882" stroke="#1062AA" stroke-width="3" stroke-miterlimit="10" stroke-linecap="round" stroke-linejoin="round"/>
</svg>
