<svg width="44" height="41" viewBox="0 0 44 41" fill="none" xmlns="http://www.w3.org/2000/svg">
<path d="M9.74279 1.80564L10.0731 2.0015C9.07712 1.38012 7.93293 1.03606 6.75906 1.00499C5.5852 0.973923 4.42437 1.25697 3.39688 1.82479C2.36938 2.39262 1.51261 3.22457 0.91534 4.23442C0.318072 5.24428 0.00204204 6.3953 1.84175e-07 7.5682V33.4431C0.00397309 34.557 0.291132 35.6516 0.834545 36.6244C1.37796 37.5971 2.15982 38.416 3.1068 39.0044C4.05378 39.5927 5.13485 39.9312 6.24862 39.988C7.3624 40.0448 8.47237 39.8182 9.47445 39.3293C9.91501 39.1106 10.3303 38.8444 10.7129 38.5356C14.2323 35.68 25.8638 25.6187 25.8638 25.6187C26.6493 24.9894 27.2798 24.1885 27.7068 23.2777C28.1339 22.3668 28.3461 21.3703 28.3271 20.3647C28.3082 19.3591 28.0586 18.3713 27.5976 17.4771C27.1365 16.583 26.4763 15.8063 25.6677 15.207L25.8638 15.3616L10.7645 2.50663C9.80316 1.71236 8.63535 1.20773 7.39753 1.05169C6.15971 0.895645 4.90299 1.09464 3.77417 1.62541C2.64536 2.15619 1.69105 2.99684 1.02274 4.04916C0.354432 5.10148 -0.000295079 6.32202 1.84175e-07 7.5682V33.4431C0.00183512 34.6826 0.35489 35.8963 1.01834 36.9439C1.68179 37.9915 2.62854 38.8301 3.74913 39.3627C4.86971 39.8954 6.11835 40.1004 7.35068 39.954C8.58301 39.8077 9.74869 39.3159 10.7129 38.5356" fill="#6FC6AD"/>
<path d="M37.3271 39.8354H19.2113C17.7078 39.8327 16.2666 39.2411 15.2034 38.1903C14.1403 37.1395 13.5418 35.715 13.5391 34.2289V6.60648C13.5418 5.12038 14.1403 3.69593 15.2034 2.64509C16.2666 1.59426 17.7078 1.00271 19.2113 1L37.3271 1C38.8315 1 40.2742 1.59068 41.338 2.6421C42.4017 3.69352 42.9993 5.11955 42.9993 6.60648V34.2802C42.983 35.7574 42.3785 37.1687 41.3168 38.2085C40.2551 39.2483 38.8217 39.8328 37.3271 39.8354ZM19.2113 2.68092C18.1588 2.68363 17.1502 3.09808 16.406 3.83368C15.6617 4.56928 15.2424 5.56619 15.2397 6.60648V34.2802C15.2424 35.3205 15.6617 36.3174 16.406 37.053C17.1502 37.7886 18.1588 38.203 19.2113 38.2057H37.3271C38.3796 38.203 39.3882 37.7886 40.1324 37.053C40.8767 36.3174 41.296 35.3205 41.2987 34.2802V6.60648C41.296 5.56619 40.8767 4.56928 40.1324 3.83368C39.3882 3.09808 38.3796 2.68363 37.3271 2.68092H19.2113Z" fill="#1062AA" stroke="#1062AA"/>
<path d="M32.7546 33.7269H23.93C22.4257 33.7269 20.9829 33.1362 19.9192 32.0848C18.8554 31.0334 18.2578 29.6073 18.2578 28.1204V12.7461C18.2606 11.261 18.8594 9.83758 19.9228 8.78838C20.9863 7.73917 22.4275 7.1499 23.93 7.1499H32.7546C34.2582 7.15261 35.6993 7.74416 36.7625 8.795C37.8256 9.84583 38.4241 11.2703 38.4269 12.7564V28.1307C38.4214 29.615 37.8217 31.0368 36.7588 32.0854C35.696 33.134 34.2564 33.7242 32.7546 33.7269ZM23.93 8.78982C22.8775 8.79253 21.8689 9.20698 21.1247 9.94258C20.3805 10.6782 19.9612 11.6751 19.9584 12.7154V28.0897C19.9612 29.13 20.3805 30.1269 21.1247 30.8625C21.8689 31.5981 22.8775 32.0125 23.93 32.0152H32.7546C33.8071 32.0125 34.8157 31.5981 35.5599 30.8625C36.3042 30.1269 36.7235 29.13 36.7262 28.0897V12.7154C36.7235 11.6751 36.3042 10.6782 35.5599 9.94258C34.8157 9.20698 33.8071 8.79253 32.7546 8.78982H23.93Z" fill="#1062AA" stroke="#1062AA"/>
<path d="M31.1067 5.70438H24.4701C24.2866 5.65854 24.1238 5.55351 24.0075 5.40592C23.8913 5.25832 23.8281 5.07661 23.8281 4.88954C23.8281 4.70248 23.8913 4.52076 24.0075 4.37317C24.1238 4.22558 24.2866 4.12055 24.4701 4.07471H31.1067C31.3322 4.07471 31.5485 4.16326 31.7079 4.32087C31.8674 4.47849 31.957 4.69226 31.957 4.91517C31.957 5.13807 31.8674 5.35185 31.7079 5.50946C31.5485 5.66708 31.3322 5.75563 31.1067 5.75563V5.70438Z" fill="#1062AA"/>
<path d="M28.3377 37.0475C28.9105 37.0475 29.3747 36.5886 29.3747 36.0225C29.3747 35.4564 28.9105 34.9976 28.3377 34.9976C27.765 34.9976 27.3008 35.4564 27.3008 36.0225C27.3008 36.5886 27.765 37.0475 28.3377 37.0475Z" fill="#1062AA"/>
</svg>
