<svg width="45" height="39" viewBox="0 0 45 39" fill="none" xmlns="http://www.w3.org/2000/svg">
<path d="M9.62263 0.814766L9.9663 1.01252C8.98283 0.387467 7.85138 0.0399317 6.68973 0.00608662C5.52807 -0.0277585 4.37866 0.253324 3.36111 0.820079C2.34357 1.38684 1.49508 2.21855 0.903961 3.22866C0.312842 4.23878 0.000693728 5.39037 3.08075e-06 6.56359V32.4315C-0.000722682 33.5465 0.279884 34.6433 0.81536 35.6184C1.35084 36.5936 2.12353 37.415 3.06057 38.0051C3.99761 38.5953 5.06811 38.9347 6.17111 38.9915C7.27411 39.0483 8.37326 38.8204 9.36489 38.3296C9.80154 38.1083 10.2129 37.8396 10.5918 37.5281C14.0903 34.6693 25.5756 24.6115 25.5756 24.615C26.3491 23.9862 26.9697 23.187 27.3899 22.2786C27.8102 21.3703 28.0188 20.3768 27.9999 19.3745C27.981 18.3721 27.735 17.3874 27.2809 16.4959C26.8267 15.6043 26.1763 14.8296 25.3797 14.231L25.5756 14.3836L10.6536 1.51212C9.70301 0.715983 8.54743 0.209661 7.32214 0.0524106C6.09685 -0.10484 4.85254 0.0934866 3.73483 0.624179C2.61713 1.15487 1.67228 1.99597 1.01085 3.04905C0.34943 4.10212 -0.00119905 5.3236 3.08075e-06 6.57053V32.4315C6.55622e-05 33.6714 0.347966 34.8859 1.00343 35.9345C1.65889 36.983 2.59511 37.8227 3.7037 38.3563C4.8123 38.8899 6.04793 39.0957 7.26755 38.9497C8.48718 38.8038 9.64092 38.3121 10.5952 37.5316" fill="#FF6341"/>
<path d="M26.4489 36.0996C35.5894 36.0996 42.9993 28.69 42.9993 19.5498C42.9993 10.4096 35.5894 3 26.4489 3C17.3083 3 9.89844 10.4096 9.89844 19.5498C9.89844 28.69 17.3083 36.0996 26.4489 36.0996Z" stroke="#1062AA" stroke-width="3" stroke-miterlimit="10"/>
<path d="M31.4188 10.8613L22.7299 19.55H31.4188L21.9023 27.8249" stroke="#1062AA" stroke-width="3" stroke-linecap="round" stroke-linejoin="round"/>
</svg>
