<svg width="44" height="39" viewBox="0 0 44 39" fill="none" xmlns="http://www.w3.org/2000/svg">
<path d="M9.80507 0.8125L10.126 1.02446C9.12763 0.353261 7.91537 0 6.6318 0C2.95935 0 0 2.93207 0 6.57065V32.4293C0 36.0679 2.95935 39 6.6318 39C7.66578 39 8.66412 38.7527 9.55549 38.3288C9.55549 38.3288 10.1616 38.0462 10.8034 37.5163C14.3689 34.6549 26.0637 24.587 26.0637 24.587C27.5612 23.4212 28.5238 21.5489 28.5238 19.5C28.5238 17.3451 27.4899 15.4375 25.8497 14.2364L26.0637 14.3777L10.8391 1.51902C9.69811 0.565217 8.23626 0 6.6318 0C2.95935 0 0 2.93207 0 6.57065V32.4293C0 36.0679 2.95935 39 6.6318 39C8.20061 39 9.66245 38.4348 10.8034 37.5516" fill="#F7B916"/>
<path d="M33.5335 23.392H23.5307C23.4166 23.392 22.5038 23.3542 21.9713 22.5978C21.4008 21.8036 21.629 20.9337 21.8572 20.3286C22.8841 17.5678 25.5845 15.7146 28.5511 15.7146C31.5178 15.7146 34.104 17.4921 35.207 20.2152C35.5493 21.085 35.5113 22.0305 35.0929 22.6356C34.5985 23.392 33.6476 23.392 33.5335 23.392ZM28.5511 16.8492C26.0409 16.8492 23.7969 18.3998 22.9222 20.7446C22.6559 21.4632 22.732 21.7658 22.8841 21.9549C23.0743 22.2196 23.5307 22.2574 23.5307 22.2574H33.5335C33.5335 22.2574 33.9519 22.2574 34.1421 21.9549C34.2942 21.7658 34.3703 21.2363 34.104 20.6312C33.2293 18.3242 31.0614 16.8492 28.5511 16.8492Z" fill="#1062AA" stroke="#1062AA" stroke-miterlimit="10" stroke-linecap="round" stroke-linejoin="round"/>
<path d="M28.5482 16.8494C26.3423 16.8494 24.5547 15.0719 24.5547 12.8783C24.5547 10.6848 26.3803 8.90723 28.5482 8.90723C30.7542 8.90723 32.5417 10.6848 32.5417 12.8783C32.5417 15.0719 30.7542 16.8494 28.5482 16.8494ZM28.5482 10.0796C26.9888 10.0796 25.6957 11.3277 25.6957 12.9161C25.6957 14.5046 26.9508 15.7526 28.5482 15.7526C30.1456 15.7526 31.4007 14.5046 31.4007 12.9161C31.4007 11.3277 30.1456 10.0796 28.5482 10.0796Z" fill="#1062AA" stroke="#1062AA" stroke-miterlimit="10" stroke-linecap="round" stroke-linejoin="round"/>
<path d="M28.0927 2.25049C36.308 2.25049 43.0019 8.90679 43.0019 17.0759C43.0019 25.245 36.308 31.8635 28.0927 31.8635C19.8775 31.8635 13.1836 25.2072 13.1836 17.0381C13.1836 8.86897 19.8775 2.25049 28.0927 2.25049ZM28.0927 29.1404C34.7866 29.1404 40.2254 23.7322 40.2254 17.0759C40.2254 10.4196 34.7866 4.97352 28.0927 4.97352C21.3988 4.97352 15.96 10.4196 15.96 17.0759C15.96 23.7322 21.3988 29.1404 28.0927 29.1404Z" fill="#1062AA"/>
<path d="M17.7832 24.4131C18.1635 24.4131 18.5438 24.5644 18.8481 24.9047C19.3425 25.472 19.2665 26.3419 18.696 26.8336L8.54101 35.4565C7.9705 35.9482 7.09573 35.8725 6.6013 35.3052C6.10686 34.7379 6.18293 33.8681 6.75343 33.3764L16.9084 24.7535C17.1746 24.5265 17.4789 24.4131 17.7832 24.4131Z" fill="#1062AA"/>
</svg>
