<svg width="45" height="39" viewBox="0 0 45 39" fill="none" xmlns="http://www.w3.org/2000/svg">
<path d="M9.69411 0.8123L10.0251 1.01016C9.03536 0.384371 7.89642 0.0364637 6.72704 0.00271326C5.55767 -0.0310372 4.40068 0.250605 3.37672 0.818275C2.35276 1.38594 1.49932 2.21885 0.905394 3.23015C0.311469 4.24145 -0.00119515 5.39411 3.43308e-06 6.56793V32.4347C0.000510011 33.5493 0.283667 34.6454 0.82282 35.6198C1.36197 36.5943 2.13939 37.4151 3.08189 38.0049C4.02439 38.5947 5.10097 38.9342 6.2103 38.9914C7.31962 39.0485 8.4252 38.8215 9.42297 38.3317C9.86149 38.1079 10.2757 37.8392 10.6589 37.5296C14.1802 34.6713 25.7371 24.6157 25.7371 24.6157C26.5152 23.9872 27.1395 23.1883 27.5623 22.2802C27.985 21.3721 28.1949 20.3789 28.1759 19.3768C28.1568 18.3747 27.9094 17.3903 27.4525 16.4991C26.9955 15.6078 26.3413 14.8333 25.5399 14.235L25.7371 14.387L10.7118 1.50835C9.75504 0.71457 8.59299 0.210294 7.36132 0.0544088C6.12965 -0.101477 4.87921 0.0974629 3.75601 0.627995C2.63281 1.15853 1.68322 1.99875 1.01814 3.05055C0.353053 4.10234 -7.02923e-05 5.3223 3.43308e-06 6.56793V32.4347C0.000237323 33.6748 0.350511 34.8894 1.01027 35.938C1.67003 36.9866 2.61229 37.8262 3.72795 38.3597C4.84361 38.8932 6.08705 39.0987 7.31429 38.9524C8.54154 38.8061 9.7024 38.3141 10.6625 37.5332" fill="#EB008B"/>
<path d="M27.9796 34.0469C36.2763 34.0469 43.0021 27.2983 43.0021 18.9734C43.0021 10.6485 36.2763 3.8999 27.9796 3.8999C19.6829 3.8999 12.957 10.6485 12.957 18.9734C12.957 27.2983 19.6829 34.0469 27.9796 34.0469Z" stroke="#1062AA" stroke-width="3" stroke-linecap="round" stroke-linejoin="round"/>
<path d="M22.6484 16.1797L28.1853 21.6716L41.5775 3.8999" stroke="#1062AA" stroke-width="3" stroke-linecap="round" stroke-linejoin="round"/>
</svg>
