<svg width="43" height="39" viewBox="0 0 43 39" fill="none" xmlns="http://www.w3.org/2000/svg">
<path d="M9.81533 0.815454L10.1377 1.02818C9.1347 0.354545 7.91674 0 6.62714 0C2.97326 0 0 2.94273 0 6.55909V32.4055C0 36.0573 2.97326 39 6.62714 39C7.66599 39 8.66901 38.7518 9.56457 38.3264C9.56457 38.3264 10.1736 38.0427 10.8184 37.5109C14.3648 34.6391 26.1145 24.6055 26.1145 24.6055C27.5832 23.4 28.5504 21.5564 28.5504 19.5C28.5504 17.3373 27.5116 15.4227 25.8637 14.2527L26.0787 14.3945L10.8542 1.48909C9.70786 0.567273 8.23914 0 6.62714 0C2.97326 0 0 2.94273 0 6.55909V32.4055C0 36.0573 2.97326 39 6.62714 39C8.20332 39 9.67204 38.4682 10.8184 37.5464" fill="#00ADEE"/>
<path d="M38.724 35.561H16.4067C16.1559 35.561 14.0782 35.4546 12.8961 33.8237C11.6423 32.0864 12.1796 30.1364 12.6812 28.7891C15.0096 22.62 20.9919 18.5073 27.6549 18.5073C34.2462 18.5073 40.0494 22.4073 42.4854 28.4701C43.2376 30.3491 43.166 32.5119 42.2704 33.7882C41.0525 35.4901 38.9748 35.561 38.724 35.561ZM27.6191 21.0601C22.0666 21.0601 17.0157 24.5346 15.0813 29.6755C14.4723 31.271 14.6872 31.9091 14.9738 32.3346C15.4037 32.9373 16.4067 33.0082 16.4067 33.0082H38.6882C38.6882 33.0082 39.6196 32.9728 40.0494 32.3346C40.336 31.9091 40.5151 30.7037 40.0136 29.3919C38.0076 24.3219 33.1357 21.0601 27.6191 21.0601Z" fill="#1062AA"/>
<path d="M27.6151 21.0599C22.7074 21.0599 18.6953 17.1244 18.6953 12.2317C18.6953 7.33896 22.7074 3.43896 27.6151 3.43896C32.5227 3.43896 36.5349 7.37442 36.5349 12.2671C36.5349 17.1599 32.5227 21.0599 27.6151 21.0599ZM27.6151 5.99169C24.1403 5.99169 21.3103 8.7926 21.3103 12.2317C21.3103 15.6708 24.1403 18.4717 27.6151 18.4717C31.0899 18.4717 33.9556 15.6708 33.9556 12.2317C33.9556 8.7926 31.1257 5.99169 27.6151 5.99169Z" fill="#1062AA"/>
</svg>
