<svg width="307" height="345" viewBox="0 0 307 345" fill="none" xmlns="http://www.w3.org/2000/svg">
<g clip-path="url(#clip0)">
<path d="M232.878 7.58813H112.357C99.5611 7.58813 89.1094 18.0578 89.1094 30.8327V321.736C89.1094 334.53 99.5803 344.981 112.357 344.981H232.878C245.674 344.981 256.126 334.511 256.126 321.736V30.852C256.126 18.0578 245.674 7.58813 232.878 7.58813ZM246.98 296.801H98.2738V36.3846C98.2738 26.0494 106.747 17.5776 117.083 17.5776H132.472V21.8231C132.472 25.9533 135.854 29.3535 140.004 29.3535H205.923C210.053 29.3535 213.454 25.9725 213.454 21.8231V17.5776H228.171C238.507 17.5776 246.98 26.0494 246.98 36.3846V296.801Z" fill="#F7B916"/>
<path d="M222.83 338.372H113.432C97.5819 338.372 84.6133 325.405 84.6133 309.557V29.7761C84.6133 13.9275 97.5819 0.96051 113.432 0.96051H222.83C238.68 0.96051 251.649 13.9275 251.649 29.7761V309.557C251.649 325.405 238.68 338.372 222.83 338.372Z" stroke="#333333" stroke-width="2" stroke-miterlimit="10"/>
<path d="M242.484 290.173V29.7377C242.484 19.4025 234.011 10.9307 223.675 10.9307H208.958V15.1762C208.958 19.3065 205.576 22.7067 201.426 22.7067H135.507C131.377 22.7067 127.976 19.3257 127.976 15.1762V10.9307H112.587C102.25 10.9307 93.7773 19.4025 93.7773 29.7377V290.173H242.484V290.173Z" stroke="#333333" stroke-width="2" stroke-miterlimit="10"/>
<path d="M186.747 17.3278C187.903 17.3278 188.841 16.3903 188.841 15.2339C188.841 14.0774 187.903 13.14 186.747 13.14C185.59 13.14 184.652 14.0774 184.652 15.2339C184.652 16.3903 185.59 17.3278 186.747 17.3278Z" stroke="#333333" stroke-width="2" stroke-miterlimit="10"/>
<path d="M147.63 13.14H175.45C176.199 13.14 176.814 13.7547 176.814 14.5039V15.4644C176.814 16.2136 176.199 16.8284 175.45 16.8284H147.63C146.88 16.8284 146.266 16.2136 146.266 15.4644V14.5039C146.266 13.7547 146.88 13.14 147.63 13.14Z" stroke="#333333" stroke-width="2" stroke-miterlimit="10"/>
<path d="M168.339 329.036C176.297 329.036 182.749 322.586 182.749 314.628C182.749 306.671 176.297 300.221 168.339 300.221C160.381 300.221 153.93 306.671 153.93 314.628C153.93 322.586 160.381 329.036 168.339 329.036Z" stroke="#333333" stroke-width="2" stroke-miterlimit="10"/>
<path d="M232.779 111.286C219.964 123.657 202.212 146.518 207.437 156.603C210.588 162.693 218.946 161.79 224.844 159.773C230.742 157.756 235.622 153.568 240.33 149.495C252.53 138.93 264.96 128.095 272.991 114.11C278.544 104.428 280.657 88.0798 266.171 86.2356C255.45 84.8524 239.465 104.831 232.779 111.286Z" fill="white" stroke="#333333" stroke-width="2" stroke-miterlimit="10"/>
<path d="M232.779 156.872C219.964 169.244 202.212 192.104 207.437 202.19C210.588 208.279 218.946 207.377 224.844 205.359C230.742 203.342 235.622 199.154 240.33 195.082C252.53 184.516 264.96 173.681 272.991 159.696C278.544 150.014 280.657 133.666 266.171 131.822C255.45 130.439 239.465 150.418 232.779 156.872Z" fill="white" stroke="#333333" stroke-width="2" stroke-miterlimit="10"/>
<path d="M232.779 203.169C219.964 215.541 202.212 238.401 207.437 248.487C210.588 254.577 218.946 253.674 224.844 251.657C230.742 249.639 235.622 245.452 240.33 241.379C252.53 230.813 264.96 219.979 272.991 205.993C278.544 196.311 280.657 179.963 266.171 178.119C255.45 176.755 239.465 196.734 232.779 203.169Z" fill="white" stroke="#333333" stroke-width="2" stroke-miterlimit="10"/>
<path d="M291.843 17.7312C295.243 16.5209 299.317 16.0599 302.218 18.1923C303.812 19.3449 304.831 21.1507 305.407 23.0333C307.578 30.1219 303.832 37.5948 299.816 43.8382C289.96 59.2065 277.76 73.0572 263.773 84.7756C260.564 87.465 255.665 90.2313 251.631 91.4224C251.381 81.7403 251.631 64.9504 251.746 55.4605C251.861 47.5074 283.216 20.7857 291.843 17.7312Z" fill="white" stroke="#333333" stroke-width="2" stroke-miterlimit="10"/>
<path d="M211.897 149.457C211.82 151.57 212.435 153.972 214.299 154.951C215.009 155.335 215.836 155.451 216.642 155.547C218.237 155.739 219.87 155.893 221.446 155.604C224.039 155.105 226.23 153.414 228.305 151.782C229.419 150.898 230.572 149.995 231.321 148.804C232.09 147.594 232.397 146.018 231.763 144.751C231.475 144.193 231.033 143.713 230.61 143.252C228.074 140.582 222.829 134.415 218.852 135.856C214.894 137.278 212.031 145.769 211.897 149.457Z" stroke="#333333" stroke-width="2" stroke-miterlimit="10"/>
<path d="M211.052 196.234C210.822 197.694 210.783 199.308 211.629 200.518C212.128 201.229 212.877 201.729 213.684 202.074C217.7 203.765 222.272 201.69 225.942 199.347C227.268 198.501 228.613 197.579 229.535 196.311C230.476 195.043 230.957 193.334 230.399 191.854C230.015 190.817 229.189 190.01 228.344 189.3C226.019 187.359 220.159 183.191 216.893 184.362C213.492 185.611 211.533 193.122 211.052 196.234Z" stroke="#333333" stroke-width="2" stroke-miterlimit="10"/>
<path d="M212.05 241.36C211.916 242.032 211.839 242.704 211.877 243.377C212.108 247.277 216.642 249.774 220.504 249.198C224.365 248.621 227.535 245.932 230.302 243.166C230.763 242.704 231.243 242.205 231.512 241.609C232.569 239.323 230.533 236.884 228.611 235.251C226.901 233.791 225.095 232.331 222.944 231.735C216.949 230.045 213.03 236.365 212.05 241.36Z" stroke="#333333" stroke-width="2" stroke-miterlimit="10"/>
<path d="M84.6124 202.708C85.1504 194.141 73.2769 157.276 78.2722 132.763C92.6818 61.9152 69.8571 15.2339 56.9461 6.24339C51.874 2.68947 44.0928 2.05552 40.0966 6.8005C37.8487 9.47074 37.2531 13.1399 36.9841 16.617C35.0244 40.8029 43.478 65.1233 40.0774 89.1556C38.06 103.333 32.008 116.569 27.0704 130.016C11.3544 172.682 -2.88227 214.965 1.9017 260.186C6.14771 300.22 26.5132 318.221 50.3177 328.383C62.1528 333.435 76.2165 332.936 87.648 327.057" stroke="#333333" stroke-width="2" stroke-miterlimit="10"/>
<path d="M38.8867 48.0836C42.71 48.9673 47.5324 49.5244 49.7995 46.3163C50.568 45.2405 50.8562 43.8958 51.0484 42.5895C52.7775 30.3332 45.8994 18.7109 39.2902 8.24121" stroke="#333333" stroke-width="2" stroke-miterlimit="10"/>
<path d="M163.635 142.599L163.654 142.676C163.577 142.407 163.558 142.138 163.635 141.85C163.846 141.043 164.672 140.582 165.479 140.793L171.185 142.33C171.992 142.541 172.454 143.367 172.242 144.174C172.185 144.405 172.069 144.597 171.916 144.77C171.916 144.77 171.819 144.885 171.666 145C170.82 145.615 167.919 147.574 167.919 147.574C167.573 147.824 167.093 147.939 166.651 147.805C166.171 147.671 165.825 147.344 165.652 146.902L165.671 146.96L163.731 142.868C163.596 142.561 163.558 142.215 163.654 141.85C163.865 141.043 164.692 140.582 165.498 140.793L171.205 142.33C172.012 142.541 172.473 143.367 172.261 144.174C172.165 144.52 171.954 144.808 171.685 145" fill="#F7B916"/>
<path d="M201.215 158.006L193.319 147.382C191.916 145.327 189.803 143.848 187.401 143.194C186.614 142.983 185.826 142.868 185.038 142.849C184.25 141.581 183.002 140.601 181.445 140.178L157.814 133.839C156.181 133.397 154.528 133.666 153.183 134.454C152.338 133.935 151.416 133.551 150.455 133.282C148.054 132.629 145.479 132.878 143.231 133.935L131.089 139.18C130.416 139.468 130.109 140.255 130.397 140.928C130.57 141.312 130.897 141.581 131.281 141.696C131.569 141.773 131.877 141.754 132.146 141.638L144.288 136.394C144.307 136.394 144.307 136.375 144.326 136.375H144.346C146.036 135.568 147.958 135.376 149.764 135.856C150.244 135.991 150.705 136.163 151.147 136.375C150.801 136.913 150.532 137.489 150.359 138.142L146.017 154.375C145.153 157.622 147.074 160.964 150.321 161.848L173.952 168.187C177.199 169.052 180.542 167.131 181.426 163.884L185.768 147.651C185.96 146.96 186.018 146.287 185.96 145.615C186.21 145.653 186.479 145.711 186.729 145.788C188.535 146.268 190.11 147.382 191.167 148.938C191.167 148.938 191.167 148.938 191.186 148.958C191.186 148.977 191.205 148.977 191.205 148.996L199.102 159.619C199.294 159.869 199.544 160.042 199.832 160.119C200.216 160.215 200.639 160.157 200.965 159.908C201.523 159.427 201.657 158.601 201.215 158.006ZM180.734 142.772C181.215 142.906 181.657 143.137 182.022 143.425L168.227 149.496C168.189 149.515 168.131 149.534 168.093 149.572C167.497 149.861 166.844 149.918 166.21 149.745C165.556 149.572 164.98 149.15 164.615 148.593C164.596 148.573 164.577 148.535 164.557 148.516L155.547 136.394C156.046 136.298 156.584 136.298 157.103 136.432L180.734 142.772ZM178.813 163.193C178.333 165.018 176.431 166.113 174.606 165.613L150.974 159.274C149.149 158.793 148.054 156.892 148.553 155.067L152.895 138.834C152.991 138.488 153.145 138.161 153.337 137.854L162.406 150.033C163.136 151.148 164.231 151.935 165.518 152.281C166.805 152.627 168.189 152.492 169.38 151.878C169.38 151.878 169.38 151.878 169.399 151.878L183.29 145.769C183.328 146.153 183.29 146.537 183.194 146.941L178.813 163.193Z" fill="#1062AA"/>
<path d="M143.232 140.217L135.143 143.713C134.471 144.001 134.164 144.789 134.452 145.461C134.625 145.846 134.951 146.114 135.336 146.23C135.624 146.307 135.931 146.287 136.2 146.172L144.289 142.676C144.961 142.388 145.269 141.6 144.98 140.928C144.692 140.236 143.905 139.929 143.232 140.217Z" fill="#1062AA"/>
<path d="M141.175 147.229L139.081 148.132C138.409 148.42 138.101 149.207 138.389 149.88C138.562 150.264 138.889 150.533 139.273 150.648C139.561 150.725 139.869 150.706 140.138 150.591L142.232 149.688C142.904 149.399 143.212 148.612 142.924 147.939C142.635 147.248 141.867 146.941 141.175 147.229Z" fill="#1062AA"/>
<path d="M190.093 152.896L195.28 160.004C195.722 160.599 195.587 161.425 194.992 161.867C194.646 162.117 194.223 162.174 193.839 162.078C193.551 162.001 193.301 161.829 193.128 161.579L187.941 154.471C187.499 153.875 187.633 153.049 188.229 152.608C188.824 152.185 189.651 152.319 190.093 152.896Z" fill="#1062AA"/>
<path d="M188.323 160.119L189.668 161.944C190.11 162.539 189.975 163.365 189.38 163.807C189.034 164.057 188.611 164.115 188.227 164.019C187.939 163.942 187.689 163.769 187.516 163.519L186.171 161.694C185.729 161.099 185.864 160.273 186.459 159.831C187.055 159.408 187.881 159.523 188.323 160.119Z" fill="#1062AA"/>
</g>
<defs>
<clipPath id="clip0">
<rect width="307" height="345" fill="white"/>
</clipPath>
</defs>
</svg>
