<svg width="550" height="379" viewBox="0 0 550 379" fill="none" xmlns="http://www.w3.org/2000/svg">
<g clip-path="url(#clip0)">
<path d="M353.878 41.5881H233.357C220.561 41.5881 210.109 52.0578 210.109 64.8327V355.736C210.109 368.53 220.58 378.981 233.357 378.981H353.878C366.674 378.981 377.126 368.511 377.126 355.736V64.852C377.126 52.0578 366.674 41.5881 353.878 41.5881ZM367.98 330.801H219.274V70.3846C219.274 60.0494 227.747 51.5776 238.083 51.5776H253.472V55.8231C253.472 59.9533 256.854 63.3535 261.004 63.3535H326.923C331.053 63.3535 334.454 59.9725 334.454 55.8231V51.5776H349.171C359.507 51.5776 367.98 60.0494 367.98 70.3846V330.801Z" fill="#F7B916"/>
<path d="M343.83 372.372H234.432C218.582 372.372 205.613 359.405 205.613 343.557V63.7761C205.613 47.9275 218.582 34.9605 234.432 34.9605H343.83C359.68 34.9605 372.649 47.9275 372.649 63.7761V343.557C372.649 359.405 359.68 372.372 343.83 372.372Z" stroke="#333333" stroke-width="2" stroke-miterlimit="10"/>
<path d="M363.484 324.173V63.7377C363.484 53.4025 355.011 44.9307 344.675 44.9307H329.958V49.1762C329.958 53.3065 326.576 56.7067 322.426 56.7067H256.507C252.377 56.7067 248.976 53.3257 248.976 49.1762V44.9307H233.587C223.25 44.9307 214.777 53.4025 214.777 63.7377V324.173H363.484V324.173Z" stroke="#333333" stroke-width="2" stroke-miterlimit="10"/>
<path d="M307.747 51.3278C308.903 51.3278 309.841 50.3903 309.841 49.2339C309.841 48.0774 308.903 47.14 307.747 47.14C306.59 47.14 305.652 48.0774 305.652 49.2339C305.652 50.3903 306.59 51.3278 307.747 51.3278Z" stroke="#333333" stroke-width="2" stroke-miterlimit="10"/>
<path d="M268.63 47.14H296.45C297.199 47.14 297.814 47.7547 297.814 48.5039V49.4644C297.814 50.2136 297.199 50.8284 296.45 50.8284H268.63C267.88 50.8284 267.266 50.2136 267.266 49.4644V48.5039C267.266 47.7547 267.88 47.14 268.63 47.14Z" stroke="#333333" stroke-width="2" stroke-miterlimit="10"/>
<path d="M289.339 363.036C297.297 363.036 303.749 356.586 303.749 348.628C303.749 340.671 297.297 334.221 289.339 334.221C281.381 334.221 274.93 340.671 274.93 348.628C274.93 356.586 281.381 363.036 289.339 363.036Z" stroke="#333333" stroke-width="2" stroke-miterlimit="10"/>
<path d="M353.779 145.286C340.964 157.657 323.212 180.518 328.437 190.603C331.588 196.693 339.946 195.79 345.844 193.773C351.742 191.756 356.622 187.568 361.33 183.495C373.53 172.93 385.96 162.095 393.991 148.11C399.544 138.428 401.657 122.08 387.171 120.236C376.45 118.852 360.465 138.831 353.779 145.286Z" fill="white" stroke="#333333" stroke-width="2" stroke-miterlimit="10"/>
<path d="M353.779 190.872C340.964 203.244 323.212 226.104 328.437 236.19C331.588 242.279 339.946 241.377 345.844 239.359C351.742 237.342 356.622 233.154 361.33 229.082C373.53 218.516 385.96 207.681 393.991 193.696C399.544 184.014 401.657 167.666 387.171 165.822C376.45 164.439 360.465 184.418 353.779 190.872Z" fill="white" stroke="#333333" stroke-width="2" stroke-miterlimit="10"/>
<path d="M353.779 237.169C340.964 249.541 323.212 272.401 328.437 282.487C331.588 288.577 339.946 287.674 345.844 285.657C351.742 283.639 356.622 279.452 361.33 275.379C373.53 264.813 385.96 253.979 393.991 239.993C399.544 230.311 401.657 213.963 387.171 212.119C376.45 210.755 360.465 230.734 353.779 237.169Z" fill="white" stroke="#333333" stroke-width="2" stroke-miterlimit="10"/>
<path d="M412.843 51.7312C416.243 50.5209 420.317 50.0599 423.218 52.1923C424.812 53.3449 425.831 55.1507 426.407 57.0333C428.578 64.1219 424.832 71.5948 420.816 77.8382C410.96 93.2065 398.76 107.057 384.773 118.776C381.564 121.465 376.665 124.231 372.631 125.422C372.381 115.74 372.631 98.9504 372.746 89.4605C372.861 81.5074 404.216 54.7857 412.843 51.7312Z" fill="white" stroke="#333333" stroke-width="2" stroke-miterlimit="10"/>
<path d="M332.897 183.457C332.82 185.57 333.435 187.972 335.299 188.951C336.009 189.335 336.836 189.451 337.642 189.547C339.237 189.739 340.87 189.893 342.446 189.604C345.039 189.105 347.23 187.414 349.305 185.782C350.419 184.898 351.572 183.995 352.321 182.804C353.09 181.594 353.397 180.018 352.763 178.751C352.475 178.193 352.033 177.713 351.61 177.252C349.074 174.582 343.829 168.415 339.852 169.856C335.894 171.278 333.031 179.769 332.897 183.457Z" stroke="#333333" stroke-width="2" stroke-miterlimit="10"/>
<path d="M332.052 230.234C331.822 231.694 331.783 233.308 332.629 234.518C333.128 235.229 333.877 235.729 334.684 236.074C338.7 237.765 343.272 235.69 346.942 233.347C348.268 232.501 349.613 231.579 350.535 230.311C351.476 229.043 351.957 227.334 351.399 225.854C351.015 224.817 350.189 224.01 349.344 223.3C347.019 221.359 341.159 217.191 337.893 218.362C334.492 219.611 332.533 227.122 332.052 230.234Z" stroke="#333333" stroke-width="2" stroke-miterlimit="10"/>
<path d="M333.05 275.36C332.916 276.032 332.839 276.704 332.877 277.377C333.108 281.277 337.642 283.774 341.504 283.198C345.365 282.621 348.535 279.932 351.302 277.166C351.763 276.704 352.243 276.205 352.512 275.609C353.569 273.323 351.533 270.884 349.611 269.251C347.901 267.791 346.095 266.331 343.944 265.735C337.949 264.045 334.03 270.365 333.05 275.36Z" stroke="#333333" stroke-width="2" stroke-miterlimit="10"/>
<path d="M205.612 236.708C206.15 228.141 194.277 191.276 199.272 166.763C213.682 95.9152 190.857 49.2339 177.946 40.2434C172.874 36.6895 165.093 36.0555 161.097 40.8005C158.849 43.4707 158.253 47.1399 157.984 50.617C156.024 74.8029 164.478 99.1233 161.077 123.156C159.06 137.333 153.008 150.569 148.07 164.016C132.354 206.682 118.118 248.965 122.902 294.186C127.148 334.22 147.513 352.221 171.318 362.383C183.153 367.435 197.216 366.936 208.648 361.057" stroke="#333333" stroke-width="2" stroke-miterlimit="10"/>
<path d="M159.887 82.0836C163.71 82.9673 168.532 83.5244 170.8 80.3163C171.568 79.2405 171.856 77.8958 172.048 76.5895C173.778 64.3332 166.899 52.7109 160.29 42.2412" stroke="#333333" stroke-width="2" stroke-miterlimit="10"/>
<path d="M284.635 176.599L284.654 176.676C284.577 176.407 284.558 176.138 284.635 175.85C284.846 175.043 285.672 174.582 286.479 174.793L292.185 176.33C292.992 176.541 293.454 177.367 293.242 178.174C293.185 178.405 293.069 178.597 292.916 178.77C292.916 178.77 292.819 178.885 292.666 179C291.82 179.615 288.919 181.574 288.919 181.574C288.573 181.824 288.093 181.939 287.651 181.805C287.171 181.671 286.825 181.344 286.652 180.902L286.671 180.96L284.731 176.868C284.596 176.561 284.558 176.215 284.654 175.85C284.865 175.043 285.692 174.582 286.498 174.793L292.205 176.33C293.012 176.541 293.473 177.367 293.261 178.174C293.165 178.52 292.954 178.808 292.685 179" fill="#F7B916"/>
<path d="M322.215 192.006L314.319 181.382C312.916 179.327 310.803 177.848 308.401 177.194C307.614 176.983 306.826 176.868 306.038 176.849C305.25 175.581 304.002 174.601 302.445 174.178L278.814 167.839C277.181 167.397 275.528 167.666 274.183 168.454C273.338 167.935 272.416 167.551 271.455 167.282C269.054 166.629 266.479 166.878 264.231 167.935L252.089 173.18C251.416 173.468 251.109 174.255 251.397 174.928C251.57 175.312 251.897 175.581 252.281 175.696C252.569 175.773 252.877 175.754 253.146 175.638L265.288 170.394C265.307 170.394 265.307 170.375 265.326 170.375H265.346C267.036 169.568 268.958 169.376 270.764 169.856C271.244 169.991 271.705 170.163 272.147 170.375C271.801 170.913 271.532 171.489 271.359 172.142L267.017 188.375C266.153 191.622 268.074 194.964 271.321 195.848L294.952 202.187C298.199 203.052 301.542 201.131 302.426 197.884L306.768 181.651C306.96 180.96 307.018 180.287 306.96 179.615C307.21 179.653 307.479 179.711 307.729 179.788C309.535 180.268 311.11 181.382 312.167 182.938C312.167 182.938 312.167 182.938 312.186 182.958C312.186 182.977 312.205 182.977 312.205 182.996L320.102 193.619C320.294 193.869 320.544 194.042 320.832 194.119C321.216 194.215 321.639 194.157 321.965 193.908C322.523 193.427 322.657 192.601 322.215 192.006ZM301.734 176.772C302.215 176.906 302.657 177.137 303.022 177.425L289.227 183.496C289.189 183.515 289.131 183.534 289.093 183.572C288.497 183.861 287.844 183.918 287.21 183.745C286.556 183.572 285.98 183.15 285.615 182.593C285.596 182.573 285.577 182.535 285.557 182.516L276.547 170.394C277.046 170.298 277.584 170.298 278.103 170.432L301.734 176.772ZM299.813 197.193C299.333 199.018 297.431 200.113 295.606 199.613L271.974 193.274C270.149 192.793 269.054 190.892 269.553 189.067L273.895 172.834C273.991 172.488 274.145 172.161 274.337 171.854L283.406 184.033C284.136 185.148 285.231 185.935 286.518 186.281C287.805 186.627 289.189 186.492 290.38 185.878C290.38 185.878 290.38 185.878 290.399 185.878L304.29 179.769C304.328 180.153 304.29 180.537 304.194 180.941L299.813 197.193Z" fill="#1062AA"/>
<path d="M264.232 174.217L256.143 177.713C255.471 178.001 255.164 178.789 255.452 179.461C255.625 179.846 255.951 180.114 256.336 180.23C256.624 180.307 256.931 180.287 257.2 180.172L265.289 176.676C265.961 176.388 266.269 175.6 265.98 174.928C265.692 174.236 264.905 173.929 264.232 174.217Z" fill="#1062AA"/>
<path d="M262.175 181.229L260.081 182.132C259.409 182.42 259.101 183.207 259.389 183.88C259.562 184.264 259.889 184.533 260.273 184.648C260.561 184.725 260.869 184.706 261.138 184.591L263.232 183.688C263.904 183.399 264.212 182.612 263.924 181.939C263.635 181.248 262.867 180.941 262.175 181.229Z" fill="#1062AA"/>
<path d="M311.093 186.896L316.28 194.004C316.722 194.599 316.587 195.425 315.992 195.867C315.646 196.117 315.223 196.174 314.839 196.078C314.551 196.001 314.301 195.829 314.128 195.579L308.941 188.471C308.499 187.875 308.633 187.049 309.229 186.608C309.824 186.185 310.651 186.319 311.093 186.896Z" fill="#1062AA"/>
<path d="M309.323 194.119L310.668 195.944C311.11 196.539 310.975 197.365 310.38 197.807C310.034 198.057 309.611 198.115 309.227 198.019C308.939 197.942 308.689 197.769 308.516 197.519L307.171 195.694C306.729 195.099 306.864 194.273 307.459 193.831C308.055 193.408 308.881 193.523 309.323 194.119Z" fill="#1062AA"/>
</g>
<g clip-path="url(#clip1)">
<path d="M457.011 185.24C470.211 231.63 504.541 269.12 548.941 286.62" stroke="#81859C" stroke-miterlimit="10" stroke-linecap="round" stroke-linejoin="round" stroke-dasharray="6 6"/>
<path d="M545.723 0.5C502.893 18.52 469.893 55.31 457.013 100.57" stroke="#81859C" stroke-miterlimit="10" stroke-linecap="round" stroke-linejoin="round" stroke-dasharray="6 6"/>
<path d="M545.422 143.56H451.142" stroke="#81859C" stroke-miterlimit="10" stroke-linecap="round" stroke-linejoin="round" stroke-dasharray="6 6"/>
</g>
<g clip-path="url(#clip2)">
<path d="M92.43 185.24C79.23 231.63 44.9 269.12 0.5 286.62" stroke="#81859C" stroke-miterlimit="10" stroke-linecap="round" stroke-linejoin="round" stroke-dasharray="6 6"/>
<path d="M3.71875 0.5C46.5488 18.52 79.5487 55.31 92.4287 100.57" stroke="#81859C" stroke-miterlimit="10" stroke-linecap="round" stroke-linejoin="round" stroke-dasharray="6 6"/>
<path d="M4.01953 143.56H98.2995" stroke="#81859C" stroke-miterlimit="10" stroke-linecap="round" stroke-linejoin="round" stroke-dasharray="6 6"/>
</g>
<defs>
<clipPath id="clip0">
<rect x="121" y="34" width="307" height="345" fill="white"/>
</clipPath>
<clipPath id="clip1">
<rect width="108.44" height="287.12" transform="matrix(-1 0 0 1 549.441 0)" fill="white"/>
</clipPath>
<clipPath id="clip2">
<rect width="108.44" height="287.12" fill="white"/>
</clipPath>
</defs>
</svg>
