<svg width="130" height="15" viewBox="0 0 130 15" fill="none" xmlns="http://www.w3.org/2000/svg">
<path d="M8.50695 5.44887C8.56872 5.19176 8.55754 4.92252 8.47467 4.67141C8.39181 4.42031 8.24054 4.1973 8.03788 4.02745C7.61906 3.60189 7.11135 3.27418 6.55108 3.06777C5.99082 2.86135 5.39185 2.78134 4.79705 2.83345C4.20702 2.89223 3.63728 3.08072 3.12861 3.38542C2.61994 3.69013 2.18493 4.10353 1.85471 4.59601C1.39574 5.36062 1.12307 6.22247 1.05871 7.11193C0.868832 8.58008 1.14215 10.0709 1.84049 11.3762C2.21191 12.0139 2.74247 12.5443 3.3803 12.9156C4.01812 13.2868 4.74138 13.4861 5.47933 13.4941C6.22001 13.4532 6.9196 13.1406 7.44414 12.6161C7.96868 12.0915 8.28131 11.3919 8.32217 10.6513" stroke="#F7B916" stroke-linecap="round" stroke-linejoin="round"/>
<path d="M12.0613 5.87529C11.7459 6.67587 11.634 7.54218 11.7356 8.39663C11.8373 9.25107 12.1493 10.067 12.6437 10.7712C13.138 11.4755 13.7994 12.0461 14.5685 12.432C15.3376 12.8179 16.1903 13.007 17.0505 12.9824C17.5034 12.9834 17.9506 12.8813 18.3582 12.6839C18.7258 12.4606 19.0448 12.1657 19.2963 11.8168C20.7888 9.8837 21.2579 6.13115 19.5522 4.25487C19.0158 3.7095 18.3503 3.30867 17.6174 3.08968C16.8845 2.87069 16.1081 2.84066 15.3605 3.00238C14.6129 3.1641 13.9184 3.51232 13.3415 4.01463C12.7647 4.51694 12.3242 5.15702 12.0613 5.87529V5.87529Z" stroke="#F7B916" stroke-linecap="round" stroke-linejoin="round"/>
<path d="M23.7422 13.622V3.28831C23.8985 3.17459 24.1118 3.28831 24.2397 3.48731C26.3718 5.94636 27.2105 9.24406 29.0441 11.9305C29.1133 12.0651 29.2097 12.1838 29.3271 12.2792C29.4446 12.3746 29.5805 12.4447 29.7264 12.4849C30.2239 12.4849 30.5366 11.9732 30.7071 11.5041L33.55 3.50152C33.6271 3.44366 33.715 3.40177 33.8085 3.37828C33.902 3.3548 33.9992 3.35021 34.0945 3.36477C34.1898 3.37933 34.2813 3.41275 34.3635 3.46308C34.4457 3.51341 34.5171 3.57963 34.5734 3.65788C34.8005 3.98337 34.9244 4.36971 34.9288 4.76658C35.2841 7.70892 35.5115 10.6797 35.5968 13.6505" stroke="#F7B916" stroke-linecap="round" stroke-linejoin="round"/>
<path d="M39.4938 13.4373C39.7008 10.146 39.4279 6.84213 38.6836 3.62946" stroke="#F7B916" stroke-linecap="round" stroke-linejoin="round"/>
<path d="M43.8594 13.8068C43.6319 10.5375 43.4614 7.2825 43.3477 4.01323C43.8025 3.6863 44.3426 4.29751 44.5701 4.80923C45.7072 7.50992 46.4748 10.4949 48.479 12.6128C48.6554 12.8622 48.8936 13.0614 49.1702 13.191C49.4467 13.3206 49.7523 13.376 50.0568 13.352C50.9096 13.1672 51.0944 12.0727 51.1086 11.2056L51.265 2.12274" stroke="#F7B916" stroke-linecap="round" stroke-linejoin="round"/>
<path d="M63.0198 5.09353C63.2473 5.22146 63.4321 4.85189 63.3894 4.59604C63.1652 3.79416 62.6633 3.09805 61.9734 2.632C61.2834 2.16594 60.4502 1.96027 59.6226 2.05169C58.7903 2.04867 57.9715 2.26194 57.2464 2.67059C56.5213 3.07924 55.9148 3.66925 55.4863 4.38282C54.9687 5.5569 54.7584 6.84337 54.8751 8.12116C54.8751 9.72736 55.0315 11.6179 56.396 12.4707C57.0595 12.8325 57.801 13.0277 58.5566 13.0393C59.978 13.1672 61.7121 13.2241 62.6929 12.1438C63.0568 11.6034 63.3052 10.9937 63.4226 10.3529C63.54 9.71209 63.5239 9.05394 63.3752 8.41966L60.8309 8.60444" stroke="#F7B916" stroke-linecap="round" stroke-linejoin="round"/>
<path d="M80.2616 4.28331C80.4196 4.10211 80.5066 3.86985 80.5066 3.62945C80.5066 3.38906 80.4196 3.1568 80.2616 2.9756C79.9199 2.6285 79.4858 2.38676 79.0107 2.2791C78.2142 1.97499 77.3548 1.87245 76.509 1.98061C76.1052 2.03988 75.7234 2.20166 75.3999 2.4505C75.0764 2.69934 74.8221 3.02694 74.6612 3.40203C74.5445 3.99428 74.6193 4.60832 74.8749 5.15521C75.1304 5.70209 75.5534 6.15343 76.0826 6.44387C77.106 7.11193 78.3285 7.41043 79.3661 8.05007C79.9449 8.32146 80.4208 8.77232 80.7229 9.33569C81.0251 9.89906 81.1375 10.5449 81.0434 11.1772C80.9555 11.4785 80.816 11.7622 80.6312 12.0158C80.1884 12.685 79.5595 13.2098 78.8219 13.5255C78.0843 13.8413 77.2704 13.9341 76.4806 13.7926C75.7012 13.6088 75.0197 13.1381 74.5718 12.4742C74.124 11.8104 73.9427 11.0022 74.0642 10.2106" stroke="#F7B916" stroke-linecap="round" stroke-linejoin="round"/>
<path d="M88.035 1.42627C87.2984 1.45265 86.5813 1.66948 85.9535 2.05561C85.3257 2.44174 84.8088 2.98399 84.453 3.62947C83.7034 4.88479 83.3788 6.34841 83.5273 7.80292C83.6759 9.25742 84.2896 10.6252 85.2774 11.7031C85.6796 12.188 86.1985 12.5624 86.7854 12.7912C87.3723 13.02 88.0078 13.0956 88.632 13.0108C93.5359 11.9306 93.678 1.66791 88.035 1.42627Z" stroke="#F7B916" stroke-linecap="round" stroke-linejoin="round"/>
<path d="M97.2924 2.40702C96.827 2.80476 96.4411 3.28707 96.1552 3.82844C95.5505 4.96544 95.2865 6.25274 95.3949 7.53601C95.5033 8.81928 95.9795 10.044 96.7665 11.0635C97.2587 11.7558 97.9465 12.2854 98.7418 12.5842C99.537 12.883 100.403 12.9376 101.23 12.7407C107.356 10.5802 103.305 -2.63902 97.2924 2.40702Z" stroke="#F7B916" stroke-linecap="round" stroke-linejoin="round"/>
<path d="M107.752 12.9682L107.539 2.50651C110.069 5.96056 112.741 9.32932 115.513 12.5844C115.684 9.06873 115.726 5.54835 115.641 2.02322" stroke="#F7B916" stroke-linecap="round" stroke-linejoin="round"/>
<path d="M120.105 11.9305V12.4849" stroke="#F7B916" stroke-linecap="round" stroke-linejoin="round"/>
<path d="M124.18 11.6747V12.2291" stroke="#F7B916" stroke-linecap="round" stroke-linejoin="round"/>
<path d="M129 12.0443V12.5986" stroke="#F7B916" stroke-linecap="round" stroke-linejoin="round"/>
</svg>
