<svg width="45" height="38" viewBox="0 0 45 38" fill="none" xmlns="http://www.w3.org/2000/svg">
<path d="M9.55424 0.77783L9.89546 0.980742C8.90591 0.372006 7.71163 0 6.44911 0C2.90039 0 0 2.87459 0 6.39173V31.5867C0 35.1038 2.90039 37.9784 6.44911 37.9784C7.47278 37.9784 8.4282 37.7417 9.28126 37.3358C9.28126 37.3358 9.86134 37.0653 10.5097 36.558C13.9901 33.7849 25.387 23.9775 25.387 23.9775C26.8542 22.7938 27.8097 21.0014 27.8097 19.0061C27.8097 16.9094 26.786 15.0493 25.2164 13.8657L25.4211 14.0009L10.5779 1.4542C9.45187 0.541099 8.01873 0 6.44911 0C2.90039 0 0 2.87459 0 6.39173V31.5867C0 35.1038 2.90039 37.9784 6.44911 37.9784C7.98461 37.9784 9.41775 37.4373 10.5097 36.558" fill="#60FF5C"/>
<path d="M38.2593 35.0264H15.7407C13.1333 35.0264 11 32.8264 11 30.1375V6.91526C11 4.22637 13.1333 2.02637 15.7407 2.02637H38.2593C40.8667 2.02637 43 4.22637 43 6.91526V30.1375C43 32.8264 40.8667 35.0264 38.2593 35.0264Z" stroke="#1062AA" stroke-width="3" stroke-miterlimit="10" stroke-linecap="round" stroke-linejoin="round"/>
<path d="M27 29.0264C28.1046 29.0264 29 28.1309 29 27.0264C29 25.9218 28.1046 25.0264 27 25.0264C25.8954 25.0264 25 25.9218 25 27.0264C25 28.1309 25.8954 29.0264 27 29.0264Z" stroke="#1062AA" stroke-width="3" stroke-miterlimit="10" stroke-linecap="round" stroke-linejoin="round"/>
<path d="M35.2891 19.043H18.7425C17.9964 19.043 17.4258 18.5637 17.4258 17.9369V9.49357C17.4258 8.90364 17.9964 8.38745 18.7425 8.38745H35.2891C36.0352 8.38745 36.6058 8.90364 36.6058 9.49357V17.9369C36.6058 18.5268 35.9913 19.043 35.2891 19.043Z" stroke="#1062AA" stroke-width="3" stroke-miterlimit="10" stroke-linecap="round" stroke-linejoin="round"/>
<path d="M18.4922 13.7153H35.5411" stroke="#1062AA" stroke-width="3" stroke-miterlimit="10" stroke-linecap="round" stroke-linejoin="round"/>
</svg>
