<svg width="45" height="39" viewBox="0 0 45 39" fill="none" xmlns="http://www.w3.org/2000/svg">
<path d="M9.71981 0.798413L10.0669 1.00669C9.06025 0.38185 7.84527 0 6.56087 0C2.95066 0 0 2.95066 0 6.56087V32.4225C0 36.0327 2.95066 38.9834 6.56087 38.9834C7.60228 38.9834 8.57426 38.7404 9.4421 38.3238C9.4421 38.3238 10.0322 38.0461 10.6918 37.5254C14.2326 34.6789 25.8269 24.6119 25.8269 24.6119C27.3196 23.397 28.2916 21.5571 28.2916 19.509C28.2916 17.3568 27.2502 15.4475 25.6533 14.2326L25.8616 14.3714L10.7612 1.49268C9.61567 0.555418 8.15769 0 6.56087 0C2.95066 0 0 2.95066 0 6.56087V32.4225C0 36.0327 2.95066 38.9834 6.56087 38.9834C8.12298 38.9834 9.58095 38.428 10.6918 37.5254" fill="#F3FF00"/>
<path d="M38.9524 33.6375H19.1656C16.8745 33.6375 15 31.763 15 29.4719V9.68516C15 7.39407 16.8745 5.51953 19.1656 5.51953H38.9524C41.2435 5.51953 43.118 7.39407 43.118 9.68516V29.4719C43.118 31.763 41.2435 33.6375 38.9524 33.6375Z" stroke="#1062AA" stroke-width="3" stroke-miterlimit="10"/>
<path d="M43.118 9.09497L32.0097 20.2033C30.3781 21.8349 27.7399 21.8349 26.1083 20.2033L15 9.09497" stroke="#1062AA" stroke-width="3" stroke-miterlimit="10"/>
</svg>
