<svg width="30" height="44" viewBox="0 0 30 44" fill="none" xmlns="http://www.w3.org/2000/svg">
<path fill-rule="evenodd" clip-rule="evenodd" d="M15.1635 0.39502C15.4397 0.39502 15.6635 0.618877 15.6635 0.89502V43.2217C15.6635 43.4978 15.4397 43.7217 15.1635 43.7217C14.8874 43.7217 14.6635 43.4978 14.6635 43.2217V0.89502C14.6635 0.618877 14.8874 0.39502 15.1635 0.39502Z" fill="#35C8CB"/>
<path fill-rule="evenodd" clip-rule="evenodd" d="M15.1635 0.39502C15.4397 0.39502 15.6635 0.618877 15.6635 0.89502V43.2217C15.6635 43.4978 15.4397 43.7217 15.1635 43.7217C14.8874 43.7217 14.6635 43.4978 14.6635 43.2217V0.89502C14.6635 0.618877 14.8874 0.39502 15.1635 0.39502Z" fill="url(#paint0_linear)"/>
<path fill-rule="evenodd" clip-rule="evenodd" d="M0.701134 28.7592C0.896396 28.564 1.21298 28.564 1.40824 28.7592L15.1636 42.5146L28.9189 28.7592C29.1142 28.564 29.4308 28.564 29.626 28.7592C29.8213 28.9545 29.8213 29.2711 29.626 29.4663L15.1636 43.9288L0.701134 29.4663C0.505872 29.2711 0.505872 28.9545 0.701134 28.7592Z" fill="#35C8CB"/>
<path fill-rule="evenodd" clip-rule="evenodd" d="M0.701134 28.7592C0.896396 28.564 1.21298 28.564 1.40824 28.7592L15.1636 42.5146L28.9189 28.7592C29.1142 28.564 29.4308 28.564 29.626 28.7592C29.8213 28.9545 29.8213 29.2711 29.626 29.4663L15.1636 43.9288L0.701134 29.4663C0.505872 29.2711 0.505872 28.9545 0.701134 28.7592Z" fill="url(#paint1_linear)"/>
<defs>
<linearGradient id="paint0_linear" x1="15.1636" y1="0.39502" x2="15.1636" y2="43.9288" gradientUnits="userSpaceOnUse">
<stop stop-color="#FF416F"/>
<stop offset="1" stop-color="#0072D7" stop-opacity="0"/>
</linearGradient>
<linearGradient id="paint1_linear" x1="15.1636" y1="0.39502" x2="15.1636" y2="43.9288" gradientUnits="userSpaceOnUse">
<stop stop-color="#FF416F"/>
<stop offset="1" stop-color="#0072D7" stop-opacity="0"/>
</linearGradient>
</defs>
</svg>
