<svg width="113" height="48" viewBox="0 0 113 48" fill="none" xmlns="http://www.w3.org/2000/svg">
<path d="M17.858 18.4087C24.1726 18.4087 28.8233 19.6674 31.81 22.1847C34.8393 24.702 36.354 28.0727 36.354 32.2967C36.354 35.0274 35.6713 37.5234 34.306 39.7847C32.9406 42.0034 30.85 43.7954 28.034 45.1607C25.2606 46.4834 21.826 47.1447 17.73 47.1447C14.5726 47.1447 11.458 46.7394 8.38595 45.9287C5.35662 45.0754 2.77529 43.8807 0.641953 42.3447L4.73795 34.4087C6.44462 35.6887 8.40729 36.6914 10.626 37.4167C12.8446 38.0994 15.1273 38.4407 17.474 38.4407C20.0766 38.4407 22.1246 37.9287 23.618 36.9047C25.1113 35.8807 25.858 34.4514 25.858 32.6167C25.858 30.6967 25.0686 29.246 23.49 28.2647C21.954 27.2834 19.266 26.7927 15.426 26.7927H3.96995L6.27395 1.57671H33.602V9.89671H14.914L14.21 18.4087H17.858ZM59.7605 47.1447C56.0485 47.1447 52.7418 46.2274 49.8405 44.3927C46.9391 42.558 44.6565 39.9127 42.9925 36.4567C41.3711 32.958 40.5605 28.798 40.5605 23.9767C40.5605 19.1554 41.3711 15.0167 42.9925 11.5607C44.6565 8.06204 46.9391 5.39537 49.8405 3.56071C52.7418 1.72604 56.0485 0.808708 59.7605 0.808708C63.4725 0.808708 66.7791 1.72604 69.6805 3.56071C72.5818 5.39537 74.8431 8.06204 76.4645 11.5607C78.1285 15.0167 78.9605 19.1554 78.9605 23.9767C78.9605 28.798 78.1285 32.958 76.4645 36.4567C74.8431 39.9127 72.5818 42.558 69.6805 44.3927C66.7791 46.2274 63.4725 47.1447 59.7605 47.1447ZM59.7605 38.3767C62.4911 38.3767 64.6245 37.2034 66.1605 34.8567C67.7391 32.51 68.5285 28.8834 68.5285 23.9767C68.5285 19.07 67.7391 15.4434 66.1605 13.0967C64.6245 10.75 62.4911 9.57671 59.7605 9.57671C57.0725 9.57671 54.9391 10.75 53.3605 13.0967C51.8245 15.4434 51.0565 19.07 51.0565 23.9767C51.0565 28.8834 51.8245 32.51 53.3605 34.8567C54.9391 37.2034 57.0725 38.3767 59.7605 38.3767ZM88.738 34.7847C86.89 34.7847 85.378 34.1607 84.202 32.9127C83.05 31.6407 82.474 29.9487 82.474 27.8367C82.474 25.7247 83.05 24.0447 84.202 22.7967C85.378 21.5247 86.89 20.8887 88.738 20.8887C90.586 20.8887 92.086 21.5247 93.238 22.7967C94.39 24.0447 94.966 25.7247 94.966 27.8367C94.966 29.9487 94.39 31.6407 93.238 32.9127C92.086 34.1607 90.586 34.7847 88.738 34.7847ZM103.75 21.1767H108.034L90.826 46.3767H86.542L103.75 21.1767ZM88.738 31.8327C89.554 31.8327 90.19 31.4967 90.646 30.8247C91.126 30.1527 91.366 29.1567 91.366 27.8367C91.366 26.5167 91.126 25.5207 90.646 24.8487C90.19 24.1767 89.554 23.8407 88.738 23.8407C87.946 23.8407 87.31 24.1887 86.83 24.8847C86.35 25.5567 86.11 26.5407 86.11 27.8367C86.11 29.1327 86.35 30.1287 86.83 30.8247C87.31 31.4967 87.946 31.8327 88.738 31.8327ZM105.838 46.6647C104.638 46.6647 103.558 46.3887 102.598 45.8367C101.662 45.2607 100.93 44.4447 100.402 43.3887C99.874 42.3327 99.61 41.1087 99.61 39.7167C99.61 38.3247 99.874 37.1007 100.402 36.0447C100.93 34.9887 101.662 34.1847 102.598 33.6327C103.558 33.0567 104.638 32.7687 105.838 32.7687C107.686 32.7687 109.186 33.4047 110.338 34.6767C111.514 35.9247 112.102 37.6047 112.102 39.7167C112.102 41.8287 111.514 43.5207 110.338 44.7927C109.186 46.0407 107.686 46.6647 105.838 46.6647ZM105.838 43.7127C106.654 43.7127 107.29 43.3767 107.746 42.7047C108.226 42.0087 108.466 41.0127 108.466 39.7167C108.466 38.4207 108.226 37.4367 107.746 36.7647C107.29 36.0687 106.654 35.7207 105.838 35.7207C105.046 35.7207 104.41 36.0567 103.93 36.7287C103.45 37.4007 103.21 38.3967 103.21 39.7167C103.21 41.0367 103.45 42.0327 103.93 42.7047C104.41 43.3767 105.046 43.7127 105.838 43.7127Z" fill="#35C8CB"/>
<path d="M17.858 18.4087C24.1726 18.4087 28.8233 19.6674 31.81 22.1847C34.8393 24.702 36.354 28.0727 36.354 32.2967C36.354 35.0274 35.6713 37.5234 34.306 39.7847C32.9406 42.0034 30.85 43.7954 28.034 45.1607C25.2606 46.4834 21.826 47.1447 17.73 47.1447C14.5726 47.1447 11.458 46.7394 8.38595 45.9287C5.35662 45.0754 2.77529 43.8807 0.641953 42.3447L4.73795 34.4087C6.44462 35.6887 8.40729 36.6914 10.626 37.4167C12.8446 38.0994 15.1273 38.4407 17.474 38.4407C20.0766 38.4407 22.1246 37.9287 23.618 36.9047C25.1113 35.8807 25.858 34.4514 25.858 32.6167C25.858 30.6967 25.0686 29.246 23.49 28.2647C21.954 27.2834 19.266 26.7927 15.426 26.7927H3.96995L6.27395 1.57671H33.602V9.89671H14.914L14.21 18.4087H17.858ZM59.7605 47.1447C56.0485 47.1447 52.7418 46.2274 49.8405 44.3927C46.9391 42.558 44.6565 39.9127 42.9925 36.4567C41.3711 32.958 40.5605 28.798 40.5605 23.9767C40.5605 19.1554 41.3711 15.0167 42.9925 11.5607C44.6565 8.06204 46.9391 5.39537 49.8405 3.56071C52.7418 1.72604 56.0485 0.808708 59.7605 0.808708C63.4725 0.808708 66.7791 1.72604 69.6805 3.56071C72.5818 5.39537 74.8431 8.06204 76.4645 11.5607C78.1285 15.0167 78.9605 19.1554 78.9605 23.9767C78.9605 28.798 78.1285 32.958 76.4645 36.4567C74.8431 39.9127 72.5818 42.558 69.6805 44.3927C66.7791 46.2274 63.4725 47.1447 59.7605 47.1447ZM59.7605 38.3767C62.4911 38.3767 64.6245 37.2034 66.1605 34.8567C67.7391 32.51 68.5285 28.8834 68.5285 23.9767C68.5285 19.07 67.7391 15.4434 66.1605 13.0967C64.6245 10.75 62.4911 9.57671 59.7605 9.57671C57.0725 9.57671 54.9391 10.75 53.3605 13.0967C51.8245 15.4434 51.0565 19.07 51.0565 23.9767C51.0565 28.8834 51.8245 32.51 53.3605 34.8567C54.9391 37.2034 57.0725 38.3767 59.7605 38.3767ZM88.738 34.7847C86.89 34.7847 85.378 34.1607 84.202 32.9127C83.05 31.6407 82.474 29.9487 82.474 27.8367C82.474 25.7247 83.05 24.0447 84.202 22.7967C85.378 21.5247 86.89 20.8887 88.738 20.8887C90.586 20.8887 92.086 21.5247 93.238 22.7967C94.39 24.0447 94.966 25.7247 94.966 27.8367C94.966 29.9487 94.39 31.6407 93.238 32.9127C92.086 34.1607 90.586 34.7847 88.738 34.7847ZM103.75 21.1767H108.034L90.826 46.3767H86.542L103.75 21.1767ZM88.738 31.8327C89.554 31.8327 90.19 31.4967 90.646 30.8247C91.126 30.1527 91.366 29.1567 91.366 27.8367C91.366 26.5167 91.126 25.5207 90.646 24.8487C90.19 24.1767 89.554 23.8407 88.738 23.8407C87.946 23.8407 87.31 24.1887 86.83 24.8847C86.35 25.5567 86.11 26.5407 86.11 27.8367C86.11 29.1327 86.35 30.1287 86.83 30.8247C87.31 31.4967 87.946 31.8327 88.738 31.8327ZM105.838 46.6647C104.638 46.6647 103.558 46.3887 102.598 45.8367C101.662 45.2607 100.93 44.4447 100.402 43.3887C99.874 42.3327 99.61 41.1087 99.61 39.7167C99.61 38.3247 99.874 37.1007 100.402 36.0447C100.93 34.9887 101.662 34.1847 102.598 33.6327C103.558 33.0567 104.638 32.7687 105.838 32.7687C107.686 32.7687 109.186 33.4047 110.338 34.6767C111.514 35.9247 112.102 37.6047 112.102 39.7167C112.102 41.8287 111.514 43.5207 110.338 44.7927C109.186 46.0407 107.686 46.6647 105.838 46.6647ZM105.838 43.7127C106.654 43.7127 107.29 43.3767 107.746 42.7047C108.226 42.0087 108.466 41.0127 108.466 39.7167C108.466 38.4207 108.226 37.4367 107.746 36.7647C107.29 36.0687 106.654 35.7207 105.838 35.7207C105.046 35.7207 104.41 36.0567 103.93 36.7287C103.45 37.4007 103.21 38.3967 103.21 39.7167C103.21 41.0367 103.45 42.0327 103.93 42.7047C104.41 43.3767 105.046 43.7127 105.838 43.7127Z" fill="url(#paint0_linear)"/>
<defs>
<linearGradient id="paint0_linear" x1="114.002" y1="42.8916" x2="31.4407" y2="25.7717" gradientUnits="userSpaceOnUse">
<stop stop-color="#FF416F"/>
<stop offset="1" stop-color="#0072D7" stop-opacity="0"/>
</linearGradient>
</defs>
</svg>
