<svg width="118" height="48" viewBox="0 0 118 48" fill="none" xmlns="http://www.w3.org/2000/svg">
<path d="M42.52 36.9687H35.224V46.3767H25.112V36.9687H0.984V29.9927L22.104 1.57671H32.984L13.4 28.5207H25.432V20.1367H35.224V28.5207H42.52V36.9687ZM64.821 47.1447C61.109 47.1447 57.8023 46.2274 54.901 44.3927C51.9997 42.558 49.717 39.9127 48.053 36.4567C46.4317 32.958 45.621 28.798 45.621 23.9767C45.621 19.1554 46.4317 15.0167 48.053 11.5607C49.717 8.06204 51.9997 5.39537 54.901 3.56071C57.8023 1.72604 61.109 0.808708 64.821 0.808708C68.533 0.808708 71.8397 1.72604 74.741 3.56071C77.6423 5.39537 79.9037 8.06204 81.525 11.5607C83.189 15.0167 84.021 19.1554 84.021 23.9767C84.021 28.798 83.189 32.958 81.525 36.4567C79.9037 39.9127 77.6423 42.558 74.741 44.3927C71.8397 46.2274 68.533 47.1447 64.821 47.1447ZM64.821 38.3767C67.5517 38.3767 69.685 37.2034 71.221 34.8567C72.7997 32.51 73.589 28.8834 73.589 23.9767C73.589 19.07 72.7997 15.4434 71.221 13.0967C69.685 10.75 67.5517 9.57671 64.821 9.57671C62.133 9.57671 59.9997 10.75 58.421 13.0967C56.885 15.4434 56.117 19.07 56.117 23.9767C56.117 28.8834 56.885 32.51 58.421 34.8567C59.9997 37.2034 62.133 38.3767 64.821 38.3767ZM93.7985 34.7847C91.9505 34.7847 90.4385 34.1607 89.2625 32.9127C88.1105 31.6407 87.5345 29.9487 87.5345 27.8367C87.5345 25.7247 88.1105 24.0447 89.2625 22.7967C90.4385 21.5247 91.9505 20.8887 93.7985 20.8887C95.6465 20.8887 97.1465 21.5247 98.2985 22.7967C99.4505 24.0447 100.027 25.7247 100.027 27.8367C100.027 29.9487 99.4505 31.6407 98.2985 32.9127C97.1465 34.1607 95.6465 34.7847 93.7985 34.7847ZM108.811 21.1767H113.095L95.8865 46.3767H91.6025L108.811 21.1767ZM93.7985 31.8327C94.6145 31.8327 95.2505 31.4967 95.7065 30.8247C96.1865 30.1527 96.4265 29.1567 96.4265 27.8367C96.4265 26.5167 96.1865 25.5207 95.7065 24.8487C95.2505 24.1767 94.6145 23.8407 93.7985 23.8407C93.0065 23.8407 92.3705 24.1887 91.8905 24.8847C91.4105 25.5567 91.1705 26.5407 91.1705 27.8367C91.1705 29.1327 91.4105 30.1287 91.8905 30.8247C92.3705 31.4967 93.0065 31.8327 93.7985 31.8327ZM110.899 46.6647C109.699 46.6647 108.619 46.3887 107.659 45.8367C106.723 45.2607 105.991 44.4447 105.463 43.3887C104.935 42.3327 104.671 41.1087 104.671 39.7167C104.671 38.3247 104.935 37.1007 105.463 36.0447C105.991 34.9887 106.723 34.1847 107.659 33.6327C108.619 33.0567 109.699 32.7687 110.899 32.7687C112.747 32.7687 114.247 33.4047 115.399 34.6767C116.575 35.9247 117.163 37.6047 117.163 39.7167C117.163 41.8287 116.575 43.5207 115.399 44.7927C114.247 46.0407 112.747 46.6647 110.899 46.6647ZM110.899 43.7127C111.715 43.7127 112.351 43.3767 112.807 42.7047C113.287 42.0087 113.527 41.0127 113.527 39.7167C113.527 38.4207 113.287 37.4367 112.807 36.7647C112.351 36.0687 111.715 35.7207 110.899 35.7207C110.107 35.7207 109.471 36.0567 108.991 36.7287C108.511 37.4007 108.271 38.3967 108.271 39.7167C108.271 41.0367 108.511 42.0327 108.991 42.7047C109.471 43.3767 110.107 43.7127 110.899 43.7127Z" fill="#35C8CB"/>
<path d="M42.52 36.9687H35.224V46.3767H25.112V36.9687H0.984V29.9927L22.104 1.57671H32.984L13.4 28.5207H25.432V20.1367H35.224V28.5207H42.52V36.9687ZM64.821 47.1447C61.109 47.1447 57.8023 46.2274 54.901 44.3927C51.9997 42.558 49.717 39.9127 48.053 36.4567C46.4317 32.958 45.621 28.798 45.621 23.9767C45.621 19.1554 46.4317 15.0167 48.053 11.5607C49.717 8.06204 51.9997 5.39537 54.901 3.56071C57.8023 1.72604 61.109 0.808708 64.821 0.808708C68.533 0.808708 71.8397 1.72604 74.741 3.56071C77.6423 5.39537 79.9037 8.06204 81.525 11.5607C83.189 15.0167 84.021 19.1554 84.021 23.9767C84.021 28.798 83.189 32.958 81.525 36.4567C79.9037 39.9127 77.6423 42.558 74.741 44.3927C71.8397 46.2274 68.533 47.1447 64.821 47.1447ZM64.821 38.3767C67.5517 38.3767 69.685 37.2034 71.221 34.8567C72.7997 32.51 73.589 28.8834 73.589 23.9767C73.589 19.07 72.7997 15.4434 71.221 13.0967C69.685 10.75 67.5517 9.57671 64.821 9.57671C62.133 9.57671 59.9997 10.75 58.421 13.0967C56.885 15.4434 56.117 19.07 56.117 23.9767C56.117 28.8834 56.885 32.51 58.421 34.8567C59.9997 37.2034 62.133 38.3767 64.821 38.3767ZM93.7985 34.7847C91.9505 34.7847 90.4385 34.1607 89.2625 32.9127C88.1105 31.6407 87.5345 29.9487 87.5345 27.8367C87.5345 25.7247 88.1105 24.0447 89.2625 22.7967C90.4385 21.5247 91.9505 20.8887 93.7985 20.8887C95.6465 20.8887 97.1465 21.5247 98.2985 22.7967C99.4505 24.0447 100.027 25.7247 100.027 27.8367C100.027 29.9487 99.4505 31.6407 98.2985 32.9127C97.1465 34.1607 95.6465 34.7847 93.7985 34.7847ZM108.811 21.1767H113.095L95.8865 46.3767H91.6025L108.811 21.1767ZM93.7985 31.8327C94.6145 31.8327 95.2505 31.4967 95.7065 30.8247C96.1865 30.1527 96.4265 29.1567 96.4265 27.8367C96.4265 26.5167 96.1865 25.5207 95.7065 24.8487C95.2505 24.1767 94.6145 23.8407 93.7985 23.8407C93.0065 23.8407 92.3705 24.1887 91.8905 24.8847C91.4105 25.5567 91.1705 26.5407 91.1705 27.8367C91.1705 29.1327 91.4105 30.1287 91.8905 30.8247C92.3705 31.4967 93.0065 31.8327 93.7985 31.8327ZM110.899 46.6647C109.699 46.6647 108.619 46.3887 107.659 45.8367C106.723 45.2607 105.991 44.4447 105.463 43.3887C104.935 42.3327 104.671 41.1087 104.671 39.7167C104.671 38.3247 104.935 37.1007 105.463 36.0447C105.991 34.9887 106.723 34.1847 107.659 33.6327C108.619 33.0567 109.699 32.7687 110.899 32.7687C112.747 32.7687 114.247 33.4047 115.399 34.6767C116.575 35.9247 117.163 37.6047 117.163 39.7167C117.163 41.8287 116.575 43.5207 115.399 44.7927C114.247 46.0407 112.747 46.6647 110.899 46.6647ZM110.899 43.7127C111.715 43.7127 112.351 43.3767 112.807 42.7047C113.287 42.0087 113.527 41.0127 113.527 39.7167C113.527 38.4207 113.287 37.4367 112.807 36.7647C112.351 36.0687 111.715 35.7207 110.899 35.7207C110.107 35.7207 109.471 36.0567 108.991 36.7287C108.511 37.4007 108.271 38.3967 108.271 39.7167C108.271 41.0367 108.511 42.0327 108.991 42.7047C109.471 43.3767 110.107 43.7127 110.899 43.7127Z" fill="url(#paint0_linear)"/>
<defs>
<linearGradient id="paint0_linear" x1="79.544" y1="6.57707" x2="22.9763" y2="41.9011" gradientUnits="userSpaceOnUse">
<stop stop-color="#FF416F"/>
<stop offset="1" stop-color="#0072D7" stop-opacity="0.28"/>
</linearGradient>
</defs>
</svg>
