<svg width="143" height="48" viewBox="0 0 143 48" fill="none" xmlns="http://www.w3.org/2000/svg">
<path d="M19.4166 1.57671V46.3767H9.04862V9.89671H0.088625V1.57671H19.4166ZM46.3991 47.1447C42.6871 47.1447 39.3805 46.2274 36.4791 44.3927C33.5778 42.558 31.2951 39.9127 29.6311 36.4567C28.0098 32.958 27.1991 28.798 27.1991 23.9767C27.1991 19.1554 28.0098 15.0167 29.6311 11.5607C31.2951 8.06204 33.5778 5.39537 36.4791 3.56071C39.3805 1.72604 42.6871 0.808708 46.3991 0.808708C50.1111 0.808708 53.4178 1.72604 56.3191 3.56071C59.2205 5.39537 61.4818 8.06204 63.1031 11.5607C64.7671 15.0167 65.5991 19.1554 65.5991 23.9767C65.5991 28.798 64.7671 32.958 63.1031 36.4567C61.4818 39.9127 59.2205 42.558 56.3191 44.3927C53.4178 46.2274 50.1111 47.1447 46.3991 47.1447ZM46.3991 38.3767C49.1298 38.3767 51.2631 37.2034 52.7991 34.8567C54.3778 32.51 55.1671 28.8834 55.1671 23.9767C55.1671 19.07 54.3778 15.4434 52.7991 13.0967C51.2631 10.75 49.1298 9.57671 46.3991 9.57671C43.7111 9.57671 41.5778 10.75 39.9991 13.0967C38.4631 15.4434 37.6951 19.07 37.6951 23.9767C37.6951 28.8834 38.4631 32.51 39.9991 34.8567C41.5778 37.2034 43.7111 38.3767 46.3991 38.3767ZM89.8366 47.1447C86.1246 47.1447 82.818 46.2274 79.9166 44.3927C77.0153 42.558 74.7326 39.9127 73.0686 36.4567C71.4473 32.958 70.6366 28.798 70.6366 23.9767C70.6366 19.1554 71.4473 15.0167 73.0686 11.5607C74.7326 8.06204 77.0153 5.39537 79.9166 3.56071C82.818 1.72604 86.1246 0.808708 89.8366 0.808708C93.5486 0.808708 96.8553 1.72604 99.7566 3.56071C102.658 5.39537 104.919 8.06204 106.541 11.5607C108.205 15.0167 109.037 19.1554 109.037 23.9767C109.037 28.798 108.205 32.958 106.541 36.4567C104.919 39.9127 102.658 42.558 99.7566 44.3927C96.8553 46.2274 93.5486 47.1447 89.8366 47.1447ZM89.8366 38.3767C92.5673 38.3767 94.7006 37.2034 96.2366 34.8567C97.8153 32.51 98.6046 28.8834 98.6046 23.9767C98.6046 19.07 97.8153 15.4434 96.2366 13.0967C94.7006 10.75 92.5673 9.57671 89.8366 9.57671C87.1486 9.57671 85.0153 10.75 83.4366 13.0967C81.9006 15.4434 81.1326 19.07 81.1326 23.9767C81.1326 28.8834 81.9006 32.51 83.4366 34.8567C85.0153 37.2034 87.1486 38.3767 89.8366 38.3767ZM118.814 34.7847C116.966 34.7847 115.454 34.1607 114.278 32.9127C113.126 31.6407 112.55 29.9487 112.55 27.8367C112.55 25.7247 113.126 24.0447 114.278 22.7967C115.454 21.5247 116.966 20.8887 118.814 20.8887C120.662 20.8887 122.162 21.5247 123.314 22.7967C124.466 24.0447 125.042 25.7247 125.042 27.8367C125.042 29.9487 124.466 31.6407 123.314 32.9127C122.162 34.1607 120.662 34.7847 118.814 34.7847ZM133.826 21.1767H138.11L120.902 46.3767H116.618L133.826 21.1767ZM118.814 31.8327C119.63 31.8327 120.266 31.4967 120.722 30.8247C121.202 30.1527 121.442 29.1567 121.442 27.8367C121.442 26.5167 121.202 25.5207 120.722 24.8487C120.266 24.1767 119.63 23.8407 118.814 23.8407C118.022 23.8407 117.386 24.1887 116.906 24.8847C116.426 25.5567 116.186 26.5407 116.186 27.8367C116.186 29.1327 116.426 30.1287 116.906 30.8247C117.386 31.4967 118.022 31.8327 118.814 31.8327ZM135.914 46.6647C134.714 46.6647 133.634 46.3887 132.674 45.8367C131.738 45.2607 131.006 44.4447 130.478 43.3887C129.95 42.3327 129.686 41.1087 129.686 39.7167C129.686 38.3247 129.95 37.1007 130.478 36.0447C131.006 34.9887 131.738 34.1847 132.674 33.6327C133.634 33.0567 134.714 32.7687 135.914 32.7687C137.762 32.7687 139.262 33.4047 140.414 34.6767C141.59 35.9247 142.178 37.6047 142.178 39.7167C142.178 41.8287 141.59 43.5207 140.414 44.7927C139.262 46.0407 137.762 46.6647 135.914 46.6647ZM135.914 43.7127C136.73 43.7127 137.366 43.3767 137.822 42.7047C138.302 42.0087 138.542 41.0127 138.542 39.7167C138.542 38.4207 138.302 37.4367 137.822 36.7647C137.366 36.0687 136.73 35.7207 135.914 35.7207C135.122 35.7207 134.486 36.0567 134.006 36.7287C133.526 37.4007 133.286 38.3967 133.286 39.7167C133.286 41.0367 133.526 42.0327 134.006 42.7047C134.486 43.3767 135.122 43.7127 135.914 43.7127Z" fill="#35C8CB"/>
<path d="M19.4166 1.57671V46.3767H9.04862V9.89671H0.088625V1.57671H19.4166ZM46.3991 47.1447C42.6871 47.1447 39.3805 46.2274 36.4791 44.3927C33.5778 42.558 31.2951 39.9127 29.6311 36.4567C28.0098 32.958 27.1991 28.798 27.1991 23.9767C27.1991 19.1554 28.0098 15.0167 29.6311 11.5607C31.2951 8.06204 33.5778 5.39537 36.4791 3.56071C39.3805 1.72604 42.6871 0.808708 46.3991 0.808708C50.1111 0.808708 53.4178 1.72604 56.3191 3.56071C59.2205 5.39537 61.4818 8.06204 63.1031 11.5607C64.7671 15.0167 65.5991 19.1554 65.5991 23.9767C65.5991 28.798 64.7671 32.958 63.1031 36.4567C61.4818 39.9127 59.2205 42.558 56.3191 44.3927C53.4178 46.2274 50.1111 47.1447 46.3991 47.1447ZM46.3991 38.3767C49.1298 38.3767 51.2631 37.2034 52.7991 34.8567C54.3778 32.51 55.1671 28.8834 55.1671 23.9767C55.1671 19.07 54.3778 15.4434 52.7991 13.0967C51.2631 10.75 49.1298 9.57671 46.3991 9.57671C43.7111 9.57671 41.5778 10.75 39.9991 13.0967C38.4631 15.4434 37.6951 19.07 37.6951 23.9767C37.6951 28.8834 38.4631 32.51 39.9991 34.8567C41.5778 37.2034 43.7111 38.3767 46.3991 38.3767ZM89.8366 47.1447C86.1246 47.1447 82.818 46.2274 79.9166 44.3927C77.0153 42.558 74.7326 39.9127 73.0686 36.4567C71.4473 32.958 70.6366 28.798 70.6366 23.9767C70.6366 19.1554 71.4473 15.0167 73.0686 11.5607C74.7326 8.06204 77.0153 5.39537 79.9166 3.56071C82.818 1.72604 86.1246 0.808708 89.8366 0.808708C93.5486 0.808708 96.8553 1.72604 99.7566 3.56071C102.658 5.39537 104.919 8.06204 106.541 11.5607C108.205 15.0167 109.037 19.1554 109.037 23.9767C109.037 28.798 108.205 32.958 106.541 36.4567C104.919 39.9127 102.658 42.558 99.7566 44.3927C96.8553 46.2274 93.5486 47.1447 89.8366 47.1447ZM89.8366 38.3767C92.5673 38.3767 94.7006 37.2034 96.2366 34.8567C97.8153 32.51 98.6046 28.8834 98.6046 23.9767C98.6046 19.07 97.8153 15.4434 96.2366 13.0967C94.7006 10.75 92.5673 9.57671 89.8366 9.57671C87.1486 9.57671 85.0153 10.75 83.4366 13.0967C81.9006 15.4434 81.1326 19.07 81.1326 23.9767C81.1326 28.8834 81.9006 32.51 83.4366 34.8567C85.0153 37.2034 87.1486 38.3767 89.8366 38.3767ZM118.814 34.7847C116.966 34.7847 115.454 34.1607 114.278 32.9127C113.126 31.6407 112.55 29.9487 112.55 27.8367C112.55 25.7247 113.126 24.0447 114.278 22.7967C115.454 21.5247 116.966 20.8887 118.814 20.8887C120.662 20.8887 122.162 21.5247 123.314 22.7967C124.466 24.0447 125.042 25.7247 125.042 27.8367C125.042 29.9487 124.466 31.6407 123.314 32.9127C122.162 34.1607 120.662 34.7847 118.814 34.7847ZM133.826 21.1767H138.11L120.902 46.3767H116.618L133.826 21.1767ZM118.814 31.8327C119.63 31.8327 120.266 31.4967 120.722 30.8247C121.202 30.1527 121.442 29.1567 121.442 27.8367C121.442 26.5167 121.202 25.5207 120.722 24.8487C120.266 24.1767 119.63 23.8407 118.814 23.8407C118.022 23.8407 117.386 24.1887 116.906 24.8847C116.426 25.5567 116.186 26.5407 116.186 27.8367C116.186 29.1327 116.426 30.1287 116.906 30.8247C117.386 31.4967 118.022 31.8327 118.814 31.8327ZM135.914 46.6647C134.714 46.6647 133.634 46.3887 132.674 45.8367C131.738 45.2607 131.006 44.4447 130.478 43.3887C129.95 42.3327 129.686 41.1087 129.686 39.7167C129.686 38.3247 129.95 37.1007 130.478 36.0447C131.006 34.9887 131.738 34.1847 132.674 33.6327C133.634 33.0567 134.714 32.7687 135.914 32.7687C137.762 32.7687 139.262 33.4047 140.414 34.6767C141.59 35.9247 142.178 37.6047 142.178 39.7167C142.178 41.8287 141.59 43.5207 140.414 44.7927C139.262 46.0407 137.762 46.6647 135.914 46.6647ZM135.914 43.7127C136.73 43.7127 137.366 43.3767 137.822 42.7047C138.302 42.0087 138.542 41.0127 138.542 39.7167C138.542 38.4207 138.302 37.4367 137.822 36.7647C137.366 36.0687 136.73 35.7207 135.914 35.7207C135.122 35.7207 134.486 36.0567 134.006 36.7287C133.526 37.4007 133.286 38.3967 133.286 39.7167C133.286 41.0367 133.526 42.0327 134.006 42.7047C134.486 43.3767 135.122 43.7127 135.914 43.7127Z" fill="url(#paint0_linear)"/>
<defs>
<linearGradient id="paint0_linear" x1="24.6199" y1="35.6161" x2="70.2852" y2="-20.8063" gradientUnits="userSpaceOnUse">
<stop stop-color="#FF416F"/>
<stop offset="1" stop-color="#0072D7" stop-opacity="0"/>
</linearGradient>
</defs>
</svg>
