<svg width="59" height="71" viewBox="0 0 59 71" fill="none" xmlns="http://www.w3.org/2000/svg">
<path fill-rule="evenodd" clip-rule="evenodd" d="M6.15234 12.4708V44.0253C6.15234 47.41 7.77149 50.8594 11.731 54.4021C15.5632 57.8309 21.4126 61.1728 29.4655 64.3498C37.5184 61.1728 43.3679 57.8309 47.2 54.4021C51.1595 50.8594 52.7787 47.41 52.7787 44.0253V12.4708C42.037 8.50061 34.3402 6.66528 29.4655 6.66528C24.5908 6.66528 16.894 8.50061 6.15234 12.4708ZM2.08571 7.58798C13.9063 3.09142 23.1211 0.665283 29.4655 0.665283C35.8099 0.665283 45.0247 3.09142 56.8453 7.58798L58.7787 8.32343V44.0253C58.7787 49.6095 56.0123 54.5685 51.2008 58.8736C46.4302 63.142 39.4726 66.9444 30.5396 70.3698L29.4655 70.7817L28.3914 70.3698C19.4584 66.9444 12.5008 63.142 7.73025 58.8736C2.91873 54.5685 0.152344 49.6095 0.152344 44.0253V8.32343L2.08571 7.58798Z" fill="#35C8CB"/>
<path fill-rule="evenodd" clip-rule="evenodd" d="M6.15234 12.4708V44.0253C6.15234 47.41 7.77149 50.8594 11.731 54.4021C15.5632 57.8309 21.4126 61.1728 29.4655 64.3498C37.5184 61.1728 43.3679 57.8309 47.2 54.4021C51.1595 50.8594 52.7787 47.41 52.7787 44.0253V12.4708C42.037 8.50061 34.3402 6.66528 29.4655 6.66528C24.5908 6.66528 16.894 8.50061 6.15234 12.4708ZM2.08571 7.58798C13.9063 3.09142 23.1211 0.665283 29.4655 0.665283C35.8099 0.665283 45.0247 3.09142 56.8453 7.58798L58.7787 8.32343V44.0253C58.7787 49.6095 56.0123 54.5685 51.2008 58.8736C46.4302 63.142 39.4726 66.9444 30.5396 70.3698L29.4655 70.7817L28.3914 70.3698C19.4584 66.9444 12.5008 63.142 7.73025 58.8736C2.91873 54.5685 0.152344 49.6095 0.152344 44.0253V8.32343L2.08571 7.58798Z" fill="url(#paint0_linear)"/>
<rect x="12.4746" y="26.0073" width="33.9818" height="15.6544" rx="7.82722" fill="#F7B916"/>
<path d="M25.4826 31.4019L23.6916 36.1359H23.0886L21.5946 32.2569L20.1006 36.1359H19.4976L17.7156 31.4019H18.3276L19.8126 35.4249L21.3336 31.4019H21.8826L23.3946 35.4249L24.8976 31.4019H25.4826ZM33.3488 31.4019L31.5578 36.1359H30.9548L29.4608 32.2569L27.9668 36.1359H27.3638L25.5818 31.4019H26.1938L27.6788 35.4249L29.1998 31.4019H29.7488L31.2608 35.4249L32.7638 31.4019H33.3488ZM41.215 31.4019L39.424 36.1359H38.821L37.327 32.2569L35.833 36.1359H35.23L33.448 31.4019H34.06L35.545 35.4249L37.066 31.4019H37.615L39.127 35.4249L40.63 31.4019H41.215Z" fill="#333333"/>
<defs>
<linearGradient id="paint0_linear" x1="29.4655" y1="0.665283" x2="29.4655" y2="70.7817" gradientUnits="userSpaceOnUse">
<stop stop-color="#FF416F"/>
<stop offset="1" stop-color="#0072D7" stop-opacity="0"/>
</linearGradient>
</defs>
</svg>
