<svg width="71" height="71" viewBox="0 0 71 71" fill="none" xmlns="http://www.w3.org/2000/svg">
<ellipse cx="35.2451" cy="35.5544" rx="35.038" ry="35" fill="#35C8CB"/>
<ellipse cx="35.2451" cy="35.5544" rx="35.038" ry="35" fill="url(#paint0_linear)"/>
<ellipse cx="35.2477" cy="35.5543" rx="29.3141" ry="29.2823" fill="#35C8CB"/>
<ellipse cx="35.2477" cy="35.5543" rx="29.3141" ry="29.2823" fill="white"/>
<ellipse cx="35.2463" cy="35.5543" rx="23.0276" ry="23.0026" fill="#35C8CB"/>
<ellipse cx="35.2463" cy="35.5543" rx="23.0276" ry="23.0026" fill="url(#paint1_linear)"/>
<ellipse cx="35.2466" cy="35.5542" rx="16.9322" ry="16.9138" fill="#35C8CB"/>
<ellipse cx="35.2466" cy="35.5542" rx="16.9322" ry="16.9138" fill="white"/>
<ellipse cx="35.2467" cy="35.5543" rx="5.18416" ry="5.17853" fill="#35C8CB"/>
<ellipse cx="35.2467" cy="35.5543" rx="5.18416" ry="5.17853" fill="#F7B916"/>
<path d="M9.54685 26.8454L35.2466 35.5544L18.335 48.004C17.8714 48.3453 17.2269 48.1667 17.0248 47.641L14.4755 40.9568L8.71639 42.4548C8.42252 42.5312 8.1644 42.2449 8.27075 41.9605L11.0755 34.4602L8.44093 28.0343C8.15553 27.3382 8.83751 26.605 9.54685 26.8454Z" fill="white"/>
<path d="M35.2466 35.5544L9.54685 26.8454C8.83751 26.605 8.15553 27.3382 8.44093 28.0343L11.0755 34.4602M35.2466 35.5544L18.335 48.004C17.8714 48.3453 17.2269 48.1667 17.0248 47.641L14.4755 40.9568M35.2466 35.5544L14.4755 40.9568M35.2466 35.5544L11.0755 34.4602M11.0755 34.4602L8.27075 41.9605C8.1644 42.2449 8.42252 42.5312 8.71639 42.4548L14.4755 40.9568" stroke="#333333" stroke-linecap="round" stroke-linejoin="round"/>
<defs>
<linearGradient id="paint0_linear" x1="35.2451" y1="0.554443" x2="35.2451" y2="70.5544" gradientUnits="userSpaceOnUse">
<stop stop-color="#FF416F"/>
<stop offset="1" stop-color="#0072D7" stop-opacity="0"/>
</linearGradient>
<linearGradient id="paint1_linear" x1="35.2463" y1="12.5518" x2="35.2463" y2="58.5569" gradientUnits="userSpaceOnUse">
<stop stop-color="#FF416F"/>
<stop offset="1" stop-color="#0072D7" stop-opacity="0"/>
</linearGradient>
</defs>
</svg>
