<svg width="67" height="69" viewBox="0 0 67 69" fill="none" xmlns="http://www.w3.org/2000/svg">
<path d="M46.1191 2.0011C46.7374 2.26607 52.1177 4.39325 54.7306 5.42369L50.5416 13.7858" stroke="#333333" stroke-linecap="round" stroke-linejoin="round"/>
<path fill-rule="evenodd" clip-rule="evenodd" d="M9.78443 43.6293C11.5746 43.6293 13.0259 45.0805 13.0259 46.8707L13.0259 65.345C13.0259 67.1352 11.5746 68.5865 9.78444 68.5865C7.99422 68.5865 6.54297 67.1352 6.54297 65.345L6.54297 46.8707C6.54297 45.0805 7.99422 43.6293 9.78443 43.6293Z" fill="#35C8CB"/>
<path fill-rule="evenodd" clip-rule="evenodd" d="M9.78443 43.6293C11.5746 43.6293 13.0259 45.0805 13.0259 46.8707L13.0259 65.345C13.0259 67.1352 11.5746 68.5865 9.78444 68.5865C7.99422 68.5865 6.54297 67.1352 6.54297 65.345L6.54297 46.8707C6.54297 45.0805 7.99422 43.6293 9.78443 43.6293Z" fill="url(#paint0_linear)"/>
<path fill-rule="evenodd" clip-rule="evenodd" d="M23.1637 37.4461C24.9539 37.4461 26.4052 38.8974 26.4052 40.6876L26.4052 65.3451C26.4052 67.1353 24.9539 68.5866 23.1637 68.5866C21.3735 68.5866 19.9222 67.1353 19.9222 65.3451L19.9222 40.6876C19.9222 38.8974 21.3735 37.4461 23.1637 37.4461Z" fill="#35C8CB"/>
<path fill-rule="evenodd" clip-rule="evenodd" d="M23.1637 37.4461C24.9539 37.4461 26.4052 38.8974 26.4052 40.6876L26.4052 65.3451C26.4052 67.1353 24.9539 68.5866 23.1637 68.5866C21.3735 68.5866 19.9222 67.1353 19.9222 65.3451L19.9222 40.6876C19.9222 38.8974 21.3735 37.4461 23.1637 37.4461Z" fill="url(#paint1_linear)"/>
<path fill-rule="evenodd" clip-rule="evenodd" d="M36.543 33.717C38.3332 33.717 39.7844 35.1683 39.7844 36.9585L39.7844 65.345C39.7844 67.1352 38.3332 68.5865 36.543 68.5865C34.7528 68.5865 33.3015 67.1352 33.3015 65.345L33.3015 36.9585C33.3015 35.1683 34.7528 33.717 36.543 33.717Z" fill="#35C8CB"/>
<path fill-rule="evenodd" clip-rule="evenodd" d="M36.543 33.717C38.3332 33.717 39.7844 35.1683 39.7844 36.9585L39.7844 65.345C39.7844 67.1352 38.3332 68.5865 36.543 68.5865C34.7528 68.5865 33.3015 67.1352 33.3015 65.345L33.3015 36.9585C33.3015 35.1683 34.7528 33.717 36.543 33.717Z" fill="url(#paint2_linear)"/>
<path fill-rule="evenodd" clip-rule="evenodd" d="M49.9222 28.8148C51.7125 28.8148 53.1637 30.266 53.1637 32.0562V65.345C53.1637 67.1352 51.7125 68.5864 49.9222 68.5864C48.132 68.5864 46.6808 67.1352 46.6808 65.345V32.0562C46.6808 30.266 48.132 28.8148 49.9222 28.8148Z" fill="#35C8CB"/>
<path fill-rule="evenodd" clip-rule="evenodd" d="M49.9222 28.8148C51.7125 28.8148 53.1637 30.266 53.1637 32.0562V65.345C53.1637 67.1352 51.7125 68.5864 49.9222 68.5864C48.132 68.5864 46.6808 67.1352 46.6808 65.345V32.0562C46.6808 30.266 48.132 28.8148 49.9222 28.8148Z" fill="url(#paint3_linear)"/>
<path fill-rule="evenodd" clip-rule="evenodd" d="M63.3015 22.7815C65.0917 22.7815 66.543 24.2327 66.543 26.023V65.3452C66.543 67.1354 65.0917 68.5867 63.3015 68.5867C61.5113 68.5867 60.06 67.1354 60.06 65.3452V26.023C60.06 24.2327 61.5113 22.7815 63.3015 22.7815Z" fill="#35C8CB"/>
<path fill-rule="evenodd" clip-rule="evenodd" d="M63.3015 22.7815C65.0917 22.7815 66.543 24.2327 66.543 26.023V65.3452C66.543 67.1354 65.0917 68.5867 63.3015 68.5867C61.5113 68.5867 60.06 67.1354 60.06 65.3452V26.023C60.06 24.2327 61.5113 22.7815 63.3015 22.7815Z" fill="url(#paint4_linear)"/>
<ellipse cx="15.2579" cy="18.4453" rx="14.4532" ry="14.4375" fill="#35C8CB"/>
<ellipse cx="15.2579" cy="18.4453" rx="14.4532" ry="14.4375" fill="#F7B916"/>
<path d="M14.7309 20.7258L53.8172 5.78451" stroke="#333333" stroke-linecap="round" stroke-linejoin="round"/>
<defs>
<linearGradient id="paint0_linear" x1="64.0714" y1="22.7815" x2="6.54297" y2="66.5887" gradientUnits="userSpaceOnUse">
<stop stop-color="#FF416F"/>
<stop offset="1" stop-color="#0072D7" stop-opacity="0"/>
</linearGradient>
<linearGradient id="paint1_linear" x1="64.0714" y1="22.7815" x2="6.54297" y2="66.5887" gradientUnits="userSpaceOnUse">
<stop stop-color="#FF416F"/>
<stop offset="1" stop-color="#0072D7" stop-opacity="0"/>
</linearGradient>
<linearGradient id="paint2_linear" x1="64.0714" y1="22.7815" x2="6.54297" y2="66.5887" gradientUnits="userSpaceOnUse">
<stop stop-color="#FF416F"/>
<stop offset="1" stop-color="#0072D7" stop-opacity="0"/>
</linearGradient>
<linearGradient id="paint3_linear" x1="64.0714" y1="22.7815" x2="6.54297" y2="66.5887" gradientUnits="userSpaceOnUse">
<stop stop-color="#FF416F"/>
<stop offset="1" stop-color="#0072D7" stop-opacity="0"/>
</linearGradient>
<linearGradient id="paint4_linear" x1="64.0714" y1="22.7815" x2="6.54297" y2="66.5887" gradientUnits="userSpaceOnUse">
<stop stop-color="#FF416F"/>
<stop offset="1" stop-color="#0072D7" stop-opacity="0"/>
</linearGradient>
</defs>
</svg>
