<svg width="262" height="149" viewBox="0 0 262 149" fill="none" xmlns="http://www.w3.org/2000/svg">
<g clip-path="url(#clip0)">
<path d="M126.441 42.94H167.791C166.478 39.5565 164.378 36.534 161.665 34.1223C158.953 31.7106 155.705 29.9788 152.191 29.07C149.611 28.38 144.101 27.52 141.561 28.33C134.721 30.51 126.441 42.94 126.441 42.94Z" fill="#B5B5B5"/>
<path d="M197.54 43.65H109C102.373 43.65 97 49.0226 97 55.65V118.64C97 125.267 102.373 130.64 109 130.64H197.54C204.167 130.64 209.54 125.267 209.54 118.64V55.65C209.54 49.0226 204.167 43.65 197.54 43.65Z" stroke="#333333" stroke-linecap="round" stroke-linejoin="round"/>
<path d="M200.341 45.69H111.801C105.173 45.69 99.8008 51.0626 99.8008 57.69V120.68C99.8008 127.307 105.173 132.68 111.801 132.68H200.341C206.968 132.68 212.341 127.307 212.341 120.68V57.69C212.341 51.0626 206.968 45.69 200.341 45.69Z" fill="#333333"/>
<path d="M86.3092 99.81L84.5092 68.14C83.9992 59.69 83.5892 51 86.3892 43C89.1892 35 96.5592 27.42 106.779 27.42H148.999C138.779 27.42 131.409 35.01 128.609 43C125.809 50.99 126.249 59.68 126.729 68.13L129.729 119.97C129.979 124.26 130.189 128.72 128.509 132.66C126.829 136.6 122.619 139.84 118.429 138.92L116.149 139.07H77.2892C76.9084 139.059 76.5297 139.009 76.1592 138.92C74.4926 138.502 72.9713 137.638 71.7592 136.42L71.6292 137.75C71.0212 139.632 70.0303 141.367 68.7189 142.847C67.4075 144.327 65.804 145.52 64.0092 146.35C61.4889 147.576 58.6318 147.928 55.8892 147.35C55.8892 147.35 53.1492 147.56 53.0492 147.6H16.8392H15.3392C10.6792 147.29 6.20922 144.55 5.19922 140.04H26.8792L28.2892 139.9C30.107 136.651 31.1924 133.043 31.4692 129.33C31.9692 123.33 30.8592 117.13 32.0592 111.18C33.2592 105.23 37.9092 99.18 43.9592 99.49L45.9592 99.55L85.2092 99.49L86.3092 99.81Z" fill="white"/>
<path d="M257.45 69.92C259.455 69.92 261.08 68.2948 261.08 66.29C261.08 64.2852 259.455 62.66 257.45 62.66C255.446 62.66 253.82 64.2852 253.82 66.29C253.82 68.2948 255.446 69.92 257.45 69.92Z" stroke="#1A5AA4" stroke-miterlimit="10"/>
<path d="M117.7 10.76C120.534 10.76 122.83 8.46322 122.83 5.63C122.83 2.79678 120.534 0.5 117.7 0.5C114.867 0.5 112.57 2.79678 112.57 5.63C112.57 8.46322 114.867 10.76 117.7 10.76Z" stroke="#1A5AA4" stroke-miterlimit="10"/>
<path d="M51.8009 83.29C53.3694 83.29 54.6409 82.0185 54.6409 80.45C54.6409 78.8815 53.3694 77.61 51.8009 77.61C50.2324 77.61 48.9609 78.8815 48.9609 80.45C48.9609 82.0185 50.2324 83.29 51.8009 83.29Z" stroke="#1A5AA4" stroke-miterlimit="10"/>
<path d="M223.219 10L218.429 18.31C218.263 18.5944 218.026 18.8303 217.741 18.9943C217.456 19.1583 217.133 19.2446 216.804 19.2446C216.475 19.2446 216.152 19.1583 215.866 18.9943C215.581 18.8303 215.344 18.5944 215.179 18.31L210.379 10C210.218 9.71611 210.135 9.39517 210.137 9.06907C210.139 8.74296 210.226 8.42303 210.39 8.14101C210.553 7.85899 210.788 7.6247 211.07 7.46139C211.353 7.29808 211.673 7.21142 211.999 7.21002H221.599C221.925 7.21142 222.245 7.29808 222.527 7.46139C222.809 7.6247 223.044 7.85899 223.208 8.14101C223.372 8.42303 223.459 8.74296 223.461 9.06907C223.463 9.39517 223.379 9.71611 223.219 10V10Z" stroke="white" stroke-miterlimit="10"/>
<path d="M30.3003 55.06L31.0003 60.85C31.0476 61.1794 31.0066 61.5154 30.8815 61.8238C30.7564 62.1321 30.5518 62.4018 30.2884 62.6051C30.025 62.8085 29.7124 62.9383 29.3824 62.9814C29.0525 63.0244 28.717 62.9791 28.4103 62.85L23.0403 60.57C22.7367 60.4412 22.4724 60.2349 22.2738 59.9717C22.0752 59.7084 21.9493 59.3976 21.9088 59.0704C21.8683 58.7431 21.9145 58.411 22.0429 58.1073C22.1713 57.8036 22.3773 57.539 22.6403 57.34L27.3003 53.83C27.561 53.6315 27.8691 53.5046 28.1939 53.4619C28.5188 53.4191 28.8492 53.462 29.1524 53.5863C29.4555 53.7106 29.721 53.912 29.9223 54.1705C30.1237 54.429 30.254 54.7356 30.3003 55.06V55.06Z" stroke="#F7B916" stroke-miterlimit="10"/>
<path d="M55.7109 16.57L59.3309 20.19" stroke="#00F3FF" stroke-linecap="round" stroke-linejoin="round"/>
<path d="M61.5898 22.44L65.1998 26.06" stroke="#00F3FF" stroke-linecap="round" stroke-linejoin="round"/>
<path d="M65.3694 16.41L61.6094 20.17" stroke="#00F3FF" stroke-linecap="round" stroke-linejoin="round"/>
<path d="M59.1194 22.66L55.3594 26.42" stroke="#00F3FF" stroke-linecap="round" stroke-linejoin="round"/>
<path d="M227.68 92.39L231.3 96.01" stroke="#00F3FF" stroke-linecap="round" stroke-linejoin="round"/>
<path d="M233.551 98.26L237.171 101.88" stroke="#00F3FF" stroke-linecap="round" stroke-linejoin="round"/>
<path d="M237.338 92.23L233.578 95.99" stroke="#00F3FF" stroke-linecap="round" stroke-linejoin="round"/>
<path d="M231.088 98.48L227.328 102.25" stroke="#00F3FF" stroke-linecap="round" stroke-linejoin="round"/>
<path d="M131.059 140.14H227.329" stroke="#F7B916" stroke-linecap="round" stroke-linejoin="round"/>
<path d="M227.332 147.55H73.6719" stroke="#F7B916" stroke-linecap="round" stroke-linejoin="round"/>
<path d="M39.2719 99.5C33.2119 99.23 28.5619 105.25 27.3619 111.19C26.1619 117.13 27.2819 123.3 26.7719 129.34C26.4913 133.17 25.3459 136.886 23.4219 140.21" stroke="#333333" stroke-linecap="round" stroke-linejoin="round"/>
<path d="M102.078 27.43C91.8685 27.43 84.4885 35 81.6885 43C78.8885 51 79.3385 59.68 79.8185 68.13L81.6285 99.91" stroke="#333333" stroke-linecap="round" stroke-linejoin="round"/>
<path d="M99.8008 27.43H144.331" stroke="#333333" stroke-linecap="round" stroke-linejoin="round"/>
<path d="M37.8516 99.56L81.5216 99.5" stroke="#333333" stroke-linecap="round" stroke-linejoin="round"/>
<path d="M72.6016 139.08H73.2116" stroke="#333333" stroke-linecap="round" stroke-linejoin="round"/>
<path d="M113.612 138.93C111.222 138.42 109.282 136.69 107.712 134.82C99.5319 125.08 98.4019 110.14 88.3419 102.37C86.3822 100.729 83.9674 99.7279 81.4219 99.5C75.3619 99.23 70.7119 105.25 69.5119 111.19C68.3119 117.13 69.4319 123.3 68.9219 129.34C68.7348 131.73 68.2304 134.084 67.4219 136.34L69.2419 138.1L72.5019 139.1H114.752" fill="#B5B5B5"/>
<path d="M53.74 147.64C48.74 147.64 43.83 144.84 42.74 140.05H0.5C1.6 144.92 6.72 147.72 11.76 147.64H53.74Z" fill="#B5B5B5"/>
<path d="M73.6686 139.05C72.9304 139.135 72.1833 139.094 71.4586 138.93C69.7905 138.51 68.2689 137.642 67.0586 136.42" stroke="#333333" stroke-linecap="round" stroke-linejoin="round"/>
<path d="M73.2109 139.08H114.851" stroke="#333333" stroke-linecap="round" stroke-linejoin="round"/>
<path d="M10.8086 147.64H53.6486" stroke="#333333" stroke-linecap="round" stroke-linejoin="round"/>
<path d="M11.76 147.64C6.76 147.72 1.6 144.92 0.5 140.05H42.75C44.25 146.7 53.25 149.49 59.31 146.36C65.37 143.23 68.46 136.14 69.02 129.36C69.53 123.36 68.41 117.16 69.61 111.21C70.81 105.26 75.46 99.21 81.52 99.52C84.0655 99.748 86.4803 100.749 88.44 102.39C98.5 110.16 99.63 125.1 107.81 134.84C109.38 136.71 111.32 138.44 113.71 138.95C117.9 139.87 122.1 136.64 123.79 132.69C125.48 128.74 125.26 124.29 125.02 120L122.02 68.16C121.54 59.71 121.09 51.01 123.89 43.03C126.69 35.05 134.07 27.45 144.28 27.45C160.35 27.45 166.28 37.16 168.78 43.67" stroke="#333333" stroke-linecap="round" stroke-linejoin="round"/>
<path d="M37.6016 107.66C42.3882 108.053 47.1916 108.21 52.0116 108.13C55.3766 108.117 58.7359 107.853 62.0616 107.34" stroke="#333333" stroke-linecap="round" stroke-linejoin="round"/>
<path d="M45.7383 113.48C49.4589 113.447 53.1736 113.782 56.8283 114.48" stroke="#333333" stroke-linecap="round" stroke-linejoin="round"/>
<path d="M34.6406 120.81C41.4844 119.97 48.3937 119.799 55.2706 120.3C56.595 120.359 57.9092 120.56 59.1906 120.9" stroke="#333333" stroke-linecap="round" stroke-linejoin="round"/>
<path d="M41.5391 126.65C48.3574 126.01 55.2162 125.92 62.0491 126.38" stroke="#333333" stroke-linecap="round" stroke-linejoin="round"/>
<path d="M36.3808 133.82C36.1408 133.99 36.5508 134.28 36.8508 134.28H54.6408" stroke="#333333" stroke-linecap="round" stroke-linejoin="round"/>
<path d="M96.6484 35.24C98.9584 35.13 101.268 34.99 103.578 34.85L118.418 34L117.648 34.22" stroke="#333333" stroke-linecap="round" stroke-linejoin="round"/>
<path d="M89.2383 42.78C97.9583 42.2467 106.688 42.0067 115.428 42.06" stroke="#333333" stroke-linecap="round" stroke-linejoin="round"/>
<path d="M94.6719 48.92C101.172 49.0666 107.679 49.0933 114.192 49" stroke="#333333" stroke-linecap="round" stroke-linejoin="round"/>
<path d="M89.9414 59.47C96.6214 60.06 103.341 58.38 110.011 59" stroke="#333333" stroke-linecap="round" stroke-linejoin="round"/>
<path d="M94.9219 66.61C100.762 66.3167 106.609 66.2234 112.462 66.33" stroke="#333333" stroke-linecap="round" stroke-linejoin="round"/>
<path d="M89 74.55C97.56 74.05 106.127 73.78 114.7 73.74" stroke="#333333" stroke-linecap="round" stroke-linejoin="round"/>
<path d="M106.281 80.9H115.181" stroke="#333333" stroke-linecap="round" stroke-linejoin="round"/>
<path d="M93.6797 89.6L118.39 89.32" stroke="#333333" stroke-linecap="round" stroke-linejoin="round"/>
<path d="M96.3984 98.18C102.855 98.1195 109.293 97.4904 115.638 96.3" stroke="#333333" stroke-linecap="round" stroke-linejoin="round"/>
<path d="M101.09 106.48H118.15" stroke="#333333" stroke-linecap="round" stroke-linejoin="round"/>
<path d="M104.559 113.29L116.419 112.8" stroke="#333333" stroke-linecap="round" stroke-linejoin="round"/>
<path d="M108.512 120.48L116.662 120.19" stroke="#333333" stroke-linecap="round" stroke-linejoin="round"/>
<path d="M111.469 126.62C112.973 126.52 114.463 126.272 115.919 125.88" stroke="#333333" stroke-linecap="round" stroke-linejoin="round"/>
<path d="M155.151 86.11C155.116 85.9994 155.116 85.8806 155.151 85.77C155.172 85.6911 155.209 85.6172 155.258 85.5524C155.308 85.4875 155.37 85.4331 155.44 85.3923C155.511 85.3514 155.589 85.3248 155.67 85.3142C155.75 85.3035 155.833 85.3089 155.911 85.33L158.281 85.96C158.441 86.0044 158.577 86.1103 158.66 86.2545C158.742 86.3987 158.764 86.5696 158.721 86.73C158.697 86.821 158.649 86.9039 158.581 86.97L158.481 87.07C158.131 87.32 156.931 88.13 156.931 88.13C156.856 88.1855 156.77 88.2233 156.678 88.2407C156.586 88.258 156.492 88.2543 156.401 88.23C156.307 88.2071 156.219 88.1615 156.146 88.097C156.072 88.0325 156.016 87.9512 155.981 87.86L155.181 86.17C155.132 86.0344 155.132 85.8856 155.181 85.75C155.202 85.6711 155.239 85.5972 155.288 85.5324C155.338 85.4675 155.4 85.4131 155.47 85.3723C155.541 85.3314 155.619 85.3048 155.7 85.2942C155.78 85.2835 155.863 85.2889 155.941 85.31L158.311 85.94C158.471 85.9844 158.607 86.0903 158.69 86.2345C158.772 86.3787 158.794 86.5496 158.751 86.71C158.711 86.8466 158.627 86.966 158.511 87.05" fill="#F7B916"/>
<path d="M170.73 92.5L167.45 88.09C166.867 87.2393 165.997 86.6256 165 86.36C164.674 86.2727 164.338 86.2257 164 86.22C163.663 85.6737 163.13 85.2767 162.51 85.11L152.7 82.48C152.379 82.3934 152.044 82.3718 151.714 82.4165C151.385 82.4611 151.067 82.5711 150.78 82.74C150.43 82.5222 150.049 82.3571 149.65 82.25C148.649 81.9856 147.586 82.0848 146.65 82.53L141.65 84.7C141.516 84.7593 141.41 84.8691 141.356 85.0057C141.302 85.1422 141.303 85.2946 141.36 85.43C141.393 85.5064 141.443 85.5746 141.505 85.6299C141.567 85.6852 141.641 85.7262 141.72 85.75C141.837 85.7896 141.964 85.7896 142.08 85.75L147.08 83.57C147.782 83.2374 148.579 83.163 149.33 83.36C149.529 83.4185 149.723 83.492 149.91 83.58C149.759 83.8023 149.647 84.0493 149.58 84.31L147.82 91C147.734 91.3211 147.712 91.656 147.756 91.9856C147.799 92.3153 147.907 92.6331 148.073 92.921C148.239 93.2089 148.461 93.4612 148.724 93.6635C148.988 93.8658 149.289 94.0141 149.61 94.1L159.41 96.73C160.059 96.9013 160.749 96.8093 161.329 96.4739C161.91 96.1386 162.335 95.5872 162.51 94.94L164.31 88.21C164.386 87.9334 164.413 87.6458 164.39 87.36L164.71 87.43C165.463 87.6268 166.118 88.0929 166.55 88.74L169.83 93.15C169.905 93.2485 170.011 93.319 170.13 93.35C170.21 93.3755 170.295 93.3806 170.377 93.3649C170.459 93.3492 170.536 93.3131 170.6 93.26C170.717 93.1757 170.797 93.0488 170.821 92.9066C170.845 92.7645 170.813 92.6184 170.73 92.5ZM162.24 86.18C162.434 86.231 162.615 86.3231 162.77 86.45L157.05 89H157C156.756 89.1131 156.481 89.1378 156.22 89.07C155.949 88.9969 155.714 88.826 155.56 88.59L151.82 83.59C152.034 83.5401 152.257 83.5401 152.47 83.59L162.24 86.18ZM161.44 94.65C161.342 95.0132 161.104 95.3226 160.777 95.5101C160.451 95.6976 160.064 95.7479 159.7 95.65L149.9 93C149.537 92.9017 149.228 92.6632 149.04 92.3369C148.853 92.0107 148.803 91.6234 148.9 91.26L150.71 84.53C150.748 84.3845 150.809 84.246 150.89 84.12L154.64 89.18C154.946 89.6384 155.408 89.969 155.941 90.1091C156.474 90.2491 157.039 90.189 157.53 89.94L163.29 87.4C163.32 87.562 163.32 87.728 163.29 87.89L161.44 94.65Z" fill="white"/>
<path d="M146.68 85.12L143.33 86.57C143.196 86.6273 143.09 86.7352 143.036 86.8701C142.982 87.0051 142.983 87.156 143.04 87.29C143.075 87.3667 143.126 87.435 143.19 87.4902C143.254 87.5454 143.329 87.5862 143.41 87.61C143.526 87.6489 143.653 87.6489 143.77 87.61L147.12 86.16C147.253 86.1027 147.359 85.9948 147.413 85.8599C147.468 85.725 147.466 85.574 147.41 85.44C147.383 85.3708 147.343 85.3075 147.292 85.2538C147.241 85.2002 147.179 85.1572 147.111 85.1274C147.044 85.0977 146.97 85.0817 146.896 85.0804C146.822 85.0791 146.748 85.0926 146.68 85.12Z" fill="white"/>
<path d="M145.83 88L144.97 88.37C144.837 88.4273 144.731 88.5352 144.677 88.6701C144.622 88.8051 144.624 88.956 144.68 89.09C144.712 89.1687 144.763 89.2387 144.827 89.2943C144.891 89.3499 144.968 89.3896 145.05 89.41C145.167 89.4489 145.293 89.4489 145.41 89.41L146.27 89.04C146.344 89.0172 146.413 88.979 146.471 88.9278C146.53 88.8767 146.577 88.8137 146.609 88.7431C146.641 88.6725 146.658 88.5959 146.659 88.5183C146.659 88.4407 146.644 88.3638 146.612 88.2927C146.581 88.2217 146.535 88.158 146.477 88.106C146.42 88.054 146.352 88.0147 146.278 87.9909C146.204 87.967 146.126 87.959 146.049 87.9675C145.972 87.976 145.897 88.0007 145.83 88.04V88Z" fill="white"/>
<path d="M166.11 90.38L168.27 93.38C168.313 93.4384 168.343 93.5047 168.361 93.575C168.378 93.6454 168.381 93.7184 168.37 93.7899C168.359 93.8615 168.333 93.9301 168.296 93.9919C168.258 94.0537 168.208 94.1074 168.15 94.15C168.084 94.2001 168.007 94.2343 167.925 94.2499C167.844 94.2655 167.76 94.2621 167.68 94.24C167.556 94.2114 167.449 94.1362 167.38 94.03L165.22 91.03C165.136 90.9112 165.101 90.7644 165.124 90.6207C165.146 90.477 165.224 90.3477 165.34 90.26C165.398 90.2172 165.464 90.1864 165.535 90.1692C165.605 90.1521 165.678 90.149 165.75 90.1601C165.821 90.1713 165.89 90.1964 165.952 90.2342C166.013 90.2719 166.067 90.3215 166.11 90.38Z" fill="white"/>
<path d="M165.379 93.38L165.939 94.13C166.026 94.2495 166.062 94.3986 166.04 94.5447C166.017 94.6908 165.938 94.8221 165.819 94.91C165.752 94.9591 165.675 94.9919 165.593 95.0058C165.512 95.0197 165.428 95.0143 165.349 94.99C165.228 94.9612 165.122 94.8903 165.049 94.79L164.489 94.03C164.403 93.912 164.367 93.7645 164.389 93.6201C164.412 93.4757 164.491 93.3462 164.609 93.26C164.727 93.1738 164.874 93.138 165.019 93.1605C165.163 93.183 165.293 93.262 165.379 93.38Z" fill="white"/>
<path d="M227.328 147.55C228.277 147.501 229.172 147.089 229.826 146.399C230.481 145.71 230.846 144.796 230.846 143.845C230.846 142.894 230.481 141.98 229.826 141.291C229.172 140.601 228.277 140.189 227.328 140.14" stroke="#F7B916" stroke-linecap="round" stroke-linejoin="round"/>
<path d="M219.338 21.47C218.39 21.5317 217.483 21.8805 216.738 22.47C216.249 21.977 215.624 21.6406 214.942 21.5032C214.261 21.3657 213.555 21.4336 212.912 21.6981C212.27 21.9626 211.72 22.4119 211.333 22.989C210.946 23.5661 210.739 24.2451 210.738 24.94C210.821 25.862 211.168 26.7404 211.738 27.47L215.668 32.37C215.77 32.49 215.896 32.5864 216.038 32.6526C216.181 32.7187 216.336 32.753 216.493 32.753C216.65 32.753 216.806 32.7187 216.948 32.6526C217.091 32.5864 217.217 32.49 217.318 32.37L221.318 27.89C222.111 27.0693 222.626 26.0196 222.788 24.89C222.765 23.985 222.393 23.124 221.751 22.4867C221.108 21.8494 220.243 21.4852 219.338 21.47V21.47Z" stroke="#EF5337" stroke-miterlimit="10"/>
</g>
<defs>
<clipPath id="clip0">
<rect width="261.58" height="148.14" fill="white"/>
</clipPath>
</defs>
</svg>
