<svg width="67" height="67" viewBox="0 0 67 67" fill="none" xmlns="http://www.w3.org/2000/svg">
<g clip-path="url(#clip0)">
<path d="M67 31.1C65.6 31.5 64.9 33 64 34.2C60.3 39.2 53.3 42.5 45.9 42.9C42.7 43.1 39.4 42.7 36.2 42.6C28 42.5 20 45 13.9 49.3C7.7 53.6 0.5 61.4 0 67H67V31.1Z" fill="#F7B916"/>
<path d="M47.8992 46.2999H20.1992C18.5992 46.2999 17.1992 44.9999 17.1992 43.2999V23.7C17.1992 22 18.5992 20.7 20.1992 20.7H47.8992C49.5992 20.7 50.8992 22 50.8992 23.7V43.2C50.8992 44.9 49.5992 46.2999 47.8992 46.2999Z" stroke="#1062AA" stroke-width="2" stroke-miterlimit="10" stroke-linecap="round" stroke-linejoin="round"/>
<path d="M17.1992 27.7L31.3992 32.5999C33.0992 33.1999 34.9992 33.1999 36.7992 32.5999L50.9992 27.7" stroke="#1062AA" stroke-width="2" stroke-miterlimit="10" stroke-linecap="round" stroke-linejoin="round"/>
<path d="M38.901 39.3H28.501C25.301 39.3 25.201 36.9 26.501 35L31.401 27.1C32.501 25.3 35.101 25.4 36.101 27.1L41.001 35C42.301 37 42.101 39.3 38.901 39.3Z" fill="#F7B916"/>
<path d="M33.7 34.1C33.3 34.1 33 33.8 33 33.4V28.8C33 28.4 33.3 28.1 33.7 28.1C34.1 28.1 34.4 28.4 34.4 28.8V33.4C34.4 33.8 34.1 34.1 33.7 34.1Z" fill="#1062AA"/>
<path d="M33.6992 37.5C34.2515 37.5 34.6992 37.0523 34.6992 36.5C34.6992 35.9477 34.2515 35.5 33.6992 35.5C33.1469 35.5 32.6992 35.9477 32.6992 36.5C32.6992 37.0523 33.1469 37.5 33.6992 37.5Z" fill="#1062AA"/>
<path d="M6.30078 7.5L11.7008 12.9" stroke="#1062AA" stroke-width="2" stroke-miterlimit="10" stroke-linecap="round" stroke-linejoin="round"/>
<path d="M11.7008 7.5L6.30078 12.9" stroke="#1062AA" stroke-width="2" stroke-miterlimit="10" stroke-linecap="round" stroke-linejoin="round"/>
<path d="M52 54.2L59.3 56.2" stroke="#1062AA" stroke-width="2" stroke-miterlimit="10" stroke-linecap="round" stroke-linejoin="round"/>
<path d="M56.7016 51.6L54.6016 58.8" stroke="#1062AA" stroke-width="2" stroke-miterlimit="10" stroke-linecap="round" stroke-linejoin="round"/>
<path d="M60.6992 11.3L65.1992 17.3" stroke="#1062AA" stroke-width="2" stroke-miterlimit="10" stroke-linecap="round" stroke-linejoin="round"/>
<path d="M66 12L60 16.6" stroke="#1062AA" stroke-width="2" stroke-miterlimit="10" stroke-linecap="round" stroke-linejoin="round"/>
<path d="M48.2987 66.4C48.3987 63.3 45.6987 60.7 42.7987 59.7C39.8987 58.7 36.6987 59 33.5987 59.1C28.7987 59.3 23.8987 59.1 19.3987 57.6C14.8987 56.1 10.5987 53.3 8.19867 49.1C6.59867 46.4 5.89867 43.2 5.59867 40.1C5.29867 36.8 5.29867 33.4 6.09867 30.2C7.49867 24.3 11.2987 19 16.4987 15.8C21.6987 12.6 28.0987 11.5 33.9987 13C37.0987 13.8 40.0987 15.2 43.2987 15.2C47.8987 15.2 53.6987 10.8 53.8987 3.90002" stroke="#81859C" stroke-miterlimit="10" stroke-linecap="round" stroke-linejoin="round" stroke-dasharray="3 3"/>
<path d="M50.6016 5L54.4016 0.5L56.4016 5.5" stroke="#81859C" stroke-miterlimit="10" stroke-linecap="round" stroke-linejoin="round"/>
</g>
<defs>
<clipPath id="clip0">
<rect width="67" height="67" fill="white"/>
</clipPath>
</defs>
</svg>
