<svg width="68" height="67" viewBox="0 0 68 67" fill="none" xmlns="http://www.w3.org/2000/svg">
<g clip-path="url(#clip0)">
<path d="M67.3 51.4C58.2 50.6 49.8 44.4 46.3 36C45.1 33.1 44.4 30 42.9 27.2C41.7 25.1 40.1 23.3 38.4 21.6C36.6 19.9 34.6 18.3 32.3 17.6C30 16.9 27.6 17.1 25.3 17.4C20.6 18.1 15.9 19.4 12.1 22.1C8.3 24.8 5.6 28.8 3.7 33.1C1.8 37.4 0.8 42.3 0 46.9L0.2 67H67.2L67.3 51.4Z" fill="#F7B916"/>
<path d="M10.6999 32.2C9.19986 32.2 7.69986 31.3 6.99986 29.8L0.499859 15C-0.400141 13 0.499859 10.6 2.59986 9.7L23.9999 0.300002C24.9999 -0.0999981 26.0999 -0.199998 27.0999 0.200002C28.0999 0.600002 28.8999 1.3 29.2999 2.3L35.7999 17.1C36.6999 19.1 35.7999 21.5 33.6999 22.4L12.2999 31.8C11.7999 32.1 11.2999 32.2 10.6999 32.2ZM25.5999 2C25.2999 2 25.0999 2.1 24.7999 2.2L3.39986 11.6C2.39986 12 1.89986 13.2 2.39986 14.2L8.89986 29C9.29986 30 10.4999 30.5 11.4999 30L32.8999 20.6C33.8999 20.2 34.3999 19 33.8999 18L27.3999 3.2C27.1999 2.7 26.7999 2.3 26.2999 2.1C26.0999 2 25.7999 2 25.5999 2Z" fill="#1062AA"/>
<path d="M2.69922 18.4C2.19922 18.4 1.69922 18 1.69922 17.5C1.69922 17 2.09922 16.5 2.59922 16.4L15.5992 15.3C16.9992 15.2 18.2992 14.6 19.2992 13.7L28.8992 4.8C29.2992 4.4 29.8992 4.4 30.2992 4.9C30.6992 5.3 30.6992 5.9 30.1992 6.3L20.5992 15.2C19.2992 16.4 17.4992 17.2 15.6992 17.3L2.69922 18.4Z" fill="#1062AA"/>
<path d="M58.6006 22.4C57.9006 22.4 57.2006 22.2 56.5006 21.8L45.1006 14.8C44.2006 14.2 43.6006 13.4 43.3006 12.3C43.1006 11.3 43.2006 10.2 43.8006 9.3L48.3006 1.9C48.9006 1 49.7006 0.400002 50.8006 0.100002C51.8006 -0.0999982 52.9006 1.78814e-06 53.8006 0.600002L65.2006 7.6C66.1006 8.2 66.7006 9 67.0006 10.1C67.2006 11.1 67.1006 12.2 66.5006 13.1L62.0006 20.5C61.4006 21.4 60.6006 22 59.5006 22.3C59.2006 22.4 58.9006 22.4 58.6006 22.4ZM51.8006 2C51.6006 2 51.5006 2 51.3006 2.1C50.8006 2.2 50.3006 2.5 50.1006 3L45.6006 10.4C45.3006 10.9 45.2006 11.4 45.4006 11.9C45.5006 12.4 45.8006 12.9 46.3006 13.1L57.7006 20.1C58.2006 20.4 58.7006 20.5 59.2006 20.3C59.7006 20.2 60.2006 19.9 60.4006 19.4L64.9006 12C65.2006 11.5 65.3006 11 65.1006 10.5C65.0006 10 64.7006 9.5 64.2006 9.3L52.8006 2.3C52.5006 2.1 52.1006 2 51.8006 2Z" fill="#1062AA"/>
<path d="M65.1992 14.4C65.0992 14.4 65.0992 14.4 64.9992 14.4L56.5992 12.5C55.3992 12.2 54.1992 11.5 53.3992 10.5L47.8992 3.9C47.4992 3.5 47.5992 2.8 47.9992 2.5C48.3992 2.2 49.0992 2.2 49.3992 2.6L54.8992 9.2C55.3992 9.8 56.1992 10.3 56.9992 10.5L65.3992 12.4C65.8992 12.5 66.2992 13.1 66.1992 13.6C66.0992 14.1 65.5992 14.4 65.1992 14.4Z" fill="#1062AA"/>
<path d="M53.5 35.4C53.1 36 52.5 36.5 51.8 36.8L39.6 42.2C38.6 42.6 37.5 42.7 36.5 42.3C35.5 41.9 34.7 41.2 34.3 40.2L30.8 32.3C30.4 31.3 30.3 30.2 30.7 29.2C31.1 28.2 31.8 27.4 32.8 27L45 21.6C46 21.2 47.1 21.1 48.1 21.5C49.1 21.9 49.9 22.6 50.3 23.6L53.8 31.5C54.2 32.5 54.3 33.6 53.9 34.6C53.8 34.9 53.7 35.1 53.5 35.4ZM32.9 29.4C32.8 29.5 32.7 29.7 32.7 29.8C32.5 30.3 32.5 30.8 32.7 31.3L36.2 39.2C36.4 39.7 36.8 40.1 37.3 40.3C37.8 40.5 38.3 40.5 38.8 40.3L51 34.9C51.5 34.7 51.9 34.3 52.1 33.8C52.3 33.3 52.3 32.8 52.1 32.3L48.6 24.4C48.4 23.9 48 23.5 47.5 23.3C47 23.1 46.5 23.1 46 23.3L33.8 28.7C33.4 28.9 33.1 29.1 32.9 29.4Z" fill="#1062AA"/>
<path d="M50.6992 25.5C50.6992 25.6 50.5992 25.6 50.5992 25.7L44.2992 31.5C43.3992 32.4 42.0992 32.9 40.8992 33L32.2992 33.7C31.6992 33.7 31.2992 33.3 31.1992 32.8C31.1992 32.3 31.5992 31.8 32.0992 31.7L40.6992 31C41.4992 30.9 42.2992 30.6 42.8992 30L49.1992 24.2C49.5992 23.8 50.1992 23.8 50.5992 24.3C50.8992 24.6 50.9992 25.1 50.6992 25.5Z" fill="#1062AA"/>
<path d="M49.0008 54H18.3008C17.7008 54 17.3008 53.5 17.3008 53V49.1C17.3008 48.5 17.7008 48.1 18.3008 48.1H49.0008C49.6008 48.1 50.0008 48.5 50.0008 49.1V53C50.0008 53.6 49.6008 54 49.0008 54Z" stroke="#1062AA" stroke-width="2" stroke-miterlimit="10" stroke-linecap="round" stroke-linejoin="round"/>
<path d="M19.8984 54V57.6L33.6984 66L47.6984 57.9V54" stroke="#1062AA" stroke-width="2" stroke-miterlimit="10" stroke-linecap="round" stroke-linejoin="round"/>
</g>
<defs>
<clipPath id="clip0">
<rect width="67.3" height="67" fill="white"/>
</clipPath>
</defs>
</svg>
