<svg width="67" height="67" viewBox="0 0 67 67" fill="none" xmlns="http://www.w3.org/2000/svg">
<g clip-path="url(#clip0)">
<path d="M35.8008 66.9C53.0008 66.9 67.0008 53 67.0008 35.8H35.8008V66.9Z" fill="#F7B916"/>
<path d="M31.2 0C14 0 0 14 0 31.2C0 48.4 14 62.4 31.2 62.4V31.2H62.4C62.4 14 48.4 0 31.2 0Z" fill="#F7B916"/>
<path d="M56.0005 56.6C51.7005 56.6 47.7005 59.3 46.2005 63.4C45.7005 64.7 45.9005 65.2 46.1005 65.5C46.4005 66 47.2005 66 47.2005 66H64.6005C64.6005 66 65.3005 66 65.7005 65.5C65.9005 65.2 66.1005 64.2 65.7005 63.2C64.1005 59.2 60.3005 56.6 56.0005 56.6Z" stroke="#1062AA" stroke-width="2" stroke-miterlimit="10" stroke-linecap="round" stroke-linejoin="round"/>
<path d="M56.0016 46.7C53.3016 46.7 51.1016 48.9 51.1016 51.6C51.1016 54.3 53.3016 56.5 56.0016 56.5C58.7016 56.5 60.9016 54.3 60.9016 51.6C60.9016 48.9 58.7016 46.7 56.0016 46.7Z" stroke="#1062AA" stroke-width="2" stroke-miterlimit="10" stroke-linecap="round" stroke-linejoin="round"/>
<path d="M11.0982 56.6C6.79818 56.6 2.79818 59.3 1.29818 63.4C0.798184 64.7 0.998184 65.2 1.19818 65.5C1.59818 65.9 2.29818 66 2.39818 66H19.7982C19.7982 66 20.4982 66 20.8982 65.5C21.0982 65.2 21.2982 64.2 20.8982 63.2C19.1982 59.2 15.3982 56.6 11.0982 56.6Z" stroke="#1062AA" stroke-width="2" stroke-miterlimit="10" stroke-linecap="round" stroke-linejoin="round"/>
<path d="M11.0992 46.7C8.39922 46.7 6.19922 48.9 6.19922 51.6C6.19922 54.3 8.39922 56.5 11.0992 56.5C13.7992 56.5 15.9992 54.3 15.9992 51.6C15.9992 48.9 13.7992 46.7 11.0992 46.7Z" stroke="#1062AA" stroke-width="2" stroke-miterlimit="10" stroke-linecap="round" stroke-linejoin="round"/>
<path d="M56.0005 10.9C51.7005 10.9 47.7005 13.6 46.2005 17.7C45.7005 19 45.9005 19.5 46.1005 19.8C46.4005 20.3 47.2005 20.3 47.2005 20.3H64.6005C64.6005 20.3 65.3005 20.3 65.7005 19.8C65.9005 19.5 66.1005 18.5 65.7005 17.5C64.1005 13.5 60.3005 10.9 56.0005 10.9Z" stroke="#1062AA" stroke-width="2" stroke-miterlimit="10" stroke-linecap="round" stroke-linejoin="round"/>
<path d="M56 1C53.2 1 51 3.2 51 6C51 8.8 53.2 10.9 55.9 10.9C58.6 10.9 60.8 8.7 60.8 6C60.8 3.3 58.7 1 56 1Z" stroke="#1062AA" stroke-width="2" stroke-miterlimit="10" stroke-linecap="round" stroke-linejoin="round"/>
<path d="M11.0982 10.9C6.79818 10.9 2.79818 13.6 1.29818 17.7C0.798184 19 0.998184 19.5 1.19818 19.8C1.49818 20.3 2.29818 20.3 2.29818 20.3H19.6982C19.6982 20.3 20.3982 20.3 20.7982 19.8C20.9982 19.5 21.1982 18.5 20.7982 17.5C19.1982 13.5 15.3982 10.9 11.0982 10.9Z" stroke="#1062AA" stroke-width="2" stroke-miterlimit="10" stroke-linecap="round" stroke-linejoin="round"/>
<path d="M11.0992 1C8.39922 1 6.19922 3.2 6.19922 6C6.19922 8.8 8.39922 10.9 11.0992 10.9C13.7992 10.9 15.9992 8.7 15.9992 6C15.9992 3.3 13.7992 1 11.0992 1Z" stroke="#1062AA" stroke-width="2" stroke-miterlimit="10" stroke-linecap="round" stroke-linejoin="round"/>
<path d="M33.5005 33.7C29.2005 33.7 25.2005 36.4 23.7005 40.5C23.2005 41.8 23.4005 42.3 23.6005 42.6C23.9005 43.1 24.7005 43.1 24.7005 43.1H42.1005C42.1005 43.1 42.8005 43.1 43.2005 42.6C43.4005 42.3 43.6005 41.3 43.2005 40.3C41.6005 36.3 37.8005 33.7 33.5005 33.7Z" stroke="#1062AA" stroke-width="2" stroke-miterlimit="10" stroke-linecap="round" stroke-linejoin="round"/>
<path d="M33.5016 23.9C30.8016 23.9 28.6016 26.1 28.6016 28.8C28.6016 31.5 30.8016 33.7 33.5016 33.7C36.2016 33.7 38.4016 31.5 38.4016 28.8C38.4016 26.1 36.2016 23.9 33.5016 23.9Z" stroke="#1062AA" stroke-width="2" stroke-miterlimit="10" stroke-linecap="round" stroke-linejoin="round"/>
</g>
<defs>
<clipPath id="clip0">
<rect width="67" height="67" fill="white"/>
</clipPath>
</defs>
</svg>
