<svg width="67" height="67" viewBox="0 0 67 67" fill="none" xmlns="http://www.w3.org/2000/svg">
<g clip-path="url(#clip0)">
<path d="M44.2 45.6C44.2 52.4 42.1 57.6 37.9 61.4C33.7 65.1 28.4 67 22.1 67C15.8 67 10.6 65.1 6.3 61.4C2.1 57.7 0 52.4 0 45.6C0 41.2 1.9 35.2 5.8 27.4L19.1 0H35.9L22.8 26C23.7 25.7 24.9 25.5 26.5 25.5C31 25.5 35.1 27.3 38.7 30.9C42.4 34.6 44.2 39.5 44.2 45.6ZM27 51.2C28.3 49.9 29 48 29 45.6C29 43.2 28.3 41.4 27 40C25.7 38.7 24.1 38 22.1 38C20.2 38 18.6 38.7 17.2 40C15.9 41.3 15.2 43.2 15.2 45.6C15.2 48 15.9 49.8 17.2 51.2C18.5 52.5 20.1 53.2 22.1 53.2C24 53.2 25.7 52.5 27 51.2Z" fill="#F7B916"/>
<path d="M37.8008 6.80002C37.5008 6.80002 37.3008 6.60002 37.3008 6.30002C37.3008 6.00002 37.5008 5.80002 37.8008 5.80002L42.2008 5.60002L39.4008 2.30002C39.2008 2.10002 39.2008 1.80002 39.5008 1.60002C39.7008 1.40002 40.0008 1.40002 40.2008 1.70002L43.7008 5.70002C43.8008 5.80002 43.9008 6.00002 43.8008 6.20002C43.7008 6.40002 43.6008 6.50002 43.4008 6.50002L37.8008 6.80002Z" fill="#81859C"/>
<path d="M49.7992 67H17.1992C14.9992 67 13.1992 65.2 13.1992 63V39.7C13.1992 37.5 14.9992 35.7 17.1992 35.7H49.8992C52.0992 35.7 53.8992 37.5 53.8992 39.7V63C53.7992 65.2 51.9992 67 49.7992 67ZM17.1992 37.7C16.0992 37.7 15.1992 38.6 15.1992 39.7V63C15.1992 64.1 16.0992 65 17.1992 65H49.8992C50.9992 65 51.8992 64.1 51.8992 63V39.7C51.8992 38.6 50.9992 37.7 49.8992 37.7H17.1992Z" fill="#1062AA"/>
<path d="M33.5009 51.8C32.3009 51.8 31.2009 51.6 30.1009 51.2L13.9009 45.6C13.4009 45.4 13.1009 44.8 13.3009 44.3C13.5009 43.8 14.0009 43.5 14.6009 43.7L30.8009 49.3C32.6009 49.9 34.5009 49.9 36.3009 49.3L52.5009 43.7C53.0009 43.5 53.6009 43.8 53.8009 44.3C54.0009 44.8 53.7009 45.4 53.2009 45.6L37.0009 51.2C35.8009 51.6 34.7009 51.8 33.5009 51.8Z" fill="#1062AA"/>
<path d="M10.4983 32.2C8.9983 32.2 7.4983 31.3 6.7983 29.8L0.398296 15C-0.501704 13 0.398296 10.6 2.4983 9.70001L23.8983 0.300013C24.8983 -0.0999867 25.9983 -0.199987 26.9983 0.200013C27.9983 0.600013 28.7983 1.30001 29.1983 2.30001L35.6983 17.1C36.5983 19.1 35.6983 21.5 33.5983 22.4L12.1983 31.8C11.5983 32.1 11.0983 32.2 10.4983 32.2ZM25.3983 2.00001C25.0983 2.00001 24.8983 2.10001 24.5983 2.20001L3.1983 11.6C2.1983 12 1.6983 13.2 2.1983 14.2L8.6983 29C9.0983 30 10.2983 30.5 11.2983 30L32.6983 20.6C33.6983 20.2 34.1983 19 33.6983 18L27.1983 3.20001C26.9983 2.70001 26.5983 2.30001 26.0983 2.10001C25.8983 2.10001 25.5983 2.00001 25.3983 2.00001Z" fill="#1062AA"/>
<path d="M2.5 18.4C2 18.4 1.5 18 1.5 17.5C1.5 17 1.9 16.5 2.4 16.4L15.4 15.3C16.8 15.2 18.1 14.6 19.1 13.7L28.7 4.80002C29.1 4.40002 29.7 4.40002 30.1 4.90002C30.5 5.30002 30.5 5.90002 30 6.30002L20.4 15.2C19.1 16.4 17.3 17.2 15.5 17.3L2.5 18.4Z" fill="#1062AA"/>
<path d="M58.4014 22.4C57.7014 22.4 57.0014 22.2 56.3014 21.8L44.9014 14.8C44.0014 14.2 43.4014 13.4 43.1014 12.3C42.9014 11.3 43.0014 10.2 43.6014 9.29999L48.2014 1.99999C48.8014 1.09999 49.6014 0.499993 50.7014 0.199993C51.7014 -7.39098e-06 52.8014 0.0999926 53.7014 0.699993L65.1014 7.69999C66.0014 8.29999 66.6014 9.09999 66.9014 10.2C67.1014 11.2 67.0014 12.3 66.4014 13.2L61.9014 20.6C61.3014 21.5 60.5014 22.1 59.4014 22.4C59.0014 22.4 58.7014 22.4 58.4014 22.4ZM51.6014 2.09999C51.4014 2.09999 51.3014 2.09999 51.1014 2.19999C50.6014 2.29999 50.1014 2.59999 49.9014 3.09999L45.4014 10.5C45.1014 11 45.0014 11.5 45.2014 12C45.3014 12.5 45.6014 13 46.1014 13.2L57.5014 20.2C58.0014 20.5 58.5014 20.6 59.0014 20.4C59.5014 20.3 60.0014 20 60.2014 19.5L64.7014 12.1C65.0014 11.6 65.1014 11.1 64.9014 10.6C64.8014 10.1 64.5014 9.59999 64.0014 9.39999L52.6014 2.39999C52.3014 2.19999 52.0014 2.09999 51.6014 2.09999Z" fill="#1062AA"/>
<path d="M65 14.5C64.9 14.5 64.9 14.5 64.8 14.5L56.4 12.6C55.2 12.3 54 11.6 53.2 10.6L47.7 4.00001C47.3 3.60001 47.4 2.90001 47.8 2.60001C48.2 2.30001 48.9 2.30001 49.2 2.70001L54.7 9.30001C55.2 9.90001 56 10.4 56.8 10.6L65.1999 12.5C65.6999 12.6 66.1 13.2 66 13.7C65.9 14.1 65.5 14.5 65 14.5Z" fill="#1062AA"/>
<path d="M56.1984 52.9C55.8984 52.9 55.6984 52.7 55.6984 52.4C55.6984 52.1 55.8984 51.9 56.1984 51.9C57.0984 51.9 57.9984 51.6 58.8984 51.3C59.1984 51.2 59.3984 51.3 59.5984 51.6C59.6984 51.9 59.5984 52.1 59.2984 52.3C58.2984 52.6 57.2984 52.8 56.1984 52.9ZM61.6984 50.6C61.5984 50.6 61.3984 50.5 61.2984 50.4C61.0984 50.2 61.1984 49.9 61.3984 49.7C62.0984 49.1 62.7984 48.4 63.2984 47.6C63.4984 47.4 63.7984 47.3 63.9984 47.5C64.1984 47.7 64.2984 48 64.0984 48.2C63.4984 49.1 62.7984 49.8 61.9984 50.5C61.8984 50.6 61.7984 50.6 61.6984 50.6ZM65.0984 45.8C64.9984 45.8 64.9984 45.8 64.8984 45.8C64.5984 45.7 64.4984 45.4 64.5984 45.2C64.8984 44.3 65.1984 43.4 65.2984 42.4C65.2984 42.1 65.5984 41.9 65.8984 42C66.1984 42 66.3984 42.3 66.2984 42.6C66.0984 43.7 65.8984 44.7 65.4984 45.6C65.4984 45.7 65.2984 45.8 65.0984 45.8ZM66.0984 39.9C65.7984 39.9 65.5984 39.7 65.5984 39.4C65.5984 38.8 65.5984 38.2 65.4984 37.7C65.4984 37.3 65.3984 36.9 65.3984 36.5C65.3984 36.2 65.4984 36 65.7984 35.9C66.0984 35.9 66.2984 36 66.3984 36.3C66.4984 36.7 66.4984 37.1 66.4984 37.5C66.5984 38.1 66.5984 38.7 66.5984 39.3C66.5984 39.7 66.3984 39.9 66.0984 39.9ZM65.1984 34C64.9984 34 64.7984 33.9 64.6984 33.6C64.3984 32.7 63.9984 31.7 63.5984 30.9C63.4984 30.7 63.5984 30.4 63.7984 30.2C63.9984 30.1 64.2984 30.2 64.4984 30.4C64.8984 31.3 65.2984 32.3 65.5984 33.3C65.6984 33.6 65.4984 33.8 65.2984 33.9C65.2984 34 65.1984 34 65.1984 34ZM23.6984 31.6C22.5984 31.6 21.5984 31.4 20.5984 31.2C20.2984 31.1 20.1984 30.9 20.1984 30.6C20.2984 30.3 20.4984 30.2 20.7984 30.2C21.6984 30.4 22.6984 30.5 23.6984 30.6C23.9984 30.6 24.1984 30.8 24.1984 31.1C24.1984 31.4 23.9984 31.6 23.6984 31.6ZM26.6984 31.4C26.4984 31.4 26.1984 31.2 26.1984 31C26.1984 30.7 26.2984 30.5 26.5984 30.4C26.7984 30.4 26.8984 30.4 27.0984 30.3C27.8984 30.2 28.6984 30 29.4984 29.8C29.7984 29.7 29.9984 29.9 30.0984 30.1C30.1984 30.4 29.9984 30.6 29.7984 30.7C28.9984 30.9 28.0984 31.1 27.2984 31.3C27.0984 31.4 26.8984 31.4 26.6984 31.4C26.7984 31.4 26.6984 31.4 26.6984 31.4ZM17.8984 30.2C17.7984 30.2 17.7984 30.2 17.6984 30.2C16.6984 29.7 15.7984 29.2 15.0984 28.5C14.8984 28.3 14.8984 28 15.0984 27.8C15.2984 27.6 15.5984 27.6 15.7984 27.8C16.4984 28.4 17.2984 28.9 18.1984 29.4C18.3984 29.5 18.5984 29.8 18.3984 30.1C18.2984 30.1 18.0984 30.2 17.8984 30.2ZM32.4984 29.8C32.2984 29.8 32.0984 29.7 31.9984 29.5C31.8984 29.2 31.9984 29 32.2984 28.9C33.0984 28.6 33.9984 28.2 34.9984 27.7C35.2984 27.6 35.4984 27.7 35.6984 28C35.7984 28.3 35.6984 28.5 35.3984 28.7C34.2984 29.2 33.4984 29.5 32.5984 29.9C32.5984 29.8 32.4984 29.8 32.4984 29.8ZM62.4984 28.6C62.2984 28.6 62.1984 28.5 62.0984 28.4C61.4984 27.6 60.8984 26.9 60.0984 26.3C59.8984 26.1 59.8984 25.8 60.0984 25.6C60.2984 25.4 60.5984 25.4 60.7984 25.6C61.5984 26.3 62.2984 27 62.8984 27.9C63.0984 28.1 62.9984 28.4 62.7984 28.6C62.6984 28.6 62.5984 28.6 62.4984 28.6ZM37.9984 27.4C37.7984 27.4 37.5984 27.3 37.4984 27.1C37.3984 26.8 37.4984 26.6 37.6984 26.4C38.5984 26 39.4984 25.5 40.3984 25.1C40.6984 25 40.8984 25.1 41.0984 25.4C41.1984 25.7 41.0984 25.9 40.7984 26.1C39.8984 26.5 38.9984 26.9 38.0984 27.3C38.0984 27.4 37.9984 27.4 37.9984 27.4ZM13.4984 26.2C13.2984 26.2 13.1984 26.1 13.0984 25.9L12.9984 25.8C12.4984 24.9 12.1984 24 11.9984 23C11.8984 22.7 12.0984 22.5 12.3984 22.4C12.6984 22.3 12.8984 22.5 12.9984 22.8C13.1984 23.7 13.4984 24.5 13.8984 25.3L13.9984 25.5C14.0984 25.7 14.0984 26 13.7984 26.2C13.6984 26.2 13.5984 26.2 13.4984 26.2ZM43.4984 25C43.2984 25 43.0984 24.9 42.9984 24.7C42.8984 24.4 42.9984 24.2 43.2984 24.1C44.2984 23.7 45.2984 23.4 46.1984 23.2C46.4984 23.1 46.6984 23.3 46.7984 23.6C46.8984 23.9 46.6984 24.1 46.3984 24.2C45.4984 24.4 44.5984 24.7 43.5984 25.1C43.5984 25 43.4984 25 43.4984 25ZM57.9984 24.7C57.8984 24.7 57.7984 24.7 57.7984 24.6C57.4984 24.5 57.1984 24.3 56.8984 24.2C56.2984 24 55.6984 23.8 55.0984 23.6C54.7984 23.5 54.6984 23.3 54.6984 23C54.7984 22.7 54.9984 22.6 55.2984 22.6C55.9984 22.8 56.6984 23 57.2984 23.2C57.5984 23.3 57.8984 23.5 58.1984 23.6C58.3984 23.7 58.4984 24 58.3984 24.3C58.3984 24.6 58.1984 24.7 57.9984 24.7ZM49.2984 23.5C49.0984 23.5 48.7984 23.3 48.7984 23.1C48.7984 22.8 48.9984 22.6 49.1984 22.5C50.2984 22.4 51.2984 22.3 52.2984 22.3C52.5984 22.3 52.7984 22.5 52.7984 22.8C52.7984 23.1 52.5984 23.3 52.2984 23.3C51.2984 23.3 50.2984 23.3 49.2984 23.5ZM12.3984 20.5C12.0984 20.5 11.8984 20.2 11.8984 19.9C11.9984 18.9 12.1984 17.9 12.5984 16.9C12.6984 16.6 12.9984 16.5 13.1984 16.6C13.4984 16.7 13.5984 17 13.4984 17.2C13.1984 18.1 12.9984 19.1 12.8984 20C12.8984 20.3 12.6984 20.5 12.3984 20.5ZM14.3984 14.8C14.2984 14.8 14.1984 14.8 14.0984 14.7C13.8984 14.6 13.7984 14.2 13.8984 14C14.0984 13.7 14.1984 13.5 14.3984 13.2C14.7984 12.6 15.2984 12.1 15.7984 11.5C15.9984 11.3 16.2984 11.3 16.4984 11.5C16.6984 11.7 16.6984 12 16.4984 12.2C15.9984 12.7 15.5984 13.2 15.1984 13.8C14.9984 14 14.8984 14.3 14.6984 14.5C14.6984 14.8 14.5984 14.8 14.3984 14.8ZM18.4984 10.5C18.2984 10.5 18.1984 10.4 18.0984 10.3C17.9984 10.1 17.9984 9.80001 18.1984 9.60001C18.9984 9.10001 19.8984 8.50001 20.7984 8.00001C20.9984 7.90001 21.2984 7.90001 21.4984 8.20001C21.5984 8.40001 21.5984 8.70001 21.2984 8.90001C20.3984 9.40001 19.5984 9.90001 18.7984 10.5C18.6984 10.5 18.5984 10.5 18.4984 10.5ZM23.6984 7.50001C23.4984 7.50001 23.2984 7.40001 23.1984 7.20001C23.0984 6.90001 23.1984 6.70001 23.3984 6.50001C23.8984 6.30001 24.3984 6.10001 24.8984 5.90001C25.2984 5.70001 25.7984 5.50001 26.1984 5.40001C26.4984 5.30001 26.6984 5.40001 26.7984 5.70001C26.8984 6.00001 26.7984 6.20001 26.4984 6.30001C26.0984 6.50001 25.5984 6.60001 25.1984 6.80001C24.6984 7.00001 24.1984 7.20001 23.7984 7.40001C23.7984 7.50001 23.7984 7.50001 23.6984 7.50001ZM41.8984 6.00001C41.7984 6.00001 41.7984 6.00001 41.6984 6.00001C41.4984 5.90001 41.1984 5.80001 40.9984 5.70001C40.6984 5.60001 40.5984 5.30001 40.6984 5.00001C40.7984 4.70001 41.0984 4.60001 41.3984 4.70001C41.6984 4.80001 41.8984 4.90001 42.1984 5.10001C42.3984 5.20001 42.5984 5.50001 42.3984 5.80001C42.2984 5.90001 42.0984 6.00001 41.8984 6.00001ZM29.2984 5.50001C29.0984 5.50001 28.8984 5.40001 28.7984 5.10001C28.6984 4.80001 28.8984 4.60001 29.1984 4.50001C30.1984 4.20001 31.1984 4.00001 32.1984 3.90001C32.4984 3.90001 32.6984 4.00001 32.7984 4.30001C32.8984 4.60001 32.6984 4.80001 32.3984 4.90001C31.4984 5.00001 30.4984 5.20001 29.4984 5.50001C29.3984 5.50001 29.3984 5.50001 29.2984 5.50001ZM38.1984 4.90001C37.1984 4.70001 36.2984 4.70001 35.2984 4.70001H35.1984C34.8984 4.70001 34.6984 4.50001 34.6984 4.20001C34.6984 3.90001 34.8984 3.70001 35.1984 3.70001H35.2984C36.2984 3.70001 37.2984 3.80001 38.2984 4.00001C38.5984 4.00001 38.7984 4.30001 38.6984 4.60001C38.6984 4.70001 38.4984 4.90001 38.1984 4.90001Z" fill="#81859C"/>
</g>
<defs>
<clipPath id="clip0">
<rect width="66.9" height="67" fill="white"/>
</clipPath>
</defs>
</svg>
