<svg width="68" height="67" viewBox="0 0 68 67" fill="none" xmlns="http://www.w3.org/2000/svg">
<g clip-path="url(#clip0)">
<path d="M67.3 55.9C61.3 55.7 56.1 51.6 52.4 46.9C51.2 45.4 50.1 43.8 49.2 42.1C48.2 40.3 47.5 38.5 46.5 36.8C44.4 33 41.4 29.7 38.4 26.6C37.1 25.3 35.8 24 34.3 22.8C29.6 18.9 23.6 16.5 17.5 16.1C11.4 15.6 5.2 17.2 0 20.4L0.2 67H67.2L67.3 55.9Z" fill="#F7B916"/>
<path d="M45.3 27.7H22C20.4 27.7 19 26.3 19 24.7V8.5C19 6.9 20.4 5.5 22 5.5H45.2C46.8 5.5 48.2 6.8 48.2 8.5V24.6C48.3 26.3 46.9 27.7 45.3 27.7Z" stroke="#1062AA" stroke-width="2" stroke-miterlimit="10" stroke-linecap="round" stroke-linejoin="round"/>
<path d="M19 11.5L31.3 15.7C32.8 16.2 34.5 16.2 36 15.7L48.3 11.5" stroke="#1062AA" stroke-width="2" stroke-miterlimit="10" stroke-linecap="round" stroke-linejoin="round"/>
<path d="M63.0992 51.8H4.19922C2.49922 51.8 1.19922 50.4 1.19922 48.8V38.5C1.19922 36.8 2.59922 35.5 4.19922 35.5H63.0992C64.7992 35.5 66.0992 36.8 66.0992 38.5V48.8C66.0992 50.5 64.7992 51.8 63.0992 51.8Z" stroke="#1062AA" stroke-width="2" stroke-miterlimit="10" stroke-linecap="round" stroke-linejoin="round"/>
<path d="M54.3008 41.3C54.3008 42.4 53.4008 43.3 52.3008 43.3H41.8008C40.7008 43.3 39.8008 42.4 39.8008 41.3C39.8008 40.2 40.7008 39.3 41.8008 39.3H52.4008C53.4008 39.3 54.3008 40.2 54.3008 41.3Z" stroke="#1062AA" stroke-width="2" stroke-miterlimit="10" stroke-linecap="round" stroke-linejoin="round"/>
<path d="M13.8008 39.3H33.3008" stroke="#1062AA" stroke-width="2" stroke-miterlimit="10" stroke-linecap="round" stroke-linejoin="round"/>
<path d="M13.8008 48.1H33.3008" stroke="#1062AA" stroke-width="2" stroke-miterlimit="10" stroke-linecap="round" stroke-linejoin="round"/>
<path d="M13.8008 43.7H33.3008" stroke="#1062AA" stroke-width="2" stroke-miterlimit="10" stroke-linecap="round" stroke-linejoin="round"/>
<path d="M59.8984 39.3V48.1" stroke="#1062AA" stroke-width="2" stroke-miterlimit="10" stroke-linecap="round" stroke-linejoin="round"/>
<path d="M7.19922 39.3V48.1" stroke="#1062AA" stroke-width="2" stroke-miterlimit="10" stroke-linecap="round" stroke-linejoin="round"/>
<path d="M52.5016 49.1C53.2748 49.1 53.9016 48.4732 53.9016 47.7001C53.9016 46.9269 53.2748 46.3 52.5016 46.3C51.7284 46.3 51.1016 46.9269 51.1016 47.7001C51.1016 48.4732 51.7284 49.1 52.5016 49.1Z" fill="#1062AA"/>
<path d="M7.19922 32.2V0.699951" stroke="#81859C" stroke-miterlimit="10" stroke-linecap="round" stroke-linejoin="round" stroke-dasharray="3 3"/>
<path d="M3.5 4.9L7.2 0.5L10.7 4.9" stroke="#81859C" stroke-miterlimit="10" stroke-linecap="round" stroke-linejoin="round"/>
<path d="M60 32.2V0.699951" stroke="#81859C" stroke-miterlimit="10" stroke-linecap="round" stroke-linejoin="round" stroke-dasharray="3 3"/>
<path d="M56.3008 4.9L60.0008 0.5L63.4008 4.9" stroke="#81859C" stroke-miterlimit="10" stroke-linecap="round" stroke-linejoin="round"/>
<path d="M33.6984 65.9999C36.0733 65.9999 37.9984 64.0747 37.9984 61.6999C37.9984 59.3251 36.0733 57.3999 33.6984 57.3999C31.3236 57.3999 29.3984 59.3251 29.3984 61.6999C29.3984 64.0747 31.3236 65.9999 33.6984 65.9999Z" stroke="#1062AA" stroke-width="2" stroke-miterlimit="10" stroke-linecap="round" stroke-linejoin="round"/>
<path d="M1.19922 61.7H25.5992" stroke="#1062AA" stroke-width="2" stroke-miterlimit="10" stroke-linecap="round" stroke-linejoin="round"/>
<path d="M41.8008 61.7H66.2008" stroke="#1062AA" stroke-width="2" stroke-miterlimit="10" stroke-linecap="round" stroke-linejoin="round"/>
<path d="M33.6992 57.4001V51.8" stroke="#1062AA" stroke-width="2" stroke-miterlimit="10" stroke-linecap="round" stroke-linejoin="round"/>
</g>
<defs>
<clipPath id="clip0">
<rect width="67.3" height="67" fill="white"/>
</clipPath>
</defs>
</svg>
