<svg width="68" height="67" viewBox="0 0 68 67" fill="none" xmlns="http://www.w3.org/2000/svg">
<g clip-path="url(#clip0)">
<path d="M67.3 0.1C67.5 2.4 67 5 65.1 6.2C63.7 7.1 61.8 7 60.1 7C56.8 7.1 53.5 8.1 50.7 9.9C43.9 14.1 40.6 22.1 34.9 27.7C30.4 32.1 24.5 35.1 18.3 35.9C12 36.9 5.5 35.7 0 32.6L0.2 0L67.3 0.1Z" fill="#F7B916"/>
<path d="M12.5992 33.5C12.5992 21.9 21.9992 12.5 33.5992 12.5C45.1992 12.5 54.5992 21.9 54.5992 33.5H65.9992C66.0992 15.6 51.4992 1 33.5992 1C15.6992 1 1.19922 15.6 1.19922 33.5C1.19922 51.4 15.7992 66 33.6992 66V54.5C21.9992 54.5 12.5992 45.1 12.5992 33.5Z" fill="#C0C1C4"/>
<path d="M54.3016 33.5C54.3016 45.5 44.6016 55.2 32.6016 55.2V67C51.1016 67 66.1016 52 66.1016 33.5H54.3016Z" fill="#F7B916"/>
<path d="M41.5992 41.7999H25.6992C24.0992 41.7999 22.6992 40.3999 22.6992 38.7999V28.2C22.6992 26.6 24.0992 25.2 25.6992 25.2H41.5992C43.2992 25.2 44.5992 26.6 44.5992 28.2V38.7999C44.5992 40.4999 43.1992 41.7999 41.5992 41.7999Z" stroke="#1062AA" stroke-width="2" stroke-miterlimit="10" stroke-linecap="round" stroke-linejoin="round"/>
<path d="M22.6992 29.7L31.8992 32.9C32.9992 33.3 34.2992 33.3 35.3992 32.9L44.5992 29.7" stroke="#1062AA" stroke-width="2" stroke-miterlimit="10" stroke-linecap="round" stroke-linejoin="round"/>
<path d="M33.6016 65.9C15.7016 65.9 1.10156 51.3 1.10156 33.4C1.20156 15.6 15.7016 1 33.6016 1C51.5016 1 66.1016 15.6 66.1016 33.5C66.1016 51.4 51.5016 65.9 33.6016 65.9ZM33.6016 12.4C22.0016 12.4 12.6016 21.8 12.6016 33.4C12.6016 45 22.0016 54.4 33.6016 54.4C45.2016 54.4 54.6016 45 54.6016 33.4C54.7016 21.9 45.2016 12.4 33.6016 12.4Z" stroke="#1062AA" stroke-width="2" stroke-miterlimit="10" stroke-linecap="round" stroke-linejoin="round"/>
<path d="M32.6016 54.5V65.9" stroke="#1062AA" stroke-width="2" stroke-miterlimit="10" stroke-linecap="round" stroke-linejoin="round"/>
<path d="M54.6992 33.5H66.0992" stroke="#1062AA" stroke-width="2" stroke-miterlimit="10" stroke-linecap="round" stroke-linejoin="round"/>
<path d="M1.19922 33.5H12.5992" stroke="#1062AA" stroke-width="2" stroke-miterlimit="10" stroke-linecap="round" stroke-linejoin="round"/>
<path d="M33.5992 65.9V54.5C21.9992 54.5 12.5992 45.1 12.5992 33.5H1.19922C1.19922 51.4 15.6992 65.9 33.5992 65.9Z" fill="#1062AA"/>
</g>
<defs>
<clipPath id="clip0">
<rect width="67.3" height="67" fill="white"/>
</clipPath>
</defs>
</svg>
