<svg width="52" height="67" viewBox="0 0 52 67" fill="none" xmlns="http://www.w3.org/2000/svg">
<g clip-path="url(#clip0)">
<path d="M25.6992 45C38.1256 45 48.1992 34.9264 48.1992 22.5C48.1992 10.0736 38.1256 0 25.6992 0C13.2728 0 3.19922 10.0736 3.19922 22.5C3.19922 34.9264 13.2728 45 25.6992 45Z" fill="#F7B916"/>
<path d="M32.7 14.6C32.7 16 32.1 17.4 31 18.8L28.7 21.7C28.3 22.2 28.1 22.7 28.1 23.2V23.5H22.7V22.7C22.7 21.3 23.1 20.1 24 19L26.3 16.3C26.9 15.6 27.2 15 27.2 14.5C27.2 13.9 27 13.4 26.7 13.1C26.4 12.7 25.9 12.5 25.2 12.5C23.9 12.5 23.2 13.2 23.2 14.6H18C18 12.4 18.7 10.8 20.1 9.50001C21.5 8.30001 23.3 7.60001 25.4 7.60001C27.5 7.60001 29.2 8.20001 30.6 9.40001C32 10.8 32.7 12.5 32.7 14.6ZM28.2 31.4H22.7V26.1H28.2V31.4Z" fill="white"/>
<path d="M31.8 56.6H4C2.3 56.6 1 55.3 1 53.6V29.9C1 28.3 2.3 26.9 4 26.9H47.5C49.2 26.9 50.5 28.3 50.5 29.9V53.6C50.5 55.3 49.2 56.6 47.5 56.6H43.5" stroke="#1062AA" stroke-width="2" stroke-miterlimit="10" stroke-linecap="round" stroke-linejoin="round"/>
<path d="M43.5008 56.6V66L31.8008 56.6" stroke="#1062AA" stroke-width="2" stroke-miterlimit="10" stroke-linecap="round" stroke-linejoin="round"/>
<path d="M5.5 47.9H46.1" stroke="#1062AA" stroke-width="2" stroke-miterlimit="10" stroke-linecap="round" stroke-linejoin="round"/>
<path d="M5.5 50.6L11.1 45" stroke="#1062AA" stroke-width="2" stroke-miterlimit="10" stroke-linecap="round" stroke-linejoin="round"/>
<path d="M40.5 50.6L46.1 45" stroke="#1062AA" stroke-width="2" stroke-miterlimit="10" stroke-linecap="round" stroke-linejoin="round"/>
<path d="M19.7008 43.1H18.5008V35.9L16.8008 37.4V36L18.5008 34.6H19.7008V43.1Z" fill="#1062AA"/>
<path d="M27.5 40.6C27.5 41.4 27.3 42 26.8 42.5C26.3 43 25.7 43.2 25 43.2C24.2 43.2 23.6 43 23.2 42.5C22.7 42 22.5 41.4 22.5 40.6C22.5 40 22.7 39.3 23.1 38.5L25 34.5H26.3L24.5 38.2C24.7 38.1 25 38.1 25.3 38.1C25.9 38.1 26.5 38.3 26.9 38.8C27.3 39.2 27.5 39.8 27.5 40.6ZM26.3 40.6C26.3 40.2 26.2 39.8 25.9 39.5C25.7 39.2 25.3 39.1 24.9 39.1C24.5 39.1 24.2 39.2 24 39.5C23.8 39.8 23.6 40.1 23.6 40.6C23.6 41.1 23.7 41.4 24 41.7C24.2 42 24.6 42.1 24.9 42.1C25.3 42.1 25.6 42 25.8 41.7C26.2 41.4 26.3 41 26.3 40.6Z" fill="#1062AA"/>
<path d="M33.9023 40.7C33.9023 41.4 33.7023 42 33.2023 42.5C32.7023 42.9 32.1023 43.2 31.4023 43.2C30.7023 43.2 30.1023 43 29.6023 42.5C29.1023 42.1 28.9023 41.5 28.9023 40.7V36.9C28.9023 36.2 29.1023 35.6 29.6023 35.1C30.1023 34.7 30.7023 34.4 31.4023 34.4C32.1023 34.4 32.7023 34.6 33.2023 35.1C33.7023 35.5 33.9023 36.1 33.9023 36.9V40.7ZM32.6023 40.7V37C32.6023 36.6 32.5023 36.2 32.3023 36C32.1023 35.7 31.8023 35.6 31.4023 35.6C31.0023 35.6 30.7023 35.7 30.5023 36C30.3023 36.3 30.2023 36.6 30.2023 37V40.7C30.2023 41.1 30.3023 41.5 30.5023 41.7C30.7023 42 31.0023 42.1 31.4023 42.1C31.8023 42.1 32.1023 42 32.3023 41.7C32.5023 41.4 32.6023 41.1 32.6023 40.7Z" fill="#1062AA"/>
</g>
<defs>
<clipPath id="clip0">
<rect width="51.5" height="67" fill="white"/>
</clipPath>
</defs>
</svg>
