<svg width="67" height="67" viewBox="0 0 67 67" fill="none" xmlns="http://www.w3.org/2000/svg">
<path d="M33.5 45C45.9264 45 56 34.9264 56 22.5C56 10.0736 45.9264 0 33.5 0C21.0736 0 11 10.0736 11 22.5C11 34.9264 21.0736 45 33.5 45Z" fill="#F7B916"/>
<path d="M40.4 14.6C40.4 16 39.8 17.4 38.7 18.8L36.4 21.7C36 22.2 35.8 22.7 35.8 23.2V23.5H30.4V22.7C30.4 21.3 30.8 20.1 31.7 19L34 16.3C34.6 15.6 34.9 15 34.9 14.5C34.9 13.9 34.7 13.4 34.4 13.1C34.1 12.8 33.6 12.5 32.9 12.5C31.6 12.5 30.9 13.2 30.9 14.6H25.5C25.5 12.4 26.2 10.8 27.6 9.50001C29 8.30001 30.8 7.60001 32.9 7.60001C35 7.60001 36.7 8.20001 38.1 9.40001C39.7 10.8 40.4 12.5 40.4 14.6ZM36 31.4H30.5V26.1H36V31.4Z" fill="white"/>
<path d="M52.6015 43.9L44.2015 51.6C43.8015 52 43.2015 51.9 42.8015 51.5L37.3015 45.5C36.9015 45.1 37.0015 44.5 37.4015 44.1L45.8015 36.4C46.2015 36 46.8015 36.1 47.2015 36.5L52.7015 42.5C53.0015 42.9 53.0015 43.6 52.6015 43.9Z" stroke="#1062AA" stroke-width="2" stroke-miterlimit="10" stroke-linecap="round" stroke-linejoin="round"/>
<path d="M38.5 46.9L44 44.5C44.7 44.2 45.2 43.7 45.6 43.1L48.4 37.9" stroke="#1062AA" stroke-width="2" stroke-miterlimit="10" stroke-linecap="round" stroke-linejoin="round"/>
<path d="M47.6998 65L24.6998 39.9C23.5998 38.7 23.6998 36.8 24.8998 35.7L37.8998 23.8C39.0998 22.7 40.9998 22.8 42.0998 24L65.0998 49.1C66.1998 50.3 66.0998 52.2 64.8998 53.3L51.9998 65.2C50.6998 66.3 48.7998 66.2 47.6998 65Z" stroke="#1062AA" stroke-width="2" stroke-miterlimit="10" stroke-linecap="round" stroke-linejoin="round"/>
<path d="M44.5013 61.5L40.5013 65.2C39.3013 66.3 37.4013 66.2 36.3013 65L13.3013 39.9C12.2013 38.7 12.3013 36.8 13.5013 35.7L26.5013 23.8C27.7013 22.7 29.6013 22.8 30.7013 24L33.7013 27.2" stroke="#1062AA" stroke-width="2" stroke-miterlimit="10" stroke-linecap="round" stroke-linejoin="round"/>
<path d="M33.099 61.5L29.099 65.2C27.899 66.3 25.999 66.2 24.899 65L1.89898 39.9C0.798978 38.7 0.898977 36.8 2.09898 35.7L15.099 23.8C16.299 22.7 18.199 22.8 19.299 24L22.299 27.2" stroke="#1062AA" stroke-width="2" stroke-miterlimit="10" stroke-linecap="round" stroke-linejoin="round"/>
<path d="M27.6992 43.2L45.1992 27.2" stroke="#1062AA" stroke-width="2" stroke-miterlimit="10" stroke-linecap="round" stroke-linejoin="round"/>
<path d="M16.3984 43.2L33.8984 27.2" stroke="#1062AA" stroke-width="2" stroke-miterlimit="10" stroke-linecap="round" stroke-linejoin="round"/>
<path d="M5.10156 43.3L22.5016 27.3" stroke="#1062AA" stroke-width="2" stroke-miterlimit="10" stroke-linecap="round" stroke-linejoin="round"/>
<path d="M21.8008 61.6L28.0008 56" stroke="#1062AA" stroke-width="2" stroke-miterlimit="10" stroke-linecap="round" stroke-linejoin="round"/>
<path d="M33 61.5L39.3 55.7" stroke="#1062AA" stroke-width="2" stroke-miterlimit="10" stroke-linecap="round" stroke-linejoin="round"/>
<path d="M44.5 61.9L62 45.9" stroke="#1062AA" stroke-width="2" stroke-miterlimit="10" stroke-linecap="round" stroke-linejoin="round"/>
<path d="M56 57.8C56.8284 57.8 57.5 57.1284 57.5 56.3C57.5 55.4716 56.8284 54.8 56 54.8C55.1716 54.8 54.5 55.4716 54.5 56.3C54.5 57.1284 55.1716 57.8 56 57.8Z" stroke="#1062AA" stroke-width="2" stroke-miterlimit="10" stroke-linecap="round" stroke-linejoin="round"/>
<path d="M33 33.5L38.3 28.7" stroke="#1062AA" stroke-width="2" stroke-miterlimit="10" stroke-linecap="round" stroke-linejoin="round"/>
<path d="M30.1 37.3C30.7075 37.3 31.2 36.8075 31.2 36.2C31.2 35.5925 30.7075 35.1 30.1 35.1C29.4925 35.1 29 35.5925 29 36.2C29 36.8075 29.4925 37.3 30.1 37.3Z" fill="#1263AA"/>
</svg>
