<svg width="67" height="67" viewBox="0 0 67 67" fill="none" xmlns="http://www.w3.org/2000/svg">
<path d="M4.5 39H0V66.9H4.5V39Z" fill="#F7B916"/>
<path d="M13.3984 45.1H8.89844V67H13.3984V45.1Z" fill="#F7B916"/>
<path d="M22.3984 55.2H17.8984V67H22.3984V55.2Z" fill="#F7B916"/>
<path d="M31.3008 58.5H26.8008V67H31.3008V58.5Z" fill="#F7B916"/>
<path d="M40.1992 58.5H35.6992V67H40.1992V58.5Z" fill="#F7B916"/>
<path d="M49.1016 55.2H44.6016V67H49.1016V55.2Z" fill="#F7B916"/>
<path d="M58.1016 45.1H53.6016V67H58.1016V45.1Z" fill="#F7B916"/>
<path d="M67 36.4H62.5V67H67V36.4Z" fill="#F7B916"/>
<path d="M33.5008 50.9C41.8955 50.9 48.7008 44.0947 48.7008 35.7C48.7008 27.3053 41.8955 20.5 33.5008 20.5C25.1061 20.5 18.3008 27.3053 18.3008 35.7C18.3008 44.0947 25.1061 50.9 33.5008 50.9Z" fill="#F7B916"/>
<path d="M38.2 42.3C37.3 43.1 36.1 43.6 34.6 43.7V46.2H32.7V43.7C30.5 43.6 28.8 42.9 27.5 41.5L29.2 39.9C30.2 40.9 31.4 41.4 33 41.5V36.4L32.4 36.3C31.1 36.1 30.1 35.7 29.3 35C28.5 34.2 28.1 33.2 28.1 31.9C28.1 29 29.7 27.4 32.8 27.1V25H34.7V27C36.4 27.1 37.9 27.7 39.1 28.8L37.5 30.4C36.7 29.7 35.7 29.3 34.5 29.2V34.2L35.3 34.3C36.7 34.5 37.7 34.9 38.4 35.5C39.3 36.3 39.7 37.4 39.7 38.9C39.6 40.4 39.1 41.5 38.2 42.3ZM32.9 29.4C31.2 29.6 30.4 30.4 30.4 31.9C30.4 32.5 30.6 33 31 33.4C31.4 33.8 32.1 34.1 32.9 34.2V29.4ZM36.5 37.4C36.2 37.2 35.9 37 35.5 36.9L34.5 36.7H34.4V41.6C36.2 41.4 37.1 40.6 37.1 39.1C37.1 38.3 36.9 37.8 36.5 37.4Z" fill="#1062AA"/>
<path d="M33.5 55.2C44.2696 55.2 53 46.4695 53 35.7C53 24.9304 44.2696 16.2 33.5 16.2C22.7304 16.2 14 24.9304 14 35.7C14 46.4695 22.7304 55.2 33.5 55.2Z" stroke="#1062AA" stroke-width="2" stroke-miterlimit="10" stroke-linecap="round" stroke-linejoin="round"/>
<path d="M53.7 3.5L66 1L49.7 13L33.5 4.5L15 16.6L1 11.5" stroke="#1062AA" stroke-width="2" stroke-miterlimit="10" stroke-linecap="round" stroke-linejoin="round"/>
<path d="M60.8984 11.8L65.9984 1" stroke="#1062AA" stroke-width="2" stroke-miterlimit="10" stroke-linecap="round" stroke-linejoin="round"/>
</svg>
