<svg width="67" height="67" viewBox="0 0 67 67" fill="none" xmlns="http://www.w3.org/2000/svg">
<path d="M64 43.8H3C1.4 43.8 0 42.5 0 40.8V3C0 1.4 1.4 0 3 0H64C65.7 0 67 1.4 67 3V40.8C67 42.5 65.7 43.8 64 43.8Z" fill="#F7B916"/>
<path d="M47.1016 41.7L59.2016 53.4L58.6016 41.1L47.1016 41.7Z" fill="#F7B916"/>
<path d="M16.6008 18.5L14.5008 25.6H12.8008L11.5008 21.7L10.2008 25.6H8.40078L6.30078 18.5H8.60078L9.50078 22.2L10.7008 18.5H12.2008L13.4008 22.2L14.3008 18.5H16.6008Z" fill="white"/>
<path d="M23.5023 22.8H19.2023C19.2023 23.1 19.3023 23.4 19.5023 23.6C19.7023 23.8 20.0023 23.9 20.4023 23.9C20.8023 23.9 21.0023 23.9 21.2023 23.8C21.4023 23.7 21.6023 23.6 21.8023 23.3L23.1023 24.6C22.7023 25 22.3023 25.3 21.9023 25.5C21.5023 25.7 21.0023 25.8 20.3023 25.8C18.0023 25.8 16.9023 24.6 16.9023 22.2C16.9023 21.1 17.2023 20.2 17.8023 19.5C18.4023 18.9 19.2023 18.5 20.1023 18.5C21.1023 18.5 21.9023 18.8 22.5023 19.5C23.1023 20.2 23.3023 21 23.3023 22V22.8H23.5023ZM21.3023 21.4C21.3023 21.2 21.3023 21 21.2023 20.8C21.0023 20.4 20.7023 20.2 20.3023 20.2C19.8023 20.2 19.5023 20.4 19.4023 20.8C19.3023 21 19.3023 21.2 19.3023 21.4H21.3023Z" fill="white"/>
<path d="M28.1016 25.7001H26.9016C26.2016 25.7001 25.6016 25.5 25.2016 25.1C24.8016 24.7001 24.6016 24.2 24.6016 23.6V16.3H26.8016V23.5C26.8016 23.8 26.9016 23.9 27.2016 23.9H28.0016V25.7001H28.1016Z" fill="white"/>
<path d="M34.4023 24.8C33.8023 25.4 33.0023 25.7001 32.1023 25.7001C31.8023 25.7001 31.5023 25.7 31.3023 25.6C31.0023 25.6 30.8023 25.4 30.5023 25.3C30.2023 25.1 29.9023 24.9001 29.7023 24.7001C29.5023 24.4001 29.3023 24.1 29.1023 23.6C29.0023 23.1 28.9023 22.6 28.9023 22C28.9023 21.4 29.0023 20.9 29.1023 20.4C29.2023 19.9 29.4023 19.6 29.7023 19.3C29.9023 19 30.2023 18.8001 30.5023 18.7001C30.8023 18.5001 31.1023 18.4 31.3023 18.4C31.6023 18.4 31.8023 18.3 32.1023 18.3C33.1023 18.3 33.8023 18.6001 34.4023 19.2001L33.0023 20.8C32.7023 20.5 32.4023 20.4 32.1023 20.4C31.8023 20.4 31.6023 20.5001 31.4023 20.7001C31.2023 20.9001 31.0023 21.4 31.0023 22.1C31.0023 22.8 31.1023 23.3 31.4023 23.5C31.6023 23.7 31.8023 23.8 32.1023 23.8C32.4023 23.8 32.7023 23.7 33.0023 23.4L34.4023 24.8Z" fill="white"/>
<path d="M41.2 22.1C41.2 22.8 41.1 23.4 41 23.8C40.9 24.2 40.7 24.6 40.4 24.9C39.8 25.5 39.1 25.8 38.1 25.8C37.1 25.8 36.4 25.5 35.8 24.9C35.5 24.6 35.3 24.2 35.2 23.8C35.1 23.4 35 22.9 35 22.1C35 21.4 35.1 20.9 35.2 20.4C35.3 20 35.5 19.6 35.8 19.3C36.4 18.7 37.1 18.4 38.1 18.4C39.1 18.4 39.8 18.7 40.4 19.3C40.7 19.6 40.9 20 41 20.4C41.1 20.9 41.2 21.4 41.2 22.1ZM39 22.1C39 21.3 38.9 20.8 38.7 20.6C38.6 20.5 38.4 20.4 38.1 20.4C37.8 20.4 37.6 20.5 37.5 20.6C37.3 20.8 37.2 21.3 37.2 22.1C37.2 22.9 37.3 23.4 37.5 23.6C37.6 23.7 37.8 23.8 38.1 23.8C38.4 23.8 38.6 23.7 38.7 23.6C38.9 23.4 39 22.9 39 22.1Z" fill="white"/>
<path d="M52.6023 25.7H50.4023V21.4C50.4023 21 50.3023 20.8 50.1023 20.6C49.9023 20.5 49.7023 20.4 49.5023 20.4C49.3023 20.4 49.1023 20.5 48.9023 20.6C48.7023 20.7 48.6023 21 48.6023 21.4V25.7H46.4023V21.4C46.4023 21 46.3023 20.8 46.1023 20.6C45.9023 20.5 45.7023 20.4 45.5023 20.4C45.3023 20.4 45.1023 20.5 44.9023 20.6C44.7023 20.7 44.6023 21 44.6023 21.4V25.7H42.4023V18.6H44.5023V19.2C44.9023 18.8 45.5023 18.5 46.2023 18.5C46.9023 18.5 47.5023 18.8 47.9023 19.3C48.5023 18.8 49.1023 18.5 49.9023 18.5C50.6023 18.5 51.2023 18.7 51.6023 19.1C52.1023 19.6 52.4023 20.3 52.4023 21.1V25.7H52.6023Z" fill="white"/>
<path d="M60.2992 22.8H55.9992C55.9992 23.1 56.0992 23.4 56.2992 23.6C56.4992 23.8 56.7992 23.9 57.1992 23.9C57.5992 23.9 57.7992 23.9 57.9992 23.8C58.1992 23.7 58.3992 23.6 58.5992 23.3L59.8992 24.6C59.4992 25 59.0992 25.3 58.6992 25.5C58.2992 25.7 57.7992 25.8 57.0992 25.8C54.7992 25.8 53.6992 24.6 53.6992 22.2C53.6992 21.1 53.9992 20.2 54.5992 19.5C55.1992 18.9 55.9992 18.5 56.8992 18.5C57.8992 18.5 58.6992 18.8 59.2992 19.5C59.8992 20.2 60.0992 21 60.0992 22V22.8H60.2992ZM58.0992 21.4C58.0992 21.2 58.0992 21 57.9992 20.8C57.7992 20.4 57.4992 20.2 57.0992 20.2C56.5992 20.2 56.2992 20.4 56.1992 20.8C56.0992 21 55.9992 21.2 55.9992 21.4H58.0992Z" fill="white"/>
<path d="M52.0992 37.7C52.5992 38.2 52.8992 38.9 52.8992 39.7V63C52.8992 64.7 51.5992 66 49.8992 66H17.1992C15.4992 66 14.1992 64.7 14.1992 63V39.7C14.1992 39 14.4992 38.2999 14.8992 37.7999" stroke="#1062AA" stroke-width="2" stroke-miterlimit="10" stroke-linecap="round" stroke-linejoin="round"/>
<path d="M14.1992 44.7L30.3992 50.2999C32.3992 50.9999 34.5992 50.9999 36.5992 50.2999L52.7992 44.7" stroke="#1062AA" stroke-width="2" stroke-miterlimit="10" stroke-linecap="round" stroke-linejoin="round"/>
<path d="M15.1992 37.5L30.6992 30.2C32.2992 29.5 34.6992 29.4 36.3992 30.2L51.8992 37.5" stroke="#1062AA" stroke-width="2" stroke-miterlimit="10" stroke-linecap="round" stroke-linejoin="round"/>
<path d="M13.3008 5.90002L20.5008 11.2" stroke="white" stroke-width="2" stroke-miterlimit="10" stroke-linecap="round" stroke-linejoin="round"/>
<path d="M53.7 5.90002L46.5 11.2" stroke="white" stroke-width="2" stroke-miterlimit="10" stroke-linecap="round" stroke-linejoin="round"/>
<path d="M33.5 11.5V4.59998" stroke="white" stroke-width="2" stroke-miterlimit="10" stroke-linecap="round" stroke-linejoin="round"/>
</svg>
