<svg width="67" height="67" viewBox="0 0 67 67" fill="none" xmlns="http://www.w3.org/2000/svg">
<g clip-path="url(#clip0)">
<path d="M33.5 45C45.9264 45 56 34.9264 56 22.5C56 10.0736 45.9264 0 33.5 0C21.0736 0 11 10.0736 11 22.5C11 34.9264 21.0736 45 33.5 45Z" fill="#F7B916"/>
<path d="M62.9 51.8H4C2.3 51.8 1 50.4 1 48.8V38.5C1 36.8 2.3 35.5 4 35.5H62.9C64.6 35.5 65.9 36.8 65.9 38.5V48.8C65.9 50.5 64.6 51.8 62.9 51.8Z" stroke="#1062AA" stroke-width="2" stroke-miterlimit="10" stroke-linecap="round" stroke-linejoin="round"/>
<path d="M54.1016 41.3C54.1016 42.4 53.2016 43.3 52.1016 43.3H41.6016C40.5016 43.3 39.6016 42.4 39.6016 41.3C39.6016 40.2 40.5016 39.3 41.6016 39.3H52.2016C53.2016 39.3 54.1016 40.2 54.1016 41.3Z" stroke="#1062AA" stroke-width="2" stroke-miterlimit="10" stroke-linecap="round" stroke-linejoin="round"/>
<path d="M13.6016 39.3H33.1016" stroke="#1062AA" stroke-width="2" stroke-miterlimit="10" stroke-linecap="round" stroke-linejoin="round"/>
<path d="M13.6016 48.1H33.1016" stroke="#1062AA" stroke-width="2" stroke-miterlimit="10" stroke-linecap="round" stroke-linejoin="round"/>
<path d="M13.6016 43.7H33.1016" stroke="#1062AA" stroke-width="2" stroke-miterlimit="10" stroke-linecap="round" stroke-linejoin="round"/>
<path d="M59.6992 39.3V48.1" stroke="#1062AA" stroke-width="2" stroke-miterlimit="10" stroke-linecap="round" stroke-linejoin="round"/>
<path d="M7 39.3V48.1" stroke="#1062AA" stroke-width="2" stroke-miterlimit="10" stroke-linecap="round" stroke-linejoin="round"/>
<path d="M52.2984 49.1C53.0716 49.1 53.6984 48.4732 53.6984 47.7C53.6984 46.9268 53.0716 46.3 52.2984 46.3C51.5252 46.3 50.8984 46.9268 50.8984 47.7C50.8984 48.4732 51.5252 49.1 52.2984 49.1Z" fill="#1062AA"/>
<path d="M33.4992 66C35.874 66 37.7992 64.0748 37.7992 61.7C37.7992 59.3252 35.874 57.4 33.4992 57.4C31.1244 57.4 29.1992 59.3252 29.1992 61.7C29.1992 64.0748 31.1244 66 33.4992 66Z" stroke="#1062AA" stroke-width="2" stroke-miterlimit="10" stroke-linecap="round" stroke-linejoin="round"/>
<path d="M1 61.7H25.4" stroke="#1062AA" stroke-width="2" stroke-miterlimit="10" stroke-linecap="round" stroke-linejoin="round"/>
<path d="M41.6016 61.7H66.0016" stroke="#1062AA" stroke-width="2" stroke-miterlimit="10" stroke-linecap="round" stroke-linejoin="round"/>
<path d="M33.5 57.4V51.8" stroke="#1062AA" stroke-width="2" stroke-miterlimit="10" stroke-linecap="round" stroke-linejoin="round"/>
<path d="M40.4 14.6C40.4 16 39.8 17.4 38.7 18.8L36.4 21.7C36 22.2 35.8 22.7 35.8 23.2V23.5H30.4V22.7C30.4 21.3 30.8 20.1 31.7 19L34 16.3C34.6 15.6 34.9 15 34.9 14.5C34.9 13.9 34.7 13.4 34.4 13.1C34.1 12.8 33.6 12.5 32.9 12.5C31.6 12.5 30.9 13.2 30.9 14.6H25.5C25.5 12.4 26.2 10.8 27.6 9.5C29 8.3 30.8 7.6 32.9 7.6C35 7.6 36.7 8.2 38.1 9.4C39.7 10.8 40.4 12.5 40.4 14.6ZM36 31.4H30.5V26.1H36V31.4Z" fill="white"/>
</g>
<defs>
<clipPath id="clip0">
<rect width="67" height="67" fill="white"/>
</clipPath>
</defs>
</svg>
