<svg width="48" height="51" viewBox="0 0 48 51" fill="none" xmlns="http://www.w3.org/2000/svg">
<path d="M27.4312 11.1216H7.50573C4.24513 11.1216 1.625 13.8 1.625 17.0023V37.7306C1.625 40.9912 4.30343 43.6113 7.50573 43.6113L25.672 43.6696L32.1934 49.2593V43.6696C35.454 43.6696 38.0741 40.9912 38.0741 37.7888V20.9166" stroke="#1062AA" stroke-width="2" stroke-miterlimit="10" stroke-linecap="round" stroke-linejoin="round"/>
<path d="M46.625 10.9702C46.625 5.64394 42.3072 1.32617 36.981 1.32617C31.6548 1.32617 27.337 5.64394 27.337 10.9702C27.337 16.2964 31.6548 20.6142 36.981 20.6142C42.3072 20.6142 46.625 16.2964 46.625 10.9702Z" stroke="#1062AA" stroke-width="2"/>
<path d="M33.2303 10.4345L36.579 13.1133L40.1954 8.82715" stroke="#1062AA" stroke-width="2" stroke-linecap="round" stroke-linejoin="round"/>
<path d="M14.5874 28.5467C14.1903 28.7989 14.0226 29.2938 14.1847 29.7355L15.9504 34.5453C16.0779 34.8928 16.3869 35.1413 16.7536 35.1915C17.1203 35.2416 17.4848 35.0851 17.7009 34.7846L25.5549 23.8662C25.8347 23.4772 25.7992 22.9443 25.4703 22.5959C25.1414 22.2474 24.6115 22.1812 24.207 22.4381L14.5874 28.5467Z" fill="#F7B916" stroke="#1062AA" stroke-width="2" stroke-linecap="round" stroke-linejoin="round"/>
<path d="M17.1585 29.4688C16.8908 29.4509 16.627 29.5414 16.4267 29.72C16.2263 29.8986 16.1062 30.1502 16.0932 30.4182L15.9105 34.193C15.8913 34.5909 16.11 34.9622 16.4673 35.1383C16.8246 35.3144 17.2523 35.2617 17.5561 35.004L21.6962 31.4931C22.0069 31.2296 22.1267 30.8042 21.9992 30.4173C21.8717 30.0305 21.5224 29.7597 21.116 29.7326L17.1585 29.4688Z" fill="#F7B916" stroke="#1062AA" stroke-width="2" stroke-linecap="round" stroke-linejoin="round"/>
<path d="M26.3051 20.5176L26.3051 20.5175L26.2951 20.5213L10.8361 26.4046C9.48324 26.9046 9.57202 28.795 10.8936 29.2246L14.8652 30.562C15.1537 30.6592 15.4707 30.6196 15.7264 30.4546L16.1298 30.1944C16.1003 30.2986 16.0877 30.408 16.0934 30.5185C16.1087 30.8131 16.2532 31.0858 16.4884 31.2639L22.089 35.5049C22.0892 35.5051 22.0894 35.5053 22.0896 35.5054C22.0896 35.5054 22.0896 35.5054 22.0897 35.5055C23.2648 36.3962 24.91 35.7701 25.2651 34.389L25.2651 34.389L25.2669 34.3822L28.2895 22.2713C28.6157 21.0098 27.3512 20.1322 26.3051 20.5176Z" fill="#F7B916" stroke="#1062AA" stroke-width="2" stroke-linecap="round" stroke-linejoin="round"/>
</svg>
