<svg width="48" height="51" viewBox="0 0 48 51" fill="none" xmlns="http://www.w3.org/2000/svg">
<path d="M26.9312 11.1216H7.00573C3.74513 11.1216 1.125 13.8 1.125 17.0023V37.7306C1.125 40.9912 3.80343 43.6113 7.00573 43.6113L25.172 43.6696L31.6934 49.2593V43.6696C34.954 43.6696 37.5741 40.9912 37.5741 37.7888V20.9166" stroke="#1062AA" stroke-width="2" stroke-miterlimit="10" stroke-linecap="round" stroke-linejoin="round"/>
<path d="M46.125 10.9702C46.125 5.64394 41.8072 1.32617 36.481 1.32617C31.1548 1.32617 26.837 5.64394 26.837 10.9702C26.837 16.2964 31.1548 20.6142 36.481 20.6142C41.8072 20.6142 46.125 16.2964 46.125 10.9702Z" stroke="#1062AA" stroke-width="2"/>
<path d="M32.7304 10.4345L36.079 13.1133L39.6954 8.82715" stroke="#1062AA" stroke-width="2" stroke-linecap="round" stroke-linejoin="round"/>
<circle cx="20.6332" cy="23.3295" r="5.18885" fill="#F7B916" stroke="#1062AA" stroke-width="2"/>
<path d="M31.6868 44.0691C31.6868 37.9644 26.738 33.0156 20.6333 33.0156C14.5286 33.0156 9.57983 37.9644 9.57983 44.0691" stroke="#1062AA" stroke-width="2"/>
</svg>
