<svg width="48" height="51" viewBox="0 0 48 51" fill="none" xmlns="http://www.w3.org/2000/svg">
<path d="M27.0116 11.1216H7.08605C3.82546 11.1216 1.20532 13.8 1.20532 17.0023V37.7306C1.20532 40.9912 3.88376 43.6113 7.08605 43.6113L25.2524 43.6696L31.7737 49.2593V43.6696C35.0343 43.6696 37.6544 40.9912 37.6544 37.7888V20.9166" stroke="#1062AA" stroke-width="2" stroke-miterlimit="10" stroke-linecap="round" stroke-linejoin="round"/>
<path d="M46.2053 10.9702C46.2053 5.64394 41.8876 1.32617 36.5613 1.32617C31.2351 1.32617 26.9173 5.64394 26.9173 10.9702C26.9173 16.2964 31.2351 20.6142 36.5613 20.6142C41.8876 20.6142 46.2053 16.2964 46.2053 10.9702Z" stroke="#1062AA" stroke-width="2"/>
<path d="M32.8107 10.4345L36.1593 13.1133L39.7757 8.82715" stroke="#1062AA" stroke-width="2" stroke-linecap="round" stroke-linejoin="round"/>
<path d="M29.5559 33.2772L29.4523 32.9624C29.2095 32.2382 28.4088 31.4824 27.671 31.2799L24.9474 30.5355C24.2097 30.3354 23.1571 30.6052 22.6152 31.1473L21.63 32.1325C18.0493 31.163 15.2402 28.3539 14.2731 24.7733L15.2582 23.7881C15.798 23.2483 16.068 22.1956 15.8678 21.4558L15.1254 18.7321C14.9253 17.9943 14.1651 17.1936 13.4409 16.9508L13.1305 16.8473C12.4039 16.6043 11.3671 16.8495 10.8273 17.3916L9.35191 18.867C9.08879 19.1279 8.92004 19.8792 8.92004 19.8792C8.87055 24.5619 10.7059 29.0714 14.0166 32.3843C17.3184 35.686 21.8121 37.5191 26.479 37.4786C26.5038 37.4786 27.2752 37.3144 27.5384 37.0512L29.0139 35.5758C29.5537 35.0382 29.7965 34.0014 29.5559 33.2772Z" fill="#F7B916" stroke="#1062AA" stroke-width="2"/>
</svg>
