<svg width="48" height="51" viewBox="0 0 48 51" fill="none" xmlns="http://www.w3.org/2000/svg">
<path d="M27.3062 11.1199H7.38073C4.12013 11.1199 1.5 13.7983 1.5 17.0006V37.7289C1.5 40.9895 4.17843 43.6096 7.38073 43.6096L25.547 43.6679L32.0684 49.2576V43.6679C35.329 43.6679 37.9491 40.9895 37.9491 37.7871V20.9149" fill="white"/>
<path d="M27.3062 11.1199H7.38073C4.12013 11.1199 1.5 13.7983 1.5 17.0006V37.7289C1.5 40.9895 4.17843 43.6096 7.38073 43.6096L25.547 43.6679L32.0684 49.2576V43.6679C35.329 43.6679 37.9491 40.9895 37.9491 37.7871V20.9149" stroke="#1062AA" stroke-width="2" stroke-miterlimit="10" stroke-linecap="round" stroke-linejoin="round"/>
<path d="M46.4999 10.9685C46.4999 5.64223 42.1821 1.32446 36.8559 1.32446C31.5297 1.32446 27.2119 5.64223 27.2119 10.9685C27.2119 16.2947 31.5297 20.6125 36.8559 20.6125C42.1821 20.6125 46.4999 16.2947 46.4999 10.9685Z" fill="white" stroke="#1062AA" stroke-width="2"/>
<path d="M33.1045 10.4328L36.4532 13.1116L40.0696 8.82544" stroke="#1062AA" stroke-width="2" stroke-linecap="round" stroke-linejoin="round"/>
<path d="M18.5591 18.3675C18.4599 18.3662 18.3635 18.4006 18.2875 18.4644C18.2116 18.5282 18.161 18.6172 18.1452 18.7151L17.7313 21.1778C17.2528 21.3169 16.7907 21.507 16.353 21.7449L14.3332 20.2921C14.2536 20.2362 14.1569 20.2102 14.06 20.2185C13.9631 20.2268 13.8723 20.269 13.8034 20.3376L12.1933 21.9477C12.1241 22.0161 12.0811 22.1067 12.072 22.2035C12.063 22.3004 12.0883 22.3974 12.1436 22.4775L13.5757 24.5221C13.3337 24.9638 13.1395 25.43 12.9963 25.9128L10.5418 26.3267C10.4447 26.3435 10.3566 26.3944 10.2937 26.4703C10.2307 26.5462 10.1969 26.642 10.1983 26.7406V29.0171C10.1967 29.1151 10.2299 29.2105 10.2921 29.2863C10.3542 29.3621 10.4413 29.4134 10.5377 29.431L12.9963 29.8656C13.1363 30.3489 13.3292 30.8153 13.5716 31.2563L12.1229 33.2844C12.066 33.3643 12.0393 33.4619 12.0476 33.5597C12.056 33.6575 12.0988 33.7492 12.1685 33.8183L13.7785 35.4284C13.8474 35.497 13.9383 35.5392 14.0351 35.5475C14.132 35.5558 14.2287 35.5298 14.3083 35.4739L16.3571 34.0377C16.7965 34.2794 17.2616 34.471 17.7437 34.6089L18.1576 37.0923C18.1734 37.1902 18.224 37.2792 18.2999 37.343C18.3759 37.4068 18.4723 37.4412 18.5715 37.4399H20.8479C20.9465 37.4414 21.0424 37.4076 21.1183 37.3446C21.1942 37.2816 21.2451 37.1936 21.2618 37.0964L21.7006 34.613C22.1794 34.4697 22.6415 34.2755 23.0788 34.0335L25.1483 35.4822C25.2279 35.538 25.3246 35.5641 25.4215 35.5558C25.5184 35.5474 25.6092 35.5053 25.6781 35.4367L27.2882 33.8266C27.3572 33.7569 27.3993 33.665 27.4069 33.5672C27.4145 33.4694 27.3871 33.3721 27.3296 33.2927L25.8561 31.248C26.094 30.8131 26.2841 30.3538 26.4232 29.878L28.9065 29.4393C29.0037 29.4225 29.0917 29.3716 29.1547 29.2957C29.2177 29.2198 29.2515 29.124 29.2501 29.0254V26.7489C29.2514 26.6497 29.217 26.5533 29.1531 26.4774C29.0893 26.4014 29.0003 26.3509 28.9024 26.335L26.419 25.9211C26.2792 25.4456 26.0891 24.9863 25.852 24.5511L27.3048 22.4816C27.3606 22.402 27.3867 22.3053 27.3783 22.2084C27.37 22.1116 27.3278 22.0207 27.2592 21.9518L25.645 20.3418C25.5754 20.2727 25.4834 20.2307 25.3857 20.2231C25.2879 20.2155 25.1906 20.2429 25.1111 20.3004L23.0582 21.7614C22.6198 21.5226 22.1579 21.3298 21.6799 21.1861L21.266 18.7027C21.2492 18.6055 21.1983 18.5175 21.1224 18.4545C21.0465 18.3916 20.9507 18.3577 20.8521 18.3592L18.5591 18.3675Z" fill="#F7B916"/>
<mask id="path-6-outside-1" maskUnits="userSpaceOnUse" x="8.74609" y="16.9065" width="22" height="22" fill="black">
<rect fill="white" x="8.74609" y="16.9065" width="22" height="22"/>
<path d="M18.5037 17.9152C18.3998 17.9139 18.2989 17.9499 18.2193 18.0168C18.1397 18.0836 18.0868 18.1768 18.0702 18.2794L17.6366 20.859C17.1355 21.0046 16.6515 21.2037 16.1929 21.4529L14.0773 19.9312C13.9939 19.8727 13.8926 19.8454 13.7911 19.8541C13.6896 19.8629 13.5945 19.907 13.5223 19.9789L11.8358 21.6654C11.7633 21.737 11.7183 21.8319 11.7088 21.9334C11.6993 22.0348 11.7259 22.1364 11.7838 22.2203L13.2839 24.362C13.0304 24.8247 12.8269 25.313 12.6769 25.8187L10.106 26.2523C10.0042 26.2698 9.91202 26.3231 9.84605 26.4026C9.78007 26.4821 9.74465 26.5825 9.74615 26.6858V29.0703C9.74448 29.1729 9.77929 29.2729 9.84439 29.3523C9.90949 29.4316 10.0007 29.4854 10.1017 29.5038L12.6769 29.959C12.8236 30.4653 13.0257 30.9538 13.2795 31.4158L11.7621 33.5401C11.7025 33.6239 11.6745 33.7261 11.6832 33.8285C11.692 33.931 11.7368 34.027 11.8098 34.0994L13.4963 35.7859C13.5685 35.8577 13.6636 35.9019 13.7651 35.9106C13.8666 35.9193 13.9679 35.8921 14.0512 35.8336L16.1973 34.3292C16.6575 34.5824 17.1446 34.7831 17.6496 34.9275L18.0832 37.5287C18.0998 37.6313 18.1527 37.7245 18.2323 37.7914C18.3119 37.8582 18.4128 37.8942 18.5167 37.8929H20.9012C21.0045 37.8944 21.1049 37.859 21.1844 37.793C21.2639 37.727 21.3172 37.6348 21.3348 37.5331L21.7943 34.9318C22.2959 34.7817 22.7799 34.5782 23.238 34.3248L25.4057 35.8422C25.4891 35.9007 25.5904 35.928 25.6919 35.9193C25.7933 35.9106 25.8885 35.8664 25.9607 35.7945L27.6472 34.1081C27.7195 34.0351 27.7635 33.9388 27.7715 33.8364C27.7794 33.734 27.7507 33.632 27.6905 33.5488L26.1471 31.4071C26.3963 30.9516 26.5954 30.4704 26.7411 29.9721L29.3423 29.5125C29.4441 29.495 29.5363 29.4416 29.6023 29.3621C29.6682 29.2827 29.7037 29.1822 29.7022 29.079V26.6945C29.7035 26.5906 29.6675 26.4896 29.6006 26.41C29.5338 26.3305 29.4406 26.2775 29.338 26.2609L26.7367 25.8274C26.5903 25.3293 26.3912 24.8482 26.1428 24.3924L27.6645 22.2246C27.723 22.1413 27.7503 22.04 27.7416 21.9385C27.7328 21.837 27.6887 21.7419 27.6168 21.6697L25.926 19.9832C25.853 19.9109 25.7567 19.8668 25.6543 19.8589C25.5519 19.851 25.45 19.8796 25.3667 19.9399L23.2163 21.4703C22.7572 21.2201 22.2734 21.0181 21.7726 20.8676L21.3391 18.2664C21.3216 18.1646 21.2682 18.0724 21.1888 18.0064C21.1093 17.9405 21.0088 17.905 20.9056 17.9065L18.5037 17.9152ZM18.8722 18.7823H20.524L20.9576 21.2492C20.9726 21.331 21.0108 21.4068 21.0676 21.4676C21.1245 21.5283 21.1977 21.5714 21.2784 21.5917C21.9031 21.7492 22.5007 21.9991 23.0516 22.333C23.1245 22.3765 23.2085 22.3976 23.2933 22.3937C23.3781 22.3899 23.4599 22.3612 23.5285 22.3113L25.5575 20.8546L26.728 22.0339L25.28 24.0932C25.2343 24.1635 25.21 24.2456 25.21 24.3295C25.21 24.4134 25.2343 24.4954 25.28 24.5658C25.6122 25.1135 25.8592 25.7084 26.0127 26.3303C26.0329 26.413 26.0769 26.4879 26.1394 26.5457C26.2018 26.6035 26.2799 26.6417 26.3639 26.6554L28.8394 27.0586V28.7104L26.3595 29.144C26.2763 29.1585 26.1992 29.197 26.1376 29.2548C26.076 29.3125 26.0326 29.3871 26.0127 29.4691C25.858 30.0899 25.6126 30.6845 25.2843 31.2337C25.2377 31.3045 25.2129 31.3874 25.2129 31.4721C25.2129 31.5569 25.2377 31.6398 25.2843 31.7106L26.7497 33.7395L25.5835 34.9101L23.5285 33.4534C23.4582 33.4077 23.3761 33.3834 23.2922 33.3834C23.2083 33.3834 23.1263 33.4077 23.0559 33.4534C22.5038 33.7798 21.9062 34.0223 21.2827 34.1731C21.202 34.1934 21.1289 34.2364 21.072 34.2972C21.0151 34.3579 20.9769 34.4337 20.9619 34.5156L20.5284 36.9825H18.8722L18.4647 34.5286C18.451 34.4446 18.4128 34.3665 18.355 34.3041C18.2972 34.2416 18.2222 34.1976 18.1396 34.1774C17.5142 34.0221 16.9152 33.7752 16.362 33.4447C16.2917 33.399 16.2096 33.3747 16.1257 33.3747C16.0419 33.3747 15.9598 33.399 15.8895 33.4447L13.8518 34.8711L12.6812 33.7395L14.1249 31.7236C14.1716 31.6528 14.1964 31.5699 14.1964 31.4851C14.1964 31.4004 14.1716 31.3175 14.1249 31.2467C13.7874 30.6945 13.5373 30.0934 13.3836 29.4648C13.363 29.3835 13.3193 29.3099 13.2577 29.253C13.1961 29.1961 13.1194 29.1582 13.0367 29.144L10.5959 28.7104V27.0413L13.0367 26.6381C13.1199 26.6236 13.1971 26.5851 13.2587 26.5273C13.3203 26.4695 13.3637 26.395 13.3836 26.3129C13.5411 25.6856 13.791 25.0851 14.1249 24.5311C14.1716 24.4603 14.1964 24.3774 14.1964 24.2926C14.1964 24.2079 14.1716 24.125 14.1249 24.0542L12.7029 22.0339L13.8735 20.8633L15.8938 22.3113C15.9646 22.358 16.0475 22.3828 16.1322 22.3828C16.217 22.3828 16.2999 22.358 16.3707 22.3113C16.9239 21.9859 17.5232 21.7462 18.1482 21.6003C18.2309 21.5802 18.3058 21.5361 18.3636 21.4737C18.4215 21.4112 18.4596 21.3331 18.4734 21.2492L18.8722 18.7823Z"/>
</mask>
<path d="M18.5037 17.9152C18.3998 17.9139 18.2989 17.9499 18.2193 18.0168C18.1397 18.0836 18.0868 18.1768 18.0702 18.2794L17.6366 20.859C17.1355 21.0046 16.6515 21.2037 16.1929 21.4529L14.0773 19.9312C13.9939 19.8727 13.8926 19.8454 13.7911 19.8541C13.6896 19.8629 13.5945 19.907 13.5223 19.9789L11.8358 21.6654C11.7633 21.737 11.7183 21.8319 11.7088 21.9334C11.6993 22.0348 11.7259 22.1364 11.7838 22.2203L13.2839 24.362C13.0304 24.8247 12.8269 25.313 12.6769 25.8187L10.106 26.2523C10.0042 26.2698 9.91202 26.3231 9.84605 26.4026C9.78007 26.4821 9.74465 26.5825 9.74615 26.6858V29.0703C9.74448 29.1729 9.77929 29.2729 9.84439 29.3523C9.90949 29.4316 10.0007 29.4854 10.1017 29.5038L12.6769 29.959C12.8236 30.4653 13.0257 30.9538 13.2795 31.4158L11.7621 33.5401C11.7025 33.6239 11.6745 33.7261 11.6832 33.8285C11.692 33.931 11.7368 34.027 11.8098 34.0994L13.4963 35.7859C13.5685 35.8577 13.6636 35.9019 13.7651 35.9106C13.8666 35.9193 13.9679 35.8921 14.0512 35.8336L16.1973 34.3292C16.6575 34.5824 17.1446 34.7831 17.6496 34.9275L18.0832 37.5287C18.0998 37.6313 18.1527 37.7245 18.2323 37.7914C18.3119 37.8582 18.4128 37.8942 18.5167 37.8929H20.9012C21.0045 37.8944 21.1049 37.859 21.1844 37.793C21.2639 37.727 21.3172 37.6348 21.3348 37.5331L21.7943 34.9318C22.2959 34.7817 22.7799 34.5782 23.238 34.3248L25.4057 35.8422C25.4891 35.9007 25.5904 35.928 25.6919 35.9193C25.7933 35.9106 25.8885 35.8664 25.9607 35.7945L27.6472 34.1081C27.7195 34.0351 27.7635 33.9388 27.7715 33.8364C27.7794 33.734 27.7507 33.632 27.6905 33.5488L26.1471 31.4071C26.3963 30.9516 26.5954 30.4704 26.7411 29.9721L29.3423 29.5125C29.4441 29.495 29.5363 29.4416 29.6023 29.3621C29.6682 29.2827 29.7037 29.1822 29.7022 29.079V26.6945C29.7035 26.5906 29.6675 26.4896 29.6006 26.41C29.5338 26.3305 29.4406 26.2775 29.338 26.2609L26.7367 25.8274C26.5903 25.3293 26.3912 24.8482 26.1428 24.3924L27.6645 22.2246C27.723 22.1413 27.7503 22.04 27.7416 21.9385C27.7328 21.837 27.6887 21.7419 27.6168 21.6697L25.926 19.9832C25.853 19.9109 25.7567 19.8668 25.6543 19.8589C25.5519 19.851 25.45 19.8796 25.3667 19.9399L23.2163 21.4703C22.7572 21.2201 22.2734 21.0181 21.7726 20.8676L21.3391 18.2664C21.3216 18.1646 21.2682 18.0724 21.1888 18.0064C21.1093 17.9405 21.0088 17.905 20.9056 17.9065L18.5037 17.9152ZM18.8722 18.7823H20.524L20.9576 21.2492C20.9726 21.331 21.0108 21.4068 21.0676 21.4676C21.1245 21.5283 21.1977 21.5714 21.2784 21.5917C21.9031 21.7492 22.5007 21.9991 23.0516 22.333C23.1245 22.3765 23.2085 22.3976 23.2933 22.3937C23.3781 22.3899 23.4599 22.3612 23.5285 22.3113L25.5575 20.8546L26.728 22.0339L25.28 24.0932C25.2343 24.1635 25.21 24.2456 25.21 24.3295C25.21 24.4134 25.2343 24.4954 25.28 24.5658C25.6122 25.1135 25.8592 25.7084 26.0127 26.3303C26.0329 26.413 26.0769 26.4879 26.1394 26.5457C26.2018 26.6035 26.2799 26.6417 26.3639 26.6554L28.8394 27.0586V28.7104L26.3595 29.144C26.2763 29.1585 26.1992 29.197 26.1376 29.2548C26.076 29.3125 26.0326 29.3871 26.0127 29.4691C25.858 30.0899 25.6126 30.6845 25.2843 31.2337C25.2377 31.3045 25.2129 31.3874 25.2129 31.4721C25.2129 31.5569 25.2377 31.6398 25.2843 31.7106L26.7497 33.7395L25.5835 34.9101L23.5285 33.4534C23.4582 33.4077 23.3761 33.3834 23.2922 33.3834C23.2083 33.3834 23.1263 33.4077 23.0559 33.4534C22.5038 33.7798 21.9062 34.0223 21.2827 34.1731C21.202 34.1934 21.1289 34.2364 21.072 34.2972C21.0151 34.3579 20.9769 34.4337 20.9619 34.5156L20.5284 36.9825H18.8722L18.4647 34.5286C18.451 34.4446 18.4128 34.3665 18.355 34.3041C18.2972 34.2416 18.2222 34.1976 18.1396 34.1774C17.5142 34.0221 16.9152 33.7752 16.362 33.4447C16.2917 33.399 16.2096 33.3747 16.1257 33.3747C16.0419 33.3747 15.9598 33.399 15.8895 33.4447L13.8518 34.8711L12.6812 33.7395L14.1249 31.7236C14.1716 31.6528 14.1964 31.5699 14.1964 31.4851C14.1964 31.4004 14.1716 31.3175 14.1249 31.2467C13.7874 30.6945 13.5373 30.0934 13.3836 29.4648C13.363 29.3835 13.3193 29.3099 13.2577 29.253C13.1961 29.1961 13.1194 29.1582 13.0367 29.144L10.5959 28.7104V27.0413L13.0367 26.6381C13.1199 26.6236 13.1971 26.5851 13.2587 26.5273C13.3203 26.4695 13.3637 26.395 13.3836 26.3129C13.5411 25.6856 13.791 25.0851 14.1249 24.5311C14.1716 24.4603 14.1964 24.3774 14.1964 24.2926C14.1964 24.2079 14.1716 24.125 14.1249 24.0542L12.7029 22.0339L13.8735 20.8633L15.8938 22.3113C15.9646 22.358 16.0475 22.3828 16.1322 22.3828C16.217 22.3828 16.2999 22.358 16.3707 22.3113C16.9239 21.9859 17.5232 21.7462 18.1482 21.6003C18.2309 21.5802 18.3058 21.5361 18.3636 21.4737C18.4215 21.4112 18.4596 21.3331 18.4734 21.2492L18.8722 18.7823Z" fill="#1062AA"/>
<path d="M18.5037 17.9152C18.3998 17.9139 18.2989 17.9499 18.2193 18.0168C18.1397 18.0836 18.0868 18.1768 18.0702 18.2794L17.6366 20.859C17.1355 21.0046 16.6515 21.2037 16.1929 21.4529L14.0773 19.9312C13.9939 19.8727 13.8926 19.8454 13.7911 19.8541C13.6896 19.8629 13.5945 19.907 13.5223 19.9789L11.8358 21.6654C11.7633 21.737 11.7183 21.8319 11.7088 21.9334C11.6993 22.0348 11.7259 22.1364 11.7838 22.2203L13.2839 24.362C13.0304 24.8247 12.8269 25.313 12.6769 25.8187L10.106 26.2523C10.0042 26.2698 9.91202 26.3231 9.84605 26.4026C9.78007 26.4821 9.74465 26.5825 9.74615 26.6858V29.0703C9.74448 29.1729 9.77929 29.2729 9.84439 29.3523C9.90949 29.4316 10.0007 29.4854 10.1017 29.5038L12.6769 29.959C12.8236 30.4653 13.0257 30.9538 13.2795 31.4158L11.7621 33.5401C11.7025 33.6239 11.6745 33.7261 11.6832 33.8285C11.692 33.931 11.7368 34.027 11.8098 34.0994L13.4963 35.7859C13.5685 35.8577 13.6636 35.9019 13.7651 35.9106C13.8666 35.9193 13.9679 35.8921 14.0512 35.8336L16.1973 34.3292C16.6575 34.5824 17.1446 34.7831 17.6496 34.9275L18.0832 37.5287C18.0998 37.6313 18.1527 37.7245 18.2323 37.7914C18.3119 37.8582 18.4128 37.8942 18.5167 37.8929H20.9012C21.0045 37.8944 21.1049 37.859 21.1844 37.793C21.2639 37.727 21.3172 37.6348 21.3348 37.5331L21.7943 34.9318C22.2959 34.7817 22.7799 34.5782 23.238 34.3248L25.4057 35.8422C25.4891 35.9007 25.5904 35.928 25.6919 35.9193C25.7933 35.9106 25.8885 35.8664 25.9607 35.7945L27.6472 34.1081C27.7195 34.0351 27.7635 33.9388 27.7715 33.8364C27.7794 33.734 27.7507 33.632 27.6905 33.5488L26.1471 31.4071C26.3963 30.9516 26.5954 30.4704 26.7411 29.9721L29.3423 29.5125C29.4441 29.495 29.5363 29.4416 29.6023 29.3621C29.6682 29.2827 29.7037 29.1822 29.7022 29.079V26.6945C29.7035 26.5906 29.6675 26.4896 29.6006 26.41C29.5338 26.3305 29.4406 26.2775 29.338 26.2609L26.7367 25.8274C26.5903 25.3293 26.3912 24.8482 26.1428 24.3924L27.6645 22.2246C27.723 22.1413 27.7503 22.04 27.7416 21.9385C27.7328 21.837 27.6887 21.7419 27.6168 21.6697L25.926 19.9832C25.853 19.9109 25.7567 19.8668 25.6543 19.8589C25.5519 19.851 25.45 19.8796 25.3667 19.9399L23.2163 21.4703C22.7572 21.2201 22.2734 21.0181 21.7726 20.8676L21.3391 18.2664C21.3216 18.1646 21.2682 18.0724 21.1888 18.0064C21.1093 17.9405 21.0088 17.905 20.9056 17.9065L18.5037 17.9152ZM18.8722 18.7823H20.524L20.9576 21.2492C20.9726 21.331 21.0108 21.4068 21.0676 21.4676C21.1245 21.5283 21.1977 21.5714 21.2784 21.5917C21.9031 21.7492 22.5007 21.9991 23.0516 22.333C23.1245 22.3765 23.2085 22.3976 23.2933 22.3937C23.3781 22.3899 23.4599 22.3612 23.5285 22.3113L25.5575 20.8546L26.728 22.0339L25.28 24.0932C25.2343 24.1635 25.21 24.2456 25.21 24.3295C25.21 24.4134 25.2343 24.4954 25.28 24.5658C25.6122 25.1135 25.8592 25.7084 26.0127 26.3303C26.0329 26.413 26.0769 26.4879 26.1394 26.5457C26.2018 26.6035 26.2799 26.6417 26.3639 26.6554L28.8394 27.0586V28.7104L26.3595 29.144C26.2763 29.1585 26.1992 29.197 26.1376 29.2548C26.076 29.3125 26.0326 29.3871 26.0127 29.4691C25.858 30.0899 25.6126 30.6845 25.2843 31.2337C25.2377 31.3045 25.2129 31.3874 25.2129 31.4721C25.2129 31.5569 25.2377 31.6398 25.2843 31.7106L26.7497 33.7395L25.5835 34.9101L23.5285 33.4534C23.4582 33.4077 23.3761 33.3834 23.2922 33.3834C23.2083 33.3834 23.1263 33.4077 23.0559 33.4534C22.5038 33.7798 21.9062 34.0223 21.2827 34.1731C21.202 34.1934 21.1289 34.2364 21.072 34.2972C21.0151 34.3579 20.9769 34.4337 20.9619 34.5156L20.5284 36.9825H18.8722L18.4647 34.5286C18.451 34.4446 18.4128 34.3665 18.355 34.3041C18.2972 34.2416 18.2222 34.1976 18.1396 34.1774C17.5142 34.0221 16.9152 33.7752 16.362 33.4447C16.2917 33.399 16.2096 33.3747 16.1257 33.3747C16.0419 33.3747 15.9598 33.399 15.8895 33.4447L13.8518 34.8711L12.6812 33.7395L14.1249 31.7236C14.1716 31.6528 14.1964 31.5699 14.1964 31.4851C14.1964 31.4004 14.1716 31.3175 14.1249 31.2467C13.7874 30.6945 13.5373 30.0934 13.3836 29.4648C13.363 29.3835 13.3193 29.3099 13.2577 29.253C13.1961 29.1961 13.1194 29.1582 13.0367 29.144L10.5959 28.7104V27.0413L13.0367 26.6381C13.1199 26.6236 13.1971 26.5851 13.2587 26.5273C13.3203 26.4695 13.3637 26.395 13.3836 26.3129C13.5411 25.6856 13.791 25.0851 14.1249 24.5311C14.1716 24.4603 14.1964 24.3774 14.1964 24.2926C14.1964 24.2079 14.1716 24.125 14.1249 24.0542L12.7029 22.0339L13.8735 20.8633L15.8938 22.3113C15.9646 22.358 16.0475 22.3828 16.1322 22.3828C16.217 22.3828 16.2999 22.358 16.3707 22.3113C16.9239 21.9859 17.5232 21.7462 18.1482 21.6003C18.2309 21.5802 18.3058 21.5361 18.3636 21.4737C18.4215 21.4112 18.4596 21.3331 18.4734 21.2492L18.8722 18.7823Z" stroke="#1062AA" mask="url(#path-6-outside-1)"/>
<path d="M22.7569 27.8997C22.7569 26.2245 21.3988 24.8665 19.7236 24.8665C18.0484 24.8665 16.6904 26.2245 16.6904 27.8997C16.6904 29.5749 18.0484 30.9329 19.7236 30.9329C21.3988 30.9329 22.7569 29.5749 22.7569 27.8997Z" fill="white" stroke="#1062AA" stroke-width="2"/>
</svg>
