<svg width="43" height="43" viewBox="0 0 43 43" fill="none" xmlns="http://www.w3.org/2000/svg">
<path d="M22.3062 37.3994L17.1382 41.8374V37.3994C15.8948 37.3943 14.7039 36.8976 13.8253 36.0178C12.9467 35.138 12.4517 33.9464 12.4483 32.703V16.2366C12.4517 14.9938 12.9469 13.8029 13.8257 12.9241C14.7045 12.0453 15.8954 11.5501 17.1382 11.5467H36.7635C38.0063 11.5501 39.1972 12.0453 40.076 12.9241C40.9548 13.8029 41.45 14.9938 41.4534 16.2366V32.703C41.45 33.9464 40.955 35.138 40.0764 36.0178C39.1978 36.8976 38.0069 37.3943 36.7635 37.3994H22.3062Z" stroke="#1062AA" stroke-width="2" stroke-linecap="round" stroke-linejoin="round"/>
<path d="M11.2831 27.6901L6.11515 32.1281V27.6901C4.87625 27.6799 3.69126 27.1819 2.81701 26.3041C1.94275 25.4262 1.44967 24.2391 1.44461 23.0002V6.52733C1.44971 5.28505 1.94547 4.09511 2.82389 3.21669C3.70232 2.33826 4.89226 1.8425 6.13453 1.8374H25.7405C26.9828 1.8425 28.1727 2.33826 29.0511 3.21669C29.9295 4.09511 30.4253 5.28505 30.4304 6.52733V23.0002C30.4253 24.2425 29.9295 25.4324 29.0511 26.3108C28.1727 27.1893 26.9828 27.685 25.7405 27.6901H11.2831" stroke="#1062AA" stroke-width="2" stroke-linecap="round" stroke-linejoin="round"/>
<path d="M19.3193 15.5002C18.6876 15.5019 18.0823 15.7536 17.6356 16.2002C17.189 16.6469 16.9373 17.2522 16.9356 17.8839V23.6979H23.6475C24.2791 23.6962 24.8845 23.4445 25.3311 22.9978C25.7778 22.5511 26.0295 21.9458 26.0312 21.3141V15.5002H19.3193Z" fill="#F7B916"/>
</svg>
