<svg width="43" height="43" viewBox="0 0 43 43" fill="none" xmlns="http://www.w3.org/2000/svg">
<path fill-rule="evenodd" clip-rule="evenodd" d="M21.4551 1.8374C29.9039 1.8374 36.7531 8.6871 36.7531 17.136C36.7531 21.234 36.7531 25.2167 36.7531 27.7199C36.7531 34.7788 41.459 37.1318 41.459 37.1318L1.45116 37.1318C1.45116 37.1318 6.15708 34.7788 6.15708 27.7199C6.15708 25.2167 6.15708 21.234 6.15708 17.1359C6.15708 8.68709 13.0062 1.8374 21.4551 1.8374Z" fill="white" stroke="#1062AA" stroke-width="2" stroke-linejoin="round"/>
<path fill-rule="evenodd" clip-rule="evenodd" d="M16.7492 37.1317C16.7492 39.7307 18.8561 41.8376 21.4551 41.8376C24.0541 41.8376 26.161 39.7307 26.161 37.1317" fill="white"/>
<path d="M16.7492 37.1317C16.7492 39.7307 18.8561 41.8376 21.4551 41.8376C24.0541 41.8376 26.161 39.7307 26.161 37.1317H16.7492Z" stroke="#1062AA" stroke-width="2"/>
<path d="M21.4551 27.1658C25.6972 27.1658 29.1361 23.7269 29.1361 19.4848C29.1361 15.2427 25.6972 11.8038 21.4551 11.8038C17.213 11.8038 13.7741 15.2427 13.7741 19.4848C13.7741 23.7269 17.213 27.1658 21.4551 27.1658Z" fill="#F7B916" stroke="#1062AA" stroke-width="2" stroke-miterlimit="10" stroke-linecap="round" stroke-linejoin="round"/>
<path d="M21.9233 15.3489V23.6207H21.0725V16.1052H19.1227V15.3489H21.9233Z" fill="#1062AA"/>
<path d="M11.7312 33.5187H37.9449" stroke="#1062AA" stroke-width="2" stroke-linecap="round" stroke-linejoin="round"/>
</svg>
