<svg width="43" height="43" viewBox="0 0 43 43" fill="none" xmlns="http://www.w3.org/2000/svg">
<path d="M14.0873 35.9687L7.2965 41.8374V35.9748C5.65355 35.9716 4.07882 35.3175 2.91708 34.1557C1.75534 32.994 1.10125 31.4193 1.09802 29.7763V8.02977C1.10286 6.38894 1.75682 4.81669 2.91706 3.65644C4.07731 2.4962 5.64956 1.84224 7.29039 1.8374L34.8843 1.83765C36.5283 1.83764 38.1053 2.48946 39.2695 3.65023C40.4337 4.811 41.0902 6.38601 41.095 8.03001V29.7766C41.0902 31.4206 40.4337 32.9956 39.2695 34.1564C38.1053 35.3171 36.5283 35.969 34.8843 35.9689L14.0873 35.9687Z" stroke="#1062AA" stroke-width="2" stroke-linecap="round" stroke-linejoin="round"/>
<path d="M17.8973 11.4336L11.9361 28.9421L29.5697 23.231L17.8973 11.4336Z" fill="#F7B916" stroke="#1062AA" stroke-width="2" stroke-miterlimit="10" stroke-linecap="round" stroke-linejoin="round"/>
<path d="M26.4801 14.7695L29.6546 11.5264" stroke="#1062AA" stroke-width="2" stroke-linecap="round" stroke-linejoin="round"/>
<path d="M22.6683 11.5263L23.9925 8.2251" stroke="#1062AA" stroke-width="2" stroke-linecap="round" stroke-linejoin="round"/>
<path d="M29.6546 17.8699L33.1834 17.424" stroke="#1062AA" stroke-width="2" stroke-linecap="round" stroke-linejoin="round"/>
</svg>
