<svg width="43" height="43" viewBox="0 0 43 43" fill="none" xmlns="http://www.w3.org/2000/svg">
<path d="M14.0873 35.4802L7.2965 41.3489V35.4863C5.65355 35.4831 4.07882 34.829 2.91708 33.6672C1.75534 32.5055 1.10125 30.9308 1.09802 29.2878V7.54124C1.10286 5.90041 1.75682 4.32817 2.91706 3.16792C4.07731 2.00767 5.64956 1.35371 7.29039 1.34888L34.8843 1.34912C36.5283 1.34911 38.1053 2.00094 39.2695 3.16171C40.4337 4.32248 41.0902 5.89749 41.095 7.54149V29.2881C41.0902 30.9321 40.4337 32.5071 39.2695 33.6678C38.1053 34.8286 36.5283 35.4804 34.8843 35.4804L14.0873 35.4802Z" stroke="#1062AA" stroke-width="2" stroke-linecap="round" stroke-linejoin="round"/>
<path d="M21.0965 8.61816C26.6194 8.61816 31.0965 13.0953 31.0965 18.6182H21.0965V8.61816Z" fill="#F7B916"/>
<path fill-rule="evenodd" clip-rule="evenodd" d="M21.0965 28.6182C26.6194 28.6182 31.0965 24.141 31.0965 18.6182C31.0965 13.0953 26.6194 8.61816 21.0965 8.61816C15.5737 8.61816 11.0965 13.0953 11.0965 18.6182C11.0965 24.141 15.5737 28.6182 21.0965 28.6182Z" stroke="#1062AA" stroke-width="2"/>
<path d="M21.0965 8.61816V18.6182M21.0965 28.6182V18.6182M21.0965 18.6182H31.0965" stroke="#1062AA" stroke-width="2"/>
</svg>
