<svg width="43" height="43" viewBox="0 0 43 43" fill="none" xmlns="http://www.w3.org/2000/svg">
<path d="M28.6559 23.515H28.6007C29.5918 22.8312 30.3384 21.8485 30.7314 20.7104C31.1244 19.5722 31.1432 18.3382 30.7851 17.1886C30.427 16.039 29.7108 15.034 28.741 14.3203C27.7712 13.6066 26.5987 13.2217 25.3946 13.2217C24.1905 13.2217 23.0179 13.6066 22.0481 14.3203C21.0784 15.034 20.3621 16.039 20.004 17.1886C19.646 18.3382 19.6648 19.5722 20.0578 20.7104C20.4508 21.8485 21.1973 22.8312 22.1885 23.515C18.1977 25.1763 15.2858 29.7556 15.1019 35.2299H35.7302C35.3379 30.0805 32.4812 25.0843 28.6559 23.515Z" fill="#F7B916"/>
<path d="M11.2092 13.2345H25.4069" stroke="#1062AA" stroke-width="2" stroke-linecap="round" stroke-linejoin="round"/>
<path d="M11.2092 19.6897H19.6751" stroke="#1062AA" stroke-width="2" stroke-linecap="round" stroke-linejoin="round"/>
<path d="M11.2092 26.1449H18.069" stroke="#1062AA" stroke-width="2" stroke-linecap="round" stroke-linejoin="round"/>
<path d="M25.4068 24.5142C28.5216 24.5142 31.0467 21.9891 31.0467 18.8743C31.0467 15.7595 28.5216 13.2345 25.4068 13.2345C22.292 13.2345 19.767 15.7595 19.767 18.8743C19.767 21.9891 22.292 24.5142 25.4068 24.5142Z" stroke="#1062AA" stroke-width="2" stroke-linecap="round" stroke-linejoin="round"/>
<path d="M28.6743 23.515C32.4934 25.0844 35.3379 29.3633 35.7302 34.5495" stroke="#1062AA" stroke-width="2" stroke-linecap="round" stroke-linejoin="round"/>
<path d="M15.1142 35.23C15.2981 29.7556 18.2161 25.1579 22.2069 23.515" stroke="#1062AA" stroke-width="2" stroke-linecap="round" stroke-linejoin="round"/>
<path d="M14.4398 35.4802L7.649 41.3489V35.4863C6.00606 35.4831 4.43133 34.829 3.26959 33.6672C2.10785 32.5055 1.45376 30.9308 1.45053 29.2878V7.54124C1.45536 5.90041 2.10932 4.32817 3.26957 3.16792C4.42982 2.00767 6.00207 1.35371 7.6429 1.34888L35.2368 1.34912C36.8809 1.34911 38.4578 2.00094 39.622 3.16171C40.7862 4.32248 41.4427 5.89749 41.4475 7.54149V29.2881C41.4427 30.9321 40.7862 32.5071 39.622 33.6678C38.4578 34.8286 36.8809 35.4804 35.2368 35.4804L14.4398 35.4802Z" stroke="#1062AA" stroke-width="2" stroke-linecap="round" stroke-linejoin="round"/>
</svg>
