<svg width="57" height="62" viewBox="0 0 57 62" fill="none" xmlns="http://www.w3.org/2000/svg">
<path d="M39.2704 20.7126H7.418C3.59962 20.7126 0.504211 23.808 0.504211 27.6263V54.5564C0.504211 58.3748 3.59962 61.4702 7.418 61.4702H39.2704C43.0888 61.4702 46.1842 58.3748 46.1842 54.5564V27.6263C46.1842 23.808 43.0888 20.7126 39.2704 20.7126Z" fill="#6FC6AD" stroke="#333333" stroke-linecap="round" stroke-linejoin="round"/>
<path d="M11.0638 20.7228C11.0638 20.7228 4.13983 21.0291 4.13983 13.809C4.14523 11.9752 4.87678 10.2183 6.17441 8.92256C7.47203 7.62685 9.23007 6.8979 11.0638 6.8952C19.0703 6.8952 23.768 20.6921 23.768 20.6921L11.0638 20.7228Z" fill="#F7B916" stroke="#333333" stroke-linecap="round" stroke-linejoin="round"/>
<path d="M35.8085 20.7228C35.8085 20.7228 42.7325 21.0291 42.7325 13.809C42.7271 11.9752 41.9955 10.2183 40.6979 8.92256C39.4003 7.62685 37.6422 6.8979 35.8085 6.8952C27.8019 6.8952 23.1042 20.6921 23.1042 20.6921L35.8085 20.7228Z" fill="#F7B916" stroke="#333333" stroke-linecap="round" stroke-linejoin="round"/>
<path d="M28.1083 20.7228H19.3767V61.46H28.1083V20.7228Z" fill="#F7B916" stroke="#333333" stroke-linecap="round" stroke-linejoin="round"/>
<path d="M30.9269 8.6211C30.9269 12.1035 23.4923 20.6819 23.4923 20.6819C23.4923 20.6819 16.3436 12.1035 16.3436 8.6211C16.3198 7.67583 16.4884 6.73557 16.8392 5.85748C17.1901 4.97938 17.7158 4.18179 18.3844 3.51316C19.053 2.84454 19.8506 2.31884 20.7287 1.96803C21.6068 1.61721 22.547 1.4486 23.4923 1.47243C25.4247 1.43956 27.2916 2.17309 28.6847 3.51266C30.0779 4.85223 30.884 6.68888 30.9269 8.6211Z" fill="#F7B916" stroke="#333333" stroke-linecap="round" stroke-linejoin="round"/>
<path d="M23.5127 52.6059C29.92 52.6059 35.114 47.4118 35.114 41.0046C35.114 34.5974 29.92 29.4033 23.5127 29.4033C17.1055 29.4033 11.9115 34.5974 11.9115 41.0046C11.9115 47.4118 17.1055 52.6059 23.5127 52.6059Z" fill="white" stroke="#333333" stroke-linecap="round" stroke-linejoin="round"/>
<path d="M20.6043 41.2847C19.9553 41.2847 19.4317 41.0554 19.0337 40.5968C18.6356 40.1382 18.4366 39.5368 18.4366 38.7926C18.4366 38.0484 18.6356 37.447 19.0337 36.9883C19.4317 36.5297 19.9553 36.3004 20.6043 36.3004C21.2533 36.3004 21.7768 36.5297 22.1749 36.9883C22.5816 37.4383 22.7849 38.0397 22.7849 38.7926C22.7849 39.5454 22.5816 40.1511 22.1749 40.6098C21.7768 41.0597 21.2533 41.2847 20.6043 41.2847ZM26.0559 36.3913H27.3279L21.1235 45.4773H19.8514L26.0559 36.3913ZM20.6043 40.3761C20.9591 40.3761 21.2316 40.2377 21.422 39.9608C21.621 39.6839 21.7206 39.2945 21.7206 38.7926C21.7206 38.2907 21.621 37.9013 21.422 37.6244C21.2316 37.3475 20.9591 37.209 20.6043 37.209C20.2668 37.209 19.9942 37.3518 19.7865 37.6373C19.5875 37.9143 19.488 38.2993 19.488 38.7926C19.488 39.2858 19.5875 39.6752 19.7865 39.9608C19.9942 40.2377 20.2668 40.3761 20.6043 40.3761ZM26.5621 45.5681C25.9131 45.5681 25.3896 45.3388 24.9915 44.8802C24.5935 44.4216 24.3944 43.8202 24.3944 43.076C24.3944 42.3318 24.5935 41.7304 24.9915 41.2717C25.3896 40.8131 25.9131 40.5838 26.5621 40.5838C27.2111 40.5838 27.7346 40.8131 28.1327 41.2717C28.5394 41.7304 28.7427 42.3318 28.7427 43.076C28.7427 43.8202 28.5394 44.4216 28.1327 44.8802C27.7346 45.3388 27.2111 45.5681 26.5621 45.5681ZM26.5621 44.6595C26.9082 44.6595 27.1808 44.5211 27.3798 44.2442C27.5789 43.9586 27.6784 43.5692 27.6784 43.076C27.6784 42.5827 27.5789 42.1977 27.3798 41.9207C27.1808 41.6352 26.9082 41.4924 26.5621 41.4924C26.216 41.4924 25.9434 41.6309 25.7444 41.9078C25.5453 42.1847 25.4458 42.5741 25.4458 43.076C25.4458 43.5779 25.5453 43.9673 25.7444 44.2442C25.9434 44.5211 26.216 44.6595 26.5621 44.6595Z" fill="#333333"/>
<path d="M49.7573 35.8197L52.7817 38.412V35.8197C54.2939 35.8197 55.5091 34.5775 55.5091 33.0923V23.452C55.5091 21.9398 54.2669 20.7246 52.7817 20.7246H41.3322C39.82 20.7246 38.6048 21.9668 38.6048 23.452V33.0653C38.6048 34.5775 39.847 35.7927 41.3322 35.7927L49.7573 35.8197Z" fill="white" stroke="#333333" stroke-miterlimit="10" stroke-linecap="round" stroke-linejoin="round"/>
<path d="M42.5128 28.2803H51.5128" stroke="#6FC6AD" stroke-linecap="round" stroke-linejoin="round"/>
<path d="M42.5128 25.6279H51.5128" stroke="#6FC6AD" stroke-linecap="round" stroke-linejoin="round"/>
<path d="M42.5128 30.8032H51.5128" stroke="#6FC6AD" stroke-linecap="round" stroke-linejoin="round"/>
</svg>
