<svg width="56" height="62" viewBox="0 0 56 62" fill="none" xmlns="http://www.w3.org/2000/svg">
<path d="M39.7428 54.7737H7.52239C3.70138 54.7737 0.5 51.6756 0.5 47.7513V16.6669H46.6619V47.7513C46.6619 51.6756 43.5638 54.7737 39.7428 54.7737Z" fill="white" stroke="#333333" stroke-miterlimit="10" stroke-linecap="round" stroke-linejoin="round"/>
<path d="M7.52239 5.30714H39.7428C43.5638 5.30714 46.7651 8.40526 46.7651 12.3295V16.6669H0.603278V12.3295C0.500007 8.40526 3.59812 5.30714 7.52239 5.30714Z" fill="#6FC6AD" stroke="#333333" stroke-miterlimit="10" stroke-linecap="round" stroke-linejoin="round"/>
<path d="M11.963 0.866722C11.2401 0.866722 10.7238 1.48634 10.7238 2.10597V10.0578C10.7238 10.7807 11.3434 11.297 11.963 11.297C12.6859 11.297 13.2023 10.6774 13.2023 10.0578V2.10597C13.3055 1.48634 12.6859 0.866722 11.963 0.866722Z" fill="white" stroke="#333333" stroke-miterlimit="10" stroke-linecap="round" stroke-linejoin="round"/>
<path d="M35.7152 0.866722C34.9923 0.866722 34.476 1.48634 34.476 2.10597V10.0578C34.476 10.7807 35.0956 11.297 35.7152 11.297C36.4381 11.297 36.9544 10.6774 36.9544 10.0578V2.10597C37.0577 1.48634 36.4381 0.866722 35.7152 0.866722Z" fill="white" stroke="#333333" stroke-miterlimit="10" stroke-linecap="round" stroke-linejoin="round"/>
<path d="M23.3227 22.2434L26.7307 29.2658L34.4759 30.4018L28.8993 35.7718L30.2418 43.5171L23.3227 39.9026L16.4036 43.5171L17.7461 35.7718L12.1695 30.4018L19.9148 29.2658L23.3227 22.2434Z" fill="#F7B916" stroke="#333333" stroke-miterlimit="10" stroke-linecap="round" stroke-linejoin="round"/>
<path d="M46.098 60.8667C51.2882 60.8667 55.4957 56.6593 55.4957 51.4691C55.4957 46.279 51.2882 42.0715 46.098 42.0715C40.9079 42.0715 36.7004 46.279 36.7004 51.4691C36.7004 56.6593 40.9079 60.8667 46.098 60.8667Z" fill="white" stroke="#333333" stroke-miterlimit="10" stroke-linecap="round" stroke-linejoin="round"/>
<path d="M45.9948 45.7893V51.9856H52.5008" fill="white"/>
<path d="M45.9948 45.7893V51.9856H52.5008" stroke="#333333" stroke-miterlimit="10" stroke-linecap="round" stroke-linejoin="round"/>
<path d="M8.03875 51.7791C8.66613 51.7791 9.17472 51.2705 9.17472 50.6432C9.17472 50.0158 8.66613 49.5072 8.03875 49.5072C7.41136 49.5072 6.90277 50.0158 6.90277 50.6432C6.90277 51.2705 7.41136 51.7791 8.03875 51.7791Z" fill="white" stroke="#333333" stroke-miterlimit="10" stroke-linecap="round" stroke-linejoin="round"/>
<path d="M13.6153 51.7791C14.2427 51.7791 14.7513 51.2705 14.7513 50.6432C14.7513 50.0158 14.2427 49.5072 13.6153 49.5072C12.988 49.5072 12.4794 50.0158 12.4794 50.6432C12.4794 51.2705 12.988 51.7791 13.6153 51.7791Z" fill="white" stroke="#333333" stroke-miterlimit="10" stroke-linecap="round" stroke-linejoin="round"/>
<path d="M19.1919 51.7791C19.8193 51.7791 20.3279 51.2705 20.3279 50.6432C20.3279 50.0158 19.8193 49.5072 19.1919 49.5072C18.5646 49.5072 18.056 50.0158 18.056 50.6432C18.056 51.2705 18.5646 51.7791 19.1919 51.7791Z" fill="white" stroke="#333333" stroke-miterlimit="10" stroke-linecap="round" stroke-linejoin="round"/>
<path d="M24.7685 51.7791C25.3959 51.7791 25.9045 51.2705 25.9045 50.6432C25.9045 50.0158 25.3959 49.5072 24.7685 49.5072C24.1412 49.5072 23.6326 50.0158 23.6326 50.6432C23.6326 51.2705 24.1412 51.7791 24.7685 51.7791Z" fill="white" stroke="#333333" stroke-miterlimit="10" stroke-linecap="round" stroke-linejoin="round"/>
<path d="M30.3451 51.7791C30.9725 51.7791 31.4811 51.2705 31.4811 50.6432C31.4811 50.0158 30.9725 49.5072 30.3451 49.5072C29.7178 49.5072 29.2092 50.0158 29.2092 50.6432C29.2092 51.2705 29.7178 51.7791 30.3451 51.7791Z" fill="white" stroke="#333333" stroke-miterlimit="10" stroke-linecap="round" stroke-linejoin="round"/>
</svg>
