<svg width="56" height="62" viewBox="0 0 56 62" fill="none" xmlns="http://www.w3.org/2000/svg">
<path d="M15.9306 13.4463L0.743195 58.0527L45.6682 43.5025L15.9306 13.4463Z" fill="white" stroke="#333333" stroke-miterlimit="10" stroke-linecap="round" stroke-linejoin="round"/>
<path d="M12.9569 22.2613L37.9152 45.9452L27.4008 49.3438L9.34586 32.7757L12.9569 22.2613Z" fill="#F7B916" stroke="#333333" stroke-miterlimit="10" stroke-linecap="round" stroke-linejoin="round"/>
<path d="M20.0726 51.6803L7.22175 39.148L4.99142 45.6266L13.3817 53.9106L20.0726 51.6803Z" fill="#6FC6AD" stroke="#333333" stroke-miterlimit="10" stroke-linecap="round" stroke-linejoin="round"/>
<path d="M50.1416 37.8735C51.3147 37.8735 52.2657 36.9225 52.2657 35.7493C52.2657 34.5762 51.3147 33.6252 50.1416 33.6252C48.9685 33.6252 48.0175 34.5762 48.0175 35.7493C48.0175 36.9225 48.9685 37.8735 50.1416 37.8735Z" fill="#F7B916" stroke="#333333" stroke-miterlimit="10" stroke-linecap="round" stroke-linejoin="round"/>
<path d="M20.0727 8.66371C21.2458 8.66371 22.1968 7.71271 22.1968 6.5396C22.1968 5.36648 21.2458 4.41548 20.0727 4.41548C18.8995 4.41548 17.9485 5.36648 17.9485 6.5396C17.9485 7.71271 18.8995 8.66371 20.0727 8.66371Z" fill="#F7B916" stroke="#333333" stroke-miterlimit="10" stroke-linecap="round" stroke-linejoin="round"/>
<path d="M31.5417 26.0701C31.5417 23.0527 33.938 20.6565 36.9554 20.6565H37.5767C40.5941 20.6565 42.9903 18.2603 42.9903 15.2428C42.9903 12.2254 45.3865 9.82914 48.404 9.82914H49.0252C52.0427 9.82914 54.4389 7.43293 54.4389 4.41548" stroke="#333333" stroke-miterlimit="10" stroke-linecap="round" stroke-linejoin="round"/>
<path d="M27.1044 21.4551C26.2169 19.8576 26.7494 17.9051 28.3468 17.0176L28.7018 16.8401C30.2993 15.9527 30.8318 14.0002 29.9443 12.4027C29.0568 10.8052 29.5893 8.85277 31.1868 7.96528L31.5418 7.78778C33.1393 6.9003 33.6717 4.94783 32.7843 3.35036" stroke="#333333" stroke-miterlimit="10" stroke-linecap="round" stroke-linejoin="round"/>
<path d="M38.1092 31.395C38.7853 29.8738 40.6445 29.1977 42.1658 29.8738L42.5038 30.0428C44.0251 30.7189 45.8843 30.0428 46.5604 28.5216C47.2365 27.0003 49.0958 26.3242 50.6171 27.0003L50.9551 27.1694C52.4763 27.8455 54.3356 27.1694 55.0117 25.6481" stroke="#333333" stroke-miterlimit="10" stroke-linecap="round" stroke-linejoin="round"/>
<path d="M42.9903 5.47455C44.1634 5.47455 45.1144 4.52355 45.1144 3.35043C45.1144 2.17732 44.1634 1.22632 42.9903 1.22632C41.8172 1.22632 40.8662 2.17732 40.8662 3.35043C40.8662 4.52355 41.8172 5.47455 42.9903 5.47455Z" fill="#F7B916" stroke="#333333" stroke-miterlimit="10" stroke-linecap="round" stroke-linejoin="round"/>
<path d="M0.105973 9.30415L2.4425 14.2958C2.76112 15.0393 3.82318 15.0393 4.248 14.402L6.58453 10.1538C6.90314 9.51656 6.58453 8.77312 5.84109 8.66692L1.16803 7.92347C0.318385 7.81727 -0.212644 8.56071 0.105973 9.30415Z" fill="#6FC6AD"/>
<path d="M49.0587 60.7252L53.5952 57.6461C54.3184 57.1876 54.1988 56.1872 53.3506 55.8827L48.827 54.2586C48.1201 54.0049 47.5383 54.5141 47.522 55.2264L47.5092 59.9295C47.4928 60.6418 48.3356 61.1837 49.0587 60.7252Z" fill="#6FC6AD"/>
</svg>
