<svg width="57" height="62" viewBox="0 0 57 62" fill="none" xmlns="http://www.w3.org/2000/svg">
<path fill-rule="evenodd" clip-rule="evenodd" d="M26.6184 5.6169C37.3899 5.6169 46.1219 14.3487 46.1219 25.1202C46.1219 31.3391 46.1219 37.5835 46.1219 41.3733C46.1219 51.125 52.623 54.3756 52.623 54.3756L0.61377 54.3756C0.61377 54.3756 7.11493 51.125 7.11493 41.3733C7.11493 37.5835 7.11493 31.3391 7.11493 25.1202C7.11493 14.3487 15.8469 5.6169 26.6184 5.6169Z" fill="#F7B916" stroke="#333333" stroke-linejoin="round"/>
<path fill-rule="evenodd" clip-rule="evenodd" d="M20.1172 54.3752C20.1172 57.9657 23.0279 60.8764 26.6184 60.8764C30.2089 60.8764 33.1196 57.9657 33.1196 54.3752" fill="#6FC6AD"/>
<path d="M20.1172 54.3752C20.1172 57.9657 23.0279 60.8764 26.6184 60.8764C30.2089 60.8764 33.1196 57.9657 33.1196 54.3752H20.1172Z" stroke="#333333"/>
<path d="M45.8598 26.163C51.1861 26.163 55.5039 21.8452 55.5039 16.519C55.5039 11.1927 51.1861 6.87489 45.8598 6.87489C40.5336 6.87489 36.2158 11.1927 36.2158 16.519C36.2158 21.8452 40.5336 26.163 45.8598 26.163Z" fill="white" stroke="#333333" stroke-miterlimit="10" stroke-linecap="round" stroke-linejoin="round"/>
<path d="M46.5862 11.4548V21.8407H45.5179V12.4044H43.0698V11.4548H46.5862Z" fill="#333333"/>
<path d="M21.4605 38.7284L24.1727 41.0531V38.7284C25.5287 38.7284 26.6184 37.6145 26.6184 36.2826V27.6378C26.6184 26.2817 25.5045 25.192 24.1727 25.192H13.9053C12.5493 25.192 11.4596 26.3059 11.4596 27.6378V36.2584C11.4596 37.6145 12.5735 38.7042 13.9053 38.7042L21.4605 38.7284Z" fill="white" stroke="#333333" stroke-miterlimit="10" stroke-linecap="round" stroke-linejoin="round"/>
<path d="M10.5009 30.642L13.2131 32.9667V30.642C14.5691 30.642 15.6588 29.5281 15.6588 28.1962V19.5513C15.6588 18.1953 14.5449 17.1056 13.2131 17.1056H2.94575C1.58969 17.1056 0.500001 18.2195 0.500001 19.5513V28.172C0.500001 29.5281 1.61391 30.6178 2.94575 30.6178L10.5009 30.642Z" fill="#6FC6AD" stroke="#333333" stroke-miterlimit="10" stroke-linecap="round" stroke-linejoin="round"/>
<path d="M14.8985 49.3839H47.7117" stroke="#333333" stroke-linecap="round" stroke-linejoin="round"/>
<path d="M31.7939 6.05202C31.7939 3.19364 29.4767 0.876465 26.6184 0.876465C23.76 0.876465 21.4428 3.19364 21.4428 6.05202" stroke="#333333" stroke-linecap="round" stroke-linejoin="round"/>
</svg>
