<svg width="40" height="40" viewBox="0 0 40 40" fill="none" xmlns="http://www.w3.org/2000/svg">
<circle cx="20" cy="20" r="19" stroke="#1062AA" stroke-width="2"/>
<path d="M19.5435 30.087C13.7149 30.087 9 25.372 9 19.5435C9 13.7149 13.7149 9 19.5435 9C25.372 9 30.087 13.7149 30.087 19.5435" stroke="#1062AA" stroke-width="2" stroke-miterlimit="10"/>
<path d="M19.5445 25.1114C22.6195 25.1114 25.1124 22.6185 25.1124 19.5435C25.1124 16.4684 22.6195 13.9756 19.5445 13.9756C16.4694 13.9756 13.9766 16.4684 13.9766 19.5435C13.9766 22.6185 16.4694 25.1114 19.5445 25.1114Z" stroke="#1062AA" stroke-width="2" stroke-miterlimit="10"/>
<path d="M30.0849 19.425C30.0849 21.0362 28.9714 22.1497 27.5972 22.1497C26.223 22.1497 25.1094 21.0362 25.1094 19.662" stroke="#1062AA" stroke-width="2" stroke-miterlimit="10"/>
</svg>
