<svg width="15" height="16" viewBox="0 0 15 16" fill="none" xmlns="http://www.w3.org/2000/svg">
<g clip-path="url(#clip0)">
<path d="M9.99807 0C11.5244 0 12.8928 0.956811 13.4718 2.33887C14.0507 3.72093 13.7349 5.31561 12.6297 6.43189C10.6297 8.45183 8.62965 10.5249 6.57702 12.5449C5.84018 13.289 4.68228 13.3953 3.84018 12.7575C2.94544 12.1196 2.57702 11.0033 2.99807 9.99335C3.10334 9.72757 3.31386 9.46179 3.52439 9.24917C5.31386 7.3887 7.10334 5.5814 8.94544 3.72093C9.31386 3.29568 9.84018 3.29568 10.156 3.61462C10.5244 3.98671 10.5244 4.46512 10.1033 4.89037C8.31386 6.69767 6.52439 8.50498 4.73492 10.3123C4.47176 10.5781 4.31386 10.8439 4.57702 11.1628C4.84018 11.5349 5.2086 11.5349 5.57702 11.1628C7.05071 9.62126 8.57702 8.13289 10.0507 6.59136C10.5244 6.11296 10.9981 5.63455 11.4718 5.15615C12.3139 4.25249 12.3139 3.08306 11.4718 2.23256C10.6297 1.38206 9.41913 1.38206 8.57702 2.23256C6.62965 4.19934 4.62965 6.16611 2.68228 8.18605C1.73492 9.14286 1.41913 10.3654 1.84018 11.6412C2.26123 12.9701 3.2086 13.7674 4.57702 14.0864C5.73492 14.3522 6.73492 14.0332 7.57702 13.1827C9.52439 11.1628 11.5244 9.19601 13.4718 7.22924C13.6823 7.06977 13.9454 6.85714 14.156 6.85714C14.4191 6.85714 14.6823 7.06977 14.8928 7.22924C15.1033 7.49502 15.0507 7.81395 14.8402 8.07973C14.7349 8.18605 14.6297 8.29236 14.5244 8.39867C12.577 10.3654 10.6823 12.3322 8.73492 14.2458C7.15597 15.8405 5.15597 16.2658 3.2086 15.4153C1.2086 14.5648 -0.10719 12.5449 -0.00192656 10.4186C0.050705 9.14286 0.524389 7.97342 1.41913 7.06977C3.41913 5.15615 5.47176 3.08306 7.47176 1.06312C8.15597 0.318937 8.99807 0 9.99807 0Z" fill="#1062AA"/>
</g>
<defs>
<clipPath id="clip0">
<rect width="15" height="16" fill="white"/>
</clipPath>
</defs>
</svg>
