<svg width="43" height="43" viewBox="0 0 43 43" fill="none" xmlns="http://www.w3.org/2000/svg">
<circle cx="23" cy="23" r="20" fill="#F7B916"/>
<path d="M18.7093 24.3817C18.7093 23.2496 18.85 22.3472 19.1314 21.6747C19.4128 21.0022 19.9671 20.2659 20.7942 19.4657C21.6298 18.657 22.1585 18.0824 22.3802 17.7419C22.7213 17.2227 22.8919 16.6608 22.8919 16.0565C22.8919 15.2563 22.6915 14.6476 22.2907 14.2305C21.8984 13.8049 21.3186 13.5921 20.5512 13.5921C19.8178 13.5921 19.2252 13.8006 18.7733 14.2177C18.3298 14.6263 18.1081 15.1839 18.1081 15.8905H15C15.0171 14.3837 15.5287 13.192 16.5349 12.3152C17.5496 11.4384 18.8884 11 20.5512 11C22.2651 11 23.5996 11.4341 24.5547 12.3024C25.5182 13.1707 26 14.3837 26 15.9415C26 17.3291 25.3519 18.6953 24.0558 20.0403L22.4826 21.5854C21.9198 22.2238 21.6298 23.1559 21.6128 24.3817H18.7093ZM18.4919 28.3528C18.4919 27.8506 18.6496 27.4462 18.9651 27.1398C19.2806 26.8248 19.707 26.6673 20.2442 26.6673C20.7899 26.6673 21.2205 26.8291 21.536 27.1526C21.8516 27.4675 22.0093 27.8676 22.0093 28.3528C22.0093 28.821 21.8558 29.2126 21.5488 29.5276C21.2419 29.8425 20.807 30 20.2442 30C19.6814 30 19.2465 29.8425 18.9395 29.5276C18.6411 29.2126 18.4919 28.821 18.4919 28.3528Z" fill="#1062AA"/>
<circle cx="20" cy="20" r="19" stroke="#1062AA" stroke-width="2"/>
</svg>
