<svg width="43" height="36" viewBox="0 0 43 36" fill="none" xmlns="http://www.w3.org/2000/svg">
<path d="M1.40509 13.9249L3.08085 15.6006C3.62098 16.1407 4.50733 16.1407 5.0336 15.6006L15.3375 5.29676C15.8776 4.75663 15.8776 3.87028 15.3375 3.34401L13.6617 1.66824C13.1216 1.12812 12.2352 1.12812 11.709 1.66824L1.40509 11.9583C0.86497 12.4984 0.86497 13.3847 1.40509 13.9249Z" stroke="#1062AA" stroke-width="2" stroke-miterlimit="10" stroke-linecap="round" stroke-linejoin="round"/>
<path d="M29.1199 1.40509L27.4442 3.08085C26.904 3.62098 26.904 4.50733 27.4442 5.0336L37.748 15.3375C38.2881 15.8776 39.1745 15.8776 39.7008 15.3375L41.3765 13.6617C41.9166 13.1216 41.9166 12.2352 41.3765 11.709L31.0727 1.40509C30.5325 0.86497 29.66 0.86497 29.1199 1.40509Z" stroke="#1062AA" stroke-width="2" stroke-miterlimit="10" stroke-linecap="round" stroke-linejoin="round"/>
<path d="M9.34064 25.1151C10.1854 25.9599 11.5842 25.9599 12.429 25.1151L14.6588 22.8853C15.5036 22.0405 15.5036 20.6417 14.6588 19.7969C13.814 18.9521 12.4152 18.9521 11.5704 19.7969L9.34064 22.0267C8.49583 22.8715 8.49583 24.2703 9.34064 25.1151Z" stroke="#1062AA" stroke-width="2" stroke-miterlimit="10" stroke-linecap="round" stroke-linejoin="round"/>
<path d="M15.9604 31.181C16.8052 32.0258 18.204 32.0258 19.0488 31.181L23.1897 27.0401C24.0345 26.1953 24.0345 24.7965 23.1897 23.9517C22.3449 23.1069 20.9461 23.1069 20.1013 23.9517L15.9604 28.0926C15.1017 28.9513 15.1017 30.3362 15.9604 31.181Z" stroke="#1062AA" stroke-width="2" stroke-miterlimit="10" stroke-linecap="round" stroke-linejoin="round"/>
<path d="M18.9305 34.3664C19.7753 35.2112 21.1741 35.2112 22.0189 34.3664L24.2486 32.1367C25.0934 31.2919 25.0934 29.8931 24.2486 29.0483C23.4038 28.2035 22.005 28.2035 21.1602 29.0483L18.9305 31.278C18.0857 32.1228 18.0857 33.5216 18.9305 34.3664Z" stroke="#1062AA" stroke-width="2" stroke-miterlimit="10" stroke-linecap="round" stroke-linejoin="round"/>
<path d="M12.4305 28.2034C13.2753 29.0482 14.6741 29.0482 15.5189 28.2034L19.6183 24.104C20.4631 23.2592 20.4631 21.8605 19.6183 21.0157C18.7734 20.1708 17.3747 20.1708 16.5299 21.0157L12.4305 25.115C11.5857 25.9598 11.5857 27.3586 12.4305 28.2034Z" stroke="#1062AA" stroke-width="2" stroke-miterlimit="10" stroke-linecap="round" stroke-linejoin="round"/>
<path d="M26.7095 21.2927L31.1413 25.7244C31.9861 26.5692 33.3848 26.5692 34.2297 25.7244C35.0745 24.8796 35.0745 23.4809 34.2297 22.6361L24.3828 12.7892" stroke="#1062AA" stroke-width="2" stroke-miterlimit="10" stroke-linecap="round" stroke-linejoin="round"/>
<path d="M23.5391 24.3118L27.9293 28.7574C28.7741 29.6022 30.1729 29.6022 31.0177 28.7574C31.8625 27.9126 31.8625 26.5138 31.0177 25.669L26.7659 21.4173" stroke="#1062AA" stroke-width="2" stroke-miterlimit="10" stroke-linecap="round" stroke-linejoin="round"/>
<path d="M26.7109 3.88409L18.3875 12.2075C17.5427 13.0523 17.5427 14.4511 18.3875 15.2959C19.2323 16.1407 20.6311 16.1407 21.4759 15.2959L24.495 12.2768" stroke="#1062AA" stroke-width="2" stroke-miterlimit="10" stroke-linecap="round" stroke-linejoin="round"/>
<path d="M32.1824 10.3656C31.8362 12.4014 30.0635 13.9664 27.9169 13.9664C26.5181 13.9664 25.2855 13.3016 24.4961 12.2768" stroke="#1062AA" stroke-width="2" stroke-miterlimit="10" stroke-linecap="round" stroke-linejoin="round"/>
<path d="M6.00391 14.6312L9.64627 21.722" stroke="#1062AA" stroke-width="2" stroke-miterlimit="10" stroke-linecap="round" stroke-linejoin="round"/>
<path d="M14.7734 5.87839L21.061 9.52075" stroke="#1062AA" stroke-width="2" stroke-miterlimit="10" stroke-linecap="round" stroke-linejoin="round"/>
<path d="M34.2305 22.6499L37.7482 15.3375" stroke="#1062AA" stroke-width="2" stroke-miterlimit="10" stroke-linecap="round" stroke-linejoin="round"/>
</svg>
