<svg width="40" height="40" viewBox="0 0 40 40" fill="none" xmlns="http://www.w3.org/2000/svg">
<circle cx="20" cy="20" r="19" stroke="#1062AA" stroke-width="2"/>
<path d="M23.3661 29.2987C23.9168 29.2987 24.6878 29.127 25.4589 28.7837C26.34 28.3831 27.056 27.6965 27.7719 27.0098C28.4328 26.3804 28.4878 25.751 27.9371 25.0071C27.2212 24.0916 26.34 23.2905 25.3487 22.6611C24.3574 22.0316 23.6965 22.1461 22.8154 22.9472C22.54 23.2333 22.2096 23.5194 21.9342 23.8055C21.5487 24.206 21.0531 24.3777 20.5023 24.206C20.1168 24.0916 19.7864 23.9199 19.456 23.691C18.3545 22.8899 17.5284 21.9172 16.7574 20.83C16.3168 20.2006 15.9864 19.5711 15.656 18.8845C15.2705 17.969 15.4907 17.3395 16.2618 16.7101C16.5922 16.4812 16.8676 16.1951 17.1429 15.9662C17.8589 15.3368 18.0791 14.5929 17.6936 13.6774C17.3632 12.8763 16.9226 12.1897 16.482 11.4458C16.2618 11.1025 16.0415 10.8164 15.7661 10.5303C15.1603 9.90084 14.5545 9.84362 13.8936 10.4158C13.6183 10.6447 13.3429 10.9308 13.0676 11.1597C12.0212 12.018 11.4154 13.1624 11.14 14.4785C10.8096 16.1951 11.0849 17.7973 11.7458 19.3423C13.2878 22.7755 15.6009 25.5793 18.5748 27.7537C19.8965 28.7264 21.3835 29.2987 23.3661 29.2987Z" stroke="#1062AA" stroke-width="2" stroke-miterlimit="10"/>
<path d="M23.3661 29.2987C21.3835 29.2987 19.8965 28.6692 18.5748 27.6965C15.6009 25.5221 13.2878 22.7755 11.7458 19.285C11.0849 17.7401 10.8096 16.1379 11.14 14.4213C11.4154 13.1624 12.0212 12.018 13.0676 11.1597C13.3429 10.9308 13.6183 10.6447 13.8936 10.4158C14.5545 9.84362 15.2154 9.84362 15.8212 10.5303C16.0965 10.8164 16.3719 11.1025 16.5371 11.4458C16.9777 12.1897 17.4183 12.9335 17.7487 13.6774C18.1342 14.5929 17.9139 15.3368 17.198 15.9662C16.9226 16.2523 16.5922 16.4812 16.3168 16.7101C15.5458 17.2823 15.3255 17.969 15.711 18.8845C15.9864 19.5711 16.3719 20.2006 16.8125 20.83C17.5835 21.9172 18.4647 22.9472 19.511 23.691C19.8415 23.9199 20.1719 24.0916 20.5574 24.206C21.1081 24.3777 21.6038 24.2632 21.9893 23.8055C22.2647 23.5194 22.54 23.2333 22.8705 22.9472C23.7516 22.1461 24.4125 22.0316 25.4038 22.6611C26.3951 23.2905 27.2763 24.0344 27.9922 25.0071C28.5429 25.751 28.4878 26.3804 27.827 27.0098C27.111 27.6965 26.4502 28.3831 25.5139 28.7837C24.6878 29.127 23.9168 29.2987 23.3661 29.2987Z" stroke="#1062AA" stroke-width="2" stroke-miterlimit="10"/>
</svg>
