<svg width="35" height="40" viewBox="0 0 35 40" fill="none" xmlns="http://www.w3.org/2000/svg">
<g clip-path="url(#clip0)">
<path d="M0.851562 11.1877C0.851562 8.37801 3.07575 6.07916 5.79419 6.07916H29.0554C31.7739 6.07916 33.9981 8.37801 33.9981 11.1877" fill="#F7B916"/>
<path d="M29.1297 39.0421H5.86841C3.14996 39.0421 0.925781 36.7433 0.925781 33.9336V11.1877C0.925781 8.37801 3.14996 6.07916 5.86841 6.07916H29.1297C31.8481 6.07916 34.0723 8.37801 34.0723 11.1877V33.94C34.0723 36.7433 31.8481 39.0421 29.1297 39.0421Z" stroke="#1062AA" stroke-width="2" stroke-miterlimit="10" stroke-linecap="round" stroke-linejoin="round"/>
<path d="M8.70405 33.5824C9.40354 33.5824 9.9706 32.9963 9.9706 32.2733C9.9706 31.5503 9.40354 30.9642 8.70405 30.9642C8.00455 30.9642 7.4375 31.5503 7.4375 32.2733C7.4375 32.9963 8.00455 33.5824 8.70405 33.5824Z" fill="#F7B916"/>
<path d="M17.4228 33.5824C18.1223 33.5824 18.6893 32.9963 18.6893 32.2733C18.6893 31.5503 18.1223 30.9642 17.4228 30.9642C16.7233 30.9642 16.1562 31.5503 16.1562 32.2733C16.1562 32.9963 16.7233 33.5824 17.4228 33.5824Z" fill="#F7B916"/>
<path d="M26.2939 33.5824C26.9934 33.5824 27.5604 32.9963 27.5604 32.2733C27.5604 31.5503 26.9934 30.9642 26.2939 30.9642C25.5944 30.9642 25.0273 31.5503 25.0273 32.2733C25.0273 32.9963 25.5944 33.5824 26.2939 33.5824Z" fill="#F7B916"/>
<path d="M8.70405 26.8582C9.40354 26.8582 9.9706 26.2722 9.9706 25.5492C9.9706 24.8262 9.40354 24.2401 8.70405 24.2401C8.00455 24.2401 7.4375 24.8262 7.4375 25.5492C7.4375 26.2722 8.00455 26.8582 8.70405 26.8582Z" fill="#F7B916"/>
<path d="M17.4228 26.8582C18.1223 26.8582 18.6893 26.2722 18.6893 25.5492C18.6893 24.8262 18.1223 24.2401 17.4228 24.2401C16.7233 24.2401 16.1562 24.8262 16.1562 25.5492C16.1562 26.2722 16.7233 26.8582 17.4228 26.8582Z" fill="#F7B916"/>
<path d="M26.2939 26.8582C26.9934 26.8582 27.5604 26.2722 27.5604 25.5492C27.5604 24.8262 26.9934 24.2401 26.2939 24.2401C25.5944 24.2401 25.0273 24.8262 25.0273 25.5492C25.0273 26.2722 25.5944 26.8582 26.2939 26.8582Z" fill="#F7B916"/>
<path d="M8.70405 20.1405C9.40354 20.1405 9.9706 19.5544 9.9706 18.8314C9.9706 18.1084 9.40354 17.5223 8.70405 17.5223C8.00455 17.5223 7.4375 18.1084 7.4375 18.8314C7.4375 19.5544 8.00455 20.1405 8.70405 20.1405Z" fill="#F7B916"/>
<path d="M17.4228 20.1405C18.1223 20.1405 18.6893 19.5544 18.6893 18.8314C18.6893 18.1084 18.1223 17.5223 17.4228 17.5223C16.7233 17.5223 16.1562 18.1084 16.1562 18.8314C16.1562 19.5544 16.7233 20.1405 17.4228 20.1405Z" fill="#F7B916"/>
<path d="M26.2939 20.1405C26.9934 20.1405 27.5604 19.5544 27.5604 18.8314C27.5604 18.1084 26.9934 17.5223 26.2939 17.5223C25.5944 17.5223 25.0273 18.1084 25.0273 18.8314C25.0273 19.5544 25.5944 20.1405 26.2939 20.1405Z" fill="#F7B916"/>
<path d="M8.70703 8.76753V0.957825" stroke="#1062AA" stroke-width="2" stroke-miterlimit="10" stroke-linecap="round" stroke-linejoin="round"/>
<path d="M26.2969 8.76753V0.957825" stroke="#1062AA" stroke-width="2" stroke-miterlimit="10" stroke-linecap="round" stroke-linejoin="round"/>
<path d="M0.925781 12.0754H34.0723" stroke="#1062AA" stroke-width="2" stroke-miterlimit="10" stroke-linecap="round" stroke-linejoin="round"/>
</g>
<defs>
<clipPath id="clip0">
<rect width="35" height="40" fill="white"/>
</clipPath>
</defs>
</svg>
