<svg width="8" height="18" viewBox="0 0 8 18" fill="none" xmlns="http://www.w3.org/2000/svg">
<path fill-rule="evenodd" clip-rule="evenodd" d="M1.7595 9.30698V17.6127C1.7595 17.6707 1.78253 17.7263 1.82352 17.7672C1.86451 17.8082 1.9201 17.8313 1.97807 17.8313H5.05993C5.1179 17.8313 5.17349 17.8082 5.21448 17.7672C5.25547 17.7263 5.2785 17.6707 5.2785 17.6127V9.16491H7.46421C7.49149 9.16638 7.51879 9.16246 7.54455 9.15336C7.5703 9.14427 7.59401 9.13018 7.61432 9.11191C7.63462 9.09363 7.65112 9.07153 7.66287 9.04687C7.67462 9.02221 7.68139 8.99547 7.68278 8.96819L7.90135 6.42184C7.90284 6.39223 7.89828 6.36263 7.88796 6.33483C7.87764 6.30704 7.86178 6.28164 7.84133 6.26017C7.82089 6.2387 7.79629 6.22162 7.76903 6.20996C7.74177 6.1983 7.71243 6.1923 7.68278 6.19234H5.2785V4.38912C5.28133 4.28865 5.30393 4.18972 5.34501 4.09798C5.3861 4.00625 5.44485 3.92351 5.51793 3.8545C5.591 3.78548 5.67696 3.73154 5.77089 3.69576C5.86482 3.65999 5.96488 3.64307 6.06536 3.64598H7.79207C7.82028 3.64602 7.84821 3.64031 7.87414 3.6292C7.90007 3.61809 7.92347 3.60181 7.9429 3.58135C7.96233 3.5609 7.97739 3.5367 7.98716 3.51023C7.99693 3.48376 8.0012 3.45558 7.99971 3.42741V0.859196C8.0012 0.831023 7.99693 0.802843 7.98716 0.776375C7.97739 0.749907 7.96233 0.725708 7.9429 0.705254C7.92347 0.6848 7.90007 0.66852 7.87414 0.657408C7.84821 0.646297 7.82028 0.640586 7.79207 0.640625H4.85228C4.03102 0.643517 3.24439 0.97179 2.66469 1.55354C2.08499 2.13528 1.7595 2.92307 1.7595 3.74434V6.19234H0.218571C0.160603 6.19234 0.105008 6.21537 0.0640181 6.25636C0.023028 6.29735 1.99482e-07 6.35294 1.99482e-07 6.41091V8.95727C-3.89046e-05 8.98548 0.00567151 9.0134 0.0167832 9.03934C0.0278949 9.06527 0.0441748 9.08866 0.0646288 9.1081C0.0850829 9.12753 0.109283 9.14258 0.135751 9.15235C0.162218 9.16212 0.190398 9.16639 0.218571 9.16491H1.7595V9.30698Z" fill="#1062AA"/>
</svg>
