<svg width="18" height="18" viewBox="0 0 18 18" fill="none" xmlns="http://www.w3.org/2000/svg">
<path d="M8.92 2.44C11.05 2.44 11.3 2.44 12.14 2.44C12.6474 2.45795 13.148 2.5628 13.62 2.75C13.9688 2.87163 14.284 3.07376 14.54 3.34C14.804 3.59985 15.0086 3.91368 15.14 4.26C15.3183 4.73656 15.4097 5.24119 15.41 5.75C15.41 6.59 15.41 6.84 15.41 8.97C15.41 11.1 15.41 11.35 15.41 12.19C15.4085 12.6954 15.3171 13.1966 15.14 13.67C15.0058 14.0149 14.8014 14.3281 14.5397 14.5897C14.2781 14.8514 13.9649 15.0558 13.62 15.19C13.1466 15.3671 12.6454 15.4585 12.14 15.46C11.3 15.46 11.05 15.46 8.92 15.46C6.79 15.46 6.54 15.46 5.7 15.46C5.19456 15.4585 4.69341 15.3671 4.22 15.19C3.87368 15.0586 3.55985 14.854 3.3 14.59C3.03014 14.335 2.82452 14.0198 2.7 13.67C2.52306 13.1962 2.42836 12.6957 2.42 12.19C2.42 11.35 2.42 11.1 2.42 8.97C2.42 6.84 2.42 6.59 2.42 5.75C2.42836 5.24432 2.52306 4.74379 2.7 4.27C2.82802 3.92159 3.03027 3.60519 3.29273 3.34273C3.55519 3.08027 3.87159 2.87802 4.22 2.75C4.69438 2.57647 5.1949 2.48516 5.7 2.48C6.54 2.48 6.79 2.48 8.92 2.48V2.44ZM8.92 1.04C6.76 1.04 6.49 1.04 5.64 1.04C4.97646 1.0557 4.32043 1.1842 3.7 1.42C3.16681 1.61677 2.68486 1.93123 2.29 2.34C1.88123 2.73486 1.56677 3.21681 1.37 3.75C1.13761 4.37102 1.0125 5.02704 1 5.69C1 6.54 1 6.81 1 8.97C1 11.13 1 11.41 1 12.26C1.01127 12.9198 1.13645 13.5728 1.37 14.19C1.56636 14.7263 1.88078 15.2116 2.29 15.61C2.68941 16.0132 3.17005 16.3268 3.7 16.53C4.32237 16.7576 4.97757 16.8825 5.64 16.9C6.49 16.9 6.76 16.9 8.92 16.9C11.08 16.9 11.36 16.9 12.21 16.9C12.8693 16.8836 13.5214 16.7586 14.14 16.53C14.6744 16.3295 15.1597 16.0169 15.5633 15.6133C15.9669 15.2097 16.2795 14.7244 16.48 14.19C16.7086 13.5714 16.8336 12.9193 16.85 12.26C16.85 11.41 16.85 11.14 16.85 8.97C16.85 6.8 16.85 6.54 16.85 5.69C16.8325 5.02757 16.7076 4.37237 16.48 3.75C16.2768 3.22005 15.9632 2.73941 15.56 2.34C15.1616 1.93078 14.6763 1.61636 14.14 1.42C13.5228 1.18645 12.8698 1.06127 12.21 1.05C11.36 1.01 11.09 1 8.92 1V1.04ZM8.92 4.92C8.10867 4.92 7.31558 5.16072 6.64113 5.61168C5.96667 6.06263 5.44117 6.70356 5.13115 7.45332C4.82112 8.20308 4.74052 9.02796 4.89953 9.82355C5.05854 10.6191 5.45002 11.3497 6.02442 11.9227C6.59881 12.4957 7.3303 12.8854 8.12628 13.0424C8.92226 13.1995 9.74694 13.1169 10.4959 12.805C11.2449 12.4932 11.8846 11.9661 12.3339 11.2906C12.7832 10.615 13.022 9.82133 13.02 9.01C13.0253 8.46869 12.9231 7.93172 12.7193 7.43022C12.5155 6.92871 12.2142 6.47265 11.8328 6.08848C11.4514 5.70431 10.9976 5.39967 10.4975 5.19222C9.99754 4.98478 9.46133 4.87865 8.92 4.88V4.92ZM8.92 11.67C8.3939 11.67 7.87962 11.514 7.44218 11.2217C7.00475 10.9294 6.66381 10.514 6.46248 10.0279C6.26115 9.54189 6.20847 9.00705 6.31111 8.49106C6.41375 7.97507 6.66709 7.5011 7.0391 7.1291C7.4111 6.75709 7.88507 6.50375 8.40106 6.40111C8.91705 6.29847 9.45189 6.35115 9.93794 6.55248C10.424 6.75381 10.8394 7.09475 11.1317 7.53218C11.424 7.96962 11.58 8.4839 11.58 9.01C11.5695 9.70852 11.2846 10.3749 10.7869 10.8651C10.2892 11.3553 9.6186 11.6301 8.92 11.63V11.67ZM14.13 4.75C14.0667 4.9538 13.9399 5.13201 13.768 5.25857C13.5962 5.38512 13.3884 5.45339 13.175 5.45339C12.9616 5.45339 12.7538 5.38512 12.582 5.25857C12.4101 5.13201 12.2833 4.9538 12.22 4.75C12.1735 4.60034 12.1629 4.44185 12.1889 4.28732C12.2149 4.13279 12.2769 3.98653 12.3698 3.86035C12.4628 3.73417 12.5841 3.6316 12.7239 3.56091C12.8638 3.49022 13.0183 3.45339 13.175 3.45339C13.3317 3.45339 13.4862 3.49022 13.6261 3.56091C13.7659 3.6316 13.8872 3.73417 13.9802 3.86035C14.0731 3.98653 14.1351 4.13279 14.1611 4.28732C14.1871 4.44185 14.1765 4.60034 14.13 4.75Z" fill="#333333" stroke="#333333" stroke-width="0.5" stroke-miterlimit="10"/>
</svg>
