<svg width="19" height="16" viewBox="0 0 19 16" fill="none" xmlns="http://www.w3.org/2000/svg">
<path d="M18.6069 1.86288C18.0023 2.1295 17.367 2.31591 16.7165 2.4176C17.0234 2.4176 17.4775 1.79984 17.6494 1.57291C17.9324 1.22233 18.1489 0.820356 18.2877 0.387829C18.2877 0.387829 18.2877 0.312185 18.2877 0.286971C18.2728 0.278119 18.2559 0.273459 18.2386 0.273459C18.2214 0.273459 18.2045 0.278119 18.1895 0.286971C17.4788 0.674559 16.7243 0.970951 15.9431 1.16948C15.9193 1.18522 15.8916 1.19359 15.8633 1.19359C15.835 1.19359 15.8073 1.18522 15.7835 1.16948L15.5871 0.967762C15.2626 0.679596 14.8933 0.449463 14.4946 0.286971C13.9666 0.0627621 13.395 -0.0321945 12.8251 0.00961153C12.2723 0.0459806 11.7329 0.200569 11.2416 0.463472C10.7432 0.72621 10.3049 1.09476 9.95569 1.54467C9.60649 1.99459 9.35441 2.51561 9.21615 3.07317C9.10566 3.62209 9.10566 4.18842 9.21615 4.73733C9.21615 4.82558 9.21615 4.83819 9.13023 4.82558C6.1498 4.51913 3.38994 3.0749 1.39668 0.778653C1.31075 0.677795 1.26165 0.677795 1.18799 0.778653C0.781224 1.53961 0.625937 2.41561 0.745473 3.27498C0.865009 4.13435 1.25291 4.93065 1.85087 5.54419C1.99817 5.68287 2.15776 5.83416 2.32961 5.97284C1.8082 5.93029 1.29969 5.78474 0.832004 5.54419C0.746076 5.54419 0.696974 5.5442 0.696974 5.61984C0.678992 5.77056 0.678992 5.92298 0.696974 6.0737C0.788043 6.79095 1.06349 7.47034 1.49498 8.04201C1.92647 8.61368 2.49844 9.057 3.15207 9.32637C3.30902 9.39745 3.47395 9.44827 3.64309 9.47766C3.15921 9.55687 2.66618 9.55687 2.18231 9.47766C2.07183 9.47766 2.035 9.47766 2.07183 9.61634C2.3251 10.2895 2.74068 10.8855 3.27961 11.3486C3.81853 11.8117 4.46313 12.1266 5.15297 12.2639H5.57034C4.97272 12.8171 4.25189 13.2111 3.47123 13.4111C2.44955 13.7868 1.36029 13.9288 0.279608 13.8272C0.107751 13.8272 0.070925 13.8272 0.0218231 13.8272C-0.0272788 13.8272 0.0218231 13.9028 0.0218231 13.9532L0.684699 14.3567C1.34856 14.7532 2.05239 15.0744 2.7838 15.3148C4.68966 15.9071 6.71366 15.9743 8.65278 15.5096C10.5919 15.0449 12.3779 14.0647 13.8317 12.6673C14.876 11.5025 15.6832 10.1353 16.206 8.64584C16.7287 7.15636 16.9566 5.57464 16.876 3.9935C16.876 3.86743 17.0234 3.80439 17.1093 3.74136C17.681 3.28459 18.1855 2.7453 18.6069 2.14024C18.6717 2.04928 18.7022 1.93733 18.6928 1.82506C18.6928 1.82506 18.6928 1.82506 18.6069 1.86288Z" fill="#1062AA"/>
<path fill-rule="evenodd" clip-rule="evenodd" d="M6.12109 15.781C6.12109 15.781 6.45252 15.781 6.12109 15.781C6.12109 15.7684 6.15792 15.781 6.12109 15.781Z" fill="#1062AA"/>
</svg>
