<svg width="22" height="13" viewBox="0 0 22 13" fill="none" xmlns="http://www.w3.org/2000/svg">
<path d="M21.8303 11.7196L21.7546 11.5702C21.1544 10.597 20.4192 9.72006 19.5724 8.96746C19.0837 8.491 18.7739 8.16388 18.6431 8.00032C18.532 7.87331 18.4582 7.71631 18.4302 7.54759C18.4021 7.37888 18.4211 7.20541 18.4848 7.0474C18.7716 6.49395 19.1155 5.97417 19.5105 5.49713C19.8271 5.08467 20.075 4.75044 20.2539 4.49443C21.5756 2.68815 22.147 1.53137 21.968 1.0241L21.8991 0.910316C21.8038 0.809465 21.6816 0.74016 21.5481 0.711199C21.3071 0.662496 21.0593 0.662496 20.8184 0.711199H17.528C17.4537 0.689638 17.3751 0.689638 17.3008 0.711199H17.1494L17.0943 0.746756L17.0461 0.782313C16.9981 0.814563 16.9561 0.85552 16.9222 0.903206C16.8738 0.965771 16.8344 1.03523 16.8052 1.10943C16.4643 2.02406 16.057 2.91076 15.5868 3.76196C15.3045 4.25265 15.043 4.67221 14.8089 5.03489C14.611 5.30623 14.3923 5.56069 14.155 5.79581C14.0185 5.93987 13.8737 6.07523 13.7213 6.20115C13.5905 6.30071 13.4872 6.35049 13.4184 6.32916L13.2257 6.28649C13.1187 6.21256 13.0312 6.11238 12.971 5.99492C12.8971 5.85177 12.8526 5.69441 12.8402 5.53269C12.8182 5.37473 12.8045 5.21569 12.7989 5.05623C12.7989 4.92111 12.7989 4.73622 12.7989 4.48732C12.7989 4.23842 12.7989 4.08197 12.7989 3.99664C12.7989 3.69796 12.7989 3.37084 12.7989 3.02238C12.7989 2.67393 12.7989 2.39659 12.7989 2.19036C12.7989 1.98413 12.7989 1.77079 12.7989 1.54323C12.8029 1.36209 12.7891 1.181 12.7576 1.00276C12.729 0.873923 12.6898 0.747832 12.6405 0.625863C12.5884 0.511204 12.5076 0.413002 12.4065 0.341409C12.2868 0.268656 12.1567 0.215858 12.021 0.18496C11.5135 0.0790693 10.9968 0.0266501 10.479 0.0285102C9.55209 -0.0538496 8.61838 0.0426094 7.72556 0.312965C7.56175 0.404002 7.4149 0.524397 7.29188 0.668532C7.15421 0.839204 7.14044 0.931651 7.23681 0.952985C7.4233 0.964707 7.60552 1.01552 7.77238 1.10232C7.93924 1.18912 8.08726 1.3101 8.20742 1.45789L8.27626 1.60012C8.35068 1.77273 8.40387 1.9543 8.43458 2.14058C8.49226 2.42391 8.5268 2.71175 8.53784 3.00105C8.57928 3.49317 8.57928 3.98809 8.53784 4.48021C8.53784 4.88555 8.46212 5.19134 8.4277 5.43313C8.40452 5.62484 8.35346 5.81184 8.27626 5.98781C8.20742 6.13004 8.15923 6.21538 8.13858 6.25093C8.12402 6.27345 8.10531 6.29278 8.08351 6.30782C7.98391 6.34394 7.8793 6.36315 7.77375 6.36471C7.63198 6.35265 7.49731 6.29551 7.38826 6.20115C7.21005 6.07322 7.05015 5.92 6.91328 5.74603C6.70544 5.49267 6.5189 5.22146 6.3557 4.93534C6.12177 4.53945 5.90808 4.13117 5.71551 3.71218L5.53654 3.37084C5.41951 3.15039 5.26807 2.83038 5.06844 2.41081C4.86881 1.99124 4.69672 1.57878 4.53839 1.18766C4.48945 1.03601 4.39552 0.90414 4.26993 0.810758L4.30435 0.817869C4.25069 0.774271 4.19014 0.740589 4.12537 0.718311C4.04151 0.681558 3.95369 0.655296 3.86379 0.640086H0.731697C0.613159 0.625083 0.492873 0.63774 0.379697 0.677123C0.266521 0.716506 0.163336 0.781612 0.077743 0.867648L0.036441 0.938762C0.00686509 0.995281 -0.0051521 1.05984 0.0020223 1.12366C0.00587941 1.23377 0.0292097 1.34223 0.0708598 1.44367C0.529775 2.55304 1.0254 3.62211 1.55774 4.65088C2.09467 5.68202 2.56277 6.51405 2.93449 7.13985C3.30621 7.76565 3.73988 8.363 4.14602 8.9248C4.55216 9.48659 4.8344 9.84216 4.96519 9.99861C5.09598 10.1551 5.20612 10.276 5.28184 10.3542L5.56407 10.6386C5.81661 10.8943 6.0857 11.1319 6.36947 11.3498C6.74893 11.6307 7.1418 11.8918 7.54658 12.132C8.01994 12.4019 8.52405 12.6098 9.04723 12.7507C9.5885 12.9094 10.151 12.9767 10.7131 12.9498H12.0279C12.2548 12.9446 12.4713 12.8506 12.6337 12.6867L12.6818 12.6298C12.7176 12.5599 12.7453 12.4859 12.7644 12.4094C12.7931 12.3053 12.807 12.1975 12.8057 12.0893C12.7939 11.7674 12.8193 11.4451 12.8815 11.1293C12.9194 10.9176 12.9842 10.7119 13.0742 10.5177C13.1421 10.3912 13.2254 10.2741 13.322 10.1693C13.3788 10.1039 13.4436 10.0465 13.5148 9.99861L13.6043 9.95594C13.7185 9.93039 13.8371 9.93386 13.9498 9.96607C14.0625 9.99827 14.166 10.0582 14.2513 10.1408C14.5102 10.3454 14.7417 10.5845 14.9397 10.852C15.16 11.1222 15.4216 11.428 15.7244 11.7693C15.9657 12.0474 16.2332 12.2999 16.523 12.5231L16.7501 12.6654C16.9395 12.7743 17.1405 12.8602 17.349 12.9214C17.5518 12.9959 17.7693 13.0179 17.9823 12.9854L20.9354 12.9071C21.1738 12.9232 21.4118 12.8716 21.6238 12.7578C21.7543 12.6906 21.857 12.5769 21.9129 12.4378C21.9404 12.3042 21.9404 12.1661 21.9129 12.0325C21.8965 11.9254 21.8688 11.8204 21.8303 11.7196Z" fill="#1062AA"/>
</svg>
