<svg width="69" height="68" viewBox="0 0 69 68" fill="none" xmlns="http://www.w3.org/2000/svg">
<path d="M55.02 2H14C7.37258 2 2 7.37258 2 14V54C2 60.6274 7.37258 66 14 66H55.02C61.6474 66 67.02 60.6274 67.02 54V14C67.02 7.37258 61.6474 2 55.02 2Z" stroke="#1062AA" stroke-width="3" stroke-linecap="round" stroke-linejoin="round"/>
<path d="M47 31.768C48.3333 32.5378 48.3333 34.4623 47 35.2321L31.25 44.3253C29.9167 45.0951 28.25 44.1329 28.25 42.5933L28.25 24.4067C28.25 22.8671 29.9167 21.9049 31.25 22.6747L47 31.768Z" fill="#F7B916"/>
<circle cx="34" cy="34" r="19" stroke="#1062AA" stroke-width="2"/>
<path d="M42 34L30 40.9282L30 27.0718L42 34Z" stroke="#1062AA" stroke-width="2" stroke-linecap="square" stroke-linejoin="round"/>
</svg>
