<svg width="69" height="68" viewBox="0 0 69 68" fill="none" xmlns="http://www.w3.org/2000/svg">
<path d="M33.5 18H53" stroke="#F7B916" stroke-width="3" stroke-linecap="round" stroke-linejoin="round"/>
<path d="M33.5 29H53" stroke="#F7B916" stroke-width="3" stroke-linecap="round" stroke-linejoin="round"/>
<path d="M17 40H53" stroke="#F7B916" stroke-width="3" stroke-linecap="round" stroke-linejoin="round"/>
<path d="M17 51H53" stroke="#F7B916" stroke-width="3" stroke-linecap="round" stroke-linejoin="round"/>
<path d="M55.02 2H14C7.37258 2 2 7.37258 2 14V54C2 60.6274 7.37258 66 14 66H55.02C61.6474 66 67.02 60.6274 67.02 54V14C67.02 7.37258 61.6474 2 55.02 2Z" stroke="#1062AA" stroke-width="3" stroke-linecap="round" stroke-linejoin="round"/>
<path d="M24.9623 27.5076H19.0166L17.7726 31H15L20.7982 16H23.1913L29 31H26.2169L24.9623 27.5076ZM19.7651 25.4059H24.2139L21.9895 19.1834L19.7651 25.4059Z" fill="#1062AA"/>
</svg>
