<svg width="67" height="67" viewBox="0 0 67 67" fill="none" xmlns="http://www.w3.org/2000/svg">
<path d="M35.7827 67C48.1596 67 48.2822 52.975 45.5862 46.0626C42.8902 39.1503 36.7631 33.0394 28.9203 29.5331C26.4694 28.4311 23.7735 27.5295 21.0775 26.6279C12.3769 23.4222 2.45087 18.7138 0 11V67H35.7827Z" fill="#F7B916"/>
<path d="M25.4992 43H9.09922C8.29922 43 7.69922 42.4 7.69922 41.6C7.69922 40.8 8.29922 40.2 9.09922 40.2H25.4992C26.2992 40.2 26.8992 40.8 26.8992 41.6C26.8992 42.4 26.1992 43 25.4992 43Z" fill="#F7B916"/>
<path d="M24.7992 61.4H8.39922C7.99922 61.4 7.69922 61.1 7.69922 60.7V59.3C7.69922 58.9 7.99922 58.6 8.39922 58.6H26.0992C26.4992 58.6 26.7992 58.9 26.7992 59.3C26.8992 60.5 25.8992 61.4 24.7992 61.4Z" fill="#F7B916"/>
<path d="M25.7992 46.6H8.79922C8.19922 46.6 7.69922 46.1 7.69922 45.5C7.69922 44.9 8.19922 44.4 8.79922 44.4H25.7992C26.3992 44.4 26.8992 44.9 26.8992 45.5C26.8992 46.1 26.3992 46.6 25.7992 46.6Z" fill="#F7B916"/>
<path d="M25.7992 50.2H8.79922C8.19922 50.2 7.69922 49.7 7.69922 49.1C7.69922 48.5 8.19922 48 8.79922 48H25.7992C26.3992 48 26.8992 48.5 26.8992 49.1C26.8992 49.7 26.3992 50.2 25.7992 50.2Z" fill="#F7B916"/>
<path d="M25.7992 53.7H8.79922C8.19922 53.7 7.69922 53.2 7.69922 52.6C7.69922 52 8.19922 51.5 8.79922 51.5H25.7992C26.3992 51.5 26.8992 52 26.8992 52.6C26.8992 53.2 26.3992 53.7 25.7992 53.7Z" fill="#F7B916"/>
<path d="M25.7992 57.3H8.79922C8.19922 57.3 7.69922 56.8 7.69922 56.2C7.69922 55.6 8.19922 55.1 8.79922 55.1H25.7992C26.3992 55.1 26.8992 55.6 26.8992 56.2C26.8992 56.8 26.3992 57.3 25.7992 57.3Z" fill="#F7B916"/>
<path d="M25.5008 10.8H8.70078C7.60078 10.8 6.80078 9.9 6.80078 8.9C6.80078 7.8 7.70078 7 8.70078 7H25.5008C26.6008 7 27.4008 7.9 27.4008 8.9C27.4008 9.9 26.5008 10.8 25.5008 10.8Z" fill="#F7B916"/>
<path d="M24.9008 9.8H8.20078C7.10078 9.8 6.30078 8.9 6.30078 7.9C6.30078 6.8 7.20078 6 8.20078 6H25.0008C26.1008 6 26.9008 6.9 26.9008 7.9C26.9008 8.9 26.0008 9.8 24.9008 9.8Z" stroke="#1062AA" stroke-width="2" stroke-miterlimit="10" stroke-linecap="round" stroke-linejoin="round"/>
<path d="M25.8992 61.4H7.19922C6.69922 61.4 6.19922 60.9 6.19922 60.4V39.9C6.19922 39.4 6.69922 38.9 7.19922 38.9H25.7992C26.3992 38.9 26.7992 39.4 26.7992 39.9V60.4C26.8992 60.9 26.3992 61.4 25.8992 61.4Z" stroke="#1062AA" stroke-width="2" stroke-miterlimit="10" stroke-linecap="round" stroke-linejoin="round"/>
<path d="M6.19922 43H26.8992" stroke="#1062AA" stroke-width="2" stroke-miterlimit="10" stroke-linecap="round" stroke-linejoin="round"/>
<path d="M6.19922 20.2H26.8992" stroke="#1062AA" stroke-width="2" stroke-miterlimit="10" stroke-linecap="round" stroke-linejoin="round"/>
<path d="M6.19922 23.3H26.8992" stroke="#1062AA" stroke-width="2" stroke-miterlimit="10" stroke-linecap="round" stroke-linejoin="round"/>
<path d="M6.19922 26.3H26.8992" stroke="#1062AA" stroke-width="2" stroke-miterlimit="10" stroke-linecap="round" stroke-linejoin="round"/>
<path d="M6.19922 46.6H26.8992" stroke="#1062AA" stroke-width="2" stroke-miterlimit="10" stroke-linecap="round" stroke-linejoin="round"/>
<path d="M6.19922 50.2H26.8992" stroke="#1062AA" stroke-width="2" stroke-miterlimit="10" stroke-linecap="round" stroke-linejoin="round"/>
<path d="M6.19922 53.7H26.8992" stroke="#1062AA" stroke-width="2" stroke-miterlimit="10" stroke-linecap="round" stroke-linejoin="round"/>
<path d="M6.19922 57.3H26.8992" stroke="#1062AA" stroke-width="2" stroke-miterlimit="10" stroke-linecap="round" stroke-linejoin="round"/>
<path d="M4 66H29.1C30.7 66 32.1 64.7 32.1 63V4C32.1 2.3 30.7 1 29.1 1H4C2.4 1 1 2.3 1 4V63C1 64.6 2.4 66 4 66Z" stroke="#1062AA" stroke-width="2" stroke-miterlimit="10" stroke-linecap="round" stroke-linejoin="round"/>
<path d="M49.8984 46.5H63.9984C65.0984 46.5 65.8984 47.4 65.8984 48.4V62.5" stroke="#1062AA" stroke-width="2" stroke-miterlimit="10" stroke-linecap="round" stroke-linejoin="round"/>
<path d="M40.6992 51.8L53.4992 56.3L65.9992 51.8V59.9V64.1C65.9992 65.2 65.0992 66 64.0992 66H42.6992C41.5992 66 40.7992 65.1 40.7992 64.1V48.5C40.7992 47.4 41.6992 46.6 42.6992 46.6H49.9992" stroke="#1062AA" stroke-width="2" stroke-miterlimit="10" stroke-linecap="round" stroke-linejoin="round"/>
<path d="M56.4977 50.7C56.5977 50.6 56.5977 50.4 56.5977 50.2C56.5977 49.6 56.0977 49.1 55.4977 49.1H51.1977C50.5977 49.1 50.0977 49.6 50.0977 50.2C50.0977 50.4 50.0977 50.5 50.1977 50.7C50.1977 50.7 50.1977 50.8 50.2977 50.9C50.7977 51.5 52.4977 53.4 52.4977 53.4C52.6977 53.6 52.9977 53.8 53.3977 53.8C53.7977 53.8 54.0977 53.6 54.2977 53.4L56.3977 50.9C56.5977 50.7 56.5977 50.5 56.5977 50.2C56.5977 49.6 56.0977 49.1 55.4977 49.1H51.1977C50.5977 49.1 50.0977 49.6 50.0977 50.2C50.0977 50.5 50.1977 50.7 50.2977 50.9" fill="#F7B916"/>
<path d="M46.6992 21.5L56.8992 15.5C57.6992 15.1 58.6992 15.3 59.0992 16.1L65.0992 26.2" stroke="#1062AA" stroke-width="2" stroke-miterlimit="10" stroke-linecap="round" stroke-linejoin="round"/>
<path d="M42.4008 29.3L53.5008 27.1L60.6008 18.6L64.0008 24.4L65.8008 27.4C66.2008 28.2 66.0008 29.2 65.2008 29.6L49.8008 38.7C49.0008 39.1 48.0008 38.9 47.6008 38.1L41.0008 26.8C40.6008 26 40.8008 25 41.6008 24.6L46.8008 21.5" stroke="#1062AA" stroke-width="2" stroke-miterlimit="10" stroke-linecap="round" stroke-linejoin="round"/>
<path d="M53.2999 21.7C53.2999 21.6 53.2999 21.4 53.1999 21.3C52.8999 20.9 52.3999 20.7 51.8999 21L48.7999 22.8C48.3999 23.1 48.1999 23.6 48.4999 24.1C48.5999 24.2 48.6999 24.3 48.7999 24.4C48.7999 24.4 48.8999 24.5 48.9999 24.5C49.5999 24.7 51.5999 25.4 51.5999 25.4C51.7999 25.5 52.0999 25.5 52.3999 25.3C52.6999 25.1 52.7999 24.9 52.7999 24.6L53.2999 21.9C53.2999 21.7 53.2999 21.5 53.1999 21.3C52.8999 20.9 52.3999 20.7 51.8999 21L48.7999 22.8C48.3999 23.1 48.1999 23.6 48.4999 24.1C48.5999 24.3 48.7999 24.4 48.9999 24.5" fill="#F7B916"/>
</svg>
