<svg width="67" height="67" viewBox="0 0 67 67" fill="none" xmlns="http://www.w3.org/2000/svg">
<g clip-path="url(#clip0)">
<path d="M67.0008 43.6L59.8008 31L64.0008 28.6L61.8008 23.3L57.0008 26.1L55.2008 23C54.4008 21.6 54.2008 20.4 56.3008 19.2L58.9008 17.7L56.4008 13.3C55.9008 13.5 54.3008 14.2 52.5008 15.3C48.8008 17.4 47.5008 21.2 49.9008 25.4L52.0008 29L47.8008 31.4L50.6008 36.3L54.8008 33.9L62.0008 46.5L67.0008 43.6Z" fill="#1062AA"/>
<path d="M27.3016 26.4C39.6016 26.4 46.3016 16.2 46.3016 7.40002C46.3016 7.10002 46.3016 6.80002 46.3016 6.50002C47.6016 5.60002 48.7016 4.40002 49.6016 3.00002C48.4016 3.50002 47.1016 3.90002 45.8016 4.10002C47.2016 3.30002 48.2016 2.00002 48.7016 0.400024C47.4016 1.20002 46.0016 1.70002 44.5016 2.00002C43.3016 0.700024 41.5016 -0.0999756 39.6016 -0.0999756C36.0016 2.44156e-05 33.0016 3.00002 33.0016 6.70002C33.0016 7.20002 33.1016 7.70002 33.2016 8.20002C27.7016 7.90002 22.7016 5.30002 19.4016 1.20002C18.8016 2.20002 18.5016 3.30002 18.5016 4.60002C18.5016 6.90002 19.7016 9.00002 21.5016 10.2C20.4016 10.2 19.4016 9.90002 18.5016 9.40002V9.50002C18.5016 12.7 20.8016 15.4 23.9016 16C23.3016 16.2 22.7016 16.2 22.1016 16.2C21.7016 16.2 21.3016 16.2 20.8016 16.1C21.6016 18.8 24.1016 20.7 27.0016 20.7C24.7016 22.5 21.8016 23.6 18.7016 23.6C18.2016 23.6 17.6016 23.6 17.1016 23.5C20.1016 25.3 23.6016 26.4 27.3016 26.4Z" fill="#1DA1F2"/>
<path d="M5 10C7.76142 10 10 7.76142 10 5C10 2.23858 7.76142 0 5 0C2.23858 0 0 2.23858 0 5C0 7.76142 2.23858 10 5 10Z" fill="#F7B916"/>
<path d="M5 24.3C7.76142 24.3 10 22.0614 10 19.3C10 16.5386 7.76142 14.3 5 14.3C2.23858 14.3 0 16.5386 0 19.3C0 22.0614 2.23858 24.3 5 24.3Z" fill="#F7B916"/>
<path d="M5 38.5C7.76142 38.5 10 36.2614 10 33.5C10 30.7386 7.76142 28.5 5 28.5C2.23858 28.5 0 30.7386 0 33.5C0 36.2614 2.23858 38.5 5 38.5Z" fill="#F7B916"/>
<path d="M5 52.7C7.76142 52.7 10 50.4614 10 47.7C10 44.9386 7.76142 42.7 5 42.7C2.23858 42.7 0 44.9386 0 47.7C0 50.4614 2.23858 52.7 5 52.7Z" fill="#F7B916"/>
<path d="M5 67C7.76142 67 10 64.7614 10 62C10 59.2386 7.76142 57 5 57C2.23858 57 0 59.2386 0 62C0 64.7614 2.23858 67 5 67Z" fill="#F7B916"/>
<path d="M46.6016 66H19.6016C18.0016 66 16.6016 64.7 16.6016 63V44C16.6016 42.4 18.0016 41 19.6016 41H46.6016C48.2016 41 49.6016 42.4 49.6016 44V63C49.6016 64.6 48.3016 66 46.6016 66Z" stroke="#1062AA" stroke-width="2" stroke-miterlimit="10" stroke-linecap="round" stroke-linejoin="round"/>
<path d="M16.7031 47.8L30.5031 52.6C32.2031 53.2 34.1031 53.2 35.8031 52.6L49.6031 47.8" stroke="#1062AA" stroke-width="2" stroke-miterlimit="10" stroke-linecap="round" stroke-linejoin="round"/>
</g>
<defs>
<clipPath id="clip0">
<rect width="67" height="67" fill="white"/>
</clipPath>
</defs>
</svg>
