<svg width="96" height="96" viewBox="0 0 96 96" fill="none" xmlns="http://www.w3.org/2000/svg">
<path d="M24.413 73.9769C25.9776 71.0469 26.042 67.4666 25.3857 64.185C24.7294 60.9035 23.4227 57.7978 22.3327 54.6393C19.9888 47.7832 18.6644 40.1771 21.0963 33.3445C24.9404 22.5272 35.0604 14.5226 46.4402 13.0342C49.2973 12.5721 52.2224 12.7726 54.9898 13.6202C59.7128 15.2317 63.1936 19.3746 65.3618 23.8691C67.5299 28.3636 68.5964 33.2976 70.0497 38.0676C71.3623 42.357 70.161 47.0976 69.95 51.5453C69.868 53.2681 69.786 54.9967 69.868 56.7196C70.0614 60.7101 71.1279 64.6011 72.212 68.4393C70.2196 66.8982 67.4713 66.6813 64.9926 67.1618C62.5139 67.6424 60.1816 68.6327 57.7556 69.3007C57.2731 69.4624 56.7627 69.5242 56.2555 69.4824C54.7788 69.2773 54.0405 67.6072 53.6537 66.1657C53.1422 64.2404 52.7624 62.2826 52.5169 60.3058C52.4678 60.1085 52.458 59.9034 52.4881 59.7023C52.5183 59.5012 52.5878 59.308 52.6927 59.1338C52.931 58.9033 53.2296 58.7448 53.5541 58.6768C55.8512 57.8974 57.4861 55.864 58.7167 53.7779C61.0247 49.8316 62.3493 45.3877 62.5783 40.8217C56.3596 38.099 51.1749 33.4585 47.7821 27.5784C48.2626 32.3601 44.6178 37.1945 39.8948 38.05C37.4453 38.4895 34.7381 38.0148 32.5875 39.2747C29.8744 40.8745 29.2708 44.7654 30.4604 47.6895C31.6499 50.6136 34.1462 52.7641 36.6191 54.7213C39.092 56.6785 41.7055 58.7061 43.2407 61.4778C44.776 64.2495 44.9284 68.0525 42.6841 70.2676C41.2249 70.5313 39.5314 71.6564 38.1134 72.0666C36.3906 72.5705 34.5564 72.1076 32.7926 71.7736C31.0288 71.4396 29.0716 71.2696 27.5597 72.2365C26.3526 72.9924 25.7725 74.4222 24.413 73.9769Z" fill="#FBBF36"/>
<path d="M36.9419 70.5665C37.5913 70.4891 38.2496 70.582 38.8522 70.8361C39.5256 71.2927 40.0559 71.9306 40.3817 72.6761C42.5498 76.4616 46.4525 79.4267 50.8122 79.6611C55.172 79.8955 59.7075 76.8952 60.4869 72.6292C60.6744 71.6096 60.6744 70.5021 61.2604 69.6407C61.5506 69.2528 61.9054 68.9178 62.3093 68.6504C64.0407 67.4305 66.1049 66.7717 68.2229 66.7628C70.3409 66.754 72.4105 67.3956 74.1521 68.601C75.8936 69.8063 77.2231 71.5173 77.9609 73.5026C78.6987 75.488 78.8092 77.6519 78.2775 79.7021C77.252 83.6516 74.0056 86.6343 70.5776 88.8494C62.9805 93.7553 53.9351 95.9179 44.9406 94.9788C37.4341 94.1467 26.2945 90.3378 21.9465 83.5637C15.946 74.2465 30.6894 70.7658 36.9419 70.5665Z" fill="#6FC6AD"/>
<path d="M48 94C73.4051 94 94 73.4051 94 48C94 22.5949 73.4051 2 48 2C22.5949 2 2 22.5949 2 48C2 73.4051 22.5949 94 48 94Z" stroke="#1062AA" stroke-width="3" stroke-linecap="round" stroke-linejoin="round"/>
<path d="M21.4515 84.3899C21.2055 82.7515 21.3169 81.0793 21.778 79.488C22.2391 77.8967 23.039 76.424 24.1228 75.171C25.2067 73.9179 26.5487 72.9142 28.057 72.2286C29.5653 71.5431 31.204 71.1919 32.8607 71.1993C34.6597 71.1993 36.4411 71.6329 38.2459 71.6447C40.0508 71.6564 42.0021 71.1407 43.0803 69.6933C44.8734 67.2849 43.3733 63.892 43.7366 60.9035" stroke="#333333" stroke-width="1.5" stroke-linecap="round" stroke-linejoin="round"/>
<path d="M53.3398 60.0422C53.4087 62.0858 53.6697 64.1184 54.1192 66.1131C54.4181 67.455 54.963 68.9551 56.2463 69.4415C57.3128 69.8399 58.4848 69.3887 59.5513 68.9903C63.1961 67.6249 67.3508 66.8573 70.9195 68.4043C75.7421 70.5021 78.0158 76.2096 78.1623 81.4659" stroke="#333333" stroke-width="1.5" stroke-linecap="round" stroke-linejoin="round"/>
<path d="M30.254 40.7689C29.3867 46.3651 32.3167 52.2191 36.5944 56.0573C38.9473 58.2547 41.8243 59.8122 44.9505 60.5811C48.105 61.3304 51.4271 60.824 54.215 59.1689C55.1298 58.574 55.9733 57.876 56.7289 57.0887C58.8123 54.9354 60.4358 52.3808 61.5006 49.5802C62.5655 46.7797 63.0493 43.7917 62.9228 40.7982" stroke="#333333" stroke-width="1.5" stroke-linecap="round" stroke-linejoin="round"/>
<path d="M48.1003 24.4843C49.3368 29.5883 45.9205 35.3602 40.8517 36.7256C38.7187 37.3116 36.4451 37.1709 34.3179 37.7569C30.3801 38.8469 27.2744 42.7261 27.4912 46.828C27.8252 52.893 34.3003 56.6023 36.9431 62.0637C38.3482 64.988 38.6115 68.3313 37.6815 71.4395" stroke="#333333" stroke-width="1.5" stroke-linecap="round" stroke-linejoin="round"/>
<path d="M48.2852 25.5275C48.8711 29.5005 50.8108 33.2918 54.145 35.5244C57.5906 37.8215 62.2258 38.8528 64.2064 42.4859C64.6662 43.4196 65.0181 44.4026 65.2553 45.4159C66.1929 48.7853 67.1305 52.3305 66.3101 55.7234C65.3784 59.5675 62.2082 63.2064 63.3802 66.9861" stroke="#333333" stroke-width="1.5" stroke-linecap="round" stroke-linejoin="round"/>
<path d="M25.2272 72.8049C27.8817 66.6051 23.8325 59.7374 21.5882 53.3501C18.8985 45.7323 18.9337 36.7022 22.8598 29.7114C24.6331 26.7125 26.8949 24.0308 29.5518 21.7771C35.3355 16.6497 42.6486 12.7822 50.0613 13.7315C61.1951 15.1555 69.1235 27.3147 70.1138 39.3567C70.9108 49.0841 68.2855 59.3682 71.7605 68.3865" stroke="#333333" stroke-width="1.5" stroke-linecap="round" stroke-linejoin="round"/>
<path d="M34.0299 71.123C34.6248 68.8276 34.3838 66.3953 33.3501 64.2611C32.8789 63.3746 32.3605 62.5139 31.7972 61.6828C28.9611 57.1766 27.8242 51.9437 27.5195 46.6288" stroke="#333333" stroke-width="2" stroke-linecap="round" stroke-linejoin="round"/>
<path d="M37.5576 42.3512C37.5406 42.5831 37.5994 42.8142 37.7252 43.0097C37.8509 43.2052 38.0368 43.3546 38.2549 43.4353C38.6934 43.5852 39.159 43.6392 39.6202 43.5935C39.8015 43.6093 39.982 43.5547 40.1242 43.4411C40.2167 43.3215 40.2699 43.1762 40.2765 43.0251C40.3527 42.4391 40.3586 41.6773 39.837 41.3726C39.641 41.2801 39.4269 41.2321 39.21 41.232C38.8088 41.1711 38.3985 41.2388 38.0381 41.4253C37.867 41.5246 37.7421 41.6875 37.6905 41.8785C37.6389 42.0694 37.6648 42.273 37.7627 42.445" stroke="#333333" stroke-width="1.5" stroke-linecap="round" stroke-linejoin="round"/>
<path d="M34.6875 43.2243C35.1563 42.8786 35.5606 42.4626 36.0236 42.111C37.0621 41.346 38.3131 40.9237 39.6028 40.9027C40.8924 40.8817 42.1566 41.263 43.2195 41.9938" stroke="#333333" stroke-width="1.5" stroke-linecap="round" stroke-linejoin="round"/>
<path d="M55.2625 41.3901C55.293 41.6201 55.2484 41.8539 55.1355 42.0566C55.0225 42.2593 54.8472 42.4201 54.6355 42.5152C54.2082 42.6968 53.7458 42.7809 53.2819 42.7613C53.2011 42.7851 53.1159 42.7897 53.0331 42.7746C52.9502 42.7595 52.8721 42.7253 52.8049 42.6746C52.7377 42.6239 52.6833 42.5582 52.646 42.4827C52.6088 42.4072 52.5897 42.324 52.5904 42.2398C52.4732 41.6538 52.4205 40.8979 52.9244 40.5639C53.12 40.4536 53.3389 40.3913 53.5632 40.3822C53.9571 40.3011 54.3666 40.3441 54.7351 40.5053C54.9138 40.5924 55.0505 40.7469 55.1153 40.9347C55.1801 41.1226 55.1677 41.3285 55.0809 41.5073" stroke="#333333" stroke-width="1.5" stroke-linecap="round" stroke-linejoin="round"/>
<path d="M58.1726 42.0815C57.6862 41.7651 57.2526 41.3783 56.7721 41.0502C55.6858 40.3549 54.4102 40.0147 53.1219 40.0766C51.8337 40.1386 50.5966 40.5996 49.582 41.3959" stroke="#333333" stroke-width="1.5" stroke-linecap="round" stroke-linejoin="round"/>
<path d="M45.0117 47.6602C45.502 48.0828 46.0387 48.4484 46.6115 48.7501C46.918 48.9449 47.2817 49.0297 47.6428 48.9903C48.0127 48.8646 48.3303 48.6193 48.5452 48.293L49.5941 47.0097" stroke="#333333" stroke-width="1.5" stroke-linecap="round" stroke-linejoin="round"/>
<path d="M44.5977 54.0768C45.7253 54.4162 46.9099 54.5237 48.0802 54.3928C49.2505 54.2619 50.3821 53.8953 51.4068 53.3151" stroke="#333333" stroke-width="1.5" stroke-linecap="round" stroke-linejoin="round"/>
<path d="M47.1523 56.5731C47.8856 56.7662 48.6602 56.7315 49.3732 56.4734" stroke="#333333" stroke-width="1.5" stroke-linecap="round" stroke-linejoin="round"/>
</svg>
