<svg width="361" height="360" fill="none" xmlns="http://www.w3.org/2000/svg"><path d="M1 359.45v-61L259.61 39.91a40.099 40.099 0 0156.56 0l43.88 43.87v275.67H1z" fill="#1F4A6A"/><path d="M1 298.48L260.83 38.65a27.09 27.09 0 0138.19 0l61 61v259.8H1v-60.97z" fill="#6FC6AD"/><path d="M360 359.45H1v-35.41L244.83 80.2 360 195.36v164.09z" fill="#fff"/><path d="M360 157.73l-21.91-21.9a4.7 4.7 0 010-6.64 4.7 4.7 0 016.64 0L360 144.45v13.28zm-43.769-45.87a5.09 5.09 0 100-10.18 5.09 5.09 0 000 10.18z" fill="#1F4A6A"/><path d="M334.7 339.22L197.83 202.35a12.024 12.024 0 01-2.612-3.898 12.016 12.016 0 010-9.204 12.024 12.024 0 012.612-3.898l29.85-29.86a12.008 12.008 0 018.5-3.529 11.993 11.993 0 018.5 3.529L360 270.86v60l-8.33 8.33a12 12 0 01-16.97.03z" fill="#81859C"/><path d="M360 298.37L241.24 179.61a3.658 3.658 0 010-5.16 3.669 3.669 0 015.17 0L360 288v10.37zm-3.214 9.811L235.319 186.714a3.65 3.65 0 00-5.162 0l-.007.007a3.65 3.65 0 000 5.162L351.617 313.35a3.65 3.65 0 005.162 0l.007-.007a3.65 3.65 0 000-5.162zm-78.237-46.101l-59-58.46a3.67 3.67 0 010-5.17 3.658 3.658 0 015.16 0l59 58.46a3.67 3.67 0 010 5.17 3.66 3.66 0 01-5.16 0z" fill="#6FC6AD"/><path d="M239.61 359.45L140.17 260a12.008 12.008 0 01-3.529-8.5 11.997 11.997 0 013.529-8.5l29.86-29.86a12.008 12.008 0 018.5-3.529 11.997 11.997 0 018.5 3.529L323.87 350a12.411 12.411 0 013.47 9.41l-87.73.04zm-115.29 0l-41.8-41.8a12.007 12.007 0 01-3.53-8.5 12.003 12.003 0 013.53-8.5l29.86-29.86a11.998 11.998 0 0117 0l88.63 88.63-93.69.03z" fill="#81859C"/><path d="M303.61 359L182.19 237.51a3.67 3.67 0 010-5.17 3.662 3.662 0 015.16 0L308.82 353.8a3.67 3.67 0 010 5.17 6.943 6.943 0 01-.59.48h-4a7.045 7.045 0 01-.62-.45zm-22.829.45l-109.67-109.68a3.658 3.658 0 011.183-5.954 3.639 3.639 0 013.977.794l114.85 114.84h-10.34zm-22.341 0l-97.94-97.94a3.67 3.67 0 010-5.17 3.672 3.672 0 015.17 0l103.1 103.11h-10.33zm-69.61 0l-63.13-63.13a3.67 3.67 0 010-5.17 3.656 3.656 0 015.16 0l68.3 68.3h-10.33zm-23.349 0l-50.87-50.87a3.658 3.658 0 010-5.16 3.658 3.658 0 015.16 0l56 56-10.29.03zm-22.341 0l-39.13-39.13a3.67 3.67 0 010-5.17 3.672 3.672 0 015.17 0l44.29 44.3h-10.33z" fill="#6FC6AD"/><path d="M185.791 42.8c11.542 0 20.9-9.357 20.9-20.9S197.333 1 185.791 1c-11.543 0-20.9 9.357-20.9 20.9s9.357 20.9 20.9 20.9zM22.51 210.25c11.542 0 20.9-9.357 20.9-20.9s-9.358-20.9-20.9-20.9c-11.543 0-20.9 9.357-20.9 20.9s9.357 20.9 20.9 20.9zm77.839-89.95c11.543 0 20.9-9.357 20.9-20.9s-9.357-20.9-20.9-20.9-20.9 9.357-20.9 20.9 9.358 20.9 20.9 20.9zm92.282-77.51l28.82 138.32m-111.912-62.94l55.35 120.36M34.3 206.56l75.241 87.93" stroke="#F7B916" stroke-width="2" stroke-linecap="round" stroke-linejoin="round"/><path d="M184.889 32.93v-2.8a8.15 8.15 0 01-4.28-1.22l.67-1.86a7.352 7.352 0 004 1.19c2 0 3.31-1.14 3.31-2.72 0-1.58-1.09-2.47-3.14-3.3-2.83-1.11-4.58-2.39-4.58-4.8 0-2.41 1.64-4.05 4.19-4.47v-2.8h1.72v2.69c1.27.015 2.514.36 3.61 1l-.69 1.83a6.767 6.767 0 00-3.5-.94c-2.14 0-2.94 1.27-2.94 2.38 0 1.45 1 2.17 3.44 3.17 2.86 1.16 4.3 2.61 4.3 5.08a4.836 4.836 0 01-4.39 4.69v2.88h-1.72z" fill="#6FC6AD"/><path d="M16.68 188.37l5.89 5.93 7.95-11.3m78.471-91.33h-17.28a3 3 0 00-3 3v9.46a3 3 0 003 3h17.28a3 3 0 003-3v-9.46a3 3 0 00-3-3z" stroke="#6FC6AD" stroke-width="2" stroke-linecap="round" stroke-linejoin="round"/><path d="M111.99 101.64h-9.59a2.05 2.05 0 01-2.05-2v0a2.06 2.06 0 012.05-2.06h9.59" stroke="#6FC6AD" stroke-width="2" stroke-linecap="round" stroke-linejoin="round"/></svg>