<svg width="359" height="359" fill="none" xmlns="http://www.w3.org/2000/svg"><path d="M272.89 120.7c11.543 0 20.9-9.357 20.9-20.9s-9.357-20.9-20.9-20.9-20.9 9.357-20.9 20.9 9.357 20.9 20.9 20.9zm3.24 167.47c11.543 0 20.9-9.357 20.9-20.9s-9.357-20.9-20.9-20.9c-11.542 0-20.9 9.357-20.9 20.9s9.358 20.9 20.9 20.9z" stroke="#F7B916" stroke-width="2" stroke-linecap="round" stroke-linejoin="round"/><path d="M269.971 266.06l5.89 5.93 7.95-11.3" stroke="#1F4A6A" stroke-width="2" stroke-linecap="round" stroke-linejoin="round"/><path d="M0 0h166.48a39.998 39.998 0 0140 40v319H0V0z" fill="#1F4A6A"/><path d="M0 11.2h179.49a27 27 0 0127 27V359H0V11.2z" fill="#6FC6AD"/><path d="M188.42 78.9H0V359h188.42V78.9z" fill="#fff"/><path d="M0 42.9h119.54a4.698 4.698 0 014.7 4.7 4.704 4.704 0 01-4.7 4.7H0v-9.4z" fill="#1F4A6A"/><path d="M0 132.29h142c3.183 0 6.235 1.264 8.485 3.515A11.996 11.996 0 01154 144.29v42.23c0 3.183-1.264 6.235-3.515 8.485A11.996 11.996 0 01142 198.52H0v-66.23z" fill="#81859C"/><path d="M0 145.43h134.84a3.653 3.653 0 013.65 3.65 3.653 3.653 0 01-3.65 3.65H0v-7.31.01zm0 16.51h135.67a3.649 3.649 0 013.65 3.65 3.653 3.653 0 01-3.65 3.65H0v-7.31.01zm0 16.86h87a3.652 3.652 0 013.65 3.65A3.651 3.651 0 0187 186.1H0v-7.3z" fill="#6FC6AD"/><path d="M0 219h142c3.183 0 6.235 1.264 8.485 3.515A11.996 11.996 0 01154 231v42.23c0 3.183-1.264 6.235-3.515 8.485A11.996 11.996 0 01142 285.23H0V219z" fill="#81859C"/><path d="M0 232.1h134.84a3.653 3.653 0 013.65 3.65 3.653 3.653 0 01-3.65 3.65H0v-7.3zm0 16.5h135.67a3.653 3.653 0 013.65 3.65 3.653 3.653 0 01-3.65 3.65H0v-7.3zm0 16.86h87a3.652 3.652 0 013.375 5.05A3.648 3.648 0 0187 272.77H0v-7.31z" fill="#6FC6AD"/><path d="M0 311.26h144.81a9.219 9.219 0 019.19 9.2v0a9.224 9.224 0 01-2.7 6.49 9.224 9.224 0 01-6.49 2.7H0" stroke="#1F4A6A" stroke-miterlimit="10"/><path d="M144.83 329.12a8.66 8.66 0 008.66-8.66 8.66 8.66 0 00-8.66-8.66 8.66 8.66 0 00-8.66 8.66 8.66 8.66 0 008.66 8.66z" fill="#6FC6AD"/><path d="M142.811 319.97l2.02-2.19v6.52m1.939-4.4l-1.94-2.12" stroke="#1F4A6A" stroke-linecap="round" stroke-linejoin="round"/><path d="M336.91 184.34c11.543 0 20.9-9.357 20.9-20.9s-9.357-20.9-20.9-20.9-20.9 9.357-20.9 20.9 9.357 20.9 20.9 20.9z" stroke="#F7B916" stroke-width="2" stroke-linecap="round" stroke-linejoin="round"/><path d="M326.69 169.3v-10.49l-2.43 2.13v-2l2.43-2.09h1.78v12.45h-1.78zm5.99 0v-1.59l4.78-5.81c.41-.457.644-1.046.66-1.66 0-1.25-.6-1.88-1.81-1.88a1.808 1.808 0 00-1.28.44 1.894 1.894 0 00-.56 1.48h-1.78a3.376 3.376 0 011-2.55 3.996 3.996 0 015.2 0 3.378 3.378 0 011 2.55c.006.483-.097.962-.3 1.4a6.983 6.983 0 01-.87 1.29l-3.89 4.76h5.06v1.59l-7.21-.02zm15.42-.78a4.486 4.486 0 01-5.3.07 3.38 3.38 0 01-1.19-2.66h1.78a1.922 1.922 0 00.65 1.44c.391.311.881.471 1.38.45a2.051 2.051 0 00-.06-4.1h-.29v-1.56h.29a1.654 1.654 0 001.418-.465 1.648 1.648 0 00.472-1.415c0-1.28-.61-1.92-1.83-1.92a1.68 1.68 0 00-1.348.456 1.689 1.689 0 00-.522 1.324h-1.78a3.369 3.369 0 011.12-2.48 3.999 3.999 0 015.13.05 3.355 3.355 0 011 2.52 2.715 2.715 0 01-1.55 2.65 2.89 2.89 0 011.346 1.183 2.89 2.89 0 01.394 1.747 3.396 3.396 0 01-1.11 2.71z" fill="#1F4A6A"/><path d="M272.889 96.98a3.52 3.52 0 100-7.04 3.52 3.52 0 000 7.04zm8.21 11.27a8.206 8.206 0 00-2.302-5.997 8.215 8.215 0 00-5.913-2.51 8.215 8.215 0 00-5.913 2.51 8.24 8.24 0 00-1.761 2.764 8.242 8.242 0 00-.541 3.233h16.43z" stroke="#1F4A6A" stroke-width="2" stroke-linecap="round" stroke-linejoin="round"/><path d="M248.92 111.6l-5.52 2.35" stroke="#F7B916" stroke-width="2" stroke-linecap="round" stroke-linejoin="round"/><path d="M233.28 118.26l-75.93 32.36" stroke="#F7B916" stroke-width="2" stroke-linecap="round" stroke-linejoin="round" stroke-dasharray="11 11"/><path d="M152.29 152.78l-5.52 2.35m162.73 19.75l-5.52 2.36" stroke="#F7B916" stroke-width="2" stroke-linecap="round" stroke-linejoin="round"/><path d="M292.309 182.21l-134.19 57.19" stroke="#F7B916" stroke-width="2" stroke-linecap="round" stroke-linejoin="round" stroke-dasharray="12.68 12.68"/><path d="M152.29 241.88l-5.52 2.35m102.15 34.28l-5.52 2.35" stroke="#F7B916" stroke-width="2" stroke-linecap="round" stroke-linejoin="round"/><path d="M233.08 285.26l-56.76 24.19" stroke="#F7B916" stroke-width="2" stroke-linecap="round" stroke-linejoin="round" stroke-dasharray="11.22 11.22"/><path d="M171.161 311.64l-5.52 2.36" stroke="#F7B916" stroke-width="2" stroke-linecap="round" stroke-linejoin="round"/></svg>