<svg width="359" height="359" fill="none" xmlns="http://www.w3.org/2000/svg"><path d="M293.909 146.59c-4.015 0-7.991-.792-11.7-2.329a30.563 30.563 0 01-16.536-16.558A30.553 30.553 0 01263.359 116c0-10.6 7.39-19.94 12.43-24.65 4.73-4.42 8.42-10.15 8.42-17.12a21.579 21.579 0 00-2.06-9.23" stroke="#F7B916" stroke-width="2" stroke-linecap="round" stroke-linejoin="round"/><path d="M40 169.46h279a39.996 39.996 0 0128.284 11.716A39.996 39.996 0 01359 209.46v149H0v-149a39.998 39.998 0 0140-40z" fill="#1F4A6A"/><path d="M27 181.67h305a27.003 27.003 0 0127 27v149.82H0V208.67a27 27 0 0127-27z" fill="#6FC6AD"/><path d="M339.291 255.48H19.711v103.01h319.58V255.48z" fill="#fff"/><path d="M264.599 216.23h-130.54a4.7 4.7 0 00-4.7 4.7v.84a4.7 4.7 0 004.7 4.7h130.54a4.7 4.7 0 004.7-4.7v-.84a4.7 4.7 0 00-4.7-4.7zM95.23 226.47a5.55 5.55 0 100-11.1 5.55 5.55 0 000 11.1z" fill="#1F4A6A"/><path d="M72.9 313.69h213.21a12 12 0 0112 12v32.8H60.9v-32.8a12 12 0 0112-12z" fill="#81859C"/><path d="M277.549 326.93H89.599a3.65 3.65 0 00-3.65 3.65v.67a3.65 3.65 0 003.65 3.65h187.95a3.65 3.65 0 003.65-3.65v-.67a3.65 3.65 0 00-3.65-3.65zm.91 18H90.509a3.65 3.65 0 00-3.65 3.65v.67a3.65 3.65 0 003.65 3.65h187.95a3.65 3.65 0 003.65-3.65v-.67a3.65 3.65 0 00-3.65-3.65z" fill="#6FC6AD"/><path d="M207.279 93.104l-27-9.731c-6.234-2.247-13.11.985-15.358 7.22l-9.731 27c-2.247 6.235.986 13.111 7.221 15.358l26.999 9.731c6.235 2.247 13.111-.985 15.358-7.22l9.732-27c2.247-6.235-.986-13.11-7.221-15.358zm-43.379.316l19.38 6.99m10.8 3.89l19.39 6.99" stroke="#F7B916" stroke-width="2" stroke-linecap="round" stroke-linejoin="round"/><path d="M188.35 86.284l-18.211 50.528 10.31 3.716L198.661 90l-10.311-3.716z" fill="#EF5237"/><path d="M203.38 79.57a6.942 6.942 0 002.332-5.648 6.948 6.948 0 00-11.767-4.554A6.964 6.964 0 00192.24 72a6.875 6.875 0 00-.37 3.15c0 .3 1.65 13 1.65 13l9.86-8.58zm-12.99-4.11a6.934 6.934 0 00-4.712-4.903 6.94 6.94 0 00-4.468 13.133l12.31 4.47s-3.06-12.43-3.13-12.7zm15.419 17.16a6.955 6.955 0 008.389-3.154 6.943 6.943 0 00.366-6.037 6.949 6.949 0 00-10.465-3.019l-10.57 7.74 12.28 4.47z" stroke="#EF5237" stroke-width="2" stroke-linecap="round" stroke-linejoin="round"/><path d="M113.091 23.27v.16a2.702 2.702 0 00-.73-1.33 2.742 2.742 0 00-3.87 0l-7.61 7.61a2.728 2.728 0 000 3.87 2.83 2.83 0 001 .65c.194.068.395.112.6.13 1.88.2 8.26.65 8.26.65a2.718 2.718 0 003-3.11v.1l-.65-8.23a2.73 2.73 0 00-4.66-1.66l-7.61 7.61a2.73 2.73 0 001.65 4.65M32 140.55h.16a2.753 2.753 0 00-2.31 1.5 2.75 2.75 0 00.15 2.75l6 8.94c.199.298.455.554.753.754a2.739 2.739 0 002.052.406c.352-.071.686-.21.984-.41a2.8 2.8 0 00.85-.9c.099-.178.18-.366.24-.56.55-1.81 2.24-8 2.24-8a2.73 2.73 0 00-2.48-3.54h.1l-8.2-.95a2.728 2.728 0 00-2.634 1.317 2.727 2.727 0 00.094 2.943l6 8.94a2.725 2.725 0 002.664 1.187 2.726 2.726 0 002.216-1.897" fill="#F7B916"/><path d="M125.55 146.54a4.7 4.7 0 100-9.4 4.7 4.7 0 000 9.4zm117.73-71.6a4.7 4.7 0 100-9.4 4.7 4.7 0 000 9.4zm45.44 43.28a4.7 4.7 0 100-9.4 4.7 4.7 0 000 9.4z" stroke="#1062AA" stroke-width="2" stroke-miterlimit="10"/><path d="M180.92 28.62l3.37 13.57m5.251-8.5l-13.58 3.36M44.47 49.39l-10.06 9.72m9.99.28l-9.72-10.06m292.509 13.98l-1.9 13.86m8.032-5.96l-13.86-1.9" stroke="#6FC6AD" stroke-width="2" stroke-linecap="round" stroke-linejoin="round"/><path d="M65.27 128.94l44.189-19.28a3.916 3.916 0 002.303-2.92 3.918 3.918 0 00-1.173-3.53l-44.75-42.3a3.93 3.93 0 00-6.63 2.89l.56 61.58a3.93 3.93 0 005.5 3.56v0z" stroke="#F7B916" stroke-width="2" stroke-linecap="round" stroke-linejoin="round"/><path d="M58.51 79.92l12.44-15.31 5.23 4.92-17.59 19.84-.08-9.45zm.2 21.43l22.52-27.08 5.23 4.92L58.8 110.8l-.09-9.45zm16.96 23.98l26.21-31.5 5.23 4.91-18.23 20.82-13.21 5.77zM58.9 122.6l32.51-38.68 5.22 4.93-35.4 40.57a4.71 4.71 0 01-1.91-2.15c-.67-1.43-.42-4.67-.42-4.67z" fill="#EF5237"/><path d="M281.75 54.36c12.559 0 22.74-11.945 22.74-26.68S294.309 1 281.75 1s-22.74 11.945-22.74 26.68 10.181 26.68 22.74 26.68z" stroke="#EF5237" stroke-width="2" stroke-linecap="round" stroke-linejoin="round"/><path d="M281.75 54.36l-5.27 10.68h10.78l-5.51-10.68z" fill="#EF5237"/><path d="M274.159 22.27a1.47 1.47 0 100-2.94 1.47 1.47 0 000 2.94zm2.942 4.41a1.47 1.47 0 100-2.94 1.47 1.47 0 000 2.94zm10.158-7.05a1.47 1.47 0 100-2.94 1.47 1.47 0 000 2.94zm-7.228-3.78a1.47 1.47 0 10-.001-2.941 1.47 1.47 0 00.001 2.941zm-8.081-4.44a1.47 1.47 0 100-2.94 1.47 1.47 0 000 2.94zm16.77.66a1.47 1.47 0 100-2.94 1.47 1.47 0 000 2.94zm-7.221-5.74a1.47 1.47 0 100-2.94 1.47 1.47 0 000 2.94zM295.38 15a1.47 1.47 0 100-2.94 1.47 1.47 0 000 2.94zm0 7.57a1.47 1.47 0 100-2.94 1.47 1.47 0 000 2.94zm-28.83-3.79a1.47 1.47 0 100-2.94 1.47 1.47 0 000 2.94z" fill="#F7B916"/></svg>