<svg width="359" height="359" fill="none" xmlns="http://www.w3.org/2000/svg"><path d="M30.54 15.887v.16a2.73 2.73 0 00-4.54-1.32l-7.61 7.61a2.73 2.73 0 000 3.87 2.57 2.57 0 001.05.65c.181.066.369.11.56.13 1.87.2 8.25.65 8.25.65a2.73 2.73 0 003-3.11v.1l-.65-8.23a2.73 2.73 0 00-4.6-1.67l-7.61 7.61a2.74 2.74 0 001.61 4.65m185.88 126.36v-.16a2.771 2.771 0 004.48 1.82l8.48-6.84c.367-.294.653-.677.831-1.112a2.767 2.767 0 00-.327-2.668 2.76 2.76 0 00-1.074-.88 2.901 2.901 0 00-.59-.19c-1.87-.4-8.23-1.54-8.23-1.54a2.763 2.763 0 00-3.35 2.81v-.11l-.24 8.35a2.81 2.81 0 00.62 1.77 2.756 2.756 0 001.855 1.013 2.76 2.76 0 002.025-.603l8.48-6.84a2.768 2.768 0 00.42-3.89 2.82 2.82 0 00-1.58-1m112.151-25.189l-.14-.08c.442.272.951.418 1.47.42a2.767 2.767 0 002.77-2.76v-10.9a2.77 2.77 0 00-4.52-2.15c-1.48 1.21-6.37 5.44-6.37 5.44a2.745 2.745 0 00-.733 3.418c.194.376.472.702.813.952l-.09-.06 6.35 5.43a2.772 2.772 0 002.939.368 2.768 2.768 0 001.591-2.498v-10.9a2.762 2.762 0 00-.207-1.058 2.766 2.766 0 00-1.495-1.495 2.787 2.787 0 00-2.798.403" fill="#F7B916"/><path d="M40 169.837h279a40 40 0 0140 40v149H0v-149a40.001 40.001 0 0140-40z" fill="#1F4A6A"/><path d="M27 182.057h305a27 27 0 0127 27v149.82H0v-149.82a26.999 26.999 0 0127-27z" fill="#6FC6AD"/><path d="M339.291 255.867H19.711v103.01h319.58v-103.01z" fill="#fff"/><path d="M264.62 216.617H134.08a4.7 4.7 0 00-4.7 4.7v.84a4.7 4.7 0 004.7 4.7h130.54a4.7 4.7 0 004.7-4.7v-.84a4.7 4.7 0 00-4.7-4.7zm-169.37 10.24a5.55 5.55 0 100-11.1 5.55 5.55 0 000 11.1z" fill="#1F4A6A"/><path d="M76.56 314.077h213.21a12.003 12.003 0 0112 12v32.8H64.56v-32.8a12.002 12.002 0 0112-12z" fill="#81859C"/><path d="M281.2 327.317H93.25a3.65 3.65 0 00-3.65 3.65v.67a3.65 3.65 0 003.65 3.65H281.2a3.65 3.65 0 003.65-3.65v-.67a3.651 3.651 0 00-3.65-3.65zm.92 18H94.17a3.65 3.65 0 00-3.65 3.65v.67a3.65 3.65 0 003.65 3.65h187.95a3.65 3.65 0 003.65-3.65v-.67a3.651 3.651 0 00-3.65-3.65z" fill="#6FC6AD"/><path d="M96.44 99.847c0 4.44-2.33 6.64-5 6.64s-4.89-2.11-4.92-6.35c-.03-4.24 2.3-6.57 5.08-6.57 2.9 0 4.84 2.26 4.84 6.28zm-7.7.19c-.07 2.69.93 4.73 2.72 4.73s2.72-2 2.72-4.79c0-2.56-.75-4.7-2.72-4.7-1.79 0-2.72 2.11-2.72 4.76zm2.46 15.29l12.36-21.76h1.82L93 115.327h-1.8zm18.94-6.77c0 4.44-2.33 6.64-5 6.64s-4.89-2.11-4.92-6.32c-.03-4.21 2.3-6.6 5.08-6.6 2.93 0 4.84 2.26 4.84 6.28zm-7.71.19c0 2.69 1 4.73 2.75 4.73s2.72-2 2.72-4.79c0-2.56-.74-4.7-2.72-4.7-1.78 0-2.75 2.11-2.75 4.76zm78.92-62.97v-3.27a9.4 9.4 0 01-4.95-1.42l.78-2.17a8.592 8.592 0 004.66 1.39c2.3 0 3.85-1.33 3.85-3.17 0-1.84-1.26-2.88-3.65-3.86-3.31-1.29-5.35-2.78-5.35-5.6s1.91-4.72 4.89-5.21v-3.27h2v3.14a8.609 8.609 0 014.21 1.13l-.79 2.14a7.817 7.817 0 00-4.08-1.1c-2.49 0-3.43 1.49-3.43 2.78 0 1.69 1.2 2.53 4 3.7 3.34 1.36 5 3 5 5.92 0 2.56-1.78 4.95-5.12 5.5v3.37h-2.02z" fill="#811A3E"/><path d="M118.94 78.188v13.86a6.066 6.066 0 002.62 5l11.4 7.899a6.103 6.103 0 011.174 8.96 6.09 6.09 0 01-2.784 1.86l-13.2 4.24a6.11 6.11 0 00-4 4l-4 13.28a6.1 6.1 0 01-10.79 1.81l-8.12-11.11a6.104 6.104 0 00-5.09-2.53l-13.85.31a6.1 6.1 0 01-5.06-9.7l8.18-11.19a6.099 6.099 0 00.84-5.62l-4.58-13.13a6.1 6.1 0 017.66-7.81l13.17 4.33a6.109 6.109 0 005.6-.94l11-8.4a6.11 6.11 0 019.83 4.88v0zm166.073 13.605l-27-9.73c-6.235-2.248-13.111.985-15.358 7.22l-9.731 26.999c-2.248 6.235.985 13.111 7.22 15.358l27 9.732c6.235 2.247 13.111-.986 15.358-7.221l9.731-27c2.247-6.234-.985-13.11-7.22-15.358zm-43.383.324l19.39 6.99m10.8 3.89l19.38 6.99" stroke="#EB008B" stroke-width="2" stroke-miterlimit="10"/><path d="M266.29 85.3l-17.918 49.537 10.302 3.727 17.918-49.538-10.302-3.727z" stroke="#811A3E" stroke-width="2" stroke-miterlimit="10"/><path d="M281.11 78.267a6.955 6.955 0 002.382-5.656 6.945 6.945 0 00-3.028-5.338A6.95 6.95 0 00270 70.707a6.999 6.999 0 00-.36 3.16c0 .29 1.65 13 1.65 13l9.82-8.6z" stroke="#811A3E" stroke-width="2" stroke-linecap="round" stroke-linejoin="round"/><path d="M268.12 74.167a6.8 6.8 0 00-1.64-3 6.95 6.95 0 00-10.17 9.47 7.072 7.072 0 002.69 1.75l12.31 4.47s-3.12-12.43-3.19-12.69z" stroke="#811A3E" stroke-width="2" stroke-linecap="round" stroke-linejoin="round"/><path d="M283.55 91.317a6.947 6.947 0 008.266-2.939 6.953 6.953 0 00-1.198-8.691 6.942 6.942 0 00-5.848-1.78 6.927 6.927 0 00-2.94 1.21l-10.57 7.73 12.29 4.47z" stroke="#811A3E" stroke-width="2" stroke-linecap="round" stroke-linejoin="round"/><path d="M199.35 55.767v5a4 4 0 01-4 4h-6.28a4 4 0 01-4-4v-.45h-2.01a31.19 31.19 0 01-6.67-.72v1.1a4 4 0 01-4 4h-6.28a4 4 0 01-4-4v-8.53c-2.85-2.7-6.68-9.32-6.68-9.32h-5a4 4 0 01-4-4v-12.25a4 4 0 014-4h5.18a28.055 28.055 0 019.56-11.85c1.39-1-1.77-8.95-.19-9.71 1.22-.59 7.15 6 8.47 5.54a30.995 30.995 0 019.6-1.51c15.19 0 27.7 10.78 29.31 24.63.11 1 3.91 4.06 3.91 5.09 0 .76-3.77-.55-3.83.19a26.86 26.86 0 01-13.1 20.8" stroke="#EB008B" stroke-width="2" stroke-linecap="round" stroke-linejoin="round"/><path d="M43 139.157a4.7 4.7 0 10.001-9.4 4.7 4.7 0 000 9.4zM323.61 37.718a4.85 4.85 0 100-9.701 4.85 4.85 0 000 9.7zM209.59 98.317a4.75 4.75 0 100-9.5 4.75 4.75 0 000 9.5z" stroke="#1062AA" stroke-width="2" stroke-miterlimit="10"/><path d="M162.41 115.327h13.99m-6.99-7.15v13.99m-69.69-89.35l11.14 8.46m-1.25-9.92l-8.46 11.14m150.17-4.109l11.14 8.46m-1.24-9.921l-8.46 11.14" stroke="#6FC6AD" stroke-width="2" stroke-linecap="round" stroke-linejoin="round"/></svg>