<svg width="15" height="20" viewBox="0 0 15 20" fill="none" xmlns="http://www.w3.org/2000/svg">
<path d="M4.82847 0.404974L5.00091 0.503268C4.50742 0.192588 3.93968 0.0198478 3.35678 0.00302531C2.77389 -0.0137972 2.19713 0.125913 1.68654 0.407615C1.17596 0.689318 0.750205 1.10272 0.453592 1.60479C0.156979 2.10686 0.0003481 2.67925 1.54587e-06 3.26239V16.1199C-0.000362629 16.6741 0.140441 17.2192 0.409133 17.7039C0.677825 18.1886 1.06555 18.5969 1.53574 18.8902C2.00593 19.1835 2.54309 19.3523 3.09655 19.3805C3.65002 19.4087 4.20155 19.2955 4.69913 19.0515C4.91823 18.9415 5.12467 18.8079 5.31476 18.6531C7.07025 17.2322 12.8334 12.233 12.8334 12.2347C13.2215 11.9222 13.5329 11.525 13.7438 11.0735C13.9546 10.622 14.0593 10.1282 14.0499 9.62996C14.0404 9.13175 13.9169 8.64231 13.689 8.19917C13.4611 7.75603 13.1348 7.37094 12.7351 7.07343L12.8334 7.1493L5.3458 0.751589C4.8688 0.355875 4.28895 0.104211 3.67412 0.0260504C3.05929 -0.05211 2.43492 0.0464669 1.87407 0.310244C1.31323 0.574021 0.839118 0.992086 0.507228 1.51551C0.175338 2.03893 -0.00060166 2.64606 1.54587e-06 3.26584V16.1199C3.28979e-05 16.7362 0.174603 17.3398 0.503502 17.861C0.832402 18.3822 1.30218 18.7995 1.85845 19.0648C2.41473 19.33 3.03474 19.4323 3.64673 19.3597C4.25871 19.2872 4.83764 19.0428 5.31648 18.6548" fill="#F7B916"/>
</svg>
