<svg width="110" height="53" viewBox="0 0 110 53" fill="none" xmlns="http://www.w3.org/2000/svg">
<path d="M33.9753 34.5759H40.9565V36.857H37.6355V52.8844H33.9753V34.5759Z" fill="#81859C"/>
<path d="M45.0961 46.0112L45.7234 36.857H45.9335L46.5608 46.0112H45.0961ZM41.0427 52.8844H44.6264L44.9655 48.0221H46.6913L47.032 52.8844H50.6141L48.7053 34.5759H42.9516L41.0427 52.8844Z" fill="#81859C"/>
<path d="M55.8553 46.4764V49.928C55.8553 50.3932 56.2154 50.5283 56.4255 50.5283C56.7707 50.5283 57.0108 50.2432 57.0108 49.928V45.6661C57.0108 45.0958 56.9057 44.4655 55.5401 44.4655H54.0544V42.4546H55.6001C56.6356 42.4546 57.0108 42.2145 57.0108 41.0889V37.4573C57.0108 37.1421 56.7707 36.857 56.4255 36.857C56.2154 36.857 55.8553 36.9771 55.8553 37.4573V40.4436H52.1936V37.8474C52.1936 36.5719 52.3436 34.5759 54.9098 34.5759H57.9412C60.5074 34.5759 60.6725 36.5719 60.6725 37.8474V40.7738C60.6725 42.7697 59.2768 43.31 58.1813 43.2649V43.445C60.6425 43.385 60.6725 45.2759 60.6725 45.9212V49.6129C60.6725 50.9035 60.5074 52.8844 57.9412 52.8844H54.9098C52.3436 52.8844 52.1936 50.9035 52.1936 49.6129V46.4764H55.8553Z" fill="#81859C"/>
<path d="M63.0737 34.5759H71.5527V52.8844H67.891V36.857H66.7354V52.8844H63.0737V34.5759Z" fill="#81859C"/>
<path d="M77.6156 44.6456V36.857H78.0958C78.486 36.857 78.7711 37.1871 78.7711 37.7724V43.7302C78.7711 44.3154 78.486 44.6456 78.0958 44.6456H77.6156ZM73.9539 52.8844H77.6156V46.6565H79.7166C82.2678 46.6565 82.4328 44.6756 82.4328 43.385V37.8474C82.4328 36.5719 82.2678 34.5759 79.7166 34.5759H73.9539V52.8844Z" fill="#81859C"/>
<path d="M89.6513 49.928C89.6513 50.2432 89.4112 50.5283 89.066 50.5283C88.8559 50.5283 88.4958 50.3932 88.4958 49.928V37.4573C88.4958 36.9771 88.8559 36.857 89.066 36.857C89.4112 36.857 89.6513 37.1421 89.6513 37.4573V49.928ZM84.8341 49.6129C84.8341 50.9035 84.9992 52.8844 87.5503 52.8844H90.5968C93.1479 52.8844 93.313 50.9035 93.313 49.6129V37.8474C93.313 36.5719 93.1479 34.5759 90.5968 34.5759H87.5503C84.9992 34.5759 84.8341 36.5719 84.8341 37.8474V49.6129Z" fill="#81859C"/>
<path d="M105.227 34.5759H109.999V52.8844H106.337V41.4041H106.202L104.312 52.8844H101.385L99.5093 41.4041H99.3743V52.8844H95.7126V34.5759H100.47L102.856 47.4519L105.227 34.5759Z" fill="#81859C"/>
<path d="M29.231 9.5444C28.11 4.63714 25.3007 0.645298 24.9135 0C24.3013 0.915423 22.0607 4.44205 20.9217 8.34385C19.6776 12.7109 19.4945 16.5827 19.9237 20.3794C20.3499 24.1912 21.9602 28.108 21.9602 28.108C22.8156 30.1489 24.0972 32.3549 24.9316 33.4354C26.1546 31.8447 28.9654 27.1025 29.8418 20.9197C30.3296 17.4681 30.3506 14.4517 29.231 9.5444ZM24.9135 32.2049C24.3628 31.1694 23.5074 29.2035 23.4264 26.1421C23.4053 23.2007 24.5864 20.6645 24.9316 20.1393C25.2392 20.6645 26.2567 22.8706 26.3782 25.887C26.4608 28.8283 25.4823 31.1544 24.9135 32.2049ZM28.9054 17.8732C28.8634 19.7491 28.6398 21.73 28.3546 22.9156C28.4567 20.8746 28.2121 18.0083 27.7439 15.7573C27.2756 13.5212 25.9505 9.76951 24.8925 8.04371C23.9156 9.69447 22.712 12.936 22.0817 15.7423C21.4484 18.5486 21.4304 21.9551 21.4304 22.9756C21.2624 22.1202 20.8422 19.0438 20.9607 15.9674C21.0598 13.4312 21.654 10.805 21.9797 9.60444C23.2223 5.59759 24.6284 3.0314 24.8925 2.62621C25.1567 3.0314 26.9275 6.19786 27.8459 9.51439C28.7598 12.8309 28.9444 16.0124 28.9054 17.8732Z" fill="#81859C"/>
<path d="M26.8144 34.576H18.2919V40.2937C18.2994 40.2937 18.3055 40.2787 18.313 40.2787C20.3209 38.2678 23.5774 38.2678 25.5868 40.2787C27.5947 42.2746 27.5947 45.5311 25.5868 47.542C25.5778 47.557 25.5688 47.557 25.5598 47.572C25.5493 47.572 25.5388 47.5871 25.5298 47.6021C23.5264 49.583 20.9092 50.5734 18.2919 50.5734C15.6627 50.5734 13.0335 49.583 11.0286 47.572C7.49296 44.0454 7.07427 38.5679 9.76951 34.576C10.1327 34.0358 10.5514 33.5255 11.0286 33.0453C13.0335 31.0344 15.6627 30.0439 18.2919 30.0439V16.2976C8.18929 16.2976 0 24.4764 0 34.576C0 44.6757 8.18929 52.8695 18.2919 52.8695C23.5594 52.8695 28.3046 50.6335 31.6421 47.0768V34.576H26.8144Z" fill="#81859C"/>
</svg>
