<svg width="148" height="37" viewBox="0 0 148 37" fill="none" xmlns="http://www.w3.org/2000/svg">
<path d="M6.3832 16.8887C4.81227 14.6904 3.88974 12.0177 3.7685 9.44517C3.75795 9.26066 3.75795 9.08143 3.75795 8.89165V8.88111V8.87584C3.75795 6.74085 4.38527 4.79563 5.4185 3.32486C5.99311 2.34434 7.2741 1.34801 8.92411 0.694336C8.18082 0.97373 7.46388 1.33747 6.77857 1.76974C-5.15103 9.04453 1.31194 27.7481 6.18288 33.5311C6.25141 33.6154 6.77857 34.1953 6.94199 34.3534C9.99951 37.3582 14.3802 37.859 16.7208 35.471C19.0034 33.1462 18.4973 28.9237 15.6243 25.9294C12.6037 22.6821 9.17715 21.0163 6.3832 16.8887Z" fill="#81859C"/>
<path d="M12.3717 0.00944555C12.1872 0.0147171 12.0027 0.0252603 11.8182 0.0410751C12.8039 -0.0116408 13.6579 0.141235 14.2431 0.483888C14.3433 0.541876 14.4487 0.605135 14.5436 0.673666C15.018 1.0005 15.4028 1.4275 15.6875 1.93358C16.1461 2.69268 16.3781 3.62576 16.3781 4.65371C16.3781 4.68007 16.3781 4.70116 16.3781 4.72752C16.3623 6.80979 15.4239 9.25581 13.6105 11.3012C13.5631 11.3539 13.5156 11.4066 13.4682 11.4593C13.4682 11.4593 13.4682 11.4593 13.4682 11.4646C13.3153 11.6438 13.1677 11.8283 13.0306 12.0234C11.2383 14.6012 11.6284 17.975 13.9004 19.5565C16.1725 21.138 19.4725 20.3261 21.2701 17.7431C21.3597 17.6165 21.4441 17.4848 21.5232 17.353C26.663 9.2769 20.6797 -0.343751 12.3717 0.00944555Z" fill="#81859C"/>
<path d="M7.99586 14.4592C8.2489 10.1734 11.0165 6.84708 14.1794 7.03685C14.7646 7.07376 15.3497 7.25299 15.8663 7.50603C16.1985 6.55187 16.3724 5.60825 16.3777 4.7279V4.6541C16.3777 3.62614 16.151 2.69307 15.6871 1.93396C15.4024 1.43316 15.0176 1.00616 14.5432 0.674048C14.443 0.605518 14.3429 0.542259 14.2374 0.484271C13.1726 -0.148319 11.1904 -0.137776 9.15034 0.610789C7.38436 1.25919 6.01375 2.30297 5.41279 3.32566C4.37955 4.8017 3.75224 6.74692 3.75224 8.87664C3.75224 9.06114 3.75751 9.24565 3.76805 9.43015C3.88403 12.0027 4.81182 14.6754 6.38276 16.8842C7.65321 18.7609 9.05018 20.1315 10.4841 21.3703C8.83932 19.9312 7.82717 17.3428 7.99586 14.4592Z" fill="#E5E5E5"/>
<path d="M116.839 25.8664C116.965 25.8664 117.071 25.761 117.071 25.6397L117.06 23.9634C117.06 23.8368 116.96 23.7314 116.828 23.7314C116.76 23.7314 114.994 23.7314 114.619 23.7314C112.595 23.7314 111.235 22.3977 111.235 20.3998C111.235 18.1857 112.722 16.9785 114.661 16.9785L116.654 16.9732C116.77 16.9732 116.87 16.8783 116.876 16.7571L116.881 15.0755C116.881 14.9437 116.775 14.8435 116.654 14.8435H114.171C110.249 14.8435 108.209 17.3106 108.209 20.2522C108.209 23.1673 110.175 25.8717 114.118 25.8717H116.839V25.8664V25.8664Z" fill="#81859C"/>
<path d="M65.7514 19.2927C64.8605 18.9922 63.8168 18.8288 63.8168 17.8694C63.8168 17.59 63.9116 16.968 65.53 16.968H68.0762C68.2027 16.968 68.3081 16.8625 68.3081 16.736V15.0755C68.3081 14.9489 68.208 14.8435 68.0762 14.8435H64.9554C61.7028 14.8435 60.9332 16.6727 60.9332 17.9274C60.9332 19.7988 62.1509 20.5052 63.8958 21.1431C64.9396 21.5226 65.8147 21.7809 65.8147 22.6929C65.8147 23.141 65.472 23.7314 63.9854 23.7314H61.1072C60.9806 23.7314 60.8805 23.8316 60.8752 23.9528V25.6344C60.8752 25.7557 60.9806 25.8558 61.1072 25.8558H64.4072C67.3645 25.8558 68.7035 24.3693 68.7035 22.6244C68.7035 20.463 67.0061 19.6986 65.7514 19.2927Z" fill="#81859C"/>
<path d="M53.3631 23.9473C52.0874 23.9473 50.7009 22.9035 50.7009 20.3521C50.7009 17.7953 52.0873 16.7568 53.3631 16.7568C54.6388 16.7568 56.0252 17.7953 56.0252 20.3521C56.0252 22.9088 54.6388 23.9473 53.3631 23.9473ZM53.3631 14.6746C50.0841 14.6746 47.6803 16.6778 47.6803 20.3573C47.6803 24.0369 50.0841 26.0401 53.3631 26.0401C56.6367 26.0401 59.0458 24.0422 59.0458 20.3573C59.0458 16.6725 56.6367 14.6746 53.3631 14.6746Z" fill="#81859C"/>
<path d="M123.853 23.9473C122.578 23.9473 121.191 22.9035 121.191 20.3521C121.191 17.7953 122.578 16.7568 123.853 16.7568C125.129 16.7568 126.51 17.7953 126.51 20.3521C126.51 22.9088 125.129 23.9473 123.853 23.9473ZM123.853 14.6746C120.574 14.6746 118.171 16.6778 118.171 20.3573C118.171 24.0369 120.574 26.0401 123.853 26.0401C127.132 26.0401 129.531 24.0422 129.531 20.3573C129.531 16.6725 127.132 14.6746 123.853 14.6746Z" fill="#81859C"/>
<path d="M101.368 16.6679C102.427 16.6679 103.687 17.3901 103.65 19.2457H99.1113C99.1324 17.7907 100.092 16.6679 101.368 16.6679ZM105.39 23.4577C105.39 23.4577 103.903 23.6 102.786 23.6C100.814 23.6 99.1956 22.63 99.1113 21.2225H105.253C105.938 21.2225 106.507 20.6584 106.507 19.9731C106.434 18.3442 105.869 14.6699 101.541 14.6699C98.5841 14.6699 96.0907 16.7996 96.0907 20.3527C96.0907 24.2484 99.3643 25.8668 102.675 25.8668C103.961 25.8668 105.384 25.7244 105.384 25.7244C105.511 25.7244 105.611 25.6243 105.622 25.503V23.6738C105.606 23.5473 105.511 23.4577 105.39 23.4577Z" fill="#81859C"/>
<path d="M83.9772 16.6679C85.0421 16.6679 86.2967 17.3901 86.2546 19.2457H81.721C81.7474 17.7907 82.7015 16.6679 83.9772 16.6679ZM87.9995 23.4577C87.9995 23.4577 86.5076 23.6 85.3953 23.6C83.429 23.6 81.8053 22.63 81.721 21.2225H87.8624C88.553 21.2225 89.1118 20.6584 89.1118 19.9731C89.038 18.3442 88.4686 14.6699 84.1407 14.6699C81.1833 14.6699 78.6951 16.7996 78.6951 20.3527C78.6951 24.2484 81.9688 25.8668 85.2793 25.8668C86.5709 25.8668 87.9995 25.7244 87.9995 25.7244C88.1207 25.7244 88.2209 25.6243 88.2314 25.503V23.6738C88.2209 23.5473 88.1207 23.4577 87.9995 23.4577Z" fill="#81859C"/>
<path d="M93.8496 10.9741H92.4316C91.7515 10.9741 91.1822 11.5382 91.1822 12.2235V25.6397C91.1822 25.7609 91.2876 25.8664 91.4141 25.8664H93.8443C93.9709 25.8664 94.0763 25.7609 94.0763 25.6397V11.2008C94.0763 11.0743 93.9709 10.9741 93.8496 10.9741Z" fill="#81859C"/>
<path d="M40.1157 17.3949H38.4973V13.3147H40.1157C42.4985 13.3147 42.6514 14.8487 42.6514 15.3337C42.6514 16.2035 42.0293 17.3949 40.1157 17.3949ZM46.7474 25.5975L44.4384 20.0992C44.0747 19.2505 43.6055 18.697 42.8833 18.523V18.4809C43.9271 18.2278 45.7563 17.4582 45.7563 15.0122C45.7563 13.0142 44.7336 10.9741 40.7536 10.9741H36.7261C36.0408 10.9741 35.4767 11.5382 35.4767 12.2235V25.6397C35.4767 25.7662 35.5822 25.8664 35.7087 25.8664H38.2654C38.3919 25.8664 38.4973 25.7609 38.4973 25.6397V19.7355H39.6466C40.6482 19.7355 41.2017 20.2521 41.5654 21.143L43.3841 25.6344C43.4474 25.7873 43.5423 25.8611 43.7004 25.8611H46.5892C46.721 25.8611 46.8106 25.7398 46.7474 25.5975Z" fill="#81859C"/>
<path d="M77.2086 23.7313H76.6973C74.8259 23.7313 74.8839 22.677 74.8839 21.5911V16.9679H77.2086C77.3351 16.9679 77.4406 16.8677 77.4406 16.7412V15.0754C77.4406 14.9489 77.3351 14.8435 77.2086 14.8435H74.8839V12.5503C74.8839 12.4238 74.7784 12.3184 74.6572 12.3184H73.2444C72.5591 12.3184 71.995 12.8824 71.995 13.5677V14.8382H70.0551C69.9338 14.8382 69.8284 14.9331 69.8231 15.0543V16.7518C69.8284 16.8677 69.9338 16.9626 70.0551 16.9626H71.995V22.6349C71.995 24.4114 73.0599 25.8558 76.0542 25.8558H77.2139C77.3404 25.8558 77.4459 25.7504 77.4459 25.6291V23.958C77.4406 23.842 77.3299 23.7313 77.2086 23.7313Z" fill="#81859C"/>
<path d="M144.473 14.6746C143.07 14.6746 141.642 15.2702 140.856 16.741H140.793C140.514 15.7816 139.749 14.6746 137.772 14.6746C136.365 14.6746 135.026 15.3177 134.388 16.7199H134.319V16.0979C134.319 15.4126 133.75 14.8485 133.065 14.8485H131.805C131.678 14.8485 131.573 14.954 131.573 15.0805V25.6447C131.573 25.766 131.678 25.8714 131.805 25.8714H134.24C134.367 25.8714 134.467 25.766 134.467 25.6447V19.7775C134.467 17.7953 135.701 17.0362 136.744 17.0362C138.189 17.0362 138.336 18.3541 138.336 19.672V25.6342C138.336 25.7554 138.447 25.8609 138.574 25.8609H140.999C141.115 25.8609 141.209 25.7765 141.225 25.6711V19.7775C141.225 17.9271 142.353 17.0362 143.466 17.0362C145.126 17.0362 145.1 18.6493 145.1 19.672V25.6342C145.1 25.7554 145.205 25.8609 145.337 25.8609H147.767C147.894 25.8609 147.999 25.7554 147.999 25.6342V18.5281C148.004 14.9065 145.453 14.6746 144.473 14.6746Z" fill="#81859C"/>
</svg>
