<svg width="128" height="24" viewBox="0 0 128 24" fill="none" xmlns="http://www.w3.org/2000/svg">
<path d="M6.68334 0.46247L9.01604 3.12389C9.14293 3.27639 9.27225 3.32946 9.476 3.32946H14.3702C14.5763 3.32946 14.7038 3.27639 14.8307 3.12389L17.1634 0.46247C17.3672 0.22945 17.2909 9.24172e-05 16.9578 9.24172e-05H13.6552C13.4472 9.24172e-05 13.3179 0.0763419 13.1904 0.22945L12.193 1.666H11.6519L10.6545 0.22945C10.5271 0.0763419 10.399 9.24172e-05 10.1684 9.24172e-05H6.88953C6.55341 9.24172e-05 6.48204 0.22945 6.68334 0.46247ZM49.8627 13.833V14.0898C49.8627 23.0288 51.3274 23.5698 62.0594 23.5698C72.7945 23.5698 74.2549 23.0288 74.2549 14.0624V13.833C74.2549 4.89411 72.7945 4.35487 62.0594 4.35487C51.3274 4.35487 49.8627 4.89411 49.8627 13.833ZM48.7757 22.7231L38.5781 12.757L48.1584 5.19972C48.442 4.99537 48.3365 4.73856 47.9784 4.73856H41.7276C41.5494 4.73856 41.4201 4.7898 41.267 4.91729L31.4811 12.7338V5.12286C31.4811 4.86849 31.353 4.73856 31.0968 4.73856H26.332C26.0752 4.73856 25.9458 4.86849 25.9458 5.12286V22.7994C25.9458 23.0562 26.0752 23.1837 26.332 23.1837H31.0974C31.3536 23.1837 31.4811 23.0562 31.4811 22.7994V18.3427L34.3757 16.0614L41.3945 22.98C41.5494 23.1325 41.6769 23.1837 41.8801 23.1837H48.5939C48.927 23.1837 49.0307 22.9543 48.7757 22.7231ZM88.3499 4.73856H78.1285C77.8735 4.73856 77.7417 4.86849 77.7417 5.12286V22.7994C77.7417 23.0562 77.8735 23.1837 78.1285 23.1837H88.3499C99.2912 23.1837 100.725 22.6445 100.725 14.0368V13.8843C100.725 5.27597 99.2912 4.73856 88.3499 4.73856ZM127.946 22.7231L119.108 5.02099C119.03 4.81725 118.876 4.73856 118.672 4.73856H110.834C110.625 4.73856 110.473 4.81725 110.397 5.02099L101.557 22.7231C101.427 23.0056 101.534 23.1837 101.837 23.1837H106.937C107.14 23.1837 107.296 23.1074 107.371 22.9013L108.706 20.2886H120.799L122.129 22.9013C122.208 23.1074 122.36 23.1837 122.567 23.1837H127.664C127.972 23.1837 128.074 23.0056 127.946 22.7231ZM68.3103 13.833V14.0898C68.3103 19.2657 68.1059 19.3419 62.0594 19.3419C56.0129 19.3419 55.8068 19.2657 55.8068 14.0898V13.833C55.8068 8.65841 56.0129 8.58216 62.0594 8.58216C68.1059 8.58216 68.3103 8.65841 68.3103 13.833ZM94.91 13.833V14.0898C94.91 18.8289 94.5233 18.9832 88.3774 18.9832H83.3045V8.93901H88.3774C94.5233 8.93901 94.91 9.09395 94.91 13.833ZM118.85 16.4219H110.652L114.419 8.96402H115.084L118.85 16.4219ZM0.613677 23.2111C3.33008 23.3362 7.75941 23.4637 10.3184 23.4637C21.4909 23.4637 22.8238 23.4405 22.8238 17.3692C22.8238 12.5783 21.4165 12.1946 15.4975 12.0165L8.63173 11.8103C5.48222 11.7066 5.42915 11.3753 5.42915 9.96625C5.42915 8.50591 5.81346 8.50591 13.371 8.50591C14.8033 8.50591 19.3644 8.58216 21.7751 8.6334C22.0277 8.6334 22.1595 8.50591 22.1595 8.2491V5.12286C22.1595 4.86849 22.0277 4.73856 21.7983 4.71538C19.415 4.58423 15.5231 4.45674 12.7298 4.45674C1.766 4.45674 0 4.66292 0 10.3225C0 15.1659 1.07363 15.807 8.09309 16.0382L14.3933 16.2419C17.3415 16.3438 17.3946 16.7019 17.3946 17.8035C17.3946 19.3169 17.2653 19.3932 10.2952 19.3932C7.04203 19.3932 3.68633 19.2657 0.638687 19.162C0.38248 19.1364 0.254987 19.2657 0.254987 19.5207V22.7994C0.254987 23.0562 0.382481 23.1837 0.613677 23.2111Z" fill="#81859C"/>
</svg>
