<svg width="94" height="37" viewBox="0 0 94 37" fill="none" xmlns="http://www.w3.org/2000/svg">
<path d="M89.9678 1.47608C89.9678 1.42467 89.9678 1.42467 89.9678 1.37326C89.9678 1.32185 89.9164 1.32185 89.865 1.27045C89.8136 1.27045 89.7622 1.21904 89.7622 1.21904C89.7107 1.21904 89.6593 1.21904 89.6079 1.21904H89.4537V1.73313H89.5565C89.6593 1.73313 89.7107 1.73313 89.7622 1.73313C89.8136 1.73313 89.865 1.68172 89.9164 1.68172C89.9678 1.68172 89.9678 1.63031 89.9678 1.5789C89.9678 1.5789 89.9678 1.52749 89.9678 1.47608ZM90.7903 2.81273H90.1734L89.6079 2.1444H89.4537V2.81273H88.991V0.961989H89.7107C89.865 0.961989 89.9678 0.961989 90.0192 0.961989C90.122 0.961989 90.1734 1.0134 90.2762 1.06481C90.3791 1.11622 90.4305 1.16763 90.4819 1.21904C90.5333 1.27045 90.5333 1.37326 90.5333 1.47608C90.5333 1.63031 90.4819 1.73313 90.4305 1.83595C90.3791 1.93877 90.2762 1.99018 90.122 2.04159L90.7903 2.81273ZM91.2016 1.93877C91.2016 1.52749 91.0474 1.16763 90.7903 0.91058C90.4819 0.602124 90.1734 0.447896 89.7622 0.447896C89.3509 0.447896 88.991 0.602124 88.734 0.91058C88.4255 1.21904 88.3227 1.52749 88.3227 1.93877C88.3227 2.35004 88.4769 2.70991 88.734 2.96695C89.0424 3.27541 89.3509 3.42964 89.7622 3.42964C90.1734 3.42964 90.5333 3.27541 90.7903 2.96695C91.0474 2.6585 91.2016 2.35004 91.2016 1.93877ZM91.6129 1.93877C91.6129 2.45286 91.4072 2.91554 91.0474 3.27541C90.6875 3.63528 90.2248 3.84091 89.7107 3.84091C89.1966 3.84091 88.734 3.63528 88.3741 3.27541C88.0142 2.91554 87.8086 2.45286 87.8086 1.93877C87.8086 1.42467 88.0142 0.961989 88.3741 0.602124C88.734 0.242259 89.1966 0.0366211 89.7107 0.0366211C90.2248 0.0366211 90.6875 0.242259 91.0474 0.602124C91.4587 0.961989 91.6129 1.42467 91.6129 1.93877Z" fill="#81859C"/>
<path d="M12.9037 1.93896C8.27691 1.93896 4.31839 4.3552 2.2106 7.74822C0.411275 10.9356 0 16.0765 0 19.4696C0 22.8626 0.411275 28.0549 2.2106 31.1909C4.26698 34.5839 8.2255 37.0001 12.9037 37.0001H80.6613C85.2881 37.0001 89.2466 34.5839 91.3544 31.1909C93.1537 28.0549 93.565 22.8626 93.565 19.4696C93.565 16.0765 93.1537 10.8842 91.3544 7.74822C89.298 4.3552 85.3395 1.93896 80.6613 1.93896H12.9037Z" fill="#81859C"/>
<path d="M57.9905 17.5671H63.6969V17.4128C63.6969 14.791 62.6687 14.6367 60.7666 14.6367C58.4531 14.5853 58.0419 15.3051 57.9905 17.5671ZM17.9426 14.7396C19.7933 14.7396 20.8215 14.9452 20.8215 17.4643V17.5671H15.2179C15.2693 15.4079 15.732 14.7396 17.9426 14.7396ZM10.0255 19.572C10.0255 25.6898 11.5678 27.9004 18.0454 27.9004C20.4616 27.9004 22.4152 27.6947 23.8546 26.9236C25.1913 26.1524 26.0138 24.8158 26.0138 22.3996H20.9243C20.8729 24.1475 19.6905 24.3531 18.0454 24.3531C15.6806 24.3531 15.2179 23.3763 15.2179 20.446V20.3432H26.0138V19.572C26.0138 12.8888 24.2145 11.1923 18.0454 11.1923C11.465 11.1923 10.0255 13.2487 10.0255 19.572ZM29.4583 16.5389C29.4583 19.8291 30.5893 21.32 37.4781 21.32C38.095 21.32 39.0718 21.2685 39.6373 21.5256C40.1514 21.7826 40.4085 22.2453 40.4085 23.0679C40.4085 24.5073 39.8944 24.6616 37.4267 24.6616C36.0901 24.6616 34.702 24.6102 34.5992 22.8108H29.4583C29.5097 26.4095 31.2062 27.5919 34.3936 27.8489C35.3703 27.9004 36.3985 27.9004 37.4781 27.9004C41.8479 27.9004 45.498 27.1806 45.498 22.451C45.498 17.9269 43.1332 17.6185 37.4781 17.4643C34.6506 17.4128 34.4964 16.7959 34.4964 15.8706C34.4964 14.791 34.5992 14.4311 37.4781 14.4311C38.5063 14.4311 39.5859 14.5339 39.7915 15.8192H44.6754V15.1508C44.6754 11.2437 40.5627 11.1923 37.4781 11.1923C32.7999 11.1923 29.4583 11.2951 29.4583 16.5389ZM72.0252 11.1923H84.7747V14.9452H80.9704V27.7461H75.7781V14.9452H71.9738V11.1923H72.0252ZM52.9009 19.4692C52.9009 13.1459 54.289 11.1409 60.8694 11.1409C66.9871 11.1409 68.7864 12.786 68.7864 19.4692V20.189H57.9905V20.3432C57.9905 23.2735 58.4531 24.3017 60.8694 24.3017C62.4631 24.3017 63.6969 24.1475 63.7997 22.3481H68.7864C68.735 24.6616 67.9639 25.9982 66.6272 26.7694C65.2392 27.5405 63.2856 27.7461 60.8694 27.7461C54.4432 27.7461 52.9009 25.5869 52.9009 19.4692ZM6.27265 30.8307C3.65077 28.0032 3.08527 23.6334 3.08527 19.4692C3.08527 15.3051 3.65077 10.9353 6.27265 8.10775C7.91775 6.35984 11.1051 5.02319 13.7784 5.02319H48.6854V33.9153H13.7784C11.0537 33.9153 7.91775 32.5786 6.27265 30.8307Z" fill="white"/>
</svg>
