<svg width="162" height="38" viewBox="0 0 162 38" fill="none" xmlns="http://www.w3.org/2000/svg">
<path d="M162 0H124.363V37.0213H162V0Z" fill="#81859C"/>
<path d="M147.53 10.7797V3.30127L133.571 10.2646V17.7431L147.53 10.7797Z" fill="white"/>
<path d="M147.529 12.3433L140.565 15.8191V32.83H147.529V12.3433Z" fill="white"/>
<path d="M121.402 0H0V36.9741H121.402V0Z" fill="#81859C"/>
<path d="M11.7496 28.3602V8.76562H18.7353C20.6483 8.76564 22.199 9.37911 23.3873 10.606C24.5756 11.833 25.1698 13.3064 25.1698 15.0263C25.1698 16.7463 24.5805 18.2053 23.4019 19.4033C22.2233 20.6013 20.6678 21.2004 18.7353 21.2003H16.0107V28.3602H11.7496ZM16.0107 17.6646H18.5902C19.2666 17.6646 19.8125 17.423 20.228 16.9397C20.6435 16.4564 20.8512 15.8186 20.8512 15.0263C20.8512 14.234 20.6435 13.5964 20.228 13.1134C19.8125 12.6304 19.2666 12.3889 18.5902 12.3889H16.0107V17.6646Z" fill="white"/>
<path d="M27.1749 20.6498V16.5046C27.1749 13.9151 27.9044 11.915 29.3634 10.5044C30.8224 9.09376 32.6727 8.38845 34.9142 8.38843C37.1752 8.38845 39.0352 9.09376 40.4942 10.5044C41.9532 11.915 42.6827 13.9151 42.6827 16.5046V20.6498C42.6827 23.2581 41.9532 25.2581 40.4942 26.6495C39.0352 28.041 37.1752 28.7367 34.9142 28.7367C32.6727 28.7367 30.8224 28.0363 29.3634 26.6354C27.9044 25.2345 27.1749 23.2393 27.1749 20.6498ZM34.9142 25.1134C37.2525 25.1134 38.4216 23.5191 38.4216 20.3304V16.7947C38.4216 13.6061 37.2525 12.0117 34.9142 12.0117C32.5954 12.0117 31.436 13.6061 31.436 16.7947V20.3304C31.436 23.5191 32.5954 25.1134 34.9142 25.1134Z" fill="white"/>
<path d="M58.3135 24.3306L59.1247 27.838C57.27 28.4371 55.3861 28.7367 53.473 28.7367C51.0764 28.7367 49.1438 28.0458 47.6754 26.6641C46.207 25.2824 45.4728 23.287 45.4728 20.6781V16.4462C45.4728 13.8378 46.207 11.8428 47.6754 10.461C49.1438 9.07931 51.0764 8.38845 53.473 8.38843C55.3861 8.38845 57.27 8.68803 59.1247 9.28717L58.3135 12.7654C56.69 12.263 55.0859 12.0117 53.5013 12.0117C50.9897 12.0117 49.7339 13.6061 49.7339 16.7947V20.3012C49.7339 22.002 50.0575 23.2292 50.7047 23.9829C51.3519 24.7366 52.2841 25.1134 53.5013 25.1134C55.2021 25.1134 56.8062 24.8525 58.3135 24.3306Z" fill="white"/>
<path d="M74.5154 24.3306L75.3266 27.838C73.4719 28.4371 71.588 28.7367 69.6749 28.7367C67.2783 28.7367 65.3457 28.0458 63.8773 26.6641C62.4089 25.2824 61.6747 23.287 61.6747 20.6781V16.4462C61.6747 13.8378 62.4089 11.8428 63.8773 10.461C65.3457 9.07931 67.2783 8.38845 69.6749 8.38843C71.588 8.38845 73.4719 8.68803 75.3266 9.28717L74.5154 12.7654C72.8919 12.263 71.2878 12.0117 69.7032 12.0117C67.1916 12.0117 65.9358 13.6061 65.9358 16.7947V20.3012C65.9358 22.002 66.2594 23.2292 66.9066 23.9829C67.5538 24.7366 68.486 25.1134 69.7032 25.1134C71.404 25.1134 73.0081 24.8525 74.5154 24.3306Z" fill="white"/>
<path d="M93.2064 8.76562V28.3602H88.9453V20.0123C88.9453 18.9685 88.9839 17.9442 89.0612 16.9393L81.8438 28.3602H78.3656V8.76562H82.6267V17.2586C82.6267 18.1473 82.5975 19.1425 82.5391 20.2441L89.7574 8.76562H93.2064Z" fill="white"/>
<path d="M109.613 8.76562V28.3602H105.352V21.2003H103.729L100.598 28.3602H95.8447L99.4972 20.5917C98.415 20.1088 97.5743 19.3648 96.9752 18.3599C96.376 17.355 96.0764 16.244 96.0764 15.0268C96.0764 13.3066 96.6707 11.833 97.8593 10.606C99.0479 9.37911 100.599 8.76564 102.512 8.76562H109.613ZM102.714 17.6646H105.352V12.3889H102.714C102.038 12.3889 101.478 12.6353 101.033 13.128C100.589 13.6207 100.367 14.2537 100.367 15.0268C100.367 15.8188 100.584 16.4564 101.019 16.9397C101.453 17.423 102.019 17.6646 102.714 17.6646Z" fill="white"/>
</svg>
