<svg width="91" height="68" fill="none" xmlns="http://www.w3.org/2000/svg"><path d="M42.665 9.953v.09a1.4 1.4 0 010-.86 1.528 1.528 0 011.886-1.09l5.903 1.578a1.553 1.553 0 011.09 1.9 1.514 1.514 0 01-.59.846c-.872.629-3.85 2.656-3.85 2.656a1.539 1.539 0 01-1.282.244 1.566 1.566 0 01-1.04-.924l-2.027-4.17a1.513 1.513 0 01-.077-1.04 1.527 1.527 0 011.886-1.09l5.903 1.578a1.552 1.552 0 011.09 1.9 1.51 1.51 0 01-.59.846" fill="#F7B916"/><path d="M11.14 62.303l-.59.334a6.1 6.1 0 01-1.014.41c-.46.138-.926.25-1.398.334-.581.096-1.17.143-1.758.141a7.505 7.505 0 01-2.528-.436 5.631 5.631 0 01-2.014-1.206 5.478 5.478 0 01-1.373-1.95 6.62 6.62 0 01-.462-2.63 6.826 6.826 0 01.487-2.567 6.005 6.005 0 011.36-2.027 6.415 6.415 0 012.04-1.283 7.531 7.531 0 014.774-.142 5.132 5.132 0 011.616.86 3.49 3.49 0 011.283 2.772 3.593 3.593 0 01-.308 1.514 2.733 2.733 0 01-1.103 1.167 6.618 6.618 0 01-2.117.757c-1.112.21-2.243.305-3.375.282H2.954a2.99 2.99 0 001.129 1.887 4.62 4.62 0 002.823.757 6.34 6.34 0 001.142-.103 7.634 7.634 0 001.642-.565l.45-.205 1 1.9zM2.787 56.67H4.84c.71.016 1.419-.04 2.117-.166a4.184 4.184 0 001.283-.424 1.36 1.36 0 00.603-.603c.091-.215.14-.446.141-.68a1.488 1.488 0 00-.73-1.36 3.272 3.272 0 00-1.797-.449 3.682 3.682 0 00-1.553.308 3.413 3.413 0 00-1.116.821 3.746 3.746 0 00-.706 1.18 4.068 4.068 0 00-.295 1.373zm10.547 1.09a8.673 8.673 0 01.475-2.95 6.261 6.261 0 011.283-2.143 5.826 5.826 0 012.078-1.283 7.788 7.788 0 012.682-.45 6.583 6.583 0 012.502.476 6.235 6.235 0 011.989 1.283c.554.577.99 1.257 1.283 2.001a6.57 6.57 0 01.474 2.566 6.787 6.787 0 01-.461 2.567 5.827 5.827 0 01-3.118 3.259c-.77.313-1.594.47-2.425.462a5.325 5.325 0 01-2.4-.526 4.696 4.696 0 01-1.642-1.283v6.26h-2.72V57.762zm6.415 3.324c.512.012 1.02-.09 1.489-.295a3.322 3.322 0 001.167-.821c.34-.37.598-.807.757-1.283.172-.5.26-1.025.257-1.553a4.515 4.515 0 00-.257-1.514 3.437 3.437 0 00-.757-1.206 3.284 3.284 0 00-1.167-.808 3.516 3.516 0 00-1.489-.308 3.695 3.695 0 00-1.475.295c-.442.172-.84.44-1.168.783a3.35 3.35 0 00-.77 1.206 4.286 4.286 0 00-.27 1.552 4.39 4.39 0 00.27 1.553c.164.474.422.91.757 1.283.318.357.713.638 1.155.821.461.2.96.301 1.463.295h.038zM34.57 50.897a7.21 7.21 0 012.565.474c.769.29 1.475.726 2.079 1.283a6.08 6.08 0 011.386 2.002 6.504 6.504 0 010 5.004 6.081 6.081 0 01-1.386 2.002 6.725 6.725 0 01-2.002 1.424c-1.65.64-3.481.64-5.132 0a6.569 6.569 0 01-2.079-1.283 6.082 6.082 0 01-1.385-2.002 6.506 6.506 0 010-5.004A6.08 6.08 0 0130 52.795a6.323 6.323 0 012.079-1.283 7.185 7.185 0 012.49-.615zm0 10.264a3.645 3.645 0 001.5-.295c.452-.185.855-.47 1.18-.834.334-.376.596-.811.77-1.283a4.313 4.313 0 00.27-1.54 4.503 4.503 0 00-.27-1.565 3.849 3.849 0 00-.77-1.283 3.362 3.362 0 00-1.18-.821 3.851 3.851 0 00-1.5-.295 3.774 3.774 0 00-1.502.295 3.325 3.325 0 00-1.168.82c-.338.374-.6.81-.77 1.284a4.503 4.503 0 00-.269 1.565 4.313 4.313 0 00.27 1.54c.174.472.436.907.77 1.283.32.363.72.648 1.167.834a3.58 3.58 0 001.501.244v.051zm19.22 1.167a6.59 6.59 0 01-.705.398c-.308.145-.625.27-.95.372a7.065 7.065 0 01-1.283.296 7.888 7.888 0 01-1.527.128 7.52 7.52 0 01-2.566-.41 5.787 5.787 0 01-2.053-1.207 5.453 5.453 0 01-1.385-1.963 6.492 6.492 0 01-.514-2.682 6.995 6.995 0 01.5-2.72 5.531 5.531 0 013.465-3.22 7.695 7.695 0 012.566-.424 8.841 8.841 0 011.989.193c.447.1.879.26 1.283.474.294.149.546.37.732.642.147.21.227.461.23.718.001.324-.112.638-.32.886-.175.23-.377.437-.603.616a4.735 4.735 0 00-1.284-.77 4.646 4.646 0 00-2.001-.372 4.722 4.722 0 00-1.501.23c-.455.154-.87.403-1.22.732a3.272 3.272 0 00-.808 1.283 4.352 4.352 0 00-.295 1.72 4.58 4.58 0 00.308 1.783c.184.47.48.888.86 1.219.372.324.81.565 1.283.706.5.147 1.019.22 1.54.218a4.774 4.774 0 001.924-.321c.342-.136.672-.3.988-.488l1.348 1.963zm1.552-15.435a1.143 1.143 0 01.373-.95 1.681 1.681 0 011.077-.307c.265 0 .528.035.783.103l.475.167v6.543a4.695 4.695 0 011.424-1.078 5.35 5.35 0 012.476-.5 6.262 6.262 0 012.015.308c.587.196 1.129.51 1.59.924.452.418.8.937 1.014 1.514.255.676.377 1.395.36 2.117v7.455H64.22v-6.647a3.746 3.746 0 00-.654-2.438 2.758 2.758 0 00-2.258-.808 3.068 3.068 0 00-2.438.95 3.618 3.618 0 00-.821 2.489v6.415h-2.708V46.893zm14.422 2.22a1.13 1.13 0 01.385-.962c.302-.215.67-.32 1.04-.296.272-.006.545.029.808.103l.487.154v3.118h3.452a1.58 1.58 0 011.052.308 1.284 1.284 0 01.32.95 2.29 2.29 0 01-.115.743 3.15 3.15 0 01-.192.488h-4.517v5.312c-.013.346.044.69.167 1.014.093.248.253.465.462.628.203.162.44.276.693.334.269.064.544.094.82.09a3.85 3.85 0 001.284-.206c.301-.103.59-.24.86-.41l1.09 1.81c-.172.13-.352.25-.539.358a4.362 4.362 0 01-.846.398 7.79 7.79 0 01-1.117.334 7.32 7.32 0 01-1.36.128 4.21 4.21 0 01-3.156-1.09 3.851 3.851 0 01-1.078-2.836v-10.47zm20.26 13.973a7.426 7.426 0 01-.744.102l-1.206.129-1.553.102h-1.783a12.2 12.2 0 01-3.028-.32 5.13 5.13 0 01-1.86-.86 2.758 2.758 0 01-.924-1.283 4.247 4.247 0 01-.257-1.437 4.607 4.607 0 01.295-1.566c.197-.511.535-.956.975-1.283a4.85 4.85 0 011.784-.744 12.01 12.01 0 012.656-.257h1.719l1.283.103a3.002 3.002 0 00-.282-1.386 2.078 2.078 0 00-.744-.846 3.118 3.118 0 00-1.142-.437 8.713 8.713 0 00-1.476-.115 6.416 6.416 0 00-2.181.308 4.094 4.094 0 00-1.078.526 2.567 2.567 0 01-.398-.45 1.348 1.348 0 01-.077-1.462 1.59 1.59 0 01.642-.577c.38-.192.786-.326 1.206-.398.636-.102 1.28-.149 1.925-.141a10.66 10.66 0 012.566.282c.713.152 1.39.444 1.989.86.556.407.998.95 1.283 1.578.326.739.484 1.54.462 2.348l-.052 7.224zm-2.681-5.287l-.899-.14a14.916 14.916 0 00-1.963-.09 4.325 4.325 0 00-2.36.487 1.694 1.694 0 00-.732 1.527 1.9 1.9 0 00.154.783c.112.252.295.465.526.615a2.8 2.8 0 001.04.373 8.29 8.29 0 001.578.192c.583.01 1.166-.02 1.745-.09.423 0 .705-.09.86-.128l.05-3.529zm-5.877-31.923l-8.16-10.957a10.803 10.803 0 00-6.108-4.324 10.68 10.68 0 00-2.45-.36 6.274 6.274 0 00-3.709-2.758L36.661.946a6.197 6.197 0 00-4.773.629A11.113 11.113 0 0029.052.369a10.842 10.842 0 00-7.455.68L8.985 6.45a1.397 1.397 0 101.103 2.567l12.549-5.428a8.096 8.096 0 015.594-.526c.493.14.974.32 1.437.539a6.34 6.34 0 00-.744 1.745l-4.542 16.795a6.313 6.313 0 004.452 7.699l24.378 6.544a6.313 6.313 0 007.699-4.452l4.53-16.758c.203-.69.286-1.41.243-2.13a8.288 8.288 0 015.376 3.426l8.16 10.97c.18.252.445.43.745.501a1.372 1.372 0 001.501-2.066zM60.308 10.133c.47.133.908.365 1.283.68l-14.19 6.274-.142.064a2.81 2.81 0 01-3.631-1.013v-.077L34.313 3.538a3.4 3.4 0 011.603 0l24.392 6.595zm-1.976 21.094a3.541 3.541 0 01-4.337 2.502l-24.404-6.57a3.542 3.542 0 01-2.566-4.336l4.49-16.77a3.56 3.56 0 01.565-.963l9.354 12.587a5.556 5.556 0 003.22 2.31 5.492 5.492 0 003.978-.423l14.345-6.313c.036.43.001.864-.103 1.283l-4.542 16.693z" fill="#F2F2F2"/><path d="M21.584 7.49l-8.34 3.605a1.395 1.395 0 001.091 2.566l8.353-3.605a1.397 1.397 0 00-1.104-2.566zm-2.117 7.236l-2.142.885a1.372 1.372 0 00.18 2.567 1.4 1.4 0 00.91-.065l2.117-.846A1.397 1.397 0 0019.43 14.7l.038.025zm50.515 5.864l5.363 7.352a1.386 1.386 0 01-.295 1.925 1.361 1.361 0 01-1.18.205 1.283 1.283 0 01-.744-.513l-5.376-7.34a1.386 1.386 0 012.232-1.629zm-1.822 7.468l1.386 1.886a1.386 1.386 0 01-.295 1.924 1.425 1.425 0 01-1.193.219 1.399 1.399 0 01-.732-.514l-1.398-1.847a1.378 1.378 0 112.233-1.617v-.051z" fill="#F2F2F2"/></svg>