<svg width="66" height="66" viewBox="0 0 66 66" fill="none" xmlns="http://www.w3.org/2000/svg">
<path d="M40.72 43.7099C41.0185 43.7361 41.319 43.6949 41.5994 43.5893C41.8798 43.4837 42.1329 43.3165 42.34 43.0999L43.44 41.7199C43.8199 41.3028 44.3337 41.0315 44.8924 40.953C45.4512 40.8744 46.0198 40.9936 46.5 41.2899C47.4467 41.8246 48.3647 42.4088 49.25 43.0399C50.08 43.6499 51.8 45.0399 51.8 45.0399C52.1972 45.367 52.4618 45.8274 52.5446 46.3352C52.6274 46.843 52.5227 47.3636 52.25 47.7999C51.641 48.8641 50.8644 49.8231 49.95 50.6399C49.2995 51.2348 48.4899 51.6275 47.62 51.7699C47.5072 51.7862 47.3927 51.7862 47.28 51.7699C46.9407 51.7748 46.6029 51.7242 46.28 51.6199C44.0406 50.848 41.8888 49.8425 39.86 48.6199C37.9632 47.5833 36.1568 46.3891 34.46 45.0499C33.6155 44.3806 32.8076 43.6662 32.04 42.9099L31.96 42.8299L31.88 42.7499L31.8 42.6699L31.72 42.5899C30.9363 41.8526 30.1951 41.0713 29.5 40.2499C28.1631 38.5571 26.9722 36.754 25.94 34.8599C24.7212 32.8292 23.7158 30.6777 22.94 28.4399C22.8306 28.1183 22.7798 27.7796 22.79 27.4399C22.7791 27.3269 22.7791 27.213 22.79 27.0999C22.9301 26.2263 23.3229 25.4129 23.92 24.7599C24.736 23.8487 25.6912 23.0725 26.75 22.4599C27.1868 22.1862 27.7087 22.0819 28.2172 22.1667C28.7257 22.2514 29.1856 22.5194 29.51 22.9199C29.51 22.9199 30.94 24.6299 31.51 25.4699C32.08 26.3099 32.86 27.4699 33.26 28.2099C33.5597 28.6926 33.6808 29.265 33.6022 29.8277C33.5237 30.3904 33.2504 30.9078 32.83 31.2899L31.44 32.3999C31.2248 32.6059 31.0584 32.8574 30.9529 33.1359C30.8473 33.4145 30.8054 33.7131 30.83 34.0099C30.83 34.0099 33.03 41.7499 40.72 43.7099Z" fill="#F7B916"/>
<path d="M37.21 10.29C42.4835 10.2979 47.6364 11.8691 52.0172 14.8049C56.398 17.7407 59.8101 21.9093 61.8223 26.7839C63.8344 31.6584 64.3563 37.0201 63.3219 42.1912C62.2875 47.3624 59.7433 52.1107 56.0109 55.8362C52.2784 59.5617 47.5253 62.097 42.3522 63.1217C37.1792 64.1464 31.8185 63.6145 26.9477 61.5932C22.0769 59.5719 17.9147 56.152 14.9871 51.7657C12.0595 47.3793 10.498 42.2236 10.5 36.95" stroke="#1062AA" stroke-width="3" stroke-linecap="round" stroke-linejoin="round"/>
<path d="M31.3 10.94C33.2397 10.5045 35.222 10.2865 37.21 10.29V2" stroke="#1062AA" stroke-width="3" stroke-linecap="round" stroke-linejoin="round"/>
<path d="M11.67 29.25C12.2472 27.3337 13.0389 25.4887 14.03 23.75" stroke="#1062AA" stroke-width="3" stroke-linecap="round" stroke-linejoin="round"/>
<path d="M19.91 16.6601C21.4448 15.3582 23.1222 14.2343 24.91 13.3101" stroke="#1062AA" stroke-width="3" stroke-linecap="round" stroke-linejoin="round"/>
<path d="M2 44.0401L10.69 36.8101L19.64 44.0401" stroke="#1062AA" stroke-width="3" stroke-linecap="round" stroke-linejoin="round"/>
<path d="M26.67 2H47.75" stroke="#1062AA" stroke-width="3" stroke-linecap="round" stroke-linejoin="round"/>
<path d="M40.23 43.7099C40.5269 43.7346 40.8255 43.6926 41.104 43.5871C41.3825 43.4815 41.634 43.3151 41.84 43.0999L42.95 41.7199C43.331 41.2978 43.8486 41.0233 44.4118 40.9447C44.975 40.8661 45.5479 40.9883 46.03 41.2899C46.972 41.8271 47.8865 42.4111 48.77 43.0399C49.61 43.6499 51.32 45.0399 51.32 45.0399C51.7208 45.3645 51.9882 45.8251 52.0712 46.3341C52.1542 46.8432 52.047 47.3649 51.77 47.7999C51.1722 48.881 50.4059 49.86 49.5 50.6999C48.8471 51.297 48.0336 51.6899 47.16 51.8299C47.0473 51.8465 46.9327 51.8465 46.82 51.8299C46.4807 51.8352 46.1428 51.7845 45.82 51.6799V51.6799C43.5813 50.9063 41.4297 49.9008 39.4 48.6799C37.5063 47.6434 35.7032 46.4492 34.01 45.1099C33.1356 44.4528 32.2977 43.7484 31.5 42.9999L31.42 42.9199L31.34 42.8399L31.26 42.7599L31.18 42.6799C30.4232 41.9064 29.7056 41.0954 29.03 40.2499C27.7067 38.5537 26.526 36.7509 25.5 34.8599C24.275 32.8325 23.2693 30.6804 22.5 28.4399V28.4399C22.3906 28.1183 22.3398 27.7796 22.35 27.4399C22.3334 27.3272 22.3334 27.2127 22.35 27.0999C22.492 26.217 22.8921 25.3959 23.5 24.7399V24.7399C24.3173 23.826 25.2762 23.0495 26.34 22.4399" stroke="#1062AA" stroke-width="3" stroke-linecap="round" stroke-linejoin="round"/>
</svg>
