<svg width="51" height="51" viewBox="0 0 51 51" fill="none" xmlns="http://www.w3.org/2000/svg">
<path d="M29.9576 45.2946L35.9327 50.4453V45.2946C38.9202 45.2946 41.3425 42.7997 41.3425 39.9025V20.8287C41.3425 17.851 38.8394 15.4366 35.9327 15.4366H13.2437C10.2562 15.4366 7.83385 17.9314 7.83385 20.8287V39.822C7.83385 42.7997 10.3369 45.2141 13.2437 45.2141L29.9576 45.2946Z" fill="white" stroke="#333333" stroke-miterlimit="10" stroke-linecap="round" stroke-linejoin="round"/>
<path d="M39.6045 21.8553C33.7481 21.8553 28.9308 17.0537 28.9308 11.2164C28.9308 5.37917 33.7481 0.577541 39.6045 0.577541C45.4609 0.577541 50.2783 5.37917 50.2783 11.2164C50.2783 17.0537 45.4609 21.8553 39.6045 21.8553Z" fill="#6FC6AD" stroke="#333333" stroke-miterlimit="10" stroke-linecap="round" stroke-linejoin="round"/>
<path d="M33.9259 11.6869C34.1148 11.8752 39.0266 16.3944 39.0266 16.3944L45.6387 8.01504" fill="#6FC6AD"/>
<path d="M33.9259 11.6869C34.1148 11.8752 39.0266 16.3943 39.0266 16.3943L45.6387 8.01504" stroke="#333333" stroke-miterlimit="10" stroke-linecap="round" stroke-linejoin="round"/>
<path d="M21.046 31.3246C20.2673 31.3246 19.638 31.042 19.158 30.4766C18.678 29.9113 18.438 29.1753 18.438 28.2686C18.438 27.362 18.678 26.626 19.158 26.0606C19.638 25.4953 20.2673 25.2126 21.046 25.2126C21.8246 25.2126 22.4486 25.4953 22.918 26.0606C23.398 26.6153 23.638 27.3513 23.638 28.2686C23.638 29.186 23.398 29.9273 22.918 30.4926C22.4486 31.0473 21.8246 31.3246 21.046 31.3246ZM27.798 25.3086H29.03L21.382 36.5086H20.15L27.798 25.3086ZM21.046 30.4126C21.5366 30.4126 21.9206 30.226 22.198 29.8526C22.4753 29.4686 22.614 28.9406 22.614 28.2686C22.614 27.5966 22.4753 27.074 22.198 26.7006C21.9206 26.3166 21.5366 26.1246 21.046 26.1246C20.566 26.1246 20.182 26.3166 19.894 26.7006C19.6166 27.0846 19.478 27.6073 19.478 28.2686C19.478 28.93 19.6166 29.4526 19.894 29.8366C20.182 30.2206 20.566 30.4126 21.046 30.4126ZM28.134 36.6046C27.3553 36.6046 26.726 36.3273 26.246 35.7726C25.7766 35.2073 25.542 34.466 25.542 33.5486C25.542 32.6313 25.7766 31.8953 26.246 31.3406C26.726 30.7753 27.3553 30.4926 28.134 30.4926C28.9126 30.4926 29.542 30.7753 30.022 31.3406C30.502 31.906 30.742 32.642 30.742 33.5486C30.742 34.4553 30.502 35.1913 30.022 35.7566C29.542 36.322 28.9126 36.6046 28.134 36.6046ZM28.134 35.6926C28.614 35.6926 28.9926 35.5006 29.27 35.1166C29.558 34.7326 29.702 34.21 29.702 33.5486C29.702 32.8873 29.558 32.3646 29.27 31.9806C28.9926 31.5966 28.614 31.4046 28.134 31.4046C27.6433 31.4046 27.2593 31.5966 26.982 31.9806C26.7046 32.354 26.566 32.8766 26.566 33.5486C26.566 34.2206 26.7046 34.7486 26.982 35.1326C27.2593 35.506 27.6433 35.6926 28.134 35.6926Z" fill="#333333"/>
<ellipse cx="5.86858" cy="43.8768" rx="5.58587" ry="5.57113" fill="#F7B916"/>
<path d="M6.86029 45.0429C6.86029 44.8112 6.78493 44.6222 6.63423 44.4761C6.48352 44.3279 6.21769 44.188 5.83673 44.0565C5.36368 43.9083 5.03192 43.7329 4.84144 43.5304C4.65096 43.3258 4.55572 43.0617 4.55572 42.7382C4.55572 42.3979 4.66038 42.1223 4.8697 41.9115C5.07901 41.6985 5.36368 41.5774 5.7237 41.5482V40.9156H6.04396V41.5482C6.41235 41.5816 6.69702 41.7194 6.89797 41.9616C7.101 42.2037 7.20252 42.5325 7.20252 42.948H6.82889C6.82889 42.6202 6.74307 42.3603 6.57143 42.1682C6.40189 41.9741 6.16955 41.877 5.87441 41.877C5.57718 41.877 5.34484 41.9553 5.17739 42.1119C5.01203 42.2663 4.92935 42.473 4.92935 42.7319C4.92935 42.9824 5.00575 43.1786 5.15855 43.3206C5.31135 43.4605 5.5709 43.593 5.93721 43.7183C6.3056 43.8415 6.57248 43.9605 6.73784 44.0753C6.90529 44.188 7.02983 44.3227 7.11147 44.4792C7.19519 44.6337 7.23706 44.8195 7.23706 45.0366C7.23706 45.379 7.12926 45.6556 6.91366 45.8665C6.70016 46.0752 6.40607 46.1942 6.0314 46.2235V46.8184H5.71429V46.2266C5.29356 46.1995 4.96807 46.0679 4.73783 45.832C4.50758 45.594 4.39246 45.2694 4.39246 44.8581H4.76922C4.76922 45.1838 4.86446 45.4396 5.05494 45.6254C5.24542 45.8091 5.51125 45.9009 5.85243 45.9009C6.14966 45.9009 6.39142 45.8216 6.57771 45.6629C6.7661 45.5043 6.86029 45.2976 6.86029 45.0429Z" fill="#333333" stroke="#333333" stroke-width="0.5" stroke-linecap="round" stroke-linejoin="round"/>
<path d="M1.77203 22.755L11.0812 9.17705C11.2726 8.89785 11.5587 8.69704 11.887 8.61153L16.0059 7.5386C16.4005 7.4358 16.8206 7.5087 17.1575 7.73845L19.193 9.12663C19.5298 9.35638 19.7504 9.72038 19.7975 10.1245L20.2893 14.3419C20.3285 14.678 20.2447 15.0168 20.0533 15.296L10.7441 28.8739C10.3054 29.5139 9.42898 29.6776 8.7867 29.2396L2.1405 24.7069C1.49822 24.2689 1.33325 23.395 1.77203 22.755Z" fill="white"/>
<path fill-rule="evenodd" clip-rule="evenodd" d="M16.8755 8.149C16.658 8.0007 16.3869 7.95371 16.1324 8.02001L12.0135 9.09294C11.8018 9.14808 11.6174 9.27754 11.4941 9.45744L2.18496 23.0354C1.9023 23.4477 2.00823 24.0114 2.42292 24.2942L9.06913 28.8269C9.48383 29.1097 10.0489 29.0036 10.3316 28.5913L19.6407 15.0134C19.7641 14.8335 19.8181 14.6151 19.7928 14.3984L19.301 10.181C19.2706 9.9204 19.1284 9.68549 18.9109 9.53719L16.8755 8.149ZM15.8797 7.05502C16.4145 6.91571 16.9836 7.01453 17.4399 7.32571L19.4754 8.7139C19.9317 9.02508 20.2305 9.51819 20.2943 10.0658L20.7861 14.2832C20.8393 14.7386 20.7257 15.1979 20.4662 15.5764L11.1571 29.1543C10.5622 30.022 9.37454 30.2434 8.50468 29.6501L1.85847 25.1175C0.988612 24.5242 0.764595 23.3401 1.35949 22.4724L10.6686 8.89448C10.9281 8.51599 11.316 8.24382 11.7608 8.12795L15.8797 7.05502Z" fill="#333333"/>
<path d="M10.0481 12.7414C10.2902 12.3883 10.7735 12.2978 11.1276 12.5392L16.8972 16.4741C17.2513 16.7156 17.342 17.1976 17.0999 17.5507C16.8578 17.9038 16.3746 17.9943 16.0205 17.7529L10.2508 13.818C9.89679 13.5765 9.80603 13.0945 10.0481 12.7414Z" fill="#F7B916"/>
<path d="M8.73304 14.6595C8.97514 14.3064 9.45842 14.2159 9.81248 14.4574L15.5821 18.3922C15.9362 18.6337 16.0269 19.1157 15.7848 19.4688C15.5427 19.822 15.0595 19.9125 14.7054 19.671L8.93575 15.7361C8.58169 15.4947 8.49094 15.0127 8.73304 14.6595Z" fill="#F7B916"/>
<path d="M7.41795 16.5777C7.66005 16.2246 8.14333 16.1341 8.49738 16.3755L14.267 20.3104C14.6211 20.5519 14.7119 21.0339 14.4698 21.387C14.2276 21.7401 13.7444 21.8306 13.3903 21.5892L7.62065 17.6543C7.2666 17.4128 7.17584 16.9308 7.41795 16.5777Z" fill="#F7B916"/>
<path d="M6.10285 18.4958C6.34495 18.1427 6.82823 18.0522 7.18229 18.2937L12.952 22.2285C13.306 22.47 13.3968 22.952 13.1547 23.3051C12.9126 23.6582 12.4293 23.7488 12.0752 23.5073L6.30556 19.5724C5.95151 19.331 5.86075 18.849 6.10285 18.4958Z" fill="#F7B916"/>
<path d="M4.79164 20.4103C5.03374 20.0572 5.51703 19.9667 5.87108 20.2082L8.43869 21.9593C8.79275 22.2007 8.8835 22.6827 8.6414 23.0358C8.3993 23.389 7.91602 23.4795 7.56197 23.238L4.99435 21.4869C4.6403 21.2455 4.54954 20.7635 4.79164 20.4103Z" fill="#F7B916"/>
<path d="M15.5632 10.8727C15.8053 10.5196 16.2886 10.429 16.6427 10.6705C16.9967 10.912 17.0875 11.394 16.8454 11.7471C16.6033 12.1002 16.12 12.1907 15.7659 11.9493C15.4119 11.7078 15.3211 11.2258 15.5632 10.8727Z" fill="#333333"/>
<path fill-rule="evenodd" clip-rule="evenodd" d="M14.9437 4.90862C14.4835 4.22201 13.8252 3.74119 12.8519 3.64186C11.4075 3.49443 10.4742 3.81572 9.5117 4.17449C9.47083 4.18973 9.42986 4.20505 9.38878 4.22042C8.44696 4.57272 7.43972 4.9495 5.97182 4.85255C5.24785 4.80474 4.42187 4.64304 3.44076 4.31989C3.21708 4.24622 3.0958 4.00546 3.16988 3.78215C3.24395 3.55883 3.48532 3.43752 3.709 3.51119C4.63544 3.81633 5.38995 3.96063 6.02913 4.00284C7.31124 4.08751 8.16927 3.767 9.11059 3.41537C9.14492 3.40255 9.17937 3.38968 9.21396 3.37678C10.2119 3.00481 11.2958 2.62692 12.9397 2.7947C14.1969 2.92301 15.0703 3.565 15.6531 4.43457C16.2253 5.28815 16.5154 6.35459 16.6574 7.36538C16.8002 8.38157 16.7979 9.37674 16.7611 10.1137C16.7426 10.4833 16.7153 10.7906 16.6924 11.0063C16.681 11.1142 16.6707 11.1994 16.6631 11.2582C16.6594 11.2876 16.6563 11.3104 16.6541 11.3262L16.6515 11.3445L16.6508 11.3497L16.6506 11.3512C16.6505 11.3514 16.6504 11.352 16.2343 11.2911L16.6506 11.3512C16.6161 11.5839 16.3991 11.7456 16.166 11.7115C15.933 11.6774 15.772 11.4612 15.8063 11.2286C15.8063 11.2285 15.8063 11.2286 15.8063 11.2286L15.8069 11.2248L15.8089 11.2105C15.8107 11.1974 15.8134 11.1774 15.8168 11.1509C15.8236 11.0979 15.8332 11.019 15.8439 10.9178C15.8653 10.7152 15.8913 10.4238 15.9089 10.0723C15.9442 9.36691 15.9452 8.42946 15.8124 7.48458C15.6789 6.5343 15.4147 5.61121 14.9437 4.90862Z" fill="#333333"/>
</svg>
