<svg width="52" height="52" viewBox="0 0 52 52" fill="none" xmlns="http://www.w3.org/2000/svg">
<path d="M7.37522 8.70754V3.51184L14.7437 8.70754H24.3793C27.8746 8.70754 30.8031 11.5416 30.8031 15.1313V24.4836C30.8031 27.9788 27.9691 30.9073 24.3793 30.9073H7.37522C3.87993 30.9073 0.951447 28.0733 0.951447 24.4836V15.1313C0.951447 11.5416 3.78546 8.70754 7.37522 8.70754Z" fill="#F7B916" stroke="#333333" stroke-miterlimit="10" stroke-linecap="round" stroke-linejoin="round"/>
<path d="M39.8988 38.7293V43.925L32.5304 38.7293H22.8947C19.3994 38.7293 16.4709 35.8953 16.4709 32.3056V22.9533C16.4709 19.458 19.305 16.5295 22.8947 16.5295H39.8988C43.3941 16.5295 46.3226 19.3636 46.3226 22.9533V32.3056C46.3226 35.8009 43.3941 38.7293 39.8988 38.7293Z" fill="white" stroke="#333333" stroke-miterlimit="10" stroke-linecap="round" stroke-linejoin="round"/>
<path d="M28.245 28.4657V23.27L20.8765 28.4657H11.1464C7.65111 28.4657 4.72263 31.2997 4.72263 34.8895V44.2417C4.72263 47.737 7.55664 50.6655 11.1464 50.6655H28.245C31.7402 50.6655 34.6687 47.8315 34.6687 44.2417V34.8895C34.5743 31.2997 31.7402 28.4657 28.245 28.4657Z" fill="white" stroke="#333333" stroke-miterlimit="10" stroke-linecap="round" stroke-linejoin="round"/>
<path d="M12.8468 41.6911C13.838 41.6911 14.6416 40.8875 14.6416 39.8962C14.6416 38.9049 13.838 38.1013 12.8468 38.1013C11.8555 38.1013 11.0519 38.9049 11.0519 39.8962C11.0519 40.8875 11.8555 41.6911 12.8468 41.6911Z" fill="#6FC6AD" stroke="#333333" stroke-miterlimit="10" stroke-linecap="round" stroke-linejoin="round"/>
<path d="M19.365 41.6911C20.3563 41.6911 21.1599 40.8875 21.1599 39.8962C21.1599 38.9049 20.3563 38.1013 19.365 38.1013C18.3737 38.1013 17.5701 38.9049 17.5701 39.8962C17.5701 40.8875 18.3737 41.6911 19.365 41.6911Z" fill="#6FC6AD" stroke="#333333" stroke-miterlimit="10" stroke-linecap="round" stroke-linejoin="round"/>
<path d="M25.8833 41.6911C26.8745 41.6911 27.6781 40.8875 27.6781 39.8962C27.6781 38.9049 26.8745 38.1013 25.8833 38.1013C24.892 38.1013 24.0884 38.9049 24.0884 39.8962C24.0884 40.8875 24.892 41.6911 25.8833 41.6911Z" fill="#6FC6AD" stroke="#333333" stroke-miterlimit="10" stroke-linecap="round" stroke-linejoin="round"/>
<path d="M40.2767 22.0161C34.4197 22.0161 29.6019 17.1983 29.6019 11.3413C29.6019 5.48433 34.4197 0.666504 40.2767 0.666504C46.1336 0.666504 50.9515 5.48433 50.9515 11.3413C50.9515 17.1983 46.1336 22.0161 40.2767 22.0161Z" fill="#6FC6AD" stroke="#333333" stroke-miterlimit="10" stroke-linecap="round" stroke-linejoin="round"/>
<path d="M34.6086 11.8721C34.7975 12.061 39.7098 16.5954 39.7098 16.5954L46.3225 8.18787" fill="#6FC6AD"/>
<path d="M34.6086 11.8721C34.7975 12.061 39.7098 16.5954 39.7098 16.5954L46.3225 8.18787" stroke="#333333" stroke-miterlimit="10" stroke-linecap="round" stroke-linejoin="round"/>
</svg>
