<svg width="52" height="52" viewBox="0 0 52 52" fill="none" xmlns="http://www.w3.org/2000/svg">
<path d="M39.1456 51.1915H7.77968C4.06 51.1915 0.943512 48.1762 0.943512 44.3568V14.0028C0.943512 10.2839 3.95947 7.16809 7.77968 7.16809H39.1456C42.8653 7.16809 45.9818 10.1834 45.9818 14.0028V44.3568C45.8813 48.1762 42.8653 51.1915 39.1456 51.1915Z" fill="white" stroke="#333333" stroke-miterlimit="10" stroke-linecap="round" stroke-linejoin="round"/>
<path d="M22.8595 36.3161C19.1398 36.3161 16.0233 33.3008 16.0233 29.4814C16.0233 25.7625 19.0392 22.6467 22.8595 22.6467C26.5791 22.6467 29.6956 25.662 29.6956 29.4814C29.6956 33.2003 26.6797 36.3161 22.8595 36.3161Z" fill="#F7B916" stroke="#333333" stroke-miterlimit="10" stroke-linecap="round" stroke-linejoin="round"/>
<path d="M34.6217 51.1917C34.6217 44.759 29.2935 39.432 22.8594 39.432C16.4254 39.432 11.0972 44.759 11.0972 51.1917H34.6217Z" fill="#F7B916" stroke="#333333" stroke-miterlimit="10" stroke-linecap="round" stroke-linejoin="round"/>
<path d="M1.04401 16.6162H45.8812" stroke="#333333" stroke-miterlimit="10" stroke-linecap="round" stroke-linejoin="round"/>
<path d="M7.27656 13.3995C7.94258 13.3995 8.48249 12.8596 8.48249 12.1936C8.48249 11.5276 7.94258 10.9877 7.27656 10.9877C6.61053 10.9877 6.07062 11.5276 6.07062 12.1936C6.07062 12.8596 6.61053 13.3995 7.27656 13.3995Z" stroke="#333333" stroke-miterlimit="10" stroke-linecap="round" stroke-linejoin="round"/>
<path d="M11.4989 13.3995C12.1649 13.3995 12.7048 12.8596 12.7048 12.1936C12.7048 11.5276 12.1649 10.9877 11.4989 10.9877C10.8329 10.9877 10.293 11.5276 10.293 12.1936C10.293 12.8596 10.8329 13.3995 11.4989 13.3995Z" stroke="#333333" stroke-miterlimit="10" stroke-linecap="round" stroke-linejoin="round"/>
<path d="M15.6207 13.3995C16.2868 13.3995 16.8267 12.8596 16.8267 12.1936C16.8267 11.5276 16.2868 10.9877 15.6207 10.9877C14.9547 10.9877 14.4148 11.5276 14.4148 12.1936C14.4148 12.8596 14.9547 13.3995 15.6207 13.3995Z" stroke="#333333" stroke-miterlimit="10" stroke-linecap="round" stroke-linejoin="round"/>
<path d="M40.263 22.5481C34.4029 22.5481 29.5825 17.7287 29.5825 11.8699C29.5825 6.01102 34.4029 1.19165 40.263 1.19165C46.1231 1.19165 50.9435 6.01102 50.9435 11.8699C50.9435 17.7287 46.1231 22.5481 40.263 22.5481Z" fill="#6FC6AD" stroke="#333333" stroke-miterlimit="10" stroke-linecap="round" stroke-linejoin="round"/>
<path d="M34.5919 12.315C34.7809 12.504 39.6959 17.0399 39.6959 17.0399L46.3121 8.62964" fill="#6FC6AD"/>
<path d="M34.5919 12.315C34.7809 12.504 39.6959 17.0399 39.6959 17.0399L46.3121 8.62964" stroke="#333333" stroke-miterlimit="10" stroke-linecap="round" stroke-linejoin="round"/>
</svg>
