<svg width="51" height="52" viewBox="0 0 51 52" fill="none" xmlns="http://www.w3.org/2000/svg">
<path d="M14.6867 14.4019L2.08307 51.439L39.3653 39.3578L14.6867 14.4019Z" fill="white" stroke="#333333" stroke-miterlimit="10" stroke-linecap="round" stroke-linejoin="round"/>
<path d="M12.219 21.7211L32.9313 41.386L24.2057 44.2079L9.22229 30.4513L12.219 21.7211Z" fill="#F7B916" stroke="#333333" stroke-miterlimit="10" stroke-linecap="round" stroke-linejoin="round"/>
<path d="M18.1242 46.1479L7.45953 35.7423L5.60864 41.1215L12.5715 47.9998L18.1242 46.1479Z" fill="#6FC6AD" stroke="#333333" stroke-miterlimit="10" stroke-linecap="round" stroke-linejoin="round"/>
<path d="M48.2897 36.4919C49.2633 36.4919 50.0525 35.7022 50.0525 34.7282C50.0525 33.7541 49.2633 32.9645 48.2897 32.9645C47.3162 32.9645 46.527 33.7541 46.527 34.7282C46.527 35.7022 47.3162 36.4919 48.2897 36.4919Z" fill="#F7B916" stroke="#333333" stroke-miterlimit="10" stroke-linecap="round" stroke-linejoin="round"/>
<path d="M15.4544 4.9663C16.428 4.9663 17.2172 4.17668 17.2172 3.20263C17.2172 2.22859 16.428 1.43896 15.4544 1.43896C14.4809 1.43896 13.6917 2.22859 13.6917 3.20263C13.6917 4.17668 14.4809 4.9663 15.4544 4.9663Z" fill="#F7B916" stroke="#333333" stroke-miterlimit="10" stroke-linecap="round" stroke-linejoin="round"/>
<path d="M29.3528 22.9495C29.3528 20.4195 31.3608 18.4104 33.8895 18.4104H34.4101C36.9387 18.4104 38.9468 16.4013 38.9468 13.8714C38.9468 11.3414 40.9548 9.33232 43.4835 9.33232H44.0041C46.5327 9.33232 48.5407 7.32324 48.5407 4.79327" stroke="#333333" stroke-miterlimit="10" stroke-linecap="round" stroke-linejoin="round"/>
<path d="M24.1063 19.4263C23.3114 17.9947 23.7884 16.245 25.2192 15.4497L25.5372 15.2906C26.968 14.4953 27.4449 12.7456 26.65 11.314C25.8551 9.88243 26.3321 8.13272 27.7629 7.33739L28.0809 7.17833C29.5117 6.383 29.9887 4.63329 29.1938 3.20171" stroke="#333333" stroke-miterlimit="10" stroke-linecap="round" stroke-linejoin="round"/>
<path d="M33.9632 28.3349C34.5991 26.9033 36.3479 26.2671 37.7788 26.9033L38.0967 27.0624C39.5276 27.6986 41.2764 27.0624 41.9123 25.6308C42.5482 24.1992 44.297 23.563 45.7279 24.1992L46.0458 24.3583C47.4767 24.9945 49.2255 24.3583 49.8614 22.9267" stroke="#333333" stroke-miterlimit="10" stroke-linecap="round" stroke-linejoin="round"/>
<path d="M34.0771 12.3737C35.0506 12.3737 35.8398 11.5841 35.8398 10.61C35.8398 9.63598 35.0506 8.84636 34.0771 8.84636C33.1035 8.84636 32.3143 9.63598 32.3143 10.61C32.3143 11.5841 33.1035 12.3737 34.0771 12.3737Z" fill="#F7B916" stroke="#333333" stroke-miterlimit="10" stroke-linecap="round" stroke-linejoin="round"/>
<path d="M0.130051 10.6415L2.06908 14.7861C2.33349 15.4034 3.21487 15.4034 3.56742 14.8743L5.50644 11.347C5.77086 10.8179 5.50644 10.2006 4.88948 10.1124L1.01143 9.49511C0.306326 9.40693 -0.134361 10.0242 0.130051 10.6415Z" fill="#6FC6AD"/>
<path d="M44.0366 50.3807L48.5316 49.6753C49.2367 49.5871 49.5011 48.7934 48.9723 48.2643L46.1519 45.4425C45.7112 45.0015 45.0942 45.1779 44.8298 45.707L43.1552 49.2344C42.8908 49.7635 43.3315 50.4689 44.0366 50.3807Z" fill="#6FC6AD"/>
<path d="M48.8761 17.8607L50.0219 13.4515C50.1982 12.8342 49.5812 12.2169 48.9642 12.4815L45.2625 13.9806C44.7336 14.157 44.5574 14.8624 44.9981 15.3034L47.6422 18.2134C47.9066 18.6543 48.788 18.478 48.8761 17.8607Z" fill="#6FC6AD"/>
</svg>
