<svg width="52" height="52" viewBox="0 0 52 52" fill="none" xmlns="http://www.w3.org/2000/svg">
<path d="M11.596 5.79689L6.20629 1.13843V5.79689C3.51142 5.79689 1.32639 8.05333 1.32639 10.6737V27.9246C1.32639 30.6177 3.58425 32.8014 6.20629 32.8014H26.7456C29.4405 32.8014 31.6255 30.5449 31.6255 27.9246V10.6737C31.6255 7.98054 29.3676 5.79689 26.7456 5.79689H11.596Z" fill="#F7B916" stroke="#333333" stroke-miterlimit="10" stroke-linecap="round" stroke-linejoin="round"/>
<path d="M17.8046 20.884C14.8235 20.884 12.3257 18.4683 12.3257 15.4085C12.3257 12.4292 14.7429 9.93298 17.8046 9.93298C20.7858 9.93298 23.2836 12.3486 23.2836 15.4085C23.2836 18.3878 20.8664 20.884 17.8046 20.884Z" fill="white" stroke="#333333" stroke-miterlimit="10" stroke-linecap="round" stroke-linejoin="round"/>
<path d="M27.2317 32.8013C27.2317 27.6479 22.9613 23.3802 17.8046 23.3802C12.648 23.3802 8.37764 27.6479 8.37764 32.8013H27.2317Z" fill="white" stroke="#333333" stroke-miterlimit="10" stroke-linecap="round" stroke-linejoin="round"/>
<path d="M39.9284 45.9741L45.9035 51.1384V45.9741C48.891 45.9741 51.3133 43.4726 51.3133 40.5677V21.4435C51.3133 18.4579 48.8102 16.0371 45.9035 16.0371H23.2145C20.227 16.0371 17.8046 18.5386 17.8046 21.4435V40.487C17.8046 43.4726 20.3077 45.8934 23.2145 45.8934L39.9284 45.9741Z" fill="white" stroke="#333333" stroke-miterlimit="10" stroke-linecap="round" stroke-linejoin="round"/>
<path d="M40.6526 22.4725C34.7962 22.4725 29.9788 17.6582 29.9788 11.8055C29.9788 5.95276 34.7962 1.13843 40.6526 1.13843C46.509 1.13843 51.3264 5.95276 51.3264 11.8055C51.3264 17.6582 46.509 22.4725 40.6526 22.4725Z" fill="#6FC6AD" stroke="#333333" stroke-miterlimit="10" stroke-linecap="round" stroke-linejoin="round"/>
<path d="M34.9851 12.2775C35.174 12.4663 40.0858 16.9974 40.0858 16.9974L46.6979 8.59595" fill="#6FC6AD"/>
<path d="M34.9851 12.2775C35.174 12.4663 40.0858 16.9974 40.0858 16.9974L46.6979 8.59595" stroke="#333333" stroke-miterlimit="10" stroke-linecap="round" stroke-linejoin="round"/>
<path d="M8.24492 45.8512C6.00591 45.8512 4.16414 44.0106 4.16414 41.773C4.16414 39.5354 6.00591 37.6948 8.24492 37.6948C10.4839 37.6948 12.3257 39.5354 12.3257 41.773C12.3257 44.0106 10.4839 45.8512 8.24492 45.8512Z" fill="#6FC6AD" stroke="#333333" stroke-miterlimit="10" stroke-linecap="round" stroke-linejoin="round"/>
<path d="M6.07812 41.9537C6.15035 42.0258 8.02823 43.7582 8.02823 43.7582L10.5561 40.5461" fill="#6FC6AD"/>
<path d="M6.07812 41.9537C6.15035 42.0258 8.02823 43.7582 8.02823 43.7582L10.5561 40.5461" stroke="#333333" stroke-miterlimit="10" stroke-linecap="round" stroke-linejoin="round"/>
<path d="M29.955 28.3719H30.8925V35.4813H29.955V30.0028L26.454 35.4813H25.5116V28.3719H26.454V33.8505L29.955 28.3719ZM35.5019 34.285L37.2988 30.1981H38.4267V35.4813H37.5234V31.6385L35.8144 35.4813H35.1894L33.4462 31.5555V35.4813H32.5429V30.1981H33.7148L35.5019 34.285ZM43.9198 30.1981V35.4813H43.0116V33.4257H41.6493L40.4042 35.4813H39.4277L40.7558 33.2889C40.4172 33.1652 40.1568 32.9748 39.9745 32.7177C39.7955 32.4572 39.706 32.1545 39.706 31.8094C39.706 31.3277 39.8866 30.9403 40.248 30.6473C40.6093 30.3511 41.0927 30.2014 41.6982 30.1981H43.9198ZM40.6142 31.8192C40.6142 32.0764 40.7021 32.2847 40.8779 32.4442C41.0536 32.6005 41.2864 32.6802 41.5761 32.6835H43.0116V30.9305H41.7128C41.3775 30.9305 41.1106 31.0135 40.912 31.1796C40.7135 31.3423 40.6142 31.5555 40.6142 31.8192Z" fill="#333333"/>
</svg>
