<svg width="52" height="52" viewBox="0 0 52 52" fill="none" xmlns="http://www.w3.org/2000/svg">
<path d="M41.6077 51.3164L7.00923 51.2893C3.47056 51.2893 0.505737 48.4156 0.505737 44.7757V15.9435L41.6077 15.9706V44.8028C41.6077 48.4428 41.6077 51.3164 41.6077 51.3164Z" fill="white" stroke="#333333" stroke-miterlimit="10" stroke-linecap="round" stroke-linejoin="round"/>
<path d="M6.91243 5.43405L35.1998 5.43405C38.7385 5.43405 41.7033 8.30769 41.7033 11.9476V15.9707H0.504581V11.9476C0.408942 8.30769 3.27813 5.43405 6.91243 5.43405Z" fill="#6FC6AD" stroke="#333333" stroke-miterlimit="10" stroke-linecap="round" stroke-linejoin="round"/>
<path d="M11.0988 1.31494C10.4292 1.31494 9.95099 1.88971 9.95099 2.46449V9.84074C9.95099 10.5113 10.5249 10.9903 11.0988 10.9903C11.7683 10.9903 12.2465 10.4155 12.2465 9.84074V2.46449C12.3422 1.88971 11.7683 1.31494 11.0988 1.31494Z" fill="white" stroke="#333333" stroke-miterlimit="10" stroke-linecap="round" stroke-linejoin="round"/>
<path d="M31.47 1.31494C30.8005 1.31494 30.3223 1.88971 30.3223 2.46449V9.84074C30.3223 10.5113 30.8961 10.9903 31.47 10.9903C32.1396 10.9903 32.6178 10.4155 32.6178 9.84074V2.46449C32.7134 1.88971 32.1396 1.31494 31.47 1.31494Z" fill="white" stroke="#333333" stroke-miterlimit="10" stroke-linecap="round" stroke-linejoin="round"/>
<path d="M21.0567 21.1431L24.2128 27.6567L31.3858 28.7104L26.2213 33.6914L27.4646 40.8755L21.0567 37.5229L14.6489 40.8755L15.8922 33.6914L10.7277 28.7104L17.9006 27.6567L21.0567 21.1431Z" fill="#F7B916" stroke="#333333" stroke-miterlimit="10" stroke-linecap="round" stroke-linejoin="round"/>
<path d="M41.7991 51.3164C46.6057 51.3164 50.5023 47.4138 50.5023 42.5997C50.5023 37.7856 46.6057 33.883 41.7991 33.883C36.9924 33.883 33.0959 37.7856 33.0959 42.5997C33.0959 47.4138 36.9924 51.3164 41.7991 51.3164Z" fill="white" stroke="#333333" stroke-miterlimit="10" stroke-linecap="round" stroke-linejoin="round"/>
<path d="M41.7034 37.3312V43.0785H47.7287" fill="white"/>
<path d="M41.7034 37.3312V43.0785H47.7287" stroke="#333333" stroke-miterlimit="10" stroke-linecap="round" stroke-linejoin="round"/>
<path d="M10.7276 47.4699C11.309 47.4699 11.7803 46.9979 11.7803 46.4156C11.7803 45.8333 11.309 45.3613 10.7276 45.3613C10.1463 45.3613 9.67496 45.8333 9.67496 46.4156C9.67496 46.9979 10.1463 47.4699 10.7276 47.4699Z" fill="white" stroke="#333333" stroke-miterlimit="10" stroke-linecap="round" stroke-linejoin="round"/>
<path d="M15.8922 47.4699C16.4736 47.4699 16.9449 46.9979 16.9449 46.4156C16.9449 45.8333 16.4736 45.3613 15.8922 45.3613C15.3108 45.3613 14.8395 45.8333 14.8395 46.4156C14.8395 46.9979 15.3108 47.4699 15.8922 47.4699Z" fill="white" stroke="#333333" stroke-miterlimit="10" stroke-linecap="round" stroke-linejoin="round"/>
<path d="M21.0567 47.4699C21.6381 47.4699 22.1094 46.9979 22.1094 46.4156C22.1094 45.8333 21.6381 45.3613 21.0567 45.3613C20.4753 45.3613 20.004 45.8333 20.004 46.4156C20.004 46.9979 20.4753 47.4699 21.0567 47.4699Z" fill="white" stroke="#333333" stroke-miterlimit="10" stroke-linecap="round" stroke-linejoin="round"/>
<path d="M26.2213 47.4699C26.8027 47.4699 27.274 46.9979 27.274 46.4156C27.274 45.8333 26.8027 45.3613 26.2213 45.3613C25.6399 45.3613 25.1686 45.8333 25.1686 46.4156C25.1686 46.9979 25.6399 47.4699 26.2213 47.4699Z" fill="white" stroke="#333333" stroke-miterlimit="10" stroke-linecap="round" stroke-linejoin="round"/>
</svg>
