<svg width="52" height="51" viewBox="0 0 52 51" fill="none" xmlns="http://www.w3.org/2000/svg">
<path d="M30.5067 45.3396L36.4817 50.4903V45.3396C39.4693 45.3396 41.8916 42.8447 41.8916 39.9474V20.8737C41.8916 17.896 39.3885 15.4816 36.4817 15.4816H13.7928C10.8052 15.4816 8.38292 17.9764 8.38292 20.8737V39.867C8.38292 42.8447 10.886 45.2591 13.7928 45.2591L30.5067 45.3396Z" fill="white" stroke="#333333" stroke-miterlimit="10" stroke-linecap="round" stroke-linejoin="round"/>
<path d="M40.1536 21.9004C34.2972 21.9004 29.4798 17.0987 29.4798 11.2615C29.4798 5.42419 34.2972 0.622559 40.1536 0.622559C46.01 0.622559 50.8274 5.42419 50.8274 11.2615C50.8274 17.0987 46.01 21.9004 40.1536 21.9004Z" fill="#6FC6AD" stroke="#333333" stroke-miterlimit="10" stroke-linecap="round" stroke-linejoin="round"/>
<path d="M34.4749 11.7319C34.6639 11.9202 39.5757 16.4394 39.5757 16.4394L46.1878 8.06006" fill="#6FC6AD"/>
<path d="M34.4749 11.7319C34.6639 11.9202 39.5757 16.4394 39.5757 16.4394L46.1878 8.06006" stroke="#333333" stroke-miterlimit="10" stroke-linecap="round" stroke-linejoin="round"/>
<path d="M21.5951 31.3697C20.8164 31.3697 20.1871 31.087 19.7071 30.5217C19.2271 29.9564 18.9871 29.2204 18.9871 28.3137C18.9871 27.407 19.2271 26.671 19.7071 26.1057C20.1871 25.5404 20.8164 25.2577 21.5951 25.2577C22.3737 25.2577 22.9977 25.5404 23.4671 26.1057C23.9471 26.6604 24.1871 27.3964 24.1871 28.3137C24.1871 29.231 23.9471 29.9724 23.4671 30.5377C22.9977 31.0924 22.3737 31.3697 21.5951 31.3697ZM28.3471 25.3537H29.5791L21.9311 36.5537H20.6991L28.3471 25.3537ZM21.5951 30.4577C22.0857 30.4577 22.4697 30.271 22.7471 29.8977C23.0244 29.5137 23.1631 28.9857 23.1631 28.3137C23.1631 27.6417 23.0244 27.119 22.7471 26.7457C22.4697 26.3617 22.0857 26.1697 21.5951 26.1697C21.1151 26.1697 20.7311 26.3617 20.4431 26.7457C20.1657 27.1297 20.0271 27.6524 20.0271 28.3137C20.0271 28.975 20.1657 29.4977 20.4431 29.8817C20.7311 30.2657 21.1151 30.4577 21.5951 30.4577ZM28.6831 36.6497C27.9044 36.6497 27.2751 36.3724 26.7951 35.8177C26.3257 35.2524 26.0911 34.511 26.0911 33.5937C26.0911 32.6764 26.3257 31.9404 26.7951 31.3857C27.2751 30.8204 27.9044 30.5377 28.6831 30.5377C29.4617 30.5377 30.0911 30.8204 30.5711 31.3857C31.0511 31.951 31.2911 32.687 31.2911 33.5937C31.2911 34.5004 31.0511 35.2364 30.5711 35.8017C30.0911 36.367 29.4617 36.6497 28.6831 36.6497ZM28.6831 35.7377C29.1631 35.7377 29.5417 35.5457 29.8191 35.1617C30.1071 34.7777 30.2511 34.255 30.2511 33.5937C30.2511 32.9324 30.1071 32.4097 29.8191 32.0257C29.5417 31.6417 29.1631 31.4497 28.6831 31.4497C28.1924 31.4497 27.8084 31.6417 27.5311 32.0257C27.2537 32.399 27.1151 32.9217 27.1151 33.5937C27.1151 34.2657 27.2537 34.7937 27.5311 35.1777C27.8084 35.551 28.1924 35.7377 28.6831 35.7377Z" fill="#333333"/>
<ellipse cx="6.41766" cy="43.9218" rx="5.58587" ry="5.57113" fill="#F7B916"/>
<path d="M7.40936 45.0879C7.40936 44.8562 7.33401 44.6673 7.1833 44.5212C7.03259 44.3729 6.76676 44.2331 6.38581 44.1015C5.91275 43.9533 5.58099 43.778 5.39051 43.5755C5.20003 43.3709 5.10479 43.1068 5.10479 42.7832C5.10479 42.4429 5.20945 42.1673 5.41877 41.9565C5.62808 41.7436 5.91275 41.6225 6.27278 41.5932V40.9607H6.59303V41.5932C6.96143 41.6266 7.24609 41.7644 7.44704 42.0066C7.65007 42.2488 7.75159 42.5776 7.75159 42.993H7.37796C7.37796 42.6652 7.29214 42.4053 7.12051 42.2133C6.95096 42.0191 6.71862 41.922 6.42348 41.922C6.12626 41.922 5.89391 42.0003 5.72646 42.1569C5.5611 42.3114 5.47842 42.5181 5.47842 42.7769C5.47842 43.0275 5.55482 43.2237 5.70762 43.3656C5.86042 43.5055 6.11998 43.6381 6.48628 43.7633C6.85467 43.8865 7.12155 44.0055 7.28691 44.1203C7.45436 44.2331 7.57891 44.3677 7.66054 44.5243C7.74427 44.6788 7.78613 44.8646 7.78613 45.0817C7.78613 45.4241 7.67833 45.7007 7.46274 45.9115C7.24923 46.1203 6.95515 46.2393 6.58047 46.2685V46.8635H6.26336V46.2716C5.84263 46.2445 5.51715 46.113 5.2869 45.8771C5.05665 45.6391 4.94153 45.3145 4.94153 44.9032H5.3183C5.3183 45.2289 5.41354 45.4846 5.60401 45.6704C5.79449 45.8541 6.06032 45.946 6.40151 45.946C6.69873 45.946 6.94049 45.8666 7.12678 45.708C7.31517 45.5493 7.40936 45.3426 7.40936 45.0879Z" fill="#333333" stroke="#333333" stroke-width="0.5" stroke-linecap="round" stroke-linejoin="round"/>
<path d="M2.3211 22.8L11.6302 9.22206C11.8216 8.94286 12.1078 8.74205 12.436 8.65654L16.5549 7.58361C16.9496 7.48081 17.3697 7.55371 17.7066 7.78345L19.742 9.17164C20.0789 9.40138 20.2994 9.76539 20.3466 10.1695L20.8384 14.3869C20.8776 14.723 20.7937 15.0618 20.6023 15.341L11.2932 28.9189C10.8544 29.5589 9.97806 29.7226 9.33578 29.2846L2.68957 24.7519C2.04729 24.3139 1.88232 23.44 2.3211 22.8Z" fill="white"/>
<path fill-rule="evenodd" clip-rule="evenodd" d="M17.4245 8.19401C17.2071 8.04571 16.936 7.99872 16.6815 8.06502L12.5626 9.13795C12.3509 9.19309 12.1665 9.32255 12.0432 9.50245L2.73403 23.0804C2.45137 23.4927 2.5573 24.0564 2.972 24.3392L9.6182 28.8719C10.0329 29.1547 10.598 29.0486 10.8807 28.6364L20.1898 15.0584C20.3131 14.8785 20.3672 14.6601 20.3419 14.4434L19.8501 10.226C19.8197 9.96541 19.6775 9.7305 19.46 9.5822L17.4245 8.19401ZM16.4288 7.10002C16.9636 6.96072 17.5327 7.05954 17.989 7.37072L20.0245 8.75891C20.4807 9.07009 20.7796 9.5632 20.8434 10.1108L21.3352 14.3282C21.3883 14.7837 21.2747 15.2429 21.0153 15.6214L11.7061 29.1993C11.1112 30.067 9.92361 30.2884 9.05375 29.6952L2.40754 25.1625C1.53768 24.5692 1.31367 23.3851 1.90856 22.5174L11.2177 8.93949C11.4772 8.561 11.8651 8.28883 12.3099 8.17296L16.4288 7.10002Z" fill="#333333"/>
<path d="M10.5972 12.7864C10.8393 12.4332 11.3226 12.3427 11.6766 12.5842L17.4463 16.5191C17.8004 16.7605 17.8911 17.2425 17.649 17.5956C17.4069 17.9488 16.9236 18.0393 16.5696 17.7978L10.7999 13.8629C10.4459 13.6215 10.3551 13.1395 10.5972 12.7864Z" fill="#F7B916"/>
<path d="M9.28211 14.7045C9.52421 14.3514 10.0075 14.2609 10.3615 14.5023L16.1312 18.4372C16.4853 18.6787 16.576 19.1607 16.3339 19.5138C16.0918 19.8669 15.6085 19.9574 15.2545 19.716L9.48482 15.7811C9.13076 15.5396 9.04001 15.0576 9.28211 14.7045Z" fill="#F7B916"/>
<path d="M7.96702 16.6226C8.20912 16.2695 8.6924 16.179 9.04646 16.4205L14.8161 20.3553C15.1702 20.5968 15.2609 21.0788 15.0188 21.4319C14.7767 21.7851 14.2934 21.8756 13.9394 21.6341L8.16973 17.6992C7.81567 17.4578 7.72492 16.9758 7.96702 16.6226Z" fill="#F7B916"/>
<path d="M6.65192 18.5408C6.89403 18.1877 7.37731 18.0972 7.73136 18.3386L13.501 22.2735C13.8551 22.515 13.9458 22.997 13.7037 23.3501C13.4616 23.7032 12.9783 23.7937 12.6243 23.5523L6.85463 19.6174C6.50058 19.3759 6.40982 18.8939 6.65192 18.5408Z" fill="#F7B916"/>
<path d="M5.34072 20.4553C5.58282 20.1022 6.0661 20.0117 6.42015 20.2531L8.98777 22.0042C9.34182 22.2457 9.43258 22.7277 9.19048 23.0808C8.94837 23.4339 8.46509 23.5244 8.11104 23.283L5.54342 21.5319C5.18937 21.2904 5.09861 20.8084 5.34072 20.4553Z" fill="#F7B916"/>
<path d="M16.1123 10.9177C16.3544 10.5646 16.8377 10.4741 17.1917 10.7155C17.5458 10.957 17.6365 11.439 17.3944 11.7921C17.1523 12.1452 16.6691 12.2358 16.315 11.9943C15.9609 11.7528 15.8702 11.2708 16.1123 10.9177Z" fill="#333333"/>
<path fill-rule="evenodd" clip-rule="evenodd" d="M15.4928 4.9537C15.0326 4.2671 14.3742 3.78627 13.401 3.68694C11.9566 3.53952 11.0233 3.8608 10.0608 4.21957C10.0199 4.23481 9.97894 4.25013 9.93785 4.2655C8.99603 4.6178 7.98879 4.99458 6.52089 4.89763C5.79692 4.84982 4.97094 4.68812 3.98983 4.36497C3.76615 4.2913 3.64488 4.05055 3.71895 3.82723C3.79302 3.60391 4.0344 3.4826 4.25807 3.55627C5.18451 3.86141 5.93903 4.00571 6.5782 4.04792C7.86031 4.13259 8.71834 3.81208 9.65966 3.46045C9.694 3.44763 9.72845 3.43476 9.76303 3.42187C10.7609 3.0499 11.8449 2.67201 13.4888 2.83979C14.746 2.9681 15.6193 3.61008 16.2022 4.47965C16.7743 5.33323 17.0645 6.39967 17.2065 7.41046C17.3493 8.42666 17.347 9.42182 17.3102 10.1588C17.2917 10.5284 17.2643 10.8356 17.2415 11.0514C17.2301 11.1593 17.2198 11.2445 17.2122 11.3033C17.2084 11.3327 17.2054 11.3555 17.2032 11.3713L17.2006 11.3896L17.1999 11.3947L17.1996 11.3963C17.1996 11.3964 17.1995 11.3971 16.7834 11.3362L17.1996 11.3963C17.1652 11.6289 16.9482 11.7907 16.7151 11.7566C16.482 11.7225 16.321 11.5063 16.3554 11.2737C16.3554 11.2736 16.3554 11.2737 16.3554 11.2737L16.3559 11.2699L16.358 11.2556C16.3598 11.2425 16.3625 11.2225 16.3659 11.196C16.3727 11.143 16.3822 11.0641 16.393 10.9629C16.4144 10.7603 16.4404 10.4689 16.458 10.1173C16.4932 9.41199 16.4942 8.47454 16.3615 7.52966C16.228 6.57938 15.9637 5.65629 15.4928 4.9537Z" fill="#333333"/>
</svg>
