<svg width="51" height="51" viewBox="0 0 51 51" fill="none" xmlns="http://www.w3.org/2000/svg">
<g clip-path="url(#clip0)">
<path d="M11.3685 36.8302C9.46236 37.5267 7.35919 37.4485 5.50998 36.6123C3.66077 35.7762 2.21276 34.2486 1.47641 32.3572C0.740064 30.4657 0.774013 28.361 1.57098 26.4943C2.36794 24.6276 3.86447 23.1476 5.73969 22.3715L11.3685 36.8302Z" fill="#F7B916" stroke="#333333" stroke-linecap="round" stroke-linejoin="round"/>
<path d="M22.8434 18.4122C24.0472 17.9437 25.3878 17.9726 26.5703 18.4927C27.1558 18.7502 27.6849 19.1205 28.1273 19.5826C28.5697 20.0446 28.9168 20.5892 29.1487 21.1854C29.3807 21.7815 29.493 22.4176 29.4792 23.0571C29.4654 23.6967 29.3258 24.3273 29.0683 24.9129C28.8108 25.4985 28.4405 26.0276 27.9786 26.4701C27.5167 26.9126 26.9721 27.2598 26.3761 27.4918L22.8434 18.4122Z" fill="#F7B916" stroke="#333333" stroke-linecap="round" stroke-linejoin="round"/>
<path d="M44.3066 0.862885H26.6433C23.5207 0.862885 20.9894 3.39465 20.9894 6.51775C20.9894 9.64084 23.5207 12.1726 26.6433 12.1726H44.3066C47.4291 12.1726 49.9605 9.64084 49.9605 6.51775C49.9605 3.39465 47.4291 0.862885 44.3066 0.862885Z" fill="#6FC6AD" stroke="#333333" stroke-linecap="round" stroke-linejoin="round"/>
<path d="M49.9605 26.0968C49.9605 22.9737 47.4291 20.442 44.3066 20.442C41.184 20.442 38.6526 22.9737 38.6526 26.0968C38.6526 29.2199 41.184 31.7517 44.3066 31.7517C47.4291 31.7517 49.9605 29.2199 49.9605 26.0968Z" fill="#6FC6AD" stroke="#333333" stroke-linecap="round" stroke-linejoin="round"/>
<path d="M32.0047 3.99337V8.80237H31.5857L28.4942 4.90021V8.80237H27.9858V3.99337H28.4049L31.5032 7.89553V3.99337H32.0047ZM36.975 8.36269V8.80237H33.5744V3.99337H36.872V4.43305H34.0828V6.14368H36.5697V6.57649H34.0828V8.36269H36.975ZM44.705 3.99337L43.0837 8.80237H42.5478L41.1395 4.70098L39.7243 8.80237H39.1953L37.5739 3.99337H38.0961L39.4838 8.12911L40.9196 3.99337H41.3937L42.8089 8.14972L44.2172 3.99337H44.705Z" fill="#333333"/>
<path d="M19.6699 33.606L11.4187 36.8219L5.78979 22.3715L14.041 19.1556L20.2127 11.5796L28.7729 33.5643L19.6699 33.606Z" fill="white" stroke="#333333" stroke-linecap="round" stroke-linejoin="round"/>
<path d="M16.7831 34.7936L11.4099 36.876L16.5032 50.0231L21.8764 47.9408L16.7831 34.7936Z" fill="#6FC6AD" stroke="#333333" stroke-linecap="round" stroke-linejoin="round"/>
<path d="M16.9473 26.8486L19.5696 33.6227" stroke="#333333" stroke-linecap="round" stroke-linejoin="round"/>
<path d="M14.0076 19.1473L15.4942 22.9639" stroke="#333333" stroke-linecap="round" stroke-linejoin="round"/>
<path d="M41.1247 26.147H47.4467" stroke="#333333" stroke-linecap="round" stroke-linejoin="round"/>
<path d="M44.2815 23.0564V29.3795" stroke="#333333" stroke-linecap="round" stroke-linejoin="round"/>
<path d="M37.45 40.7811C37.45 38.8667 35.8983 37.3147 33.9842 37.3147C32.0701 37.3147 30.5184 38.8667 30.5184 40.7811C30.5184 42.6956 32.0701 44.2475 33.9842 44.2475C35.8983 44.2475 37.45 42.6956 37.45 40.7811Z" fill="#F7B916" stroke="#333333" stroke-linecap="round" stroke-linejoin="round"/>
<path d="M32.0337 40.8118H35.9091" stroke="#333333" stroke-linecap="round" stroke-linejoin="round"/>
<path d="M33.9688 38.9173V42.7978" stroke="#333333" stroke-linecap="round" stroke-linejoin="round"/>
</g>
<defs>
<clipPath id="clip0">
<rect width="50" height="50" fill="white" transform="translate(0.378082 0.445312)"/>
</clipPath>
</defs>
</svg>
