<svg width="43" height="42" viewBox="0 0 43 42" fill="none" xmlns="http://www.w3.org/2000/svg">
<rect x="11.4967" y="8.25977" width="20" height="19.9604" rx="9.98022" fill="#F7B916" stroke="#1062AA" stroke-width="2"/>
<path d="M18.1783 21.5526L24.8153 14.9275" stroke="#1062AA" stroke-width="2" stroke-linecap="round" stroke-linejoin="round"/>
<path d="M24.8152 21.5526L18.1782 14.9275" stroke="#1062AA" stroke-width="2" stroke-linecap="round" stroke-linejoin="round"/>
<path d="M14.4875 35.1313L7.6967 41V35.1374C6.05376 35.1342 4.47903 34.4801 3.31729 33.3183C2.15555 32.1566 1.50146 30.5819 1.49823 28.9389V7.19237C1.50306 5.55154 2.15702 3.97929 3.31727 2.81904C4.47752 1.65879 6.04977 1.00483 7.6906 1L35.2845 1.00024C36.9286 1.00024 38.5055 1.65206 39.6697 2.81283C40.8339 3.9736 41.4904 5.54861 41.4952 7.19261V28.9392C41.4904 30.5832 40.8339 32.1582 39.6697 33.319C38.5055 34.4797 36.9286 35.1315 35.2845 35.1315L14.4875 35.1313Z" stroke="#1062AA" stroke-width="2" stroke-linecap="round" stroke-linejoin="round"/>
</svg>
