<svg width="43" height="42" viewBox="0 0 43 42" fill="none" xmlns="http://www.w3.org/2000/svg">
<rect x="9.89221" y="7.02307" width="23.2089" height="23.1671" rx="11.5836" fill="#F7B916"/>
<path d="M15.3792 22.5673H9.5172V21.4064L12.2837 18.463C12.6636 18.0487 12.9436 17.6871 13.1237 17.3784C13.3077 17.0696 13.3997 16.7764 13.3997 16.4989C13.3997 16.1197 13.3038 15.8227 13.1119 15.6077C12.9201 15.3888 12.646 15.2793 12.2896 15.2793C11.9059 15.2793 11.6024 15.4122 11.3792 15.678C11.1599 15.9399 11.0502 16.2858 11.0502 16.7158H9.34686C9.34686 16.1959 9.47021 15.721 9.71691 15.2911C9.96752 14.8611 10.3199 14.5249 10.7742 14.2826C11.2284 14.0363 11.7434 13.9132 12.319 13.9132C13.2 13.9132 13.8834 14.1243 14.3689 14.5464C14.8584 14.9686 15.1031 15.5647 15.1031 16.3347C15.1031 16.7569 14.9935 17.1868 14.7742 17.6246C14.5549 18.0624 14.179 18.5725 13.6464 19.1549L11.7022 21.2011H15.3792V22.5673Z" fill="#1062AA"/>
<path d="M21.4468 19.3542H22.4159V20.7204H21.4468V22.5673H19.7493V20.7204H16.2426L16.1663 19.6533L19.7316 14.0305H21.4468V19.3542ZM17.8579 19.3542H19.7493V16.3406L19.6377 16.5341L17.8579 19.3542Z" fill="#1062AA"/>
<path d="M23.9373 23.3002H22.6744L25.8227 14.0305H27.0856L23.9373 23.3002Z" fill="#1062AA"/>
<path d="M33.6466 14.9803L30.3396 22.5673H28.5481L31.8609 15.4025H27.6083V14.0305H33.6466V14.9803Z" fill="#1062AA"/>
<path d="M14.4875 35.1313L7.6967 41V35.1374C6.05376 35.1342 4.47903 34.4801 3.31729 33.3183C2.15555 32.1566 1.50146 30.5819 1.49823 28.9389V7.19237C1.50306 5.55154 2.15702 3.97929 3.31727 2.81904C4.47752 1.65879 6.04977 1.00483 7.6906 1L35.2845 1.00024C36.9286 1.00024 38.5055 1.65206 39.6697 2.81283C40.8339 3.9736 41.4904 5.54861 41.4952 7.19261V28.9392C41.4904 30.5832 40.8339 32.1582 39.6697 33.319C38.5055 34.4797 36.9286 35.1315 35.2845 35.1315L14.4875 35.1313Z" stroke="#1062AA" stroke-width="2" stroke-linecap="round" stroke-linejoin="round"/>
</svg>
