<svg width="43" height="42" viewBox="0 0 43 42" fill="none" xmlns="http://www.w3.org/2000/svg">
<rect x="12.228" y="8.61096" width="19.3462" height="19.3078" rx="9.6539" fill="#F7B916" stroke="#1062AA" stroke-width="2"/>
<path d="M24.6045 22.3342C23.9844 22.875 23.1998 23.1914 22.3773 23.2321V24.8113H21.2109V23.2693C19.9929 23.2663 18.8241 22.7885 17.9538 21.9378L18.9775 20.9222C19.6077 21.5347 20.4493 21.8827 21.3288 21.8945V18.7237H20.969C20.2608 18.6673 19.5901 18.3826 19.0581 17.9125C18.8023 17.6608 18.6027 17.358 18.4722 17.024C18.3418 16.69 18.2835 16.3322 18.3013 15.9741C18.3013 14.1906 19.2711 13.21 21.2109 13.0325V11.7196H22.3773V12.9582C23.3927 12.9941 24.3605 13.3969 25.1009 14.0915L24.1144 15.0637C23.6039 14.5962 22.9453 14.3222 22.2532 14.2896V17.3861L22.7433 17.4542C23.4214 17.531 24.0652 17.7923 24.6045 18.2097C24.887 18.4733 25.1075 18.796 25.2502 19.1547C25.3928 19.5134 25.4541 19.8992 25.4297 20.2843C25.4479 20.6651 25.3836 21.0454 25.2412 21.3991C25.0988 21.7529 24.8817 22.0718 24.6045 22.3342ZM21.335 14.3392C20.3114 14.4445 19.7964 14.9585 19.7964 15.8874C19.7902 16.0625 19.8212 16.237 19.8875 16.3993C19.9538 16.5615 20.0539 16.7079 20.1811 16.8287C20.5102 17.0967 20.912 17.2606 21.335 17.2994V14.3392ZM23.5312 19.2935C23.3523 19.1382 23.1401 19.0259 22.9108 18.9652L22.2904 18.8662H22.2036V21.8821C23.3265 21.7768 23.8911 21.2628 23.8911 20.3586C23.9138 20.1651 23.894 19.969 23.8329 19.7839C23.7718 19.5989 23.671 19.4294 23.5374 19.2873L23.5312 19.2935Z" fill="#1062AA"/>
<path d="M14.8918 35.1313L8.101 41V35.1374C6.45805 35.1342 4.88332 34.4801 3.72158 33.3183C2.55984 32.1566 1.90575 30.5819 1.90253 28.9389V7.19237C1.90736 5.55154 2.56132 3.97929 3.72157 2.81904C4.88182 1.65879 6.45406 1.00483 8.09489 1L35.6888 1.00024C37.3328 1.00024 38.9098 1.65206 40.074 2.81283C41.2382 3.9736 41.8947 5.54861 41.8995 7.19261V28.9392C41.8947 30.5832 41.2382 32.1582 40.074 33.319C38.9098 34.4797 37.3328 35.1315 35.6888 35.1315L14.8918 35.1313Z" stroke="#1062AA" stroke-width="2" stroke-linecap="round" stroke-linejoin="round"/>
</svg>
