<svg width="43" height="42" viewBox="0 0 43 42" fill="none" xmlns="http://www.w3.org/2000/svg">
<path d="M21.9907 22.0622C24.2106 22.0622 26.0102 20.2659 26.0102 18.05C26.0102 15.8342 24.2106 14.0378 21.9907 14.0378C19.7709 14.0378 17.9713 15.8342 17.9713 18.05C17.9713 20.2659 19.7709 22.0622 21.9907 22.0622Z" fill="#F7B916" stroke="#1062AA" stroke-width="2" stroke-linecap="round" stroke-linejoin="round"/>
<path d="M20.6297 6.89952C20.5133 6.89802 20.4003 6.9383 20.3112 7.01303C20.222 7.08775 20.1628 7.19195 20.1442 7.30663L19.6586 10.1904C19.0974 10.3532 18.5553 10.5758 18.0418 10.8544L15.6724 9.15319C15.579 9.0878 15.4656 9.0573 15.3519 9.06705C15.2383 9.0768 15.1317 9.12617 15.0509 9.2065L13.1622 11.0918C13.081 11.1719 13.0306 11.278 13.0199 11.3914C13.0093 11.5049 13.039 11.6185 13.1039 11.7122L14.7839 14.1064C14.5 14.6236 14.2721 15.1695 14.1041 15.7349L11.2249 16.2196C11.1109 16.2392 11.0077 16.2988 10.9338 16.3876C10.8599 16.4765 10.8202 16.5888 10.8219 16.7042V19.3699C10.82 19.4846 10.859 19.5963 10.9319 19.6851C11.0048 19.7738 11.1069 19.8339 11.22 19.8545L14.1041 20.3634C14.2684 20.9294 14.4947 21.4755 14.779 21.9919L13.0796 24.3667C13.0128 24.4603 12.9815 24.5746 12.9913 24.6891C13.0011 24.8036 13.0513 24.911 13.133 24.9919L15.0218 26.8773C15.1026 26.9576 15.2092 27.007 15.3228 27.0167C15.4364 27.0265 15.5499 26.996 15.6433 26.9306L18.0467 25.2488C18.562 25.5319 19.1076 25.7562 19.6732 25.9176L20.1587 28.8256C20.1773 28.9403 20.2366 29.0445 20.3257 29.1192C20.4148 29.1939 20.5279 29.2342 20.6443 29.2327H23.3147C23.4304 29.2344 23.5428 29.1948 23.6319 29.121C23.7209 29.0473 23.7806 28.9442 23.8002 28.8304L24.3149 25.9225C24.8766 25.7547 25.4187 25.5272 25.9317 25.2439L28.3594 26.9403C28.4528 27.0057 28.5662 27.0362 28.6799 27.0264C28.7935 27.0167 28.9001 26.9673 28.9809 26.8869L30.8696 25.0016C30.9506 24.92 30.9999 24.8124 31.0088 24.6979C31.0177 24.5834 30.9856 24.4695 30.9182 24.3764L29.1897 21.9822C29.4687 21.4729 29.6917 20.9351 29.8548 20.3779L32.7681 19.8642C32.8821 19.8446 32.9853 19.785 33.0592 19.6961C33.1331 19.6073 33.1727 19.495 33.171 19.3795V16.7139C33.1725 16.5977 33.1322 16.4849 33.0573 16.3959C32.9825 16.307 32.8781 16.2478 32.7632 16.2292L29.85 15.7446C29.686 15.1878 29.463 14.65 29.1848 14.1404L30.889 11.717C30.9545 11.6239 30.9851 11.5106 30.9753 11.3972C30.9656 11.2837 30.9161 11.1774 30.8356 11.0967L28.942 9.21135C28.8603 9.1305 28.7525 9.08125 28.6378 9.07238C28.5231 9.0635 28.4089 9.09557 28.3157 9.16288L25.9075 10.8737C25.3933 10.594 24.8514 10.3683 24.2906 10.2001L23.8051 7.29209C23.7854 7.1783 23.7257 7.07524 23.6367 7.00149C23.5477 6.92774 23.4352 6.88814 23.3196 6.88982L20.6297 6.89952ZM21.0424 7.86884H22.8923L23.3778 10.6266C23.3946 10.7181 23.4374 10.8028 23.5011 10.8707C23.5648 10.9386 23.6467 10.9868 23.7371 11.0094C24.4367 11.1856 25.106 11.4649 25.723 11.8382C25.8046 11.8868 25.8987 11.9104 25.9936 11.9061C26.0886 11.9018 26.1802 11.8698 26.257 11.814L28.5293 10.1855L29.8403 11.5038L28.2186 13.8059C28.1674 13.8846 28.1402 13.9763 28.1402 14.0701C28.1402 14.1638 28.1674 14.2556 28.2186 14.3342C28.5906 14.9465 28.8673 15.6116 29.0392 16.3068C29.0617 16.3992 29.1111 16.483 29.181 16.5476C29.2509 16.6123 29.3384 16.6549 29.4324 16.6703L32.2048 17.121V18.9676L29.4276 19.4522C29.3344 19.4685 29.248 19.5115 29.179 19.5761C29.11 19.6407 29.0614 19.724 29.0392 19.8157C28.8659 20.5097 28.5911 21.1744 28.2235 21.7883C28.1712 21.8674 28.1434 21.9601 28.1434 22.0549C28.1434 22.1496 28.1712 22.2423 28.2235 22.3214L29.8646 24.5897L28.5585 25.8982L26.257 24.2698C26.1783 24.2187 26.0864 24.1915 25.9924 24.1915C25.8985 24.1915 25.8066 24.2187 25.7278 24.2698C25.1094 24.6346 24.4402 24.9058 23.742 25.0743C23.6516 25.097 23.5696 25.1451 23.5059 25.213C23.4422 25.2809 23.3994 25.3657 23.3827 25.4572L22.8971 28.2149H21.0424L20.586 25.4717C20.5706 25.3778 20.5279 25.2906 20.4631 25.2207C20.3984 25.1509 20.3144 25.1017 20.2218 25.0792C19.5215 24.9055 18.8507 24.6295 18.2312 24.2601C18.1524 24.209 18.0605 24.1818 17.9665 24.1818C17.8726 24.1818 17.7807 24.209 17.7019 24.2601L15.4199 25.8546L14.109 24.5897L15.7258 22.336C15.778 22.2568 15.8058 22.1642 15.8058 22.0694C15.8058 21.9747 15.778 21.882 15.7258 21.8029C15.3478 21.1856 15.0677 20.5137 14.8955 19.8109C14.8725 19.72 14.8235 19.6378 14.7546 19.5741C14.6856 19.5105 14.5997 19.4681 14.5071 19.4522L11.7736 18.9676V17.1016L14.5071 16.6509C14.6003 16.6347 14.6867 16.5916 14.7557 16.527C14.8247 16.4625 14.8733 16.3792 14.8955 16.2874C15.072 15.5861 15.3518 14.9147 15.7258 14.2954C15.778 14.2163 15.8058 14.1236 15.8058 14.0289C15.8058 13.9341 15.778 13.8415 15.7258 13.7623L14.1332 11.5038L15.4442 10.1952L17.7068 11.814C17.7861 11.8661 17.8789 11.8939 17.9738 11.8939C18.0687 11.8939 18.1616 11.8661 18.2409 11.814C18.8604 11.4502 19.5316 11.1822 20.2316 11.0191C20.3242 10.9966 20.4081 10.9474 20.4728 10.8776C20.5376 10.8077 20.5803 10.7205 20.5957 10.6266L21.0424 7.86884Z" fill="#1062AA" stroke="#1062AA"/>
<path d="M14.9873 35.1313L8.19646 41V35.1374C6.55351 35.1342 4.97878 34.4801 3.81704 33.3183C2.6553 32.1566 2.00121 30.5819 1.99799 28.9389V7.19237C2.00282 5.55154 2.65678 3.97929 3.81703 2.81904C4.97728 1.65879 6.54952 1.00483 8.19035 1L35.7843 1.00024C37.4283 1.00024 39.0053 1.65206 40.1695 2.81283C41.3337 3.9736 41.9901 5.54861 41.995 7.19261V28.9392C41.9901 30.5832 41.3337 32.1582 40.1695 33.319C39.0053 34.4797 37.4283 35.1315 35.7843 35.1315L14.9873 35.1313Z" stroke="#1062AA" stroke-width="2" stroke-linecap="round" stroke-linejoin="round"/>
</svg>
