<svg width="43" height="42" viewBox="0 0 43 42" fill="none" xmlns="http://www.w3.org/2000/svg">
<path d="M1.80261 9.72727C1.80261 7.41266 1.99503 4.44085 3.63172 2.80417C5.2684 1.16749 8.21527 1 10.5299 1H33.0753C35.39 1 38.2667 1.27624 39.9034 2.91292C41.54 4.5496 41.8026 7.41266 41.8026 9.72727" fill="#F7B917"/>
<path d="M8.31964 17.5237H18.4471" stroke="#1062AA" stroke-width="2" stroke-linecap="round" stroke-linejoin="round"/>
<path d="M8.31964 5.80725H13.9778" stroke="white" stroke-width="2" stroke-linecap="round" stroke-linejoin="round"/>
<path d="M8.31964 22.2455H18.4471" stroke="#1062AA" stroke-width="2" stroke-linecap="round" stroke-linejoin="round"/>
<path d="M8.31964 26.9673H18.4471" stroke="#1062AA" stroke-width="2" stroke-linecap="round" stroke-linejoin="round"/>
<path d="M1.80261 10.04H41.6499" stroke="#1062AA" stroke-width="2" stroke-linecap="round" stroke-linejoin="round"/>
<path d="M29.4381 6.78173C29.9763 6.78173 30.4127 6.34541 30.4127 5.80719C30.4127 5.26896 29.9763 4.83264 29.4381 4.83264C28.8999 4.83264 28.4636 5.26896 28.4636 5.80719C28.4636 6.34541 28.8999 6.78173 29.4381 6.78173Z" fill="white"/>
<path d="M32.3117 6.78173C32.8499 6.78173 33.2862 6.34541 33.2862 5.80719C33.2862 5.26896 32.8499 4.83264 32.3117 4.83264C31.7735 4.83264 31.3372 5.26896 31.3372 5.80719C31.3372 6.34541 31.7735 6.78173 32.3117 6.78173Z" fill="white"/>
<path d="M35.0901 6.78173C35.6284 6.78173 36.0647 6.34541 36.0647 5.80719C36.0647 5.26896 35.6284 4.83264 35.0901 4.83264C34.5519 4.83264 34.1156 5.26896 34.1156 5.80719C34.1156 6.34541 34.5519 6.78173 35.0901 6.78173Z" fill="white"/>
<path d="M36.0647 16.6418H24.8688V27.8377H36.0647V16.6418Z" fill="#F7B916"/>
<path d="M14.7949 35.1313L8.00408 41V35.1374C6.36113 35.1342 4.7864 34.4801 3.62466 33.3183C2.46292 32.1566 1.80883 30.5819 1.8056 28.9389V7.19237C1.81044 5.55154 2.4644 3.97929 3.62464 2.81904C4.78489 1.65879 6.35714 1.00483 7.99797 1L35.5919 1.00024C37.2359 1.00024 38.8129 1.65206 39.9771 2.81283C41.1413 3.9736 41.7978 5.54861 41.8026 7.19261V28.9392C41.7978 30.5832 41.1413 32.1582 39.9771 33.319C38.8129 34.4797 37.2359 35.1315 35.5919 35.1315L14.7949 35.1313Z" stroke="#1062AA" stroke-width="2" stroke-linecap="round" stroke-linejoin="round"/>
</svg>
