<svg width="43" height="42" viewBox="0 0 43 42" fill="none" xmlns="http://www.w3.org/2000/svg">
<path d="M21.4648 27.3179C26.6401 27.3179 30.8355 23.1301 30.8355 17.9641C30.8355 12.7982 26.6401 8.61035 21.4648 8.61035C16.2896 8.61035 12.0942 12.7982 12.0942 17.9641C12.0942 23.1301 16.2896 27.3179 21.4648 27.3179Z" fill="#F7B916"/>
<path d="M21.4991 28.0304C26.946 28.0304 31.3647 23.6222 31.3647 18.1807C31.3647 12.7392 26.946 8.33105 21.4991 8.33105C16.0522 8.33105 11.6335 12.7392 11.6335 18.1807C11.6335 23.6222 16.0522 28.0304 21.4991 28.0304Z" stroke="#1062AA" stroke-width="2" stroke-linecap="round" stroke-linejoin="round"/>
<path d="M21.4991 9.33069V27.03" stroke="#1062AA" stroke-width="2" stroke-linecap="round" stroke-linejoin="round"/>
<mask id="path-4-outside-1" maskUnits="userSpaceOnUse" x="14.6688" y="6.3446" width="9" height="23" fill="black">
<rect fill="white" x="14.6688" y="6.3446" width="9" height="23"/>
<path d="M21.4944 9.3446C21.4944 9.3446 16.6688 10.9827 16.6688 18.1618C16.6688 24.1064 21.4944 27.03 21.4944 27.03"/>
</mask>
<path d="M22.1373 11.2385C23.1833 10.8834 23.7433 9.74765 23.3883 8.70171C23.0332 7.65576 21.8975 7.09569 20.8515 7.45075L22.1373 11.2385ZM20.4581 28.7405C21.4028 29.3129 22.6326 29.011 23.205 28.0663C23.7773 27.1216 23.4755 25.8918 22.5308 25.3194L20.4581 28.7405ZM21.4944 9.3446C20.8515 7.45075 20.8503 7.45118 20.849 7.45161C20.8486 7.45176 20.8473 7.4522 20.8464 7.45251C20.8446 7.45313 20.8427 7.45377 20.8407 7.45445C20.8368 7.4558 20.8326 7.45727 20.8281 7.45885C20.8191 7.46203 20.8088 7.46568 20.7974 7.46983C20.7746 7.47813 20.747 7.48842 20.7151 7.50085C20.6512 7.52569 20.5696 7.55912 20.4728 7.60226C20.2795 7.68843 20.024 7.81404 19.7274 7.98825C19.1352 8.33614 18.37 8.88338 17.612 9.70448C16.0612 11.3845 14.6688 14.0745 14.6688 18.1618H18.6688C18.6688 15.07 19.6893 13.3514 20.5512 12.4176C20.9997 11.9318 21.4408 11.6208 21.7534 11.4372C21.9093 11.3457 22.0307 11.2872 22.1013 11.2558C22.1365 11.2401 22.1586 11.2313 22.1654 11.2287C22.1688 11.2273 22.1684 11.2276 22.1638 11.2292C22.1615 11.23 22.1582 11.2312 22.1538 11.2328C22.1516 11.2336 22.1491 11.2344 22.1464 11.2354C22.145 11.2358 22.1436 11.2363 22.1421 11.2368C22.1413 11.2371 22.1401 11.2375 22.1397 11.2376C22.1385 11.238 22.1373 11.2385 21.4944 9.3446ZM14.6688 18.1618C14.6688 21.7129 16.1189 24.363 17.5339 26.0919C18.2396 26.9541 18.9451 27.5993 19.4805 28.0335C19.7492 28.2515 19.9781 28.4188 20.147 28.536C20.2315 28.5946 20.3013 28.6409 20.3539 28.675C20.3802 28.692 20.4023 28.7059 20.4197 28.7169C20.4284 28.7223 20.436 28.727 20.4424 28.731C20.4456 28.733 20.4486 28.7347 20.4512 28.7363C20.4525 28.7371 20.4537 28.7379 20.4549 28.7386C20.4554 28.7389 20.4562 28.7394 20.4565 28.7396C20.4573 28.7401 20.4581 28.7405 21.4944 27.03C22.5308 25.3194 22.5315 25.3199 22.5322 25.3203C22.5324 25.3204 22.5331 25.3209 22.5336 25.3211C22.5344 25.3217 22.5352 25.3221 22.5359 25.3226C22.5374 25.3235 22.5385 25.3242 22.5394 25.3247C22.5412 25.3258 22.5419 25.3262 22.5415 25.326C22.5406 25.3255 22.5356 25.3223 22.5266 25.3164C22.5085 25.3047 22.4746 25.2824 22.4272 25.2495C22.3322 25.1836 22.184 25.0761 22.0004 24.927C21.6309 24.6274 21.13 24.1701 20.6293 23.5584C19.6315 22.3393 18.6688 20.5553 18.6688 18.1618H14.6688Z" fill="#1062AA" mask="url(#path-4-outside-1)"/>
<mask id="path-6-outside-2" maskUnits="userSpaceOnUse" x="18.4944" y="6.3446" width="10" height="23" fill="black">
<rect fill="white" x="18.4944" y="6.3446" width="10" height="23"/>
<path d="M21.4944 27.03C21.4944 27.03 26.3293 25.3826 26.3293 18.1618C26.3293 12.2589 21.4944 9.3446 21.4944 9.3446"/>
</mask>
<path d="M20.8494 25.1369C19.8038 25.4931 19.245 26.6295 19.6013 27.675C19.9575 28.7206 21.0939 29.2794 22.1395 28.9231L20.8494 25.1369ZM22.5269 7.63171C21.5809 7.06149 20.3517 7.36613 19.7815 8.31214C19.2113 9.25815 19.5159 10.4873 20.4619 11.0575L22.5269 7.63171ZM21.4944 27.03C22.1395 28.9231 22.1407 28.9227 22.142 28.9222C22.1424 28.9221 22.1437 28.9216 22.1446 28.9213C22.1464 28.9207 22.1483 28.9201 22.1503 28.9194C22.1542 28.918 22.1584 28.9166 22.163 28.915C22.172 28.9118 22.1823 28.9081 22.1937 28.9039C22.2166 28.8956 22.2442 28.8852 22.2762 28.8727C22.3402 28.8477 22.422 28.8141 22.519 28.7707C22.7127 28.684 22.9686 28.5577 23.2657 28.3826C23.859 28.0327 24.6253 27.4826 25.3841 26.6574C26.9363 24.9694 28.3293 22.2676 28.3293 18.1618H24.3293C24.3293 21.2768 23.3049 23.009 22.4397 23.9499C21.9898 24.4392 21.5473 24.7522 21.234 24.9369C21.0778 25.0291 20.9561 25.0878 20.8854 25.1195C20.8501 25.1353 20.828 25.1441 20.8212 25.1467C20.8178 25.1481 20.8182 25.1478 20.8228 25.1462C20.8251 25.1453 20.8285 25.1441 20.8329 25.1426C20.8351 25.1418 20.8376 25.1409 20.8403 25.14C20.8417 25.1395 20.8431 25.139 20.8446 25.1385C20.8454 25.1382 20.8466 25.1378 20.8469 25.1377C20.8481 25.1373 20.8494 25.1369 21.4944 27.03ZM28.3293 18.1618C28.3293 14.6264 26.8727 11.9873 25.4552 10.2675C24.748 9.40958 24.0412 8.7674 23.5052 8.33521C23.2361 8.11828 23.007 7.95178 22.838 7.83517C22.7534 7.7768 22.6835 7.73072 22.6309 7.69688C22.6046 7.67995 22.5826 7.66606 22.5652 7.65521C22.5565 7.64978 22.5489 7.64511 22.5425 7.64119C22.5393 7.63923 22.5364 7.63747 22.5338 7.63588C22.5325 7.63509 22.5313 7.63435 22.5301 7.63366C22.5295 7.63331 22.5287 7.63282 22.5284 7.63265C22.5276 7.63217 22.5269 7.63171 21.4944 9.3446C20.4619 11.0575 20.4612 11.0571 20.4605 11.0566C20.4603 11.0565 20.4596 11.0561 20.4592 11.0558C20.4583 11.0553 20.4575 11.0548 20.4568 11.0544C20.4554 11.0535 20.4542 11.0528 20.4534 11.0523C20.4516 11.0512 20.451 11.0508 20.4514 11.0511C20.4523 11.0516 20.4574 11.0548 20.4665 11.0607C20.4847 11.0724 20.5187 11.0947 20.5664 11.1275C20.6618 11.1934 20.8104 11.3007 20.9946 11.4492C21.3651 11.7479 21.867 12.2032 22.3686 12.8117C23.3685 14.0248 24.3293 15.7943 24.3293 18.1618H28.3293Z" fill="#1062AA" mask="url(#path-6-outside-2)"/>
<path d="M12.6335 17.9297H30.3647" stroke="#1062AA" stroke-width="2" stroke-linecap="round" stroke-linejoin="round"/>
<path d="M14.4557 35.1313L7.66481 41V35.1374C6.02187 35.1342 4.44714 34.4801 3.2854 33.3183C2.12365 32.1566 1.46957 30.5819 1.46634 28.9389V7.19237C1.47117 5.55154 2.12513 3.97929 3.28538 2.81904C4.44563 1.65879 6.01787 1.00483 7.65871 1L35.2527 1.00024C36.8967 1.00024 38.4736 1.65206 39.6378 2.81283C40.802 3.9736 41.4585 5.54861 41.4633 7.19261V28.9392C41.4585 30.5832 40.802 32.1582 39.6378 33.319C38.4736 34.4797 36.8967 35.1315 35.2527 35.1315L14.4557 35.1313Z" stroke="#1062AA" stroke-width="2" stroke-linecap="round" stroke-linejoin="round"/>
</svg>
