<svg width="43" height="42" viewBox="0 0 43 42" fill="none" xmlns="http://www.w3.org/2000/svg">
<path d="M24.0003 11.7852L35.0226 11.7852" stroke="#1062AA" stroke-width="2" stroke-linecap="round" stroke-linejoin="round"/>
<path d="M24.0003 17.7778L35.0226 17.7778" stroke="#1062AA" stroke-width="2" stroke-linecap="round" stroke-linejoin="round"/>
<path d="M8.10471 25.1525L35.0226 25.1525" stroke="#1062AA" stroke-width="2" stroke-linecap="round" stroke-linejoin="round"/>
<rect x="8.01624" y="9.56299" width="10.4594" height="10.437" rx="2" fill="#F7B916" stroke="#1062AA" stroke-width="2"/>
<path d="M14.4557 35.1313L7.66481 41V35.1374C6.02187 35.1342 4.44714 34.4801 3.2854 33.3183C2.12365 32.1566 1.46957 30.5819 1.46634 28.9389V7.19237C1.47117 5.55154 2.12513 3.97929 3.28538 2.81904C4.44563 1.65879 6.01787 1.00483 7.65871 1L35.2527 1.00024C36.8967 1.00024 38.4736 1.65206 39.6378 2.81283C40.802 3.9736 41.4585 5.54861 41.4633 7.19261V28.9392C41.4585 30.5832 40.802 32.1582 39.6378 33.319C38.4736 34.4797 36.8967 35.1315 35.2527 35.1315L14.4557 35.1313Z" stroke="#1062AA" stroke-width="2" stroke-linecap="round" stroke-linejoin="round"/>
</svg>
