<svg width="43" height="42" viewBox="0 0 43 42" fill="none" xmlns="http://www.w3.org/2000/svg">
<path d="M26.3802 9.68396C24.9096 8.83888 23.2404 8.39925 21.5436 8.41011C18.9781 8.41011 16.5177 9.42742 14.7036 11.2382C12.8895 13.0491 11.8704 15.5051 11.8704 18.0659C11.8704 20.6268 12.8895 23.0828 14.7036 24.8936C16.5177 26.7045 18.9781 27.7218 21.5436 27.7218C23.2404 27.7326 24.9096 27.293 26.3802 26.4479L21.5436 18.0405L26.3802 9.68396Z" fill="white" stroke="#1062AA" stroke-width="2" stroke-linecap="round" stroke-linejoin="round"/>
<path d="M28.4651 25.0592C28.4976 25.1148 28.5413 25.1631 28.5934 25.201C28.6455 25.2389 28.7049 25.2655 28.7679 25.2793C28.8309 25.2931 28.896 25.2936 28.9593 25.281C29.0225 25.2683 29.0823 25.2427 29.1351 25.2057C30.2199 24.4287 33.0146 22.0211 33.0146 18.0466C33.0146 14.0722 30.2199 11.6774 29.1351 10.8876C29.0823 10.8506 29.0225 10.825 28.9593 10.8123C28.896 10.7997 28.8309 10.8002 28.7679 10.814C28.7049 10.8278 28.6455 10.8544 28.5934 10.8923C28.5413 10.9302 28.4976 10.9785 28.4651 11.0341L24.541 17.8173C24.5001 17.888 24.4786 17.9682 24.4786 18.0498C24.4786 18.1314 24.5001 18.2116 24.541 18.2823L28.4651 25.0592Z" fill="#F7B916"/>
<path d="M14.9873 35.1313L8.19646 41V35.1374C6.55351 35.1342 4.97878 34.4801 3.81704 33.3183C2.6553 32.1566 2.00121 30.5819 1.99799 28.9389V7.19237C2.00282 5.55154 2.65678 3.97929 3.81703 2.81904C4.97728 1.65879 6.54952 1.00483 8.19035 1L35.7843 1.00024C37.4283 1.00024 39.0053 1.65206 40.1695 2.81283C41.3337 3.9736 41.9901 5.54861 41.995 7.19261V28.9392C41.9901 30.5832 41.3337 32.1582 40.1695 33.319C39.0053 34.4797 37.4283 35.1315 35.7843 35.1315L14.9873 35.1313Z" stroke="#1062AA" stroke-width="2" stroke-linecap="round" stroke-linejoin="round"/>
</svg>
