<svg width="47" height="51" viewBox="0 0 47 51" fill="none" xmlns="http://www.w3.org/2000/svg">
<g clip-path="url(#clip0)">
<path d="M26.7509 7.1532C28.4893 8.56048 29.5655 10.7956 29.5655 13.1962C29.5655 17.5837 26.0058 21.0605 21.7012 21.0605C17.3966 21.0605 13.837 17.5009 13.837 13.1962C13.837 11.4578 14.4164 9.8022 15.4098 8.4777" stroke="#333333" stroke-miterlimit="10" stroke-linecap="round" stroke-linejoin="round"/>
<path d="M16.8999 6.98766C18.2244 5.9115 19.88 5.33203 21.784 5.33203C22.6118 5.33203 23.4396 5.49759 24.2675 5.74594" stroke="#6FC6AD" stroke-miterlimit="10" stroke-linecap="round" stroke-linejoin="round"/>
<path d="M27.827 13.1962C27.827 16.5903 25.0952 19.3221 21.7012 19.3221C20.1284 19.3221 18.6383 18.7426 17.5621 17.6664" stroke="#6FC6AD" stroke-miterlimit="10" stroke-linecap="round" stroke-linejoin="round"/>
<path d="M15.5754 13.1963C15.5754 9.80222 18.3072 7.07043 21.7012 7.07043C24.1019 7.07043 26.0886 8.39494 27.1648 10.3817" stroke="#333333" stroke-miterlimit="10" stroke-linecap="round" stroke-linejoin="round"/>
<path d="M21.7012 17.2525C21.1218 17.2525 20.5423 16.7559 20.5423 16.0936V9.96778C20.5423 9.38831 21.039 8.80884 21.7012 8.80884C22.2807 8.80884 22.8602 9.30553 22.8602 9.96778V16.0936C22.7774 16.7559 22.2807 17.2525 21.7012 17.2525Z" fill="#6FC6AD"/>
<path d="M24.7641 14.1896H18.6383C18.0588 14.1896 17.4794 13.693 17.4794 13.0307C17.4794 12.4512 17.9761 11.8718 18.6383 11.8718H24.7641C25.3436 11.8718 25.9231 12.3685 25.9231 13.0307C25.9231 13.693 25.4264 14.1896 24.7641 14.1896Z" fill="#6FC6AD"/>
<path d="M15.2443 38.7757C16.486 35.7128 16.9827 31.4082 17.9761 28.2625C18.39 26.8552 18.9694 25.6135 19.7145 24.289C20.9562 21.9711 22.529 19.736 24.2674 17.6665C25.9231 15.7625 27.7443 14.0241 29.2343 11.9545C30.7244 9.96779 31.0555 8.22938 32.6284 6.32541C34.3668 4.17309 37.4297 2.10356 38.7542 1.27574C39.4992 0.779053 39.0853 4.00753 39.4992 4.75256C39.9959 5.74594 40.9893 6.32541 41.8999 6.8221C42.6449 7.23601 43.39 7.7327 44.135 8.1466C44.7145 8.47773 45.3767 8.89164 45.7078 9.55389C46.2873 10.7128 45.5423 12.1201 44.3833 12.6996C43.3072 13.2791 41.9827 13.1963 40.6582 13.1135C39.9131 13.0307 39.0025 12.9479 38.4231 13.4446C38.1747 13.693 38.0092 14.0241 37.8436 14.3552C37.2641 15.6797 36.933 17.4181 37.8436 18.4943C38.1747 18.9082 38.5886 19.1565 38.9198 19.5704C39.582 20.3155 39.7476 21.4744 39.6648 22.4678C39.582 23.4612 39.0853 24.4545 38.7542 25.4479C37.8436 28.0969 37.4297 30.9115 37.5125 33.6433C37.5125 34.8022 37.678 36.044 38.4231 37.0373C38.837 37.6168 39.4164 38.0307 39.9131 38.4446C40.741 39.1069 41.5688 39.6863 42.3966 40.3486C42.9761 40.7625 43.5555 41.2592 43.5555 41.9214C43.6383 42.832 42.6449 43.4943 41.7343 43.5771C40.8237 43.6598 39.9959 43.1632 39.1681 42.7493L37.4297 41.8387" fill="#F7B916"/>
<path d="M15.2443 38.7757C16.486 35.7128 16.9827 31.4082 17.9761 28.2625C18.39 26.8552 18.9694 25.6135 19.7145 24.289C20.9562 21.9711 22.529 19.736 24.2674 17.6665C25.9231 15.7625 27.7443 14.0241 29.2343 11.9545C30.7244 9.96779 31.0555 8.22938 32.6284 6.32541C34.3668 4.17309 37.4297 2.10356 38.7542 1.27574C39.4992 0.779053 39.0853 4.00753 39.4992 4.75256C39.9959 5.74594 40.9893 6.32541 41.8999 6.8221C42.6449 7.23601 43.39 7.7327 44.135 8.1466C44.7145 8.47773 45.3767 8.89164 45.7078 9.55389C46.2873 10.7128 45.5423 12.1201 44.3833 12.6996C43.3072 13.2791 41.9827 13.1963 40.6582 13.1135C39.9131 13.0307 39.0025 12.9479 38.4231 13.4446C38.1747 13.693 38.0092 14.0241 37.8436 14.3552C37.2641 15.6797 36.933 17.4181 37.8436 18.4943C38.1747 18.9082 38.5886 19.1565 38.9198 19.5704C39.582 20.3155 39.7476 21.4744 39.6648 22.4678C39.582 23.4612 39.0853 24.4546 38.7542 25.4479C37.8436 28.0969 37.4297 30.9115 37.5125 33.6433C37.5125 34.8022 37.678 36.044 38.4231 37.0373C38.837 37.6168 39.4164 38.0307 39.9131 38.4446C40.741 39.1069 41.5688 39.6863 42.3966 40.3486C42.9761 40.7625 43.5555 41.2592 43.5555 41.9214C43.6383 42.832 42.6449 43.4943 41.7343 43.5771C40.8237 43.6598 39.9959 43.1632 39.1681 42.7493L37.4297 41.8387" stroke="#333333" stroke-miterlimit="10" stroke-linecap="round" stroke-linejoin="round"/>
<path d="M23.0257 29.8353C24.5158 28.5108 26.5025 28.0969 28.4893 27.8486C29.4827 27.7658 30.476 27.683 31.3866 27.8486C32.38 28.0141 33.2906 28.5108 33.8701 29.3386C34.6979 30.4976 34.6151 32.0704 34.2012 33.4777C33.7045 34.8022 32.9595 36.0439 32.38 37.3684C31.9661 38.3618 31.7178 39.3552 31.5522 40.3486C31.3866 40.8453 31.3866 41.4247 31.635 41.9214C31.9661 42.5009 32.7111 42.7492 33.3734 42.832C33.7873 42.9148 34.2012 42.9976 34.5323 43.1631C34.8634 43.4115 35.1118 43.8254 35.029 44.1565C34.8635 44.736 34.1184 44.8188 33.4562 44.8188C30.2277 44.6532 26.9164 44.2393 23.6879 44.8188" fill="#F7B916"/>
<path d="M23.0257 29.8353C24.5158 28.5108 26.5025 28.0969 28.4893 27.8486C29.4827 27.7658 30.476 27.683 31.3866 27.8486C32.38 28.0141 33.2906 28.5108 33.8701 29.3386C34.6979 30.4976 34.6151 32.0704 34.2012 33.4777C33.7045 34.8022 32.9595 36.0439 32.38 37.3684C31.9661 38.3618 31.7178 39.3552 31.5522 40.3486C31.3866 40.8453 31.3866 41.4247 31.635 41.9214C31.9661 42.5009 32.7111 42.7492 33.3734 42.832C33.7873 42.9148 34.2012 42.9976 34.5323 43.1631C34.8634 43.4115 35.1118 43.8254 35.029 44.1565C34.8635 44.736 34.1184 44.8188 33.4562 44.8188C30.2277 44.6532 26.9164 44.2393 23.6879 44.8188" stroke="#333333" stroke-miterlimit="10" stroke-linecap="round" stroke-linejoin="round"/>
<path d="M21.7012 39.6863C25.0953 40.3486 28.5721 38.1963 32.0489 38.3618C34.284 38.4446 36.2708 39.6036 38.2575 40.5969C37.4297 42.4181 36.1052 44.2393 34.2012 44.8188C33.3734 45.0671 32.5456 45.0671 31.8006 45.0671C28.986 45.1499 26.1714 45.2327 23.3569 44.736" fill="#F7B916"/>
<path d="M21.7012 39.6863C25.0953 40.3486 28.5721 38.1963 32.0489 38.3618C34.284 38.4446 36.2708 39.6036 38.2575 40.5969C37.4297 42.4181 36.1052 44.2393 34.2012 44.8188C33.3734 45.0671 32.5456 45.0671 31.8006 45.0671C28.986 45.1499 26.1714 45.2327 23.3569 44.736" stroke="#333333" stroke-miterlimit="10" stroke-linecap="round" stroke-linejoin="round"/>
<path d="M11.188 19.9843C11.3535 21.0605 11.933 22.1366 13.0092 22.6333C13.4231 22.7989 13.837 22.7989 14.3337 22.9645C20.7078 24.5373 23.4396 32.1532 22.1151 39.1896C21.9496 39.9347 21.9496 40.7625 22.2807 41.5075C22.4463 41.8386 22.6946 42.1698 22.8602 42.5837C23.4396 43.4943 23.7708 44.5704 23.688 45.6466C23.688 46.7227 23.2741 47.7989 22.529 48.5439C22.3635 48.7095 22.1151 48.9578 21.8668 49.1234C21.3701 49.4545 20.8734 49.7857 20.2939 50.034C19.0522 50.6135 17.6449 50.6962 16.4032 50.3651C14.9959 50.034 13.6714 49.2062 12.2641 49.5373C11.6847 49.6201 11.1052 49.9512 10.5257 50.034C9.94625 50.1168 9.20122 49.8684 9.03566 49.289C8.95288 48.9578 9.11844 48.6267 9.36678 48.3784C9.61513 48.13 9.94625 47.9645 10.1946 47.7989C11.0224 47.4678 11.8502 47.3022 12.678 47.3022C14.2509 47.3022 15.8237 47.8817 17.3966 48.13C18.39 48.2956 19.4661 48.2956 20.2112 47.6333C21.039 46.8883 21.1217 45.481 20.6251 44.4876C20.5423 44.8188 20.1284 44.9843 19.7972 45.1499C19.0522 45.3154 18.3072 45.3982 17.6449 45.3982L11.5191 45.2327C10.9396 45.2327 10.4429 45.1499 9.86347 45.0671C9.69791 44.9843 9.44956 44.9015 9.36678 44.8188C8.95288 44.4049 9.11844 43.6598 9.61513 43.3287C10.029 42.9976 10.6085 42.832 11.188 42.7492C10.8569 42.0042 10.3602 41.4247 9.78069 40.928C9.53235 41.5075 9.284 42.087 8.95288 42.6664C8.45619 43.6598 7.87672 44.8188 6.88334 45.0671C6.30387 45.2327 5.55884 45.1499 5.14493 44.736C4.73102 44.3221 4.3999 43.7426 4.3999 43.0803C4.3999 42.832 4.48268 42.5837 4.64824 42.4181C4.8138 42.2525 5.06215 42.087 5.31049 42.0042C5.64162 41.8386 5.97274 41.7558 6.38665 41.6731C5.97274 40.3486 5.97274 38.9413 6.30387 37.6996C6.635 36.5406 6.88334 35.3817 6.80056 34.2227C6.55222 33.2294 6.13831 32.3188 5.7244 31.4909C5.47606 30.9115 5.14493 30.2492 4.8138 29.6698C4.23433 28.7592 3.40652 27.8486 3.07539 26.8552C2.74427 26.0274 2.82705 24.8684 2.99261 23.9578C3.32374 21.8055 4.73102 20.1499 4.73102 20.1499C2.99261 19.5704 0.260825 16.5903 1.50255 15.8452C2.66149 15.1002 3.90321 12.6996 6.55222 12.6996L7.46281 10.2989L9.284 13.279C9.61513 13.7757 9.94625 14.1896 10.3602 14.6035C10.9396 15.183 11.3535 16.0108 11.3535 16.8386C11.2708 16.7558 11.0224 18.8254 11.188 19.9843Z" fill="#6FC6AD" stroke="#333333" stroke-miterlimit="10" stroke-linecap="round" stroke-linejoin="round"/>
<path d="M9.44957 39.9347C8.45619 38.1963 8.70454 35.7956 10.029 34.2227C11.3535 32.6499 13.5886 31.9876 15.4926 32.4015C17.3966 32.8155 19.135 34.3883 19.7973 36.2923" stroke="#333333" stroke-miterlimit="10" stroke-linecap="round" stroke-linejoin="round"/>
</g>
<defs>
<clipPath id="clip0">
<rect width="45.5298" height="50" fill="white" transform="translate(0.757507 0.861816)"/>
</clipPath>
</defs>
</svg>
