<svg width="51" height="51" viewBox="0 0 51 51" fill="none" xmlns="http://www.w3.org/2000/svg">
<g clip-path="url(#clip0)">
<path d="M32.665 26.9004L43.0381 12.8705L36.0978 26.0049L50.1277 11.9004L39.7545 26.6019L32.665 26.9004Z" fill="#6FC6AD" stroke="#333333" stroke-miterlimit="10" stroke-linecap="round" stroke-linejoin="round"/>
<path d="M36.3963 9.58695H29.8292C29.2322 9.58695 28.7098 9.06456 28.7098 8.46755C28.7098 7.87053 29.2322 7.34814 29.8292 7.34814H36.3963C36.9934 7.34814 37.5157 7.87053 37.5157 8.46755C37.5157 9.13919 36.9934 9.58695 36.3963 9.58695Z" fill="#F7B916" stroke="#333333" stroke-miterlimit="10" stroke-linecap="round" stroke-linejoin="round"/>
<path d="M35.7993 37.1988H30.4262C28.7844 37.1988 27.4411 35.8555 27.4411 34.2137V16.154C27.4411 14.5122 28.7844 13.1689 30.4262 13.1689H35.7993C37.4411 13.1689 38.7844 14.5122 38.7844 16.154V34.2137C38.7844 35.8555 37.4411 37.1988 35.7993 37.1988Z" fill="#F7B916" stroke="#333333" stroke-miterlimit="10" stroke-linecap="round" stroke-linejoin="round"/>
<path d="M30.7247 9.58691V13.169" stroke="#333333" stroke-miterlimit="10" stroke-linecap="round" stroke-linejoin="round"/>
<path d="M35.65 9.58691V13.169" stroke="#333333" stroke-miterlimit="10" stroke-linecap="round" stroke-linejoin="round"/>
<path d="M29.3068 26.6018V19.96H36.8441V26.4525" fill="white"/>
<path d="M29.3068 26.6018V19.96H36.8441V26.4525" stroke="#333333" stroke-miterlimit="10" stroke-linecap="round" stroke-linejoin="round"/>
<path d="M22.8136 31.1004C25.2689 29.4338 22.7372 21.4204 17.1589 13.2019C11.5806 4.98348 5.06806 -0.327899 2.61275 1.33865C0.157444 3.0052 2.68913 11.0186 8.26744 19.2371C13.8457 27.4555 20.3583 32.7669 22.8136 31.1004Z" fill="#F7B916" stroke="#333333" stroke-miterlimit="10" stroke-linecap="round" stroke-linejoin="round"/>
<path d="M9.47125 11.413C10.733 10.5566 11.4744 9.44767 11.1272 8.93615C10.78 8.42463 9.47569 8.70422 8.21393 9.56064C6.95218 10.4171 6.21078 11.526 6.55798 12.0375C6.90518 12.549 8.20949 12.2694 9.47125 11.413Z" fill="#F7B916" stroke="#333333" stroke-miterlimit="10" stroke-linecap="round" stroke-linejoin="round"/>
<path d="M12.2328 15.5366C13.4945 14.6801 14.2359 13.5712 13.8887 13.0597C13.5415 12.5482 12.2372 12.8278 10.9755 13.6842C9.71371 14.5406 8.97232 15.6495 9.31951 16.1611C9.66671 16.6726 10.971 16.393 12.2328 15.5366Z" fill="#F7B916" stroke="#333333" stroke-miterlimit="10" stroke-linecap="round" stroke-linejoin="round"/>
<path d="M15.0979 19.6801C16.3597 18.8237 17.1011 17.7148 16.7539 17.2032C16.4067 16.6917 15.1024 16.9713 13.8406 17.8277C12.5789 18.6842 11.8375 19.7931 12.1847 20.3046C12.5319 20.8161 13.8362 20.5365 15.0979 19.6801Z" fill="#F7B916" stroke="#333333" stroke-miterlimit="10" stroke-linecap="round" stroke-linejoin="round"/>
<path d="M28.1874 9.58695H21.6202C21.0232 9.58695 20.5008 9.06456 20.5008 8.46755C20.5008 7.87053 21.0232 7.34814 21.6202 7.34814H28.1874C28.7844 7.34814 29.3068 7.87053 29.3068 8.46755C29.3068 9.13919 28.7844 9.58695 28.1874 9.58695Z" fill="#6FC6AD" stroke="#333333" stroke-miterlimit="10" stroke-linecap="round" stroke-linejoin="round"/>
<path d="M27.5903 37.1988H22.2172C20.5754 37.1988 19.2321 35.8555 19.2321 34.2137V16.154C19.2321 14.5122 20.5754 13.1689 22.2172 13.1689H27.5903C29.2321 13.1689 30.5754 14.5122 30.5754 16.154V34.2137C30.5754 35.8555 29.2321 37.1988 27.5903 37.1988Z" fill="white" stroke="#333333" stroke-miterlimit="10" stroke-linecap="round" stroke-linejoin="round"/>
<path d="M22.5903 9.58691V13.169" stroke="#333333" stroke-miterlimit="10" stroke-linecap="round" stroke-linejoin="round"/>
<path d="M27.441 9.58691V13.169" stroke="#333333" stroke-miterlimit="10" stroke-linecap="round" stroke-linejoin="round"/>
<path d="M21.0978 25.557V19.96H28.6352V25.4077" fill="white"/>
<path d="M21.0978 25.557V19.96H28.6352V25.4077" stroke="#333333" stroke-miterlimit="10" stroke-linecap="round" stroke-linejoin="round"/>
<path d="M14.7545 26.0048C15.7247 26.154 17.068 26.8257 17.9635 26.5272C18.5605 26.3033 19.0829 25.9301 19.6799 25.7063C20.4262 25.4824 21.1724 25.4824 21.9187 25.7063C22.665 26.0048 23.262 26.4525 24.0083 26.6018C24.9038 26.6764 25.7247 26.2287 26.5456 25.8555C28.6351 25.0346 31.0232 25.3331 32.8889 26.5272C33.0381 26.6018 33.1874 26.751 33.4112 26.8257C33.859 26.9749 34.3814 26.9003 34.8292 26.6764C36.3963 26.0048 36.6948 25.8555 38.859 25.7809C40.053 25.7063 41.0978 26.751 41.0978 28.0197V47.1242C41.0978 48.3928 40.1277 49.363 38.859 49.363H12.9635C11.7694 49.363 10.7247 48.3928 10.7247 47.1242V28.0943C10.7247 26.8257 11.6948 25.8555 12.9635 25.8555C12.9635 25.8555 13.7097 25.8555 14.7545 26.0048Z" fill="#6FC6AD" stroke="#333333" stroke-miterlimit="10" stroke-linecap="round" stroke-linejoin="round"/>
<path d="M14.3814 45.6316H26.2471" stroke="#333333" stroke-miterlimit="10" stroke-linecap="round" stroke-linejoin="round"/>
<path d="M14.3814 41.9749H23.859" stroke="#333333" stroke-miterlimit="10" stroke-linecap="round" stroke-linejoin="round"/>
<path d="M14.3814 38.3928H20.6501" stroke="#333333" stroke-miterlimit="10" stroke-linecap="round" stroke-linejoin="round"/>
</g>
<defs>
<clipPath id="clip0">
<rect width="50" height="50" fill="white" transform="translate(0.873932 0.258545)"/>
</clipPath>
</defs>
</svg>
