<svg width="51" height="51" viewBox="0 0 51 51" fill="none" xmlns="http://www.w3.org/2000/svg">
<g clip-path="url(#clip0)">
<path d="M50.8739 0.508545H0.873932V50.5085H50.8739V0.508545Z" fill="white"/>
<path d="M20.4262 31.4041H12.4411V39.3891H20.4262V31.4041Z" stroke="#333333" stroke-miterlimit="10" stroke-linecap="round" stroke-linejoin="round"/>
<path d="M31.7695 31.4041H23.7844V39.3891H31.7695V31.4041Z" stroke="#333333" stroke-miterlimit="10" stroke-linecap="round" stroke-linejoin="round"/>
<path d="M20.4262 20.5833H12.4411V28.5683H20.4262V20.5833Z" stroke="#333333" stroke-miterlimit="10" stroke-linecap="round" stroke-linejoin="round"/>
<path d="M31.7695 20.5833H23.7844V28.5683H31.7695V20.5833Z" stroke="#333333" stroke-miterlimit="10" stroke-linecap="round" stroke-linejoin="round"/>
<path d="M2.51572 22.3741L22.5157 2.44873L42.7396 22.3741H39.6799L22.5157 5.73231L5.35154 22.3741H2.51572Z" fill="#6FC6AD" stroke="#333333" stroke-miterlimit="10" stroke-linecap="round" stroke-linejoin="round"/>
<path d="M41.6948 49.0159C45.3218 49.0159 48.262 47.1449 48.262 44.8368C48.262 42.5288 45.3218 40.6577 41.6948 40.6577C38.0679 40.6577 35.1277 42.5288 35.1277 44.8368C35.1277 47.1449 38.0679 49.0159 41.6948 49.0159Z" fill="#F7B916"/>
<path d="M34.7545 34.1652L41.6948 44.8368L48.6351 34.1652C49.3068 32.9711 49.6799 31.6278 49.6799 30.2099C49.6799 25.8069 46.0978 22.2249 41.6948 22.2249C37.2918 22.2249 33.7097 25.8069 33.7097 30.2099C33.7097 31.6278 34.0829 32.9711 34.7545 34.1652Z" fill="white" stroke="#333333" stroke-miterlimit="10" stroke-linecap="round" stroke-linejoin="round"/>
<path d="M41.6948 33.3444C43.4671 33.3444 44.9038 31.9077 44.9038 30.1355C44.9038 28.3632 43.4671 26.9265 41.6948 26.9265C39.9226 26.9265 38.4859 28.3632 38.4859 30.1355C38.4859 31.9077 39.9226 33.3444 41.6948 33.3444Z" fill="white" stroke="#333333" stroke-miterlimit="10" stroke-linecap="round" stroke-linejoin="round"/>
<path d="M5.27692 24.9116V46.2549H32.665" stroke="#333333" stroke-miterlimit="10" stroke-linecap="round" stroke-linejoin="round"/>
<path d="M35.7247 13.3443V5.43384H38.0381V15.5085" stroke="#333333" stroke-miterlimit="10" stroke-linecap="round" stroke-linejoin="round"/>
<path d="M22.1426 36.7027C26.8411 36.7027 30.6501 32.8937 30.6501 28.1952C30.6501 23.4967 26.8411 19.6877 22.1426 19.6877C17.4441 19.6877 13.6351 23.4967 13.6351 28.1952C13.6351 32.8937 17.4441 36.7027 22.1426 36.7027Z" fill="#F7B916"/>
<path d="M8.11274 14.4637C7.4411 15.1353 7.4411 16.2547 8.11274 16.9264L19.9784 28.4935C20.6501 29.1652 21.7695 29.1652 22.4411 28.4935C23.1127 27.8219 23.1127 26.7025 22.4411 26.0309L10.6501 14.3891C9.90379 13.7174 8.78438 13.7174 8.11274 14.4637Z" fill="#F7B916"/>
<path d="M23.262 29.3891C24.4572 29.3891 25.4262 28.4202 25.4262 27.225C25.4262 26.0297 24.4572 25.0608 23.262 25.0608C22.0667 25.0608 21.0978 26.0297 21.0978 27.225C21.0978 28.4202 22.0667 29.3891 23.262 29.3891Z" fill="white" stroke="#333333" stroke-miterlimit="10" stroke-linecap="round" stroke-linejoin="round"/>
<path d="M12.8142 17.2997L12.665 17.1504C12.5157 17.0011 12.5157 16.7773 12.665 16.628L14.7545 14.5385C14.9038 14.3892 15.1277 14.3892 15.2769 14.5385L15.4262 14.6877C15.5754 14.837 15.5754 15.0608 15.4262 15.2101L13.3366 17.2997C13.1127 17.4489 12.8889 17.4489 12.8142 17.2997Z" fill="#F7B916"/>
<path d="M11.4709 16.1056L11.3217 15.9563C11.1724 15.807 11.1724 15.5832 11.3217 15.4339L13.4112 13.3444C13.5605 13.1951 13.7844 13.1951 13.9336 13.3444L14.0829 13.4936C14.2321 13.6429 14.2321 13.8667 14.0829 14.016L11.9933 16.1056C11.8441 16.2548 11.6202 16.2548 11.4709 16.1056Z" fill="#F7B916"/>
<path d="M10.2023 14.837L10.053 14.6877C9.90379 14.5385 9.90379 14.3146 10.053 14.1654L12.1426 12.0758C12.2918 11.9266 12.5157 11.9266 12.665 12.0758L12.8142 12.2251C12.9635 12.3743 12.9635 12.5982 12.8142 12.7474L10.7247 14.837C10.5754 14.9863 10.3515 14.9863 10.2023 14.837Z" fill="#F7B916"/>
</g>
<defs>
<clipPath id="clip0">
<rect width="50" height="50" fill="white" transform="translate(0.873932 0.508545)"/>
</clipPath>
</defs>
</svg>
