<svg width="51" height="51" viewBox="0 0 51 51" fill="none" xmlns="http://www.w3.org/2000/svg">
<g clip-path="url(#clip0)">
<path d="M50.8008 0.0981445H0.800781V50.0981H50.8008V0.0981445Z" fill="white"/>
<path d="M34.6067 41.8892H16.6963C15.1291 41.8892 13.8605 40.6205 13.8605 39.0534V13.4564C13.8605 11.8892 15.1291 10.6205 16.6963 10.6205H34.5321C36.0993 10.6205 37.3679 11.8892 37.3679 13.4564V39.0534C37.4426 40.6205 36.1739 41.8892 34.6067 41.8892Z" fill="#F7B916"/>
<path d="M19.2336 14.3519C17.5918 14.3519 16.2485 13.0086 16.2485 11.3668C16.2485 9.725 17.5918 8.38171 19.2336 8.38171C20.8754 8.38171 22.2187 9.725 22.2187 11.3668C22.2187 13.0086 20.8754 14.3519 19.2336 14.3519ZM19.2336 10.0981C18.562 10.0981 17.965 10.6951 17.965 11.3668C17.965 12.0384 18.562 12.6354 19.2336 12.6354C19.9053 12.6354 20.5023 12.0384 20.5023 11.3668C20.5023 10.6205 19.9053 10.0981 19.2336 10.0981Z" stroke="#333333" stroke-miterlimit="10" stroke-linecap="round" stroke-linejoin="round"/>
<path d="M48.1888 48.3071H45.2784C44.6814 48.3071 44.2336 47.8593 44.2336 47.2623C44.2336 46.6653 44.6814 46.2175 45.2784 46.2175H47.1441V35.7698C47.1441 34.7996 46.7709 33.9041 46.0993 33.2325C45.4276 32.5608 44.5321 32.1877 43.562 32.1877H31.547C29.6067 32.1877 27.965 33.7548 27.965 35.7698V46.2175H42.3679C42.965 46.2175 43.4127 46.6653 43.4127 47.2623C43.4127 47.8593 42.965 48.3071 42.3679 48.3071H27.0694C26.4724 48.3071 26.0247 47.8593 26.0247 47.2623V35.8444C26.0247 32.7101 28.562 30.2474 31.6217 30.2474H43.6366C45.1291 30.2474 46.547 30.8444 47.5918 31.8892C48.6366 32.9339 49.2336 34.3519 49.2336 35.8444V47.3369C49.2336 47.8593 48.7859 48.3071 48.1888 48.3071Z" stroke="#333333" stroke-miterlimit="10" stroke-linecap="round" stroke-linejoin="round"/>
<path d="M41.7709 28.6056C41.1739 28.6056 40.7262 28.1578 40.7262 27.5608V25.6951H34.4575V27.5608C34.4575 28.1578 34.0097 28.6056 33.4127 28.6056C32.8157 28.6056 32.368 28.1578 32.368 27.5608V25.6951C32.368 24.5011 33.3381 23.6056 34.4575 23.6056H40.6515C41.8456 23.6056 42.7411 24.5757 42.7411 25.6951V27.5608C42.8157 28.1578 42.368 28.6056 41.7709 28.6056Z" fill="#6FC6AD" stroke="#333333" stroke-miterlimit="10" stroke-linecap="round" stroke-linejoin="round"/>
<path d="M39.756 36.7399H38.7112V35.6952C38.7112 35.0982 38.2635 34.6504 37.6665 34.6504C37.0694 34.6504 36.6217 35.0982 36.6217 35.6952V36.7399H35.5769C34.9799 36.7399 34.5321 37.1877 34.5321 37.7847C34.5321 38.3817 34.9799 38.8295 35.5769 38.8295H36.6217V39.8743C36.6217 40.4713 37.0694 40.9191 37.6665 40.9191C38.2635 40.9191 38.7112 40.4713 38.7112 39.8743V38.8295H39.756C40.353 38.8295 40.8008 38.3817 40.8008 37.7847C40.8008 37.1877 40.2784 36.7399 39.756 36.7399Z" fill="#6FC6AD"/>
<path d="M28.7859 23.2325H27.2187V21.6653C27.2187 20.8444 26.5471 20.0981 25.6515 20.0981C24.8306 20.0981 24.0844 20.7698 24.0844 21.6653V23.2325H22.5172C21.6217 23.2325 20.95 23.9787 20.95 24.7996C20.95 25.6205 21.6217 26.3668 22.5172 26.3668H24.0844V27.934C24.0844 28.7549 24.756 29.5011 25.6515 29.5011C26.4724 29.5011 27.2187 28.8295 27.2187 27.934V26.3668H28.7859C29.6068 26.3668 30.353 25.6952 30.353 24.7996C30.353 23.9787 29.6068 23.2325 28.7859 23.2325Z" fill="white"/>
<path d="M44.6068 44.7997H30.6515C30.2038 44.7997 29.756 44.4265 29.756 43.9041C29.756 43.3817 30.1291 43.0086 30.6515 43.0086H44.6068C45.0545 43.0086 45.5023 43.3817 45.5023 43.9041C45.5023 44.4265 45.1291 44.7997 44.6068 44.7997Z" fill="#6FC6AD"/>
<path d="M5.87541 11.8892C5.72615 11.8892 5.5769 11.8892 5.42764 11.74C3.78585 10.8444 2.8157 9.12801 2.8157 7.26234V2.48622C2.8157 2.03846 3.18884 1.5907 3.71123 1.5907H6.02466C6.47242 1.5907 6.92018 1.96383 6.92018 2.48622C6.92018 3.00861 6.54705 3.38174 6.02466 3.38174H4.60675V7.26234C4.60675 8.45637 5.27839 9.6504 6.32317 10.2474C6.77093 10.4713 6.92018 10.9937 6.62167 11.4414C6.47242 11.74 6.17391 11.8892 5.87541 11.8892Z" stroke="#333333" stroke-miterlimit="10" stroke-linecap="round" stroke-linejoin="round"/>
<path d="M8.0396 12.4116C7.59183 12.4116 7.14407 12.0385 7.14407 11.5161C7.14407 11.0683 7.51721 10.6205 8.0396 10.6205C9.90527 10.6205 11.4724 9.12801 11.4724 7.18771V3.38174H10.0545C9.60676 3.38174 9.159 3.00861 9.159 2.48622C9.159 1.96383 9.53213 1.5907 10.0545 1.5907H12.368C12.8157 1.5907 13.2635 1.96383 13.2635 2.48622V7.26234C13.1142 10.0982 10.8754 12.4116 8.0396 12.4116Z" stroke="#333333" stroke-miterlimit="10" stroke-linecap="round" stroke-linejoin="round"/>
<path d="M13.6366 20.9937C10.0545 20.9937 7.14407 18.0832 7.14407 14.5011V11.5161C7.14407 11.0683 7.51721 10.6205 8.0396 10.6205C8.56198 10.6205 8.93512 10.9937 8.93512 11.5161V14.5011C8.93512 17.1131 11.0993 19.2773 13.7112 19.2773C16.3232 19.2773 18.4874 17.1131 18.4874 14.5011V13.531C18.4874 13.0832 18.8605 12.6355 19.3829 12.6355C19.9053 12.6355 20.2784 13.0086 20.2784 13.531V14.5758C20.0545 18.0832 17.2187 20.9937 13.6366 20.9937Z" fill="#6FC6AD" stroke="#333333" stroke-miterlimit="10" stroke-linecap="round" stroke-linejoin="round"/>
<path d="M25.4276 8.30713V12.337" stroke="#333333" stroke-miterlimit="10" stroke-linecap="round" stroke-linejoin="round"/>
<path d="M30.8754 8.30713V12.337" stroke="#333333" stroke-miterlimit="10" stroke-linecap="round" stroke-linejoin="round"/>
</g>
<defs>
<clipPath id="clip0">
<rect width="50" height="50" fill="white" transform="translate(0.800781 0.0981445)"/>
</clipPath>
</defs>
</svg>
