<svg width="51" height="51" viewBox="0 0 51 51" fill="none" xmlns="http://www.w3.org/2000/svg">
<g clip-path="url(#clip0)">
<path d="M50.1239 0.0588379H0.123932V50.0588H50.1239V0.0588379Z" fill="white"/>
<path d="M25.1239 41.5513C32.9548 41.5513 39.303 35.2031 39.303 27.3722C39.303 19.5413 32.9548 13.1931 25.1239 13.1931C17.293 13.1931 10.9448 19.5413 10.9448 27.3722C10.9448 35.2031 17.293 41.5513 25.1239 41.5513Z" fill="#F7B916" stroke="#333333" stroke-miterlimit="10" stroke-linecap="round" stroke-linejoin="round"/>
<path d="M25.1239 9.83503V0.805176" stroke="#333333" stroke-miterlimit="10" stroke-linecap="round" stroke-linejoin="round"/>
<path d="M28.0344 9.98413H21.9896V13.1931H28.0344V9.98413Z" fill="#F7B916" stroke="#333333" stroke-miterlimit="10" stroke-linecap="round" stroke-linejoin="round"/>
<path d="M25.1239 13.1931C25.1239 13.1931 19.1538 19.0886 19.1538 26.9245C19.1538 35.5065 25.1239 41.5513 25.1239 41.5513" fill="#F7B916"/>
<path d="M25.1239 13.1931C25.1239 13.1931 19.1538 19.0886 19.1538 26.9245C19.1538 35.5066 25.1239 41.5513 25.1239 41.5513" stroke="#333333" stroke-miterlimit="10" stroke-linecap="round" stroke-linejoin="round"/>
<path d="M25.1239 13.1931C25.1239 13.1931 30.7209 19.0886 30.7209 26.9245C30.7209 35.5065 25.1239 41.5513 25.1239 41.5513" fill="#F7B916"/>
<path d="M25.1239 13.1931C25.1239 13.1931 30.7209 19.0886 30.7209 26.9245C30.7209 35.5066 25.1239 41.5513 25.1239 41.5513" stroke="#333333" stroke-miterlimit="10" stroke-linecap="round" stroke-linejoin="round"/>
<path d="M10.9448 27.3723H39.303" stroke="#333333" stroke-miterlimit="10" stroke-linecap="round" stroke-linejoin="round"/>
<path d="M12.5866 20.8796H37.6612" stroke="#333333" stroke-miterlimit="10" stroke-linecap="round" stroke-linejoin="round"/>
<path d="M12.5866 34.0142H37.6612" stroke="#333333" stroke-miterlimit="10" stroke-linecap="round" stroke-linejoin="round"/>
<path d="M0.870209 13.7903L6.91498 18.3425" stroke="#73C2AB" stroke-miterlimit="10" stroke-linecap="round" stroke-linejoin="round"/>
<path d="M0.870209 41.4021L6.91498 36.8499" stroke="#73C2AB" stroke-miterlimit="10" stroke-linecap="round" stroke-linejoin="round"/>
<path d="M0.870209 27.3723H6.24334" stroke="#73C2AB" stroke-miterlimit="10" stroke-linecap="round" stroke-linejoin="round"/>
<path d="M49.3777 13.7903L43.3329 18.3425" stroke="#73C2AB" stroke-miterlimit="10" stroke-linecap="round" stroke-linejoin="round"/>
<path d="M49.3777 41.4021L43.3329 36.8499" stroke="#73C2AB" stroke-miterlimit="10" stroke-linecap="round" stroke-linejoin="round"/>
<path d="M49.3777 27.3723H43.9299" stroke="#73C2AB" stroke-miterlimit="10" stroke-linecap="round" stroke-linejoin="round"/>
<path fill-rule="evenodd" clip-rule="evenodd" d="M6.61647 2.59604C6.76572 2.37216 6.91498 2.07365 6.84035 1.77515C6.9896 3.0438 7.95975 4.16321 9.22841 4.46171C8.55677 4.61097 7.95975 4.90947 7.43736 5.35724C6.91498 5.805 6.61647 6.47664 6.6911 7.14828C6.54184 5.805 5.19856 5.43186 4.52692 4.53634C5.42244 4.01395 6.01945 3.41694 6.61647 2.59604Z" fill="#F7B916" stroke="#F7B917" stroke-miterlimit="10" stroke-linecap="round" stroke-linejoin="round"/>
<path fill-rule="evenodd" clip-rule="evenodd" d="M40.1239 39.6856C40.2732 39.4618 40.4224 39.1633 40.4224 38.8647C40.5717 40.1334 41.5418 41.2528 42.8105 41.5513C42.1389 41.7006 41.5418 41.9991 41.0195 42.4468C40.4971 42.8946 40.1986 43.5662 40.2732 44.2379C40.1239 42.8946 38.7807 42.5215 38.109 41.6259C38.9299 41.1036 39.5269 40.5812 40.1239 39.6856Z" fill="#F7B916" stroke="#F7B917" stroke-miterlimit="10" stroke-linecap="round" stroke-linejoin="round"/>
<path fill-rule="evenodd" clip-rule="evenodd" d="M13.109 44.8351C13.2583 44.6112 13.4075 44.3127 13.4075 44.0142C13.5568 45.2828 14.5269 46.4022 15.7956 46.7007C15.1239 46.85 14.5269 47.1485 14.0045 47.5963C13.4821 48.044 13.1836 48.7157 13.2583 49.3873C13.109 48.044 11.7657 47.6709 11.0941 46.7754C11.915 46.253 12.5866 45.656 13.109 44.8351Z" fill="#F7B916" stroke="#F7B917" stroke-miterlimit="10" stroke-linecap="round" stroke-linejoin="round"/>
<path fill-rule="evenodd" clip-rule="evenodd" d="M34.9747 8.41709C35.1239 8.19321 35.2732 7.8947 35.2732 7.59619C35.4224 8.86485 36.3926 9.98425 37.6612 10.2828C36.9896 10.432 36.3926 10.7305 35.8702 11.1783C35.3478 11.626 35.0493 12.2977 35.1239 12.9693C34.9747 11.626 33.6314 11.2529 32.9597 10.3574C33.7806 9.835 34.4523 9.23798 34.9747 8.41709Z" fill="#F7B916" stroke="#F7B917" stroke-miterlimit="10" stroke-linecap="round" stroke-linejoin="round"/>
</g>
<defs>
<clipPath id="clip0">
<rect width="50" height="50" fill="white" transform="translate(0.123932 0.0588379)"/>
</clipPath>
</defs>
</svg>
