<svg width="50" height="51" viewBox="0 0 50 51" fill="none" xmlns="http://www.w3.org/2000/svg">
<g clip-path="url(#clip0)">
<path d="M50 0.124023H0V50.124H50V0.124023Z" fill="white"/>
<path d="M11.194 19.3777C8.80597 26.2434 8.8806 33.93 11.4925 40.6464C11.6418 41.0195 11.791 41.4673 11.791 41.9151C11.791 42.2136 11.6418 42.5867 11.4925 42.8852C10.2239 45.6464 8.8806 48.5568 6.34328 50.2733L0 50.124V18.8553L11.194 19.3777Z" fill="#6FC6AD"/>
<path d="M40.0746 21.0196C45.5563 21.0196 50 16.5758 50 11.0942C50 5.61256 45.5563 1.16882 40.0746 1.16882C34.593 1.16882 30.1493 5.61256 30.1493 11.0942C30.1493 16.5758 34.593 21.0196 40.0746 21.0196Z" fill="#F7B916"/>
<path d="M36.7164 23.5569C42.9811 23.5569 48.0597 18.4783 48.0597 12.2136C48.0597 5.94886 42.9811 0.8703 36.7164 0.8703C30.4517 0.8703 25.3731 5.94886 25.3731 12.2136C25.3731 18.4783 30.4517 23.5569 36.7164 23.5569Z" stroke="#333333" stroke-miterlimit="10" stroke-linecap="round" stroke-linejoin="round"/>
<path d="M36.7164 19.9748C41.0028 19.9748 44.4776 16.5 44.4776 12.2136C44.4776 7.9272 41.0028 4.45239 36.7164 4.45239C32.43 4.45239 28.9552 7.9272 28.9552 12.2136C28.9552 16.5 32.43 19.9748 36.7164 19.9748Z" stroke="#333333" stroke-miterlimit="10" stroke-linecap="round" stroke-linejoin="round"/>
<path d="M36.7164 14.4524C37.9529 14.4524 38.9552 13.4501 38.9552 12.2136C38.9552 10.9771 37.9529 9.97479 36.7164 9.97479C35.4799 9.97479 34.4776 10.9771 34.4776 12.2136C34.4776 13.4501 35.4799 14.4524 36.7164 14.4524Z" stroke="#333333" stroke-miterlimit="10" stroke-linecap="round" stroke-linejoin="round"/>
<path d="M4.62687 5.87031C5.20388 5.87031 5.67164 5.40255 5.67164 4.82554C5.67164 4.24852 5.20388 3.78076 4.62687 3.78076C4.04985 3.78076 3.58209 4.24852 3.58209 4.82554C3.58209 5.40255 4.04985 5.87031 4.62687 5.87031Z" stroke="#72C2AB" stroke-miterlimit="10"/>
<path d="M4.62687 9.90016C5.20388 9.90016 5.67164 9.4324 5.67164 8.85538C5.67164 8.27837 5.20388 7.81061 4.62687 7.81061C4.04985 7.81061 3.58209 8.27837 3.58209 8.85538C3.58209 9.4324 4.04985 9.90016 4.62687 9.90016Z" stroke="#72C2AB" stroke-miterlimit="10"/>
<path d="M4.62687 13.93C5.20388 13.93 5.67164 13.4622 5.67164 12.8852C5.67164 12.3082 5.20388 11.8405 4.62687 11.8405C4.04985 11.8405 3.58209 12.3082 3.58209 12.8852C3.58209 13.4622 4.04985 13.93 4.62687 13.93Z" stroke="#72C2AB" stroke-miterlimit="10"/>
<path d="M9.70148 5.87031C10.2785 5.87031 10.7463 5.40255 10.7463 4.82554C10.7463 4.24852 10.2785 3.78076 9.70148 3.78076C9.12447 3.78076 8.65671 4.24852 8.65671 4.82554C8.65671 5.40255 9.12447 5.87031 9.70148 5.87031Z" stroke="#72C2AB" stroke-miterlimit="10"/>
<path d="M9.70148 9.90016C10.2785 9.90016 10.7463 9.4324 10.7463 8.85538C10.7463 8.27837 10.2785 7.81061 9.70148 7.81061C9.12447 7.81061 8.65671 8.27837 8.65671 8.85538C8.65671 9.4324 9.12447 9.90016 9.70148 9.90016Z" stroke="#72C2AB" stroke-miterlimit="10"/>
<path d="M9.70148 13.93C10.2785 13.93 10.7463 13.4622 10.7463 12.8852C10.7463 12.3082 10.2785 11.8405 9.70148 11.8405C9.12447 11.8405 8.65671 12.3082 8.65671 12.8852C8.65671 13.4622 9.12447 13.93 9.70148 13.93Z" stroke="#72C2AB" stroke-miterlimit="10"/>
<path d="M45.6716 47.2136C46.2487 47.2136 46.7164 46.7458 46.7164 46.1688C46.7164 45.5918 46.2487 45.124 45.6716 45.124C45.0946 45.124 44.6269 45.5918 44.6269 46.1688C44.6269 46.7458 45.0946 47.2136 45.6716 47.2136Z" stroke="#72C2AB" stroke-miterlimit="10"/>
<path d="M41.6418 47.2136C42.2188 47.2136 42.6866 46.7458 42.6866 46.1688C42.6866 45.5918 42.2188 45.124 41.6418 45.124C41.0648 45.124 40.597 45.5918 40.597 46.1688C40.597 46.7458 41.0648 47.2136 41.6418 47.2136Z" stroke="#72C2AB" stroke-miterlimit="10"/>
<path d="M37.6866 47.2136C38.2636 47.2136 38.7313 46.7458 38.7313 46.1688C38.7313 45.5918 38.2636 45.124 37.6866 45.124C37.1095 45.124 36.6418 45.5918 36.6418 46.1688C36.6418 46.7458 37.1095 47.2136 37.6866 47.2136Z" stroke="#72C2AB" stroke-miterlimit="10"/>
<path d="M13.3582 42.0643C23.7313 46.0195 36.0448 44.6016 45.2239 38.2583C47.0896 33.4076 47.3881 28.0345 46.2687 22.9598" stroke="#333333" stroke-miterlimit="10" stroke-linecap="round" stroke-linejoin="round"/>
<path d="M17.0896 38.6315C14.1791 39.9748 11.791 42.1389 10.3731 44.8255C9.47761 46.3927 8.8806 48.2583 7.38806 49.3777" stroke="#333333" stroke-miterlimit="10" stroke-linecap="round" stroke-linejoin="round"/>
<path d="M14.5522 29.6763C18.0597 27.8852 22.0896 27.2882 25.8955 27.8852C29.7015 28.4822 33.4328 30.2733 36.194 33.0345C36.0448 31.5419 36.1194 30.1987 36.4925 28.7807C36.8657 27.3628 37.6866 26.0195 38.806 25.124" stroke="#333333" stroke-miterlimit="10" stroke-linecap="round" stroke-linejoin="round"/>
<path d="M5.14926 18.93C7.01493 18.7807 8.8806 18.7807 10.6716 19.2285C12.4627 19.6762 14.1791 20.4971 15.4478 21.915C16.9403 23.5568 17.6119 25.6464 18.1343 27.8106C18.1343 27.9598 18.209 28.1091 18.0597 28.1837C17.9105 28.2583 17.8358 27.9598 17.9851 28.0344" stroke="#333333" stroke-miterlimit="10" stroke-linecap="round" stroke-linejoin="round"/>
<path d="M19.2537 4.22852C20.2985 5.12404 21.3433 6.09419 22.3881 6.98971" stroke="#F7B917" stroke-miterlimit="10" stroke-linecap="round" stroke-linejoin="round"/>
<path d="M18.0597 8.10907C19.5522 8.70608 20.9701 9.37773 22.388 10.0494" stroke="#F7B917" stroke-miterlimit="10" stroke-linecap="round" stroke-linejoin="round"/>
<path d="M18.2836 12.6613C20 12.6613 21.6418 12.6613 23.3582 12.6613" stroke="#F7B917" stroke-miterlimit="10" stroke-linecap="round" stroke-linejoin="round"/>
</g>
<defs>
<clipPath id="clip0">
<rect width="50" height="50.1493" fill="white" transform="translate(0 0.124023)"/>
</clipPath>
</defs>
</svg>
