<svg width="51" height="51" viewBox="0 0 51 51" fill="none" xmlns="http://www.w3.org/2000/svg">
<g clip-path="url(#clip0)">
<path d="M50.6239 0.0588379H0.623932V50.0588H50.6239V0.0588379Z" fill="white"/>
<path d="M7.86274 44.5364C7.1911 47.223 7.11647 50.0588 7.11647 50.0588H0.623932V42.7454C1.96722 37.223 4.28065 31.9245 7.56423 27.2976C8.53438 25.8797 9.57915 24.6111 10.6239 23.4917C10.8478 18.8648 12.7881 14.6111 16.0717 11.7753C21.6687 6.84988 29.1314 6.99914 35.7732 7.14839L37.3403 7.22302C39.1314 7.29764 40.8478 7.52152 42.1911 6.55137C43.609 5.5066 44.206 4.01406 43.9075 0.0588379H50.6239C50.6239 6.02899 49.9523 8.49167 47.5642 11.4021C44.6538 14.9096 40.2508 14.7603 37.1165 14.6857H35.6239C30.6239 14.5364 25.4001 14.4618 21.9672 16.7006C24.6538 16.1036 27.3403 16.1782 29.803 16.8499C34.8777 18.2678 38.6836 22.5215 39.3553 27.4469C40.1015 32.82 36.8926 38.3424 31.7433 40.5066C27.1165 42.5215 21.3702 41.7006 17.1911 38.417C15.3254 36.9991 13.8329 35.1335 12.7135 33.0439C10.4747 36.626 8.83289 40.5812 7.86274 44.5364ZM18.2359 26.5514C18.6836 29.0141 19.9523 31.1782 21.7433 32.5961C23.7583 34.1633 26.5941 34.6111 28.7583 33.7156C30.7732 32.82 32.2657 30.5066 31.9672 28.4917C31.6687 26.5514 29.9523 24.6857 27.7135 24.0887C25.4747 23.417 22.7135 23.8648 20.1762 25.2827C19.5045 25.6559 18.8329 26.1036 18.2359 26.5514Z" fill="#F7B917"/>
<path d="M38.3105 19.0142H10.2508C9.80304 19.0142 9.50453 19.3873 9.50453 19.7604V34.3873C9.50453 34.7604 9.80304 35.1336 10.2508 35.1336H38.2359C38.6836 35.1336 38.9821 34.7604 38.9821 34.3873V19.7604C39.0568 19.3127 38.6836 19.0142 38.3105 19.0142Z" fill="#6FC6AD"/>
<path d="M29.9523 19.0141C34.9806 19.0141 39.0568 14.9379 39.0568 9.90965C39.0568 4.88139 34.9806 0.805176 29.9523 0.805176C24.924 0.805176 20.8478 4.88139 20.8478 9.90965C20.8478 14.9379 24.924 19.0141 29.9523 19.0141Z" stroke="#333333" stroke-miterlimit="10" stroke-linecap="round" stroke-linejoin="round"/>
<path d="M29.9523 14.6858C32.5901 14.6858 34.7284 12.5474 34.7284 9.90966C34.7284 7.27189 32.5901 5.13354 29.9523 5.13354C27.3145 5.13354 25.1762 7.27189 25.1762 9.90966C25.1762 12.5474 27.3145 14.6858 29.9523 14.6858Z" stroke="#333333" stroke-miterlimit="10" stroke-linecap="round" stroke-linejoin="round"/>
<path d="M15.1762 18.9394C18.2673 18.9394 20.7732 16.4335 20.7732 13.3424C20.7732 10.2512 18.2673 7.74536 15.1762 7.74536C12.085 7.74536 9.57916 10.2512 9.57916 13.3424C9.57916 16.4335 12.085 18.9394 15.1762 18.9394Z" stroke="#333333" stroke-miterlimit="10" stroke-linecap="round" stroke-linejoin="round"/>
<path d="M15.1762 15.6559C16.4538 15.6559 17.4896 14.6202 17.4896 13.3425C17.4896 12.0648 16.4538 11.0291 15.1762 11.0291C13.8985 11.0291 12.8627 12.0648 12.8627 13.3425C12.8627 14.6202 13.8985 15.6559 15.1762 15.6559Z" stroke="#333333" stroke-miterlimit="10" stroke-linecap="round" stroke-linejoin="round"/>
<path d="M32.8627 26.4768C33.481 26.4768 33.9821 25.9757 33.9821 25.3574C33.9821 24.7392 33.481 24.238 32.8627 24.238C32.2445 24.238 31.7433 24.7392 31.7433 25.3574C31.7433 25.9757 32.2445 26.4768 32.8627 26.4768Z" fill="#333333"/>
<path d="M32.8627 30.5066C33.481 30.5066 33.9821 30.0055 33.9821 29.3872C33.9821 28.769 33.481 28.2678 32.8627 28.2678C32.2445 28.2678 31.7433 28.769 31.7433 29.3872C31.7433 30.0055 32.2445 30.5066 32.8627 30.5066Z" fill="#333333"/>
<path d="M38.3105 19.0142H10.2508C9.80304 19.0142 9.50453 19.3873 9.50453 19.7604V34.3873C9.50453 34.7604 9.80304 35.1336 10.2508 35.1336H38.2359C38.6836 35.1336 38.9821 34.7604 38.9821 34.3873V19.7604C39.0568 19.3127 38.6836 19.0142 38.3105 19.0142Z" stroke="#333333" stroke-miterlimit="10" stroke-linecap="round" stroke-linejoin="round"/>
<path d="M9.50452 25.208H5.25079V29.4617H9.50452V25.208Z" stroke="#333333" stroke-miterlimit="10" stroke-linecap="round" stroke-linejoin="round"/>
<path d="M28.012 24.238H14.8777V30.4321H28.012V24.238Z" stroke="#333333" stroke-miterlimit="10" stroke-linecap="round" stroke-linejoin="round"/>
<path d="M39.0568 23.7155L46.6687 19.7603V34.1632L39.0568 30.6558" stroke="#333333" stroke-miterlimit="10" stroke-linecap="round" stroke-linejoin="round"/>
<path d="M17.4896 49.238L24.2807 35.1335L29.9523 49.238" stroke="#333333" stroke-miterlimit="10" stroke-linecap="round" stroke-linejoin="round"/>
</g>
<defs>
<clipPath id="clip0">
<rect width="50" height="50" fill="white" transform="translate(0.623932 0.0588379)"/>
</clipPath>
</defs>
</svg>
