<svg width="51" height="51" viewBox="0 0 51 51" fill="none" xmlns="http://www.w3.org/2000/svg">
<g clip-path="url(#clip0)">
<path d="M50.3739 0.258545H0.373932V50.2585H50.3739V0.258545Z" fill="white"/>
<path d="M25.3739 50.2585C39.181 50.2585 50.3739 39.0657 50.3739 25.2585C50.3739 11.4514 39.181 0.258545 25.3739 0.258545C11.5668 0.258545 0.373932 11.4514 0.373932 25.2585C0.373932 39.0657 11.5668 50.2585 25.3739 50.2585Z" fill="#F7B916"/>
<path d="M25.3739 40.6317C34.0704 40.6317 41.1202 33.5819 41.1202 24.8854C41.1202 16.189 34.0704 9.13916 25.3739 9.13916C16.6775 9.13916 9.62766 16.189 9.62766 24.8854C9.62766 33.5819 16.6775 40.6317 25.3739 40.6317Z" fill="#6FC6AD" stroke="#333333" stroke-miterlimit="10" stroke-linecap="round" stroke-linejoin="round"/>
<path d="M25.4486 9.13916C25.4486 9.13916 20.5978 16.3033 20.5232 24.9601C20.4486 34.4377 25.2247 40.6317 25.2247 40.6317" stroke="#333333" stroke-miterlimit="10" stroke-linecap="round" stroke-linejoin="round"/>
<path d="M25.4486 9.13916C25.4486 9.13916 14.8515 12.8705 14.8515 24.9601C14.8515 36.6018 25.2247 40.6317 25.2247 40.6317" stroke="#333333" stroke-miterlimit="10" stroke-linecap="round" stroke-linejoin="round"/>
<path d="M25.4486 40.6317C25.4486 40.6317 30.2993 33.4675 30.3739 24.8108C30.4486 15.3332 25.6724 9.13916 25.6724 9.13916" stroke="#333333" stroke-miterlimit="10" stroke-linecap="round" stroke-linejoin="round"/>
<path d="M25.4486 40.6317C25.4486 40.6317 36.0456 36.9004 36.0456 24.8108C36.0456 13.169 25.6724 9.13916 25.6724 9.13916" stroke="#333333" stroke-miterlimit="10" stroke-linecap="round" stroke-linejoin="round"/>
<path d="M9.62766 24.8108L41.1202 24.96" stroke="#333333" stroke-miterlimit="10" stroke-linecap="round" stroke-linejoin="round"/>
<path d="M39.8515 31.1541H10.9709C10.9709 31.1541 9.62766 28.8406 9.62766 25.2586C9.62766 20.9302 10.5978 19.363 10.5978 19.363H40.1501C40.1501 19.363 41.1202 21.7511 41.1202 25.2586C41.1202 28.2436 39.8515 31.1541 39.8515 31.1541Z" fill="white" stroke="#333333" stroke-miterlimit="10" stroke-linecap="round" stroke-linejoin="round"/>
<path d="M21.4187 22.4226L19.7769 27.7211H18.8814L17.6127 23.9898L16.3441 27.7211H15.4486L13.8068 22.4226H14.9262L15.9709 26.154L17.2396 22.4226H18.0605L19.2545 26.154L20.2993 22.4226H21.4187Z" fill="#333333"/>
<path d="M29.2545 22.4226L27.6127 27.7211H26.7172L25.4486 23.9898L24.1799 27.7211H23.2844L21.6426 22.4226H22.762L23.8068 26.154L25.0754 22.4226H25.8963L27.0904 26.154L28.1351 22.4226H29.2545Z" fill="#333333"/>
<path d="M37.0157 22.4226L35.3739 27.7211H34.4784L33.2098 23.9898L31.9411 27.7211H31.0456L29.4038 22.4226H30.5232L31.568 26.154L32.8366 22.4226H33.6575L34.8515 26.154L35.8963 22.4226H37.0157Z" fill="#333333"/>
<path d="M45.0754 41.3033L38.956 39.1392L40.1501 45.4824L41.8665 43.9899L43.5829 45.9302C43.7321 46.0795 45.1501 44.8854 45.0008 44.7362L43.2844 42.7959L45.0754 41.3033Z" fill="white" stroke="#333333" stroke-miterlimit="10" stroke-linecap="round" stroke-linejoin="round"/>
</g>
<defs>
<clipPath id="clip0">
<rect width="50" height="50" fill="white" transform="translate(0.373932 0.258545)"/>
</clipPath>
</defs>
</svg>
