<svg width="51" height="51" viewBox="0 0 51 51" fill="none" xmlns="http://www.w3.org/2000/svg">
<g clip-path="url(#clip0)">
<path d="M50.6239 0.00854492H0.623932V50.0085H50.6239V0.00854492Z" fill="white"/>
<path d="M41.1463 29.113C40.6239 29.9339 39.7284 30.5309 38.6836 30.5309C37.6389 30.5309 36.6687 29.9339 36.2209 29.113" stroke="#333333" stroke-miterlimit="10" stroke-linecap="round" stroke-linejoin="round"/>
<path d="M15.1016 29.113C14.5792 29.9339 13.6836 30.5309 12.6389 30.5309C11.5941 30.5309 10.6239 29.9339 10.1762 29.113" stroke="#333333" stroke-miterlimit="10" stroke-linecap="round" stroke-linejoin="round"/>
<path d="M35.8478 27.0235C36.26 27.0235 36.5941 26.6894 36.5941 26.2773C36.5941 25.8651 36.26 25.531 35.8478 25.531C35.4357 25.531 35.1015 25.8651 35.1015 26.2773C35.1015 26.6894 35.4357 27.0235 35.8478 27.0235Z" fill="#333333"/>
<path d="M41.5195 27.0235C41.9316 27.0235 42.2657 26.6894 42.2657 26.2773C42.2657 25.8651 41.9316 25.531 41.5195 25.531C41.1073 25.531 40.7732 25.8651 40.7732 26.2773C40.7732 26.6894 41.1073 27.0235 41.5195 27.0235Z" fill="#333333"/>
<path d="M9.72842 27.0235C10.1406 27.0235 10.4747 26.6894 10.4747 26.2773C10.4747 25.8651 10.1406 25.531 9.72842 25.531C9.31626 25.531 8.98215 25.8651 8.98215 26.2773C8.98215 26.6894 9.31626 27.0235 9.72842 27.0235Z" fill="#333333"/>
<path d="M15.4747 27.0235C15.8868 27.0235 16.2209 26.6894 16.2209 26.2773C16.2209 25.8651 15.8868 25.531 15.4747 25.531C15.0625 25.531 14.7284 25.8651 14.7284 26.2773C14.7284 26.6894 15.0625 27.0235 15.4747 27.0235Z" fill="#333333"/>
<path d="M23.609 49.2624V45.6057C23.609 41.5758 20.3254 38.2922 16.2956 38.2922H9.05676C5.02691 38.2922 1.74333 41.5758 1.74333 45.6057V49.2624H23.609Z" fill="#F7B916" stroke="#333333" stroke-miterlimit="10" stroke-linecap="round" stroke-linejoin="round"/>
<path d="M12.5642 34.0385C16.2324 34.0385 19.206 31.0648 19.206 27.3967C19.206 23.7285 16.2324 20.7549 12.5642 20.7549C8.89607 20.7549 5.92244 23.7285 5.92244 27.3967C5.92244 31.0648 8.89607 34.0385 12.5642 34.0385Z" stroke="#333333" stroke-miterlimit="10" stroke-linecap="round" stroke-linejoin="round"/>
<path d="M49.5045 49.2624V45.6057C49.5045 41.5758 46.2209 38.2922 42.1911 38.2922H34.9523C30.9224 38.2922 27.6389 41.5758 27.6389 45.6057V49.2624H49.5045Z" fill="#6FC6AD" stroke="#333333" stroke-miterlimit="10" stroke-linecap="round" stroke-linejoin="round"/>
<path d="M38.5344 34.0385C42.2025 34.0385 45.1762 31.0648 45.1762 27.3967C45.1762 23.7285 42.2025 20.7549 38.5344 20.7549C34.8662 20.7549 31.8926 23.7285 31.8926 27.3967C31.8926 31.0648 34.8662 34.0385 38.5344 34.0385Z" stroke="#333333" stroke-miterlimit="10" stroke-linecap="round" stroke-linejoin="round"/>
<path d="M16.5194 10.2325H24.0568C25.3254 10.2325 26.2956 9.26235 26.2956 7.99369V2.99369C26.2956 1.79966 25.3254 0.754883 24.0568 0.754883H13.0866C11.818 0.754883 10.8478 1.72503 10.8478 2.99369V7.99369C10.8478 9.26235 11.818 10.2325 13.0866 10.2325V13.8146L16.5194 10.2325Z" stroke="#333333" stroke-miterlimit="10" stroke-linecap="round" stroke-linejoin="round"/>
<path d="M40.6239 14.8592H33.012C31.7433 14.8592 30.7732 13.8891 30.7732 12.6204V7.6204C30.7732 6.42637 31.7433 5.38159 33.012 5.38159H43.9821C45.1762 5.38159 46.221 6.35174 46.221 7.6204V12.6204C46.221 13.8891 45.1762 14.8592 43.9821 14.8592V18.4413L40.6239 14.8592Z" fill="#F7B916" stroke="#333333" stroke-miterlimit="10" stroke-linecap="round" stroke-linejoin="round"/>
<path d="M38.5344 5.4563V14.8593" stroke="#333333" stroke-miterlimit="10" stroke-linecap="round" stroke-linejoin="round"/>
<path d="M46.0956 10.1577H30.7732" stroke="#333333" stroke-miterlimit="10" stroke-linecap="round" stroke-linejoin="round"/>
<path d="M31.8926 5.75488L45.2708 14.2572" stroke="#333333" stroke-miterlimit="10" stroke-linecap="round" stroke-linejoin="round"/>
<path d="M45.1766 5.98657L31.8926 14.4116" stroke="#333333" stroke-miterlimit="10" stroke-linecap="round" stroke-linejoin="round"/>
<path d="M19.0568 7.47118H18.609V5.6055H16.6687V7.47118H16.2209V3.3667H16.6687V5.23237H18.609V3.3667H19.0568V7.47118Z" fill="#333333"/>
<path d="M20.6239 3.81446H20.1762V3.3667H20.6239V3.81446ZM20.5493 7.47118H20.1015V4.63536H20.5493V7.47118Z" fill="#333333"/>
</g>
<defs>
<clipPath id="clip0">
<rect width="50" height="50" fill="white" transform="translate(0.623932 0.00854492)"/>
</clipPath>
</defs>
</svg>
