<svg width="51" height="51" viewBox="0 0 51 51" fill="none" xmlns="http://www.w3.org/2000/svg">
<g clip-path="url(#clip0)">
<path d="M50.75 0.319824H0.75V50.3198H50.75V0.319824Z" fill="white"/>
<path d="M49.9291 25.3944C50.153 38.3795 39.4067 49.7974 25.3769 49.5735C11.6455 49.3497 1.42163 37.9317 1.57089 25.1706C1.72014 11.9616 12.3172 1.06607 25.9739 1.1407C39.3321 1.21533 50.0784 12.1855 49.9291 25.3944ZM40.5261 19.2004C41.2724 19.4243 42.1679 19.275 42.9142 18.3795C43.4366 17.7825 43.1381 16.7377 42.7649 16.1407C39.0336 9.49891 33.2873 5.91682 25.6007 5.91682C18.3619 5.91682 12.9142 9.27503 9.03358 15.3198C8.43656 16.2153 7.69029 17.2601 8.43656 18.4541C9.18283 19.6482 10.4515 19.4243 11.4963 19.1258C17.7649 17.484 33.0634 17.1109 40.5261 19.2004ZM32.7649 43.2303C34.9291 42.2601 35.153 40.5437 33.4366 38.9019C31.6455 37.1109 29.556 35.5437 27.541 33.9765C26.4216 33.081 25.2276 33.081 24.1082 33.9019C22.1679 35.3198 20.153 36.7377 18.4366 38.3795C16.1231 40.6929 16.7201 42.9317 19.8545 43.9019C21.7948 44.4989 30.6007 44.275 32.7649 43.2303ZM6.42163 27.0362C6.49626 29.7974 7.39178 32.3347 8.73507 34.7974C9.77984 36.6631 11.5709 37.2601 13.2127 35.9168C14.7798 34.5735 16.1978 32.9317 17.1679 31.1407C18.4366 28.8273 17.8395 26.7377 16.0485 25.3198C13.9589 23.678 11.4963 23.1556 8.88432 23.7526C6.94402 24.2004 6.42163 25.0959 6.42163 27.0362ZM42.6157 23.7526C40.0037 23.1556 37.6157 23.7526 35.4515 25.3198C33.5858 26.7377 33.0634 28.8273 34.3321 31.1407C35.3022 32.9317 36.7948 34.5735 38.2873 35.9168C39.8545 37.2601 41.7201 36.6631 42.7649 34.7974C44.1082 32.4094 45.0037 29.872 45.0784 27.0362C45.0784 25.0959 44.556 24.2004 42.6157 23.7526Z" fill="#F7B916" stroke="#333333" stroke-miterlimit="10" stroke-linecap="round" stroke-linejoin="round"/>
<path d="M29.0336 21.5885L26.0485 28.6781C25.6754 29.5736 25.0784 30.0213 24.2575 30.0213H23.3619V28.9019H23.959C24.4067 28.9019 24.7798 28.6781 24.9291 28.2303L25.2276 27.5587L22.4664 21.6631H23.8097L25.8246 26.1407L27.6157 21.6631H29.0336V21.5885Z" fill="#333333"/>
</g>
<defs>
<clipPath id="clip0">
<rect width="50" height="50" fill="white" transform="translate(0.75 0.319824)"/>
</clipPath>
</defs>
</svg>
