<svg width="50" height="51" viewBox="0 0 50 51" fill="none" xmlns="http://www.w3.org/2000/svg">
<g clip-path="url(#clip0)">
<path d="M50 0.324219H0V50.3242H50V0.324219Z" fill="white"/>
<path d="M12.8358 31.5182L15.9701 39.0556H34.403L37.0149 31.5182H12.8358Z" fill="#F7B916"/>
<path d="M38.2836 33.0108H12.6866C11.4925 33.0108 10.5224 32.0406 10.5224 30.8466C10.5224 29.6526 11.4925 28.6824 12.6866 28.6824H38.2836C39.4776 28.6824 40.4478 29.6526 40.4478 30.8466C40.4478 32.0406 39.4776 33.0108 38.2836 33.0108Z" fill="#F7B916"/>
<path d="M18.8806 49.5779H31.1194" stroke="#333333" stroke-miterlimit="10" stroke-linecap="round" stroke-linejoin="round"/>
<path d="M43.2836 23.4585C43.2836 13.3839 35.1493 5.24957 25.0746 5.24957C15 5.24957 6.94031 13.3839 6.94031 23.4585H43.2836Z" fill="#6FC6AD" stroke="#333333" stroke-miterlimit="10" stroke-linecap="round" stroke-linejoin="round"/>
<path d="M13.5075 14.3541C12.2388 16.0705 11.2687 18.0108 10.7463 20.175H19.2537" stroke="#333333" stroke-miterlimit="10" stroke-linecap="round" stroke-linejoin="round"/>
<path d="M21.194 8.75708C19.1045 9.50335 17.1642 10.6228 15.597 12.1153" stroke="#333333" stroke-miterlimit="10" stroke-linecap="round" stroke-linejoin="round"/>
<path d="M25.0746 5.10035C26.1874 5.10035 27.0895 4.19823 27.0895 3.08542C27.0895 1.97261 26.1874 1.0705 25.0746 1.0705C23.9618 1.0705 23.0597 1.97261 23.0597 3.08542C23.0597 4.19823 23.9618 5.10035 25.0746 5.10035Z" stroke="#333333" stroke-miterlimit="10" stroke-linecap="round" stroke-linejoin="round"/>
<path d="M27.1642 39.7272H23.8806V49.5034H27.1642V39.7272Z" stroke="#333333" stroke-miterlimit="10" stroke-linecap="round" stroke-linejoin="round"/>
<path d="M14.1791 25.3242C13.6567 25.6974 13.209 26.1451 12.9851 26.7421C12.7612 27.3391 12.8358 28.0854 13.2836 28.5332C13.6567 28.9063 14.1045 29.0556 14.5522 29.2794C15 29.5033 15.4478 29.8765 15.5224 30.3242C15.597 31.0705 14.8507 31.5929 14.1791 31.8914" stroke="#333333" stroke-miterlimit="10" stroke-linecap="round" stroke-linejoin="round"/>
<path d="M19.5522 25.3242C19.0299 25.6974 18.5821 26.1451 18.3582 26.7421C18.1343 27.3391 18.209 28.0854 18.6567 28.5332C19.0299 28.9063 19.4776 29.0556 19.9254 29.2794C20.3731 29.5033 20.8209 29.8765 20.8955 30.3242C20.9702 31.0705 20.2239 31.5929 19.5522 31.8914" stroke="#333333" stroke-miterlimit="10" stroke-linecap="round" stroke-linejoin="round"/>
<path d="M24.9254 25.3242C24.403 25.6974 23.9552 26.1451 23.7313 26.7421C23.5074 27.3391 23.5821 28.0854 24.0298 28.5332C24.403 28.9063 24.8507 29.0556 25.2985 29.2794C25.7462 29.5033 26.194 29.8765 26.2686 30.3242C26.3433 31.0705 25.597 31.5929 24.9254 31.8914" stroke="#333333" stroke-miterlimit="10" stroke-linecap="round" stroke-linejoin="round"/>
<path d="M30.2985 25.3242C29.7761 25.6974 29.3284 26.1451 29.1045 26.7421C28.8806 27.3391 28.9552 28.0854 29.403 28.5332C29.7761 28.9063 30.2239 29.0556 30.6716 29.2794C31.1194 29.5033 31.5672 29.8765 31.6418 30.3242C31.7164 31.0705 30.9702 31.5929 30.2985 31.8914" stroke="#333333" stroke-miterlimit="10" stroke-linecap="round" stroke-linejoin="round"/>
<path d="M35.6716 25.3242C35.1492 25.6974 34.7015 26.1451 34.4776 26.7421C34.2537 27.3391 34.3283 28.0854 34.7761 28.5332C35.1492 28.9063 35.597 29.0556 36.0448 29.2794C36.4925 29.5033 36.9403 29.8765 37.0149 30.3242C37.0895 31.0705 36.3433 31.5929 35.6716 31.8914" stroke="#333333" stroke-miterlimit="10" stroke-linecap="round" stroke-linejoin="round"/>
<path d="M49.2537 46.4436C48.4328 46.8168 47.7612 45.772 46.9403 45.4735C45.597 45.0257 44.3284 46.6675 42.9851 46.5183C41.791 46.4436 40.8955 45.0257 39.7015 45.1003C38.6567 45.175 37.9105 46.2944 36.8657 46.1451C36.1194 45.9959 35.597 45.2496 34.9254 45.0257C33.7313 44.578 32.5373 45.772 31.2687 45.9959C29.4776 46.2944 27.7612 44.578 26.0448 45.175C25.4478 45.3242 24.9254 45.772 24.3284 45.9212C22.7612 46.369 21.2687 44.7272 19.6269 44.8765C18.2836 44.9511 17.1642 46.2198 15.8209 46.2944C15 46.2944 14.1791 45.8466 13.4328 45.5481C12.3881 45.175 11.194 45.2496 10.1493 45.6227C8.95523 46.0705 7.83583 47.0406 6.6418 46.6675C6.11941 46.5183 5.67165 46.0705 5.14926 45.8466C3.80598 45.1003 1.9403 45.3989 0.970154 46.5929L1.6418 39.8765H48.8806L49.2537 46.4436Z" fill="white" stroke="#333333" stroke-miterlimit="10" stroke-linecap="round" stroke-linejoin="round"/>
</g>
<defs>
<clipPath id="clip0">
<rect width="50" height="50" fill="white" transform="translate(0 0.324219)"/>
</clipPath>
</defs>
</svg>
