<svg width="51" height="50" viewBox="0 0 51 50" fill="none" xmlns="http://www.w3.org/2000/svg">
<g clip-path="url(#clip0)">
<path d="M50.8739 0.0588379H1.17065V49.7621H50.8739V0.0588379Z" fill="white"/>
<path d="M50.0579 29.3615V46.8689C50.0579 48.0559 49.0193 49.0944 47.8324 49.0944H4.06384C2.87689 49.0944 1.83832 48.13 1.83832 46.8689V29.3615C1.83832 28.1746 2.80271 27.136 4.06384 27.136H47.8324C49.0935 27.136 50.0579 28.1004 50.0579 29.3615Z" fill="#6FC6AD" stroke="#333333" stroke-miterlimit="10" stroke-linecap="round" stroke-linejoin="round"/>
<path d="M50.0579 17.4921V35.5188C50.0579 36.78 49.0193 37.7443 47.8324 37.7443H26.8383V17.4921C26.8383 16.3052 27.8027 15.2666 29.0638 15.2666H47.9066C49.0935 15.2666 50.0579 16.231 50.0579 17.4921Z" fill="#F7B916" stroke="#333333" stroke-miterlimit="10" stroke-linecap="round" stroke-linejoin="round"/>
<path d="M1.91251 37.7444H50.0579" stroke="#333333" stroke-miterlimit="10" stroke-linecap="round" stroke-linejoin="round"/>
<path d="M1.91251 34.7769H26.8383" stroke="#333333" stroke-miterlimit="10" stroke-linecap="round" stroke-linejoin="round"/>
<path d="M1.91251 31.7354H26.8383" stroke="#333333" stroke-miterlimit="10" stroke-linecap="round" stroke-linejoin="round"/>
<path d="M26.8383 19.05H50.0579" stroke="#333333" stroke-miterlimit="10" stroke-linecap="round" stroke-linejoin="round"/>
<path d="M21.4971 18.9016L19.6425 18.1598C17.8621 17.4921 16.0075 18.9016 16.23 20.7562L16.4526 22.7592L15.2656 21.1272C14.1529 19.5693 11.8532 19.7918 10.9629 21.4981L10.0727 23.2785L9.92437 21.2755C9.776 19.4209 7.77303 18.3082 6.14098 19.2726L4.43475 20.3111L5.32496 18.5307C6.21517 16.8987 5.10241 14.8215 3.24781 14.7473L1.24484 14.6732L3.02526 13.7088C4.73149 12.8186 4.80567 10.5188 3.32199 9.40609L1.61576 8.29333L3.61873 8.4417C5.54751 8.59006 6.88282 6.73546 6.21517 4.95505L5.47333 3.10045L7.03119 4.28739C8.51487 5.47434 10.7404 4.58413 11.0371 2.72953L11.408 0.726562L12.0757 2.58116C12.7434 4.36158 15.0431 4.80668 16.3042 3.47137L17.6395 1.98769L17.1944 3.91647C16.7493 5.77107 18.4555 7.40312 20.3101 6.95802L22.2389 6.43873L20.8294 7.84822C19.4941 9.18354 20.0134 11.4832 21.7938 12.0767L23.7226 12.7444L21.7938 13.1153C19.9392 13.4862 19.1232 15.7117 20.3101 17.1954L21.4971 18.9016Z" fill="#F7B916" stroke="#333333" stroke-miterlimit="10" stroke-linecap="round" stroke-linejoin="round"/>
<path d="M12.4466 17.3437C15.3555 17.3437 17.7137 14.9856 17.7137 12.0766C17.7137 9.16771 15.3555 6.80957 12.4466 6.80957C9.53771 6.80957 7.17957 9.16771 7.17957 12.0766C7.17957 14.9856 9.53771 17.3437 12.4466 17.3437Z" fill="#F7B916" stroke="#333333" stroke-miterlimit="10" stroke-linecap="round" stroke-linejoin="round"/>
<path d="M26.5416 31.5128C27.506 29.8807 29.5831 29.2131 31.5119 29.2873C32.0312 29.2873 32.5505 29.3615 33.0698 29.584C34.2567 30.1033 34.8502 31.4386 35.8888 32.1804C37.2241 33.219 39.0787 33.219 40.7107 33.1448C43.7523 33.0707 46.868 32.9965 49.9095 32.9223" stroke="#333333" stroke-miterlimit="10" stroke-linecap="round" stroke-linejoin="round"/>
</g>
<defs>
<clipPath id="clip0">
<rect width="50" height="49.7033" fill="white" transform="translate(0.873932 0.0588379)"/>
</clipPath>
</defs>
</svg>
