<svg width="51" height="51" viewBox="0 0 51 51" fill="none" xmlns="http://www.w3.org/2000/svg">
<g clip-path="url(#clip0)">
<path d="M50.2725 0.961914H0.347015V50.8874H50.2725V0.961914Z" fill="white"/>
<path d="M50.2725 40.8278C50.2725 35.3136 45.429 34.1214 41.9267 34.1214C39.0951 34.1214 36.4126 33.0781 33.8045 31.9604C31.9417 31.2153 30.0788 30.4701 28.4394 29.3524C25.5333 27.415 23.4469 24.5088 21.2114 21.8263C18.9759 19.1437 16.2934 16.6102 12.9402 15.716C9.88502 14.8963 6.38278 15.7905 3.99828 17.8769C1.61378 19.9634 0.645078 23.093 0.347015 26.4462V50.8874H50.2725V40.8278Z" fill="#F7B916"/>
<path d="M32.3142 14.1512C32.3142 18.1005 29.11 21.2302 25.2352 21.2302C21.3604 21.2302 18.1562 18.026 18.1562 14.1512C18.1562 13.9276 18.1562 13.7041 18.1562 13.4805" stroke="#333333" stroke-miterlimit="10" stroke-linecap="round" stroke-linejoin="round"/>
<path d="M27.5452 17.0573C27.0236 17.877 26.1294 18.4731 25.0862 18.4731C24.043 18.4731 23.0743 17.877 22.6272 17.0573" stroke="#333333" stroke-miterlimit="10" stroke-linecap="round" stroke-linejoin="round"/>
<path d="M22.1801 14.9708C22.5916 14.9708 22.9252 14.6372 22.9252 14.2257C22.9252 13.8141 22.5916 13.4805 22.1801 13.4805C21.7686 13.4805 21.4349 13.8141 21.4349 14.2257C21.4349 14.6372 21.7686 14.9708 22.1801 14.9708Z" fill="#333333"/>
<path d="M27.8433 14.9708C28.2548 14.9708 28.5884 14.6372 28.5884 14.2257C28.5884 13.8141 28.2548 13.4805 27.8433 13.4805C27.4317 13.4805 27.0981 13.8141 27.0981 14.2257C27.0981 14.6372 27.4317 14.9708 27.8433 14.9708Z" fill="#333333"/>
<path d="M47.2919 38.8159H3.32765C2.1354 38.8159 1.09218 39.8591 1.09218 41.0513V47.9068C1.09218 49.099 2.1354 50.1422 3.32765 50.1422H47.2919C48.4841 50.1422 49.5274 49.1735 49.5274 47.9068V41.1258C49.5274 39.8591 48.5586 38.8159 47.2919 38.8159Z" stroke="#333333" stroke-miterlimit="10" stroke-linecap="round" stroke-linejoin="round"/>
<path d="M13.3127 36.0588V32.1095C13.3127 27.7876 16.815 24.2853 21.1369 24.2853H28.8865C33.2084 24.2853 36.7107 27.7876 36.7107 32.1095V35.2391" stroke="#333333" stroke-miterlimit="10" stroke-linecap="round" stroke-linejoin="round"/>
<path d="M6.82988 43.6594C8.32019 44.6281 10.1086 45.6713 11.8224 45.2987C12.6421 45.0752 13.3873 44.6281 14.2069 44.2555C15.4737 43.6594 16.964 43.5103 18.3053 43.8084C20.3917 44.2555 22.4782 45.6713 24.4156 45.0007C25.2352 44.7026 25.9059 44.1065 26.651 43.6594C28.1414 42.8397 30.0788 42.8397 31.6436 43.6594C32.4633 44.1065 33.0594 44.7026 33.8791 45.1497C34.6242 45.5968 35.5929 45.8948 36.4126 45.6713C37.2323 45.3732 37.7539 44.6281 38.499 44.181C39.4677 43.5849 40.809 43.5849 41.9268 43.9574C43.0445 44.33 44.0132 45.0007 44.9819 45.7458C44.8329 45.8203 44.7583 45.8948 44.6093 45.9694" stroke="#333333" stroke-miterlimit="10" stroke-linecap="round" stroke-linejoin="round"/>
<path d="M43.5661 27.6385C43.1935 26.9679 43.1935 26.2227 43.268 25.4776C43.3425 24.7324 43.4916 23.9873 43.417 23.3166C43.5661 23.1676 43.7896 23.3166 43.9387 23.4656C44.5348 24.1363 45.2054 24.956 45.3545 25.8501C45.429 26.0737 45.429 26.3718 45.429 26.5953C45.429 27.1169 45.578 28.9798 44.8328 29.0543C44.3858 29.1288 43.7896 28.0111 43.5661 27.6385Z" fill="#6FC6AD"/>
<path d="M43.3425 29.4269C42.5974 29.4269 41.9267 29.1288 41.2561 28.7563C40.5855 28.3837 39.9893 27.9366 39.3187 27.6385C39.2442 27.415 39.4677 27.2659 39.6913 27.2659C40.5855 27.0424 41.5542 26.7443 42.4483 27.0424C42.6719 27.1169 42.8954 27.1914 43.119 27.3405C43.5661 27.564 45.2799 28.2347 45.1309 28.9798C45.0564 29.3524 43.7151 29.4269 43.3425 29.4269Z" fill="#6FC6AD"/>
<path d="M44.8328 30.5446C44.4603 31.2153 43.8641 31.6624 43.1935 32.0349C42.5229 32.4075 41.8522 32.7056 41.2561 33.1527C41.0326 33.1527 41.0326 32.8546 41.1071 32.6311C41.3306 31.7369 41.6287 30.7682 42.2993 30.0975C42.4483 29.9485 42.6719 29.7995 42.8954 29.6504C43.3425 29.3524 44.7583 28.2346 45.2799 28.7563C45.6525 29.0543 44.9819 30.172 44.8328 30.5446Z" fill="#6FC6AD"/>
<path d="M46.0251 29.725C46.4722 30.3211 46.5467 31.0662 46.5467 31.8114C46.5467 32.5566 46.4722 33.3017 46.6212 34.0469C46.4722 34.1959 46.2487 34.1214 46.0996 33.9723C45.429 33.3762 44.6838 32.7056 44.4603 31.7369C44.3858 31.5133 44.3858 31.2153 44.3112 30.9917C44.2367 30.4701 43.9387 28.6817 44.6093 28.4582C44.9819 28.3092 45.727 29.3524 46.0251 29.725Z" fill="#6FC6AD"/>
<path d="M46.4722 28.4582C47.2174 28.4582 47.888 28.8308 48.4841 29.2779C49.0802 29.725 49.6764 30.172 50.347 30.4701C50.4215 30.6937 50.1235 30.7682 49.9744 30.8427C49.0802 31.0662 48.1115 31.2153 47.2174 30.9172C46.9938 30.8427 46.7703 30.6937 46.5467 30.6191C46.0996 30.3956 44.4603 29.5759 44.6838 28.9053C44.7583 28.4582 46.0251 28.4582 46.4722 28.4582Z" fill="#6FC6AD"/>
<path d="M45.5035 27.2659C45.9506 26.7443 46.6957 26.4463 47.4409 26.2227C48.1861 25.9992 48.8567 25.9246 49.5273 25.6266C49.7509 25.7011 49.6764 25.9992 49.5273 26.1482C49.0802 26.9679 48.6332 27.8621 47.8135 28.3092C47.5899 28.4582 47.3664 28.5327 47.1428 28.6072C46.6957 28.7562 44.9819 29.5014 44.6093 28.9053C44.3858 28.6072 45.2799 27.564 45.5035 27.2659Z" fill="#6FC6AD"/>
<path d="M3.32765 4.09158C3.1041 3.64448 3.02958 3.12287 3.1041 2.60126C3.17862 2.07965 3.32765 1.55804 3.25313 1.03644C3.32765 0.961919 3.55119 1.03644 3.62571 1.18547C4.0728 1.63256 4.5199 2.15417 4.59441 2.82481C4.59441 2.97384 4.59441 3.19739 4.59441 3.34642C4.59441 3.719 4.66893 4.98576 4.14732 5.1348C3.92377 5.1348 3.47668 4.31512 3.32765 4.09158Z" fill="#6FC6AD"/>
<path d="M3.17861 5.35835C2.657 5.35835 2.13539 5.13481 1.6883 4.91126C1.2412 4.68771 0.868625 4.31514 0.347015 4.09159C0.2725 3.94256 0.496047 3.86804 0.645078 3.79353C1.2412 3.64449 1.91184 3.49546 2.58248 3.64449C2.73152 3.71901 2.88055 3.79353 3.10409 3.86804C3.40216 4.01707 4.66892 4.53868 4.51989 4.98578C4.37086 5.28384 3.47667 5.35835 3.17861 5.35835Z" fill="#6FC6AD"/>
<path d="M4.22183 6.10348C3.99829 6.55057 3.55119 6.92315 3.1041 7.1467C2.657 7.37024 2.13539 7.59379 1.76282 7.96637C1.61378 7.96637 1.61378 7.74282 1.61378 7.59379C1.76282 6.92315 1.98636 6.25251 2.43346 5.80542C2.58249 5.65638 2.73152 5.58187 2.88055 5.50735C3.17861 5.28381 4.22183 4.53865 4.59441 4.83671C4.81796 5.06026 4.37086 5.87993 4.22183 6.10348Z" fill="#6FC6AD"/>
<path d="M5.0415 5.50737C5.33956 5.95447 5.41407 6.47608 5.41407 6.99769C5.41407 7.5193 5.41407 8.0409 5.48859 8.56251C5.41407 8.71155 5.19053 8.56252 5.11601 8.488C4.66892 8.04091 4.14731 7.59381 3.92376 6.92317C3.92376 6.77414 3.84925 6.62511 3.84925 6.40156C3.77473 6.1035 3.55118 4.76222 4.07279 4.61319C4.37086 4.53867 4.89247 5.28383 5.0415 5.50737Z" fill="#6FC6AD"/>
<path d="M5.41408 4.68772C5.93569 4.68772 6.38278 4.98579 6.82988 5.28385C7.27697 5.58191 7.64955 5.95449 8.09664 6.17804C8.17116 6.32707 7.94761 6.40158 7.79858 6.4761C7.20246 6.4761 6.4573 6.62513 5.86117 6.40158C5.71214 6.32707 5.56311 6.25255 5.41408 6.17804C5.11602 5.95449 3.92377 5.43288 4.0728 4.91127C4.14731 4.61321 5.11602 4.68772 5.41408 4.68772Z" fill="#6FC6AD"/>
<path d="M4.74344 3.79352C5.0415 3.42094 5.56311 3.19739 6.08472 3.12288C6.60633 3.04836 7.12794 2.89933 7.57504 2.67578C7.72407 2.7503 7.64955 2.89933 7.57504 3.04836C7.27697 3.64448 6.9044 4.24061 6.38279 4.53867C6.23375 4.61319 6.01021 4.6877 5.86118 4.76222C5.56311 4.91125 4.37086 5.43286 4.0728 4.98577C3.92377 4.76222 4.51989 4.01706 4.74344 3.79352Z" fill="#6FC6AD"/>
<path d="M11.9714 12.8099C11.5244 13.1825 11.1518 13.6295 11.0027 14.1512C10.9282 14.3747 10.8537 14.5983 10.8537 14.8218C10.9282 15.2689 11.3008 15.6415 11.6734 15.9395C12.046 16.2376 12.4931 16.4611 12.7166 16.8337C13.1637 17.5044 12.8656 18.3985 12.4185 19.0692C12.1205 19.4418 11.7479 19.7398 11.5244 20.1124C11.2263 20.485 11.0027 20.9321 11.0773 21.3792" stroke="#333333" stroke-miterlimit="10" stroke-linecap="round" stroke-linejoin="round"/>
<path d="M8.76729 12.8099C8.32019 13.1825 7.94761 13.6295 7.79858 14.1512C7.72407 14.3747 7.64955 14.5983 7.64955 14.8218C7.72407 15.2689 8.09664 15.6415 8.46922 15.9395C8.8418 16.2376 9.2889 16.4611 9.51244 16.8337C9.95954 17.5044 9.66147 18.3985 9.21438 19.0692C8.91632 19.4418 8.54374 19.7398 8.32019 20.1124C8.02213 20.485 7.79858 20.9321 7.8731 21.3792" stroke="#333333" stroke-miterlimit="10" stroke-linecap="round" stroke-linejoin="round"/>
<path d="M41.5542 12.8099C41.1071 13.1825 40.7345 13.6295 40.5855 14.1512C40.5109 14.3747 40.4364 14.5983 40.4364 14.8218C40.5109 15.2689 40.8835 15.6415 41.2561 15.9395C41.6287 16.2376 42.0758 16.4611 42.2993 16.8337C42.7464 17.5044 42.4484 18.3985 42.0013 19.0692C41.7032 19.4418 41.3306 19.7398 41.1071 20.1124C40.809 20.485 40.5855 20.9321 40.66 21.3792" stroke="#333333" stroke-miterlimit="10" stroke-linecap="round" stroke-linejoin="round"/>
<path d="M38.35 12.8099C37.9029 13.1825 37.5303 13.6295 37.3813 14.1512C37.3068 14.3747 37.2323 14.5983 37.2323 14.8218C37.3068 15.2689 37.6794 15.6415 38.0519 15.9395C38.4245 16.2376 38.8716 16.4611 39.0952 16.8337C39.5423 17.5044 39.2442 18.3985 38.7971 19.0692C38.499 19.4418 38.1265 19.7398 37.9029 20.1124C37.6048 20.485 37.3813 20.9321 37.4558 21.3792" stroke="#333333" stroke-miterlimit="10" stroke-linecap="round" stroke-linejoin="round"/>
<path d="M22.2546 11.9903C23.5959 11.6922 25.0117 11.6177 26.353 11.2451C27.6943 10.947 29.0355 10.3509 29.5572 9.38221C29.8552 8.8606 29.9297 8.26448 29.8552 7.74287C29.8552 6.99771 29.7807 6.17804 29.2591 5.5074C28.1414 3.79354 25.0117 3.19741 22.7017 3.86805C20.3172 4.53869 18.7524 6.32707 18.0817 8.11544C17.6347 9.45673 17.113 11.7667 17.7837 13.108C18.2308 14.0022 18.9014 13.257 19.6466 12.8844C20.3917 12.5119 21.2859 12.1393 22.2546 11.9903Z" stroke="#333333" stroke-miterlimit="10" stroke-linecap="round" stroke-linejoin="round"/>
<path d="M27.3962 10.947C28.5139 10.8725 29.7062 11.2451 30.4513 12.0648C31.271 12.8844 31.7926 13.9276 32.2397 14.9709C32.2397 15.0454 32.3142 15.1199 32.3887 15.1199C32.5378 15.1944 32.6123 14.9709 32.6868 14.8218C33.3574 12.2138 32.3142 9.23316 30.2278 7.59381" stroke="#333333" stroke-miterlimit="10" stroke-linecap="round" stroke-linejoin="round"/>
<path d="M18.6033 6.62509C18.5288 5.58188 18.3798 4.38963 18.9759 3.49544C19.4975 2.67577 20.1682 2.30319 21.0624 2.00512C21.9566 1.70706 23.2233 1.78158 24.1175 2.00512C25.0117 2.22867 25.7568 2.89931 26.2039 3.64447" stroke="#333333" stroke-miterlimit="10" stroke-linecap="round" stroke-linejoin="round"/>
</g>
<defs>
<clipPath id="clip0">
<rect width="50" height="49.9255" fill="white" transform="translate(0.347015 0.961914)"/>
</clipPath>
</defs>
</svg>
