<svg width="51" height="51" viewBox="0 0 51 51" fill="none" xmlns="http://www.w3.org/2000/svg">
<g clip-path="url(#clip0)">
<path d="M50.8739 0.0588379H0.873932V50.0588H50.8739V0.0588379Z" fill="white"/>
<path d="M34.0083 33.1187H8.70975C4.38139 33.1187 0.873932 36.6261 0.873932 40.9545V42.1485C0.873932 46.5515 4.38139 50.059 8.70975 50.059H34.0083C38.3366 50.059 41.8441 46.5515 41.8441 42.2231V41.0291C41.8441 36.6261 38.3366 33.1187 34.0083 33.1187Z" fill="#F7B916"/>
<path d="M26.9933 16.626H7.36646C3.85899 16.626 0.948547 19.5364 0.948547 23.0439V24.014C0.948547 27.5215 3.85899 30.4319 7.36646 30.4319H26.9933C30.5008 30.4319 33.4112 27.5215 33.4112 24.014V23.0439C33.4112 19.4618 30.5008 16.626 26.9933 16.626Z" fill="#F7B916"/>
<path d="M18.1874 0.0588379H7.36646C3.85899 0.0588379 0.948547 2.96929 0.948547 6.47675V7.4469C0.948547 10.9544 3.85899 13.8648 7.36646 13.8648H18.1127C21.6202 13.8648 24.5306 10.9544 24.5306 7.4469V6.47675C24.6053 2.96929 21.6948 0.0588379 18.1874 0.0588379Z" fill="#F7B916"/>
<path d="M13.4112 20.0588L12.665 13.4917C12.665 13.4917 12.4411 12.82 12.9635 12.0737C13.3366 11.5514 14.1575 11.4021 14.1575 11.4021H20.3515C20.3515 11.4021 21.2471 11.4767 21.6948 11.9991C22.2172 12.5961 22.3665 13.417 22.3665 13.417L22.9635 20.1334H13.4112V20.0588Z" fill="#6FC6AD" stroke="#333333" stroke-miterlimit="10" stroke-linecap="round" stroke-linejoin="round"/>
<path d="M16.0978 20.0588L15.3515 13.4917C15.3515 13.4917 15.1276 12.82 15.65 12.0737C16.0232 11.5514 16.8441 11.4021 16.8441 11.4021H23.0381C23.0381 11.4021 23.9336 11.4767 24.3814 11.9991C24.9038 12.5961 25.053 13.417 25.053 13.417L25.65 20.1334H16.0978V20.0588Z" fill="#6FC6AD" stroke="#333333" stroke-miterlimit="10" stroke-linecap="round" stroke-linejoin="round"/>
<path d="M11.0232 20.0588H41.0232L39.0082 43.7156H12.665L11.0232 20.0588Z" fill="#6FC6AD" stroke="#333333" stroke-miterlimit="10" stroke-linecap="round" stroke-linejoin="round"/>
<path d="M14.9038 20.0588L16.2471 43.7156" stroke="#333333" stroke-miterlimit="10" stroke-linecap="round" stroke-linejoin="round"/>
<path d="M20.8739 20.0588L22.2172 43.7156" stroke="#333333" stroke-miterlimit="10" stroke-linecap="round" stroke-linejoin="round"/>
<path d="M37.1426 20.0588L35.7993 43.7156" stroke="#333333" stroke-miterlimit="10" stroke-linecap="round" stroke-linejoin="round"/>
<path d="M31.0232 20.0588L29.6799 43.7156" stroke="#333333" stroke-miterlimit="10" stroke-linecap="round" stroke-linejoin="round"/>
<path d="M40.7247 40.208H10.5008C9.82913 40.208 9.23212 39.611 9.23212 38.9393V38.4916C9.23212 37.8199 9.82913 37.2229 10.5008 37.2229H40.7247C41.3963 37.2229 41.9933 37.8199 41.9933 38.4916V38.9393C41.9933 39.6856 41.3963 40.208 40.7247 40.208Z" fill="#6FC6AD" stroke="#333333" stroke-miterlimit="10" stroke-linecap="round" stroke-linejoin="round"/>
<path d="M42.5157 28.6408H9.23213C8.56049 28.6408 7.96347 28.0438 7.96347 27.3722V26.9244C7.96347 26.2528 8.56049 25.6558 9.23213 25.6558H42.5157C43.1873 25.6558 43.7844 26.2528 43.7844 26.9244V27.3722C43.7844 28.0438 43.1873 28.6408 42.5157 28.6408Z" fill="#6FC6AD" stroke="#333333" stroke-miterlimit="10" stroke-linecap="round" stroke-linejoin="round"/>
<path d="M20.5008 17.5962C21.4487 17.5962 22.2172 16.8277 22.2172 15.8797C22.2172 14.9318 21.4487 14.1633 20.5008 14.1633C19.5528 14.1633 18.7844 14.9318 18.7844 15.8797C18.7844 16.8277 19.5528 17.5962 20.5008 17.5962Z" fill="#6FC6AD" stroke="#333333" stroke-miterlimit="10" stroke-linecap="round" stroke-linejoin="round"/>
<path d="M40.3515 4.76025C39.456 5.4319 38.7844 6.32742 38.4859 7.44682C38.3366 7.89458 38.262 8.34234 38.4113 8.7901C38.7098 9.83488 39.9784 10.208 40.7993 10.9543C41.471 11.6259 41.7695 12.5961 41.5456 13.4916C41.3217 14.3871 40.5754 15.1334 39.6799 15.4319" stroke="#333333" stroke-miterlimit="10" stroke-linecap="round" stroke-linejoin="round"/>
<path d="M44.6053 4.76025C43.7098 5.4319 43.0381 6.32742 42.7396 7.44682C42.5903 7.89458 42.5157 8.34234 42.665 8.7901C42.9635 9.83488 44.2321 10.208 45.053 10.9543C45.7247 11.6259 46.0232 12.5961 45.7993 13.4916C45.5754 14.3871 44.8292 15.1334 43.9336 15.4319" stroke="#333333" stroke-miterlimit="10" stroke-linecap="round" stroke-linejoin="round"/>
<path d="M48.859 4.76025C47.9635 5.4319 47.2918 6.32742 46.9933 7.44682C46.8441 7.89458 46.7694 8.34234 46.9187 8.7901C47.2172 9.83488 48.4859 10.208 49.3068 10.9543C49.9784 11.6259 50.2769 12.5961 50.053 13.4916C49.8292 14.3871 49.0829 15.1334 48.1874 15.4319" stroke="#333333" stroke-miterlimit="10" stroke-linecap="round" stroke-linejoin="round"/>
</g>
<defs>
<clipPath id="clip0">
<rect width="50" height="50" fill="white" transform="translate(0.873932 0.0588379)"/>
</clipPath>
</defs>
</svg>
