<svg width="51" height="51" viewBox="0 0 51 51" fill="none" xmlns="http://www.w3.org/2000/svg">
<g clip-path="url(#clip0)">
<path d="M50.694 0.961914H0.694031V50.9619H50.694V0.961914Z" fill="white"/>
<path d="M41.8881 50.2157C39.8731 48.4246 40.2463 45.141 38.8284 42.8276C37.9328 41.3351 36.4403 40.3649 34.7985 39.6933C33.6045 39.1709 32.4104 38.7977 31.1418 38.6485C29.0522 38.35 26.8881 38.4992 24.8731 37.9769C22.709 37.3798 20.8433 35.8873 19.7239 33.947C18.6045 32.0067 18.306 30.3649 18.903 28.2007L18.6045 27.6783H10.8433L1.4403 50.2157H41.8881Z" fill="#6FC6AD"/>
<path d="M10.6194 20.8127C16.101 20.8127 20.5448 16.3689 20.5448 10.8873C20.5448 5.40565 16.101 0.961914 10.6194 0.961914C5.13777 0.961914 0.694031 5.40565 0.694031 10.8873C0.694031 16.3689 5.13777 20.8127 10.6194 20.8127Z" fill="#F7B916"/>
<path d="M35.0224 37.8276C38.6493 37.8276 41.5896 35.9565 41.5896 33.6485C41.5896 31.3404 38.6493 29.4694 35.0224 29.4694C31.3954 29.4694 28.4552 31.3404 28.4552 33.6485C28.4552 35.9565 31.3954 37.8276 35.0224 37.8276Z" fill="#F7B916"/>
<path d="M42.5597 14.1709C43.9776 12.753 44.7985 10.6634 44.4254 8.64849C44.2015 7.37984 43.4552 6.18581 42.3358 5.43954C41.6642 4.99178 40.8433 4.69327 40.0224 4.46939C36.5149 3.49924 32.5597 4.17088 29.5 6.18581C26.6642 8.05148 24.6493 11.0366 21.9627 13.2007C20.3209 14.544 18.4552 15.5888 16.5896 16.5589C14.9478 17.3798 13.306 18.1261 11.5149 18.4992C9.72388 18.8724 7.78358 18.7231 6.21642 17.9022C3.15672 16.2604 2.03731 12.156 3.00746 8.87237C3.97761 5.58879 6.81343 3.05148 9.87313 1.48431" stroke="#333333" stroke-miterlimit="10" stroke-linecap="round" stroke-linejoin="round" stroke-dasharray="3 3"/>
<path d="M18.8284 27.9022C19.6492 24.2455 23.0075 21.6336 26.5149 20.2903" stroke="#333333" stroke-miterlimit="10" stroke-linecap="round" stroke-linejoin="round" stroke-dasharray="3 3"/>
<path d="M28.0821 22.9769L35.0224 33.6485L41.9627 22.9769C42.6343 21.7828 43.0075 20.4395 43.0075 19.0216C43.0075 14.6187 39.4254 11.0366 35.0224 11.0366C30.6194 11.0366 27.0373 14.6187 27.0373 19.0216C27.0373 20.5142 27.4105 21.8575 28.0821 22.9769Z" stroke="#333333" stroke-miterlimit="10" stroke-linecap="round" stroke-linejoin="round"/>
<path d="M35.0224 22.1559C36.7946 22.1559 38.2313 20.7193 38.2313 18.947C38.2313 17.1747 36.7946 15.738 35.0224 15.738C33.2501 15.738 31.8134 17.1747 31.8134 18.947C31.8134 20.7193 33.2501 22.1559 35.0224 22.1559Z" stroke="#333333" stroke-miterlimit="10" stroke-linecap="round" stroke-linejoin="round"/>
<path d="M31.2164 27.8276H10.8433L1.4403 50.2156H49.9478L41.291 27.8276H38.903" stroke="#333333" stroke-miterlimit="10" stroke-linecap="round" stroke-linejoin="round"/>
<path d="M18.9776 28.2753C18.3806 30.4395 18.6791 32.0813 19.7985 34.0216C20.9179 35.9619 22.7836 37.4544 24.9478 38.0514C26.9627 38.6485 29.1269 38.4246 31.2164 38.7231C32.4851 38.947 33.6791 39.3201 34.8731 39.7679C36.4403 40.4395 38.0075 41.4097 38.903 42.9022C40.3209 45.2156 40.0224 48.4246 41.9627 50.2903" stroke="#333333" stroke-miterlimit="10" stroke-linecap="round" stroke-linejoin="round"/>
</g>
<defs>
<clipPath id="clip0">
<rect width="50" height="50" fill="white" transform="translate(0.694031 0.961914)"/>
</clipPath>
</defs>
</svg>
