<svg width="266" height="249" viewBox="0 0 266 249" fill="none" xmlns="http://www.w3.org/2000/svg">
<rect x="69.6007" y="0.308105" width="202.918" height="202.918" rx="12" transform="rotate(15 69.6007 0.308105)" fill="#6FC6AD" fill-opacity="0.1"/>
<path d="M44.2256 106.093L45.484 109.186L44.442 109.61L41.2274 101.708L44.142 100.522C45.0068 100.17 45.7732 100.116 46.4413 100.359C47.1129 100.6 47.5967 101.084 47.8925 101.812C48.2045 102.579 48.2046 103.268 47.8926 103.88C47.5828 104.487 46.981 104.972 46.0873 105.335L44.2256 106.093ZM43.879 105.241L45.7515 104.479C46.3087 104.252 46.6827 103.948 46.8734 103.567C47.0627 103.182 47.0565 102.742 46.8548 102.246C46.6635 101.776 46.3621 101.46 45.9506 101.298C45.5391 101.137 45.0724 101.156 44.5506 101.356L42.6184 102.141L43.879 105.241ZM54.8574 105.374C54.7524 105.281 54.6214 105.094 54.4646 104.812C54.195 105.487 53.7364 105.956 53.0887 106.22C52.5098 106.455 51.9678 106.486 51.4626 106.312C50.9596 106.133 50.6058 105.792 50.4012 105.289C50.1525 104.677 50.1912 104.109 50.5175 103.584C50.8459 103.054 51.4317 102.617 52.2747 102.275L53.2517 101.877L53.064 101.416C52.9213 101.065 52.703 100.829 52.4092 100.708C52.114 100.584 51.7619 100.604 51.3531 100.771C50.9949 100.916 50.7313 101.129 50.5625 101.409C50.3937 101.688 50.3615 101.956 50.466 102.213L49.4565 102.624C49.3372 102.331 49.3256 102.007 49.4214 101.651C49.5194 101.291 49.7133 100.959 50.0032 100.656C50.2966 100.351 50.6568 100.111 51.0838 99.9378C51.7604 99.6625 52.3597 99.617 52.8816 99.8011C53.402 99.9816 53.7902 100.366 54.046 100.953L55.1455 103.656C55.3648 104.195 55.608 104.596 55.875 104.858L55.9103 104.945L54.8574 105.374ZM52.8798 105.286C53.1946 105.158 53.46 104.955 53.676 104.678C53.892 104.4 54.0104 104.105 54.031 103.793L53.5409 102.588L52.7539 102.908C51.5237 103.409 51.055 104.019 51.3479 104.739C51.4759 105.054 51.681 105.257 51.9629 105.349C52.2449 105.441 52.5506 105.42 52.8798 105.286ZM58.7721 98.8093C58.6603 98.5343 58.467 98.3599 58.1924 98.286C57.9163 98.2086 57.5955 98.2442 57.2301 98.3928C56.8755 98.537 56.6163 98.75 56.4525 99.0317C56.2924 99.3119 56.2631 99.5768 56.3647 99.8265L55.366 100.233C55.1585 99.7225 55.202 99.2178 55.4965 98.7184C55.791 98.2191 56.2585 97.8392 56.8989 97.5787C57.5864 97.299 58.1822 97.2295 58.6865 97.3702C59.1892 97.5073 59.5518 97.849 59.774 98.3954C59.8814 98.6595 59.9005 98.9343 59.831 99.2198C59.7616 99.5053 59.6068 99.7728 59.3667 100.022C60.1448 99.9757 60.6722 100.292 60.9489 100.973C61.1682 101.512 61.1338 102.023 60.8458 102.508C60.5577 102.992 60.0663 103.375 59.3716 103.658C58.695 103.933 58.069 103.996 57.4936 103.846C56.9204 103.691 56.5189 103.331 56.2893 102.767L57.288 102.361C57.4043 102.647 57.631 102.841 57.9682 102.944C58.3075 103.042 58.6671 103.014 59.0471 102.86C59.4306 102.704 59.7039 102.489 59.867 102.216C60.0301 101.943 60.0542 101.666 59.9394 101.383C59.8055 101.054 59.6103 100.859 59.3539 100.799C59.0996 100.734 58.7644 100.786 58.3483 100.955L57.3442 101.364L56.9998 100.517L58.0907 100.073C58.7672 99.777 58.9944 99.3556 58.7721 98.8093ZM66.7155 97.2038C67.0791 98.0975 67.1675 98.9007 66.9809 99.6134C66.7943 100.326 66.3518 100.824 65.6535 101.109C64.9406 101.398 64.2878 101.4 63.695 101.115L64.8452 103.942L63.8411 104.351L60.5339 96.2203L61.4511 95.8471L61.7649 96.4786C61.9677 95.8057 62.4328 95.3213 63.1601 95.0255C63.8656 94.7385 64.531 94.7778 65.1563 95.1433C65.7851 95.5074 66.2924 96.1635 66.678 97.1115L66.7155 97.2038ZM65.6651 97.4982C65.3957 96.8361 65.0419 96.3706 64.6037 96.1019C64.1654 95.8331 63.7003 95.7989 63.2082 95.999C62.6003 96.2463 62.254 96.7013 62.1694 97.3641L63.3108 100.17C63.829 100.583 64.3974 100.664 65.0161 100.413C65.4974 100.217 65.8018 99.8716 65.9295 99.3769C66.0594 98.8771 65.9712 98.2509 65.6651 97.4982ZM72.7899 98.0791C72.6849 97.9869 72.554 97.7998 72.3971 97.5178C72.1276 98.1925 71.669 98.6616 71.0213 98.9251C70.4423 99.1606 69.9003 99.1913 69.3951 99.0172C68.8921 98.8381 68.5383 98.497 68.3337 97.9941C68.085 97.3826 68.1238 96.8144 68.45 96.2895C68.7784 95.7595 69.3642 95.323 70.2073 94.9801L71.1842 94.5827L70.9966 94.1213C70.8538 93.7704 70.6355 93.5344 70.3418 93.4136C70.0465 93.2891 69.6945 93.31 69.2856 93.4763C68.9274 93.622 68.6639 93.8346 68.495 94.1142C68.3262 94.3937 68.294 94.6619 68.3985 94.9188L67.389 95.3294C67.2698 95.0364 67.2581 94.7122 67.354 94.3569C67.452 93.9965 67.6459 93.6646 67.9357 93.3612C68.2292 93.0563 68.5894 92.817 69.0164 92.6433C69.693 92.3681 70.2923 92.3225 70.8141 92.5066C71.3346 92.6871 71.7227 93.0711 71.9786 93.6586L73.078 96.3615C73.2973 96.9007 73.5405 97.3015 73.8075 97.564L73.8429 97.6508L72.7899 98.0791ZM70.8124 97.9916C71.1272 97.8636 71.3926 97.6607 71.6086 97.3831C71.8246 97.1055 71.9429 96.8106 71.9636 96.4986L71.4734 95.2937L70.6864 95.6138C69.4562 96.1142 68.9875 96.7245 69.2804 97.4445C69.4085 97.7593 69.6135 97.9627 69.8955 98.0546C70.1775 98.1466 70.4831 98.1256 70.8124 97.9916ZM75.5367 90.5097C76.2749 90.2094 76.9655 90.2174 77.6086 90.5335C78.2538 90.8446 78.7405 91.4035 79.0688 92.2104L79.1063 92.3027C79.3315 92.8563 79.4264 93.3954 79.391 93.9201C79.3541 94.4411 79.1842 94.9046 78.8812 95.3104C78.5803 95.7111 78.1693 96.0174 77.6483 96.2294C76.8595 96.5502 76.1178 96.5462 75.4231 96.2173C74.727 95.8848 74.1986 95.2753 73.838 94.3888L73.6393 93.9003C73.1374 92.6664 72.9665 91.5931 73.1266 90.6804C73.2902 89.7662 73.7866 89.0477 74.6155 88.525C75.0853 88.2284 75.3824 87.979 75.5067 87.7766C75.631 87.5742 75.6468 87.3591 75.5541 87.1311L76.379 86.7955C76.563 87.2478 76.6034 87.6425 76.5002 87.9797C76.4006 88.3154 76.1478 88.627 75.7418 88.9144L75.0612 89.3874C74.5216 89.7713 74.1701 90.1927 74.0066 90.6513C73.8453 91.1049 73.8328 91.6287 73.969 92.2227C74.2507 91.3913 74.7733 90.8202 75.5367 90.5097ZM75.6769 91.4141C75.1848 91.6143 74.8618 91.9397 74.7077 92.3904C74.5522 92.8374 74.5936 93.354 74.8321 93.9401L74.8674 94.027C75.1235 94.6566 75.4713 95.097 75.9109 95.3484C76.3527 95.5946 76.8214 95.6169 77.3171 95.4152C77.8165 95.2121 78.1358 94.8672 78.2751 94.3803C78.4145 93.8935 78.3399 93.2955 78.0514 92.5863C77.8262 92.0327 77.4994 91.6491 77.0709 91.4354C76.6445 91.2166 76.1799 91.2096 75.6769 91.4141ZM79.8721 91.7129C79.6381 91.1375 79.5398 90.5745 79.5772 90.0237C79.6182 89.4715 79.7888 88.9888 80.0889 88.5758C80.3926 88.1612 80.8031 87.8488 81.3206 87.6383C82.1202 87.313 82.8787 87.3271 83.596 87.6805C84.3169 88.0325 84.8643 88.668 85.2381 89.5871L85.2668 89.6576C85.4994 90.2293 85.598 90.788 85.5627 91.3337C85.5296 91.8743 85.3601 92.3544 85.0543 92.774C84.7521 93.1921 84.3368 93.5087 83.8085 93.7235C83.0125 94.0474 82.254 94.0333 81.5331 93.6813C80.8158 93.3279 80.2717 92.6952 79.9008 91.7834L79.8721 91.7129ZM80.9302 91.4216C81.1951 92.0729 81.558 92.5347 82.0187 92.8069C82.4831 93.0777 82.9686 93.11 83.4752 92.904C83.9853 92.6965 84.3096 92.3326 84.4481 91.8124C84.585 91.2886 84.507 90.6667 84.2141 89.9466C83.9521 89.3026 83.5864 88.8441 83.117 88.5712C82.6496 88.2932 82.1627 88.2572 81.6561 88.4633C81.1604 88.6649 80.8408 89.0247 80.6973 89.5428C80.5538 90.0608 80.6314 90.6871 80.9302 91.4216ZM89.8806 85.2316L87.9104 86.0331L89.968 91.0915L88.9639 91.5L86.9063 86.4415L84.9741 87.2275L84.6429 86.4133L89.5494 84.4175L89.8806 85.2316ZM97.3495 88.0889L96.3399 88.4996L95.4745 86.372C95.0802 86.6674 94.6514 86.9092 94.1883 87.0976C93.4537 87.3964 92.8164 87.4364 92.2761 87.2176C91.7395 86.9973 91.3263 86.5412 91.0365 85.8495L90.3233 84.0964L91.3274 83.6879L92.0538 85.4736C92.4281 86.3419 93.0277 86.6082 93.8527 86.2726C94.3158 86.0842 94.7446 85.8424 95.1389 85.547L93.9511 82.627L94.9607 82.2164L97.3495 88.0889ZM100.372 80.0152L101.376 79.6068L103.765 85.4794L102.761 85.8878L101.019 81.6055L100.052 86.9895L99.0483 87.3979L96.6595 81.5253L97.6636 81.1169L99.4077 85.4046L100.372 80.0152ZM106.188 81.5775L105.455 81.8756L106.473 84.3777L105.464 84.7883L103.075 78.9157L104.084 78.5051L105.095 80.9909L105.752 80.7238L106.717 77.4343L107.932 76.9398L106.757 80.707L110.517 82.7329L109.241 83.2517L106.188 81.5775Z" fill="#6FC6AD"/>
<path d="M0.661011 80.5003V236.354C0.661011 242.981 6.0336 248.354 12.661 248.354H191.579C198.206 248.354 203.579 242.981 203.579 236.354V57.436C203.579 50.8086 198.206 45.436 191.579 45.436L38.6588 45.436" stroke="#333333"/>
<path d="M26.6912 80.5973H0.647949L38.6912 45.4419V68.5973C38.6912 75.2247 33.3187 80.5973 26.6912 80.5973Z" fill="#F7B916" stroke="#333333" stroke-linecap="round" stroke-linejoin="round"/>
<g clip-path="url(#clip0)">
<path d="M102.47 164.896L107.37 167.696C109.37 168.796 110.07 171.396 108.97 173.396C107.87 175.396 105.27 176.096 103.27 174.996L97.97 171.996L67.97 154.996L59.77 149.596L67.57 127.996L95.57 129.996L114.57 142.896L133.07 153.396C133.87 153.796 134.47 154.496 134.77 155.296C135.27 156.496 135.27 157.896 134.67 159.096C133.57 161.096 130.97 161.796 128.97 160.696L110.47 150.196" fill="white"/>
<path d="M102.47 164.896L107.37 167.696C109.37 168.796 110.07 171.396 108.97 173.396C107.87 175.396 105.27 176.096 103.27 174.996L97.97 171.996L67.97 154.996L59.77 149.596L67.57 127.996L95.57 129.996L114.57 142.896L133.07 153.396C133.87 153.796 134.47 154.496 134.77 155.296C135.27 156.496 135.27 157.896 134.67 159.096C133.57 161.096 130.97 161.796 128.97 160.696L110.47 150.196" stroke="#333333" stroke-miterlimit="10" stroke-linecap="round" stroke-linejoin="round"/>
<path d="M57.07 150.896L52.17 149.096C51.07 148.696 50.47 147.496 50.87 146.396L59.07 123.896C59.47 122.796 60.67 122.196 61.77 122.596L66.67 124.396C67.77 124.796 68.37 125.996 67.97 127.096L59.77 149.596C59.37 150.696 58.17 151.296 57.07 150.896Z" fill="#6FC6AD" stroke="#333333" stroke-miterlimit="10" stroke-linecap="round" stroke-linejoin="round"/>
<path d="M56.67 146.296C57.6089 146.296 58.37 145.534 58.37 144.596C58.37 143.657 57.6089 142.896 56.67 142.896C55.7311 142.896 54.97 143.657 54.97 144.596C54.97 145.534 55.7311 146.296 56.67 146.296Z" fill="white" stroke="#333333" stroke-miterlimit="10" stroke-linecap="round" stroke-linejoin="round"/>
<path d="M152.17 148.795L147.37 150.695C146.27 151.095 145.07 150.595 144.57 149.495L135.67 127.395C135.27 126.295 135.77 125.095 136.87 124.595L141.67 122.695C142.77 122.295 143.97 122.795 144.47 123.895L153.37 146.095C153.77 147.195 153.27 148.395 152.17 148.795Z" fill="#F7B916" stroke="#333333" stroke-miterlimit="10" stroke-linecap="round" stroke-linejoin="round"/>
<path d="M147.67 146.195C148.609 146.195 149.37 145.434 149.37 144.495C149.37 143.557 148.609 142.795 147.67 142.795C146.731 142.795 145.97 143.557 145.97 144.495C145.97 145.434 146.731 146.195 147.67 146.195Z" fill="white" stroke="#333333" stroke-miterlimit="10" stroke-linecap="round" stroke-linejoin="round"/>
<path d="M110.77 150.295L124.77 158.195C126.77 159.295 127.47 161.895 126.37 163.895C125.27 165.895 122.67 166.595 120.67 165.495L106.67 157.595" fill="white"/>
<path d="M110.77 150.295L124.77 158.195C126.77 159.295 127.47 161.895 126.37 163.895C125.27 165.895 122.67 166.595 120.67 165.495L106.67 157.595" stroke="#333333" stroke-miterlimit="10" stroke-linecap="round" stroke-linejoin="round"/>
<path d="M133.47 153.596L144.57 149.596L135.57 127.696L115.57 125.096C110.07 124.396 104.37 125.396 99.47 128.096L82.57 137.396C80.37 138.596 80.67 141.796 83.07 142.596L84.77 143.096C86.07 143.496 87.47 143.396 88.77 142.796L97.47 138.496C100.27 137.096 103.67 137.096 106.47 138.596L114.67 142.896L133.47 153.596Z" fill="white" stroke="#333333" stroke-miterlimit="10" stroke-linecap="round" stroke-linejoin="round"/>
<path d="M106.57 157.596L116.27 163.096C118.27 164.196 118.97 166.796 117.87 168.796C116.77 170.796 114.17 171.496 112.17 170.396L102.47 164.896" fill="white"/>
<path d="M106.57 157.596L116.27 163.096C118.27 164.196 118.97 166.796 117.87 168.796C116.77 170.796 114.17 171.496 112.17 170.396L102.47 164.896" stroke="#333333" stroke-miterlimit="10" stroke-linecap="round" stroke-linejoin="round"/>
<path d="M76.87 164.696C74.87 163.496 74.27 160.896 75.47 158.996L82.27 147.996C83.47 145.996 86.07 145.396 87.97 146.596C89.97 147.796 90.57 150.396 89.37 152.296L82.57 163.296C81.47 165.296 78.87 165.896 76.87 164.696Z" fill="white" stroke="#333333" stroke-miterlimit="10" stroke-linecap="round" stroke-linejoin="round"/>
<path d="M69.67 160.596C67.67 159.396 67.07 156.796 68.27 154.896L71.57 149.596C72.77 147.596 75.37 146.996 77.27 148.196C79.27 149.396 79.87 151.996 78.67 153.896L75.37 159.196C74.17 161.196 71.57 161.796 69.67 160.596Z" fill="white" stroke="#333333" stroke-miterlimit="10" stroke-linecap="round" stroke-linejoin="round"/>
<path d="M83.97 169.196C81.97 167.996 81.37 165.396 82.57 163.496L87.57 155.396C88.77 153.396 91.37 152.796 93.27 153.996C95.27 155.196 95.87 157.796 94.67 159.696L89.67 167.796C88.47 169.796 85.97 170.396 83.97 169.196Z" fill="white" stroke="#333333" stroke-miterlimit="10" stroke-linecap="round" stroke-linejoin="round"/>
<path d="M90.87 173.996C88.87 172.796 88.27 170.196 89.47 168.296L92.67 163.096C93.87 161.096 96.47 160.496 98.37 161.696C100.37 162.896 100.97 165.496 99.77 167.396L96.57 172.596C95.37 174.596 92.87 175.196 90.87 173.996Z" fill="white" stroke="#333333" stroke-miterlimit="10" stroke-linecap="round" stroke-linejoin="round"/>
</g>
<rect x="12.0611" y="106.181" width="110.777" height="22.7555" rx="11.3778" transform="rotate(-22.1352 12.0611 106.181)" fill="white" stroke="#333333"/>
<rect x="80.3014" y="56.5292" width="110.777" height="22.7555" rx="11.3778" transform="rotate(12.3114 80.3014 56.5292)" fill="white" stroke="#333333"/>
<path d="M28.1296 111.928L37.1236 108.269" stroke="#333333" stroke-linecap="round" stroke-linejoin="round"/>
<path d="M30.7974 105.602L34.4559 114.596" stroke="#333333" stroke-linecap="round" stroke-linejoin="round"/>
<path d="M90.3014 70.3574L99.7877 72.4277" stroke="#333333" stroke-linecap="round" stroke-linejoin="round"/>
<path d="M96.0797 66.6499L94.0094 76.1362" stroke="#333333" stroke-linecap="round" stroke-linejoin="round"/>
<rect x="21.0487" y="171.986" width="133.51" height="22.7555" rx="11.3778" transform="rotate(13.3435 21.0487 171.986)" fill="white" stroke="#333333"/>
<path d="M30.7982 185.992L40.2457 188.233" stroke="#333333" stroke-linecap="round" stroke-linejoin="round"/>
<path d="M36.6423 182.388L34.4015 191.836" stroke="#333333" stroke-linecap="round" stroke-linejoin="round"/>
<path d="M52.4515 191.35L51.8091 194.058L50.897 193.842L52.5377 186.924L55.089 187.53C55.846 187.709 56.3924 188.043 56.7284 188.531C57.0675 189.019 57.1615 189.582 57.0105 190.218C56.8513 190.89 56.5178 191.358 56.0102 191.622C55.5064 191.884 54.8634 191.922 54.0811 191.737L52.4515 191.35ZM52.6284 190.604L54.2675 190.993C54.7553 191.109 55.156 191.083 55.4699 190.917C55.7844 190.747 55.9932 190.446 56.0961 190.012C56.1938 189.6 56.142 189.24 55.9409 188.931C55.7398 188.622 55.4139 188.41 54.9632 188.293L53.2719 187.891L52.6284 190.604ZM60.0141 196.004C59.9875 195.891 59.9891 195.701 60.0191 195.433C59.5098 195.761 58.9717 195.857 58.4047 195.723C57.898 195.603 57.5153 195.361 57.2567 194.999C57.0019 194.634 56.9268 194.232 57.0312 193.791C57.1582 193.256 57.4593 192.889 57.9346 192.691C58.4138 192.49 59.0224 192.477 59.7604 192.652L60.6156 192.855L60.7114 192.451C60.7842 192.144 60.7502 191.878 60.6093 191.654C60.4692 191.427 60.2202 191.271 59.8623 191.186C59.5487 191.112 59.2671 191.128 59.0173 191.236C58.7675 191.344 58.6159 191.511 58.5626 191.736L57.6789 191.526C57.7398 191.27 57.8886 191.044 58.1255 190.849C58.3663 190.652 58.6585 190.521 59.0019 190.455C59.3485 190.39 59.7087 190.402 60.0825 190.49C60.6747 190.631 61.1035 190.89 61.3686 191.267C61.6344 191.641 61.7121 192.09 61.6016 192.612L61.0404 194.978C60.9284 195.45 60.8996 195.84 60.9538 196.147L60.9358 196.223L60.0141 196.004ZM58.7145 194.989C58.99 195.054 59.2682 195.045 59.5491 194.961C59.8299 194.877 60.0528 194.734 60.2178 194.532L60.468 193.477L59.7791 193.314C58.7022 193.059 58.089 193.246 57.9395 193.876C57.8741 194.152 57.9149 194.389 58.0618 194.588C58.2087 194.787 58.4262 194.92 58.7145 194.989ZM65.8456 193.443C65.9027 193.202 65.856 192.991 65.7053 192.808C65.5554 192.622 65.3205 192.491 65.0006 192.415C64.6902 192.341 64.4113 192.36 64.164 192.472C63.9198 192.585 63.7718 192.751 63.7199 192.969L62.8458 192.762C62.9517 192.315 63.2253 191.994 63.6667 191.797C64.108 191.601 64.609 191.569 65.1696 191.702C65.7714 191.845 66.2094 192.086 66.4835 192.425C66.7584 192.761 66.8391 193.169 66.7257 193.647C66.6709 193.878 66.5508 194.074 66.3657 194.234C66.1805 194.394 65.9461 194.501 65.6625 194.554C66.213 194.899 66.4177 195.369 66.2764 195.964C66.1645 196.436 65.8937 196.767 65.4641 196.956C65.0345 197.145 64.5157 197.167 63.9075 197.023C63.3152 196.883 62.8601 196.623 62.542 196.243C62.2279 195.86 62.1294 195.422 62.2466 194.928L63.1208 195.135C63.0614 195.386 63.1212 195.627 63.3001 195.86C63.4829 196.091 63.7406 196.246 64.0732 196.325C64.4089 196.404 64.6981 196.391 64.9408 196.285C65.1835 196.178 65.3341 196.002 65.3927 195.755C65.4611 195.466 65.4228 195.24 65.2779 195.075C65.137 194.908 64.8843 194.781 64.5201 194.694L63.6412 194.486L63.817 193.745L64.7719 193.971C65.3743 194.098 65.7322 193.921 65.8456 193.443ZM72.0126 196.196C71.8271 196.978 71.4986 197.566 71.0273 197.959C70.5559 198.353 70.0146 198.477 69.4033 198.332C68.7793 198.184 68.3354 197.869 68.0714 197.389L67.4842 199.864L66.6053 199.655L68.2934 192.538L69.0963 192.729L69.0038 193.309C69.4669 192.951 70.0168 192.847 70.6534 192.998C71.2711 193.144 71.7036 193.493 71.9511 194.043C72.2017 194.594 72.2286 195.285 72.0318 196.115L72.0126 196.196ZM71.1574 195.887C71.2948 195.308 71.2799 194.821 71.1125 194.426C70.945 194.032 70.646 193.784 70.2152 193.682C69.6831 193.555 69.228 193.697 68.85 194.106L68.2674 196.562C68.4191 197.093 68.7658 197.423 69.3074 197.551C69.7287 197.651 70.1023 197.564 70.4282 197.29C70.758 197.014 71.0011 196.546 71.1574 195.887ZM75.7114 199.728C75.6848 199.614 75.6864 199.424 75.7163 199.157C75.2071 199.484 74.669 199.581 74.102 199.446C73.5953 199.326 73.2126 199.085 72.9539 198.722C72.6992 198.357 72.6241 197.955 72.7285 197.515C72.8555 196.979 73.1566 196.613 73.6319 196.414C74.1111 196.213 74.7197 196.2 75.4577 196.375L76.3129 196.578L76.4087 196.174C76.4815 195.867 76.4475 195.602 76.3066 195.377C76.1665 195.15 75.9175 194.994 75.5596 194.909C75.246 194.835 74.9643 194.852 74.7146 194.96C74.4648 195.068 74.3132 195.234 74.2599 195.459L73.3762 195.249C73.4371 194.993 73.5859 194.767 73.8228 194.573C74.0636 194.375 74.3557 194.244 74.6992 194.178C75.0458 194.113 75.406 194.125 75.7797 194.214C76.372 194.354 76.8007 194.613 77.0659 194.99C77.3317 195.365 77.4094 195.813 77.2989 196.335L76.7377 198.701C76.6257 199.173 76.5969 199.563 76.6511 199.87L76.6331 199.946L75.7114 199.728ZM74.4117 198.712C74.6873 198.777 74.9655 198.768 75.2464 198.684C75.5272 198.6 75.7501 198.457 75.9151 198.255L76.1652 197.201L75.4764 197.037C74.3995 196.782 73.7863 196.969 73.6368 197.6C73.5714 197.875 73.6122 198.112 73.7591 198.311C73.906 198.51 74.1235 198.643 74.4117 198.712ZM81.2365 195.919C81.8826 196.073 82.3475 196.412 82.6309 196.938C82.9184 197.461 82.9783 198.076 82.8108 198.782L82.7916 198.863C82.6767 199.347 82.4803 199.759 82.2025 200.098C81.9255 200.434 81.586 200.666 81.1841 200.795C80.7861 200.921 80.3591 200.93 79.903 200.822C79.2125 200.658 78.7111 200.297 78.3988 199.738C78.0872 199.175 78.0235 198.506 78.2075 197.73L78.309 197.303C78.5651 196.223 78.9683 195.412 79.5184 194.87C80.0716 194.328 80.7559 194.081 81.5713 194.127C82.0335 194.153 82.3558 194.127 82.538 194.05C82.7202 193.973 82.835 193.835 82.8824 193.635L83.6045 193.806C83.5106 194.202 83.3471 194.49 83.114 194.669C82.884 194.848 82.5618 194.937 82.1472 194.936L81.4566 194.928C80.9047 194.927 80.4624 195.043 80.1296 195.276C79.8008 195.505 79.539 195.855 79.3441 196.324C79.9374 195.896 80.5682 195.761 81.2365 195.919ZM80.8942 196.601C80.4634 196.499 80.0868 196.563 79.7643 196.795C79.4425 197.023 79.2208 197.393 79.0991 197.907L79.0811 197.983C78.9504 198.534 78.9734 199.001 79.1501 199.384C79.3308 199.765 79.6381 200.007 80.072 200.11C80.5091 200.213 80.8927 200.134 81.2227 199.871C81.5527 199.608 81.7913 199.166 81.9386 198.545C82.0535 198.06 82.0173 197.642 81.8298 197.29C81.6463 196.935 81.3344 196.705 80.8942 196.601ZM83.5966 198.833C83.716 198.329 83.9217 197.9 84.2135 197.544C84.5084 197.189 84.8576 196.944 85.261 196.809C85.6676 196.674 86.0973 196.661 86.5503 196.768C87.2502 196.934 87.7581 197.311 88.0739 197.898C88.3929 198.485 88.457 199.181 88.2662 199.986L88.2515 200.047C88.1328 200.548 87.9296 200.975 87.6417 201.328C87.3577 201.679 87.0105 201.923 86.6 202.059C86.1927 202.197 85.7578 202.211 85.2954 202.101C84.5986 201.936 84.0907 201.56 83.7717 200.972C83.4559 200.385 83.3926 199.693 83.5819 198.895L83.5966 198.833ZM84.4555 199.147C84.3203 199.717 84.3432 200.206 84.5242 200.614C84.7083 201.022 85.0221 201.279 85.4655 201.384C85.9121 201.49 86.3082 201.4 86.6537 201.114C87 200.824 87.2479 200.365 87.3974 199.734C87.5311 199.171 87.5047 198.683 87.3181 198.27C87.1354 197.856 86.8224 197.596 86.379 197.491C85.945 197.388 85.5541 197.477 85.2062 197.759C84.8582 198.041 84.608 198.504 84.4555 199.147ZM93.5232 199.275L91.7986 198.866L90.7483 203.294L89.8694 203.086L90.9196 198.658L89.2283 198.257L89.3973 197.544L93.6922 198.563L93.5232 199.275ZM97.2097 204.827L96.326 204.617L96.7677 202.755C96.3573 202.765 95.9493 202.721 95.5439 202.625C94.9009 202.473 94.4491 202.191 94.1883 201.782C93.9307 201.373 93.8708 200.863 94.0088 200.254L94.3727 198.719L95.2517 198.928L94.8809 200.491C94.715 201.261 94.993 201.732 95.7152 201.903C96.1206 201.999 96.5286 202.042 96.939 202.033L97.5453 199.477L98.429 199.686L97.2097 204.827ZM103.166 200.81L104.045 201.018L102.825 206.159L101.946 205.95L102.836 202.202L99.5757 205.388L98.6967 205.18L99.916 200.039L100.795 200.247L99.9047 204.001L103.166 200.81ZM106.357 204.683L105.716 204.531L105.196 206.721L104.312 206.512L105.532 201.371L106.415 201.581L105.899 203.757L106.474 203.893L108.72 202.127L109.784 202.38L107.164 204.368L108.736 207.561L107.619 207.296L106.357 204.683ZM114.812 205.745C114.083 205.335 113.578 204.924 113.298 204.513C113.021 204.099 112.94 203.652 113.054 203.17C113.183 202.625 113.507 202.227 114.025 201.975C114.547 201.721 115.156 201.677 115.853 201.842C116.328 201.955 116.729 202.147 117.056 202.418C117.386 202.691 117.614 203.012 117.741 203.384C117.87 203.755 117.889 204.133 117.798 204.516L116.881 204.299C116.98 203.881 116.925 203.521 116.715 203.221C116.506 202.917 116.16 202.707 115.675 202.593C115.225 202.486 114.85 202.502 114.549 202.642C114.252 202.779 114.062 203.023 113.979 203.375C113.912 203.656 113.974 203.924 114.165 204.176C114.36 204.427 114.725 204.701 115.26 204.998C115.798 205.296 116.205 205.582 116.482 205.855C116.762 206.126 116.949 206.409 117.043 206.706C117.14 207.003 117.146 207.328 117.063 207.679C116.93 208.24 116.605 208.638 116.087 208.873C115.571 209.105 114.946 209.134 114.215 208.961C113.74 208.848 113.318 208.652 112.949 208.374C112.58 208.093 112.322 207.767 112.172 207.397C112.025 207.028 112 206.642 112.095 206.24L113.012 206.457C112.913 206.875 112.988 207.243 113.237 207.56C113.491 207.874 113.875 208.092 114.392 208.215C114.873 208.329 115.265 208.318 115.568 208.183C115.872 208.047 116.063 207.81 116.144 207.471C116.224 207.132 116.167 206.843 115.973 206.603C115.78 206.359 115.393 206.074 114.812 205.745ZM120.855 210.435C120.829 210.322 120.83 210.132 120.86 209.864C120.351 210.192 119.813 210.288 119.246 210.154C118.739 210.034 118.357 209.792 118.098 209.43C117.843 209.065 117.768 208.663 117.872 208.222C117.999 207.687 118.301 207.32 118.776 207.122C119.255 206.921 119.864 206.908 120.602 207.083L121.457 207.286L121.553 206.882C121.625 206.575 121.591 206.309 121.451 206.085C121.31 205.858 121.061 205.702 120.704 205.617C120.39 205.543 120.108 205.559 119.859 205.667C119.609 205.775 119.457 205.942 119.404 206.167L118.52 205.957C118.581 205.701 118.73 205.475 118.967 205.28C119.208 205.083 119.5 204.952 119.843 204.886C120.19 204.821 120.55 204.833 120.924 204.921C121.516 205.062 121.945 205.321 122.21 205.698C122.476 206.072 122.553 206.521 122.443 207.043L121.882 209.409C121.77 209.881 121.741 210.271 121.795 210.578L121.777 210.654L120.855 210.435ZM119.556 209.42C119.831 209.485 120.109 209.476 120.39 209.392C120.671 209.308 120.894 209.165 121.059 208.963L121.309 207.908L120.62 207.745C119.543 207.49 118.93 207.677 118.781 208.307C118.715 208.583 118.756 208.82 118.903 209.019C119.05 209.218 119.267 209.351 119.556 209.42ZM126.148 211.691C126.121 211.577 126.123 211.387 126.153 211.12C125.644 211.447 125.106 211.544 124.539 211.409C124.032 211.289 123.649 211.048 123.391 210.685C123.136 210.321 123.061 209.918 123.165 209.478C123.292 208.942 123.593 208.576 124.068 208.377C124.548 208.176 125.156 208.164 125.894 208.339L126.749 208.541L126.845 208.138C126.918 207.83 126.884 207.565 126.743 207.341C126.603 207.113 126.354 206.957 125.996 206.872C125.683 206.798 125.401 206.815 125.151 206.923C124.901 207.031 124.75 207.197 124.696 207.422L123.813 207.213C123.874 206.956 124.023 206.73 124.259 206.536C124.5 206.338 124.792 206.207 125.136 206.141C125.482 206.076 125.843 206.088 126.216 206.177C126.809 206.317 127.237 206.576 127.502 206.954C127.768 207.328 127.846 207.776 127.735 208.299L127.174 210.665C127.062 211.136 127.033 211.526 127.088 211.833L127.07 211.909L126.148 211.691ZM124.848 210.675C125.124 210.74 125.402 210.731 125.683 210.647C125.964 210.563 126.187 210.42 126.352 210.219L126.602 209.164L125.913 209C124.836 208.745 124.223 208.932 124.073 209.563C124.008 209.838 124.049 210.075 124.196 210.274C124.343 210.473 124.56 210.607 124.848 210.675ZM131.174 209.626C130.445 209.216 129.94 208.805 129.66 208.394C129.383 207.98 129.302 207.533 129.416 207.051C129.546 206.506 129.869 206.108 130.387 205.856C130.909 205.602 131.519 205.558 132.215 205.723C132.691 205.836 133.092 206.028 133.419 206.299C133.749 206.572 133.977 206.893 134.103 207.265C134.232 207.636 134.251 208.014 134.161 208.397L133.244 208.18C133.343 207.762 133.287 207.402 133.078 207.102C132.869 206.798 132.522 206.588 132.037 206.474C131.588 206.367 131.212 206.383 130.912 206.523C130.615 206.66 130.425 206.904 130.341 207.256C130.275 207.537 130.337 207.805 130.528 208.058C130.722 208.308 131.087 208.582 131.622 208.879C132.161 209.177 132.568 209.463 132.844 209.736C133.125 210.007 133.312 210.29 133.405 210.587C133.502 210.884 133.509 211.209 133.425 211.56C133.292 212.121 132.967 212.519 132.45 212.754C131.933 212.986 131.309 213.015 130.577 212.842C130.102 212.729 129.68 212.534 129.311 212.255C128.943 211.974 128.684 211.648 128.534 211.278C128.388 210.909 128.362 210.523 128.457 210.121L129.374 210.338C129.275 210.756 129.35 211.124 129.6 211.441C129.853 211.755 130.238 211.973 130.754 212.096C131.235 212.21 131.628 212.199 131.931 212.064C132.234 211.928 132.426 211.691 132.506 211.352C132.587 211.013 132.53 210.724 132.336 210.484C132.143 210.24 131.755 209.955 131.174 209.626Z" fill="#6FC6AD"/>
<path d="M46.8987 107.648L44.3583 101.008L46.529 100.177C47.2496 99.9015 47.8478 99.8434 48.3235 100.003C48.8024 100.161 49.1534 100.532 49.3768 101.116C49.4954 101.426 49.5125 101.735 49.4281 102.043C49.3425 102.347 49.1727 102.623 48.9187 102.87C49.3158 102.833 49.6718 102.917 49.9867 103.12C50.3035 103.32 50.5364 103.614 50.6853 104.003C50.9133 104.599 50.8993 105.141 50.6435 105.629C50.3877 106.118 49.9071 106.497 49.2017 106.767L46.8987 107.648ZM46.5861 104.207L47.5004 106.597L48.946 106.044C49.3534 105.888 49.634 105.66 49.7879 105.361C49.9436 105.057 49.9505 104.72 49.8086 104.349C49.5027 103.549 48.915 103.316 48.0454 103.649L46.5861 104.207ZM46.3174 103.505L47.6399 102.999C48.023 102.852 48.2919 102.639 48.4466 102.361C48.6044 102.081 48.6205 101.777 48.4949 101.448C48.3553 101.083 48.1477 100.86 47.8721 100.777C47.5953 100.691 47.2395 100.731 46.8047 100.898L45.5096 101.393L46.3174 103.505ZM54.6681 104.78C53.9992 105.036 53.3713 105.025 52.7842 104.748C52.196 104.467 51.7611 103.959 51.4796 103.224L51.4203 103.068C51.233 102.579 51.1588 102.107 51.1977 101.653C51.2385 101.195 51.3848 100.794 51.6367 100.45C51.8904 100.102 52.2133 99.8531 52.6055 99.703C53.247 99.4576 53.8265 99.4781 54.3439 99.7646C54.8613 100.051 55.2706 100.588 55.5719 101.376L55.7062 101.727L52.3634 103.006C52.5617 103.487 52.8537 103.827 53.2395 104.025C53.6271 104.218 54.0307 104.234 54.4502 104.074C54.7482 103.96 54.9773 103.802 55.1375 103.602C55.2977 103.401 55.4169 103.171 55.4952 102.911L56.1641 103.115C55.9937 103.908 55.495 104.463 54.6681 104.78ZM52.8707 100.396C52.5302 100.526 52.2921 100.76 52.1565 101.098C52.0196 101.433 52.0093 101.834 52.1256 102.302L54.5973 101.356L54.5729 101.292C54.3846 100.873 54.1423 100.586 53.846 100.431C53.5485 100.273 53.2234 100.261 52.8707 100.396ZM57.9247 98.0966C58.5449 97.8593 59.1202 97.878 59.6504 98.1526C60.1826 98.423 60.5784 98.8972 60.8377 99.5752L60.8674 99.6527C61.0454 100.118 61.115 100.569 61.0764 101.005C61.0366 101.439 60.887 101.822 60.6274 102.155C60.3698 102.483 60.022 102.731 59.5842 102.899C58.9215 103.152 58.3035 103.136 57.7305 102.85C57.1563 102.561 56.7268 102.044 56.4418 101.299L56.2847 100.888C55.8881 99.8517 55.7644 98.9545 55.9137 98.1968C56.066 97.438 56.492 96.8481 57.1918 96.427C57.5884 96.1881 57.8402 95.9855 57.9473 95.819C58.0544 95.6526 58.0713 95.4736 57.998 95.282L58.6912 95.0168C58.8366 95.3969 58.8634 95.7265 58.7715 96.0056C58.6827 96.2835 58.4666 96.5387 58.1233 96.7711L57.5481 97.1533C57.0918 97.4638 56.7916 97.8087 56.6474 98.188C56.5051 98.5631 56.4855 98.9992 56.5887 99.4965C56.8379 98.8087 57.2832 98.342 57.9247 98.0966ZM58.0257 98.8526C57.6122 99.0108 57.3374 99.2763 57.2012 99.649C57.0638 100.019 57.0894 100.45 57.2778 100.942L57.3057 101.015C57.5081 101.544 57.7902 101.917 58.1521 102.134C58.5159 102.347 58.906 102.374 59.3225 102.215C59.7421 102.054 60.0141 101.772 60.1387 101.369C60.2633 100.966 60.2116 100.466 59.9836 99.8706C59.8056 99.4054 59.54 99.0801 59.1867 98.8946C58.8353 98.7049 58.4483 98.6909 58.0257 98.8526ZM63.5089 98.4539L61.2834 99.3053L61.02 98.6167L63.2455 97.7652L63.5089 98.4539ZM67.0325 99.2597C67.3334 99.1445 67.5615 98.9527 67.7167 98.6842C67.8719 98.4157 67.9093 98.14 67.829 97.8571L68.627 97.5517C68.72 97.8403 68.7257 98.1466 68.644 98.4706C68.5623 98.7946 68.4001 99.0902 68.1572 99.3574C67.9175 99.6234 67.6304 99.8204 67.2959 99.9483C66.624 100.205 66.0034 100.187 65.4342 99.8921C64.8668 99.5934 64.4342 99.0548 64.1364 98.2765L64.0823 98.1351C63.8985 97.6548 63.8233 97.1939 63.8565 96.7525C63.8898 96.311 64.0311 95.9242 64.2803 95.5918C64.5326 95.2583 64.8837 95.0054 65.3337 94.8333C65.887 94.6216 66.4095 94.6116 66.9011 94.8034C67.3958 94.9941 67.7565 95.3492 67.9832 95.8689L67.1851 96.1743C67.0387 95.8644 66.817 95.6494 66.5202 95.5295C66.2252 95.4053 65.9181 95.4043 65.5989 95.5264C65.1702 95.6905 64.8966 95.9729 64.7781 96.3737C64.6615 96.7704 64.7149 97.2605 64.9382 97.8443L64.9993 98.0039C65.2168 98.5724 65.5013 98.9654 65.8529 99.1829C66.2045 99.4005 66.5977 99.426 67.0325 99.2597ZM72.211 93.0908L70.5556 93.7241L72.1817 97.9745L71.338 98.2973L69.7119 94.0469L68.0884 94.6681L67.8267 93.984L71.9493 92.4067L72.211 93.0908ZM75.8543 95.1526L75.5885 91.0144L76.4915 90.6689L76.6869 97.1239C76.6939 98.0622 76.363 98.6594 75.6941 98.9153L75.5293 98.9626L75.1919 99.0238L74.9302 98.3397L75.1652 98.2707C75.451 98.1613 75.6509 98.0187 75.7647 97.8427C75.8817 97.6655 75.9331 97.4036 75.919 97.057L75.914 96.4838L72.2868 92.2776L73.208 91.9252L75.8543 95.1526ZM78.5765 94.7384L78.7305 94.2665C78.896 93.7152 78.8387 93.0052 78.5586 92.1365L77.8824 90.1367L81.061 88.9206L82.6854 93.1664L83.3193 92.9238L84.1376 95.0627L83.294 95.3855L82.7391 93.9352L79.296 95.2526L79.8508 96.7028L79.0072 97.0256L78.1934 94.885L78.5765 94.7384ZM79.5752 94.3563L81.8418 93.4892L80.5157 90.0232L78.9971 90.6042L79.3971 91.8C79.7211 92.8018 79.7805 93.6539 79.5752 94.3563ZM85.8221 87.099L86.6658 86.7762L88.5537 91.7106L87.71 92.0334L86.3333 88.4352L85.4343 92.9041L84.5907 93.2269L82.7028 88.2925L83.5465 87.9697L84.9249 91.5724L85.8221 87.099ZM91.7917 84.8151L93.6796 89.7495L92.8314 90.074L92.0968 88.1541L90.8244 88.6409L90.3961 91.0057L89.484 91.3547L89.941 88.8325C89.5806 88.8379 89.2694 88.7531 89.0072 88.5781C88.7469 88.3988 88.5551 88.1481 88.4318 87.8258C88.2597 87.3758 88.29 86.9495 88.5228 86.5467C88.7544 86.1409 89.1524 85.8284 89.7167 85.609L91.7917 84.8151ZM89.2836 87.5104C89.3755 87.7506 89.532 87.9137 89.7532 87.9999C89.9732 88.083 90.2191 88.0743 90.4908 87.9738L91.8316 87.4609L91.2052 85.8237L89.9921 86.2878C89.679 86.4076 89.4593 86.5805 89.3332 86.8065C89.2059 87.0295 89.1894 87.2641 89.2836 87.5104Z" fill="#6FC6AD"/>
<path d="M110.474 70.6708L111.385 70.8899L109.724 77.8025L108.813 77.5835L110.093 72.2566L105.409 76.7656L104.493 76.5455L106.153 69.6328L107.07 69.853L105.79 75.1799L110.474 70.6708ZM115.445 79.177L114.567 78.966L115.094 76.7726L112.735 76.2057L112.208 78.3991L111.324 78.1869L112.559 73.0499L113.442 73.2621L112.907 75.4887L115.266 76.0557L115.801 73.829L116.68 74.04L115.445 79.177ZM121.741 76.0092L120.017 75.5951L118.954 80.02L118.076 79.809L119.139 75.3841L117.449 74.978L117.62 74.2659L121.912 75.2971L121.741 76.0092ZM123.261 81.1553C122.565 80.988 122.053 80.624 121.726 80.0632C121.399 79.4993 121.328 78.8344 121.512 78.0685L121.551 77.907C121.673 77.3974 121.879 76.9664 122.168 76.614C122.461 76.2592 122.808 76.0113 123.21 75.8702C123.616 75.7267 124.023 75.704 124.432 75.8021C125.1 75.9626 125.566 76.3073 125.83 76.8362C126.095 77.3651 126.129 78.0395 125.932 78.8592L125.844 79.2248L122.364 78.3887C122.255 78.8981 122.304 79.3434 122.51 79.7244C122.72 80.103 123.044 80.3448 123.481 80.4498C123.791 80.5243 124.069 80.5241 124.315 80.4492C124.56 80.3743 124.789 80.2518 125 80.0817L125.437 80.6284C124.847 81.1865 124.122 81.3621 123.261 81.1553ZM124.258 76.5238C123.904 76.4386 123.575 76.4969 123.272 76.6986C122.97 76.8972 122.735 77.2223 122.566 77.6739L125.139 78.2921L125.155 78.2257C125.237 77.7733 125.2 77.3994 125.043 77.104C124.887 76.8054 124.626 76.612 124.258 76.5238ZM130.687 78.1737L128.317 77.6045L127.258 82.0151L126.375 81.8029L127.609 76.6659L130.861 77.4473L130.687 78.1737ZM135.334 81.299C135.146 82.0808 134.816 82.6677 134.344 83.0597C133.871 83.4517 133.329 83.5743 132.719 83.4275C132.095 83.2777 131.652 82.962 131.389 82.4804L130.795 84.954L129.917 84.743L131.625 77.6309L132.428 77.8237L132.334 78.4037C132.798 78.0465 133.348 77.9443 133.984 78.0972C134.601 78.2455 135.033 78.5952 135.279 79.1464C135.528 79.6984 135.553 80.389 135.353 81.2183L135.334 81.299ZM134.48 80.9882C134.619 80.409 134.605 79.922 134.439 79.5272C134.273 79.1324 133.974 78.8832 133.544 78.7798C133.012 78.6521 132.557 78.792 132.178 79.1998L131.588 81.6543C131.738 82.1859 132.084 82.5167 132.625 82.6467C133.046 82.7479 133.42 82.6619 133.746 82.3889C134.077 82.1135 134.322 81.6466 134.48 80.9882ZM139.023 84.8417C138.996 84.7282 138.998 84.5379 139.029 84.2708C138.519 84.5968 137.981 84.6918 137.414 84.5557C136.908 84.434 136.526 84.1916 136.268 83.8284C136.014 83.4628 135.94 83.06 136.046 82.62C136.175 82.0851 136.477 81.7192 136.953 81.5221C137.432 81.3227 138.041 81.3116 138.779 81.4888L139.633 81.6941L139.73 81.2906C139.804 80.9835 139.771 80.7178 139.63 80.4933C139.491 80.2656 139.242 80.1088 138.885 80.0228C138.571 79.9475 138.29 79.9636 138.04 80.0709C137.79 80.1782 137.637 80.3442 137.583 80.5689L136.7 80.3567C136.762 80.1004 136.912 79.8752 137.149 79.6811C137.39 79.4847 137.683 79.3541 138.026 79.2893C138.373 79.2254 138.733 79.2382 139.107 79.328C139.699 79.4702 140.127 79.7303 140.391 80.1085C140.656 80.4834 140.732 80.932 140.62 81.4541L140.052 83.8185C139.939 84.2901 139.909 84.6796 139.962 84.987L139.944 85.063L139.023 84.8417ZM137.726 83.8221C138.001 83.8882 138.279 83.8798 138.561 83.7966C138.842 83.7135 139.065 83.5713 139.231 83.3701L139.484 82.3161L138.795 82.1507C137.719 81.8921 137.105 82.0778 136.954 82.7076C136.888 82.983 136.928 83.2203 137.074 83.4195C137.221 83.6187 137.438 83.7529 137.726 83.8221ZM145.944 81.8244L144.221 81.4104L143.158 85.8352L142.279 85.6242L143.343 81.1993L141.652 80.7933L141.824 80.0811L146.115 81.1123L145.944 81.8244ZM145.932 83.7348C146.053 83.2316 146.26 82.8025 146.553 82.4477C146.849 82.0937 147.199 81.8496 147.603 81.7156C148.01 81.5824 148.439 81.5702 148.892 81.6789C149.591 81.847 150.098 82.2249 150.412 82.8126C150.73 83.401 150.792 84.0972 150.599 84.9011L150.584 84.9629C150.464 85.463 150.259 85.8892 149.97 86.2416C149.685 86.5916 149.337 86.8345 148.926 86.9701C148.519 87.1065 148.084 87.1192 147.622 87.0081C146.925 86.8408 146.418 86.463 146.101 85.8745C145.787 85.2868 145.726 84.5942 145.917 83.7966L145.932 83.7348ZM146.79 84.0515C146.653 84.6212 146.675 85.1101 146.855 85.5182C147.038 85.9271 147.351 86.1848 147.794 86.2912C148.24 86.3985 148.636 86.3095 148.983 86.0245C149.33 85.7363 149.579 85.2772 149.73 84.6474C149.866 84.084 149.841 83.5959 149.655 83.1831C149.474 82.7679 149.162 82.507 148.719 82.4006C148.285 82.2964 147.894 82.3849 147.545 82.666C147.196 82.9471 146.945 83.4089 146.79 84.0515ZM156.025 86.2701C155.837 87.0519 155.507 87.6388 155.034 88.0308C154.562 88.4228 154.02 88.5454 153.409 88.3986C152.786 88.2488 152.342 87.9331 152.08 87.4516L151.486 89.9251L150.607 89.7141L152.316 82.602L153.118 82.7948L153.024 83.3748C153.488 83.0176 154.038 82.9154 154.675 83.0683C155.292 83.2166 155.723 83.5663 155.969 84.1175C156.218 84.6695 156.243 85.3601 156.044 86.1894L156.025 86.2701ZM155.17 85.9594C155.309 85.3801 155.296 84.8931 155.13 84.4983C154.963 84.1035 154.665 83.8544 154.234 83.7509C153.703 83.6232 153.247 83.7632 152.868 84.1709L152.278 86.6255C152.428 87.157 152.774 87.4878 153.315 87.6178C153.736 87.719 154.11 87.633 154.437 87.36C154.768 87.0846 155.012 86.6177 155.17 85.9594ZM164.703 88.6916C164.442 89.4022 164.035 89.9022 163.484 90.1915C162.936 90.4784 162.286 90.5313 161.532 90.3503C160.716 90.1541 160.131 89.704 159.778 88.9998C159.428 88.2964 159.371 87.454 159.607 86.4729L159.766 85.8082C159.921 85.1657 160.17 84.6281 160.515 84.1954C160.864 83.7635 161.279 83.4683 161.763 83.3099C162.247 83.1483 162.766 83.1341 163.32 83.2672C164.054 83.4436 164.593 83.7908 164.937 84.3087C165.282 84.8235 165.404 85.452 165.303 86.1943L164.387 85.9742C164.44 85.4044 164.363 84.9642 164.157 84.6534C163.953 84.3434 163.614 84.1314 163.139 84.0173C162.557 83.8774 162.048 83.9827 161.612 84.3333C161.179 84.6847 160.868 85.2576 160.677 86.0521L160.516 86.7215C160.336 87.4716 160.349 88.1059 160.556 88.6243C160.763 89.1427 161.148 89.4696 161.711 89.605C162.218 89.7266 162.633 89.7058 162.957 89.5426C163.284 89.3769 163.561 89.0199 163.787 88.4715L164.703 88.6916ZM168.632 88.9978L167.008 88.6077L166.336 91.4041L165.42 91.1839L167.081 84.2713L169.369 84.8211C170.148 85.0081 170.703 85.3291 171.036 85.784C171.372 86.2396 171.458 86.8061 171.295 87.4835C171.192 87.9139 170.985 88.2608 170.674 88.5242C170.366 88.7884 169.986 88.9498 169.533 89.0085L170.452 92.3326L170.438 92.3896L169.46 92.1546L168.632 88.9978ZM167.187 87.8623L168.588 88.1988C169.04 88.3075 169.428 88.2767 169.75 88.1064C170.075 87.9368 170.285 87.6558 170.379 87.2633C170.482 86.836 170.432 86.4776 170.231 86.1881C170.032 85.8994 169.693 85.6957 169.213 85.5769L167.817 85.2415L167.187 87.8623ZM174.254 85.9948L175.159 92.1781L178.774 87.0808L179.956 87.3648L178.296 94.2775L177.384 94.0584L178.031 91.3665L178.814 88.4814L175.2 93.5337L174.502 93.366L173.579 87.2386L172.974 90.1517L172.328 92.8436L171.416 92.6246L173.077 85.7119L174.254 85.9948Z" fill="#6FC6AD"/>
<rect x="18.6966" y="208.426" width="166.763" height="22.7555" rx="11.3778" transform="rotate(-0.212927 18.6966 208.426)" fill="white" stroke="#333333"/>
<path d="M31.4574 219.757L41.167 219.721" stroke="#333333" stroke-linecap="round" stroke-linejoin="round"/>
<path d="M36.2942 214.885L36.3302 224.594" stroke="#333333" stroke-linecap="round" stroke-linejoin="round"/>
<path d="M53.2498 220.096L53.2679 222.879L52.3304 222.885L52.2842 215.776L54.9062 215.759C55.6842 215.754 56.2942 215.948 56.7362 216.342C57.1815 216.737 57.4063 217.261 57.4105 217.915C57.415 218.605 57.202 219.139 56.7715 219.516C56.3442 219.89 55.7286 220.08 54.9246 220.085L53.2498 220.096ZM53.2448 219.329L54.9293 219.318C55.4306 219.315 55.814 219.195 56.0794 218.959C56.3448 218.72 56.476 218.377 56.4731 217.931C56.4704 217.508 56.3347 217.17 56.0661 216.918C55.7975 216.666 55.4305 216.537 54.9649 216.53L53.2267 216.541L53.2448 219.329ZM61.7003 222.824C61.6476 222.72 61.604 222.535 61.5697 222.268C61.1527 222.707 60.6528 222.928 60.0701 222.932C59.5493 222.936 59.1203 222.792 58.7831 222.501C58.4492 222.207 58.2807 221.834 58.2778 221.381C58.2742 220.831 58.4798 220.403 58.8945 220.098C59.3124 219.789 59.9006 219.633 60.659 219.628L61.5379 219.622L61.5352 219.207C61.5332 218.891 61.4371 218.641 61.2471 218.457C61.0571 218.269 60.7782 218.177 60.4103 218.179C60.0881 218.181 59.8184 218.264 59.6014 218.428C59.3844 218.593 59.2766 218.79 59.2781 219.021L58.3699 219.027C58.3682 218.764 58.4593 218.509 58.6433 218.264C58.8305 218.015 59.0831 217.818 59.4012 217.673C59.7225 217.528 60.0752 217.454 60.4593 217.451C61.068 217.447 61.5459 217.597 61.8929 217.901C62.24 218.201 62.4217 218.618 62.4382 219.152L62.454 221.584C62.4571 222.069 62.5215 222.454 62.647 222.74L62.6476 222.818L61.7003 222.824ZM60.1968 222.145C60.48 222.143 60.7481 222.068 61.0011 221.92C61.254 221.772 61.4367 221.581 61.5491 221.345L61.5421 220.262L60.8341 220.266C59.7273 220.273 59.176 220.601 59.1803 221.249C59.1821 221.532 59.2779 221.753 59.4678 221.911C59.6576 222.069 59.9006 222.147 60.1968 222.145ZM66.7583 218.953C66.7567 218.706 66.661 218.511 66.4713 218.369C66.2815 218.224 66.0223 218.152 65.6935 218.154C65.3745 218.157 65.1081 218.241 64.8943 218.409C64.6838 218.576 64.5793 218.772 64.5808 218.997L63.6824 219.002C63.6794 218.544 63.869 218.166 64.2512 217.871C64.6334 217.575 65.1126 217.426 65.6887 217.422C66.3072 217.418 66.7898 217.548 67.1366 217.813C67.4834 218.074 67.6584 218.451 67.6615 218.942C67.6631 219.18 67.5929 219.399 67.451 219.598C67.309 219.798 67.1066 219.957 66.8437 220.076C67.4603 220.28 67.7705 220.688 67.7745 221.3C67.7777 221.785 67.593 222.171 67.2205 222.456C66.848 222.742 66.3493 222.887 65.7243 222.891C65.1156 222.895 64.6117 222.75 64.2126 222.456C63.8168 222.159 63.6172 221.757 63.6139 221.249L64.5124 221.243C64.514 221.5 64.6294 221.721 64.8585 221.905C65.0908 222.086 65.3778 222.175 65.7196 222.173C66.0646 222.171 66.3424 222.089 66.553 221.928C66.7635 221.767 66.868 221.56 66.8663 221.306C66.8644 221.01 66.7735 220.799 66.5937 220.673C66.417 220.544 66.1416 220.481 65.7672 220.483L64.8639 220.489L64.859 219.727L65.8404 219.721C66.4555 219.701 66.7615 219.445 66.7583 218.953ZM73.402 220.165C73.4073 220.969 73.2275 221.618 72.8629 222.112C72.4983 222.606 72.0018 222.855 71.3736 222.859C70.7323 222.863 70.2265 222.663 69.856 222.258L69.8725 224.802L68.9692 224.808L68.9217 217.494L69.7469 217.488L69.7946 218.074C70.1595 217.616 70.6691 217.385 71.3234 217.381C71.9581 217.376 72.461 217.612 72.8319 218.089C73.2061 218.565 73.396 219.229 73.4015 220.082L73.402 220.165ZM72.4981 220.068C72.4942 219.473 72.3642 219.003 72.108 218.66C71.8519 218.316 71.5025 218.146 71.0598 218.149C70.5129 218.152 70.1043 218.398 69.8341 218.884L69.8505 221.409C70.1238 221.889 70.5387 222.127 71.0954 222.123C71.5283 222.121 71.8706 221.947 72.1223 221.604C72.3772 221.257 72.5025 220.745 72.4981 220.068ZM77.8328 222.719C77.78 222.615 77.7365 222.43 77.7022 222.163C77.2851 222.602 76.7853 222.824 76.2026 222.827C75.6818 222.831 75.2528 222.687 74.9156 222.396C74.5816 222.102 74.4132 221.729 74.4103 221.277C74.4067 220.726 74.6122 220.299 75.0269 219.993C75.4449 219.685 76.033 219.528 76.7915 219.523L77.6704 219.517L77.6677 219.102C77.6656 218.786 77.5696 218.536 77.3796 218.352C77.1896 218.164 76.9106 218.072 76.5428 218.074C76.2206 218.076 75.9509 218.159 75.7339 218.324C75.5168 218.488 75.4091 218.685 75.4106 218.917L74.5024 218.922C74.5007 218.659 74.5918 218.404 74.7757 218.159C74.9629 217.91 75.2156 217.713 75.5336 217.568C75.855 217.423 76.2077 217.349 76.5918 217.346C77.2005 217.342 77.6784 217.492 78.0254 217.796C78.3724 218.096 78.5542 218.514 78.5707 219.047L78.5865 221.479C78.5896 221.964 78.654 222.349 78.7795 222.635L78.78 222.713L77.8328 222.719ZM76.3293 222.041C76.6125 222.039 76.8806 221.964 77.1335 221.816C77.3865 221.667 77.5692 221.476 77.6816 221.241L77.6745 220.157L76.9665 220.161C75.8598 220.169 75.3085 220.496 75.3127 221.144C75.3146 221.427 75.4104 221.648 75.6002 221.806C75.7901 221.964 76.0331 222.042 76.3293 222.041ZM82.2974 217.71C82.9615 217.705 83.4935 217.925 83.8935 218.368C84.2968 218.808 84.5008 219.391 84.5055 220.117L84.506 220.2C84.5092 220.698 84.4161 221.145 84.2266 221.54C84.0371 221.932 83.7624 222.238 83.4025 222.458C83.0458 222.676 82.6331 222.786 82.1644 222.789C81.4548 222.793 80.8819 222.561 80.4459 222.092C80.0099 221.619 79.7893 220.984 79.7841 220.187L79.7813 219.748C79.7741 218.638 79.9734 217.754 80.3793 217.097C80.7885 216.44 81.3946 216.037 82.1977 215.889C82.6529 215.805 82.9598 215.703 83.1186 215.585C83.2773 215.467 83.356 215.305 83.3547 215.1L84.0969 215.095C84.0995 215.502 84.0088 215.82 83.8247 216.049C83.6439 216.278 83.352 216.441 82.949 216.538L82.2762 216.694C81.7399 216.825 81.3376 217.042 81.0694 217.347C80.8045 217.648 80.6329 218.049 80.5548 218.551C81.0297 217.995 81.6106 217.714 82.2974 217.71ZM82.1264 218.453C81.6837 218.456 81.3332 218.608 81.0747 218.909C80.8162 219.207 80.6887 219.62 80.6921 220.147L80.6926 220.225C80.6963 220.791 80.8294 221.24 81.092 221.57C81.3578 221.897 81.7137 222.059 82.1596 222.056C82.6088 222.053 82.9626 221.885 83.2208 221.551C83.4791 221.218 83.6061 220.732 83.602 220.094C83.5987 219.596 83.4643 219.198 83.1987 218.9C82.9363 218.599 82.5789 218.45 82.1264 218.453ZM85.281 219.98C85.2776 219.463 85.3755 218.997 85.5746 218.582C85.777 218.167 86.0581 217.846 86.418 217.619C86.7811 217.392 87.1954 217.277 87.6609 217.274C88.3803 217.27 88.9629 217.515 89.4089 218.01C89.8581 218.505 90.0853 219.166 90.0907 219.993L90.0911 220.057C90.0945 220.571 89.9982 221.034 89.8023 221.445C89.6096 221.853 89.3301 222.173 88.9638 222.403C88.6007 222.633 88.1815 222.75 87.7063 222.753C86.9901 222.757 86.4075 222.512 85.9583 222.017C85.5123 221.522 85.2867 220.864 85.2814 220.044L85.281 219.98ZM86.1898 220.082C86.1937 220.668 86.3318 221.137 86.6043 221.49C86.88 221.843 87.2457 222.018 87.7015 222.015C88.1604 222.012 88.5239 221.831 88.7917 221.471C89.0595 221.108 89.1913 220.603 89.1871 219.955C89.1834 219.376 89.042 218.908 88.763 218.551C88.4872 218.192 88.1214 218.014 87.6657 218.017C87.2198 218.019 86.8612 218.199 86.5901 218.556C86.319 218.912 86.1856 219.421 86.1898 220.082ZM95.0294 218.057L93.257 218.068L93.2866 222.619L92.3833 222.625L92.3537 218.074L90.6154 218.085L90.6107 217.353L95.0247 217.324L95.0294 218.057ZM99.927 222.576L99.0189 222.582L99.0064 220.668C98.61 220.774 98.2034 220.829 97.7868 220.832C97.126 220.836 96.6203 220.67 96.2698 220.334C95.9226 219.997 95.7437 219.517 95.7331 218.892L95.7229 217.315L96.6262 217.309L96.6366 218.915C96.658 219.703 97.0398 220.094 97.7819 220.09C98.1986 220.087 98.6052 220.032 99.0016 219.925L98.9845 217.299L99.8927 217.293L99.927 222.576ZM104.761 217.261L105.664 217.255L105.698 222.538L104.795 222.544L104.77 218.692L102.359 222.56L101.455 222.566L101.421 217.283L102.324 217.277L102.349 221.134L104.761 217.261ZM108.779 220.267L108.12 220.271L108.135 222.522L107.227 222.528L107.192 217.245L108.101 217.239L108.115 219.476L108.706 219.472L110.469 217.224L111.562 217.217L109.489 219.769L111.772 222.499L110.625 222.506L108.779 220.267ZM119.35 222.45L118.447 222.455L118.418 217.919L115.986 217.935L116.016 222.471L115.107 222.477L115.073 217.194L119.316 217.166L119.35 222.45ZM125.247 219.828C125.252 220.632 125.072 221.281 124.708 221.775C124.343 222.269 123.846 222.518 123.218 222.522C122.577 222.526 122.071 222.326 121.701 221.922L121.717 224.465L120.814 224.471L120.766 217.157L121.591 217.152L121.639 217.737C122.004 217.279 122.514 217.048 123.168 217.044C123.803 217.04 124.306 217.276 124.676 217.752C125.051 218.228 125.241 218.892 125.246 219.745L125.247 219.828ZM124.343 219.731C124.339 219.136 124.209 218.666 123.953 218.323C123.697 217.979 123.347 217.809 122.904 217.812C122.358 217.816 121.949 218.061 121.679 218.548L121.695 221.072C121.968 221.552 122.383 221.79 122.94 221.787C123.373 221.784 123.715 221.611 123.967 221.267C124.222 220.92 124.347 220.409 124.343 219.731ZM129.799 217.098L130.703 217.092L130.737 222.376L129.834 222.381L129.809 218.529L127.397 222.397L126.494 222.403L126.46 217.12L127.363 217.114L127.388 220.971L129.799 217.098ZM136.484 217.055L136.518 222.338L135.61 222.344L135.58 217.808L133.784 217.82L133.689 219.798C133.636 220.706 133.488 221.357 133.243 221.749C133.001 222.141 132.613 222.347 132.08 222.367L131.718 222.369L131.713 221.573L131.972 221.552C132.265 221.518 132.473 221.347 132.598 221.04C132.723 220.733 132.801 220.166 132.832 219.339L132.914 217.078L136.484 217.055ZM137.712 219.64C137.708 219.122 137.806 218.656 138.005 218.241C138.208 217.827 138.489 217.506 138.849 217.279C139.212 217.052 139.626 216.937 140.091 216.934C140.811 216.929 141.393 217.174 141.839 217.67C142.289 218.165 142.516 218.826 142.521 219.652L142.522 219.716C142.525 220.23 142.429 220.693 142.233 221.105C142.04 221.513 141.761 221.832 141.394 222.062C141.031 222.292 140.612 222.409 140.137 222.412C139.421 222.417 138.838 222.172 138.389 221.676C137.943 221.181 137.717 220.524 137.712 219.703L137.712 219.64ZM138.62 219.741C138.624 220.327 138.762 220.797 139.035 221.15C139.311 221.503 139.676 221.678 140.132 221.675C140.591 221.672 140.954 221.49 141.222 221.131C141.49 220.768 141.622 220.262 141.618 219.614C141.614 219.035 141.473 218.567 141.194 218.211C140.918 217.851 140.552 217.673 140.096 217.676C139.65 217.679 139.292 217.859 139.021 218.215C138.75 218.572 138.616 219.08 138.62 219.741ZM147.763 219.97L147.128 219.974L147.143 222.269L146.24 222.275L146.225 219.98L145.59 219.984L144.125 222.289L142.983 222.296L144.855 219.549L143.129 217.012L144.223 217.005L145.599 219.183L146.219 219.179L146.205 216.992L147.109 216.986L147.123 219.173L147.738 219.169L149.096 216.973L150.19 216.966L148.492 219.531L150.4 222.248L149.257 222.255L147.763 219.97ZM153.315 222.327C152.599 222.331 152.015 222.101 151.563 221.635C151.11 221.166 150.882 220.537 150.877 219.75L150.875 219.584C150.872 219.059 150.968 218.592 151.164 218.18C151.363 217.766 151.641 217.441 151.998 217.208C152.358 216.971 152.747 216.852 153.167 216.849C153.854 216.844 154.389 217.067 154.773 217.517C155.157 217.967 155.352 218.614 155.357 219.457L155.36 219.833L151.781 219.856C151.797 220.377 151.951 220.797 152.243 221.118C152.538 221.435 152.91 221.592 153.359 221.589C153.678 221.587 153.948 221.52 154.169 221.388C154.389 221.257 154.582 221.083 154.746 220.867L155.301 221.293C154.862 221.976 154.201 222.321 153.315 222.327ZM153.172 217.591C152.808 217.593 152.502 217.729 152.257 217.997C152.011 218.263 151.861 218.635 151.805 219.114L154.451 219.096L154.451 219.028C154.422 218.569 154.296 218.215 154.073 217.966C153.85 217.714 153.55 217.589 153.172 217.591ZM160.741 222.181L159.838 222.186L159.823 219.931L157.397 219.946L157.411 222.202L156.503 222.208L156.469 216.925L157.377 216.919L157.392 219.209L159.818 219.193L159.804 216.903L160.707 216.898L160.741 222.181ZM165.58 216.866L166.483 216.86L166.517 222.143L165.614 222.149L165.589 218.297L163.178 222.165L162.274 222.171L162.24 216.888L163.143 216.882L163.168 220.739L165.58 216.866ZM171.351 216.828L172.254 216.823L172.289 222.106L171.385 222.111L171.36 218.259L168.949 222.127L168.046 222.133L168.011 216.85L168.915 216.844L168.94 220.702L171.351 216.828ZM171.583 214.903C171.585 215.297 171.452 215.615 171.184 215.858C170.918 216.097 170.568 216.218 170.131 216.221C169.695 216.224 169.341 216.106 169.069 215.867C168.798 215.628 168.661 215.313 168.658 214.922L169.395 214.917C169.397 215.145 169.46 215.324 169.584 215.453C169.709 215.579 169.89 215.642 170.128 215.64C170.355 215.639 170.532 215.574 170.659 215.446C170.788 215.318 170.852 215.139 170.85 214.908L171.583 214.903Z" fill="#6FC6AD"/>
<circle cx="162.721" cy="174.827" r="10.665" fill="#F7B916" stroke="#333333"/>
<path d="M164.573 177.048C164.573 176.629 164.425 176.275 164.128 175.988C163.837 175.701 163.342 175.441 162.645 175.209C161.674 174.913 160.966 174.528 160.519 174.054C160.077 173.575 159.856 172.969 159.856 172.235C159.856 171.488 160.072 170.875 160.505 170.396C160.943 169.918 161.542 169.633 162.303 169.542V168.045H163.322V169.549C164.087 169.654 164.682 169.975 165.106 170.513C165.534 171.05 165.748 171.786 165.748 172.721H164.491C164.491 172.078 164.338 171.568 164.033 171.189C163.727 170.811 163.315 170.622 162.795 170.622C162.253 170.622 161.838 170.763 161.551 171.046C161.264 171.324 161.121 171.714 161.121 172.215C161.121 172.68 161.271 173.051 161.572 173.329C161.877 173.603 162.376 173.853 163.069 174.081C163.766 174.304 164.308 174.553 164.696 174.826C165.088 175.095 165.375 175.41 165.557 175.77C165.744 176.13 165.837 176.551 165.837 177.034C165.837 177.804 165.605 178.424 165.14 178.894C164.68 179.363 164.033 179.641 163.199 179.728V181.033H162.187V179.728C161.339 179.65 160.674 179.349 160.191 178.825C159.712 178.297 159.473 177.581 159.473 176.679H160.738C160.738 177.312 160.904 177.8 161.237 178.142C161.569 178.483 162.041 178.654 162.652 178.654C163.249 178.654 163.718 178.511 164.06 178.224C164.402 177.937 164.573 177.545 164.573 177.048Z" fill="#333333"/>
<circle cx="27.5262" cy="148.996" r="10.665" transform="rotate(-29.5494 27.5262 148.996)" fill="#F7B916" stroke="#333333"/>
<path d="M30.2323 150.015C30.0256 149.65 29.7225 149.416 29.3232 149.313C28.9279 149.207 28.3697 149.225 27.6485 149.366C26.6579 149.587 25.8515 149.602 25.2293 149.41C24.6087 149.211 24.1175 148.793 23.7556 148.155C23.3871 147.505 23.2731 146.865 23.4137 146.235C23.5583 145.603 23.9392 145.059 24.5563 144.605L23.818 143.303L24.7041 142.8L25.4457 144.108C26.1635 143.822 26.8393 143.808 27.4732 144.067C28.1111 144.324 28.6604 144.858 29.1211 145.671L28.0269 146.291C27.71 145.732 27.3255 145.364 26.8733 145.185C26.4212 145.007 25.9691 145.046 25.5171 145.302C25.0454 145.569 24.7543 145.897 24.6438 146.284C24.5312 146.667 24.5985 147.077 24.8457 147.513C25.0749 147.918 25.3889 148.167 25.7877 148.26C26.1882 148.347 26.7459 148.319 27.4609 148.176C28.1776 148.026 28.7719 147.975 29.2437 148.022C29.7173 148.062 30.1221 148.194 30.4582 148.418C30.7983 148.639 31.0875 148.959 31.3257 149.38C31.7056 150.05 31.8091 150.703 31.6362 151.341C31.4672 151.976 31.0414 152.537 30.3586 153.024L31.0025 154.16L30.1224 154.659L29.4785 153.523C28.7028 153.874 27.9757 153.94 27.297 153.722C26.62 153.498 26.059 152.994 25.614 152.209L26.7141 151.585C27.0265 152.136 27.4117 152.479 27.8697 152.612C28.3277 152.745 28.8223 152.661 29.3535 152.36C29.8729 152.066 30.2104 151.709 30.3662 151.291C30.5219 150.873 30.4773 150.447 30.2323 150.015Z" fill="#333333"/>
<circle cx="181.056" cy="131.675" r="10.665" transform="rotate(130.57 181.056 131.675)" fill="#F7B916" stroke="#333333"/>
<path d="M178.165 131.637C178.483 131.91 178.848 132.027 179.259 131.989C179.667 131.954 180.186 131.747 180.816 131.369C181.672 130.824 182.425 130.536 183.076 130.505C183.727 130.481 184.331 130.707 184.888 131.184C185.456 131.67 185.781 132.233 185.863 132.873C185.942 133.517 185.768 134.157 185.343 134.795L186.48 135.768L185.817 136.542L184.675 135.564C184.097 136.077 183.467 136.32 182.782 136.292C182.095 136.268 181.397 135.952 180.687 135.345L181.505 134.389C181.993 134.807 182.48 135.023 182.966 135.037C183.452 135.051 183.864 134.861 184.202 134.466C184.555 134.054 184.717 133.647 184.689 133.245C184.665 132.847 184.462 132.484 184.081 132.158C183.728 131.856 183.348 131.728 182.942 131.776C182.535 131.83 182.02 132.046 181.397 132.424C180.774 132.809 180.232 133.059 179.773 133.175C179.313 133.298 178.888 133.312 178.496 133.216C178.101 133.124 177.72 132.921 177.353 132.607C176.768 132.106 176.448 131.526 176.394 130.868C176.337 130.213 176.546 129.54 177.023 128.851L176.031 128.001L176.689 127.233L177.681 128.082C178.291 127.489 178.952 127.179 179.665 127.153C180.377 127.133 181.077 127.417 181.762 128.003L180.94 128.964C180.458 128.552 179.98 128.361 179.504 128.392C179.028 128.422 178.591 128.669 178.194 129.133C177.806 129.587 177.609 130.037 177.605 130.483C177.601 130.929 177.788 131.314 178.165 131.637Z" fill="#333333"/>
<circle cx="124.575" cy="105.602" r="10.665" transform="rotate(-25.2159 124.575 105.602)" fill="#F7B916" stroke="#333333"/>
<path d="M127.196 106.823C127.017 106.443 126.733 106.187 126.343 106.053C125.956 105.918 125.398 105.893 124.669 105.98C123.664 106.126 122.859 106.079 122.253 105.841C121.649 105.596 121.191 105.142 120.878 104.478C120.56 103.802 120.495 103.155 120.683 102.538C120.875 101.919 121.295 101.406 121.945 100.999L121.307 99.6444L122.229 99.2105L122.869 100.571C123.607 100.34 124.282 100.377 124.894 100.683C125.511 100.987 126.018 101.562 126.416 102.407L125.278 102.943C125.005 102.361 124.649 101.965 124.212 101.752C123.774 101.54 123.321 101.545 122.851 101.766C122.36 101.997 122.045 102.302 121.905 102.68C121.764 103.054 121.8 103.467 122.014 103.921C122.212 104.341 122.506 104.613 122.897 104.737C123.289 104.854 123.848 104.868 124.572 104.779C125.297 104.684 125.894 104.678 126.361 104.76C126.83 104.836 127.224 104.999 127.542 105.247C127.864 105.493 128.129 105.834 128.334 106.271C128.663 106.968 128.716 107.628 128.496 108.251C128.279 108.871 127.812 109.399 127.095 109.832L127.651 111.014L126.736 111.445L126.179 110.263C125.379 110.554 124.649 110.566 123.989 110.297C123.331 110.023 122.81 109.478 122.425 108.661L123.569 108.122C123.839 108.695 124.197 109.066 124.644 109.233C125.091 109.401 125.59 109.354 126.143 109.094C126.683 108.84 127.046 108.51 127.233 108.105C127.42 107.699 127.408 107.272 127.196 106.823Z" fill="#333333"/>
<circle cx="114.272" cy="95.1024" r="10.665" transform="rotate(52.7144 114.272 95.1024)" fill="#F7B916" stroke="#333333"/>
<path d="M113.627 97.9209C113.96 97.6669 114.152 97.3351 114.201 96.9255C114.252 96.5195 114.159 95.9688 113.922 95.2732C113.57 94.3214 113.447 93.5243 113.553 92.8819C113.666 92.2403 114.014 91.6972 114.598 91.2528C115.193 90.8 115.812 90.6009 116.455 90.6555C117.1 90.7137 117.69 91.0179 118.224 91.5683L119.415 90.6614L120.032 91.4717L118.835 92.3828C119.216 93.0554 119.32 93.7232 119.149 94.3862C118.981 95.0528 118.525 95.6691 117.782 96.2351L117.02 95.2343C117.531 94.8451 117.845 94.4144 117.961 93.9423C118.077 93.4702 117.977 93.0275 117.663 92.6142C117.334 92.1827 116.97 91.9383 116.572 91.881C116.177 91.821 115.78 91.9428 115.381 92.2465C115.011 92.5281 114.806 92.8728 114.767 93.2805C114.735 93.6891 114.838 94.2379 115.076 94.9271C115.321 95.6172 115.452 96.1991 115.469 96.673C115.492 97.1477 115.416 97.5666 115.24 97.9297C115.067 98.2965 114.788 98.6262 114.404 98.9188C113.791 99.3854 113.157 99.5759 112.502 99.4905C111.85 99.4086 111.236 99.0621 110.662 98.451L109.623 99.242L109.011 98.437L110.049 97.6461C109.598 96.9247 109.434 96.2131 109.558 95.5113C109.689 94.8103 110.113 94.1865 110.831 93.6399L111.597 94.6461C111.093 95.0299 110.806 95.4576 110.736 95.9293C110.665 96.4011 110.815 96.8799 111.185 97.3658C111.547 97.8408 111.945 98.1273 112.381 98.2253C112.816 98.3233 113.231 98.2218 113.627 97.9209Z" fill="#333333"/>
<path d="M64.1438 70.3573C64.1438 70.4658 64.0794 70.6462 63.7855 70.8811C63.4965 71.1121 63.0476 71.3421 62.4484 71.5447C61.255 71.9481 59.5743 72.2064 57.6947 72.2064C55.8152 72.2064 54.1345 71.9481 52.9411 71.5447C52.3419 71.3421 51.893 71.1121 51.6039 70.8811C51.3101 70.6462 51.2457 70.4658 51.2457 70.3573C51.2457 70.2489 51.3101 70.0685 51.6039 69.8336C51.893 69.6026 52.3419 69.3725 52.9411 69.17C54.1345 68.7666 55.8152 68.5083 57.6947 68.5083C59.5743 68.5083 61.255 68.7666 62.4484 69.17C63.0476 69.3725 63.4965 69.6026 63.7855 69.8336C64.0794 70.0685 64.1438 70.2489 64.1438 70.3573Z" fill="#F7B916" stroke="#333333"/>
<path d="M96.2288 110.984C96.256 111.089 96.2389 111.28 96.0133 111.581C95.7914 111.877 95.4145 112.212 94.8852 112.558C93.8311 113.248 92.2688 113.919 90.4493 114.391C88.6298 114.862 86.938 115.033 85.6816 114.942C85.0508 114.896 84.5585 114.786 84.2208 114.635C83.8774 114.481 83.7698 114.323 83.7426 114.218C83.7154 114.112 83.7325 113.922 83.9581 113.621C84.18 113.325 84.557 112.989 85.0863 112.643C86.1404 111.953 87.7026 111.282 89.5221 110.811C91.3417 110.339 93.0334 110.168 94.2898 110.259C94.9207 110.305 95.413 110.415 95.7507 110.567C96.0941 110.72 96.2016 110.879 96.2288 110.984Z" fill="#F7B916" stroke="#333333"/>
<path d="M164.778 115.626C164.752 115.731 164.646 115.891 164.304 116.047C163.968 116.202 163.476 116.316 162.846 116.367C161.59 116.47 159.897 116.313 158.073 115.858C156.25 115.403 154.682 114.745 153.622 114.065C153.089 113.723 152.709 113.391 152.485 113.097C152.257 112.798 152.238 112.608 152.264 112.502C152.291 112.397 152.397 112.238 152.739 112.081C153.075 111.927 153.566 111.812 154.197 111.761C155.452 111.658 157.146 111.815 158.969 112.27C160.793 112.725 162.361 113.383 163.421 114.063C163.953 114.405 164.333 114.737 164.558 115.031C164.786 115.33 164.805 115.521 164.778 115.626Z" fill="#F7B916" stroke="#333333"/>
<path d="M139.71 180.156C139.728 180.263 139.695 180.451 139.444 180.732C139.197 181.008 138.793 181.309 138.236 181.609C137.126 182.205 135.512 182.739 133.658 183.052C131.805 183.365 130.105 183.39 128.861 183.191C128.236 183.091 127.755 182.938 127.432 182.759C127.103 182.576 127.01 182.409 126.992 182.302C126.974 182.195 127.007 182.006 127.258 181.726C127.504 181.45 127.909 181.148 128.466 180.849C129.575 180.253 131.19 179.718 133.043 179.406C134.896 179.093 136.597 179.068 137.841 179.267C138.465 179.367 138.946 179.519 139.27 179.699C139.598 179.882 139.692 180.049 139.71 180.156Z" fill="#F7B916" stroke="#333333"/>
<defs>
<clipPath id="clip0">
<rect width="103.7" height="54" fill="white" transform="translate(50.27 121.996)"/>
</clipPath>
</defs>
</svg>
