<svg width="246" height="403" viewBox="0 0 246 403" fill="none" xmlns="http://www.w3.org/2000/svg">
<rect x="1.26324" y="1.02222" width="224.322" height="400.714" rx="14.5" fill="white" stroke="#1062AA"/>
<rect x="1.26324" y="40.6172" width="224.313" height="321.524" fill="#6FC6AD" stroke="#1062AA"/>
<path d="M50.5 90.1949C50.5 82.1868 56.9919 75.6949 65 75.6949H230.086C238.094 75.6949 244.586 82.1868 244.586 90.1949V110.616C244.586 118.624 238.094 125.116 230.086 125.116H63.3466C59.6395 125.116 56.0553 126.445 53.2439 128.861L50.5 131.219V90.1949Z" fill="white" stroke="#333333" stroke-linecap="round" stroke-linejoin="round"/>
<path d="M121.812 180.731C121.812 172.723 128.304 166.231 136.312 166.231H162.502C170.51 166.231 177.002 172.723 177.002 180.731V201.153C177.002 209.161 170.51 215.653 162.502 215.653H134.658C130.951 215.653 127.367 216.981 124.556 219.397L121.812 221.756V180.731Z" fill="white" stroke="#333333" stroke-linecap="round" stroke-linejoin="round"/>
<path d="M105.027 282.353C105.027 290.361 98.5354 296.853 90.5272 296.853L64.3373 296.853C56.3291 296.853 49.8372 290.361 49.8372 282.353L49.8372 261.932C49.8372 253.924 56.3291 247.432 64.3373 247.432L92.1806 247.432C95.8877 247.432 99.472 246.103 102.283 243.687L105.027 241.329L105.027 282.353Z" fill="white" stroke="#333333" stroke-linecap="round" stroke-linejoin="round"/>
<path d="M105.027 180.731C105.027 172.723 98.5354 166.231 90.5272 166.231H64.3373C56.3291 166.231 49.8372 172.723 49.8372 180.731V201.153C49.8372 209.161 56.3291 215.653 64.3372 215.653H92.1806C95.8877 215.653 99.472 216.981 102.283 219.397L105.027 221.756V180.731Z" fill="white" stroke="#333333" stroke-linecap="round" stroke-linejoin="round"/>
<path d="M121.812 282.353C121.812 290.361 128.304 296.853 136.312 296.853L162.502 296.853C170.51 296.853 177.002 290.361 177.002 282.353L177.002 261.932C177.002 253.924 170.51 247.432 162.502 247.432L134.658 247.432C130.951 247.432 127.367 246.103 124.556 243.687L121.812 241.329L121.812 282.353Z" fill="white" stroke="#333333" stroke-linecap="round" stroke-linejoin="round"/>
<path d="M73.5909 383.322H165.657" stroke="#1062AA"/>
<rect x="87.6053" y="19.6902" width="38.617" height="5.29028" rx="2.64514" stroke="#1062AA"/>
<rect x="133.868" y="19.6902" width="5.37533" height="5.29028" rx="2.64514" stroke="#1062AA"/>
<path d="M105.536 91.123H226.076" stroke="#1062AA" stroke-linecap="round" stroke-linejoin="round"/>
<path d="M105.536 100.563H226.076" stroke="#1062AA" stroke-linecap="round" stroke-linejoin="round"/>
<path d="M105.536 109.848H226.076" stroke="#1062AA" stroke-linecap="round" stroke-linejoin="round"/>
<circle cx="78.2585" cy="100.563" r="12.9494" fill="#F7B916" stroke="#333333"/>
<g clip-path="url(#clip0)">
<path d="M88.1307 189.092C88.1307 194.691 83.4452 199.296 77.7491 199.296C72.053 199.296 67.3675 194.691 67.3675 189.092V177.445L72.5124 182.411L78.0247 176.451L82.5265 182.32L88.1307 177.264V189.092Z" fill="#F7B916" stroke="#333333" stroke-miterlimit="10" stroke-linecap="round" stroke-linejoin="round"/>
<path d="M77.8241 199.33C77.8241 199.33 77.841 206.068 82.159 210.041C86.1095 213.652 92.6325 215.549 92.6325 215.549" stroke="#333333" stroke-miterlimit="10" stroke-linecap="round" stroke-linejoin="round"/>
<path d="M88.8657 201.553C90.5194 202.727 91.53 204.623 91.53 206.79C91.53 208.867 90.5194 210.763 88.9576 211.937L88.8657 212.027L88.7738 211.937C87.1201 210.763 86.1095 208.867 86.1095 206.7C86.1095 204.623 87.1201 202.727 88.682 201.553H88.8657Z" fill="#6FC6AD" stroke="#333333" stroke-miterlimit="10" stroke-linecap="round" stroke-linejoin="round"/>
<path d="M70.1237 206.7C71.9611 205.887 74.1661 205.977 76.0954 207.061C77.9329 208.144 79.0353 209.86 79.311 211.756V211.846H79.2191C77.3816 212.659 75.1767 212.569 73.2473 211.485C71.4099 210.402 70.3074 208.686 70.0318 206.79L70.1237 206.7Z" fill="#6FC6AD" stroke="#333333" stroke-miterlimit="10" stroke-linecap="round" stroke-linejoin="round"/>
</g>
<path d="M83.5652 100.578C83.5652 101.831 83.3543 102.927 82.9324 103.865C82.5106 104.796 81.9129 105.508 81.1395 106C80.366 106.493 79.4637 106.739 78.4324 106.739C77.4246 106.739 76.5311 106.493 75.7518 106C74.9725 105.502 74.366 104.796 73.9324 103.882C73.5047 102.962 73.285 101.899 73.2733 100.692V99.7689C73.2733 98.5385 73.4871 97.4515 73.9149 96.5082C74.3426 95.5648 74.9461 94.8441 75.7254 94.3461C76.5106 93.8422 77.407 93.5902 78.4149 93.5902C79.4402 93.5902 80.3426 93.8392 81.1219 94.3373C81.907 94.8295 82.5106 95.5472 82.9324 96.4906C83.3543 97.4281 83.5652 98.5209 83.5652 99.7689V100.578ZM81.8865 99.7513C81.8865 98.2338 81.5818 97.0707 80.9725 96.2621C80.3631 95.4476 79.5106 95.0404 78.4149 95.0404C77.3484 95.0404 76.5076 95.4476 75.8924 96.2621C75.283 97.0707 74.9695 98.1957 74.952 99.6371V100.578C74.952 102.048 75.2596 103.205 75.8748 104.049C76.4959 104.887 77.3484 105.306 78.4324 105.306C79.5223 105.306 80.366 104.911 80.9637 104.12C81.5613 103.323 81.869 102.183 81.8865 100.701V99.7513Z" fill="#1062AA"/>
<g clip-path="url(#clip1)">
<path d="M149.407 184.373C151.892 184.373 153.907 182.358 153.907 179.873C153.907 177.388 151.892 175.373 149.407 175.373C146.922 175.373 144.907 177.388 144.907 179.873C144.907 182.358 146.922 184.373 149.407 184.373Z" fill="#F7B916" stroke="#333333" stroke-miterlimit="10" stroke-linecap="round" stroke-linejoin="round"/>
<path d="M148.207 184.373V185.773C148.207 186.573 147.607 187.273 146.807 187.473L142.207 188.473C141.507 188.573 141.007 189.173 140.907 189.773L139.507 195.873C139.207 197.173 140.407 198.373 141.707 197.973L147.207 196.373C148.007 196.173 148.507 195.473 148.507 194.673V193.073" fill="white"/>
<path d="M148.207 184.373V185.773C148.207 186.573 147.607 187.273 146.807 187.473L142.207 188.473C141.507 188.573 141.007 189.173 140.907 189.773L139.507 195.873C139.207 197.173 140.407 198.373 141.707 197.973L147.207 196.373C148.007 196.173 148.507 195.473 148.507 194.673V193.073" stroke="#333333" stroke-miterlimit="10" stroke-linecap="round" stroke-linejoin="round"/>
<path d="M150.607 184.373V185.773C150.607 186.573 151.207 187.273 152.007 187.473L156.607 188.473C157.307 188.573 157.807 189.173 157.907 189.773L159.307 195.873C159.607 197.173 158.407 198.373 157.107 197.973L151.607 196.373C150.807 196.173 150.307 195.473 150.307 194.673V193.073" fill="white"/>
<path d="M150.607 184.373V185.773C150.607 186.573 151.207 187.273 152.007 187.473L156.607 188.473C157.307 188.573 157.807 189.173 157.907 189.773L159.307 195.873C159.607 197.173 158.407 198.373 157.107 197.973L151.607 196.373C150.807 196.173 150.307 195.473 150.307 194.673V193.073" stroke="#333333" stroke-miterlimit="10" stroke-linecap="round" stroke-linejoin="round"/>
<path d="M144.007 197.573V202.673" stroke="#333333" stroke-miterlimit="10" stroke-linecap="round" stroke-linejoin="round"/>
<path d="M155.207 197.573V202.673" stroke="#333333" stroke-miterlimit="10" stroke-linecap="round" stroke-linejoin="round"/>
<path d="M143.607 201.273C147.307 202.873 150.107 205.373 151.507 208.073L151.607 208.173H151.507C148.607 209.173 144.707 208.973 140.807 207.373C139.107 206.673 137.307 205.173 135.907 203.773C134.607 202.473 135.507 200.273 137.307 200.273C139.407 200.273 141.807 200.473 143.607 201.273Z" fill="#6FC6AD" stroke="#333333" stroke-miterlimit="10" stroke-linecap="round" stroke-linejoin="round"/>
<path d="M155.207 201.273C151.507 202.873 148.707 205.373 147.307 208.073L147.207 208.173H147.307C150.207 209.173 154.107 208.973 158.007 207.373C159.707 206.673 161.507 205.173 162.907 203.773C164.207 202.473 163.307 200.273 161.507 200.273C159.407 200.273 157.007 200.473 155.207 201.273Z" fill="#6FC6AD" stroke="#333333" stroke-miterlimit="10" stroke-linecap="round" stroke-linejoin="round"/>
</g>
<g clip-path="url(#clip2)">
<path d="M77.562 275.803L64.4141 268.707L77.562 261.612L91.5542 268.707L77.562 275.803Z" fill="#F7B916" stroke="#333333" stroke-miterlimit="10" stroke-linecap="round" stroke-linejoin="round"/>
<path d="M67.4297 273.356V281.798C67.4297 281.798 69.7215 283.511 77.8032 283.511C85.523 283.511 87.9355 281.798 87.9355 281.798V272.989" stroke="#333333" stroke-miterlimit="10" stroke-linecap="round" stroke-linejoin="round"/>
<path d="M94.2078 279.84C94.2078 278.862 93.4841 278.128 92.5191 278.128C91.5541 278.128 90.8304 278.862 90.8304 279.84V282.532H94.3285L94.2078 279.84Z" fill="#6FC6AD" stroke="#333333" stroke-miterlimit="10" stroke-linecap="round" stroke-linejoin="round"/>
<path d="M91.5542 268.708L92.3985 278.005" stroke="#333333" stroke-miterlimit="10" stroke-linecap="round" stroke-linejoin="round"/>
</g>
<g clip-path="url(#clip3)">
<path d="M164.107 261.803H136.107V289.803H164.107V261.803Z" fill="white"/>
<path d="M164.107 275.571C164.107 277.059 164.107 278.547 164.107 279.943V280.036C163.828 280.966 163.27 281.338 162.339 281.338C161.967 281.338 161.688 281.338 161.316 281.338C160.851 283.292 159.363 284.129 158.153 284.129C157.409 284.129 156.758 283.943 156.2 283.571C155.363 283.013 154.898 282.268 154.712 281.338C151.828 281.338 149.037 281.338 146.246 281.338C145.781 283.199 144.386 284.129 142.991 284.129C142.246 284.129 141.595 284.036 141.037 283.664C140.2 283.106 139.642 282.361 139.456 281.338C138.898 281.338 138.432 281.338 137.967 281.338C136.758 281.338 136.107 280.687 136.107 279.478C136.107 274.547 136.107 269.617 136.107 264.687C136.107 263.013 137.316 261.803 138.991 261.803C144.944 261.803 150.898 261.803 156.758 261.803C158.339 261.803 159.549 262.454 160.293 263.85C161.13 265.245 161.967 266.733 162.712 268.129C162.805 268.222 162.805 268.315 162.805 268.408C163.084 270.082 163.363 271.85 163.549 273.524C163.828 274.268 163.921 274.92 164.107 275.571ZM162.991 276.408C154.432 276.408 145.874 276.408 137.223 276.408C137.223 277.524 137.223 278.64 137.223 279.757C137.223 280.036 137.409 280.222 137.688 280.315C138.246 280.315 138.898 280.315 139.456 280.315C139.828 278.547 141.223 277.617 142.619 277.524C143.363 277.524 144.014 277.617 144.572 278.082C145.409 278.64 145.874 279.385 146.06 280.315C148.944 280.315 151.735 280.315 154.525 280.315C154.898 278.547 156.293 277.617 157.595 277.524C158.339 277.431 158.991 277.617 159.549 277.989C160.386 278.547 160.944 279.292 161.13 280.315C161.502 280.315 161.874 280.315 162.339 280.315C162.618 280.315 162.898 280.129 162.898 279.757C162.991 278.64 162.991 277.524 162.991 276.408ZM137.223 269.059C137.223 269.617 137.223 270.175 137.223 270.733C145.502 270.733 153.874 270.733 162.153 270.733C162.06 270.175 161.967 269.617 161.874 269.059C153.688 269.059 145.502 269.059 137.223 269.059ZM159.084 264.036C159.084 263.943 159.084 263.943 159.084 264.036C159.084 263.943 158.991 263.943 158.991 263.85C158.432 263.199 157.688 262.92 156.758 262.92C150.805 262.92 144.851 262.92 138.991 262.92C138.898 262.92 138.805 262.92 138.805 262.92C138.153 262.92 137.502 263.385 137.409 264.036C144.572 264.036 151.828 264.036 159.084 264.036ZM156.2 271.85C154.153 271.85 152.107 271.85 150.06 271.85C150.06 272.966 150.06 274.082 150.06 275.199C152.107 275.199 154.153 275.199 156.2 275.199C156.2 274.082 156.2 272.966 156.2 271.85ZM143.363 271.85C143.363 272.966 143.363 274.082 143.363 275.199C145.223 275.199 147.084 275.199 148.944 275.199C148.944 274.082 148.944 272.966 148.944 271.85C147.084 271.85 145.223 271.85 143.363 271.85ZM157.409 271.85C157.409 272.966 157.409 274.082 157.409 275.199C159.27 275.199 161.037 275.199 162.898 275.199C162.712 274.082 162.525 272.966 162.432 271.85C160.665 271.85 159.084 271.85 157.409 271.85ZM150.06 265.152C150.06 266.082 150.06 267.013 150.06 267.943C152.107 267.943 154.153 267.943 156.2 267.943C156.2 267.013 156.2 266.082 156.2 265.152C154.153 265.152 152.107 265.152 150.06 265.152ZM137.223 275.199C138.898 275.199 140.572 275.199 142.246 275.199C142.246 274.082 142.246 272.966 142.246 271.85C140.572 271.85 138.898 271.85 137.223 271.85C137.223 272.966 137.223 274.082 137.223 275.199ZM160.2 280.873C160.2 279.664 159.177 278.64 157.967 278.64C156.758 278.64 155.735 279.664 155.735 280.873C155.735 282.082 156.758 283.106 157.967 283.106C159.177 283.106 160.2 282.082 160.2 280.873ZM142.805 283.013C144.107 283.013 145.037 281.989 145.037 280.687C145.037 279.478 144.014 278.547 142.805 278.547C141.595 278.547 140.572 279.571 140.572 280.78C140.572 282.082 141.595 283.013 142.805 283.013ZM143.363 265.152C143.363 266.082 143.363 267.013 143.363 267.943C145.223 267.943 147.084 267.943 148.944 267.943C148.944 267.013 148.944 266.082 148.944 265.152C147.084 265.152 145.223 265.152 143.363 265.152ZM137.223 265.152C137.223 266.082 137.223 267.013 137.223 267.943C138.898 267.943 140.572 267.943 142.246 267.943C142.246 267.013 142.246 266.082 142.246 265.152C140.572 265.152 138.898 265.152 137.223 265.152ZM157.409 265.152C157.409 266.082 157.409 267.013 157.409 267.943C158.805 267.943 160.107 267.943 161.409 267.943C160.851 267.013 160.386 266.175 159.828 265.245C159.828 265.152 159.735 265.152 159.642 265.152C158.898 265.152 158.153 265.152 157.409 265.152Z" fill="#333333"/>
<path d="M162.991 276.408C162.991 277.524 162.991 278.64 162.991 279.757C162.991 280.036 162.805 280.315 162.432 280.315C162.06 280.315 161.688 280.315 161.223 280.315C161.037 279.292 160.479 278.547 159.642 277.989C159.084 277.617 158.339 277.431 157.688 277.524C156.293 277.617 154.991 278.547 154.618 280.315C151.828 280.315 148.944 280.315 146.153 280.315C145.967 279.385 145.502 278.64 144.665 278.082C144.014 277.617 143.363 277.431 142.618 277.431C141.316 277.524 139.828 278.454 139.456 280.222C138.898 280.222 138.246 280.222 137.688 280.222C137.409 280.222 137.223 280.036 137.223 279.664C137.223 278.547 137.223 277.431 137.223 276.315C145.781 276.408 154.339 276.408 162.991 276.408Z" fill="#6FC6AD"/>
<path d="M137.223 269.059C145.409 269.059 153.688 269.059 161.874 269.059C161.967 269.617 162.06 270.175 162.153 270.734C153.874 270.734 145.502 270.734 137.223 270.734C137.223 270.175 137.223 269.617 137.223 269.059Z" fill="#F7B916"/>
<path d="M159.084 264.036C151.828 264.036 144.572 264.036 137.316 264.036C137.502 263.478 138.06 263.013 138.712 262.92C138.805 262.92 138.898 262.92 138.898 262.92C144.851 262.92 150.805 262.92 156.665 262.92C157.502 262.92 158.246 263.199 158.898 263.85C159.084 263.943 159.084 263.943 159.084 264.036C159.084 263.943 159.084 263.943 159.084 264.036Z" fill="#F7B916"/>
<path d="M156.2 271.85C156.2 272.966 156.2 274.082 156.2 275.199C154.153 275.199 152.107 275.199 150.06 275.199C150.06 274.082 150.06 272.966 150.06 271.85C152.107 271.85 154.153 271.85 156.2 271.85Z" fill="white"/>
<path d="M143.363 271.85C145.223 271.85 147.084 271.85 148.944 271.85C148.944 272.966 148.944 274.082 148.944 275.199C147.084 275.199 145.223 275.199 143.363 275.199C143.363 274.082 143.363 272.966 143.363 271.85Z" fill="white"/>
<path d="M157.409 271.85C159.084 271.85 160.665 271.85 162.339 271.85C162.525 272.966 162.712 274.082 162.805 275.199C160.944 275.199 159.177 275.199 157.316 275.199C157.409 274.082 157.409 272.966 157.409 271.85Z" fill="white"/>
<path d="M150.06 265.152C152.107 265.152 154.153 265.152 156.2 265.152C156.2 266.082 156.2 267.013 156.2 267.943C154.153 267.943 152.107 267.943 150.06 267.943C150.06 267.013 150.06 266.082 150.06 265.152Z" fill="white"/>
<path d="M137.223 275.199C137.223 274.082 137.223 272.966 137.223 271.85C138.898 271.85 140.572 271.85 142.246 271.85C142.246 272.966 142.246 274.082 142.246 275.199C140.572 275.199 138.898 275.199 137.223 275.199Z" fill="white"/>
<path d="M160.2 280.873C160.2 282.082 159.177 283.106 157.967 283.106C156.758 283.106 155.735 282.082 155.735 280.873C155.735 279.664 156.758 278.64 157.967 278.64C159.177 278.547 160.2 279.571 160.2 280.873Z" fill="white"/>
<path d="M142.805 283.012C141.595 283.012 140.572 281.989 140.572 280.78C140.572 279.571 141.595 278.547 142.805 278.547C144.014 278.547 145.037 279.571 145.037 280.687C145.037 282.082 144.107 283.012 142.805 283.012Z" fill="white"/>
<path d="M143.363 265.152C145.223 265.152 147.084 265.152 148.944 265.152C148.944 266.082 148.944 267.013 148.944 267.943C147.084 267.943 145.223 267.943 143.363 267.943C143.363 267.013 143.363 266.082 143.363 265.152Z" fill="white"/>
<path d="M137.223 265.152C138.898 265.152 140.572 265.152 142.246 265.152C142.246 266.082 142.246 267.013 142.246 267.943C140.572 267.943 138.898 267.943 137.223 267.943C137.223 267.013 137.223 266.082 137.223 265.152Z" fill="white"/>
<path d="M157.409 265.152C158.153 265.152 158.991 265.152 159.735 265.152C159.828 265.152 159.921 265.245 159.921 265.245C160.386 266.082 160.944 267.013 161.502 267.943C160.107 267.943 158.805 267.943 157.502 267.943C157.409 267.013 157.409 266.082 157.409 265.152Z" fill="white"/>
<path d="M142.805 281.71C143.318 281.71 143.735 281.294 143.735 280.78C143.735 280.266 143.318 279.85 142.805 279.85C142.291 279.85 141.874 280.266 141.874 280.78C141.874 281.294 142.291 281.71 142.805 281.71Z" stroke="#333333" stroke-miterlimit="10" stroke-linecap="round" stroke-linejoin="round"/>
<path d="M157.874 281.71C158.388 281.71 158.805 281.294 158.805 280.78C158.805 280.266 158.388 279.85 157.874 279.85C157.361 279.85 156.944 280.266 156.944 280.78C156.944 281.294 157.361 281.71 157.874 281.71Z" stroke="#333333" stroke-miterlimit="10" stroke-linecap="round" stroke-linejoin="round"/>
</g>
<defs>
<clipPath id="clip0">
<rect width="26" height="40" fill="white" transform="translate(67 176)"/>
</clipPath>
<clipPath id="clip1">
<rect width="29.4" height="34.4" fill="white" transform="translate(134.707 174.873)"/>
</clipPath>
<clipPath id="clip2">
<rect width="31" height="23" fill="white" transform="translate(63.811 261)"/>
</clipPath>
<clipPath id="clip3">
<rect width="28" height="28" fill="white" transform="translate(136.107 261.803)"/>
</clipPath>
</defs>
</svg>
