<svg width="430" height="402" viewBox="0 0 430 402" fill="none" xmlns="http://www.w3.org/2000/svg">
<rect x="97.1366" y="0.643066" width="224.322" height="400.714" rx="14.5" fill="white" stroke="#333333"/>
<rect x="97.1366" y="40.2388" width="224.313" height="321.524" fill="#F7B916"/>
<rect x="97.1366" y="40.2388" width="224.313" height="321.524" fill="url(#paint0_linear)"/>
<rect x="97.1366" y="40.2388" width="224.313" height="321.524" stroke="#333333"/>
<path d="M163.26 380.895H255.326" stroke="#333333" stroke-linecap="round" stroke-linejoin="round"/>
<rect x="188.086" y="19.311" width="38.617" height="5.29028" rx="2.64514" stroke="#333333"/>
<rect x="234.348" y="19.311" width="5.37533" height="5.29028" rx="2.64514" stroke="#333333"/>
<path d="M117.556 158.216C117.556 149.932 124.272 143.216 132.556 143.216H285.913C294.197 143.216 300.913 149.932 300.913 158.216V216.439C300.913 224.724 294.197 231.44 285.913 231.44H133.988C130.401 231.44 126.932 232.725 124.211 235.064L117.556 240.783V158.216Z" fill="white"/>
<path d="M148.854 177H147.723V169.394H143.516V177H142.391V168.469H148.854V177ZM150.447 173.771C150.447 173.15 150.568 172.592 150.811 172.095C151.057 171.599 151.397 171.217 151.83 170.947C152.268 170.677 152.766 170.543 153.324 170.543C154.188 170.543 154.885 170.842 155.416 171.439C155.951 172.037 156.219 172.832 156.219 173.824V173.9C156.219 174.517 156.1 175.072 155.861 175.564C155.627 176.052 155.289 176.433 154.848 176.707C154.41 176.98 153.906 177.117 153.336 177.117C152.477 177.117 151.779 176.818 151.244 176.22C150.713 175.623 150.447 174.832 150.447 173.847V173.771ZM151.537 173.9C151.537 174.603 151.699 175.168 152.024 175.594C152.352 176.019 152.789 176.232 153.336 176.232C153.887 176.232 154.324 176.017 154.649 175.588C154.973 175.154 155.135 174.549 155.135 173.771C155.135 173.076 154.969 172.513 154.637 172.084C154.309 171.65 153.871 171.433 153.324 171.433C152.789 171.433 152.358 171.646 152.029 172.072C151.701 172.498 151.537 173.107 151.537 173.9ZM162.682 170.66V177H161.592V171.556H159.436L159.307 173.929C159.236 175.019 159.053 175.799 158.756 176.267C158.463 176.736 157.996 176.98 157.356 177H156.922V176.045L157.233 176.021C157.584 175.982 157.836 175.779 157.988 175.412C158.141 175.045 158.238 174.365 158.281 173.373L158.399 170.66H162.682ZM166.496 175.412L167.973 170.66H169.133L166.584 177.978C166.19 179.033 165.563 179.56 164.703 179.56L164.498 179.543L164.094 179.467V178.588L164.387 178.611C164.754 178.611 165.039 178.537 165.242 178.388C165.449 178.24 165.619 177.969 165.752 177.574L165.992 176.929L163.731 170.66H164.914L166.496 175.412ZM174.893 177H173.803V174.703C173.326 174.828 172.838 174.89 172.338 174.89C171.545 174.89 170.94 174.687 170.522 174.281C170.108 173.875 169.897 173.297 169.889 172.547V170.654H170.973V172.582C170.992 173.527 171.447 174 172.338 174C172.838 174 173.326 173.937 173.803 173.812V170.66H174.893V177ZM180.734 170.66H181.818V177H180.734V172.377L177.811 177H176.727V170.66H177.811V175.289L180.734 170.66ZM188.27 171.539H186.143V177H185.059V171.539H182.973V170.66H188.27V171.539ZM191.486 177.117C190.627 177.117 189.928 176.836 189.389 176.273C188.85 175.707 188.58 174.951 188.58 174.006V173.806C188.58 173.177 188.699 172.617 188.938 172.125C189.18 171.629 189.516 171.242 189.945 170.965C190.379 170.683 190.848 170.543 191.352 170.543C192.176 170.543 192.817 170.814 193.274 171.357C193.731 171.9 193.959 172.677 193.959 173.689V174.14H189.664C189.68 174.765 189.861 175.271 190.209 175.658C190.561 176.041 191.006 176.232 191.545 176.232C191.928 176.232 192.252 176.154 192.518 175.998C192.783 175.842 193.016 175.635 193.215 175.377L193.877 175.892C193.346 176.709 192.549 177.117 191.486 177.117ZM191.352 171.433C190.914 171.433 190.547 171.594 190.25 171.914C189.953 172.23 189.77 172.676 189.699 173.25H192.875V173.168C192.844 172.617 192.695 172.191 192.43 171.89C192.164 171.586 191.805 171.433 191.352 171.433ZM200.738 176.232C201.125 176.232 201.463 176.115 201.752 175.881C202.041 175.646 202.201 175.353 202.233 175.002H203.258C203.238 175.365 203.113 175.711 202.883 176.039C202.652 176.367 202.344 176.629 201.957 176.824C201.574 177.019 201.168 177.117 200.738 177.117C199.875 177.117 199.188 176.83 198.676 176.256C198.168 175.677 197.914 174.888 197.914 173.888V173.707C197.914 173.09 198.027 172.541 198.254 172.06C198.481 171.58 198.805 171.207 199.227 170.941C199.652 170.676 200.154 170.543 200.733 170.543C201.443 170.543 202.033 170.756 202.502 171.181C202.975 171.607 203.227 172.16 203.258 172.84H202.233C202.201 172.429 202.045 172.094 201.764 171.832C201.486 171.566 201.143 171.433 200.733 171.433C200.182 171.433 199.754 171.633 199.449 172.031C199.149 172.426 198.998 172.998 198.998 173.748V173.953C198.998 174.683 199.149 175.246 199.449 175.64C199.75 176.035 200.18 176.232 200.738 176.232ZM206.451 174.299H205.66V177H204.57V170.66H205.66V173.344H206.369L208.502 170.66H209.815L207.307 173.707L210.026 177H208.649L206.451 174.299ZM215.059 170.66H216.143V177H215.059V172.377L212.135 177H211.051V170.66H212.135V175.289L215.059 170.66ZM217.83 176.115L218.205 175.652C218.627 175.105 218.867 174.285 218.926 173.191L219.026 170.66H223.109V176.115H223.924V178.863H222.84V177H218.416V178.863H217.332L217.338 176.115H217.83ZM219.113 176.115H222.026V171.662H220.074L220.01 173.174C219.943 174.435 219.645 175.416 219.113 176.115ZM227.1 174.299H226.309V177H225.219V170.66H226.309V173.344H227.018L229.151 170.66H230.463L227.955 173.707L230.674 177H229.297L227.1 174.299ZM233.68 175.412L235.156 170.66H236.317L233.768 177.978C233.373 179.033 232.746 179.56 231.887 179.56L231.682 179.543L231.277 179.467V178.588L231.57 178.611C231.938 178.611 232.223 178.537 232.426 178.388C232.633 178.24 232.803 177.969 232.936 177.574L233.176 176.929L230.914 170.66H232.098L233.68 175.412ZM242.522 173.818H239.662V172.933H242.522V173.818ZM245.047 172.207H245.861C246.373 172.199 246.776 172.064 247.068 171.802C247.361 171.541 247.508 171.187 247.508 170.742C247.508 169.742 247.01 169.242 246.014 169.242C245.545 169.242 245.17 169.377 244.889 169.646C244.611 169.912 244.473 170.265 244.473 170.707H243.389C243.389 170.031 243.635 169.47 244.127 169.025C244.623 168.576 245.252 168.351 246.014 168.351C246.818 168.351 247.449 168.564 247.906 168.99C248.363 169.416 248.592 170.008 248.592 170.765C248.592 171.136 248.471 171.496 248.229 171.844C247.99 172.191 247.664 172.451 247.25 172.623C247.719 172.771 248.08 173.017 248.334 173.361C248.592 173.705 248.721 174.125 248.721 174.621C248.721 175.386 248.471 175.994 247.971 176.443C247.471 176.892 246.82 177.117 246.02 177.117C245.219 177.117 244.567 176.9 244.063 176.467C243.563 176.033 243.313 175.461 243.313 174.75H244.402C244.402 175.199 244.549 175.558 244.842 175.828C245.135 176.097 245.527 176.232 246.02 176.232C246.543 176.232 246.943 176.095 247.221 175.822C247.498 175.549 247.637 175.156 247.637 174.644C247.637 174.148 247.484 173.767 247.18 173.502C246.875 173.236 246.436 173.099 245.861 173.092H245.047V172.207ZM255.559 173.361C255.559 174.631 255.342 175.574 254.908 176.191C254.475 176.808 253.797 177.117 252.875 177.117C251.965 177.117 251.291 176.816 250.854 176.215C250.416 175.609 250.19 174.707 250.174 173.508V172.06C250.174 170.806 250.391 169.875 250.824 169.265C251.258 168.656 251.938 168.351 252.863 168.351C253.781 168.351 254.457 168.646 254.891 169.236C255.324 169.822 255.547 170.728 255.559 171.955V173.361ZM254.475 171.879C254.475 170.961 254.346 170.293 254.088 169.875C253.83 169.453 253.422 169.242 252.863 169.242C252.309 169.242 251.904 169.451 251.651 169.869C251.397 170.287 251.266 170.929 251.258 171.797V173.531C251.258 174.453 251.391 175.135 251.656 175.576C251.926 176.013 252.332 176.232 252.875 176.232C253.41 176.232 253.807 176.025 254.065 175.611C254.326 175.197 254.463 174.545 254.475 173.654V171.879ZM256.854 170.109C256.854 169.597 257.016 169.176 257.34 168.844C257.668 168.511 258.088 168.345 258.6 168.345C259.119 168.345 259.539 168.513 259.859 168.849C260.184 169.181 260.346 169.613 260.346 170.144V170.56C260.346 171.076 260.182 171.498 259.854 171.826C259.529 172.15 259.115 172.312 258.611 172.312C258.104 172.312 257.684 172.15 257.352 171.826C257.02 171.498 256.854 171.062 256.854 170.519V170.109ZM257.662 170.56C257.662 170.865 257.748 171.117 257.92 171.316C258.092 171.511 258.322 171.609 258.611 171.609C258.889 171.609 259.111 171.513 259.279 171.322C259.451 171.131 259.537 170.869 259.537 170.537V170.109C259.537 169.804 259.453 169.552 259.285 169.353C259.117 169.154 258.889 169.054 258.6 169.054C258.311 169.054 258.082 169.154 257.914 169.353C257.746 169.552 257.662 169.812 257.662 170.133V170.56ZM261.008 174.908C261.008 174.396 261.17 173.976 261.494 173.648C261.822 173.316 262.242 173.15 262.754 173.15C263.266 173.15 263.686 173.314 264.014 173.642C264.342 173.97 264.506 174.406 264.506 174.949V175.365C264.506 175.877 264.342 176.299 264.014 176.631C263.69 176.959 263.274 177.123 262.766 177.123C262.258 177.123 261.838 176.961 261.506 176.636C261.174 176.308 261.008 175.873 261.008 175.33V174.908ZM261.817 175.365C261.817 175.674 261.902 175.927 262.074 176.127C262.246 176.322 262.477 176.42 262.766 176.42C263.047 176.42 263.272 176.324 263.44 176.133C263.608 175.937 263.692 175.674 263.692 175.342V174.908C263.692 174.599 263.606 174.347 263.434 174.152C263.266 173.957 263.039 173.859 262.754 173.859C262.477 173.859 262.25 173.957 262.074 174.152C261.902 174.344 261.817 174.603 261.817 174.931V175.365ZM258.858 176.355L258.242 175.969L262.408 169.301L263.024 169.687L258.858 176.355ZM147.348 192H146.264V189.293H143.352V192H142.262V185.66H143.352V188.408H146.264V185.66H147.348V192ZM153.008 192C152.945 191.875 152.895 191.652 152.856 191.332C152.352 191.855 151.75 192.117 151.051 192.117C150.426 192.117 149.912 191.941 149.51 191.59C149.111 191.234 148.912 190.785 148.912 190.242C148.912 189.582 149.162 189.07 149.662 188.707C150.166 188.34 150.873 188.156 151.783 188.156H152.838V187.658C152.838 187.279 152.725 186.978 152.498 186.756C152.272 186.529 151.938 186.416 151.496 186.416C151.109 186.416 150.785 186.513 150.524 186.709C150.262 186.904 150.131 187.14 150.131 187.418H149.041C149.041 187.101 149.152 186.797 149.375 186.504C149.602 186.207 149.906 185.972 150.289 185.801C150.676 185.629 151.1 185.543 151.561 185.543C152.291 185.543 152.863 185.726 153.277 186.094C153.692 186.457 153.906 186.959 153.922 187.599V190.517C153.922 191.099 153.996 191.562 154.145 191.906V192H153.008ZM151.209 191.174C151.549 191.174 151.871 191.086 152.176 190.91C152.481 190.734 152.701 190.506 152.838 190.224V188.924H151.988C150.66 188.924 149.996 189.312 149.996 190.09C149.996 190.429 150.109 190.695 150.336 190.886C150.563 191.078 150.854 191.174 151.209 191.174ZM161.141 191.232C161.527 191.232 161.865 191.115 162.154 190.881C162.443 190.646 162.604 190.353 162.635 190.002H163.66C163.641 190.365 163.516 190.711 163.285 191.039C163.055 191.367 162.746 191.629 162.359 191.824C161.977 192.019 161.57 192.117 161.141 192.117C160.277 192.117 159.59 191.83 159.078 191.256C158.57 190.677 158.317 189.888 158.317 188.888V188.707C158.317 188.09 158.43 187.541 158.656 187.06C158.883 186.58 159.207 186.207 159.629 185.941C160.055 185.676 160.557 185.543 161.135 185.543C161.846 185.543 162.436 185.756 162.904 186.181C163.377 186.607 163.629 187.16 163.66 187.84H162.635C162.604 187.429 162.447 187.094 162.166 186.832C161.889 186.566 161.545 186.433 161.135 186.433C160.584 186.433 160.156 186.633 159.852 187.031C159.551 187.426 159.401 187.998 159.401 188.748V188.953C159.401 189.683 159.551 190.246 159.852 190.64C160.152 191.035 160.582 191.232 161.141 191.232ZM164.592 188.771C164.592 188.15 164.713 187.592 164.955 187.095C165.201 186.599 165.541 186.217 165.975 185.947C166.412 185.677 166.91 185.543 167.469 185.543C168.332 185.543 169.029 185.842 169.561 186.439C170.096 187.037 170.363 187.832 170.363 188.824V188.9C170.363 189.517 170.244 190.072 170.006 190.564C169.772 191.052 169.434 191.433 168.992 191.707C168.555 191.98 168.051 192.117 167.481 192.117C166.621 192.117 165.924 191.818 165.389 191.22C164.858 190.623 164.592 189.832 164.592 188.847V188.771ZM165.682 188.9C165.682 189.603 165.844 190.168 166.168 190.594C166.496 191.019 166.934 191.232 167.481 191.232C168.031 191.232 168.469 191.017 168.793 190.588C169.117 190.154 169.279 189.549 169.279 188.771C169.279 188.076 169.113 187.513 168.781 187.084C168.453 186.65 168.016 186.433 167.469 186.433C166.934 186.433 166.502 186.646 166.174 187.072C165.846 187.498 165.682 188.107 165.682 188.9ZM171.488 188.947C171.488 187.888 171.693 187.056 172.104 186.451C172.514 185.845 173.076 185.543 173.791 185.543C174.123 185.543 174.414 185.599 174.664 185.713V183H175.748V185.748C176.022 185.611 176.342 185.543 176.709 185.543C177.428 185.543 177.992 185.845 178.402 186.451C178.813 187.056 179.018 187.929 179.018 189.07C179.018 190.004 178.813 190.746 178.402 191.297C177.996 191.847 177.436 192.123 176.721 192.123C176.342 192.123 176.018 192.06 175.748 191.935V194.437H174.664V191.953C174.406 192.066 174.111 192.123 173.779 192.123C173.068 192.123 172.508 191.847 172.098 191.297C171.692 190.746 171.488 189.992 171.488 189.035V188.947ZM177.934 188.947C177.934 188.15 177.797 187.533 177.524 187.095C177.25 186.654 176.873 186.433 176.393 186.433C176.147 186.433 175.932 186.472 175.748 186.551V191.138C175.924 191.205 176.143 191.238 176.404 191.238C176.889 191.238 177.264 191.051 177.529 190.676C177.799 190.301 177.934 189.724 177.934 188.947ZM172.572 189.07C172.572 189.781 172.699 190.32 172.953 190.687C173.207 191.054 173.572 191.238 174.049 191.238C174.276 191.238 174.481 191.203 174.664 191.133V186.533C174.5 186.467 174.299 186.433 174.061 186.433C173.584 186.433 173.217 186.646 172.959 187.072C172.701 187.498 172.572 188.164 172.572 189.07ZM184.672 186.539H182.545V192H181.461V186.539H179.375V185.66H184.672V186.539ZM193.889 192H192.805V186.556H189.887V192H188.797V185.66H193.889V192ZM200.984 188.9C200.984 189.865 200.764 190.642 200.322 191.232C199.881 191.822 199.283 192.117 198.529 192.117C197.76 192.117 197.154 191.873 196.713 191.385V194.437H195.629V185.66H196.619L196.672 186.363C197.113 185.816 197.727 185.543 198.512 185.543C199.274 185.543 199.875 185.83 200.317 186.404C200.762 186.978 200.984 187.777 200.984 188.801V188.9ZM199.901 188.777C199.901 188.062 199.748 187.498 199.443 187.084C199.139 186.67 198.721 186.463 198.19 186.463C197.533 186.463 197.041 186.754 196.713 187.336V190.365C197.037 190.943 197.533 191.232 198.201 191.232C198.721 191.232 199.133 191.027 199.438 190.617C199.746 190.203 199.901 189.59 199.901 188.777ZM206.469 185.66H207.553V192H206.469V187.377L203.545 192H202.461V185.66H203.545V190.289L206.469 185.66ZM217.455 192H216.371V186.556H213.453V192H212.363V185.66H217.455V192ZM218.908 188.771C218.908 188.15 219.029 187.592 219.272 187.095C219.518 186.599 219.858 186.217 220.291 185.947C220.729 185.677 221.227 185.543 221.785 185.543C222.649 185.543 223.346 185.842 223.877 186.439C224.412 187.037 224.68 187.832 224.68 188.824V188.9C224.68 189.517 224.561 190.072 224.322 190.564C224.088 191.052 223.75 191.433 223.309 191.707C222.871 191.98 222.367 192.117 221.797 192.117C220.938 192.117 220.24 191.818 219.705 191.22C219.174 190.623 218.908 189.832 218.908 188.847V188.771ZM219.998 188.9C219.998 189.603 220.16 190.168 220.484 190.594C220.813 191.019 221.25 191.232 221.797 191.232C222.348 191.232 222.785 191.017 223.109 190.588C223.434 190.154 223.596 189.549 223.596 188.771C223.596 188.076 223.43 187.513 223.098 187.084C222.77 186.65 222.332 186.433 221.785 186.433C221.25 186.433 220.818 186.646 220.49 187.072C220.162 187.498 219.998 188.107 219.998 188.9ZM228.014 189.299H227.223V192H226.133V185.66H227.223V188.344H227.932L230.065 185.66H231.377L228.869 188.707L231.588 192H230.211L228.014 189.299ZM234.594 190.412L236.07 185.66H237.231L234.682 192.978C234.287 194.033 233.66 194.56 232.801 194.56L232.596 194.543L232.192 194.467V193.588L232.484 193.611C232.852 193.611 233.137 193.537 233.34 193.388C233.547 193.24 233.717 192.969 233.85 192.574L234.09 191.929L231.828 185.66H233.012L234.594 190.412ZM243.389 192H242.305V186.556H239.387V192H238.297V185.66H243.389V192ZM247.104 189.299H246.313V192H245.223V185.66H246.313V188.344H247.022L249.154 185.66H250.467L247.959 188.707L250.678 192H249.301L247.104 189.299ZM254.147 192.117C253.287 192.117 252.588 191.836 252.049 191.273C251.51 190.707 251.24 189.951 251.24 189.006V188.806C251.24 188.177 251.359 187.617 251.598 187.125C251.84 186.629 252.176 186.242 252.606 185.965C253.039 185.683 253.508 185.543 254.012 185.543C254.836 185.543 255.477 185.814 255.934 186.357C256.391 186.9 256.619 187.677 256.619 188.689V189.14H252.324C252.34 189.765 252.522 190.271 252.869 190.658C253.221 191.041 253.666 191.232 254.205 191.232C254.588 191.232 254.912 191.154 255.178 190.998C255.443 190.842 255.676 190.635 255.875 190.377L256.537 190.892C256.006 191.709 255.209 192.117 254.147 192.117ZM254.012 186.433C253.574 186.433 253.207 186.594 252.91 186.914C252.613 187.23 252.43 187.676 252.359 188.25H255.535V188.168C255.504 187.617 255.356 187.191 255.09 186.89C254.824 186.586 254.465 186.433 254.012 186.433ZM260.803 191.115L261.178 190.652C261.6 190.105 261.84 189.285 261.899 188.191L261.998 185.66H266.082V191.115H266.897V193.863H265.813V192H261.389V193.863H260.305L260.311 191.115H260.803ZM262.086 191.115H264.998V186.662H263.047L262.983 188.174C262.916 189.435 262.617 190.416 262.086 191.115ZM267.811 188.771C267.811 188.15 267.932 187.592 268.174 187.095C268.42 186.599 268.76 186.217 269.193 185.947C269.631 185.677 270.129 185.543 270.688 185.543C271.551 185.543 272.248 185.842 272.779 186.439C273.315 187.037 273.582 187.832 273.582 188.824V188.9C273.582 189.517 273.463 190.072 273.225 190.564C272.99 191.052 272.652 191.433 272.211 191.707C271.774 191.98 271.27 192.117 270.699 192.117C269.84 192.117 269.143 191.818 268.608 191.22C268.076 190.623 267.811 189.832 267.811 188.847V188.771ZM268.901 188.9C268.901 189.603 269.063 190.168 269.387 190.594C269.715 191.019 270.152 191.232 270.699 191.232C271.25 191.232 271.688 191.017 272.012 190.588C272.336 190.154 272.498 189.549 272.498 188.771C272.498 188.076 272.332 187.513 272 187.084C271.672 186.65 271.234 186.433 270.688 186.433C270.152 186.433 269.721 186.646 269.393 187.072C269.065 187.498 268.901 188.107 268.901 188.9ZM144.143 204.299H143.352V207H142.262V200.66H143.352V203.344H144.061L146.193 200.66H147.506L144.998 203.707L147.717 207H146.34L144.143 204.299ZM148.233 203.771C148.233 203.15 148.354 202.592 148.596 202.095C148.842 201.599 149.182 201.217 149.615 200.947C150.053 200.677 150.551 200.543 151.109 200.543C151.973 200.543 152.67 200.842 153.201 201.439C153.736 202.037 154.004 202.832 154.004 203.824V203.9C154.004 204.517 153.885 205.072 153.647 205.564C153.412 206.052 153.074 206.433 152.633 206.707C152.195 206.98 151.692 207.117 151.121 207.117C150.262 207.117 149.565 206.818 149.029 206.22C148.498 205.623 148.233 204.832 148.233 203.847V203.771ZM149.322 203.9C149.322 204.603 149.484 205.168 149.809 205.594C150.137 206.019 150.574 206.232 151.121 206.232C151.672 206.232 152.109 206.017 152.434 205.588C152.758 205.154 152.92 204.549 152.92 203.771C152.92 203.076 152.754 202.513 152.422 202.084C152.094 201.65 151.656 201.433 151.109 201.433C150.574 201.433 150.143 201.646 149.815 202.072C149.486 202.498 149.322 203.107 149.322 203.9ZM160.543 207H159.459V204.293H156.547V207H155.457V200.66H156.547V203.408H159.459V200.66H160.543V207ZM162.383 200.66H163.473V206.115H166.391V200.66H167.475V206.115H168.231L168.125 208.881H167.152V207H162.383V200.66ZM173.317 207C173.254 206.875 173.203 206.652 173.164 206.332C172.66 206.855 172.059 207.117 171.359 207.117C170.734 207.117 170.221 206.941 169.818 206.59C169.42 206.234 169.221 205.785 169.221 205.242C169.221 204.582 169.471 204.07 169.971 203.707C170.475 203.34 171.182 203.156 172.092 203.156H173.147V202.658C173.147 202.279 173.033 201.978 172.807 201.756C172.58 201.529 172.246 201.416 171.805 201.416C171.418 201.416 171.094 201.513 170.832 201.709C170.57 201.904 170.44 202.14 170.44 202.418H169.35C169.35 202.101 169.461 201.797 169.684 201.504C169.91 201.207 170.215 200.972 170.598 200.801C170.984 200.629 171.408 200.543 171.869 200.543C172.6 200.543 173.172 200.726 173.586 201.094C174 201.457 174.215 201.959 174.231 202.599V205.517C174.231 206.099 174.305 206.562 174.453 206.906V207H173.317ZM171.518 206.174C171.858 206.174 172.18 206.086 172.484 205.91C172.789 205.734 173.01 205.506 173.147 205.224V203.924H172.297C170.969 203.924 170.305 204.312 170.305 205.09C170.305 205.429 170.418 205.695 170.645 205.886C170.871 206.078 171.162 206.174 171.518 206.174ZM178.854 206.115L179.229 205.652C179.651 205.105 179.891 204.285 179.949 203.191L180.049 200.66H184.133V206.115H184.947V208.863H183.863V207H179.44V208.863H178.356L178.361 206.115H178.854ZM180.137 206.115H183.049V201.662H181.098L181.033 203.174C180.967 204.435 180.668 205.416 180.137 206.115ZM191.328 207H190.244V204.293H187.332V207H186.242V200.66H187.332V203.408H190.244V200.66H191.328V207ZM197.92 200.66V207H196.83V204.533H195.195L193.701 207H192.529L194.123 204.369C193.717 204.22 193.404 203.992 193.186 203.683C192.971 203.371 192.863 203.008 192.863 202.594C192.863 202.015 193.08 201.551 193.514 201.199C193.947 200.844 194.527 200.664 195.254 200.66H197.92ZM193.953 202.605C193.953 202.914 194.059 203.164 194.27 203.355C194.481 203.543 194.76 203.638 195.108 203.642H196.83V201.539H195.272C194.869 201.539 194.549 201.638 194.311 201.838C194.072 202.033 193.953 202.289 193.953 202.605ZM200.873 204.592H199.895L199.818 198.469H200.955L200.873 204.592ZM199.777 206.455C199.777 206.279 199.83 206.133 199.936 206.015C200.045 205.894 200.205 205.834 200.416 205.834C200.627 205.834 200.787 205.894 200.897 206.015C201.006 206.133 201.061 206.279 201.061 206.455C201.061 206.631 201.006 206.777 200.897 206.894C200.787 207.008 200.627 207.064 200.416 207.064C200.205 207.064 200.045 207.008 199.936 206.894C199.83 206.777 199.777 206.631 199.777 206.455Z" fill="#333333"/>
<path d="M194.127 100.763C193.484 100.579 193.015 100.352 192.721 100.084C192.429 99.8129 192.284 99.4796 192.284 99.0837C192.284 98.6358 192.462 98.266 192.819 97.9744C193.178 97.6801 193.644 97.533 194.217 97.533C194.608 97.533 194.955 97.6085 195.26 97.7595C195.567 97.9106 195.804 98.1189 195.971 98.3845C196.14 98.6501 196.225 98.9405 196.225 99.2556H195.471C195.471 98.9119 195.362 98.6423 195.143 98.447C194.924 98.2491 194.616 98.1501 194.217 98.1501C193.847 98.1501 193.558 98.2322 193.35 98.3962C193.144 98.5577 193.041 98.783 193.041 99.072C193.041 99.3038 193.139 99.5004 193.334 99.6619C193.532 99.8207 193.867 99.9666 194.338 100.099C194.812 100.232 195.182 100.379 195.448 100.541C195.716 100.7 195.914 100.886 196.041 101.099C196.172 101.313 196.237 101.564 196.237 101.853C196.237 102.314 196.057 102.684 195.698 102.963C195.338 103.239 194.858 103.377 194.256 103.377C193.866 103.377 193.501 103.302 193.162 103.154C192.824 103.003 192.562 102.797 192.377 102.537C192.195 102.276 192.104 101.981 192.104 101.65H192.858C192.858 101.994 192.984 102.266 193.237 102.467C193.492 102.664 193.832 102.763 194.256 102.763C194.652 102.763 194.955 102.683 195.166 102.521C195.377 102.36 195.483 102.14 195.483 101.861C195.483 101.582 195.385 101.368 195.19 101.217C194.994 101.063 194.64 100.912 194.127 100.763ZM198.17 97.6111L200.03 102.252L201.889 97.6111H202.862V103.299H202.112V101.084L202.182 98.6931L200.315 103.299H199.741L197.877 98.7048L197.951 101.084V103.299H197.201V97.6111H198.17ZM205.862 100.763C205.218 100.579 204.75 100.352 204.455 100.084C204.164 99.8129 204.018 99.4796 204.018 99.0837C204.018 98.6358 204.196 98.266 204.553 97.9744C204.912 97.6801 205.379 97.533 205.951 97.533C206.342 97.533 206.69 97.6085 206.994 97.7595C207.302 97.9106 207.539 98.1189 207.705 98.3845C207.875 98.6501 207.959 98.9405 207.959 99.2556H207.205C207.205 98.9119 207.096 98.6423 206.877 98.447C206.659 98.2491 206.35 98.1501 205.951 98.1501C205.582 98.1501 205.293 98.2322 205.084 98.3962C204.879 98.5577 204.776 98.783 204.776 99.072C204.776 99.3038 204.873 99.5004 205.069 99.6619C205.267 99.8207 205.601 99.9666 206.073 100.099C206.547 100.232 206.916 100.379 207.182 100.541C207.45 100.7 207.648 100.886 207.776 101.099C207.906 101.313 207.971 101.564 207.971 101.853C207.971 102.314 207.791 102.684 207.432 102.963C207.073 103.239 206.592 103.377 205.991 103.377C205.6 103.377 205.235 103.302 204.897 103.154C204.558 103.003 204.297 102.797 204.112 102.537C203.929 102.276 203.838 101.981 203.838 101.65H204.592C204.592 101.994 204.718 102.266 204.971 102.467C205.226 102.664 205.566 102.763 205.991 102.763C206.386 102.763 206.69 102.683 206.901 102.521C207.112 102.36 207.217 102.14 207.217 101.861C207.217 101.582 207.119 101.368 206.924 101.217C206.729 101.063 206.375 100.912 205.862 100.763ZM208.967 103.787H208.346L210.721 97.6111H211.338L208.967 103.787ZM213.201 97.6111L215.061 102.252L216.92 97.6111H217.893V103.299H217.143V101.084L217.213 98.6931L215.346 103.299H214.772L212.909 98.7048L212.983 101.084V103.299H212.233V97.6111H213.201ZM220.186 97.6111L222.045 102.252L223.905 97.6111H224.877V103.299H224.127V101.084L224.198 98.6931L222.33 103.299H221.756L219.893 98.7048L219.967 101.084V103.299H219.217V97.6111H220.186ZM227.877 100.763C227.234 100.579 226.765 100.352 226.471 100.084C226.179 99.8129 226.034 99.4796 226.034 99.0837C226.034 98.6358 226.212 98.266 226.569 97.9744C226.928 97.6801 227.394 97.533 227.967 97.533C228.358 97.533 228.705 97.6085 229.01 97.7595C229.317 97.9106 229.554 98.1189 229.721 98.3845C229.89 98.6501 229.975 98.9405 229.975 99.2556H229.221C229.221 98.9119 229.112 98.6423 228.893 98.447C228.674 98.2491 228.366 98.1501 227.967 98.1501C227.597 98.1501 227.308 98.2322 227.1 98.3962C226.894 98.5577 226.791 98.783 226.791 99.072C226.791 99.3038 226.889 99.5004 227.084 99.6619C227.282 99.8207 227.617 99.9666 228.088 100.099C228.562 100.232 228.932 100.379 229.198 100.541C229.466 100.7 229.664 100.886 229.791 101.099C229.922 101.313 229.987 101.564 229.987 101.853C229.987 102.314 229.807 102.684 229.448 102.963C229.088 103.239 228.608 103.377 228.006 103.377C227.616 103.377 227.251 103.302 226.912 103.154C226.574 103.003 226.312 102.797 226.127 102.537C225.945 102.276 225.854 101.981 225.854 101.65H226.608C226.608 101.994 226.734 102.266 226.987 102.467C227.242 102.664 227.582 102.763 228.006 102.763C228.402 102.763 228.705 102.683 228.916 102.521C229.127 102.36 229.233 102.14 229.233 101.861C229.233 101.582 229.135 101.368 228.94 101.217C228.744 101.063 228.39 100.912 227.877 100.763ZM189.545 115.299V109.611H191.405C192.022 109.611 192.485 109.739 192.795 109.994C193.108 110.249 193.264 110.627 193.264 111.127C193.264 111.392 193.188 111.628 193.037 111.834C192.886 112.037 192.681 112.194 192.42 112.306C192.728 112.392 192.97 112.556 193.147 112.799C193.326 113.038 193.416 113.325 193.416 113.658C193.416 114.168 193.251 114.569 192.92 114.861C192.589 115.153 192.122 115.299 191.518 115.299H189.545ZM190.295 112.638V114.685H191.534C191.882 114.685 192.157 114.595 192.358 114.416C192.561 114.233 192.662 113.983 192.662 113.666C192.662 112.981 192.29 112.638 191.545 112.638H190.295ZM190.295 112.037H191.428C191.756 112.037 192.018 111.955 192.213 111.791C192.411 111.627 192.51 111.404 192.51 111.123C192.51 110.81 192.419 110.584 192.237 110.443C192.054 110.3 191.777 110.228 191.405 110.228H190.295V112.037ZM197.608 115.299H196.881V113.767C196.563 113.851 196.238 113.892 195.905 113.892C195.376 113.892 194.972 113.757 194.694 113.486C194.418 113.215 194.277 112.83 194.272 112.33V111.068H194.994V112.353C195.007 112.983 195.311 113.299 195.905 113.299C196.238 113.299 196.563 113.257 196.881 113.174V111.072H197.608V115.299ZM200.522 115.377C199.949 115.377 199.483 115.189 199.123 114.814C198.764 114.437 198.584 113.933 198.584 113.302V113.17C198.584 112.75 198.664 112.377 198.823 112.049C198.984 111.718 199.208 111.46 199.494 111.275C199.784 111.088 200.096 110.994 200.432 110.994C200.981 110.994 201.409 111.175 201.713 111.537C202.018 111.899 202.17 112.417 202.17 113.092V113.392H199.307C199.317 113.809 199.438 114.146 199.67 114.404C199.905 114.659 200.201 114.787 200.561 114.787C200.816 114.787 201.032 114.735 201.209 114.631C201.386 114.526 201.541 114.388 201.674 114.217L202.116 114.56C201.761 115.105 201.23 115.377 200.522 115.377ZM200.432 111.588C200.14 111.588 199.895 111.694 199.698 111.908C199.5 112.119 199.377 112.416 199.33 112.799H201.448V112.744C201.427 112.377 201.328 112.093 201.151 111.892C200.974 111.689 200.734 111.588 200.432 111.588ZM206.58 113.232C206.58 113.875 206.433 114.394 206.139 114.787C205.845 115.18 205.446 115.377 204.944 115.377C204.431 115.377 204.027 115.214 203.733 114.888V116.924H203.01V111.072H203.67L203.705 111.541C204 111.176 204.409 110.994 204.932 110.994C205.44 110.994 205.841 111.185 206.135 111.568C206.432 111.951 206.58 112.483 206.58 113.166V113.232ZM205.858 113.15C205.858 112.674 205.756 112.297 205.553 112.021C205.35 111.745 205.071 111.607 204.717 111.607C204.28 111.607 203.951 111.801 203.733 112.189V114.209C203.949 114.594 204.28 114.787 204.725 114.787C205.071 114.787 205.346 114.65 205.549 114.377C205.755 114.101 205.858 113.692 205.858 113.15ZM210.112 115.299C210.07 115.215 210.036 115.067 210.01 114.853C209.674 115.202 209.273 115.377 208.807 115.377C208.39 115.377 208.048 115.26 207.78 115.025C207.514 114.788 207.381 114.489 207.381 114.127C207.381 113.687 207.548 113.345 207.881 113.103C208.217 112.858 208.688 112.736 209.295 112.736H209.998V112.404C209.998 112.151 209.923 111.951 209.772 111.802C209.621 111.651 209.398 111.576 209.104 111.576C208.846 111.576 208.63 111.641 208.455 111.771C208.281 111.901 208.194 112.059 208.194 112.244H207.467C207.467 112.033 207.541 111.83 207.69 111.635C207.841 111.437 208.044 111.28 208.299 111.166C208.557 111.051 208.839 110.994 209.147 110.994C209.634 110.994 210.015 111.116 210.291 111.361C210.567 111.603 210.711 111.938 210.721 112.365V114.31C210.721 114.698 210.77 115.007 210.869 115.236V115.299H210.112ZM208.912 114.748C209.139 114.748 209.354 114.689 209.557 114.572C209.76 114.455 209.907 114.302 209.998 114.115V113.248H209.432C208.547 113.248 208.104 113.507 208.104 114.025C208.104 114.252 208.179 114.429 208.33 114.556C208.481 114.684 208.675 114.748 208.912 114.748ZM216.139 115.299H215.412V110.482L213.955 111.017V110.361L216.026 109.584H216.139V115.299ZM221.983 115.299H218.256V114.779L220.225 112.592C220.517 112.261 220.717 111.993 220.826 111.787C220.938 111.579 220.994 111.364 220.994 111.142C220.994 110.845 220.905 110.602 220.725 110.412C220.545 110.222 220.306 110.127 220.006 110.127C219.647 110.127 219.367 110.23 219.166 110.435C218.968 110.638 218.869 110.922 218.869 111.287H218.147C218.147 110.763 218.315 110.34 218.651 110.017C218.989 109.694 219.441 109.533 220.006 109.533C220.535 109.533 220.953 109.672 221.26 109.951C221.567 110.227 221.721 110.595 221.721 111.056C221.721 111.616 221.364 112.283 220.651 113.056L219.127 114.709H221.983V115.299ZM222.799 114.92C222.799 114.795 222.836 114.691 222.909 114.607C222.984 114.524 223.096 114.482 223.244 114.482C223.393 114.482 223.505 114.524 223.58 114.607C223.659 114.691 223.698 114.795 223.698 114.92C223.698 115.039 223.659 115.14 223.58 115.22C223.505 115.301 223.393 115.342 223.244 115.342C223.096 115.342 222.984 115.301 222.909 115.22C222.836 115.14 222.799 115.039 222.799 114.92ZM222.803 111.47C222.803 111.345 222.839 111.241 222.912 111.158C222.988 111.075 223.1 111.033 223.248 111.033C223.397 111.033 223.509 111.075 223.584 111.158C223.662 111.241 223.701 111.345 223.701 111.47C223.701 111.59 223.662 111.691 223.584 111.771C223.509 111.852 223.397 111.892 223.248 111.892C223.1 111.892 222.988 111.852 222.912 111.771C222.839 111.691 222.803 111.59 222.803 111.47ZM228.412 115.299H224.686V114.779L226.655 112.592C226.946 112.261 227.147 111.993 227.256 111.787C227.368 111.579 227.424 111.364 227.424 111.142C227.424 110.845 227.334 110.602 227.155 110.412C226.975 110.222 226.735 110.127 226.436 110.127C226.076 110.127 225.797 110.23 225.596 110.435C225.398 110.638 225.299 110.922 225.299 111.287H224.576C224.576 110.763 224.744 110.34 225.08 110.017C225.419 109.694 225.871 109.533 226.436 109.533C226.964 109.533 227.382 109.672 227.69 109.951C227.997 110.227 228.151 110.595 228.151 111.056C228.151 111.616 227.794 112.283 227.08 113.056L225.557 114.709H228.412V115.299ZM232.014 109.607V110.22H231.881C231.319 110.231 230.871 110.398 230.537 110.72C230.204 111.043 230.011 111.498 229.959 112.084C230.259 111.74 230.668 111.568 231.186 111.568C231.681 111.568 232.075 111.743 232.369 112.092C232.666 112.441 232.815 112.891 232.815 113.443C232.815 114.029 232.655 114.498 232.334 114.849C232.017 115.201 231.589 115.377 231.053 115.377C230.509 115.377 230.067 115.168 229.729 114.752C229.39 114.332 229.221 113.793 229.221 113.135V112.857C229.221 111.81 229.444 111.011 229.889 110.459C230.337 109.904 231.002 109.62 231.885 109.607H232.014ZM231.065 112.17C230.817 112.17 230.589 112.244 230.381 112.392C230.173 112.541 230.028 112.727 229.948 112.951V113.217C229.948 113.685 230.053 114.063 230.264 114.349C230.475 114.636 230.738 114.779 231.053 114.779C231.379 114.779 231.634 114.659 231.819 114.42C232.006 114.18 232.1 113.866 232.1 113.478C232.1 113.088 232.005 112.773 231.815 112.533C231.627 112.291 231.377 112.17 231.065 112.17Z" fill="#333333"/>
<rect x="97.6336" y="40.7307" width="223.326" height="48.135" fill="white" fill-opacity="0.8"/>
<path d="M196.876 81.1665C196.275 81.1665 195.786 80.9777 195.411 80.6001C195.039 80.2199 194.853 79.7147 194.853 79.0845V78.9673C194.853 78.5454 194.933 78.1691 195.095 77.8384C195.259 77.505 195.488 77.2459 195.782 77.061C196.077 76.8761 196.405 76.7837 196.767 76.7837C197.342 76.7837 197.786 76.9673 198.099 77.3345C198.414 77.7017 198.571 78.2212 198.571 78.8931V79.2759H195.81C195.838 79.6248 195.954 79.9009 196.157 80.104C196.363 80.3071 196.621 80.4087 196.931 80.4087C197.366 80.4087 197.72 80.2329 197.993 79.8813L198.505 80.3696C198.336 80.6222 198.109 80.8188 197.825 80.9595C197.544 81.0975 197.228 81.1665 196.876 81.1665ZM196.763 77.5454C196.502 77.5454 196.292 77.6366 196.13 77.8188C195.971 78.0011 195.87 78.255 195.825 78.5806H197.634V78.5103C197.613 78.1925 197.529 77.953 197.38 77.7915C197.232 77.6274 197.026 77.5454 196.763 77.5454ZM200.392 78.9751V81.0884H199.404V75.4009H201.579C202.215 75.4009 202.719 75.5662 203.091 75.897C203.466 76.2277 203.654 76.6652 203.654 77.2095C203.654 77.7668 203.47 78.2004 203.103 78.5103C202.738 78.8201 202.226 78.9751 201.568 78.9751H200.392ZM200.392 78.1821H201.579C201.931 78.1821 202.199 78.1001 202.384 77.936C202.569 77.7694 202.661 77.5298 202.661 77.2173C202.661 76.91 202.568 76.6652 202.38 76.4829C202.193 76.298 201.935 76.203 201.607 76.1978H200.392V78.1821ZM204.196 78.936C204.196 78.522 204.279 78.1496 204.443 77.8188C204.607 77.4855 204.837 77.2303 205.134 77.0532C205.431 76.8735 205.772 76.7837 206.157 76.7837C206.728 76.7837 207.19 76.9673 207.544 77.3345C207.901 77.7017 208.094 78.1886 208.122 78.7954L208.126 79.0181C208.126 79.4347 208.045 79.8071 207.884 80.1353C207.725 80.4634 207.496 80.7173 207.196 80.897C206.9 81.0767 206.556 81.1665 206.165 81.1665C205.569 81.1665 205.091 80.9686 204.732 80.5728C204.375 80.1743 204.196 79.6444 204.196 78.9829V78.936ZM205.146 79.0181C205.146 79.453 205.236 79.7941 205.415 80.0415C205.595 80.2863 205.845 80.4087 206.165 80.4087C206.486 80.4087 206.734 80.2837 206.911 80.0337C207.091 79.7837 207.181 79.4178 207.181 78.936C207.181 78.509 207.088 78.1704 206.904 77.9204C206.721 77.6704 206.473 77.5454 206.157 77.5454C205.848 77.5454 205.601 77.6691 205.419 77.9165C205.237 78.1613 205.146 78.5285 205.146 79.0181ZM210.665 80.4087C210.902 80.4087 211.099 80.3397 211.255 80.2017C211.411 80.0636 211.495 79.8931 211.505 79.6899H212.4C212.389 79.953 212.307 80.1991 212.154 80.4282C212 80.6548 211.792 80.8345 211.529 80.9673C211.265 81.1001 210.982 81.1665 210.677 81.1665C210.086 81.1665 209.617 80.9751 209.271 80.5923C208.924 80.2095 208.751 79.6808 208.751 79.0063V78.9087C208.751 78.2655 208.923 77.7511 209.267 77.3657C209.611 76.9777 210.079 76.7837 210.673 76.7837C211.176 76.7837 211.584 76.9308 211.9 77.2251C212.217 77.5168 212.384 77.9009 212.4 78.3774H211.505C211.495 78.1353 211.411 77.936 211.255 77.7798C211.101 77.6235 210.905 77.5454 210.665 77.5454C210.358 77.5454 210.121 77.6574 209.954 77.8813C209.788 78.1027 209.703 78.4399 209.7 78.8931V79.0454C209.7 79.5037 209.782 79.8462 209.946 80.0728C210.113 80.2967 210.353 80.4087 210.665 80.4087ZM214.052 77.3228C214.362 76.9634 214.754 76.7837 215.228 76.7837C216.129 76.7837 216.586 77.298 216.599 78.3267V81.0884H215.65V78.3618C215.65 78.0701 215.586 77.8644 215.458 77.7446C215.333 77.6222 215.148 77.561 214.904 77.561C214.523 77.561 214.239 77.7303 214.052 78.0688V81.0884H213.103V75.0884H214.052V77.3228ZM218.751 75.8345V76.8618H219.497V77.5649H218.751V79.9243C218.751 80.0858 218.782 80.203 218.845 80.2759C218.91 80.3462 219.025 80.3813 219.189 80.3813C219.298 80.3813 219.409 80.3683 219.521 80.3423V81.0767C219.305 81.1366 219.096 81.1665 218.896 81.1665C218.167 81.1665 217.802 80.7642 217.802 79.9595V77.5649H217.107V76.8618H217.802V75.8345H218.751ZM222.751 81.0884C222.709 81.0076 222.673 80.8761 222.642 80.6938C222.34 81.009 221.97 81.1665 221.532 81.1665C221.108 81.1665 220.762 81.0454 220.493 80.8032C220.225 80.561 220.091 80.2616 220.091 79.9048C220.091 79.4543 220.258 79.1092 220.591 78.8696C220.927 78.6274 221.406 78.5063 222.029 78.5063H222.611V78.229C222.611 78.0103 222.549 77.8358 222.427 77.7056C222.305 77.5728 222.118 77.5063 221.868 77.5063C221.652 77.5063 221.475 77.561 221.337 77.6704C221.199 77.7772 221.13 77.9139 221.13 78.0806H220.181C220.181 77.8488 220.258 77.6326 220.411 77.4321C220.565 77.229 220.773 77.0701 221.036 76.9556C221.302 76.841 221.598 76.7837 221.923 76.7837C222.418 76.7837 222.812 76.9087 223.107 77.1587C223.401 77.4061 223.552 77.755 223.56 78.2056V80.1118C223.56 80.492 223.613 80.7954 223.72 81.022V81.0884H222.751ZM221.708 80.4048C221.896 80.4048 222.071 80.3592 222.236 80.2681C222.402 80.1769 222.527 80.0545 222.611 79.9009V79.104H222.099C221.747 79.104 221.483 79.1652 221.306 79.2876C221.129 79.41 221.04 79.5832 221.04 79.8071C221.04 79.9894 221.1 80.1353 221.22 80.2446C221.342 80.3514 221.505 80.4048 221.708 80.4048Z" fill="#333333"/>
<path d="M116.303 64.4379C116.104 64.6294 116.098 64.9459 116.289 65.1449L119.409 68.3876C119.601 68.5866 119.917 68.5927 120.116 68.4012C120.315 68.2098 120.321 67.8932 120.13 67.6942L117.356 64.8118L120.239 62.0384C120.438 61.847 120.444 61.5305 120.252 61.3315C120.061 61.1325 119.744 61.1264 119.545 61.3178L116.303 64.4379ZM117.566 64.3158L116.659 64.2983L116.64 65.2981L117.546 65.3156L117.566 64.3158Z" fill="#1062AA"/>
<path d="M235.959 78.9931C236.096 78.8564 236.096 78.6348 235.959 78.4981L233.732 76.2707C233.595 76.134 233.374 76.134 233.237 76.2707C233.1 76.4074 233.1 76.629 233.237 76.7657L235.217 78.7456L233.237 80.7255C233.1 80.8622 233.1 81.0838 233.237 81.2205C233.374 81.3572 233.595 81.3572 233.732 81.2205L235.959 78.9931ZM235.299 79.0956L235.712 79.0956L235.712 78.3956L235.299 78.3956L235.299 79.0956Z" fill="#333333"/>
<path d="M274.743 51.3718H275.321C275.613 51.3692 275.843 51.2937 276.013 51.1453C276.184 50.9968 276.27 50.782 276.27 50.5007C276.27 50.2299 276.199 50.0203 276.056 49.8718C275.915 49.7208 275.699 49.6453 275.407 49.6453C275.152 49.6453 274.942 49.7195 274.778 49.8679C274.614 50.0138 274.532 50.2052 274.532 50.4421H273.583C273.583 50.1505 273.66 49.8848 273.813 49.6453C273.97 49.4057 274.186 49.2195 274.462 49.0867C274.74 48.9513 275.052 48.8835 275.395 48.8835C275.963 48.8835 276.408 49.0268 276.731 49.3132C277.057 49.5971 277.22 49.9929 277.22 50.5007C277.22 50.7559 277.138 50.9968 276.973 51.2234C276.812 51.4473 276.602 51.6166 276.345 51.7312C276.657 51.838 276.894 52.0059 277.056 52.2351C277.22 52.4643 277.302 52.7377 277.302 53.0554C277.302 53.5658 277.126 53.9721 276.774 54.2742C276.425 54.5763 275.966 54.7273 275.395 54.7273C274.848 54.7273 274.401 54.5815 274.052 54.2898C273.703 53.9981 273.528 53.6101 273.528 53.1257H274.477C274.477 53.3757 274.561 53.5789 274.727 53.7351C274.897 53.8914 275.123 53.9695 275.407 53.9695C275.701 53.9695 275.933 53.8914 276.102 53.7351C276.272 53.5789 276.356 53.3523 276.356 53.0554C276.356 52.7559 276.268 52.5255 276.091 52.364C275.914 52.2026 275.651 52.1218 275.302 52.1218H274.743V51.3718ZM278.446 51.8289L278.755 48.9617H281.809V49.782H279.544L279.388 51.1414C279.651 50.9903 279.947 50.9148 280.278 50.9148C280.82 50.9148 281.24 51.088 281.54 51.4343C281.842 51.7807 281.993 52.2468 281.993 52.8328C281.993 53.4109 281.826 53.8718 281.493 54.2156C281.16 54.5567 280.703 54.7273 280.122 54.7273C279.601 54.7273 279.169 54.5802 278.825 54.2859C278.484 53.989 278.299 53.5984 278.27 53.114H279.188C279.225 53.3901 279.324 53.6023 279.485 53.7507C279.647 53.8966 279.858 53.9695 280.118 53.9695C280.41 53.9695 280.636 53.8653 280.798 53.657C280.962 53.4486 281.044 53.1648 281.044 52.8054C281.044 52.4591 280.954 52.1856 280.774 51.9851C280.595 51.782 280.347 51.6804 280.032 51.6804C279.86 51.6804 279.714 51.7039 279.595 51.7507C279.475 51.795 279.345 51.8835 279.204 52.0164L278.446 51.8289ZM282.7 50.0554C282.7 49.7117 282.811 49.4304 283.032 49.2117C283.253 48.9903 283.544 48.8796 283.903 48.8796C284.268 48.8796 284.559 48.9903 284.778 49.2117C285 49.4304 285.11 49.7182 285.11 50.075V50.3562C285.11 50.6973 285 50.9773 284.778 51.196C284.559 51.4148 284.27 51.5242 283.911 51.5242C283.559 51.5242 283.269 51.4174 283.04 51.2039C282.813 50.9877 282.7 50.6973 282.7 50.3328V50.0554ZM283.364 50.3562C283.364 50.5359 283.414 50.6817 283.513 50.7937C283.614 50.9031 283.747 50.9578 283.911 50.9578C284.072 50.9578 284.203 50.9031 284.302 50.7937C284.401 50.6817 284.45 50.5307 284.45 50.3406V50.0554C284.45 49.8757 284.399 49.7299 284.298 49.6179C284.199 49.5059 284.067 49.45 283.903 49.45C283.739 49.45 283.608 49.5072 283.509 49.6218C283.412 49.7338 283.364 49.8822 283.364 50.0671V50.3562ZM285.434 53.2546C285.434 52.9057 285.548 52.6231 285.774 52.407C286.001 52.1908 286.29 52.0828 286.641 52.0828C286.996 52.0828 287.285 52.1908 287.509 52.407C287.735 52.6231 287.848 52.9148 287.848 53.282V53.5593C287.848 53.8979 287.739 54.1778 287.52 54.3992C287.304 54.6179 287.014 54.7273 286.649 54.7273C286.285 54.7273 285.99 54.6192 285.766 54.4031C285.545 54.1843 285.434 53.8966 285.434 53.5398V53.2546ZM286.098 53.5593C286.098 53.7364 286.149 53.8822 286.251 53.9968C286.355 54.1088 286.488 54.1648 286.649 54.1648C286.816 54.1648 286.946 54.1114 287.04 54.0046C287.136 53.8953 287.184 53.7429 287.184 53.5476V53.2546C287.184 53.0723 287.134 52.9265 287.032 52.8171C286.931 52.7078 286.8 52.6531 286.641 52.6531C286.48 52.6531 286.348 52.7078 286.247 52.8171C286.148 52.9265 286.098 53.0776 286.098 53.2703V53.5593ZM284.106 54.2234L283.618 53.9421L286.395 49.4968L286.884 49.7781L284.106 54.2234Z" fill="#333333"/>
<rect x="291.437" y="48.8589" width="12.467" height="5.29028" rx="1.5" stroke="#81859C"/>
<path d="M292.113 50.521C292.113 49.9687 292.56 49.521 293.113 49.521H297.673V53.4387H293.113C292.56 53.4387 292.113 52.991 292.113 52.4387V50.521Z" fill="#333333"/>
<path d="M306.14 49.7546V53.2051" stroke="#81859C" stroke-linecap="round" stroke-linejoin="round"/>
<circle cx="211.041" cy="59.3046" r="9.28365" fill="white" stroke="#333333"/>
<circle cx="211.041" cy="57.5262" r="2.86411" fill="#F7B916" stroke="#333333"/>
<path d="M216.104 67.3509C216.104 64.5544 213.837 62.2874 211.041 62.2874C208.244 62.2874 205.977 64.5544 205.977 67.3509" stroke="#333333"/>
<path d="M25.3488 138.078C25.3488 131.238 19.8036 125.693 12.9634 125.693C6.12311 125.693 0.577972 131.238 0.577972 138.078C0.577972 144.918 6.12311 150.463 12.9634 150.463C19.8036 150.463 25.3488 144.918 25.3488 138.078Z" fill="white" stroke="#333333"/>
<path d="M7.52615 137.104L12.7544 141.975L18.4006 134.181" stroke="#333333" stroke-linecap="round" stroke-linejoin="round"/>
<circle cx="63.4321" cy="105.953" r="12.1617" fill="#F7B916"/>
<path d="M65.5913 108.499C65.5913 107.993 65.4272 107.581 65.0991 107.262C64.771 106.938 64.1922 106.633 63.3628 106.346C62.3328 106.022 61.6105 105.639 61.1958 105.197C60.7811 104.751 60.5737 104.174 60.5737 103.468C60.5737 102.725 60.8016 102.123 61.2573 101.663C61.713 101.198 62.3328 100.934 63.1167 100.87V99.4893H63.8139V100.87C64.616 100.943 65.2358 101.244 65.6733 101.772C66.1154 102.301 66.3364 103.019 66.3364 103.926H65.5229C65.5229 103.21 65.3361 102.643 64.9624 102.224C64.5932 101.8 64.0874 101.588 63.4448 101.588C62.7977 101.588 62.2918 101.759 61.9272 102.101C61.5672 102.438 61.3872 102.889 61.3872 103.454C61.3872 104.001 61.5535 104.429 61.8862 104.739C62.2189 105.045 62.784 105.334 63.5815 105.607C64.3836 105.876 64.9647 106.136 65.3247 106.387C65.6893 106.633 65.9604 106.927 66.1382 107.269C66.3204 107.606 66.4116 108.011 66.4116 108.485C66.4116 109.233 66.1769 109.837 65.7075 110.297C65.2426 110.753 64.6023 111.012 63.7866 111.076V112.375H63.0962V111.083C62.1801 111.024 61.4715 110.737 60.9702 110.222C60.4689 109.702 60.2182 108.993 60.2182 108.096H61.0385C61.0385 108.807 61.2459 109.365 61.6606 109.771C62.0753 110.172 62.6541 110.372 63.3969 110.372C64.0441 110.372 64.5704 110.199 64.976 109.853C65.3862 109.506 65.5913 109.055 65.5913 108.499Z" fill="#333333"/>
<circle cx="417.838" cy="222.161" r="12.1617" fill="#F7B916"/>
<path d="M419.997 224.707C419.997 224.201 419.833 223.789 419.505 223.47C419.177 223.146 418.598 222.841 417.769 222.554C416.739 222.23 416.017 221.848 415.602 221.406C415.187 220.959 414.98 220.382 414.98 219.676C414.98 218.933 415.208 218.332 415.663 217.871C416.119 217.406 416.739 217.142 417.523 217.078V215.698H418.22V217.078C419.022 217.151 419.642 217.452 420.079 217.981C420.522 218.509 420.743 219.227 420.743 220.134H419.929C419.929 219.419 419.742 218.851 419.369 218.432C418.999 218.008 418.494 217.796 417.851 217.796C417.204 217.796 416.698 217.967 416.333 218.309C415.973 218.646 415.793 219.097 415.793 219.662C415.793 220.209 415.96 220.638 416.292 220.948C416.625 221.253 417.19 221.542 417.988 221.816C418.79 222.085 419.371 222.344 419.731 222.595C420.095 222.841 420.367 223.135 420.544 223.477C420.727 223.814 420.818 224.22 420.818 224.694C420.818 225.441 420.583 226.045 420.114 226.505C419.649 226.961 419.009 227.221 418.193 227.284V228.583H417.502V227.291C416.586 227.232 415.878 226.945 415.376 226.43C414.875 225.91 414.624 225.202 414.624 224.304H415.445C415.445 225.015 415.652 225.573 416.067 225.979C416.481 226.38 417.06 226.58 417.803 226.58C418.45 226.58 418.977 226.407 419.382 226.061C419.792 225.714 419.997 225.263 419.997 224.707Z" fill="#333333"/>
<path d="M38.1493 189.288C38.1493 186.251 40.6117 183.788 43.6493 183.788H68.63C71.6676 183.788 74.13 186.251 74.13 189.288V210.472C74.13 213.51 71.6676 215.972 68.63 215.972H44.9979C43.4433 215.972 41.9402 216.53 40.7613 217.543L38.1493 219.788V189.288Z" fill="white" stroke="#333333" stroke-linecap="round" stroke-linejoin="round"/>
<circle cx="56.1387" cy="199.904" r="8.37387" stroke="#1062AA"/>
<path d="M51.8252 200.2L54.7832 203.158L61.2907 196.651" stroke="#1062AA" stroke-linecap="round"/>
<circle cx="42.3084" cy="57.6283" r="3.6591" stroke="white" stroke-width="2"/>
<circle cx="363.857" cy="202.341" r="3.6591" stroke="white" stroke-width="2"/>
<path d="M62.4783 291.785V300.172" stroke="#333333" stroke-linecap="round" stroke-linejoin="round"/>
<path d="M62.4783 305.814V314.202" stroke="#333333" stroke-linecap="round" stroke-linejoin="round"/>
<path d="M73.6869 302.993L65.2998 302.993" stroke="#333333" stroke-linecap="round" stroke-linejoin="round"/>
<path d="M59.6574 302.993L51.2704 302.993" stroke="#333333" stroke-linecap="round" stroke-linejoin="round"/>
<path d="M350.144 344.735V351.293" stroke="#333333" stroke-linecap="round" stroke-linejoin="round"/>
<path d="M350.144 355.704V362.262" stroke="#333333" stroke-linecap="round" stroke-linejoin="round"/>
<path d="M358.908 353.499L352.35 353.499" stroke="#333333" stroke-linecap="round" stroke-linejoin="round"/>
<path d="M347.938 353.499L341.38 353.499" stroke="#333333" stroke-linecap="round" stroke-linejoin="round"/>
<path d="M399.336 288.414V313.081H384.156L372.771 320.671V313.081H365.181V288.414H399.336Z" fill="white" stroke="#333333" stroke-linejoin="round"/>
<path d="M387.951 300.63H376.566" stroke="#1062AA" stroke-linecap="round"/>
<path d="M382.258 294.938V306.323" stroke="#1062AA" stroke-linecap="round"/>
<path d="M332.956 279.532L339.284 285.005V279.532C342.448 279.532 345.013 276.881 345.013 273.802V253.535C345.013 250.371 342.362 247.806 339.284 247.806H170.729C167.565 247.806 165 250.457 165 253.535V273.717C165 276.881 167.651 279.446 170.729 279.446L332.956 279.532Z" fill="white" stroke="#333333" stroke-miterlimit="10" stroke-linecap="round" stroke-linejoin="round"/>
<path d="M207.295 265.16L208.311 261.122H209.214L207.676 266.405H206.943L205.659 262.401L204.409 266.405H203.677L202.144 261.122H203.042L204.082 265.077L205.313 261.122H206.04L207.295 265.16ZM214.815 265.16L215.83 261.122H216.734L215.195 266.405H214.463L213.179 262.401L211.929 266.405H211.196L209.663 261.122H210.562L211.602 265.077L212.832 261.122H213.56L214.815 265.16ZM222.334 265.16L223.35 261.122H224.253L222.715 266.405H221.983L220.698 262.401L219.448 266.405H218.716L217.183 261.122H218.081L219.121 265.077L220.352 261.122H221.079L222.334 265.16ZM224.59 265.932C224.59 265.775 224.636 265.645 224.727 265.541C224.821 265.437 224.961 265.385 225.147 265.385C225.332 265.385 225.472 265.437 225.567 265.541C225.664 265.645 225.713 265.775 225.713 265.932C225.713 266.081 225.664 266.207 225.567 266.308C225.472 266.409 225.332 266.459 225.147 266.459C224.961 266.459 224.821 266.409 224.727 266.308C224.636 266.207 224.59 266.081 224.59 265.932ZM229.4 266.503C228.683 266.503 228.101 266.269 227.651 265.8C227.202 265.328 226.978 264.698 226.978 263.91V263.744C226.978 263.22 227.077 262.753 227.276 262.343C227.477 261.929 227.757 261.607 228.115 261.376C228.477 261.142 228.867 261.024 229.287 261.024C229.974 261.024 230.508 261.251 230.889 261.703C231.27 262.156 231.46 262.803 231.46 263.646V264.022H227.881C227.894 264.543 228.045 264.965 228.335 265.287C228.628 265.606 228.999 265.766 229.448 265.766C229.767 265.766 230.038 265.701 230.259 265.57C230.48 265.44 230.674 265.268 230.84 265.053L231.392 265.482C230.949 266.163 230.285 266.503 229.4 266.503ZM229.287 261.767C228.923 261.767 228.617 261.9 228.369 262.167C228.122 262.431 227.969 262.802 227.91 263.28H230.557V263.212C230.531 262.753 230.407 262.398 230.186 262.147C229.964 261.894 229.665 261.767 229.287 261.767ZM236.973 263.822C236.973 264.626 236.789 265.274 236.421 265.766C236.053 266.257 235.555 266.503 234.927 266.503C234.286 266.503 233.781 266.299 233.413 265.893V268.437H232.51V261.122H233.335L233.379 261.708C233.747 261.252 234.258 261.024 234.912 261.024C235.547 261.024 236.048 261.264 236.416 261.742C236.787 262.221 236.973 262.886 236.973 263.739V263.822ZM236.069 263.72C236.069 263.124 235.943 262.654 235.689 262.309C235.435 261.964 235.086 261.791 234.644 261.791C234.097 261.791 233.687 262.034 233.413 262.519V265.043C233.683 265.525 234.097 265.766 234.653 265.766C235.086 265.766 235.43 265.595 235.684 265.253C235.941 264.908 236.069 264.397 236.069 263.72ZM237.886 263.715C237.886 263.197 237.987 262.732 238.189 262.318C238.394 261.905 238.677 261.586 239.038 261.361C239.403 261.137 239.818 261.024 240.283 261.024C241.003 261.024 241.584 261.273 242.026 261.771C242.472 262.27 242.695 262.932 242.695 263.759V263.822C242.695 264.337 242.596 264.799 242.398 265.209C242.202 265.616 241.921 265.933 241.553 266.161C241.188 266.389 240.768 266.503 240.293 266.503C239.577 266.503 238.996 266.254 238.55 265.756C238.107 265.258 237.886 264.599 237.886 263.778V263.715ZM238.794 263.822C238.794 264.408 238.929 264.879 239.199 265.233C239.473 265.588 239.837 265.766 240.293 265.766C240.752 265.766 241.117 265.587 241.387 265.229C241.657 264.867 241.792 264.363 241.792 263.715C241.792 263.135 241.654 262.667 241.377 262.309C241.104 261.947 240.739 261.767 240.283 261.767C239.837 261.767 239.478 261.944 239.204 262.299C238.931 262.654 238.794 263.161 238.794 263.822ZM245.947 265.766C246.27 265.766 246.551 265.668 246.792 265.473C247.033 265.277 247.166 265.033 247.193 264.74H248.047C248.031 265.043 247.927 265.331 247.734 265.604C247.542 265.878 247.285 266.096 246.963 266.259C246.644 266.422 246.305 266.503 245.947 266.503C245.228 266.503 244.655 266.264 244.229 265.785C243.805 265.303 243.594 264.646 243.594 263.812V263.661C243.594 263.147 243.688 262.689 243.877 262.289C244.066 261.889 244.336 261.578 244.688 261.356C245.042 261.135 245.461 261.024 245.943 261.024C246.535 261.024 247.026 261.202 247.417 261.557C247.811 261.911 248.021 262.372 248.047 262.938H247.193C247.166 262.597 247.036 262.317 246.802 262.099C246.571 261.877 246.284 261.767 245.943 261.767C245.484 261.767 245.127 261.933 244.873 262.265C244.623 262.593 244.497 263.07 244.497 263.695V263.866C244.497 264.475 244.623 264.944 244.873 265.272C245.124 265.601 245.482 265.766 245.947 265.766ZM249.966 261.762C250.366 261.27 250.887 261.024 251.528 261.024C252.645 261.024 253.208 261.654 253.218 262.914V266.405H252.315V262.909C252.311 262.528 252.223 262.247 252.051 262.064C251.882 261.882 251.616 261.791 251.255 261.791C250.962 261.791 250.705 261.869 250.484 262.025C250.262 262.182 250.09 262.387 249.966 262.641V266.405H249.063V258.905H249.966V261.762ZM255.796 259.843V261.122H256.782V261.82H255.796V265.097C255.796 265.308 255.84 265.468 255.928 265.575C256.016 265.679 256.165 265.731 256.377 265.731C256.481 265.731 256.624 265.712 256.807 265.673V266.405C256.569 266.47 256.338 266.503 256.113 266.503C255.71 266.503 255.405 266.381 255.2 266.137C254.995 265.893 254.893 265.546 254.893 265.097V261.82H253.931V261.122H254.893V259.843H255.796ZM261.104 266.405C261.052 266.301 261.009 266.116 260.977 265.849C260.557 266.285 260.055 266.503 259.473 266.503C258.952 266.503 258.524 266.356 258.189 266.063C257.857 265.767 257.691 265.393 257.691 264.94C257.691 264.39 257.899 263.964 258.316 263.661C258.735 263.355 259.325 263.202 260.083 263.202H260.962V262.787C260.962 262.471 260.868 262.221 260.679 262.035C260.49 261.846 260.212 261.752 259.844 261.752C259.522 261.752 259.251 261.833 259.033 261.996C258.815 262.159 258.706 262.356 258.706 262.587H257.798C257.798 262.323 257.891 262.069 258.076 261.825C258.265 261.578 258.519 261.382 258.838 261.239C259.16 261.096 259.513 261.024 259.898 261.024C260.506 261.024 260.983 261.177 261.328 261.483C261.673 261.786 261.852 262.204 261.865 262.738V265.17C261.865 265.655 261.927 266.041 262.051 266.327V266.405H261.104ZM259.605 265.717C259.888 265.717 260.156 265.644 260.41 265.497C260.664 265.351 260.848 265.16 260.962 264.926V263.842H260.254C259.147 263.842 258.594 264.166 258.594 264.813C258.594 265.097 258.688 265.318 258.877 265.478C259.066 265.637 259.308 265.717 259.605 265.717ZM263.301 265.932C263.301 265.775 263.346 265.645 263.438 265.541C263.532 265.437 263.672 265.385 263.858 265.385C264.043 265.385 264.183 265.437 264.277 265.541C264.375 265.645 264.424 265.775 264.424 265.932C264.424 266.081 264.375 266.207 264.277 266.308C264.183 266.409 264.043 266.459 263.858 266.459C263.672 266.459 263.532 266.409 263.438 266.308C263.346 266.207 263.301 266.081 263.301 265.932ZM268.037 265.766C268.359 265.766 268.641 265.668 268.882 265.473C269.123 265.277 269.256 265.033 269.282 264.74H270.137C270.121 265.043 270.016 265.331 269.824 265.604C269.632 265.878 269.375 266.096 269.053 266.259C268.734 266.422 268.395 266.503 268.037 266.503C267.318 266.503 266.745 266.264 266.318 265.785C265.895 265.303 265.684 264.646 265.684 263.812V263.661C265.684 263.147 265.778 262.689 265.967 262.289C266.156 261.889 266.426 261.578 266.777 261.356C267.132 261.135 267.551 261.024 268.032 261.024C268.625 261.024 269.116 261.202 269.507 261.557C269.901 261.911 270.111 262.372 270.137 262.938H269.282C269.256 262.597 269.126 262.317 268.892 262.099C268.661 261.877 268.374 261.767 268.032 261.767C267.573 261.767 267.217 261.933 266.963 262.265C266.712 262.593 266.587 263.07 266.587 263.695V263.866C266.587 264.475 266.712 264.944 266.963 265.272C267.214 265.601 267.572 265.766 268.037 265.766ZM270.913 263.715C270.913 263.197 271.014 262.732 271.216 262.318C271.421 261.905 271.704 261.586 272.066 261.361C272.43 261.137 272.845 261.024 273.311 261.024C274.03 261.024 274.611 261.273 275.054 261.771C275.5 262.27 275.723 262.932 275.723 263.759V263.822C275.723 264.337 275.623 264.799 275.425 265.209C275.23 265.616 274.948 265.933 274.58 266.161C274.216 266.389 273.796 266.503 273.32 266.503C272.604 266.503 272.023 266.254 271.577 265.756C271.135 265.258 270.913 264.599 270.913 263.778V263.715ZM271.821 263.822C271.821 264.408 271.957 264.879 272.227 265.233C272.5 265.588 272.865 265.766 273.32 265.766C273.779 265.766 274.144 265.587 274.414 265.229C274.684 264.867 274.819 264.363 274.819 263.715C274.819 263.135 274.681 262.667 274.404 262.309C274.131 261.947 273.766 261.767 273.311 261.767C272.865 261.767 272.505 261.944 272.232 262.299C271.958 262.654 271.821 263.161 271.821 263.822ZM277.705 261.122L277.73 261.708C278.117 261.252 278.639 261.024 279.297 261.024C280.036 261.024 280.539 261.308 280.806 261.874C280.982 261.62 281.209 261.415 281.489 261.259C281.773 261.103 282.106 261.024 282.49 261.024C283.649 261.024 284.238 261.638 284.258 262.865V266.405H283.355V262.919C283.355 262.541 283.268 262.26 283.096 262.074C282.923 261.885 282.634 261.791 282.227 261.791C281.891 261.791 281.613 261.892 281.392 262.094C281.17 262.292 281.042 262.561 281.006 262.899V266.405H280.098V262.943C280.098 262.175 279.722 261.791 278.97 261.791C278.377 261.791 277.972 262.043 277.754 262.548V266.405H276.851V261.122H277.705Z" fill="#1062AA"/>
<path d="M182.183 262.766L180.305 263.85C179.033 264.585 178.597 266.212 179.331 267.484V267.484C180.066 268.756 181.693 269.192 182.965 268.458L186.721 266.289C187.993 265.555 188.429 263.928 187.695 262.655V262.655" stroke="#1062AA" stroke-linecap="round" stroke-linejoin="round"/>
<path d="M185.097 264.155V264.155C184.362 262.883 184.798 261.256 186.07 260.522L189.827 258.353C191.099 257.619 192.726 258.055 193.46 259.327V259.327C194.195 260.599 193.759 262.226 192.487 262.96L190.609 264.045" stroke="#1062AA" stroke-linecap="round" stroke-linejoin="round"/>
<path fill-rule="evenodd" clip-rule="evenodd" d="M383.499 166.684V147.334L398.011 161.846H389.546L383.499 167.893V166.684Z" fill="white" stroke="#333333" stroke-linejoin="round"/>
<circle cx="373.031" cy="116.148" r="17.2248" fill="white" stroke="#333333"/>
<circle cx="373.031" cy="112.926" r="5.18885" fill="#F7B916" stroke="#333333"/>
<path d="M382.204 130.725C382.204 125.659 378.097 121.552 373.031 121.552C367.964 121.552 363.857 125.659 363.857 130.725" stroke="#333333"/>
<circle r="9.78375" transform="matrix(-1 0 0 1 211.041 59.3047)" fill="#1062AA"/>
<path d="M210.538 57.4322V57.4524C210.517 57.3897 210.517 57.3222 210.538 57.2594C210.549 57.2153 210.569 57.174 210.597 57.1377C210.624 57.1014 210.659 57.071 210.698 57.0482C210.737 57.0254 210.781 57.0107 210.826 57.005C210.871 56.9992 210.917 57.0025 210.961 57.0146L212.286 57.3689C212.375 57.3932 212.45 57.4516 212.496 57.5315C212.542 57.6114 212.554 57.7062 212.531 57.7951C212.517 57.8464 212.491 57.8938 212.456 57.9334C212.438 57.9524 212.419 57.9697 212.398 57.9852C212.202 58.1264 211.534 58.5814 211.534 58.5814C211.493 58.6111 211.446 58.6314 211.396 58.6408C211.346 58.6503 211.295 58.6487 211.246 58.6361C211.194 58.6219 211.146 58.5957 211.105 58.5598C211.065 58.5238 211.033 58.479 211.013 58.4288L210.558 57.4927C210.525 57.4195 210.518 57.3368 210.541 57.2594C210.552 57.2153 210.572 57.174 210.599 57.1377C210.627 57.1014 210.661 57.071 210.701 57.0482C210.74 57.0254 210.784 57.0107 210.829 57.005C210.874 56.9992 210.92 57.0025 210.964 57.0146L212.289 57.3689C212.378 57.3932 212.453 57.4516 212.499 57.5315C212.545 57.6114 212.557 57.7062 212.534 57.7951C212.513 57.8721 212.466 57.9393 212.401 57.9852" fill="#F7B916"/>
<path d="M219.247 61.0064L217.415 58.5468C217.088 58.0703 216.602 57.7261 216.044 57.5762C215.865 57.528 215.68 57.501 215.494 57.4955C215.306 57.1907 215.008 56.9693 214.662 56.8763L209.19 55.4103C209.011 55.3612 208.824 55.3484 208.64 55.3726C208.456 55.3969 208.278 55.4577 208.118 55.5515C207.92 55.4321 207.705 55.341 207.482 55.2807C206.924 55.1313 206.33 55.1855 205.808 55.4334L202.977 56.6459C202.939 56.6622 202.905 56.6857 202.877 56.7152C202.848 56.7447 202.825 56.7796 202.81 56.8178C202.795 56.8561 202.787 56.8969 202.788 56.9381C202.788 56.9793 202.797 57.0199 202.813 57.0578C202.829 57.0956 202.853 57.1298 202.882 57.1585C202.912 57.1873 202.947 57.2099 202.985 57.2251C203.023 57.2404 203.064 57.2479 203.105 57.2474C203.147 57.2468 203.187 57.2382 203.225 57.2219L206.042 56.0036C206.433 55.8156 206.878 55.7738 207.297 55.8856C207.408 55.9168 207.516 55.9573 207.62 56.0065C207.545 56.128 207.489 56.26 207.453 56.3982L206.433 60.1683C206.338 60.5299 206.39 60.9145 206.577 61.2382C206.764 61.5619 207.072 61.7984 207.433 61.8963L212.905 63.3652C213.267 63.4603 213.651 63.4086 213.975 63.2214C214.299 63.0342 214.535 62.7267 214.633 62.3658L215.65 58.6044C215.696 58.4494 215.714 58.2876 215.704 58.1263C215.946 58.1685 216.178 58.2581 216.385 58.3901C216.592 58.5221 216.771 58.6938 216.911 58.8953L218.743 61.3578C218.783 61.4141 218.843 61.4539 218.91 61.4701C218.97 61.4855 219.033 61.4826 219.091 61.4616C219.149 61.4407 219.2 61.4028 219.236 61.3528C219.273 61.3028 219.293 61.243 219.295 61.1813C219.297 61.1195 219.28 61.0586 219.247 61.0064ZM214.498 57.4725C214.603 57.5025 214.702 57.5545 214.786 57.6251L211.6 59.0335L211.569 59.0479C211.429 59.1178 211.268 59.1332 211.117 59.0911C210.967 59.0491 210.837 58.9526 210.754 58.8204V58.8031L208.663 55.9921C208.781 55.9634 208.904 55.9634 209.023 55.9921L214.498 57.4725ZM214.054 62.2074C214 62.4109 213.866 62.5844 213.684 62.6897C213.501 62.795 213.284 62.8236 213.081 62.769L207.603 61.2944C207.501 61.2689 207.405 61.2234 207.32 61.1605C207.236 61.0976 207.165 61.0186 207.111 60.928C207.058 60.8374 207.023 60.7372 207.008 60.6329C206.994 60.5287 207 60.4227 207.027 60.3209L208.035 56.5566C208.065 56.4784 208.108 56.4055 208.161 56.3406L210.261 59.166C210.43 59.4218 210.687 59.6064 210.984 59.6844C211.283 59.7661 211.602 59.7322 211.877 59.5894L215.097 58.1724C215.105 58.269 215.097 58.3663 215.074 58.4604L214.054 62.2074Z" fill="white"/>
<path d="M205.806 56.8793L203.933 57.6886C203.857 57.721 203.797 57.7825 203.766 57.8595C203.735 57.9364 203.735 58.0226 203.768 58.099C203.8 58.1754 203.862 58.2357 203.939 58.2668C204.016 58.2978 204.102 58.2971 204.178 58.2646L206.053 57.4553C206.091 57.439 206.125 57.4155 206.154 57.386C206.183 57.3565 206.205 57.3216 206.221 57.2834C206.236 57.2451 206.243 57.2042 206.243 57.1631C206.242 57.1219 206.234 57.0812 206.217 57.0434C206.201 57.0056 206.178 56.9714 206.148 56.9426C206.119 56.9139 206.084 56.8913 206.045 56.876C206.007 56.8608 205.966 56.8532 205.925 56.8538C205.884 56.8543 205.843 56.863 205.806 56.8793Z" fill="white"/>
<path d="M205.33 58.5034L204.849 58.7022C204.792 58.7282 204.744 58.771 204.712 58.825C204.68 58.879 204.665 58.9415 204.67 59.0042C204.674 59.0668 204.697 59.1266 204.737 59.1756C204.776 59.2246 204.829 59.2604 204.89 59.2782C204.958 59.2964 205.03 59.2913 205.094 59.2638L205.569 59.0737C205.607 59.0574 205.641 59.0339 205.67 59.0044C205.699 58.9749 205.721 58.94 205.737 58.9018C205.752 58.8635 205.76 58.8226 205.759 58.7815C205.758 58.7403 205.75 58.6997 205.734 58.6618C205.717 58.624 205.694 58.5898 205.664 58.561C205.635 58.5323 205.6 58.5097 205.562 58.4945C205.523 58.4792 205.482 58.4716 205.441 58.4722C205.4 58.4727 205.359 58.4814 205.322 58.4977L205.33 58.5034Z" fill="white"/>
<path d="M216.669 59.8197L217.873 61.47C217.921 61.5363 217.941 61.6187 217.929 61.6996C217.916 61.7805 217.873 61.8532 217.807 61.902C217.769 61.9294 217.726 61.9478 217.68 61.9558C217.634 61.9638 217.587 61.9612 217.542 61.9481C217.474 61.9312 217.415 61.8903 217.375 61.8329L216.168 60.1855C216.127 60.1188 216.112 60.0389 216.127 59.9618C216.142 59.8847 216.185 59.8161 216.249 59.7698C216.312 59.7235 216.391 59.7029 216.469 59.7121C216.547 59.7214 216.619 59.7598 216.669 59.8197Z" fill="white"/>
<path d="M216.26 61.496L216.571 61.9194C216.619 61.9857 216.639 62.0682 216.627 62.149C216.615 62.2299 216.571 62.3026 216.505 62.3514C216.467 62.3788 216.423 62.3974 216.377 62.4059C216.33 62.4143 216.283 62.4125 216.237 62.4004C216.171 62.381 216.114 62.3405 216.073 62.2852L215.759 61.8705C215.735 61.8375 215.718 61.8003 215.709 61.7608C215.699 61.7212 215.698 61.6802 215.704 61.6401C215.711 61.6 215.725 61.5616 215.746 61.5269C215.768 61.4923 215.795 61.4623 215.828 61.4384C215.861 61.4146 215.899 61.3975 215.938 61.3881C215.978 61.3787 216.019 61.3771 216.059 61.3835C216.099 61.3899 216.137 61.4042 216.172 61.4255C216.206 61.4468 216.237 61.4747 216.26 61.5076V61.496Z" fill="white"/>
<path d="M210.522 331.971C204.322 331.971 199.222 326.871 199.222 320.671C199.222 314.471 204.322 309.371 210.522 309.371C216.722 309.371 221.822 314.471 221.822 320.671C221.822 326.871 216.722 331.971 210.522 331.971Z" fill="#6FC6AD" stroke="#333333" stroke-miterlimit="10" stroke-linecap="round" stroke-linejoin="round"/>
<path d="M204.522 321.171C204.722 321.371 209.922 326.171 209.922 326.171L216.922 317.271" fill="#6FC6AD"/>
<path d="M204.522 321.171C204.722 321.371 209.922 326.171 209.922 326.171L216.922 317.271" stroke="#333333" stroke-miterlimit="10" stroke-linecap="round" stroke-linejoin="round"/>
<defs>
<linearGradient id="paint0_linear" x1="177.241" y1="138.503" x2="209.293" y2="362.262" gradientUnits="userSpaceOnUse">
<stop stop-color="#FFE735"/>
<stop offset="1" stop-color="white" stop-opacity="0"/>
</linearGradient>
</defs>
</svg>
