<svg width="47" height="57" viewBox="0 0 47 57" fill="none" xmlns="http://www.w3.org/2000/svg">
<g clip-path="url(#clip0)">
<path d="M11.7992 35.7C12.6829 35.7 13.3992 34.9837 13.3992 34.1C13.3992 33.2163 12.6829 32.5 11.7992 32.5C10.9156 32.5 10.1992 33.2163 10.1992 34.1C10.1992 34.9837 10.9156 35.7 11.7992 35.7Z" fill="#1062AA"/>
<path d="M22.6 35.7C23.4837 35.7 24.2 34.9837 24.2 34.1C24.2 33.2163 23.4837 32.5 22.6 32.5C21.7163 32.5 21 33.2163 21 34.1C21 34.9837 21.7163 35.7 22.6 35.7Z" fill="#1062AA"/>
<path d="M34.9999 38.1535C35.0516 28.7647 27.4824 21.1116 18.0935 21.0599C8.7047 21.0081 1.05161 28.5774 0.999896 37.9662C0.948177 47.3551 8.51741 55.0081 17.9062 55.0599C27.2951 55.1116 34.9482 47.5423 34.9999 38.1535Z" stroke="#1062AA" stroke-width="2" stroke-miterlimit="10" stroke-linecap="round" stroke-linejoin="round"/>
<path d="M8.19922 30.6C10.1992 28.7 13.3992 28.7 15.2992 30.7" stroke="#1062AA" stroke-width="2" stroke-miterlimit="10" stroke-linecap="round" stroke-linejoin="round"/>
<path d="M14.1016 45.4H22.0016" stroke="#1062AA" stroke-width="2" stroke-miterlimit="10" stroke-linecap="round" stroke-linejoin="round"/>
</g>
<path d="M47 16.2C47 17 46.6 18 45.9 18.9L44.2 21.3C43.9 21.7 43.8 22.1 43.8 22.5V23.2H41.5V22.4C41.5 21.6 41.8 20.9 42.3 20.2L44 17.9C44.5 17.3 44.7 16.7 44.7 16.2C44.7 15.6 44.5 15 44.1 14.6C43.7 14.2 43.2 14 42.5 14C41.8 14 41.3 14.2 40.9 14.7C40.5 15.1 40.3 15.7 40.3 16.3H38C38 15.1 38.4 14 39.3 13.2C40.2 12.4 41.2 12 42.5 12C43.7 12 44.8 12.4 45.7 13.2C46.6 14 47 14.9 47 16.2ZM44 27.9H41.5V25.5H44V27.9Z" fill="#1062AA"/>
<path d="M36 4.2C36 5 35.6 6 34.9 6.9L33.2 9.3C32.9 9.7 32.8 10.1 32.8 10.5V11.2H30.5V10.4C30.5 9.6 30.8 8.9 31.3 8.2L33 5.9C33.5 5.3 33.7 4.7 33.7 4.2C33.7 3.6 33.5 3 33.1 2.6C32.7 2.2 32.2 2 31.5 2C30.8 2 30.3 2.2 29.9 2.7C29.5 3.1 29.3 3.7 29.3 4.3H27C27 3.1 27.4 2 28.3 1.2C29.2 0.399999 30.2 0 31.5 0C32.7 0 33.8 0.399999 34.7 1.2C35.6 2 36 2.9 36 4.2ZM33 15.9H30.5V13.5H33V15.9Z" fill="#1062AA"/>
<defs>
<clipPath id="clip0">
<rect y="20" width="36.1" height="36.1" fill="white"/>
</clipPath>
</defs>
</svg>
