<svg width="69" height="68" viewBox="0 0 69 68" fill="none" xmlns="http://www.w3.org/2000/svg">
<path d="M44.7005 18.17L44.8705 22.02C44.8705 22.57 46.1405 23.41 46.6905 23.41H53.0105C53.5658 23.4126 54.098 23.633 54.4926 24.0238C54.8872 24.4146 55.1126 24.9447 55.1205 25.5V51.94C55.1178 52.703 54.8136 53.434 54.274 53.9736C53.7345 54.5131 53.0035 54.8174 52.2405 54.82H21.1105C20.3475 54.8174 19.6164 54.5131 19.0769 53.9736C18.5374 53.434 18.2331 52.703 18.2305 51.94V20.81C18.2357 20.0487 18.5412 19.3203 19.0804 18.7829C19.6197 18.2455 20.3492 17.9426 21.1105 17.94H44.5005C44.5561 17.9473 44.6072 17.9748 44.644 18.0171C44.6809 18.0595 44.7009 18.1139 44.7005 18.17Z" fill="#F7B916"/>
<path d="M26.9805 38.69V38.06C26.7711 38.2935 26.513 38.4781 26.2245 38.6008C25.9359 38.7235 25.6238 38.7812 25.3105 38.77C25.0069 38.7863 24.7031 38.7406 24.4177 38.6358C24.1323 38.5309 23.8713 38.369 23.6505 38.16C23.3203 37.8006 23.1136 37.3451 23.0605 36.86C23.0153 36.6056 22.9886 36.3483 22.9805 36.09C22.9805 35.9 22.9805 35.64 22.9805 35.31C22.9805 34.98 22.9805 34.72 22.9805 34.53C22.988 34.275 23.0147 34.021 23.0605 33.77C23.1176 33.286 23.3238 32.8317 23.6505 32.47C23.8711 32.2637 24.1306 32.1034 24.414 31.9987C24.6973 31.8939 24.9987 31.8468 25.3005 31.86C25.607 31.846 25.9128 31.8997 26.1963 32.0172C26.4797 32.1347 26.7338 32.3132 26.9405 32.54V29.5H28.6305V38.72L26.9805 38.69ZM26.7505 33.94C26.6613 33.7554 26.5175 33.6027 26.3387 33.5025C26.1598 33.4024 25.9545 33.3596 25.7505 33.38C25.5547 33.362 25.3583 33.4065 25.1894 33.5071C25.0205 33.6077 24.8879 33.7593 24.8105 33.94C24.6511 34.3783 24.583 34.8445 24.6105 35.31C24.5836 35.782 24.6516 36.2547 24.8105 36.7C24.8895 36.8788 25.0228 37.0283 25.1915 37.127C25.3603 37.2257 25.5559 37.2688 25.7505 37.25C25.9534 37.2713 26.1579 37.23 26.3366 37.1317C26.5154 37.0334 26.6598 36.8827 26.7505 36.7C26.9033 36.2534 26.9679 35.7813 26.9405 35.31C26.97 34.8452 26.9054 34.3792 26.7505 33.94Z" fill="#1062AA"/>
<path d="M35.1801 37.94C34.9444 38.1863 34.6623 38.3834 34.3501 38.52C33.9494 38.6929 33.5164 38.7782 33.0801 38.77C32.6489 38.7709 32.2225 38.6788 31.8301 38.5C31.5159 38.3668 31.2332 38.1692 31.0001 37.92C30.4199 37.1723 30.1448 36.2325 30.2301 35.29C30.1463 34.3507 30.4215 33.4146 31.0001 32.67C31.2332 32.4208 31.5159 32.2232 31.8301 32.09C32.2252 31.9218 32.6507 31.8367 33.0801 31.84C33.516 31.8368 33.948 31.9218 34.3501 32.09C34.6603 32.2303 34.9417 32.427 35.1801 32.67C35.7587 33.4146 36.0338 34.3507 35.9501 35.29C36.0406 36.2392 35.7652 37.1871 35.1801 37.94ZM34.1801 34.36C34.1435 34.1045 34.0282 33.8668 33.8501 33.68C33.746 33.5785 33.6222 33.4995 33.4863 33.4479C33.3504 33.3963 33.2053 33.3732 33.0601 33.38C32.9178 33.3722 32.7754 33.395 32.6426 33.4467C32.5098 33.4985 32.3896 33.578 32.2901 33.68C32.112 33.8668 31.9966 34.1045 31.9601 34.36C31.9108 34.6909 31.8907 35.0255 31.9001 35.36C31.8918 35.6944 31.9119 36.029 31.9601 36.36C31.9966 36.6155 32.112 36.8532 32.2901 37.04C32.3896 37.142 32.5098 37.2215 32.6426 37.2733C32.7754 37.325 32.9178 37.3478 33.0601 37.34C33.2053 37.3468 33.3504 37.3237 33.4863 37.2721C33.6222 37.2205 33.746 37.1415 33.8501 37.04C34.0282 36.8532 34.1435 36.6155 34.1801 36.36C34.2283 36.029 34.2484 35.6944 34.2401 35.36C34.2561 35.0261 34.2427 34.6915 34.2001 34.36H34.1801Z" fill="#1062AA"/>
<path d="M42.5008 37.85C42.213 38.1493 41.8662 38.3857 41.4823 38.544C41.0985 38.7024 40.6859 38.7793 40.2708 38.77C39.9309 38.772 39.5931 38.718 39.2708 38.61C38.9026 38.5038 38.5615 38.3197 38.2708 38.07C37.9342 37.7823 37.6704 37.4191 37.5008 37.01C37.1143 35.9096 37.1143 34.7104 37.5008 33.61C37.6605 33.2256 37.9069 32.8834 38.2208 32.61C38.5115 32.3603 38.8526 32.1761 39.2208 32.07C39.5442 31.9666 39.8813 31.9127 40.2208 31.91C40.6352 31.8994 41.0473 31.9748 41.4311 32.1314C41.815 32.288 42.1621 32.5225 42.4508 32.82L41.3108 33.96C41.1768 33.7997 41.0104 33.6696 40.8225 33.5783C40.6347 33.487 40.4296 33.4364 40.2208 33.43C40.0311 33.4181 39.8413 33.4519 39.6673 33.5285C39.4933 33.605 39.3402 33.7221 39.2208 33.87C38.9363 34.3122 38.8062 34.8361 38.8508 35.36C38.8054 35.8871 38.9355 36.4144 39.2208 36.86C39.3385 37.0098 39.4913 37.1284 39.6658 37.2051C39.8402 37.2818 40.0308 37.3144 40.2208 37.3C40.4301 37.2962 40.636 37.2468 40.8243 37.1553C41.0125 37.0637 41.1786 36.9323 41.3108 36.77L42.5008 37.85Z" fill="#1062AA"/>
<path d="M43.6992 38.69V36.77H45.6292V38.69H43.6992Z" fill="#1062AA"/>
<path d="M55.02 2H14C7.37258 2 2 7.37258 2 14V54C2 60.6274 7.37258 66 14 66H55.02C61.6474 66 67.02 60.6274 67.02 54V14C67.02 7.37258 61.6474 2 55.02 2Z" stroke="#1062AA" stroke-width="3" stroke-linecap="round" stroke-linejoin="round"/>
<path d="M55.1184 23.65V51.82C55.1184 52.6157 54.8024 53.3787 54.2398 53.9413C53.6772 54.5039 52.9141 54.82 52.1184 54.82H16.8984C16.1028 54.82 15.3397 54.5039 14.7771 53.9413C14.2145 53.3787 13.8984 52.6157 13.8984 51.82V16.6C13.8984 15.8044 14.2145 15.0413 14.7771 14.4787C15.3397 13.9161 16.1028 13.6 16.8984 13.6H44.5784" stroke="#1062AA" stroke-width="2" stroke-linecap="round" stroke-linejoin="round"/>
<path d="M55.1181 23.65H47.5781C46.7825 23.65 46.0194 23.3339 45.4568 22.7713C44.8942 22.2087 44.5781 21.4456 44.5781 20.65V13.65L55.1181 23.65Z" stroke="#1062AA" stroke-width="2" stroke-linecap="round" stroke-linejoin="round"/>
</svg>
