<svg width="40" height="42" viewBox="0 0 40 42" fill="none" xmlns="http://www.w3.org/2000/svg">
<path d="M38 14.3055L35.3689 30.2626C35.2893 30.7456 34.8717 31.0999 34.3822 31.0999H10.6756C10.1861 31.0999 9.76854 30.7456 9.6889 30.2626L7.19587 15.1429C7.11623 14.6599 6.69868 14.3055 6.20919 14.3055H2" stroke="#1062AA" stroke-width="3" stroke-linecap="round" stroke-linejoin="round"/>
<path fill-rule="evenodd" clip-rule="evenodd" d="M13.1964 40.4301C14.2269 40.4301 15.0624 39.5946 15.0624 38.564C15.0624 37.5335 14.2269 36.698 13.1964 36.698C12.1658 36.698 11.3303 37.5335 11.3303 38.564C11.3303 39.5946 12.1658 40.4301 13.1964 40.4301Z" stroke="#1062AA" stroke-width="3"/>
<path fill-rule="evenodd" clip-rule="evenodd" d="M31.8566 40.4301C32.8872 40.4301 33.7227 39.5946 33.7227 38.564C33.7227 37.5335 32.8872 36.698 31.8566 36.698C30.8261 36.698 29.9906 37.5335 29.9906 38.564C29.9906 39.5946 30.8261 40.4301 31.8566 40.4301Z" stroke="#1062AA" stroke-width="3"/>
<path d="M21.9999 1.56982V4.4269" stroke="#1062AA" stroke-width="3" stroke-linecap="round"/>
<path d="M21.9999 21.5693V24.4264" stroke="#1062AA" stroke-width="3" stroke-linecap="round"/>
<path d="M26.9998 7.28408C26.9998 7.28408 26.2855 4.427 21.9999 4.427C17.7143 4.427 17 7.22197 17 8.71262C17 14.6272 26.9998 11.5196 26.9998 17.2839C26.9998 18.7745 26.2855 21.5695 21.9999 21.5695C17.7143 21.5695 17 18.7124 17 18.7124" stroke="#1062AA" stroke-width="3" stroke-linecap="round"/>
</svg>
