<svg width="40" height="40" viewBox="0 0 40 40" fill="none" xmlns="http://www.w3.org/2000/svg">
<path fill-rule="evenodd" clip-rule="evenodd" d="M20 38C29.9411 38 38 29.9411 38 20C38 10.0589 29.9411 2 20 2C10.0589 2 2 10.0589 2 20C2 29.9411 10.0589 38 20 38Z" stroke="#1062AA" stroke-width="3"/>
<path d="M6.78717 31.8402C9.10842 26.8695 14.152 23.4253 20 23.4253C25.9328 23.4253 31.0376 26.9701 33.312 32.0571" stroke="#1062AA" stroke-width="3"/>
<path fill-rule="evenodd" clip-rule="evenodd" d="M20 18.4409C22.7696 18.4409 25.0147 16.1958 25.0147 13.4262C25.0147 10.6567 22.7696 8.4115 20 8.4115C17.2305 8.4115 14.9853 10.6567 14.9853 13.4262C14.9853 16.1958 17.2305 18.4409 20 18.4409Z" stroke="#1062AA" stroke-width="3"/>
</svg>
