<svg width="32" height="32" viewBox="0 0 32 32" fill="none" xmlns="http://www.w3.org/2000/svg">
<path d="M16.1925 31.7462C24.8751 31.7462 31.9136 24.7076 31.9136 16.0251C31.9136 7.34253 24.8751 0.303955 16.1925 0.303955C7.51001 0.303955 0.471436 7.34253 0.471436 16.0251C0.471436 24.7076 7.51001 31.7462 16.1925 31.7462Z" fill="#25D366"/>
<path fill-rule="evenodd" clip-rule="evenodd" d="M20.6505 17.6428C20.4193 17.5107 19.3294 16.9492 19.1313 16.8501C18.9331 16.751 18.768 16.718 18.6359 16.9492C18.4707 17.1804 18.0414 17.6428 17.8762 17.8079C17.7441 17.94 17.612 17.973 17.3808 17.8409C17.1496 17.7088 16.456 17.4446 15.6304 16.652C14.9698 16.0244 14.5735 15.2648 14.4414 15.0336C14.3093 14.8024 14.4414 14.6703 14.5735 14.5712C14.6726 14.4721 14.8047 14.307 14.9368 14.1749C15.0689 14.0428 15.1019 13.9437 15.168 13.8116C15.234 13.6795 15.201 13.5474 15.168 13.4153C15.1019 13.3162 14.7056 12.1932 14.5404 11.7308C14.3753 11.2685 14.1771 11.3345 14.045 11.3345C13.9129 11.3345 13.7808 11.3015 13.6157 11.3015C13.4505 11.3015 13.2193 11.3345 13.0212 11.5657C12.79 11.7969 12.1955 12.2923 12.1625 13.4153C12.1294 14.5052 12.8891 15.6281 12.9882 15.7602C13.0872 15.9253 14.4414 18.3033 16.6872 19.2942C18.9331 20.285 18.9661 19.9877 19.3625 19.9547C19.7918 19.9217 20.7166 19.4593 20.9148 18.9308C21.1129 18.4024 21.146 17.9731 21.0799 17.874C21.0138 17.8079 20.8817 17.7749 20.6505 17.6428ZM16.5221 22.9602C15.0359 22.9602 13.6487 22.4978 12.4927 21.7382L9.6854 22.6299L10.6102 19.9217C9.71843 18.6997 9.22302 17.2134 9.22302 15.6281C9.22302 11.5987 12.5258 8.29599 16.5551 8.29599C20.5845 8.29599 23.8872 11.5987 23.8872 15.6281C23.8542 19.6905 20.5845 22.9602 16.5221 22.9602ZM16.5221 6.84277C11.6671 6.84277 7.70375 10.7731 7.70375 15.6611C7.70375 17.3125 8.16614 18.8648 8.9588 20.2189L7.37347 24.9419L12.2615 23.3896C13.5166 24.0831 14.9698 24.4795 16.5221 24.4795C21.3771 24.4795 25.3404 20.5492 25.3404 15.6611C25.3404 10.7731 21.3771 6.84277 16.5221 6.84277Z" fill="white"/>
</svg>
