<svg width="32" height="33" viewBox="0 0 32 33" fill="none" xmlns="http://www.w3.org/2000/svg">
<path d="M15.845 32.316C24.596 32.316 31.69 25.222 31.69 16.471C31.69 7.72003 24.596 0.625977 15.845 0.625977C7.09406 0.625977 0 7.72003 0 16.471C0 25.222 7.09406 32.316 15.845 32.316Z" fill="#37AFE2"/>
<path d="M10.5981 17.725L12.4168 22.6792L20.5065 11.433L10.5981 17.725Z" fill="#C2DAEC"/>
<path d="M12.6259 18.833L12.4377 22.7211L16.7021 19.1048L12.6259 18.833Z" fill="#9FCDE2"/>
<path d="M22.4716 9.5518L6.54295 15.6139C6.08307 15.7811 6.10397 16.4291 6.56385 16.5754L10.661 17.9551L20.0259 11.9139L12.6259 18.833L18.3954 23.2019C19.0016 23.6618 19.8586 23.3483 20.0468 22.6166L23.1614 10.1371C23.2659 9.73993 22.8688 9.40547 22.4716 9.5518Z" fill="#ECF8FD"/>
</svg>
