<svg width="32" height="32" viewBox="0 0 32 32" fill="none" xmlns="http://www.w3.org/2000/svg">
<path d="M15.8058 31.9981C24.4883 31.9981 31.5269 24.9595 31.5269 16.277C31.5269 7.59448 24.4883 0.555908 15.8058 0.555908C7.12324 0.555908 0.084671 7.59448 0.084671 16.277C0.084671 24.9595 7.12324 31.9981 15.8058 31.9981Z" fill="#593EBC"/>
<path d="M23.4073 17.4701C22.9216 21.476 20.0598 21.7286 19.5325 21.9022C19.3074 21.9757 17.2199 22.5075 14.5967 22.3314L11.7518 25.4819L11.7488 21.8497L11.7263 21.8437C7.90552 20.7571 8.03408 16.6837 8.0771 14.5452C8.12012 12.4067 8.5123 10.6554 9.67785 9.47733C11.7713 7.53541 16.0849 7.82655 16.0849 7.82655C19.7276 7.84306 21.4739 8.96559 21.8786 9.34226C23.2217 10.5218 23.9076 13.3406 23.4073 17.4701ZM22.8721 8.34329C22.3934 7.89308 20.4599 6.4559 16.1534 6.43639C16.1534 6.43639 11.0755 6.12224 8.59984 8.44784C7.22169 9.85851 6.73697 11.9225 6.68544 14.4832C6.63392 17.0439 6.56839 21.8402 11.0875 23.1413H11.0915V25.1262C11.0915 25.1262 11.0635 25.9301 11.5793 26.0932C12.2045 26.2933 12.5717 25.681 13.1685 25.0227C13.4967 24.662 13.9484 24.1307 14.289 23.725C17.379 23.9902 19.7546 23.3824 20.0242 23.2928C20.6485 23.0852 24.1762 22.6225 24.752 17.8258C25.3442 12.8799 24.4648 9.75246 22.8766 8.34179" fill="white"/>
<path d="M20.1168 18.0674C20.1168 18.0674 19.5375 17.5731 19.2554 17.361C18.9568 17.1436 18.6474 16.9414 18.3284 16.7553C17.9027 16.5126 17.468 16.6647 17.2889 16.9053L16.9163 17.3846C16.7252 17.6277 16.4305 17.5871 16.3535 17.5711C15.8032 17.4331 15.217 17.0884 14.6177 16.5081C14.0184 15.9279 13.6442 15.3111 13.5132 14.6748L13.5037 14.6333C13.4686 14.3716 13.5122 14.2511 13.6187 14.0725L13.6387 14.056C13.8888 13.8219 14.3576 13.5372 14.4201 13.2656C14.6032 12.7944 13.8068 11.8119 13.6932 11.6383C13.6932 11.6383 13.114 10.8715 12.9079 10.7254C12.6858 10.5403 12.3411 10.4343 11.9939 10.6479L11.9759 10.6609C10.978 11.3362 10.6163 11.7244 10.7148 12.3037L10.7649 12.5368C11.2711 14.1325 12.2481 15.8333 13.7058 17.348C15.1474 18.8442 16.7072 19.7402 18.2439 20.3605C18.6441 20.493 19.0578 20.379 19.4825 20.0163L19.4895 20.0108C19.799 19.7269 20.0613 19.3954 20.2663 19.0288V19.0218C20.4534 18.6531 20.3899 18.304 20.1163 18.0659" fill="white"/>
<path d="M17.7237 14.5738C17.6939 14.5734 17.6654 14.5616 17.6441 14.5409C17.6228 14.5201 17.6102 14.4919 17.6091 14.4622C17.5891 14.0485 17.4775 13.7319 17.2779 13.5203C17.0783 13.3087 16.7812 13.1926 16.393 13.1701C16.3618 13.1684 16.3326 13.1545 16.3117 13.1312C16.2909 13.108 16.2801 13.0775 16.2817 13.0463C16.2834 13.0151 16.2974 12.9859 16.3206 12.965C16.3438 12.9441 16.3744 12.9333 16.4055 12.935C16.8557 12.9595 17.2024 13.1011 17.443 13.3552C17.6836 13.6093 17.8157 13.9765 17.8387 14.4487C17.8405 14.4795 17.83 14.5098 17.8096 14.5329C17.7892 14.5561 17.7604 14.5702 17.7297 14.5723H17.7237" fill="white"/>
<path d="M18.8612 14.9639H18.8582C18.8274 14.9626 18.7984 14.9492 18.7774 14.9267C18.7564 14.9041 18.7452 14.8742 18.7461 14.8434C18.7636 14.0495 18.532 13.3782 18.0563 12.8474C17.8194 12.5823 17.5291 12.3704 17.2044 12.2256C16.8394 12.0694 16.4502 11.9774 16.0539 11.9535C16.0232 11.9506 15.9949 11.9357 15.9751 11.9122C15.9552 11.8886 15.9454 11.8582 15.9478 11.8274C15.9496 11.7967 15.9635 11.768 15.9865 11.7476C16.0095 11.7271 16.0397 11.7166 16.0704 11.7184C16.9873 11.7874 17.7121 12.1136 18.2259 12.6889C18.7396 13.2641 18.9942 13.9925 18.9762 14.8489C18.9757 14.8792 18.9634 14.9082 18.942 14.9297C18.9205 14.9511 18.8915 14.9634 18.8612 14.9639Z" fill="white"/>
<path d="M20.0257 15.4301C19.995 15.4299 19.9657 15.4174 19.9441 15.3956C19.9226 15.3737 19.9105 15.3443 19.9107 15.3136C19.9052 14.6132 19.7996 13.9769 19.5955 13.4257C19.3991 12.8891 19.0884 12.4017 18.6851 11.997C18.298 11.6065 17.8365 11.2975 17.328 11.0886C16.8006 10.88 16.2383 10.7735 15.6712 10.7749C15.6413 10.773 15.6132 10.7597 15.5927 10.7378C15.5722 10.716 15.5608 10.6871 15.5608 10.6571C15.5608 10.6271 15.5722 10.5983 15.5927 10.5764C15.6132 10.5545 15.6413 10.5413 15.6712 10.5393C16.9293 10.5488 17.9963 10.982 18.8437 11.8269C19.2714 12.2554 19.6005 12.7719 19.8081 13.3406C20.0217 13.9169 20.1328 14.5797 20.1383 15.3096C20.1386 15.3248 20.1359 15.34 20.1304 15.3542C20.1249 15.3684 20.1166 15.3814 20.1061 15.3924C20.0955 15.4034 20.0829 15.4122 20.069 15.4183C20.055 15.4245 20.04 15.4278 20.0247 15.4281L20.0257 15.4301Z" fill="white"/>
</svg>
