<svg width="26" height="26" viewBox="0 0 26 26" fill="none" xmlns="http://www.w3.org/2000/svg">
<path d="M12.9004 25.8424C19.804 25.8424 25.4004 20.246 25.4004 13.3424C25.4004 6.43885 19.804 0.842407 12.9004 0.842407C5.99683 0.842407 0.400391 6.43885 0.400391 13.3424C0.400391 20.246 5.99683 25.8424 12.9004 25.8424Z" fill="#37AFE2"/>
<path d="M8.76123 14.3316L10.1959 18.24L16.5779 9.36792L8.76123 14.3316Z" fill="#C2DAEC"/>
<path d="M10.3607 15.2058L10.2123 18.2731L13.5764 15.4202L10.3607 15.2058Z" fill="#9FCDE2"/>
<path d="M18.1279 7.88385L5.56197 12.6662C5.19917 12.7981 5.21566 13.3093 5.57846 13.4247L8.81065 14.5131L16.1985 9.7473L10.3608 15.2057L14.9122 18.6523C15.3905 19.0151 16.0666 18.7677 16.215 18.1906L18.6721 8.34559C18.7546 8.03226 18.4413 7.76841 18.1279 7.88385Z" fill="#ECF8FD"/>
</svg>
