<svg width="26" height="26" viewBox="0 0 26 26" fill="none" xmlns="http://www.w3.org/2000/svg">
<path d="M13.1147 25.5745C20.0183 25.5745 25.6147 19.978 25.6147 13.0745C25.6147 6.1709 20.0183 0.574463 13.1147 0.574463C6.21118 0.574463 0.614746 6.1709 0.614746 13.0745C0.614746 19.978 6.21118 25.5745 13.1147 25.5745Z" fill="#593EBC"/>
<path d="M19.1588 14.0232C18.7726 17.2083 16.4971 17.4092 16.0779 17.5472C15.8989 17.6057 14.2391 18.0285 12.1534 17.8885L9.8914 20.3934L9.88901 17.5054L9.87111 17.5007C6.83316 16.6368 6.93538 13.3979 6.96958 11.6976C7.00379 9.99725 7.31562 8.60475 8.24236 7.66807C9.90691 6.12403 13.3366 6.35552 13.3366 6.35552C16.233 6.36864 17.6215 7.26118 17.9433 7.56068C19.0112 8.49855 19.5565 10.7398 19.1588 14.0232ZM18.7332 6.76639C18.3526 6.40842 16.8153 5.2657 13.3911 5.25019C13.3911 5.25019 9.35365 5.00041 7.38522 6.84951C6.28944 7.97115 5.90403 9.61223 5.86306 11.6483C5.82209 13.6843 5.76999 17.4979 9.3632 18.5324H9.36638V20.1106C9.36638 20.1106 9.3441 20.7498 9.75418 20.8795C10.2514 21.0386 10.5433 20.5517 11.0178 20.0283C11.2787 19.7415 11.6379 19.3191 11.9087 18.9966C14.3656 19.2074 16.2545 18.7241 16.4689 18.6529C16.9652 18.4879 19.7701 18.1199 20.2279 14.306C20.6989 10.3735 19.9996 7.88683 18.7368 6.76519" fill="white"/>
<path d="M16.5424 14.498C16.5424 14.498 16.0818 14.1051 15.8575 13.9364C15.6201 13.7635 15.3741 13.6028 15.1205 13.4548C14.782 13.2619 14.4364 13.3828 14.294 13.5741L13.9977 13.9551C13.8457 14.1484 13.6115 14.1162 13.5502 14.1035C13.1127 13.9937 12.6465 13.7197 12.17 13.2583C11.6936 12.7969 11.396 12.3065 11.2918 11.8006L11.2843 11.7675C11.2564 11.5595 11.291 11.4637 11.3758 11.3217L11.3917 11.3085C11.5905 11.1224 11.9632 10.8961 12.0129 10.6801C12.1585 10.3054 11.5253 9.52427 11.435 9.38626C11.435 9.38626 10.9744 8.77652 10.8106 8.66038C10.634 8.51321 10.3599 8.42889 10.0839 8.59873L10.0696 8.60907C9.27607 9.14602 8.98851 9.45467 9.06686 9.91525L9.10663 10.1006C9.50915 11.3694 10.2859 12.7217 11.445 13.9261C12.5913 15.1157 13.8314 15.8281 15.0533 16.3213C15.3715 16.4267 15.7004 16.336 16.0381 16.0476L16.0437 16.0433C16.2898 15.8175 16.4983 15.554 16.6614 15.2625V15.2569C16.8101 14.9638 16.7596 14.6862 16.542 14.4968" fill="white"/>
<path d="M14.6397 11.7201C14.616 11.7198 14.5934 11.7105 14.5764 11.694C14.5595 11.6775 14.5495 11.6551 14.5486 11.6314C14.5327 11.3025 14.444 11.0507 14.2853 10.8825C14.1266 10.7142 13.8903 10.622 13.5817 10.6041C13.5569 10.6027 13.5336 10.5916 13.517 10.5732C13.5004 10.5547 13.4919 10.5304 13.4932 10.5056C13.4945 10.4808 13.5056 10.4576 13.5241 10.441C13.5425 10.4244 13.5668 10.4158 13.5916 10.4171C13.9496 10.4366 14.2252 10.5492 14.4165 10.7512C14.6078 10.9533 14.7129 11.2452 14.7311 11.6207C14.7326 11.6452 14.7243 11.6693 14.708 11.6877C14.6918 11.7061 14.6689 11.7173 14.6444 11.7189H14.6397" fill="white"/>
<path d="M15.5441 12.0304H15.5418C15.5173 12.0294 15.4942 12.0187 15.4775 12.0008C15.4608 11.9828 15.4519 11.959 15.4527 11.9346C15.4666 11.3033 15.2824 10.7696 14.9042 10.3476C14.7158 10.1368 14.485 9.9683 14.2268 9.85317C13.9366 9.72897 13.6271 9.65577 13.312 9.6368C13.2876 9.63448 13.2651 9.62267 13.2494 9.60392C13.2336 9.58518 13.2258 9.56099 13.2277 9.53657C13.2291 9.51215 13.2402 9.4893 13.2585 9.47305C13.2767 9.45679 13.3007 9.44845 13.3251 9.44986C14.0542 9.50475 14.6305 9.76408 15.039 10.2215C15.4475 10.6789 15.6499 11.258 15.6356 11.9389C15.6352 11.9631 15.6254 11.9861 15.6084 12.0032C15.5913 12.0202 15.5683 12.03 15.5441 12.0304Z" fill="white"/>
<path d="M16.47 12.4012C16.4456 12.401 16.4223 12.3911 16.4052 12.3737C16.388 12.3564 16.3784 12.3329 16.3785 12.3085C16.3742 11.7517 16.2903 11.2457 16.128 10.8074C15.9718 10.3808 15.7248 9.99325 15.4041 9.67147C15.0963 9.36095 14.7294 9.11533 14.325 8.94917C13.9057 8.78331 13.4586 8.69868 13.0077 8.69979C12.9839 8.69824 12.9616 8.68769 12.9453 8.6703C12.929 8.6529 12.9199 8.62996 12.9199 8.60612C12.9199 8.58228 12.929 8.55934 12.9453 8.54194C12.9616 8.52455 12.9839 8.514 13.0077 8.51245C14.008 8.52001 14.8564 8.86445 15.5302 9.53624C15.8702 9.87691 16.1319 10.2876 16.297 10.7398C16.4668 11.198 16.5551 11.725 16.5595 12.3053C16.5598 12.3174 16.5577 12.3295 16.5533 12.3408C16.5489 12.3521 16.5423 12.3624 16.5339 12.3712C16.5255 12.3799 16.5155 12.3869 16.5044 12.3918C16.4933 12.3967 16.4814 12.3993 16.4692 12.3996L16.47 12.4012Z" fill="white"/>
</svg>
