<svg width="26" height="26" viewBox="0 0 26 26" fill="none" xmlns="http://www.w3.org/2000/svg">
<path d="M12.9841 25.3066C19.8877 25.3066 25.4841 19.7102 25.4841 12.8066C25.4841 5.90308 19.8877 0.306641 12.9841 0.306641C6.08057 0.306641 0.484131 5.90308 0.484131 12.8066C0.484131 19.7102 6.08057 25.3066 12.9841 25.3066Z" fill="#25D366"/>
<path fill-rule="evenodd" clip-rule="evenodd" d="M16.5286 14.0929C16.3448 13.9879 15.4782 13.5415 15.3207 13.4627C15.1631 13.3839 15.0318 13.3576 14.9268 13.5415C14.7955 13.7253 14.4541 14.0929 14.3228 14.2242C14.2177 14.3293 14.1127 14.3555 13.9289 14.2505C13.745 14.1454 13.1936 13.9354 12.537 13.3051C12.0118 12.8062 11.6967 12.2022 11.5917 12.0183C11.4866 11.8345 11.5917 11.7295 11.6967 11.6507C11.7755 11.5719 11.8805 11.4406 11.9856 11.3356C12.0906 11.2305 12.1169 11.1517 12.1694 11.0467C12.2219 10.9417 12.1957 10.8366 12.1694 10.7316C12.1169 10.6528 11.8018 9.75994 11.6705 9.39229C11.5391 9.02465 11.3816 9.07717 11.2765 9.07717C11.1715 9.07717 11.0665 9.05091 10.9352 9.05091C10.8039 9.05091 10.62 9.07717 10.4625 9.26099C10.2786 9.44481 9.80596 9.83872 9.7797 10.7316C9.75344 11.5982 10.3574 12.491 10.4362 12.5961C10.515 12.7274 11.5917 14.6181 13.3774 15.406C15.1631 16.1938 15.1894 15.9574 15.5045 15.9312C15.8459 15.9049 16.5812 15.5373 16.7387 15.1171C16.8963 14.6969 16.9226 14.3555 16.87 14.2767C16.8175 14.2242 16.7125 14.198 16.5286 14.0929ZM13.2461 18.3209C12.0644 18.3209 10.9614 17.9532 10.0423 17.3492L7.81016 18.0583L8.54545 15.9049C7.83642 14.9333 7.44251 13.7515 7.44251 12.491C7.44251 9.28725 10.0686 6.6612 13.2723 6.6612C16.4761 6.6612 19.1022 9.28725 19.1022 12.491C19.0759 15.7211 16.4761 18.3209 13.2461 18.3209ZM13.2461 5.50574C9.38579 5.50574 6.23453 8.63074 6.23453 12.5173C6.23453 13.8303 6.60218 15.0646 7.23243 16.1412L5.97192 19.8965L9.85848 18.6623C10.8564 19.2137 12.0118 19.5288 13.2461 19.5288C17.1064 19.5288 20.2576 16.4038 20.2576 12.5173C20.2576 8.63074 17.1064 5.50574 13.2461 5.50574Z" fill="white"/>
</svg>
