<svg width="74" height="68" viewBox="0 0 74 68" fill="none" xmlns="http://www.w3.org/2000/svg">
<circle cx="14.5" cy="48.5" r="2.5" fill="#1062AA"/>
<circle cx="23.25" cy="48.5" r="2.5" fill="#1062AA"/>
<circle cx="32" cy="48.5" r="2.5" fill="#1062AA"/>
<path d="M28.1367 61.8461L27.7487 60.3972C28.1029 60.3023 28.4796 60.3405 28.8075 60.5045L28.1367 61.8461ZM36.4444 66L37.9294 65.7878C38.0083 66.3402 37.7741 66.8906 37.3215 67.2168C36.8689 67.5431 36.2726 67.5911 35.7736 67.3416L36.4444 66ZM35.3194 58.125L33.8345 58.3371C33.7624 57.8321 33.9519 57.325 34.3375 56.991L35.3194 58.125ZM22.6667 64.0556C12.6563 64.0556 3.94446 57.5105 3.94446 48.7778H6.94446C6.94446 55.2636 13.6539 61.0556 22.6667 61.0556V64.0556ZM28.5247 63.2951C26.6788 63.7893 24.709 64.0556 22.6667 64.0556V61.0556C24.4486 61.0556 26.1575 60.8232 27.7487 60.3972L28.5247 63.2951ZM35.7736 67.3416L27.4659 63.1877L28.8075 60.5045L37.1153 64.6583L35.7736 67.3416ZM36.8044 57.9128L37.9294 65.7878L34.9595 66.2121L33.8345 58.3371L36.8044 57.9128ZM41.3889 48.7778C41.3889 52.893 39.4077 56.5691 36.3014 59.2589L34.3375 56.991C36.904 54.7687 38.3889 51.8775 38.3889 48.7778H41.3889ZM22.6667 33.5C32.677 33.5 41.3889 40.045 41.3889 48.7778H38.3889C38.3889 42.292 31.6795 36.5 22.6667 36.5V33.5ZM3.94446 48.7778C3.94446 40.045 12.6563 33.5 22.6667 33.5V36.5C13.6539 36.5 6.94446 42.292 6.94446 48.7778H3.94446Z" fill="#37AFE2"/>
<path d="M67.7059 24.1765V25.6765C68.5343 25.6765 69.2059 25.0049 69.2059 24.1765H67.7059ZM67.7059 2H69.2059C69.2059 1.17157 68.5343 0.5 67.7059 0.5V2ZM54.0588 24.1765V22.6765C53.7627 22.6765 53.4732 22.7641 53.2268 22.9284L54.0588 24.1765ZM43.8235 31H42.3235C42.3235 31.5532 42.628 32.0615 43.1158 32.3225C43.6035 32.5835 44.1953 32.5549 44.6556 32.2481L43.8235 31ZM43.8235 24.1765H45.3235C45.3235 23.348 44.652 22.6765 43.8235 22.6765V24.1765ZM37 24.1765H35.5C35.5 25.0049 36.1716 25.6765 37 25.6765V24.1765ZM37 2V0.5C36.1716 0.5 35.5 1.17157 35.5 2L37 2ZM69.2059 24.1765V2H66.2059V24.1765H69.2059ZM54.0588 25.6765L67.7059 25.6765V22.6765L54.0588 22.6765V25.6765ZM44.6556 32.2481L54.8909 25.4245L53.2268 22.9284L42.9915 29.7519L44.6556 32.2481ZM42.3235 24.1765V31H45.3235V24.1765H42.3235ZM37 25.6765H43.8235V22.6765H37V25.6765ZM35.5 2V24.1765H38.5V2H35.5ZM67.7059 0.5H37V3.5H67.7059V0.5Z" fill="#37AFE2"/>
<path d="M45 10H60" stroke="#1062AA" stroke-width="3" stroke-linecap="round" stroke-linejoin="round"/>
<path d="M45 16H60" stroke="#1062AA" stroke-width="3" stroke-linecap="round" stroke-linejoin="round"/>
<path fill-rule="evenodd" clip-rule="evenodd" d="M66.5557 39.8365C67.3398 39.5821 68.0776 40.3326 67.81 41.1123L62.2019 57.454C61.9607 58.1569 61.0641 58.3604 60.543 57.8304L56.4918 53.7099L61.323 46.2337L53.6257 50.7948L49.7167 46.8189C49.1956 46.2889 49.4143 45.3959 50.1212 45.1666L66.5557 39.8365Z" stroke="#37AFE2" stroke-width="3" stroke-linejoin="round"/>
<path fill-rule="evenodd" clip-rule="evenodd" d="M7.17368 8.00633C6.38952 7.75201 5.65174 8.50242 5.91933 9.28215L11.5274 25.6238C11.7687 26.3268 12.6653 26.5303 13.1864 26.0003L17.2376 21.8798L12.4064 14.4035L20.1036 18.9647L24.0127 14.9888C24.5338 14.4588 24.3151 13.5657 23.6081 13.3364L7.17368 8.00633Z" stroke="#37AFE2" stroke-width="3" stroke-linejoin="round"/>
</svg>
