<svg width="69" height="69" viewBox="0 0 69 69" fill="none" xmlns="http://www.w3.org/2000/svg">
<path fill-rule="evenodd" clip-rule="evenodd" d="M34.5 67C52.4493 67 67 52.4493 67 34.5C67 16.5507 52.4493 2 34.5 2C16.5507 2 2 16.5507 2 34.5C2 52.4493 16.5507 67 34.5 67Z" stroke="#37AFE2" stroke-width="3"/>
<path fill-rule="evenodd" clip-rule="evenodd" d="M34.5 63.7499C34.5 63.7499 47.5 53.1136 47.5 34.4999C47.5 15.8863 34.5 5.24994 34.5 5.24994C34.5 5.24994 25.9859 12.216 22.7382 24.7388C21.9729 27.6901 21.5 30.9499 21.5 34.4999C21.5 38.146 21.9988 41.4861 22.801 44.5C26.0942 56.8724 34.5 63.7499 34.5 63.7499Z" stroke="#37AFE2" stroke-width="3"/>
<path d="M3.625 24.7499H65.375" stroke="#37AFE2" stroke-width="3" stroke-linecap="round"/>
<path d="M3.625 44.25H65.375" stroke="#37AFE2" stroke-width="3" stroke-linecap="round"/>
<path fill-rule="evenodd" clip-rule="evenodd" d="M34.5 50C43.0604 50 50 43.0604 50 34.5C50 25.9396 43.0604 19 34.5 19C25.9396 19 19 25.9396 19 34.5C19 43.0604 25.9396 50 34.5 50Z" fill="white" stroke="#37AFE2" stroke-width="3"/>
<path d="M37.0459 37.918C37.0459 37.3092 36.8525 36.8079 36.4658 36.4141C36.0791 36.013 35.4346 35.6549 34.5322 35.3398C33.6299 35.0176 32.9281 34.7204 32.4268 34.4482C30.7581 33.5531 29.9238 32.2282 29.9238 30.4736C29.9238 29.2848 30.2855 28.3073 31.0088 27.541C31.7321 26.7747 32.7132 26.32 33.9521 26.1768V23.835H35.6709V26.1982C36.917 26.3773 37.8802 26.9072 38.5605 27.7881C39.2409 28.6618 39.5811 29.8005 39.5811 31.2041H36.9814C36.9814 30.3018 36.7773 29.5928 36.3691 29.0771C35.9681 28.5544 35.4202 28.293 34.7256 28.293C34.0381 28.293 33.501 28.4792 33.1143 28.8516C32.7275 29.224 32.5342 29.7575 32.5342 30.4521C32.5342 31.0752 32.724 31.5765 33.1035 31.9561C33.4902 32.3285 34.1419 32.6829 35.0586 33.0195C35.9753 33.3561 36.695 33.6676 37.2178 33.9541C37.7406 34.2406 38.181 34.57 38.5391 34.9424C38.8971 35.3076 39.1729 35.7301 39.3662 36.21C39.5596 36.6898 39.6562 37.252 39.6562 37.8965C39.6562 39.1068 39.2839 40.0879 38.5391 40.8398C37.8014 41.5918 36.7702 42.0358 35.4453 42.1719V44.2666H33.7373V42.1826C32.3193 42.0251 31.2272 41.5166 30.4609 40.6572C29.7018 39.7979 29.3223 38.6592 29.3223 37.2412H31.9326C31.9326 38.1436 32.1582 38.8418 32.6094 39.3359C33.0677 39.8301 33.7122 40.0771 34.543 40.0771C35.3594 40.0771 35.9788 39.8802 36.4014 39.4863C36.8311 39.0924 37.0459 38.5697 37.0459 37.918Z" fill="#1062AA"/>
</svg>
