<svg width="39" height="39" viewBox="0 0 39 39" fill="none" xmlns="http://www.w3.org/2000/svg">
<path d="M12.5 20.375L16.875 24.75L26.5 15.125" stroke="#1062AA" stroke-width="3" stroke-linecap="round"/>
<path d="M19.5 37C21.9259 37 23.9676 35.3546 24.5697 33.1189C24.6766 32.7221 25.189 32.5099 25.5451 32.7149C27.5518 33.87 30.1589 33.5898 31.8743 31.8744C33.5897 30.159 33.8699 27.5519 32.7148 25.5452C32.5098 25.189 32.7221 24.6766 33.1189 24.5698C35.3546 23.9676 37 21.926 37 19.5C37 17.0741 35.3546 15.0324 33.1189 14.4303C32.7221 14.3234 32.5099 13.811 32.7149 13.4549C33.87 11.4482 33.5898 8.84104 31.8744 7.12564C30.159 5.41024 27.5519 5.13008 25.5452 6.28516C25.189 6.49016 24.6766 6.27792 24.5698 5.88113C23.9676 3.64543 21.9259 2 19.5 2C17.0741 2 15.0324 3.6454 14.4303 5.88108C14.3234 6.27787 13.811 6.4901 13.4549 6.2851C11.4482 5.13003 8.84104 5.4102 7.12564 7.1256C5.41024 8.841 5.13008 11.4481 6.28516 13.4548C6.49016 13.811 6.27792 14.3234 5.88113 14.4302C3.64543 15.0324 2 17.0741 2 19.5C2 21.9259 3.6454 23.9675 5.88108 24.5697C6.27786 24.6766 6.49009 25.189 6.2851 25.5451C5.13004 27.5518 5.4102 30.1589 7.1256 31.8743C8.841 33.5897 11.4481 33.8699 13.4548 32.7148C13.811 32.5098 14.3234 32.7221 14.4302 33.1189C15.0324 35.3546 17.0741 37 19.5 37Z" stroke="#1062AA" stroke-width="3" stroke-linecap="round"/>
</svg>
