<svg width="69" height="67" viewBox="0 0 69 67" fill="none" xmlns="http://www.w3.org/2000/svg">
<path d="M34.3732 27.9801L34.7612 26.5312C34.407 26.4363 34.0303 26.4745 33.7024 26.6385L34.3732 27.9801ZM26.3334 32L24.8485 31.7879C24.7696 32.3402 25.0037 32.8907 25.4563 33.2169C25.9089 33.5431 26.5052 33.5912 27.0042 33.3417L26.3334 32ZM27.4221 24.3791L28.907 24.5912C28.9792 24.0861 28.7897 23.5791 28.404 23.2451L27.4221 24.3791ZM39.6667 30.1667C49.3702 30.1667 57.8334 23.8206 57.8334 15.3333H54.8334C54.8334 21.5737 48.3726 27.1667 39.6667 27.1667V30.1667ZM33.9852 29.4291C35.7756 29.9085 37.6861 30.1667 39.6667 30.1667V27.1667C37.9465 27.1667 36.297 26.9424 34.7612 26.5312L33.9852 29.4291ZM27.0042 33.3417L35.044 29.3218L33.7024 26.6385L25.6626 30.6584L27.0042 33.3417ZM25.9372 24.1669L24.8485 31.7879L27.8183 32.2121L28.907 24.5912L25.9372 24.1669ZM21.5 15.3333C21.5 19.3322 23.4253 22.9024 26.4402 25.513L28.404 23.2451C25.929 21.102 24.5 18.3167 24.5 15.3333H21.5ZM39.6667 0.5C29.9631 0.5 21.5 6.84607 21.5 15.3333H24.5C24.5 9.09302 30.9607 3.5 39.6667 3.5V0.5ZM57.8334 15.3333C57.8334 6.84607 49.3702 0.5 39.6667 0.5V3.5C48.3726 3.5 54.8334 9.09302 54.8334 15.3333H57.8334Z" fill="#37AFE2"/>
<circle cx="33" cy="15" r="2" fill="#1062AA"/>
<circle cx="40" cy="15" r="2" fill="#1062AA"/>
<circle cx="47" cy="15" r="2" fill="#1062AA"/>
<path d="M42.4408 52.937L55.1534 40.2418C56.697 38.7016 59.2064 38.7016 60.75 40.2418C62.2936 41.7833 62.2936 44.2906 60.75 45.8321L43.2601 63.0702C40.6835 65.6433 36.5091 65.6433 33.9325 63.0702C31.3558 60.4983 31.3558 56.327 33.9325 53.7552L51.2337 36.7016C54.8407 33.0995 60.6906 33.0995 64.2924 36.7016C67.9021 40.305 67.9021 46.1417 64.295 49.7438L51.7711 62.252" stroke="#37AFE2" stroke-width="3" stroke-linecap="round"/>
<path d="M1.99997 44.3058C1.99997 50.6246 7.12236 55.747 13.4411 55.747C19.7599 55.747 24.8823 50.6246 24.8823 44.3058" stroke="#37AFE2" stroke-width="3" stroke-linecap="round"/>
<path d="M13.4412 55.747V64.9" stroke="#37AFE2" stroke-width="3" stroke-linecap="round"/>
<rect x="8.86475" y="26" width="9.15294" height="22.8824" rx="4.57647" stroke="#37AFE2" stroke-width="3"/>
</svg>
