<svg width="69" height="67" viewBox="0 0 69 67" fill="none" xmlns="http://www.w3.org/2000/svg">
<circle cx="57.5" cy="47.5" r="5.5" stroke="#1062AA" stroke-width="3"/>
<path d="M67 67C67 61.4772 62.7467 57 57.5 57C52.2533 57 48 61.4772 48 67" stroke="#1062AA" stroke-width="3"/>
<circle cx="34.5" cy="47.5" r="5.5" stroke="#37AFE2" stroke-width="3"/>
<path d="M44 67C44 61.4772 39.7467 57 34.5 57C29.2533 57 25 61.4772 25 67" stroke="#37AFE2" stroke-width="3"/>
<circle cx="11.5" cy="47.5" r="5.5" stroke="#1062AA" stroke-width="3"/>
<path d="M21 67C21 61.4772 16.7467 57 11.5 57C6.25329 57 2 61.4772 2 67" stroke="#1062AA" stroke-width="3"/>
<circle cx="57.5" cy="7.5" r="5.5" stroke="#37AFE2" stroke-width="3"/>
<path d="M67 27C67 21.4772 62.7467 17 57.5 17C52.2533 17 48 21.4772 48 27" stroke="#37AFE2" stroke-width="3"/>
<circle cx="34.5" cy="7.5" r="5.5" stroke="#1062AA" stroke-width="3"/>
<path d="M44 27C44 21.4772 39.7467 17 34.5 17C29.2533 17 25 21.4772 25 27" stroke="#1062AA" stroke-width="3"/>
<circle cx="11.5" cy="7.5" r="5.5" stroke="#37AFE2" stroke-width="3"/>
<path d="M21 27C21 21.4772 16.7467 17 11.5 17C6.25329 17 2 21.4772 2 27" stroke="#37AFE2" stroke-width="3"/>
</svg>
