<svg width="40" height="40" viewBox="0 0 40 40" fill="none" xmlns="http://www.w3.org/2000/svg">
<circle cx="20" cy="20" r="19" stroke="#1062AA" stroke-width="2"/>
<path d="M19.0979 11.8541C19.6966 10.0115 22.3034 10.0115 22.9021 11.8541L23.9187 14.9828C24.1864 15.8068 24.9543 16.3647 25.8208 16.3647H29.1105C31.0479 16.3647 31.8535 18.844 30.2861 19.9828L27.6246 21.9164C26.9237 22.4257 26.6304 23.3284 26.8981 24.1525L27.9147 27.2812C28.5134 29.1238 26.4044 30.656 24.837 29.5172L22.1756 27.5836C21.4746 27.0743 20.5254 27.0743 19.8244 27.5836L17.163 29.5172C15.5956 30.656 13.4866 29.1238 14.0853 27.2812L15.1019 24.1525C15.3697 23.3284 15.0763 22.4257 14.3754 21.9164L11.714 19.9828C10.1465 18.844 10.9521 16.3647 12.8895 16.3647H16.1792C17.0457 16.3647 17.8136 15.8068 18.0813 14.9828L19.0979 11.8541Z" fill="#F7B916"/>
<path d="M18.5734 11.0086C19.0224 9.62665 20.9776 9.62665 21.4266 11.0086L22.4432 14.1373C22.7778 15.1673 23.7377 15.8647 24.8208 15.8647H28.1105C29.5636 15.8647 30.1677 17.7242 28.9922 18.5783L26.3307 20.5119C25.4545 21.1485 25.0879 22.2769 25.4226 23.307L26.4391 26.4357C26.8882 27.8176 25.3064 28.9668 24.1309 28.1127L21.4695 26.1791C20.5932 25.5425 19.4068 25.5425 18.5305 26.1791L15.8691 28.1127C14.6936 28.9668 13.1118 27.8176 13.5609 26.4357L14.5774 23.307C14.9121 22.2769 14.5455 21.1485 13.6693 20.5119L11.0078 18.5783C9.83227 17.7242 10.4364 15.8647 11.8895 15.8647H15.1792C16.2623 15.8647 17.2222 15.1673 17.5568 14.1373L18.5734 11.0086Z" stroke="#333333"/>
</svg>
