<svg width="48" height="40" viewBox="0 0 48 40" fill="none" xmlns="http://www.w3.org/2000/svg">
<path d="M1.97 15.5631L3.81733 17.386C4.41275 17.9736 5.38985 17.9736 5.97 17.386L17.3288 6.17701C17.9242 5.58944 17.9242 4.62522 17.3288 4.05272L15.4815 2.22974C14.886 1.64217 13.9089 1.64217 13.3288 2.22974L1.97 13.4237C1.37458 14.0113 1.37458 14.9755 1.97 15.5631Z" stroke="#1062AA" stroke-width="2" stroke-miterlimit="10" stroke-linecap="round" stroke-linejoin="round"/>
<path d="M32.5165 1.94352L30.6692 3.76649C30.0738 4.35406 30.0738 5.31828 30.6692 5.89079L42.028 17.0998C42.6234 17.6874 43.6005 17.6874 44.1807 17.0998L46.028 15.2769C46.6234 14.6893 46.6234 13.7251 46.028 13.1526L34.6692 1.94352C34.0738 1.35595 33.112 1.35595 32.5165 1.94352Z" stroke="#F7B916" stroke-width="2" stroke-miterlimit="10" stroke-linecap="round" stroke-linejoin="round"/>
<path d="M29.8618 23.5782L34.7473 28.3993C35.6786 29.3183 37.2205 29.3183 38.1518 28.3993C39.0831 27.4802 39.0831 25.9586 38.1518 25.0396L27.2969 14.3277" stroke="#1062AA" stroke-width="2" stroke-miterlimit="10" stroke-linecap="round" stroke-linejoin="round"/>
<path d="M26.3672 26.8625L31.2069 31.6987C32.1382 32.6177 33.6802 32.6177 34.6115 31.6987C35.5428 30.7797 35.5428 29.258 34.6115 28.339L29.9244 23.7137" stroke="#1062AA" stroke-width="2" stroke-miterlimit="10" stroke-linecap="round" stroke-linejoin="round"/>
<path d="M35.8952 11.6912C35.5135 13.9059 33.5593 15.6083 31.1929 15.6083C29.6509 15.6083 28.2921 14.8851 27.4219 13.7703" stroke="#F7B916" stroke-width="2" stroke-miterlimit="10" stroke-linecap="round" stroke-linejoin="round"/>
<path d="M7.03906 16.3315L11.0543 24.0452" stroke="#1062AA" stroke-width="2" stroke-miterlimit="10" stroke-linecap="round" stroke-linejoin="round"/>
<path d="M16.7031 6.80978L23.6344 10.7721" stroke="#1062AA" stroke-width="2" stroke-miterlimit="10" stroke-linecap="round" stroke-linejoin="round"/>
<path d="M39 23L42.0302 17.0998" stroke="#F7B916" stroke-width="2" stroke-miterlimit="10" stroke-linecap="round" stroke-linejoin="round"/>
<path d="M10.718 27.7364C11.6493 28.6554 13.1913 28.6554 14.1226 27.7364L16.5806 25.3107C17.5119 24.3917 17.5119 22.8701 16.5806 21.951C15.6493 21.032 14.1073 21.032 13.176 21.951L10.718 24.3767C9.78671 25.2957 9.78671 26.8173 10.718 27.7364Z" stroke="#F7B916" stroke-width="2" stroke-miterlimit="10" stroke-linecap="round" stroke-linejoin="round"/>
<path d="M18.0146 34.3352C18.9459 35.2542 20.4879 35.2542 21.4192 34.3352L25.9841 29.8305C26.9154 28.9115 26.9154 27.3898 25.9841 26.4708C25.0528 25.5518 23.5108 25.5518 22.5795 26.4708L18.0146 30.9755C17.068 31.9096 17.068 33.4162 18.0146 34.3352Z" stroke="#F7B916" stroke-width="2" stroke-miterlimit="10" stroke-linecap="round" stroke-linejoin="round"/>
<path d="M21.2844 37.8004C22.2157 38.7194 23.7577 38.7194 24.689 37.8004L27.147 35.3748C28.0783 34.4557 28.0783 32.9341 27.147 32.0151C26.2157 31.0961 24.6737 31.0961 23.7424 32.0151L21.2844 34.4407C20.3531 35.3597 20.3531 36.8814 21.2844 37.8004Z" stroke="#F7B916" stroke-width="2" stroke-miterlimit="10" stroke-linecap="round" stroke-linejoin="round"/>
<path d="M14.1243 31.096C15.0556 32.015 16.5975 32.015 17.5288 31.096L22.0479 26.6365C22.9792 25.7175 22.9792 24.1958 22.0479 23.2768C21.1166 22.3578 19.5746 22.3578 18.6433 23.2768L14.1243 27.7363C13.193 28.6554 13.193 30.177 14.1243 31.096Z" stroke="#F7B916" stroke-width="2" stroke-miterlimit="10" stroke-linecap="round" stroke-linejoin="round"/>
<path d="M29.8623 4.64029L20.6868 13.6949C19.7555 14.6139 19.7555 16.1356 20.6868 17.0546C21.6181 17.9736 23.16 17.9736 24.0913 17.0546L27.4196 13.7702" stroke="#F7B916" stroke-width="2" stroke-miterlimit="10" stroke-linecap="round" stroke-linejoin="round"/>
</svg>
