<svg width="165" height="48" viewBox="0 0 165 48" fill="none" xmlns="http://www.w3.org/2000/svg">
<g clip-path="url(#clip0)">
<path fill-rule="evenodd" clip-rule="evenodd" d="M23.7688 39.6609C13.5665 38.7361 4.45938 33.871 1.10156 28.3143C1.33508 29.3597 2.49461 31.6757 3.07438 33.1794C3.477 34.2811 4.05676 35.1496 4.34665 35.9618C8.58216 38.9131 13.4458 40.4168 20.1131 41.0602C27.0139 41.6954 33.0451 40.8832 37.8523 38.6316C33.6812 39.6609 29.0431 40.1836 23.7688 39.6609Z" fill="#E5E5E5"/>
<path fill-rule="evenodd" clip-rule="evenodd" d="M15.8297 19.4525C12.2947 15.6891 9.10599 11.8693 6.37625 8.21847C6.03 8.68488 5.56297 9.19954 5.16035 9.84286C4.58059 10.7113 4.05719 11.5235 3.71094 12.2151C6.37625 15.1101 9.39587 18.005 12.641 20.9C21.8528 29.0622 30.8392 34.3937 38.0299 38.2134C31.5397 33.5252 23.7129 27.8479 15.8297 19.4525Z" fill="#E5E5E5"/>
<path fill-rule="evenodd" clip-rule="evenodd" d="M30.3813 12.7941C27.716 7.63947 25.6868 4.28615 22.6108 0.289497C22.2645 0.289497 21.564 0.635284 20.4045 0.812198C19.5348 0.92478 18.6652 0.868489 17.9727 1.15798C22.3773 5.67733 25.9767 10.4781 29.8579 17.3135C34.3189 25.1298 36.5816 31.3218 38.4416 37.8677C37.6847 30.3971 35.3093 22.5244 30.3813 12.7941Z" fill="#E5E5E5"/>
<path fill-rule="evenodd" clip-rule="evenodd" d="M26.0331 47.5899C13.2783 47.5899 2.89883 37.747 2.89883 25.6525C2.89883 13.4937 13.2219 3.99665 25.9768 3.99665C38.5545 3.99665 48.8212 13.0836 49.2238 24.9529C49.2238 24.6071 49.2802 24.3176 49.2802 24.0281C49.2802 10.7676 38.2082 0 24.6401 0C11.0156 0 0 10.7676 0 24.0281C0 37.2324 11.0156 48 24.6401 48C27.3054 48 29.858 47.5979 32.2334 46.842C30.2606 47.3647 28.1751 47.5899 26.0331 47.5899Z" fill="#81859C"/>
<path fill-rule="evenodd" clip-rule="evenodd" d="M12.8112 13.8395C21.5641 5.09834 35.2449 4.39873 43.3053 12.392C48.2333 17.2572 50.1498 24.5508 48.4669 30.8635C50.7859 23.3929 49.3929 14.8849 43.5952 9.20758C35.0759 0.8122 20.8152 1.3349 11.9979 10.1324C6.25661 15.866 4.17107 23.9156 5.854 31.0886C5.62048 25.0092 7.93955 18.7046 12.8112 13.8395Z" fill="#81859C"/>
<path fill-rule="evenodd" clip-rule="evenodd" d="M48.0652 26.1672C47.9525 20.9 45.9233 16.0348 42.1548 13.4294C34.795 8.50795 23.4252 12.384 16.3552 22.5163C12.6995 27.7835 10.9602 33.5735 11.1937 38.6718C9.56712 32.705 10.9038 25.355 15.3648 18.9861C22.4347 8.85374 34.7306 5.034 42.791 10.4781C47.6063 13.6626 49.9253 19.4525 49.4583 25.7651C49.4583 25.7651 49.2811 27.5584 49.112 28.3143C48.9993 29.0702 48.5323 30.6865 48.3551 31.2092C48.2343 31.6676 48.0652 26.1672 48.0652 26.1672Z" fill="#81859C"/>
<path fill-rule="evenodd" clip-rule="evenodd" d="M23.7143 23.1034C16.5236 30.6303 14.8406 40.65 20.0585 45.4508C20.292 45.684 20.5256 45.8529 20.8154 46.0298C16.2337 41.5105 17.5704 32.9462 23.9478 26.2315C29.7455 20.0395 39.7142 17.3135 44.4731 21.7765C48.7087 25.7169 48.1853 33.1794 43.5471 39.5483C49.9809 32.1984 51.2612 22.8139 46.2688 18.2382C41.0509 13.4294 30.9614 15.5765 23.7143 23.1034Z" fill="#81859C"/>
<path fill-rule="evenodd" clip-rule="evenodd" d="M30.5503 30.7428C25.6786 34.9084 24.0601 40.8752 26.8945 44.0596C29.1009 46.6088 33.4491 46.7214 37.5639 44.6386C34.0853 46.1987 30.5503 46.0298 28.6338 43.8264C26.0813 40.9878 27.4743 35.7206 31.7662 32.134C36.0017 28.4832 41.5095 27.9042 43.9977 30.7428C45.9141 32.8819 45.6242 36.3558 43.595 39.5403C46.204 35.8331 46.7274 31.6113 44.5211 29.0622C41.6303 25.8214 35.3656 26.5773 30.5503 30.7428Z" fill="#81859C"/>
<path fill-rule="evenodd" clip-rule="evenodd" d="M50.9648 45.7403H165.002V44.6949H50.9648V45.7403Z" fill="#81859C"/>
<path fill-rule="evenodd" clip-rule="evenodd" d="M67.2548 35.0853C66.208 35.7768 65.282 35.9538 63.8889 35.9538H62.1497L61.1028 40.7626H58.9609L61.6826 28.1374H65.0485C66.6751 28.1374 67.6011 28.3706 68.2372 28.7727C68.9941 29.2954 69.3967 30.1076 69.3967 31.0323C69.3967 32.9462 68.5271 34.3374 67.2548 35.0853ZM65.1129 29.8743H63.4863L62.504 34.2731H64.1869C65.2337 34.2731 65.8135 34.0399 66.2161 33.6378C66.7958 33.0588 67.0857 32.2466 67.0857 31.4344C67.0777 30.397 66.4979 29.8743 65.1129 29.8743Z" fill="#81859C"/>
<path fill-rule="evenodd" clip-rule="evenodd" d="M74.6768 34.3937C74.5641 34.3374 74.387 34.2811 74.1534 34.2811C73.5737 34.2811 72.9375 34.7475 72.237 35.6723L71.1338 40.7706H69.3945L70.5541 35.5034C70.7876 34.4017 70.7876 33.8227 70.6104 33.2438L72.237 32.6085C72.4141 33.0105 72.4705 33.5895 72.3497 34.1685C73.1066 33.2438 74.0327 32.6648 74.7815 32.6648C75.0714 32.6648 75.2486 32.721 75.474 32.7773L74.6768 34.3937Z" fill="#81859C"/>
<path fill-rule="evenodd" clip-rule="evenodd" d="M77.6338 40.9958C75.8945 40.9958 74.8477 39.9504 74.8477 38.1571C74.8477 35.0853 76.7641 32.6567 79.4294 32.6567C81.2815 32.6567 82.2719 33.7021 82.2719 35.4391C82.2719 38.326 80.6453 40.9958 77.6338 40.9958ZM79.1395 33.9836C77.5774 33.9836 76.7077 36.4765 76.7077 38.2697C76.7077 39.2508 77.1748 39.6609 77.98 39.6609C79.5422 39.6609 80.4118 37.345 80.4118 35.3748C80.4118 34.3374 79.8965 33.9836 79.1395 33.9836Z" fill="#81859C"/>
<path fill-rule="evenodd" clip-rule="evenodd" d="M92.9387 30.2845C92.359 29.7618 91.6665 29.5929 90.8532 29.5929C89.6936 29.5929 88.6468 30.1719 87.898 31.153C86.7948 32.4879 86.215 35.029 86.215 36.5971C86.215 38.3904 87.1411 39.3151 88.824 39.3151C89.6936 39.3151 90.3861 39.0819 91.3202 38.5029L92.0771 39.8941C90.9176 40.65 89.6453 40.9958 88.2523 40.9958C85.4662 40.9958 83.8477 39.3151 83.8477 36.4765C83.8477 34.45 84.6609 32.0215 85.9896 30.3971C87.3182 28.7727 89.2347 27.9042 91.1511 27.9042C92.4234 27.9042 93.5265 28.3063 94.1627 28.8852L92.9387 30.2845Z" fill="#81859C"/>
<path fill-rule="evenodd" clip-rule="evenodd" d="M98.7369 34.3937C98.5597 34.3374 98.3906 34.2811 98.1571 34.2811C97.5774 34.2811 96.9976 34.7475 96.3051 35.6723L95.1456 40.7706H93.4062L94.5658 35.5034C94.7993 34.4017 94.7993 33.8227 94.6222 33.2438L96.3051 32.6085C96.4822 33.0105 96.5386 33.5895 96.4178 34.1685C97.1103 33.2438 98.0444 32.6648 98.7933 32.6648C99.0831 32.6648 99.2603 32.721 99.4858 32.7773L98.7369 34.3937Z" fill="#81859C"/>
<path fill-rule="evenodd" clip-rule="evenodd" d="M105.283 36.4202C104.591 37.0555 103.488 37.4012 101.861 37.4012C101.394 37.4012 100.992 37.345 100.879 37.345C100.822 37.5219 100.766 37.9239 100.766 38.2134C100.766 39.1945 101.346 39.6609 102.216 39.6609C103.085 39.6609 103.778 39.3714 104.535 38.7924L105.058 39.8378C104.076 40.65 103.142 40.9958 101.757 40.9958C100.074 40.9958 98.9141 39.9504 98.9141 38.1009C98.9141 36.5408 99.6066 34.8038 100.71 33.7584C101.523 33.0025 102.393 32.6567 103.431 32.6567C104.994 32.6567 105.984 33.3483 105.984 34.7958C105.984 35.4311 105.75 36.0101 105.283 36.4202ZM103.198 33.9273C102.272 33.9273 101.515 34.6189 101.169 36.1307C101.225 36.1307 101.571 36.187 101.861 36.187C102.844 36.187 103.488 36.0744 103.89 35.6643C104.068 35.4874 104.237 35.1979 104.237 34.9084C104.245 34.3374 103.955 33.9273 103.198 33.9273Z" fill="#81859C"/>
<path fill-rule="evenodd" clip-rule="evenodd" d="M113.691 38.0365C113.288 39.7172 113.344 40.1756 113.578 40.5857L112.072 40.9315C111.895 40.642 111.782 40.2962 111.782 39.7735C111.146 40.5294 110.333 40.9315 109.407 40.9315C107.78 40.9315 107.031 40.0067 107.031 38.2134C107.031 36.6534 107.667 34.9164 108.827 33.8147C109.584 33.1231 110.566 32.713 111.492 32.713C112.249 32.713 112.764 32.8256 113.054 33.0025C113.054 32.8899 113.167 32.1903 113.288 31.9008L113.811 29.2391L115.494 29.5286L113.691 38.0365ZM111.428 34.1042C110.904 34.1042 110.325 34.3937 109.978 34.8601C109.286 35.616 108.875 37.1761 108.875 38.2778C108.875 39.09 109.165 39.5483 109.801 39.5483C110.494 39.5483 111.363 38.9693 111.887 38.1572L112.7 34.45C112.362 34.2168 112.008 34.1042 111.428 34.1042Z" fill="#81859C"/>
<path fill-rule="evenodd" clip-rule="evenodd" d="M117.46 40.7626H115.664L117.347 32.9462L119.199 32.6567L117.46 40.7626ZM118.74 31.732C118.104 31.732 117.581 31.2093 117.581 30.574C117.581 29.9387 118.104 29.416 118.796 29.416C119.433 29.416 119.956 29.9387 119.956 30.574C119.956 31.2093 119.433 31.732 118.74 31.732Z" fill="#81859C"/>
<path fill-rule="evenodd" clip-rule="evenodd" d="M124.594 34.1042H123.032L122.106 38.3341C122.05 38.6236 122.05 38.9131 122.05 39.09C122.05 39.6127 122.283 39.7816 122.806 39.7816C123.04 39.7816 123.33 39.7253 123.62 39.6046V40.65C123.04 40.8832 122.46 40.9958 121.937 40.9958C120.834 40.9958 120.254 40.4731 120.254 39.6609C120.254 39.3714 120.254 38.9694 120.31 38.6155L121.293 34.0962H120.423L120.657 32.8256H121.583C121.695 32.134 121.872 31.4907 122.106 30.9117L123.958 30.5096C123.724 31.1449 123.491 32.0697 123.322 32.8256H125.238L124.594 34.1042Z" fill="#81859C"/>
<path fill-rule="evenodd" clip-rule="evenodd" d="M136.593 34.1042C137.986 34.3374 138.679 35.3748 138.679 36.6534C138.679 37.5782 138.212 38.7361 137.229 39.6046C136.303 40.4731 135.257 40.7626 133.115 40.7626H129L131.786 28.1374H135.788C138.22 28.1374 139.444 29.1828 139.444 30.8554C139.436 32.2466 138.566 33.5815 136.593 34.1042ZM134.274 35.0853H132.358L131.488 39.0819H133.574C134.331 39.0819 134.91 38.8487 135.313 38.5592C135.893 38.2134 136.295 37.4012 136.295 36.589C136.303 35.608 135.78 35.0853 134.274 35.0853ZM135.265 29.9306H133.469L132.712 33.3483H134.629C135.442 33.3483 135.901 33.2357 136.255 32.9462C136.722 32.5441 137.068 32.0214 137.068 31.3218C137.06 30.397 136.593 29.9306 135.265 29.9306Z" fill="#81859C"/>
<path fill-rule="evenodd" clip-rule="evenodd" d="M146.973 35.0853L146.28 38.2134C146.103 39.1945 146.167 39.6046 146.57 40.0067L145.121 41.0521C144.718 40.7063 144.541 40.2962 144.541 39.7815C143.961 40.5375 143.148 40.9958 142.109 40.9958C140.837 40.9958 140.023 40.1273 140.023 38.4466C140.023 36.7097 140.66 34.9727 141.706 33.9273C142.576 33.0588 143.623 32.6567 144.895 32.6567C145.877 32.6567 146.812 32.8336 147.448 33.2357C147.262 33.6941 147.029 34.5063 146.973 35.0853ZM144.71 34.0479C144.017 34.0479 143.494 34.1605 142.858 34.9164C142.165 35.7286 141.811 37.2887 141.811 38.3904C141.811 39.2588 142.101 39.6046 142.681 39.6046C143.438 39.6046 144.243 38.8487 144.597 38.1009L145.467 34.1605C145.29 34.1042 145 34.0479 144.71 34.0479Z" fill="#81859C"/>
<path fill-rule="evenodd" clip-rule="evenodd" d="M155.61 35.0853L154.394 40.7626H152.654L153.757 35.5517C153.814 35.2059 153.87 34.9164 153.87 34.7395C153.87 34.3374 153.637 34.1605 153.234 34.1605C152.654 34.1605 151.841 34.5063 151.028 35.608L149.868 40.7626H148.129L149.345 35.3185C149.522 34.3937 149.578 33.8147 149.401 33.2357L151.028 32.6004C151.14 32.9462 151.261 33.5252 151.14 34.1042C151.897 33.1794 152.936 32.6567 154.039 32.6567C155.086 32.6567 155.666 33.292 155.666 34.2168C155.666 34.5063 155.666 34.8521 155.61 35.0853Z" fill="#81859C"/>
<path fill-rule="evenodd" clip-rule="evenodd" d="M160.484 31.9571L158.567 40.7546H156.828L158.745 32.0134C158.922 31.0323 158.978 30.2201 158.857 29.7537L160.653 29.1185C160.83 29.5849 160.774 30.574 160.484 31.9571ZM161.41 36.2996L163.842 40.642L161.869 40.8752L159.606 36.2433L162.972 32.713L164.824 33.0025L161.41 36.2996Z" fill="#81859C"/>
<path fill-rule="evenodd" clip-rule="evenodd" d="M67.2548 35.0853C66.208 35.7768 65.282 35.9538 63.8889 35.9538H62.1497L61.1028 40.7626H58.9609L61.6826 28.1374H65.0485C66.6751 28.1374 67.6011 28.3706 68.2372 28.7727C68.9941 29.2954 69.3967 30.1076 69.3967 31.0323C69.3967 32.9462 68.5271 34.3374 67.2548 35.0853ZM65.1129 29.8743H63.4863L62.504 34.2731H64.1869C65.2337 34.2731 65.8135 34.0399 66.2161 33.6378C66.7958 33.0588 67.0857 32.2466 67.0857 31.4344C67.0777 30.397 66.4979 29.8743 65.1129 29.8743Z" fill="#81859C"/>
<path fill-rule="evenodd" clip-rule="evenodd" d="M74.6768 34.3937C74.5641 34.3374 74.387 34.2811 74.1534 34.2811C73.5737 34.2811 72.9375 34.7475 72.237 35.6723L71.1338 40.7706H69.3945L70.5541 35.5034C70.7876 34.4017 70.7876 33.8227 70.6104 33.2438L72.237 32.6085C72.4141 33.0105 72.4705 33.5895 72.3497 34.1685C73.1066 33.2438 74.0327 32.6648 74.7815 32.6648C75.0714 32.6648 75.2486 32.721 75.474 32.7773L74.6768 34.3937Z" fill="#81859C"/>
<path fill-rule="evenodd" clip-rule="evenodd" d="M77.6338 40.9958C75.8945 40.9958 74.8477 39.9504 74.8477 38.1571C74.8477 35.0853 76.7641 32.6567 79.4294 32.6567C81.2815 32.6567 82.2719 33.7021 82.2719 35.4391C82.2719 38.326 80.6453 40.9958 77.6338 40.9958ZM79.1395 33.9836C77.5774 33.9836 76.7077 36.4765 76.7077 38.2697C76.7077 39.2508 77.1748 39.6609 77.98 39.6609C79.5422 39.6609 80.4118 37.345 80.4118 35.3748C80.4118 34.3374 79.8965 33.9836 79.1395 33.9836Z" fill="#81859C"/>
<path fill-rule="evenodd" clip-rule="evenodd" d="M92.9387 30.2845C92.359 29.7618 91.6665 29.5929 90.8532 29.5929C89.6936 29.5929 88.6468 30.1719 87.898 31.153C86.7948 32.4879 86.215 35.029 86.215 36.5971C86.215 38.3904 87.1411 39.3151 88.824 39.3151C89.6936 39.3151 90.3861 39.0819 91.3202 38.5029L92.0771 39.8941C90.9176 40.65 89.6453 40.9958 88.2523 40.9958C85.4662 40.9958 83.8477 39.3151 83.8477 36.4765C83.8477 34.45 84.6609 32.0215 85.9896 30.3971C87.3182 28.7727 89.2347 27.9042 91.1511 27.9042C92.4234 27.9042 93.5265 28.3063 94.1627 28.8852L92.9387 30.2845Z" fill="#81859C"/>
<path fill-rule="evenodd" clip-rule="evenodd" d="M98.7369 34.3937C98.5597 34.3374 98.3906 34.2811 98.1571 34.2811C97.5774 34.2811 96.9976 34.7475 96.3051 35.6723L95.1456 40.7706H93.4062L94.5658 35.5034C94.7993 34.4017 94.7993 33.8227 94.6222 33.2438L96.3051 32.6085C96.4822 33.0105 96.5386 33.5895 96.4178 34.1685C97.1103 33.2438 98.0444 32.6648 98.7933 32.6648C99.0831 32.6648 99.2603 32.721 99.4858 32.7773L98.7369 34.3937Z" fill="#81859C"/>
<path fill-rule="evenodd" clip-rule="evenodd" d="M105.283 36.4202C104.591 37.0555 103.488 37.4012 101.861 37.4012C101.394 37.4012 100.992 37.345 100.879 37.345C100.822 37.5219 100.766 37.9239 100.766 38.2134C100.766 39.1945 101.346 39.6609 102.216 39.6609C103.085 39.6609 103.778 39.3714 104.535 38.7924L105.058 39.8378C104.076 40.65 103.142 40.9958 101.757 40.9958C100.074 40.9958 98.9141 39.9504 98.9141 38.1009C98.9141 36.5408 99.6066 34.8038 100.71 33.7584C101.523 33.0025 102.393 32.6567 103.431 32.6567C104.994 32.6567 105.984 33.3483 105.984 34.7958C105.984 35.4311 105.75 36.0101 105.283 36.4202ZM103.198 33.9273C102.272 33.9273 101.515 34.6189 101.169 36.1307C101.225 36.1307 101.571 36.187 101.861 36.187C102.844 36.187 103.488 36.0744 103.89 35.6643C104.068 35.4874 104.237 35.1979 104.237 34.9084C104.245 34.3374 103.955 33.9273 103.198 33.9273Z" fill="#81859C"/>
<path fill-rule="evenodd" clip-rule="evenodd" d="M113.691 38.0365C113.288 39.7172 113.344 40.1756 113.578 40.5857L112.072 40.9315C111.895 40.642 111.782 40.2962 111.782 39.7735C111.146 40.5294 110.333 40.9315 109.407 40.9315C107.78 40.9315 107.031 40.0067 107.031 38.2134C107.031 36.6534 107.667 34.9164 108.827 33.8147C109.584 33.1231 110.566 32.713 111.492 32.713C112.249 32.713 112.764 32.8256 113.054 33.0025C113.054 32.8899 113.167 32.1903 113.288 31.9008L113.811 29.2391L115.494 29.5286L113.691 38.0365ZM111.428 34.1042C110.904 34.1042 110.325 34.3937 109.978 34.8601C109.286 35.616 108.875 37.1761 108.875 38.2778C108.875 39.09 109.165 39.5483 109.801 39.5483C110.494 39.5483 111.363 38.9693 111.887 38.1572L112.7 34.45C112.362 34.2168 112.008 34.1042 111.428 34.1042Z" fill="#81859C"/>
<path fill-rule="evenodd" clip-rule="evenodd" d="M117.46 40.7626H115.664L117.347 32.9462L119.199 32.6567L117.46 40.7626ZM118.74 31.732C118.104 31.732 117.581 31.2093 117.581 30.574C117.581 29.9387 118.104 29.416 118.796 29.416C119.433 29.416 119.956 29.9387 119.956 30.574C119.956 31.2093 119.433 31.732 118.74 31.732Z" fill="#81859C"/>
<path fill-rule="evenodd" clip-rule="evenodd" d="M124.594 34.1042H123.032L122.106 38.3341C122.05 38.6236 122.05 38.9131 122.05 39.09C122.05 39.6127 122.283 39.7816 122.806 39.7816C123.04 39.7816 123.33 39.7253 123.62 39.6046V40.65C123.04 40.8832 122.46 40.9958 121.937 40.9958C120.834 40.9958 120.254 40.4731 120.254 39.6609C120.254 39.3714 120.254 38.9694 120.31 38.6155L121.293 34.0962H120.423L120.657 32.8256H121.583C121.695 32.134 121.872 31.4907 122.106 30.9117L123.958 30.5096C123.724 31.1449 123.491 32.0697 123.322 32.8256H125.238L124.594 34.1042Z" fill="#81859C"/>
<path fill-rule="evenodd" clip-rule="evenodd" d="M136.593 34.1042C137.986 34.3374 138.679 35.3748 138.679 36.6534C138.679 37.5782 138.212 38.7361 137.229 39.6046C136.303 40.4731 135.257 40.7626 133.115 40.7626H129L131.786 28.1374H135.788C138.22 28.1374 139.444 29.1828 139.444 30.8554C139.436 32.2466 138.566 33.5815 136.593 34.1042ZM134.274 35.0853H132.358L131.488 39.0819H133.574C134.331 39.0819 134.91 38.8487 135.313 38.5592C135.893 38.2134 136.295 37.4012 136.295 36.589C136.303 35.608 135.78 35.0853 134.274 35.0853ZM135.265 29.9306H133.469L132.712 33.3483H134.629C135.442 33.3483 135.901 33.2357 136.255 32.9462C136.722 32.5441 137.068 32.0214 137.068 31.3218C137.06 30.397 136.593 29.9306 135.265 29.9306Z" fill="#81859C"/>
<path fill-rule="evenodd" clip-rule="evenodd" d="M146.973 35.0853L146.28 38.2134C146.103 39.1945 146.167 39.6046 146.57 40.0067L145.121 41.0521C144.718 40.7063 144.541 40.2962 144.541 39.7815C143.961 40.5375 143.148 40.9958 142.109 40.9958C140.837 40.9958 140.023 40.1273 140.023 38.4466C140.023 36.7097 140.66 34.9727 141.706 33.9273C142.576 33.0588 143.623 32.6567 144.895 32.6567C145.877 32.6567 146.812 32.8336 147.448 33.2357C147.262 33.6941 147.029 34.5063 146.973 35.0853ZM144.71 34.0479C144.017 34.0479 143.494 34.1605 142.858 34.9164C142.165 35.7286 141.811 37.2887 141.811 38.3904C141.811 39.2588 142.101 39.6046 142.681 39.6046C143.438 39.6046 144.243 38.8487 144.597 38.1009L145.467 34.1605C145.29 34.1042 145 34.0479 144.71 34.0479Z" fill="#81859C"/>
<path fill-rule="evenodd" clip-rule="evenodd" d="M155.61 35.0853L154.394 40.7626H152.654L153.757 35.5517C153.814 35.2059 153.87 34.9164 153.87 34.7395C153.87 34.3374 153.637 34.1605 153.234 34.1605C152.654 34.1605 151.841 34.5063 151.028 35.608L149.868 40.7626H148.129L149.345 35.3185C149.522 34.3937 149.578 33.8147 149.401 33.2357L151.028 32.6004C151.14 32.9462 151.261 33.5252 151.14 34.1042C151.897 33.1794 152.936 32.6567 154.039 32.6567C155.086 32.6567 155.666 33.292 155.666 34.2168C155.666 34.5063 155.666 34.8521 155.61 35.0853Z" fill="#81859C"/>
<path fill-rule="evenodd" clip-rule="evenodd" d="M160.484 31.9571L158.567 40.7546H156.828L158.745 32.0134C158.922 31.0323 158.978 30.2201 158.857 29.7537L160.653 29.1185C160.83 29.5849 160.774 30.574 160.484 31.9571ZM161.41 36.2996L163.842 40.642L161.869 40.8752L159.606 36.2433L162.972 32.713L164.824 33.0025L161.41 36.2996Z" fill="#81859C"/>
</g>
<defs>
<clipPath id="clip0">
<rect width="165" height="48" fill="white"/>
</clipPath>
</defs>
</svg>
