<svg width="166" height="31" viewBox="0 0 166 31" fill="none" xmlns="http://www.w3.org/2000/svg">
<path d="M133.406 3.24476C133.406 2.02102 134.319 1.10878 135.498 1.10878C136.655 1.10878 137.567 2.02102 137.567 3.24476C137.567 4.46848 136.655 5.38073 135.498 5.38073C134.319 5.38073 133.406 4.46848 133.406 3.24476ZM135.498 5.80347C136.899 5.80347 138.079 4.71324 138.079 3.24476C138.079 1.77626 136.899 0.686035 135.498 0.686035C134.096 0.686035 132.895 1.77626 132.895 3.24476C132.895 4.71324 134.096 5.80347 135.498 5.80347ZM134.964 3.445H135.476L136.254 4.71324H136.744L135.92 3.42275C136.343 3.37825 136.677 3.13351 136.677 2.62175C136.677 2.02102 136.321 1.77627 135.631 1.77627H134.497V4.71324H134.964V3.445ZM134.964 3.06675V2.15451H135.565C135.876 2.15451 136.21 2.22127 136.21 2.57726C136.21 3.0445 135.876 3.06675 135.498 3.06675H134.964Z" fill="black"/>
<path d="M22.3584 6.93823H7.11732C5.4041 6.93823 3.82436 7.62798 2.62288 8.82946C1.4659 10.0087 0.842901 11.5662 0.86514 13.2149C0.842901 14.9214 1.46589 16.5323 2.64513 17.716C3.77986 18.853 5.31509 19.4693 6.93933 19.4559C6.91707 19.4559 16.3732 19.4559 16.3732 19.4559C18.3979 19.4715 19.9109 20.9066 19.9332 22.869C19.9109 24.7625 18.2867 26.3801 16.351 26.4045C16.3732 26.4045 0.753906 26.4045 0.753906 26.4045V29.673H16.3732C20.0667 29.6241 23.1371 26.5714 23.2039 22.869C23.1371 19.0621 20.2002 16.2186 16.3732 16.1874H6.91707C6.16058 16.1941 5.47083 15.9182 4.95909 15.4087C4.40286 14.8525 4.1136 14.0737 4.1136 13.2149C4.1136 12.4072 4.40286 11.6774 4.95909 11.1212C5.53759 10.5427 6.29409 10.2089 7.13958 10.2089C7.11732 10.2089 22.3584 10.2089 22.3584 10.2089V6.93823Z" fill="black"/>
<path d="M50.2109 6.8269V22.2549C50.2109 23.4341 49.7437 24.5355 48.9204 25.3542C48.0972 26.1664 47.0292 26.6069 45.8722 26.598C43.5137 26.6158 41.578 24.6534 41.5112 22.2193C41.5112 22.2549 41.5112 6.8269 41.5112 6.8269H38.2628V22.2549C38.2628 22.2682 38.2628 22.2793 38.2628 22.2905C38.285 23.4385 37.8623 24.5154 37.0613 25.3231C36.2381 26.1552 35.1255 26.6069 33.9241 26.598C32.8116 26.6069 31.7881 26.1775 31.0094 25.3899C30.1861 24.5666 29.7411 23.4608 29.7634 22.2793C29.7634 22.2549 29.7634 6.8269 29.7634 6.8269H26.4927V22.2549C26.4704 24.2996 27.2492 26.2398 28.6731 27.6927C30.0971 29.11 31.9438 29.8799 33.9241 29.8643C35.9933 29.8821 37.929 29.0833 39.3753 27.617C39.5755 27.4124 39.7757 27.1943 39.9538 26.9696C41.3555 28.7496 43.4915 29.8843 45.8722 29.8643C47.8747 29.8799 49.7881 29.1033 51.2344 27.6727C52.6806 26.2353 53.4816 24.3107 53.4593 22.2549V6.8269H50.2109Z" fill="black"/>
<path d="M75.5571 6.73796H68.415C61.9848 6.64895 56.6671 11.7842 56.5781 18.1832C56.6671 24.7803 61.9848 30.0868 68.415 30.0579C69.7722 30.0824 71.0627 29.8443 72.2864 29.3904V26.0196H71.9082L71.5967 26.1664C70.6177 26.607 69.5942 26.8117 68.4595 26.7916C63.7426 26.8117 59.8933 22.9513 59.8266 18.1854C59.8933 13.5553 63.6535 9.94191 68.3927 10.0087C68.415 10.0087 71.8192 10.0087 73.9106 10.0087V29.5817H77.1814V6.73796H75.5571Z" fill="black"/>
<path d="M89.0413 26.598C87.9511 26.5869 86.9276 26.1464 86.1489 25.3565C85.4369 24.62 85.0586 23.67 85.0809 22.6799C85.0809 22.6576 85.0809 15.9738 85.0809 10.0086H92.8906V6.73794H85.0809C85.0809 3.40048 85.0809 0.864014 85.0809 0.864014H81.8324V22.6398C81.7657 24.471 82.4777 26.2554 83.8127 27.626C85.1699 29.05 87.0389 29.8443 89.0413 29.8643H93.6693V26.598H89.0413Z" fill="black"/>
<path d="M112.805 21.781C111.448 24.8448 108.4 26.8117 105.063 26.7917C102.726 26.8006 100.568 25.9106 98.9439 24.2863C97.3196 22.6666 96.4519 20.5128 96.4741 18.2188C96.4296 13.5397 100.301 9.6972 105.063 9.63045C107.821 9.6972 110.291 10.9877 111.804 13.1637L114.496 11.2992C112.383 8.25097 108.956 6.44874 105.085 6.35974C98.4544 6.44874 93.1589 11.7753 93.2034 18.2188C93.1812 21.3694 94.3827 24.3509 96.6299 26.5936C98.8771 28.8409 101.859 30.0713 105.063 30.0579C109.668 30.0869 113.896 27.3613 115.787 23.1138L112.805 21.781Z" fill="black"/>
<path d="M127.952 6.35969C125.527 6.3152 123.168 7.20518 121.321 8.8739V0.864014H118.051V29.5817H121.321V16.2564C121.299 14.4697 121.989 12.7899 123.257 11.5216C124.526 10.2757 126.194 9.58591 127.952 9.6304C131.712 9.56365 134.76 12.5607 134.827 16.3076C134.827 16.2786 134.827 29.5817 134.827 29.5817H138.098V16.2786C138.009 10.6984 133.448 6.27068 127.952 6.35969Z" fill="black"/>
<path d="M142.84 7.4054H165.001V29.5817H142.84V7.4054Z" fill="#DA0021" stroke="#DA0021" stroke-width="0.335915" stroke-miterlimit="3.864"/>
<path d="M163.47 15.7001H156.706V8.96289H151.122V15.7001H144.18V21.2915H151.122V28.2312H156.706V21.2915H163.47V15.7001Z" fill="#FFFEFF"/>
</svg>
