<svg width="150" height="33" viewBox="0 0 150 33" fill="none" xmlns="http://www.w3.org/2000/svg">
<path d="M149.405 0V32.9733H0V0H149.405Z" fill="#81859C"/>
<path d="M26.2713 5.92165L21.4961 12.4072C21.4961 12.4072 46.2419 12.4072 47.5121 12.4072C48.8271 12.4072 48.8087 12.9079 48.1683 13.7776C47.5147 14.6604 46.4237 16.1994 45.757 17.0955C45.4196 17.5514 44.8109 18.3815 46.8322 18.3815C48.9694 18.3815 57.471 18.3815 57.471 18.3815C57.471 18.3815 59.1866 16.0492 60.6229 14.0965C62.5783 11.4427 60.7915 5.92165 53.8026 5.92165C47.5437 5.92165 26.2713 5.92165 26.2713 5.92165Z" fill="#E5E5E5"/>
<path d="M19.5703 27.0492L29.1577 14.0227C29.1577 14.0227 39.7859 14.0227 41.0562 14.0227C42.3712 14.0227 42.3528 14.5234 41.7124 15.3931C41.0588 16.2759 39.9493 17.7992 39.2852 18.6952C38.9479 19.1511 38.3365 19.9812 40.3578 19.9812C42.4951 19.9812 56.2963 19.9812 56.2963 19.9812C54.9707 21.797 50.6699 27.0492 42.951 27.0492C36.6921 27.0492 19.5703 27.0492 19.5703 27.0492Z" fill="#E5E5E5"/>
<path d="M74.4763 19.9811L69.2768 27.049H55.5625C55.5625 27.049 60.7594 19.9811 60.7646 19.9811H74.4763Z" fill="#E5E5E5"/>
<path d="M95.4905 18.3815H61.9453L71.1189 5.92165H84.8279L79.5704 13.066H85.6923L90.9524 5.92165H104.661L95.4905 18.3815Z" fill="#E5E5E5"/>
<path d="M94.3135 19.9811L89.1113 27.049H75.4023C75.4023 27.049 80.5992 19.9811 80.6045 19.9811H94.3135Z" fill="#E5E5E5"/>
<path d="M0 22.7693H20.2051L19.1009 24.2714H0V22.7693Z" fill="#E5E5E5"/>
<path d="M0 19.9811H22.258L21.1512 21.4806H0V19.9811Z" fill="#E5E5E5"/>
<path d="M0 25.5574H18.1522L17.0532 27.049H0V25.5574Z" fill="#E5E5E5"/>
<path d="M149.407 24.2714H129.281L130.385 22.7693H149.407V24.2714Z" fill="#E5E5E5"/>
<path d="M149.408 27.049L127.234 27.0516L128.333 25.5574H149.408V27.049Z" fill="#E5E5E5"/>
<path d="M132.432 19.9811H149.404V21.4832H131.328L132.432 19.9811Z" fill="#E5E5E5"/>
<path d="M123.649 5.92165L114.478 18.3815H99.9492C99.9492 18.3815 109.123 5.92165 109.128 5.92165H123.649Z" fill="#E5E5E5"/>
<path d="M98.7694 19.9811C98.7694 19.9811 97.768 21.3514 97.2804 22.0103C95.5569 24.3373 97.0801 27.049 102.701 27.049C109.192 27.049 124.72 27.049 124.72 27.049L129.922 19.9811H98.7694Z" fill="#E5E5E5"/>
</svg>
