<svg width="165" height="50" viewBox="0 0 165 50" fill="none" xmlns="http://www.w3.org/2000/svg">
<path d="M18.6091 42.5314C18.8289 42.2664 19.0321 41.8607 20.1393 41.5916C20.1393 41.5916 57.7586 28.8317 107.81 31.3862C107.81 31.3862 110.65 31.2827 109.879 32.5247C109.427 33.2534 108.581 33.2989 106.976 33.3817C106.976 33.3817 106.433 33.4645 104.302 33.4438C104.302 33.4438 109.419 35.4269 89.2159 35.0129C89.2159 35.0129 90.999 36.8304 83.5721 36.3046C83.5721 36.3046 62.8508 35.3648 20.9769 42.9413C20.9769 42.9413 17.6844 43.6492 18.6091 42.5314Z" fill="#E5E5E5"/>
<path d="M61.1058 1.26266C61.1058 1.26266 58.6136 -1.87556 59.0366 1.74291C59.0366 1.74291 59.3766 9.28624 58.1285 18.6761C57.9875 18.3117 57.7926 17.9391 57.5313 17.5706C57.5313 17.5706 55.3584 14.6808 52.9243 15.4799C52.9243 15.4799 49.8184 16.4569 48.0187 21.1394C48.0187 21.1394 46.7498 24.377 47.1105 26.8114C47.1105 26.8114 46.9903 33.2121 54.7945 28.691C54.7945 28.691 55.6197 28.1901 56.59 27.2089C56.4034 28.0079 56.0965 28.5337 56.0675 29.3535C56.0675 29.3535 55.7897 31.0426 56.561 31.4691C56.8554 31.6305 57.1747 31.407 57.8631 29.7633C57.8631 29.7633 63.4114 15.5503 63.71 9.68369C63.7058 9.67955 65.6548 6.76904 61.1058 1.26266ZM51.4314 26.8404C51.4314 26.8404 50.8551 26.4595 50.8924 24.7414C50.8924 24.7414 51.0541 21.7563 53.0819 19.3675C53.0819 19.3675 53.6458 18.6512 54.1103 18.5643C54.2637 18.5353 54.5125 18.7589 54.6286 19.6738C54.6576 19.8974 54.0107 19.9429 54.2471 20.6592C54.2471 20.6592 55.3294 23.3875 57.6018 22.1579C57.5064 22.7168 57.4069 23.2799 57.2991 23.8471C56.1131 25.4907 53.6209 28.3308 51.4314 26.8404ZM80.2721 15.3018C80.2721 15.3018 84.7838 20.0961 84.5972 23.4207C84.5972 23.4207 83.9835 28.0452 76.3161 27.8879C76.3161 27.8879 74.4211 27.6063 76.2829 26.3933C76.2829 26.3933 81.2673 24.7828 78.0038 18.8044C78.0038 18.8044 74.9187 22.4187 72.8743 24.4226L72.8868 24.4391C67.0481 30.1277 65.8953 28.041 65.8953 28.041C63.6727 24.8656 65.3023 17.9143 65.3023 17.9143C66.1649 14.2337 68.0724 15.5378 68.0724 15.5378C70.859 15.9891 69.814 18.3945 69.814 18.3945C69.4615 20.241 69.0095 20.0382 69.0095 20.0382C68.1512 20.7337 67.9687 23.7767 67.9687 23.7767C68.3129 25.4535 66.8201 27.7885 71.141 24.0417C72.1694 23.0149 77.3487 17.1898 78.1739 14.9003C78.178 14.892 79.0405 12.6604 80.2721 15.3018ZM73.5834 8.20152C73.5046 8.9219 73.119 9.52222 72.5965 9.84101C71.8459 10.4041 70.295 11.3687 69.7974 11.2404C69.2915 11.1079 69.8638 9.51394 69.8886 9.06267C69.9177 8.55757 69.9177 8.1891 70.0213 7.72127C70.1831 6.63241 71.058 5.84165 72.0159 5.94515C73.007 6.04865 73.7078 7.05885 73.5834 8.20152ZM105.414 14.4076C106.749 12.6439 107.686 13.4388 107.686 13.4388C107.815 13.5092 108.08 13.4222 108.192 13.4139C109.967 13.2815 108.512 15.0203 108.512 15.0203C107.015 17.049 105.663 20.8413 105.663 20.8413C105.323 21.7025 104.991 23.0812 104.991 23.0812C104.448 25.3831 106.878 23.756 106.878 23.756C107.226 23.5117 107.545 23.1598 107.707 23.0066C107.985 22.7458 108.225 22.7127 108.225 22.7127C108.731 22.6423 107.869 20.005 107.869 20.005C107.5 18.9617 107.566 18.9162 107.566 18.9162C107.33 17.6369 108.043 17.3057 108.043 17.3057C108.802 16.842 109.415 18.055 109.415 18.055C110.096 19.0859 110.697 21.806 110.697 21.806C111.277 24.2156 109.469 24.0251 109.469 24.0251C108.719 24.1742 107.438 25.4452 107.438 25.4452C105.443 27.0929 102.66 27.2544 102.66 27.2544C99.8987 27.3496 100.118 24.9235 100.118 24.9235C100.089 22.3028 105.414 14.4076 105.414 14.4076ZM94.2964 17.8687C95.5695 18.7589 97.7051 20.7254 97.3526 22.7789C97.3526 22.7789 96.7389 27.4035 89.0715 27.2461C89.0715 27.2461 88.238 27.2006 88.2215 26.6831C88.2215 26.3022 88.379 26 89.0384 25.7474C89.0384 25.7474 94.0228 24.1369 90.7593 18.1585C90.7593 18.1585 89.5277 19.1108 87.7985 20.4522C87.7985 20.4522 86.5918 21.7812 86.6789 19.8933C86.6789 19.8933 86.7825 18.8499 87.2345 18.4484C87.2345 18.4484 90.0128 16.8089 90.9376 14.2503C91.402 12.5611 93.8776 11.1327 94.1181 12.5528C94.2259 13.1945 93.4878 13.5961 93.1229 14.0474C92.2936 15.0907 93.3551 17.2767 94.2964 17.8687ZM44.892 27.1054C44.892 27.1054 44.8754 27.0184 44.7966 26.9439C44.5893 26.8031 43.5775 27.2586 42.5698 27.863C42.4081 27.9582 42.2671 28.041 42.1303 28.1156C41.7612 28.3433 41.4046 28.571 41.2595 28.6952C41.2595 28.6952 40.6126 29.2086 40.6831 28.0535C40.6831 28.0369 40.6831 28.0245 40.6872 28.0079C40.6997 27.7512 40.7494 27.4242 40.766 27.0722C40.766 27.0722 41.6534 23.5366 42.0349 22.5471C42.0349 22.5471 42.2464 21.6156 42.5781 20.5515C42.5781 20.5515 44.0875 18.9824 41.3134 18.4732C41.3134 18.4732 39.9864 15.219 38.5599 20.3445C38.5599 20.3445 38.5599 20.3445 38.5599 20.3404C38.4604 19.8146 37.9752 18.999 37.2288 18.6802C37.0795 18.5933 36.868 18.5312 36.5736 18.5063C36.4617 18.4939 36.3912 18.527 36.1424 18.4939C36.1424 18.4939 34.8113 18.0343 33.3848 19.8146C31.8712 21.4789 27.4508 26.77 28.4584 31.2041C28.4584 31.2041 29.0058 33.4977 31.046 33.4853C31.046 33.4853 33.7455 33.5143 35.7858 31.585C35.7858 31.585 36.3995 31.0468 37.0547 30.2477C37.0795 30.521 37.121 30.8191 37.1998 31.113C37.2122 31.171 37.2247 31.2289 37.2413 31.2828C37.2413 31.2828 37.3159 31.7961 37.7389 32.1853C38.0499 32.471 38.5475 32.6904 39.3437 32.5828C39.4225 32.5662 39.5054 32.5455 39.5925 32.5207C39.5925 32.5207 42.4496 31.8293 42.3791 30.6203C42.3418 30.02 42.5615 29.9 42.5615 29.9C42.5615 29.9 42.744 29.8006 42.6777 29.5894C42.6901 29.5894 44.9708 28.0659 44.892 27.1054ZM36.6524 28.7904C36.4161 29.1672 36.1921 29.5936 35.5826 29.9828C35.5826 29.9828 32.4559 31.8955 32.5637 29.1961C32.5637 29.1961 32.6674 27.7015 33.1816 26.3105C33.1816 26.3105 34.6205 22.6589 36.8515 20.5267C37.0547 20.3197 37.233 20.299 37.3491 20.4563C37.6601 20.8827 37.714 21.3671 37.9504 21.7646C38.0126 21.8681 38.083 21.9799 38.1535 22.0834C37.8882 23.4538 37.1998 26.0496 37.0878 28.0162C37.009 28.2853 36.8141 28.5379 36.6524 28.7904ZM14.8571 13.9811C15.4584 15.0741 14.658 16.813 14.658 16.813C11.1914 23.8926 6.858 40.6063 5.99132 44.0137L6.00791 44.0095C6.00791 44.0095 5.98718 44.0634 5.954 44.1586C5.87522 44.4649 5.83375 44.6306 5.83375 44.6306C5.77569 44.8831 5.71764 45.1067 5.65544 45.3178C5.56006 45.8436 5.48542 46.5019 5.50615 47.2554L5.49371 47.2513C5.52274 48.1538 5.48127 49.0812 5.21173 49.2095C4.43215 49.5656 4.02991 48.5223 3.81428 47.392C3.05128 47.214 2.42512 46.2245 2.42512 46.2245C-0.386383 44.3449 1.71602 39.12 1.71602 39.12C3.62353 31.5519 13.0823 15.5999 13.0823 15.5999C14.1853 13.8114 14.6456 13.6003 14.8571 13.9811ZM29.2256 40.7305C30.7267 42.8172 31.8712 44.2952 31.5561 44.5685C30.536 45.4544 25.9455 41.8732 25.9455 41.8732C17.9589 35.2573 14.43 26.828 13.6545 24.7786C13.5426 24.4805 13.7665 24.2114 13.7665 24.2114C14.0402 23.9092 14.4756 23.7436 15.6325 23.6111C15.6284 23.6111 15.6367 23.6111 15.6325 23.6111C15.0271 23.3213 14.8364 23.2426 14.8903 23.0398C15.0064 22.7085 16.126 22.7168 16.126 22.7168C17.0092 22.6754 17.652 22.6216 17.652 22.6216C18.9458 22.485 19.6051 22.3649 19.6051 22.3649C22.3627 21.9261 23.4409 20.7296 23.4409 20.7296C26.1694 17.9722 21.7863 15.2066 21.7863 15.2066C10.6855 8.8391 1.74505 11.8614 1.74505 11.8614C1.25988 12.0022 0.886671 12.0022 0.355887 11.8283C-0.809351 11.4391 1.25988 9.79547 1.25988 9.79547C6.76677 5.24133 9.65706 6.60757 9.65706 6.60757C20.3515 7.31553 25.0622 12.9006 25.0622 12.9006C28.7902 16.8378 27.824 19.9761 27.3222 20.891C25.4977 24.2238 21.1767 24.3066 21.1767 24.3066C20.505 24.3439 19.9161 24.3605 19.3936 24.3646C19.8912 24.9318 20.252 25.9172 20.252 25.9172C21.0814 28.5089 29.2256 40.7305 29.2256 40.7305ZM129.403 25.4493C129.403 25.4493 135.262 30.2726 127.993 30.0242C127.993 30.0242 126.579 30.1318 125.712 27.2254C125.712 27.2254 123.216 21.5286 123.398 19.3757C123.15 19.6531 121.769 21.3175 120.977 23.1557C120.521 24.2197 120.334 24.5882 119.679 25.6066C119.318 26.1159 118.974 26.5754 118.654 26.8735C115.445 29.842 115.134 26.0496 115.134 26.0496C114.47 22.8162 116.133 17.6245 116.133 17.6245C117.34 14.0432 119.115 15.5171 119.115 15.5171C121.574 16.1589 120.579 18.5229 120.579 18.5229C120.052 20.328 119.583 19.9388 119.583 19.9388C118.978 20.3404 118.808 21.2057 118.766 21.7522C118.766 21.7522 118.538 23.756 119.434 22.22C120.11 20.8496 121.42 18.5643 122.37 17.8356C122.37 17.8356 123.772 16.3452 124.593 17.5748C124.593 17.5706 128.126 24.6627 129.403 25.4493Z" fill="#81859C"/>
<path d="M113.288 31.6801C114.819 31.7753 116.54 31.796 118.924 32.0237C120.164 32.1438 122.071 32.1438 122.345 32.947C122.594 33.6839 121.661 34.4416 119.994 34.7604C119.148 34.9218 118.617 35.0626 117.854 35.0336C116.954 35.0005 115.026 35.0709 114.972 34.0358C114.931 33.39 113.67 33.3941 112.828 33.361C111.145 33.2948 111.319 32.8186 111.684 32.2473C111.903 31.8954 112.364 31.6718 113.288 31.6801Z" fill="#E5E5E5"/>
<path d="M164.994 6.24726C164.994 5.76286 164.596 5.36127 164.106 5.36127L136.356 5.36541C135.871 5.36541 135.469 5.76286 135.469 6.2514L135.473 33.9572C135.473 34.4416 135.871 34.8432 136.36 34.8432L164.11 34.839C164.596 34.839 164.998 34.4416 164.998 33.953L164.994 6.24726Z" fill="#81859C"/>
<path d="M161.023 24.1699C160.579 23.1225 160.459 21.7852 160.384 20.6922C159.339 23.0065 157.78 26.5712 156.009 26.298C154.952 26.1323 154.877 24.3066 155.126 22.5387C154.425 24.0416 153.758 25.5983 152.953 26.5381C152.953 26.5381 152.895 26.6167 152.762 26.7617C152.563 27.0018 152.078 27.54 151.626 27.6518C151.593 27.6601 151.539 27.6725 151.489 27.6766C151.353 27.6932 151.212 27.689 151.062 27.6518C150.706 27.54 150.374 27.1881 150.084 26.5215C150.03 26.4015 149.988 26.2773 149.951 26.1489C149.914 25.9709 149.885 25.797 149.864 25.6314C149.557 26.1406 149.2 26.6043 148.806 26.9894C147.521 28.248 146.132 29.0222 144.49 29.4859C143.009 29.9082 141.193 30.2559 139.733 29.5355C138.249 28.8027 137.992 27.0846 138.651 25.6273C138.896 25.089 139.045 25.4078 138.945 26.0288C138.908 26.2566 138.871 26.476 138.867 26.7078C138.746 30.4505 144.56 28.6702 146.157 27.747C147.347 27.0639 147.815 26.5505 148.4 25.9626C149.188 25.1677 149.752 23.7932 149.889 22.6215C150.216 19.8186 146.721 19.8393 145.074 19.9097C145.016 19.9139 144.967 19.9015 144.917 19.8849C144.73 20.3941 144.531 20.8992 144.328 21.4002C143.93 22.3772 143.565 23.197 143.175 24.1741C142.848 24.9938 142.329 26.0495 141.832 26.7492C141.529 27.1715 141.293 27.0308 141.313 26.5298C141.351 25.6438 141.827 24.6667 142.159 23.876C142.537 22.9734 142.926 22.0792 143.304 21.1766C144.054 19.3964 144.776 17.583 145.207 15.6702C145.331 15.1072 146.115 15.1983 146.024 15.7944C145.92 16.4776 145.771 17.1441 145.589 17.8024C146.119 17.082 146.663 16.3699 147.119 15.5792C147.579 14.7884 148.578 12.6521 147.334 11.9979C146.318 11.468 144.942 12.3209 144.158 12.9543C143.291 13.6498 142.329 14.5565 141.616 15.6992C141.28 16.1132 141.06 15.8731 141.226 15.546C141.865 14.2667 143.047 13.0247 144.121 12.2215C145.12 11.4721 146.733 10.4661 147.927 11.3148C149.283 12.2795 148.761 14.2791 148.118 15.5419C147.5 16.7508 146.696 17.79 145.941 18.883C147.554 18.8747 149.511 19.0983 150.42 20.6011C150.515 20.7626 150.598 20.9282 150.664 21.0979C151.066 20.0174 151.502 19.119 151.821 18.4234C153.028 15.7779 153.662 14.6352 155.226 12.354C155.445 12.0352 155.769 12.3912 155.582 12.7225C153.38 16.5645 151.933 19.504 151.025 23.1059C150.95 23.4081 150.888 23.7021 150.867 23.8718C150.867 23.8718 150.859 23.8967 150.863 23.9008C150.776 24.5632 150.731 25.4658 151.029 26.0206C151.091 26.1323 151.158 26.2152 151.228 26.269L151.232 26.2731C151.622 26.5671 152.111 26.0413 152.36 25.7018C153.003 24.8945 153.567 23.9753 154.056 22.9941C154.861 21.3795 155.698 19.653 156.213 17.819C156.37 17.2476 157.054 17.3677 157.021 18.026C156.971 19.0817 156.685 20.1002 156.486 21.1145C156.349 21.8183 155.466 26.033 156.847 24.7247C158.356 23.2922 159.339 21.0027 160.334 18.9616C160.513 18.5932 161.006 18.6594 161.064 19.1397C161.255 20.7005 161.276 22.1413 161.773 23.6276C162.001 24.3148 161.296 24.8241 161.023 24.1699Z" fill="#E5E5E5"/>
<path d="M144.891 20.7875C145.243 20.5805 145.459 20.2451 145.459 19.7938V19.2391C145.459 18.6305 145.21 17.6037 143.543 17.6037H137.816V24.468H143.634C144.895 24.468 145.708 23.8512 145.708 22.8989V22.1289C145.704 21.4457 145.43 20.9986 144.891 20.7875ZM144.186 19.7897C144.186 20.0671 144.099 20.39 143.415 20.39C143.415 20.39 139.442 20.39 139.081 20.39C139.081 20.1043 139.081 19.0031 139.081 18.7174C139.442 18.7174 143.46 18.7174 143.46 18.7174C143.58 18.7174 144.186 18.7422 144.186 19.2018V19.7897ZM139.081 21.4954C139.438 21.4954 143.385 21.4954 143.385 21.4954C144.219 21.4954 144.435 21.6445 144.435 22.2282V22.6919C144.435 23.1059 144.281 23.3626 143.518 23.3626C143.518 23.3626 139.438 23.3626 139.077 23.3626C139.081 23.0687 139.081 21.7894 139.081 21.4954ZM148.486 23.3626H153.516V24.468H147.217V17.6078H148.486V23.3626ZM162.614 17.6078V22.6464C162.614 24.2238 161.656 24.5426 160.109 24.5426H157.12C155.573 24.5426 154.615 24.2279 154.615 22.6464V17.6078H155.884V22.6381C155.884 23.1184 155.967 23.4372 157.095 23.4372H160.138C161.262 23.4372 161.349 23.1225 161.349 22.6381V17.6078H162.614Z" fill="white"/>
</svg>
