<svg width="88" height="38" viewBox="0 0 88 38" fill="none" xmlns="http://www.w3.org/2000/svg">
<path fill-rule="evenodd" clip-rule="evenodd" d="M13.3641 27.8634H23.4211C22.4664 26.2726 21.9176 24.4102 21.9176 22.4202C21.9176 14.2522 28.5388 7.63161 36.7073 7.63161L87.3377 7.86522L84.7244 16.9763H74.7358L68.9984 36.975H58.25L63.9851 16.9763H53.8936C54.8483 18.5675 55.3969 20.4295 55.3969 22.4203C55.3969 30.5865 48.7757 37.2083 40.6078 37.2083L40.3419 37.2067L0 36.9751L8.34787 7.86533H19.0985L13.3641 27.8634ZM32.5147 22.4206C32.5147 19.0282 35.2651 16.2786 38.6572 16.2786C42.05 16.2786 44.8003 19.0283 44.8003 22.4206C44.8003 25.8129 42.0503 28.5631 38.6572 28.5631C35.2648 28.5631 32.5147 25.8131 32.5147 22.4206ZM37.2346 23.4774L40.658 16.6113C41.0801 16.8172 41.364 17.2672 41.364 17.7682C41.364 18.0058 41.3006 18.2286 41.1868 18.4184L38.2401 23.3227L39.2353 23.1691C39.2866 23.1611 39.3397 23.1574 39.3933 23.1574C39.9496 23.1574 40.4005 23.6088 40.4005 24.1651H43.1736L42.9243 23.8513H42.4171L42.3055 23.6977H43.7796C43.9387 23.9629 44.2216 24.1459 44.5487 24.1651L44.5012 24.3187H38.2665L40.8451 26.2973C41.1313 26.5166 41.3108 26.8664 41.3108 27.2547C41.3108 27.5891 41.1777 27.8972 40.9587 28.1166L37.0936 24.3187H32.8139L32.7664 24.1651L37.2344 23.4771" fill="#1A3171"/>
<path fill-rule="evenodd" clip-rule="evenodd" d="M13.7004 0.000653744H14.5199L13.3921 3.93408H12.5724L13.7004 0.000653744ZM55.5891 0.655977L55.7776 0.000653744H53.8936C53.3769 0.000653744 52.842 0.248457 52.6918 0.772016L52.5135 1.39566C52.3908 1.82355 52.6354 2.21336 53.2472 2.21336H54.1659C54.2969 2.21336 54.4786 2.28651 54.3752 2.64498L54.3305 2.803C54.2472 3.09211 53.9891 3.27881 53.7521 3.27881H51.9746L51.7868 3.93408H53.7592C54.2786 3.93408 54.8826 3.7312 55.0808 3.04238L55.2201 2.55769C55.4174 1.87147 54.9272 1.55764 54.4554 1.55764H53.5897C53.4675 1.55764 53.2958 1.52737 53.3654 1.28364L53.4311 1.0549C53.5194 0.744803 53.6874 0.655977 53.9206 0.655977H55.5891ZM41.6492 8.84533e-05H42.4687L41.3405 3.93408H40.521L41.6492 8.84533e-05ZM31.7008 8.84533e-05H32.5207L31.3925 3.93408H30.5732L31.7008 8.84533e-05ZM38.3723 8.84533e-05H39.1916L38.2519 3.27881H40.0535L39.8657 3.93408H37.2439L38.3723 8.84533e-05ZM20.1779 0.000653744L19.051 3.93408H19.8377L20.2846 2.3776H22.2835L21.8371 3.93408H22.6237L23.7517 0.000653744H22.9653L22.4714 1.72233H20.472L20.9657 0.000653744H20.1779ZM47.8511 3.93408L48.9794 0.000653744H51.7673L51.5795 0.655977H49.5418L49.283 1.55764L50.9755 1.55724L50.7876 2.21291H49.0954L48.7897 3.27881H50.8274L50.6391 3.93408H47.8511ZM42.8157 3.93408L43.9427 8.84533e-05H44.9698L45.7941 2.95067C45.8621 3.1931 45.8621 3.27881 45.8621 3.27881L46.803 8.84533e-05H47.5031L46.376 3.93408H45.3227L44.5229 0.9848C44.4654 0.771563 44.4597 0.636514 44.4597 0.636514L43.5162 3.93408H42.8157ZM18.5053 0.655977L18.694 0.000653744H16.8097C16.2933 0.000653744 15.7584 0.248457 15.6082 0.772016L15.4296 1.39566C15.3067 1.82355 15.552 2.21336 16.1636 2.21336H17.0818C17.2131 2.21336 17.395 2.28651 17.2915 2.64498L17.2465 2.803C17.1633 3.09211 16.9055 3.27881 16.6683 3.27881H14.891L14.7029 3.93408H16.6758C17.1952 3.93408 17.7988 3.7312 17.9972 3.04238L18.1365 2.55769C18.3338 1.87147 17.8436 1.55764 17.3713 1.55764H16.5059C16.3837 1.55764 16.212 1.52737 16.2815 1.28364L16.3475 1.0549C16.4361 0.744803 16.6038 0.655977 16.837 0.655977H18.5053ZM10.4233 8.84533e-05H11.2426L10.3025 3.27881H12.1045L11.9167 3.93408H9.29513L10.4233 8.84533e-05ZM2.87035 0.655977C3.12782 0.655977 3.17026 0.876513 3.12937 1.01841L2.99898 1.47323C2.89201 1.84279 2.55741 1.9672 2.37595 1.9672H1.37857L1.75471 0.655977H2.87035ZM1.12887 8.84533e-05L0 3.93408H0.819681L1.21726 2.54065H2.45861C2.86083 2.54065 3.56762 2.34445 3.73775 1.75102L3.94328 1.03391C4.16207 0.271086 3.50061 8.84533e-05 3.20999 8.84533e-05H1.12887ZM33.9218 0.000653744H36.0032C36.2938 0.000653744 36.9539 0.270524 36.7362 1.03346L36.6096 1.47543C36.432 2.09647 35.6739 2.15769 35.6739 2.15769C36.2772 2.40674 36.2982 2.55327 36.2224 3.11463C36.1473 3.67598 36.2275 3.90359 36.2618 3.93408H35.5181C35.5181 3.93408 35.3656 3.72237 35.4706 3.17211C35.5959 2.51062 35.3992 2.46224 35.2164 2.45868H34.0323L33.6124 3.93408H32.7931L33.9218 0.000653744ZM35.6633 0.655977C35.9207 0.655977 35.9628 0.876513 35.9225 1.01841L35.7921 1.47323C35.702 1.72013 35.3998 1.80256 35.2179 1.80256H34.2208L34.5479 0.655977H35.6633ZM29.5893 3.93408L29.18 0.000653744H28.2783L25.5743 3.93408H26.4451L26.9633 3.11395L28.7362 3.11463L28.7705 3.93408H29.5893ZM28.7115 2.52453L28.6335 0.655299C28.6297 0.567153 28.6467 0.452642 28.6467 0.452642L28.5218 0.655977L27.3361 2.52499L28.7115 2.52453ZM5.7561 3.27819H6.86822C7.16412 3.27819 7.50692 3.03881 7.62358 2.63242L8.02363 1.23679C8.12417 0.887604 7.82957 0.661071 7.64943 0.661524L6.5179 0.663729C6.20407 0.664352 5.86574 0.925169 5.77777 1.2317L5.39722 2.55723C5.25445 3.05494 5.54087 3.27819 5.7561 3.27819ZM6.60079 0.00574303H7.70539C8.28218 0.00574303 8.95737 0.531113 8.76682 1.19634L8.29101 2.85715C8.10646 3.5007 7.40723 3.93408 6.75682 3.93408H5.88917C5.06106 3.93408 4.42745 3.33782 4.65155 2.55723L5.08649 1.04053C5.27103 0.397424 5.95301 0.00574303 6.60081 0.00574303" fill="#1A3171"/>
</svg>
