<svg width="125" height="39" viewBox="0 0 125 39" fill="none" xmlns="http://www.w3.org/2000/svg">
<path d="M25.4447 0.596069L12.7227 13.3978H25.4447V39L38.1678 26.2291V0.596069H25.4447Z" fill="#E8E8E8"/>
<path d="M12.7232 39L25.4463 26.1983H12.7232V0.596069L0 13.367V39H12.7232Z" fill="#81859C"/>
<path d="M50.8906 32.5992H57.5695V12.7569H67.7471V32.5992H74.426V6.99693H50.8906V32.5992ZM115.772 16.5896H110.066V12.7569H122.773V6.99693H103.387V32.6003C103.387 32.6003 112.915 32.6003 116.091 32.6003C121.184 32.6003 125 30.0311 125 24.595C125 19.1486 121.183 16.5896 115.772 16.5896ZM115.136 27.1585H110.067V22.0428H115.136C116.712 22.0428 118.308 22.6678 118.308 24.5938C118.308 26.5199 116.712 27.1585 115.136 27.1585ZM90.7748 27.1437C86.3173 27.1437 83.8103 23.8549 83.8103 19.7895C83.8103 16.5258 85.635 12.4285 90.6479 12.4285C93.7771 12.4285 95.7956 14.3534 96.5119 15.2497L100.574 11.1627C98.1235 8.22054 94.4446 6.34692 90.3305 6.34692C82.9523 6.34692 77.1303 11.8412 77.1303 19.7884C77.1303 27.2121 82.9523 33.2298 90.3305 33.2298C94.7473 33.2298 98.6619 31.0711 101.094 27.7469L97.006 23.6337C95.714 25.6738 93.6037 27.1437 90.7748 27.1437Z" fill="#81859C"/>
</svg>
