<svg width="166" height="61" viewBox="0 0 166 61" fill="none" xmlns="http://www.w3.org/2000/svg">
<path d="M2.99328 60.5171C2.99328 60.5171 2.99491 60.5171 2.99328 60.5171C3.03093 60.5335 3.06694 60.5482 3.10459 60.563C3.13406 60.5744 3.17498 60.5842 3.22409 60.5957C3.64972 60.7283 4.10153 60.8036 4.57136 60.8069C4.57136 60.8069 5.47827 60.8069 6.93521 60.8069C9.15173 60.8069 12.6435 60.8069 16.168 60.8069C22.1971 60.8069 28.3212 60.8069 28.3212 60.8069L12.7433 45.1881C12.7433 45.1881 12.7401 45.1914 12.7352 45.1963C9.85401 48.0594 7.95016 49.9502 6.54724 51.3498C5.30147 52.5923 4.45022 53.4452 3.66118 54.2457C2.66751 55.2361 2.00615 55.8975 2.00288 55.9007L1.99961 55.904C1.51505 56.418 1.21875 57.1596 1.21875 57.9208C1.22039 59.1126 1.95377 60.0899 2.99328 60.5171Z" fill="#FF4F12"/>
<path d="M1.22558 57.9176C1.22558 57.1564 1.52352 56.4148 2.00807 55.9008L2.01135 55.8975C2.01462 55.8943 2.67598 55.2346 3.66965 54.2425C4.45869 53.442 5.30994 52.5891 6.5557 51.3466C7.95863 49.9486 9.86248 48.0562 12.7436 45.1931C12.7485 45.1882 12.7518 45.1849 12.7518 45.1849C13.5998 44.3419 14.5312 43.4169 15.5593 42.3938C15.5773 42.3758 15.5969 42.3562 15.615 42.3381C20.2788 37.7021 26.9169 31.0968 36.6506 21.3974L15.2597 0L3.15071 12.1237C-0.46873 15.7432 0.0223746 18.1119 0.0223746 22.9722C0.0223746 27.8456 0.0223746 56.2282 0.0223746 56.2348C0.0223746 58.2008 1.25996 59.8689 3.00011 60.5156C1.95896 60.0899 1.22558 59.1126 1.22558 57.9176Z" fill="#7700FF"/>
<path d="M136.465 38.8956H132.903L128.645 43.1993V38.8956H125.633V50.7558H128.645V45.8529L132.973 50.7558H136.609L131.014 44.3944L136.465 38.8956Z" fill="#101828"/>
<path d="M40.9477 34.0157H33.3438V50.7559H36.4999V44.9215H40.9477C44.7259 44.9215 47.2125 42.985 47.2125 39.4686C47.2125 35.954 44.7259 34.0157 40.9477 34.0157ZM40.8511 42.0993H36.4983V36.838H40.8511C43.0513 36.838 44.0547 37.8906 44.0547 39.4686C44.0564 41.0467 43.0513 42.0993 40.8511 42.0993Z" fill="#101828"/>
<path d="M54.3325 38.5602C51.0798 38.5602 47.8516 40.6654 47.8516 44.825C47.8516 48.9863 51.0798 51.0899 54.3325 51.0899C57.5853 51.0899 60.8135 48.9863 60.8135 44.825C60.8118 40.6654 57.5836 38.5602 54.3325 38.5602ZM54.3325 48.2693C52.5629 48.2693 50.9128 47.0023 50.9128 44.825C50.9128 42.6494 52.5629 41.3824 54.3325 41.3824C56.1021 41.3824 57.7522 42.6494 57.7522 44.825C57.7522 47.0023 56.1021 48.2693 54.3325 48.2693Z" fill="#101828"/>
<path d="M68.5143 48.2693C66.6972 48.2693 65.3581 46.9548 65.3581 44.825C65.3581 42.7215 66.7446 41.3824 68.5143 41.3824C69.5898 41.3824 70.5229 41.885 71.2644 43.008L73.8477 41.5248C72.9866 39.6832 71.122 38.5602 68.5388 38.5602C65.1666 38.5602 62.2969 41.0468 62.2969 44.825C62.2969 48.6033 65.0225 51.0899 68.5388 51.0899C71.0729 51.0899 72.7721 49.9424 73.9672 47.9092L71.4805 46.5455C70.7619 47.5523 69.9958 48.2693 68.5143 48.2693Z" fill="#101828"/>
<path d="M100.594 45.6139C100.45 47.431 100.092 47.8386 99.4698 47.8386C99.0442 47.8386 98.8444 47.7912 98.5547 47.7159L98.5694 50.7853C98.5694 50.7853 98.9443 50.8999 99.6368 50.8999C102.195 50.8999 103.151 49.2498 103.39 45.7351L103.677 41.5983H107.072V50.7329H110.086V38.8956H101.094L100.594 45.6139Z" fill="#101828"/>
<path d="M92.0388 38.5602C88.5945 38.5602 85.7969 41.0714 85.7969 44.825C85.7969 48.5804 88.5945 51.0899 91.8948 51.0899C94.5009 51.0899 96.151 50.1093 97.3477 48.0762L94.956 46.8811C94.2144 47.8142 93.5449 48.5067 91.9422 48.5067C90.1726 48.5067 88.881 47.3591 88.6895 45.5421H97.824V44.4894C97.8257 41.0239 95.434 38.5602 92.0388 38.5602ZM88.7386 43.247C89.1691 41.9079 90.3641 40.8553 91.9439 40.8553C93.6185 40.8553 94.7415 41.7638 95.028 43.247H88.7386Z" fill="#101828"/>
<path d="M118.015 38.5602C114.571 38.5602 111.773 41.0714 111.773 44.825C111.773 48.5804 114.571 51.0899 117.871 51.0899C120.477 51.0899 122.128 50.1093 123.324 48.0762L120.933 46.8811C120.191 47.8142 119.521 48.5067 117.919 48.5067C116.149 48.5067 114.858 47.3591 114.666 45.5421H123.801V44.4894C123.802 41.0239 121.411 38.5602 118.015 38.5602ZM114.715 43.247C115.146 41.9079 116.341 40.8553 117.919 40.8553C119.593 40.8553 120.716 41.7638 121.003 43.247H114.715Z" fill="#101828"/>
<path d="M74.8984 41.5247H78.4377V50.7558H81.4498V41.5247H84.989V38.8956H74.8984V41.5247Z" fill="#101828"/>
<path d="M142.594 38.5602C139.341 38.5602 136.113 40.6654 136.113 44.825C136.113 48.9863 139.341 51.0899 142.594 51.0899C145.847 51.0899 149.075 48.9863 149.075 44.825C149.075 40.6654 145.847 38.5602 142.594 38.5602ZM142.594 48.2693C140.825 48.2693 139.175 47.0023 139.175 44.825C139.175 42.6494 140.825 41.3808 142.594 41.3808C144.364 41.3808 146.014 42.6478 146.014 44.825C146.014 47.0023 144.364 48.2693 142.594 48.2693Z" fill="#101828"/>
<path d="M161.064 38.8925L157.794 47.2003L154.523 38.8925H150.586V50.733H153.449V43.2371L156.625 50.733H158.964L162.138 43.2371V50.733H165.003V38.8925H161.064Z" fill="#101828"/>
</svg>
