<svg width="165" height="39" viewBox="0 0 165 39" fill="none" xmlns="http://www.w3.org/2000/svg">
<g clip-path="url(#clip0)">
<path fill-rule="evenodd" clip-rule="evenodd" d="M38.93 15.5092V13.2198H29.9785V8.89929H38.0305V6.63662H29.9785V2.70811H38.4626V0.445435H24.0078V15.5092H38.93Z" fill="#004A93"/>
<path fill-rule="evenodd" clip-rule="evenodd" d="M47.6602 15.5092V2.70811H51.1614C52.2286 2.70811 53.2163 2.78829 54.1159 3.40295C54.7685 3.87508 55.183 4.53429 55.183 5.36275C55.183 6.05759 54.9361 6.77024 54.0365 7.35818C52.8635 8.13319 50.8087 8.24009 49.521 8.07974L48.7802 7.99957L54.7244 15.5181H61.6211L55.9856 9.23781C56.9998 9.13091 58.6137 8.71222 59.6015 8.07974C60.7744 7.27801 61.383 6.09322 61.383 4.9797C61.383 3.73255 60.7303 2.37851 59.2223 1.4966C57.4408 0.472159 55.0066 0.445435 52.7577 0.445435H41.6719V15.5181H47.6602V15.5092Z" fill="#004A93"/>
<path fill-rule="evenodd" clip-rule="evenodd" d="M95.8496 15.5092V9.14872H103.893V6.88605H95.8496V2.70811H104.554V0.445435H89.8789V15.5092H95.8496Z" fill="#004A93"/>
<path fill-rule="evenodd" clip-rule="evenodd" d="M112.712 0.445435H106.715V15.5092H121.496V13.2198H112.712V0.445435Z" fill="#004A93"/>
<path fill-rule="evenodd" clip-rule="evenodd" d="M146.137 2.70811H152.566V15.5092H158.563V2.70811H165.001V0.445435H146.137V2.70811Z" fill="#004A93"/>
<path fill-rule="evenodd" clip-rule="evenodd" d="M99.3211 26.7958L98.201 30.9737C98.0599 31.143 97.8482 31.2766 97.6542 31.3924C97.3544 31.5617 97.0545 31.6418 96.7811 31.6418C96.5077 31.6418 96.2608 31.5349 96.1549 31.3657C96.0756 31.2231 95.9874 31.0093 96.102 30.6174L97.1162 26.8047H96.0756L95.0878 30.4838C95.0084 30.8134 94.8673 31.3924 95.1672 31.8378C95.3348 32.0872 95.6875 32.3634 96.4283 32.3634C96.7282 32.3634 97.0281 32.3099 97.4161 32.1407C97.663 31.9982 97.9364 31.8378 98.1569 31.6685L97.9894 32.2476H98.9242L100.379 26.7958H99.3211Z" fill="#004A93"/>
<path fill-rule="evenodd" clip-rule="evenodd" d="M105.256 27.4282C105.01 27.0986 104.71 26.9294 104.657 26.9026C104.304 26.7067 103.916 26.6799 103.59 26.6799C103.237 26.6799 102.796 26.7067 102.302 27.0095C101.949 27.259 101.508 27.642 101.341 28.2834C101.2 28.7555 101.261 29.1119 101.42 29.3346C101.614 29.584 101.94 29.7176 102.214 29.8067L102.734 29.976C103.008 30.0294 103.281 30.0294 103.448 30.2521C103.528 30.359 103.616 30.5015 103.554 30.7777C103.475 31.0271 103.307 31.1964 103.175 31.3033C102.981 31.4725 102.655 31.6062 102.187 31.6062C101.887 31.6062 101.641 31.5527 101.394 31.4102C101.173 31.2409 101.014 31.1073 100.926 30.9648L100.238 31.5972C100.732 32.2565 101.332 32.3455 101.932 32.3455C102.346 32.3455 103.166 32.2921 103.845 31.7665C104.225 31.4369 104.498 31.0182 104.613 30.6619C104.666 30.3857 104.718 29.9671 104.586 29.7176C104.392 29.3346 103.96 29.1653 103.713 29.1119L103.334 29.005C102.84 28.8981 102.619 28.8357 102.514 28.7021C102.408 28.6219 102.32 28.4527 102.408 28.1231C102.461 27.9805 102.575 27.7667 102.787 27.5975C103.06 27.4282 103.307 27.4015 103.501 27.4015C103.748 27.4015 103.969 27.4549 104.154 27.5975C104.322 27.7044 104.454 27.8469 104.569 27.9805L105.256 27.4282Z" fill="#004A93"/>
<path fill-rule="evenodd" clip-rule="evenodd" d="M110.03 27.4282C109.809 27.0986 109.51 26.9294 109.43 26.9026C109.104 26.7067 108.716 26.6799 108.39 26.6799C108.01 26.6799 107.596 26.7067 107.102 27.0095C106.749 27.259 106.308 27.642 106.114 28.2834C106.008 28.7555 106.061 29.1119 106.22 29.3346C106.414 29.584 106.767 29.7176 107.014 29.8067L107.508 29.976C107.781 30.0294 108.054 30.0294 108.248 30.2521C108.328 30.359 108.416 30.5015 108.328 30.7777C108.248 31.0271 108.081 31.1964 107.975 31.3033C107.781 31.4725 107.455 31.6062 106.987 31.6062C106.687 31.6062 106.44 31.5527 106.167 31.4102C105.947 31.2409 105.814 31.1073 105.7 30.9648L105.012 31.5972C105.532 32.2565 106.132 32.3455 106.74 32.3455C107.155 32.3455 107.975 32.2921 108.654 31.7665C109.033 31.4369 109.307 31.0182 109.395 30.6619C109.474 30.3857 109.501 29.9671 109.368 29.7176C109.201 29.3346 108.769 29.1653 108.495 29.1119L108.116 29.005C107.649 28.8981 107.428 28.8357 107.322 28.7021C107.217 28.6219 107.128 28.4527 107.217 28.1231C107.269 27.9805 107.358 27.7667 107.596 27.5975C107.843 27.4282 108.116 27.4015 108.284 27.4015C108.557 27.4015 108.778 27.4549 108.972 27.5975C109.139 27.7044 109.271 27.8469 109.386 27.9805L110.03 27.4282Z" fill="#004A93"/>
<path fill-rule="evenodd" clip-rule="evenodd" d="M110.981 26.7958L110.787 27.5174H111.414L110.152 32.2476H111.193L112.639 26.7958H110.981ZM111.943 24.9964C111.863 25.3794 112.084 25.6912 112.437 25.6912C112.816 25.6912 113.177 25.3883 113.283 24.9964C113.389 24.64 113.177 24.3282 112.789 24.3282C112.437 24.3372 112.048 24.64 111.943 24.9964Z" fill="#004A93"/>
<path fill-rule="evenodd" clip-rule="evenodd" d="M119.527 32.2386L120.674 27.9538C121.026 27.6509 121.573 27.4015 122.067 27.4015C122.42 27.4015 122.614 27.544 122.693 27.7044C122.861 27.9538 122.773 28.3725 122.72 28.5328L121.732 32.2386H122.773L123.76 28.613C123.866 28.1676 123.928 27.642 123.681 27.2055C123.46 26.8492 123.055 26.6799 122.473 26.6799C122.12 26.6799 121.511 26.7601 120.859 27.2055L120.965 26.7868H119.298L119.104 27.5084H119.73L118.469 32.2386H119.527Z" fill="#004A93"/>
<path fill-rule="evenodd" clip-rule="evenodd" d="M137.29 26.7958L137.096 27.5174H137.722L136.461 32.2476H137.502L138.957 26.7958H137.29ZM138.251 24.9964C138.172 25.3794 138.392 25.6912 138.745 25.6912C139.098 25.6912 139.486 25.3883 139.592 24.9964C139.698 24.64 139.486 24.3282 139.098 24.3282C138.745 24.3372 138.357 24.64 138.251 24.9964Z" fill="#004A93"/>
<path fill-rule="evenodd" clip-rule="evenodd" d="M140.439 26.7957L138.992 32.2475H140.033L140.853 29.1208C140.994 28.7644 141.126 28.3992 141.32 28.1231C141.647 27.5975 142.035 27.5173 142.255 27.5173C142.396 27.5173 142.555 27.544 142.67 27.6598C142.749 27.74 142.776 27.9093 142.776 28.1052L143.71 27.8291C143.904 27.2768 143.71 26.9739 143.384 26.8047C143.217 26.7245 143.031 26.6978 142.837 26.6978C142.238 26.6978 141.629 27.0274 141.223 27.6064L141.444 26.8047H140.439V26.7957Z" fill="#004A93"/>
<path fill-rule="evenodd" clip-rule="evenodd" d="M145.315 24.2748L143.586 30.7421C143.445 31.241 143.207 32.2387 144.433 32.2387H145.033L145.227 31.5171H144.927C144.406 31.5171 144.547 31.0717 144.574 30.9648L146.355 24.2748H145.315Z" fill="#004A93"/>
<path fill-rule="evenodd" clip-rule="evenodd" d="M147.008 26.7958L146.814 27.5174H147.44L146.152 32.2476H147.219L148.675 26.7958H147.008ZM147.969 24.9964C147.89 25.3794 148.11 25.6912 148.463 25.6912C148.842 25.6912 149.204 25.3883 149.31 24.9964C149.389 24.64 149.169 24.3282 148.816 24.3282C148.437 24.3372 148.075 24.64 147.969 24.9964Z" fill="#004A93"/>
<path fill-rule="evenodd" clip-rule="evenodd" d="M149.937 32.2386L151.057 27.9538C151.436 27.6509 151.992 27.4015 152.477 27.4015C152.83 27.4015 153.024 27.544 153.103 27.7044C153.297 27.9538 153.156 28.3725 153.13 28.5328L152.142 32.2386H153.183L154.17 28.613C154.276 28.1676 154.338 27.642 154.091 27.2055C153.871 26.8492 153.465 26.6799 152.883 26.6799C152.504 26.6799 151.948 26.7601 151.269 27.2055L151.375 26.7868H149.708L149.514 27.5084H150.14L148.879 32.2386H149.937Z" fill="#004A93"/>
<path fill-rule="evenodd" clip-rule="evenodd" d="M165 27.4282C164.779 27.0986 164.506 26.9294 164.426 26.9026C164.074 26.7067 163.712 26.6799 163.386 26.6799C163.006 26.6799 162.592 26.7067 162.098 27.0095C161.719 27.259 161.278 27.642 161.11 28.2834C160.969 28.7555 161.057 29.1119 161.216 29.3346C161.384 29.584 161.736 29.7176 161.983 29.8067L162.504 29.976C162.777 30.0294 163.05 30.0294 163.218 30.2521C163.324 30.359 163.386 30.5015 163.324 30.7777C163.244 31.0271 163.077 31.1964 162.945 31.3033C162.777 31.4725 162.451 31.6062 161.957 31.6062C161.657 31.6062 161.437 31.5527 161.163 31.4102C160.943 31.2409 160.784 31.1073 160.696 30.9648L160.008 31.5972C160.502 32.2565 161.101 32.3455 161.701 32.3455C162.142 32.3455 162.936 32.2921 163.615 31.7665C163.994 31.4369 164.268 31.0182 164.382 30.6619C164.462 30.3857 164.488 29.9671 164.356 29.7176C164.188 29.3346 163.73 29.1653 163.483 29.1119L163.103 29.005C162.636 28.8981 162.415 28.8357 162.283 28.7021C162.204 28.6219 162.089 28.4527 162.177 28.1231C162.23 27.9805 162.318 27.7667 162.557 27.5975C162.83 27.4282 163.103 27.4015 163.271 27.4015C163.544 27.4015 163.738 27.4549 163.959 27.5975C164.1 27.7044 164.232 27.8469 164.338 27.9805L165 27.4282Z" fill="#004A93"/>
<path fill-rule="evenodd" clip-rule="evenodd" d="M10.4861 34.9557L8.21075 33.958L17.6297 32.7999C17.7973 33.0761 17.9561 33.3255 18.1501 33.5749L10.4861 34.9557ZM35.7534 34.9557L38.0288 33.9045L28.6627 32.7643C28.5833 33.0672 28.3364 33.3166 28.1688 33.566L35.7534 34.9557ZM34.3864 35.116L31.5378 36.087L27.4897 34.8399L27.1369 34.733C27.278 34.6261 27.3839 34.5103 27.4897 34.3767C27.6573 34.2341 27.7896 34.0471 27.9571 33.9045L34.3864 35.116ZM41.9092 32.4347L39.3076 33.6551L28.9008 32.4347C28.9802 32.1853 29.0684 31.9358 29.1477 31.6864L41.9092 32.4347ZM42.8441 32.0784L46.2395 29.8958H27.8425C27.8425 30.6709 27.7367 31.3301 27.4897 31.918C26.7753 33.7709 25.0027 34.6528 23.2212 34.6261C21.4661 34.5726 19.6935 33.6551 18.8997 31.9715C18.6263 31.3657 18.4588 30.6976 18.4588 29.8958H0L3.36897 32.0784L17.471 31.3301C17.7444 32.3545 18.2383 33.2364 18.8909 33.9045C20.011 35.0893 21.6249 35.7574 23.2124 35.7574C24.7734 35.7842 26.3608 35.2051 27.4809 33.9313C28.0806 33.2631 28.548 32.408 28.8214 31.3835L42.8441 32.0784ZM27.4897 37.7172L27.8425 38.3764L27.4897 38.5457L26.5284 38.9911L25.4348 36.8086C24.7469 37.058 23.9796 37.1916 23.2212 37.2273C22.401 37.254 21.5543 37.1471 20.8135 36.8977L19.8787 39C19.5788 39.0267 19.1643 39 18.8909 38.804C18.7498 38.7239 18.6175 38.5813 18.5646 38.3853L18.8909 37.833L19.6846 36.3988C19.4377 36.2296 19.2172 36.1227 18.9967 35.9L19.6494 35.0982C20.7694 35.7931 22.0041 36.1761 23.2124 36.1761C24.4206 36.2028 25.62 35.8198 26.7401 35.0181L27.4809 35.2408L27.7807 35.3477C27.6749 35.4278 27.5867 35.5169 27.4809 35.5971C27.2604 35.8198 27.0664 36.0425 26.7136 36.2296L27.4897 37.7172ZM27.4897 26.4038C28.2041 27.259 28.7244 28.3102 28.9978 29.5306H27.816C27.7367 29.1743 27.622 28.8091 27.4897 28.4794C26.696 26.3771 25.082 24.8805 23.2212 23.6423C22.9742 23.4998 22.7538 23.3394 22.5068 23.1969C22.7538 23.2771 22.9742 23.3662 23.2212 23.4463C24.9145 24.1412 26.4226 25.0765 27.4897 26.4038ZM24.3059 34.2074C24.6058 34.154 25.0732 33.9847 25.426 33.7085L23.5651 29.976L25.5054 29.0318L23.865 27.5975L23.2124 27.9004L20.3902 29.201L21.2104 31.0806L22.5509 30.4749L24.3059 34.2074ZM19.2172 34.733C19.1114 34.6528 18.9967 34.537 18.8909 34.4568C18.6704 34.2609 18.4764 34.0738 18.3441 33.8778L11.9149 35.1071L14.6488 36.0336L19.2172 34.733ZM17.4622 32.4347C17.3564 32.1853 17.2682 31.9358 17.1888 31.6864L4.32145 32.4347L6.92314 33.7085L17.4622 32.4347Z" fill="#004A93"/>
<path fill-rule="evenodd" clip-rule="evenodd" d="M133.435 0C130.639 0 126.724 0.63248 124.104 2.54774C122.023 4.04431 121.035 6.17337 121.035 7.99064C121.035 9.79009 122.023 11.9191 124.104 13.4068C126.732 15.2864 130.648 15.9189 133.435 15.9189C136.231 15.9189 140.173 15.2864 142.801 13.4068C144.882 11.9102 145.844 9.78118 145.844 7.99064C145.844 6.16446 144.882 4.0354 142.801 2.54774C140.164 0.63248 136.222 0.0267245 133.435 0ZM133.435 14.1016C131.953 14.1016 130.207 13.772 128.92 12.1418C127.852 10.8145 127.658 9.29123 127.658 7.99064C127.658 6.63659 127.852 5.14002 128.92 3.8127C130.207 2.15578 131.962 1.82618 133.435 1.82618C134.943 1.82618 136.663 2.15578 137.977 3.8127C139.044 5.14002 139.238 6.63659 139.238 7.99064C139.238 9.29123 139.044 10.8145 137.977 12.1418C136.663 13.772 134.934 14.1016 133.435 14.1016Z" fill="#004A93"/>
<path fill-rule="evenodd" clip-rule="evenodd" d="M75.4038 0C72.6081 0 68.6923 0.63248 66.073 2.54774C63.9917 4.04431 63.0039 6.17337 63.0039 7.99064C63.0039 9.79009 63.9917 11.9191 66.073 13.4068C68.7012 15.2864 72.6169 15.9189 75.4038 15.9189C78.1995 15.9189 82.1418 15.2864 84.7699 13.4068C86.8512 11.9102 87.8125 9.78118 87.8125 7.99064C87.8125 6.16446 86.8512 4.0354 84.7699 2.54774C82.1418 0.63248 78.1995 0.0267245 75.4038 0ZM75.4038 14.1016C73.9222 14.1016 72.176 13.772 70.8883 12.1418C69.8212 10.8145 69.6272 9.29123 69.6272 7.99064C69.6272 6.63659 69.8212 5.14002 70.8883 3.8127C72.176 2.15578 73.931 1.82618 75.4038 1.82618C76.9119 1.82618 78.6317 2.15578 79.9457 3.8127C81.0129 5.14002 81.2069 6.63659 81.2069 7.99064C81.2069 9.29123 81.0129 10.8145 79.9457 12.1418C78.6405 13.772 76.9119 14.1016 75.4038 14.1016Z" fill="#004A93"/>
<path fill-rule="evenodd" clip-rule="evenodd" d="M2.98092 15.5092L5.33567 11.1442H13.6346L16.1834 15.5092H22.8949L13.7934 0.445435H8.23721L0 15.5092H2.98092ZM6.42926 9.09527L9.25143 3.83945H9.3308L12.3999 9.09527H6.42926Z" fill="#004A93"/>
<path fill-rule="evenodd" clip-rule="evenodd" d="M89.932 24.3906L87.8242 32.2476H88.9972L89.8968 28.7913H90.6905L91.7841 32.2476H91.8635H93.204L91.9428 28.7378C92.5161 28.6844 93.2834 28.4082 93.7508 28.043C94.2711 27.6599 94.6504 27.0987 94.7915 26.5197C94.959 25.9674 94.8708 25.3883 94.5445 24.9964C94.1035 24.4441 93.2304 24.3906 92.6043 24.3906H91.8635H89.932ZM91.8723 27.9004C91.7929 27.9004 91.7312 27.9004 91.6782 27.9004H90.1437L90.8404 25.2993H91.8811H92.4014C92.569 25.2993 93.0893 25.2993 93.3627 25.5754C93.5303 25.7447 93.6626 26.0208 93.5568 26.4573C93.4509 26.876 93.2304 27.2056 92.9041 27.4818C92.5337 27.7668 92.1545 27.8737 91.8723 27.9004Z" fill="#004A93"/>
<path fill-rule="evenodd" clip-rule="evenodd" d="M115.171 29.0585C114.078 29.1654 113.169 29.6108 112.869 30.7422C112.843 30.8847 112.816 30.9916 112.816 31.0985V31.2945C112.843 31.9002 113.257 32.3456 114.157 32.3456C114.483 32.3456 114.81 32.2922 115.171 32.1497C115.198 32.1497 115.224 32.1229 115.277 32.0962C115.63 31.927 115.903 31.6508 115.991 31.5706H116.044L115.85 32.2298H116.785L117.746 28.72C117.887 28.1677 118.02 27.6154 117.72 27.1967C117.473 26.8137 116.847 26.6711 116.353 26.6711C115.886 26.6711 115.48 26.7246 115.18 26.8137C114.219 27.0631 113.866 27.6421 113.839 28.1677L114.801 28.2212C114.88 27.945 114.995 27.749 115.18 27.6154C115.4 27.4462 115.727 27.3927 116.141 27.3927C116.362 27.3927 116.635 27.4194 116.741 27.6154C116.909 27.8114 116.847 28.0875 116.794 28.337L116.6 29.0318H115.833C115.612 29.0318 115.365 29.0318 115.171 29.0585ZM115.171 31.5528C115.004 31.6063 114.845 31.633 114.677 31.633C114.457 31.633 114.183 31.6063 114.025 31.3836C113.884 31.1876 113.857 31.0005 113.945 30.7244C113.998 30.5017 114.113 30.279 114.386 30.0652C114.554 29.9583 114.765 29.8157 115.18 29.7623C115.321 29.7356 115.48 29.7088 115.674 29.7088H116.441L116.141 30.8669C115.974 31.0896 115.815 31.2232 115.621 31.3657C115.445 31.437 115.312 31.5261 115.171 31.5528Z" fill="#004A93"/>
<path fill-rule="evenodd" clip-rule="evenodd" d="M128.699 32.2387H129.881L131.054 30.3324H134.035L134.176 32.2387H135.517L134.776 24.3817H133.814L128.699 32.2387ZM131.601 29.4237L133.709 26.0743H133.735L133.982 29.4237H131.601Z" fill="#004A93"/>
<path fill-rule="evenodd" clip-rule="evenodd" d="M156.375 29.7533H159.63L159.709 29.3969C159.93 28.6754 160.15 27.9271 159.762 27.3213C159.436 26.7957 158.774 26.6888 158.307 26.6888C157.61 26.6888 156.949 26.9383 156.42 27.4104C155.705 28.0429 155.405 28.907 155.247 29.6196C155.079 30.1987 154.92 31.0895 155.352 31.722C155.767 32.2743 156.499 32.3544 157.019 32.3544C157.443 32.3544 157.831 32.2921 158.228 32.1585C158.448 32.0783 158.721 31.9625 158.968 31.8289L158.801 31.1964C158.554 31.3033 158.36 31.3924 158.086 31.4458C157.831 31.4993 157.584 31.5527 157.319 31.5527C156.905 31.5527 156.552 31.4102 156.358 31.1697C156.058 30.8133 156.19 30.261 156.278 29.9849L156.375 29.7533ZM156.534 29.0317L156.587 28.7823C156.693 28.5061 156.834 28.0607 157.187 27.7578C157.416 27.5262 157.769 27.4015 158.086 27.4015C158.36 27.4015 158.633 27.4817 158.774 27.6509C159.021 27.9805 158.915 28.4527 158.801 28.809L158.748 29.0317H156.534Z" fill="#004A93"/>
</g>
<defs>
<clipPath id="clip0">
<rect width="165" height="39" fill="white"/>
</clipPath>
</defs>
</svg>
