<svg width="166" height="31" viewBox="0 0 166 31" fill="none" xmlns="http://www.w3.org/2000/svg">
<path d="M133.406 3.2447C133.406 2.02096 134.319 1.10872 135.498 1.10872C136.655 1.10872 137.567 2.02096 137.567 3.2447C137.567 4.46842 136.655 5.38067 135.498 5.38067C134.319 5.38067 133.406 4.46842 133.406 3.2447ZM135.498 5.80341C136.899 5.80341 138.079 4.71318 138.079 3.2447C138.079 1.7762 136.899 0.685974 135.498 0.685974C134.096 0.685974 132.895 1.7762 132.895 3.2447C132.895 4.71318 134.096 5.80341 135.498 5.80341ZM134.964 3.44494H135.476L136.254 4.71318H136.744L135.92 3.42269C136.343 3.37819 136.677 3.13345 136.677 2.62169C136.677 2.02096 136.321 1.77621 135.631 1.77621H134.497V4.71318H134.964V3.44494ZM134.964 3.06669V2.15445H135.565C135.876 2.15445 136.21 2.2212 136.21 2.57719C136.21 3.04444 135.876 3.06669 135.498 3.06669H134.964Z" fill="#81859C"/>
<path d="M22.3584 6.93814H7.11732C5.4041 6.93814 3.82436 7.62789 2.62288 8.82937C1.4659 10.0086 0.842901 11.5661 0.86514 13.2148C0.842901 14.9213 1.46589 16.5322 2.64513 17.7159C3.77986 18.8529 5.31509 19.4692 6.93933 19.4558C6.91707 19.4558 16.3732 19.4558 16.3732 19.4558C18.3979 19.4714 19.9109 20.9065 19.9332 22.8689C19.9109 24.7624 18.2867 26.38 16.351 26.4044C16.3732 26.4044 0.753906 26.4044 0.753906 26.4044V29.6729H16.3732C20.0667 29.624 23.1371 26.5713 23.2039 22.8689C23.1371 19.062 20.2002 16.2185 16.3732 16.1873H6.91707C6.16058 16.194 5.47083 15.9181 4.95909 15.4086C4.40286 14.8524 4.1136 14.0736 4.1136 13.2148C4.1136 12.4071 4.40286 11.6773 4.95909 11.1211C5.53759 10.5426 6.29409 10.2088 7.13958 10.2088C7.11732 10.2088 22.3584 10.2088 22.3584 10.2088V6.93814Z" fill="#81859C"/>
<path d="M50.2109 6.82687V22.2548C50.2109 23.4341 49.7437 24.5354 48.9204 25.3542C48.0972 26.1663 47.0292 26.6069 45.8722 26.598C43.5137 26.6158 41.578 24.6534 41.5112 22.2192C41.5112 22.2548 41.5112 6.82687 41.5112 6.82687H38.2628V22.2548C38.2628 22.2682 38.2628 22.2793 38.2628 22.2904C38.285 23.4385 37.8623 24.5154 37.0613 25.3231C36.2381 26.1552 35.1255 26.6069 33.9241 26.598C32.8116 26.6069 31.7881 26.1775 31.0094 25.3898C30.1861 24.5666 29.7411 23.4608 29.7634 22.2793C29.7634 22.2548 29.7634 6.82687 29.7634 6.82687H26.4927V22.2548C26.4704 24.2996 27.2492 26.2398 28.6731 27.6927C30.0971 29.11 31.9438 29.8798 33.9241 29.8642C35.9933 29.882 37.929 29.0833 39.3753 27.617C39.5755 27.4123 39.7757 27.1943 39.9538 26.9695C41.3555 28.7495 43.4915 29.8843 45.8722 29.8642C47.8747 29.8798 49.7881 29.1033 51.2344 27.6726C52.6806 26.2353 53.4816 24.3107 53.4593 22.2548V6.82687H50.2109Z" fill="#81859C"/>
<path d="M75.5571 6.73786H68.415C61.9848 6.64885 56.6671 11.7841 56.5781 18.1831C56.6671 24.7802 61.9848 30.0867 68.415 30.0578C69.7722 30.0823 71.0627 29.8442 72.2864 29.3903V26.0195H71.9082L71.5967 26.1663C70.6177 26.6069 69.5942 26.8116 68.4595 26.7915C63.7426 26.8116 59.8933 22.9512 59.8266 18.1853C59.8933 13.5552 63.6535 9.94182 68.3927 10.0086C68.415 10.0086 71.8192 10.0086 73.9106 10.0086V29.5817H77.1814V6.73786H75.5571Z" fill="#81859C"/>
<path d="M89.0413 26.598C87.9511 26.5869 86.9276 26.1463 86.1489 25.3564C85.4369 24.62 85.0586 23.6699 85.0809 22.6798C85.0809 22.6576 85.0809 15.9737 85.0809 10.0086H92.8906V6.73788H85.0809C85.0809 3.40042 85.0809 0.863953 85.0809 0.863953H81.8324V22.6397C81.7657 24.4709 82.4777 26.2553 83.8127 27.6259C85.1699 29.0499 87.0389 29.8442 89.0413 29.8642H93.6693V26.598H89.0413Z" fill="#81859C"/>
<path d="M112.805 21.7809C111.448 24.8447 108.4 26.8116 105.063 26.7915C102.726 26.8004 100.568 25.9104 98.9439 24.2862C97.3196 22.6664 96.4519 20.5127 96.4741 18.2187C96.4296 13.5396 100.301 9.69708 105.063 9.63033C107.821 9.69708 110.291 10.9876 111.804 13.1636L114.496 11.2991C112.383 8.25085 108.956 6.44861 105.085 6.35962C98.4544 6.44861 93.1589 11.7752 93.2034 18.2187C93.1812 21.3693 94.3827 24.3508 96.6299 26.5935C98.8771 28.8407 101.859 30.0712 105.063 30.0578C109.668 30.0867 113.896 27.3611 115.787 23.1137L112.805 21.7809Z" fill="#81859C"/>
<path d="M127.952 6.35963C125.527 6.31514 123.168 7.20512 121.321 8.87384V0.863953H118.051V29.5817H121.321V16.2563C121.299 14.4697 121.989 12.7898 123.257 11.5216C124.526 10.2756 126.194 9.58584 127.952 9.63034C131.712 9.56359 134.76 12.5606 134.827 16.3075C134.827 16.2786 134.827 29.5817 134.827 29.5817H138.098V16.2786C138.009 10.6983 133.448 6.27062 127.952 6.35963Z" fill="#81859C"/>
<path d="M142.84 7.40533H165.001V29.5816H142.84V7.40533Z" fill="#81859C" stroke="#81859C" stroke-width="0.335915" stroke-miterlimit="3.864"/>
<path d="M163.47 15.7001H156.706V8.96283H151.122V15.7001H144.18V21.2914H151.122V28.2311H156.706V21.2914H163.47V15.7001Z" fill="#FFFEFF"/>
</svg>
