<svg width="211" height="32" viewBox="0 0 211 32" fill="none" xmlns="http://www.w3.org/2000/svg">
<path fill-rule="evenodd" clip-rule="evenodd" d="M9.47381 0.666748H0L10.8857 15.9387L0 31.2631H9.47381L20.3633 15.9387L9.47381 0.666748Z" fill="#F78F1E"/>
<path d="M21.5101 7.51123H26.0582L29.5553 13.2083L33.174 7.51123H37.4667L31.7545 16.023L37.966 25.3463H33.2963L29.4048 19.1751L25.4328 25.3463H21.0352L27.2588 15.9994L21.5101 7.51123Z" fill="black"/>
<path d="M43.0703 10.4575L42.372 14.4333L42.4244 14.482C42.9115 13.9994 43.4267 13.6499 43.9746 13.4432C44.5225 13.2312 45.1472 13.1308 45.8448 13.1308C46.7133 13.1308 47.4793 13.2889 48.145 13.605C48.8099 13.9219 49.3746 14.3437 49.8328 14.8748C50.291 15.406 50.6406 16.0307 50.883 16.7579C51.1269 17.4806 51.2485 18.2466 51.2485 19.062C51.2485 19.967 51.0699 20.7984 50.7211 21.5659C50.3731 22.341 49.8974 23.0135 49.3092 23.5781C48.7127 24.1458 48.0272 24.5759 47.2483 24.8836C46.4618 25.1929 45.6335 25.3388 44.749 25.3221C43.8971 25.3221 43.0855 25.2089 42.3112 24.9824C41.5399 24.759 40.8544 24.4132 40.2541 23.9512C39.653 23.4808 39.175 22.9056 38.8179 22.2148C38.4607 21.5256 38.2738 20.7216 38.2578 19.8051H41.8043C41.8856 20.6046 42.185 21.2414 42.7048 21.711C43.2162 22.1867 43.8736 22.4261 44.673 22.4261C45.1396 22.4261 45.5613 22.3319 45.9306 22.1419C46.3076 21.9504 46.6244 21.7034 46.8836 21.3949C47.1389 21.0871 47.338 20.73 47.4801 20.3242C47.626 19.9146 47.6951 19.4959 47.6951 19.0665C47.6951 18.6204 47.626 18.1949 47.4915 17.7975C47.3623 17.4031 47.1594 17.055 46.8957 16.7549C46.6275 16.4539 46.3152 16.2191 45.942 16.0573C45.5773 15.8901 45.1555 15.8133 44.6722 15.8133C44.0392 15.8133 43.524 15.919 43.1266 16.1462C42.7208 16.3734 42.3477 16.7229 41.9989 17.2093H38.8057L40.5299 7.53638H50.3001V10.4582H43.0703" fill="black"/>
<path d="M62.6487 7.51123C63.3783 7.51123 64.0728 7.5971 64.7339 7.78404C65.3867 7.96566 65.9627 8.24151 66.4544 8.62298C66.9453 8.99686 67.3351 9.47864 67.6269 10.0676C67.9149 10.6595 68.0654 11.3579 68.0654 12.1611C68.0654 13.2926 67.7736 14.279 67.1892 15.1058C66.6041 15.9386 65.7439 16.4691 64.5926 16.7046V16.7578C65.177 16.8422 65.6595 16.9934 66.0448 17.2168C66.4263 17.4433 66.7424 17.7275 66.9863 18.077C67.2257 18.4342 67.3997 18.8316 67.5091 19.2944C67.6186 19.7488 67.6877 20.2435 67.7242 20.7747C67.7402 21.0749 67.7569 21.4404 67.7728 21.8743C67.7888 22.309 67.8207 22.7429 67.8739 23.1859C67.918 23.6274 68.0031 24.0454 68.1133 24.4307C68.2189 24.8281 68.3648 25.1283 68.5472 25.3479H66.6641C66.5631 25.1777 66.4855 24.9748 66.4247 24.7354C66.3678 24.496 66.3275 24.2437 66.3032 23.9853C66.2788 23.7293 66.2545 23.4739 66.2386 23.2224C66.2219 22.9701 66.2059 22.7596 66.1854 22.5727C66.1527 21.9442 66.1041 21.315 66.0273 20.6904C65.9498 20.0695 65.7917 19.514 65.5486 19.0224C65.3092 18.5277 64.9604 18.1386 64.5022 17.8377C64.047 17.5329 63.4185 17.403 62.6199 17.4357H56.1925V25.3471H54.4805V7.51199H62.6487V7.51123ZM62.5188 15.9751C63.034 15.9751 63.5287 15.8976 63.9915 15.7396C64.4581 15.5815 64.8677 15.3497 65.2165 15.0534C65.5653 14.757 65.8419 14.3877 66.0524 13.9697C66.2553 13.5487 66.3571 13.0616 66.3571 12.5099C66.3571 11.4111 66.044 10.5463 65.4118 9.91331C64.7826 9.2803 63.8213 8.96722 62.5188 8.96722H56.1933V15.9744H62.5188V15.9751Z" fill="black"/>
<path d="M82.9511 7.51123V8.96798H72.342V15.39H82.2778V16.8513H72.342V23.8858H83.0765V25.3463H70.6367V7.51123H82.9511Z" fill="black"/>
<path d="M98.138 7.51123V8.96798H91.9189V25.3463H90.2182V8.96798H84.0234V7.51123H98.138Z" fill="black"/>
<path d="M104.427 7.51123L111.414 25.3463H109.596L107.422 19.796H99.3065L97.1605 25.3463H95.3633L102.528 7.51123H104.427ZM106.85 18.3369L103.402 9.19595L99.8354 18.3369H106.85Z" fill="black"/>
<path d="M114.865 7.50366H113.16V25.3464H114.865V7.50366Z" fill="black"/>
<path d="M120.283 7.51123V23.8858H130.272V25.3463H118.578V7.51123H120.283Z" fill="black"/>
<path d="M140.342 26.022C138.945 26.022 137.696 25.7735 136.601 25.256C135.522 24.7476 134.608 24.0622 133.882 23.1837C133.159 22.3174 132.615 21.2931 132.249 20.1335C131.88 18.9746 131.699 17.7359 131.699 16.4319C131.699 15.1006 131.898 13.8596 132.289 12.6886C132.688 11.5176 133.258 10.4932 133.997 9.62996C134.74 8.75379 135.65 8.06455 136.716 7.5668C137.788 7.06754 139.006 6.81677 140.358 6.81677C141.384 6.81677 142.335 6.96419 143.21 7.25524C144.083 7.54933 144.854 7.97184 145.523 8.51365C146.186 9.06307 146.736 9.71735 147.157 10.4765C147.587 11.2402 147.874 12.102 148.033 13.0382L148.09 13.3725H147.75H147.006L146.964 13.1347C146.823 12.339 146.564 11.6255 146.192 10.9742C145.815 10.3276 145.352 9.78043 144.785 9.32448C144.22 8.86473 143.568 8.51213 142.823 8.26212C142.085 8.01287 141.26 7.89129 140.356 7.89129C139.143 7.89129 138.076 8.1147 137.146 8.56001C136.205 9.00988 135.417 9.61857 134.772 10.3838C134.122 11.1543 133.625 12.0541 133.286 13.0944C132.946 14.134 132.778 15.2503 132.778 16.4327C132.778 17.6227 132.942 18.7421 133.268 19.7869C133.587 20.8235 134.067 21.7308 134.708 22.4945C135.341 23.2544 136.141 23.8623 137.092 24.316C138.038 24.7575 139.143 24.987 140.422 24.987C141.377 24.987 142.259 24.8229 143.082 24.4946C143.917 24.1655 144.645 23.7081 145.252 23.1298C145.865 22.553 146.341 21.8615 146.696 21.0545C147.044 20.2474 147.219 19.3781 147.219 18.4335V17.7952H140.307V17.5095V17.0133V16.7268H148.302V25.6253H148.015H147.218L147.226 22.2225C146.704 23.2271 145.966 24.0554 145.026 24.6982C143.722 25.5843 142.158 26.022 140.354 26.022C140.352 26.022 140.348 26.022 140.342 26.022Z" fill="black"/>
<path d="M150.04 25.6322H149.754V7.23169H157.354C159.26 7.23397 160.698 7.59797 161.65 8.41183C162.599 9.21886 163.065 10.4666 163.106 12.083C163.109 12.14 163.109 12.1962 163.109 12.2532C163.109 13.4326 162.765 14.4448 162.08 15.2541C161.561 15.8696 160.878 16.3377 160.048 16.6591C160.38 16.7557 160.677 16.8742 160.941 17.0171C161.446 17.2952 161.846 17.6676 162.121 18.1341C162.389 18.5855 162.571 19.1152 162.66 19.717C162.739 20.3014 162.78 20.9458 162.78 21.6799C162.78 21.9109 162.796 22.227 162.809 22.6001C162.825 22.971 162.852 23.3372 162.882 23.6967C162.919 24.0576 162.957 24.3814 163.004 24.6777C163.048 24.9581 163.117 25.1367 163.154 25.18L163.485 25.6345H162.922H162.193L162.116 25.4734C162.007 25.2499 161.936 24.984 161.878 24.6511C161.83 24.3396 161.789 23.9976 161.767 23.6405C161.745 23.2879 161.72 22.9353 161.714 22.572C161.706 22.208 161.699 21.8896 161.699 21.5993C161.699 20.8812 161.649 20.2429 161.541 19.6874C161.44 19.1562 161.241 18.7246 160.949 18.3735C160.654 18.0308 160.222 17.7527 159.654 17.5581C159.076 17.3659 158.282 17.2602 157.271 17.2602H150.839V25.6337H150.551H150.04V25.6322ZM157.225 16.1986C157.869 16.1986 158.476 16.1166 159.066 15.9517C159.637 15.7997 160.143 15.5527 160.574 15.2077C161.01 14.8688 161.354 14.4486 161.624 13.9181C161.881 13.4098 162.015 12.7897 162.015 12.0419C161.996 10.8299 161.641 9.94229 160.957 9.28725C160.291 8.65652 159.14 8.30848 157.481 8.31L150.839 8.30848V16.1994H157.225V16.1986Z" fill="black"/>
<path d="M168.805 25.2552C167.747 24.7446 166.852 24.0508 166.137 23.1693C165.426 22.2878 164.882 21.2665 164.513 20.0992C164.148 18.9426 163.957 17.7146 163.957 16.422C163.957 15.1271 164.148 13.8961 164.513 12.741C164.881 11.5723 165.426 10.5525 166.137 9.67249C166.852 8.78871 167.747 8.08883 168.803 7.57817C169.874 7.05383 171.096 6.79395 172.46 6.79395C173.831 6.79395 175.052 7.05383 176.117 7.57817C177.176 8.08883 178.073 8.78947 178.789 9.67249C179.502 10.5525 180.046 11.5723 180.415 12.7387C180.781 13.8961 180.965 15.1271 180.965 16.422C180.965 17.7131 180.781 18.9396 180.415 20.0992C180.047 21.2665 179.502 22.2878 178.789 23.1693C178.074 24.0508 177.176 24.7446 176.117 25.2552C175.051 25.772 173.831 26.0235 172.46 26.0235C171.098 26.0235 169.876 25.772 168.805 25.2552ZM167.06 22.5971C167.69 23.3471 168.459 23.9353 169.37 24.3623C170.273 24.7818 171.299 24.9931 172.46 24.9931C173.626 24.9931 174.653 24.7826 175.559 24.3646C176.469 23.9353 177.235 23.3471 177.866 22.5993C178.49 21.8493 178.984 20.9496 179.331 19.9024C179.679 18.8416 179.862 17.6964 179.878 16.4441C179.862 15.1925 179.679 14.042 179.331 12.988C178.984 11.9401 178.49 11.0358 177.866 10.2835C177.235 9.53799 176.469 8.95361 175.559 8.52426C174.653 8.10099 173.626 7.88974 172.46 7.88974C171.299 7.88974 170.273 8.10099 169.371 8.52426C168.456 8.95361 167.69 9.53419 167.06 10.2835C166.431 11.0358 165.941 11.9401 165.59 12.988C165.247 14.0397 165.065 15.1925 165.049 16.4372C165.065 17.6956 165.247 18.8408 165.59 19.9009V19.9001C165.941 20.9496 166.431 21.8493 167.06 22.5971Z" fill="black"/>
<path d="M195.88 7.22327H196.167V18.6941C196.167 21.1304 195.598 22.9853 194.411 24.2065C193.231 25.4269 191.519 26.0235 189.344 26.0235C189.339 26.0235 189.335 26.0235 189.332 26.0235C187.148 26.0258 185.437 25.4292 184.256 24.2065C183.065 22.9853 182.5 21.1304 182.5 18.6941V7.22327H182.788H183.583V18.6941C183.585 20.8021 184.064 22.3523 184.981 23.3965C185.893 24.4277 187.317 24.9672 189.332 24.9702C191.346 24.9672 192.768 24.4277 193.681 23.3965C194.596 22.3508 195.083 20.8014 195.083 18.6941V7.22327H195.369H195.88Z" fill="black"/>
<path d="M198.058 25.6322H197.77V7.23926H205.29C207.047 7.23926 208.453 7.66101 209.474 8.53643C210.491 9.41716 211.003 10.7257 211 12.3968C211 13.2152 210.848 13.9516 210.549 14.602C210.248 15.2464 209.83 15.7913 209.293 16.2298C208.763 16.6614 208.13 16.9874 207.41 17.2025C206.689 17.4236 205.892 17.5269 205.039 17.5269H198.854V25.6329H198.567H198.058V25.6322ZM205.284 16.4418C205.955 16.4418 206.575 16.3536 207.143 16.1705C207.712 15.9904 208.194 15.7282 208.608 15.3779C209.015 15.0337 209.332 14.6096 209.567 14.1149C209.797 13.624 209.915 13.0518 209.915 12.3877C209.912 11.0267 209.533 10.035 208.791 9.35181C208.061 8.67397 206.907 8.30997 205.284 8.30997L198.853 8.30845V16.4425H205.284V16.4418Z" fill="black"/>
</svg>
