<svg width="94" height="38" viewBox="0 0 94 38" fill="none" xmlns="http://www.w3.org/2000/svg">
<path d="M90.3841 1.44615C90.3841 1.39451 90.3841 1.39451 90.3841 1.34286C90.3841 1.29121 90.3324 1.29121 90.2808 1.23956C90.2291 1.23956 90.1775 1.18791 90.1775 1.18791C90.1258 1.18791 90.0742 1.18791 90.0225 1.18791H89.8676V1.7044H89.9709C90.0742 1.7044 90.1258 1.7044 90.1775 1.7044C90.2291 1.7044 90.2808 1.65275 90.3324 1.65275C90.3841 1.65275 90.3841 1.6011 90.3841 1.54945C90.3841 1.54945 90.3841 1.4978 90.3841 1.44615ZM91.2104 2.78901H90.5907L90.0225 2.11758H89.8676V2.78901H89.4028V0.92967H90.1258C90.2808 0.92967 90.3841 0.92967 90.4357 0.92967C90.539 0.92967 90.5907 0.981319 90.694 1.03297C90.7973 1.08462 90.8489 1.13626 90.9006 1.18791C90.9522 1.23956 90.9522 1.34286 90.9522 1.44615C90.9522 1.6011 90.9006 1.7044 90.8489 1.80769C90.7973 1.91099 90.694 1.96264 90.539 2.01429L91.2104 2.78901ZM91.6236 1.91099C91.6236 1.4978 91.4687 1.13626 91.2104 0.878022C90.9006 0.568132 90.5907 0.413187 90.1775 0.413187C89.7643 0.413187 89.4028 0.568132 89.1445 0.878022C88.8346 1.18791 88.7313 1.4978 88.7313 1.91099C88.7313 2.32418 88.8863 2.68571 89.1445 2.94396C89.4544 3.25385 89.7643 3.40879 90.1775 3.40879C90.5907 3.40879 90.9522 3.25385 91.2104 2.94396C91.4687 2.63407 91.6236 2.32418 91.6236 1.91099ZM92.0368 1.91099C92.0368 2.42747 91.8302 2.89231 91.4687 3.25385C91.1072 3.61538 90.6423 3.82198 90.1258 3.82198C89.6093 3.82198 89.1445 3.61538 88.783 3.25385C88.4214 2.89231 88.2148 2.42747 88.2148 1.91099C88.2148 1.39451 88.4214 0.92967 88.783 0.568132C89.1445 0.206593 89.6093 0 90.1258 0C90.6423 0 91.1072 0.206593 91.4687 0.568132C91.8819 0.92967 92.0368 1.39451 92.0368 1.91099Z" fill="#0094A1"/>
<path d="M12.9637 1.91101C8.31538 1.91101 4.33846 4.33848 2.22088 7.74727C0.413187 10.9495 0 16.1143 0 19.5231C0 22.9319 0.413187 28.1484 2.22088 31.2989C4.28681 34.7077 8.26374 37.1352 12.9637 37.1352H81.0363C85.6846 37.1352 89.6615 34.7077 91.7791 31.2989C93.5868 28.1484 94 22.9319 94 19.5231C94 16.1143 93.5868 10.8978 91.7791 7.74727C89.7132 4.33848 85.7363 1.91101 81.0363 1.91101H12.9637Z" fill="#0094A1"/>
<path d="M58.2581 17.6121H63.9911V17.4571C63.9911 14.8231 62.9581 14.6681 61.0471 14.6681C58.7229 14.6165 58.3097 15.3396 58.2581 17.6121ZM18.024 14.7714C19.8834 14.7714 20.9163 14.978 20.9163 17.5088V17.6121H15.2867C15.3383 15.4429 15.8032 14.7714 18.024 14.7714ZM10.0702 19.6264C10.0702 25.7725 11.6196 27.9934 18.1273 27.9934C20.5548 27.9934 22.5174 27.7868 23.9636 27.0121C25.3064 26.2374 26.1328 24.8945 26.1328 22.467H21.0196C20.968 24.2231 19.7801 24.4297 18.1273 24.4297C15.7515 24.4297 15.2867 23.4484 15.2867 20.5044V20.4011H26.1328V19.6264C26.1328 12.9121 24.3251 11.2077 18.1273 11.2077C11.5163 11.2077 10.0702 13.2736 10.0702 19.6264ZM29.5933 16.5791C29.5933 19.8846 30.7295 21.3824 37.6504 21.3824C38.2702 21.3824 39.2515 21.3308 39.8196 21.589C40.3361 21.8472 40.5944 22.3121 40.5944 23.1385C40.5944 24.5846 40.0779 24.7396 37.5988 24.7396C36.2559 24.7396 34.8614 24.6879 34.7581 22.8802H29.5933C29.6449 26.4956 31.3493 27.6835 34.5515 27.9418C35.5328 27.9934 36.5658 27.9934 37.6504 27.9934C42.0405 27.9934 45.7076 27.2703 45.7076 22.5187C45.7076 17.9736 43.3317 17.6637 37.6504 17.5088C34.8097 17.4571 34.6548 16.8374 34.6548 15.9077C34.6548 14.8231 34.7581 14.4615 37.6504 14.4615C38.6834 14.4615 39.768 14.5648 39.9746 15.856H44.8812V15.1846C44.8812 11.2593 40.7493 11.2077 37.6504 11.2077C32.9504 11.2077 29.5933 11.311 29.5933 16.5791ZM72.3581 11.2077H85.1669V14.978H81.3449V27.8385H76.1284V14.978H72.3064V11.2077H72.3581ZM53.1449 19.5231C53.1449 13.1703 54.5394 11.156 61.1504 11.156C67.2966 11.156 69.1043 12.8088 69.1043 19.5231V20.2462H58.2581V20.4011C58.2581 23.3451 58.7229 24.378 61.1504 24.378C62.7515 24.378 63.9911 24.2231 64.0944 22.4154H69.1043C69.0526 24.7396 68.2779 26.0824 66.935 26.8571C65.5405 27.6319 63.5779 27.8385 61.1504 27.8385C54.6944 27.8385 53.1449 25.6692 53.1449 19.5231ZM6.29985 30.9374C3.66579 28.0967 3.09766 23.7066 3.09766 19.5231C3.09766 15.3396 3.66579 10.9494 6.29985 8.10879C7.9526 6.35274 11.1548 5.00989 13.8405 5.00989H48.9097V34.0363H13.8405C11.1032 34.0363 7.9526 32.6934 6.29985 30.9374Z" fill="white"/>
</svg>
