<svg width="161" height="37" viewBox="0 0 161 37" fill="none" xmlns="http://www.w3.org/2000/svg">
<path d="M121.066 0H0V37H121.066V0Z" fill="url(#paint0_linear)"/>
<path d="M161.001 0H123.645V36.8684H161.001V0Z" fill="url(#paint1_linear)"/>
<path d="M21.7468 10.8754C20.2698 9.94539 18.5474 9.89868 17.0239 9.89868H10.6758V27.1014H14.6751V20.532H17.5486C19.0722 20.532 21.2221 20.5532 22.8979 18.4469C23.7232 17.3938 24.0237 16.2685 24.0237 15.1092C24.0194 12.7566 22.7456 11.4996 21.7468 10.8754ZM19.3219 16.8927C18.6701 17.4957 17.7983 17.5212 17.1974 17.5212H14.6708V12.9052H17.2736C17.9211 12.9052 18.7717 12.9817 19.3684 13.5337C19.7959 13.9329 20.0202 14.5359 20.0202 15.1899C20.0202 15.8141 19.7705 16.4681 19.3219 16.8927Z" fill="white"/>
<path d="M33.9344 9.64392C32.5082 9.64392 30.6123 9.91995 28.9618 11.402C27.434 12.7821 26.2109 15.1899 26.2109 18.4979C26.2109 21.4068 27.1631 23.891 28.784 25.4155C29.7574 26.3413 31.4333 27.3477 33.9344 27.3477C36.4313 27.3477 38.1072 26.3413 39.0848 25.4198C40.7057 23.891 41.6579 21.4068 41.6579 18.4979C41.6579 15.1899 40.4349 12.7779 38.9071 11.402C37.2566 9.91995 35.3564 9.64392 33.9344 9.64392ZM36.4567 22.8124C35.9785 23.5895 35.1575 24.3412 33.9302 24.3412C32.7071 24.3412 31.8819 23.5895 31.4079 22.8124C31.0566 22.2349 30.5065 21.0076 30.5065 18.447C30.5065 15.8906 31.0778 14.6846 31.4079 14.1537C32.1316 13.0029 33.0076 12.6547 33.9302 12.6547C34.857 12.6547 35.7288 13.0072 36.4567 14.1537C36.7826 14.6803 37.3539 15.8863 37.3539 18.447C37.3582 21.0076 36.808 22.2349 36.4567 22.8124Z" fill="white"/>
<path d="M51.9777 12.6547C53.15 12.6547 53.8991 13.1048 54.4746 14.1537C54.8259 14.7822 55.0036 15.5339 55.0502 16.2091L58.7998 15.9118C58.6009 13.2747 57.1493 11.7757 56.8488 11.4742C55.2999 9.94543 53.3024 9.64392 51.9777 9.64392C50.6785 9.64392 48.554 9.81803 46.7258 11.6483C45.2784 13.1048 44.25 15.5339 44.25 18.4725C44.25 20.2008 44.6478 22.2604 45.4985 23.7382C46.3491 25.2202 48.3001 27.3477 51.9481 27.3477C54.2969 27.3477 55.8204 26.3965 56.7726 25.4707C57.6952 24.5662 58.5967 23.0884 58.7956 21.1563L55.1264 20.808C55.0502 21.4875 54.8005 22.4387 54.3265 23.1139C53.6536 24.0694 52.7776 24.3412 51.9523 24.3412C51.1017 24.3412 49.904 23.9929 49.1507 22.3368C48.7021 21.3813 48.5498 20.1541 48.5498 18.4215C48.5498 16.7908 48.7021 15.6358 49.1507 14.6378C49.7728 13.279 50.6489 12.6547 51.9777 12.6547Z" fill="white"/>
<path d="M68.9422 12.6547C70.1145 12.6547 70.8636 13.1048 71.4434 14.1537C71.7947 14.7822 71.9682 15.5381 72.019 16.2091L75.7643 15.9118C75.5654 13.2747 74.1181 11.7757 73.8176 11.4742C72.2686 9.94543 70.2669 9.64392 68.9422 9.64392C67.6388 9.64392 65.5185 9.81803 63.6945 11.6483C62.2471 13.1048 61.2188 15.5339 61.2188 18.4725C61.2188 20.2008 61.6208 22.2604 62.4672 23.7382C63.3179 25.2202 65.2646 27.3519 68.9169 27.3519C71.2656 27.3519 72.7892 26.3965 73.7414 25.4707C74.664 24.5662 75.5654 23.0884 75.7643 21.1563L72.0951 20.808C72.019 21.4875 71.7693 22.4387 71.2953 23.1139C70.6224 24.0694 69.7463 24.3412 68.9211 24.3412C68.0705 24.3412 66.8685 23.9929 66.1195 22.3368C65.6709 21.3813 65.5185 20.1541 65.5185 18.4215C65.5185 16.7908 65.6666 15.6358 66.1195 14.6378C66.7458 13.279 67.6176 12.6547 68.9422 12.6547Z" fill="white"/>
<path d="M88.7292 11.1259L83.5534 19.4024C83.4052 19.6572 83.054 20.3069 82.8762 20.9609C82.9016 20.7358 83.0032 20.0054 83.0032 18.8291V9.89868H79.0039V27.1014H83.0032V25.7212L88.1748 17.4702C88.3737 17.1433 88.7038 16.4171 88.8519 15.916C88.8011 16.2133 88.7249 16.9437 88.7249 18.1497V27.1014H92.7242V9.89868H88.7249V11.1259H88.7292Z" fill="white"/>
<path d="M102.896 9.89868C101.5 9.89868 99.9 10.0516 98.5965 11.0028C97.6485 11.6992 96.6455 12.9604 96.6455 15.1134C96.6455 16.8715 97.2719 17.9501 97.8982 18.5489C98.55 19.1773 99.5445 19.602 100.323 19.8016L96.1758 27.1014H100.526L104.052 20.2305H106.4V27.1014H110.4V9.89868H102.896ZM106.396 17.2197H103.319C102.774 17.2197 101.948 17.1687 101.318 16.6676C100.721 16.1666 100.645 15.4871 100.645 15.0625C100.645 14.1325 101.017 13.6314 101.419 13.3596C101.893 13.0326 102.744 12.9095 103.37 12.9095H106.396V17.2197Z" fill="white"/>
<path d="M132.809 17.449L146.669 10.5102V3.0575L132.809 9.99632V17.449Z" fill="white"/>
<path d="M146.669 32.4817V12.0686L139.754 15.5295V32.4817H146.669Z" fill="white"/>
<defs>
<linearGradient id="paint0_linear" x1="60.5342" y1="-19.8992" x2="60.5342" y2="58.041" gradientUnits="userSpaceOnUse">
<stop stop-color="#0086FF"/>
<stop offset="0.1636" stop-color="#0077F0"/>
<stop offset="0.4807" stop-color="#004EC9"/>
<stop offset="0.9161" stop-color="#000D8B"/>
<stop offset="1" stop-color="#00007E"/>
</linearGradient>
<linearGradient id="paint1_linear" x1="142.323" y1="-32.3541" x2="142.323" y2="66.7649" gradientUnits="userSpaceOnUse">
<stop stop-color="#E60000"/>
<stop offset="0.8419" stop-color="#E00000"/>
<stop offset="1" stop-color="#BD0000"/>
</linearGradient>
</defs>
</svg>
