<svg width="117" height="43" viewBox="0 0 117 43" fill="none" xmlns="http://www.w3.org/2000/svg">
<path d="M117 0H0V43H117V0Z" fill="#81859C"/>
<path d="M0 27.1623H117" stroke="white" stroke-width="0.6458"/>
<path d="M11.9767 16.0203H15.0412C14.8996 16.742 14.9746 17.2979 15.2744 17.6878C15.6075 18.1441 16.2154 18.3764 17.0981 18.3764C17.9558 18.3764 18.5803 18.2022 18.9634 17.862C19.4048 17.5053 19.6129 17.0324 19.588 16.4351C19.5713 15.8543 19.3548 15.4644 18.9301 15.257C18.5054 15.0496 17.7559 14.7924 16.6984 14.4771C15.5825 14.2117 14.7164 13.8217 14.0835 13.3156C13.4507 12.8096 13.1426 11.955 13.1509 10.7521C13.2258 9.3251 13.7255 8.1885 14.6748 7.34227C15.1744 6.86108 15.774 6.53752 16.4735 6.355C17.1647 6.18078 17.9808 6.07293 18.9218 6.04804C19.8461 6.04804 20.6455 6.1393 21.3117 6.31352C21.9779 6.49604 22.5275 6.89427 22.9439 7.4999C23.2437 7.92301 23.4186 8.4042 23.4852 8.95176C23.5435 9.49932 23.5352 9.94732 23.4519 10.3041H20.6206C20.6705 9.89755 20.5872 9.52421 20.3707 9.17576C20.0793 8.83561 19.5547 8.66139 18.7885 8.66139C18.0391 8.66139 17.4478 8.81072 17.0314 9.1011C16.6068 9.39147 16.4069 9.78969 16.4069 10.2875C16.4069 10.8018 16.5901 11.1503 16.9648 11.3494C17.3396 11.5402 17.8892 11.7144 18.6137 11.8804C20.2042 12.2537 21.3034 12.71 21.928 13.2742C22.5525 13.83 22.869 14.6348 22.8939 15.6801C22.9272 16.3521 22.8356 17.0324 22.5858 17.7127C22.3443 18.393 21.9613 18.9738 21.4366 19.4467C20.3791 20.4505 18.9218 20.9566 17.0564 20.9566C14.883 21.0064 13.3674 20.4671 12.5263 19.3305C12.1599 18.841 11.9601 18.2769 11.9101 17.6463C11.8601 16.9909 11.8768 16.46 11.9767 16.0203Z" fill="white"/>
<path d="M43.704 12.0629H49.9245L49.4249 14.5933H43.171L42.5464 17.8703H49.8579L49.3166 20.5501H39.0156L41.7553 6.40478H51.8648L51.3235 9.14258H44.2452L43.704 12.0629Z" fill="white"/>
<path d="M75.7068 17.862L75.1655 20.5418H66.1719L68.8783 6.39648H71.9261L69.736 17.8537H75.7068V17.862Z" fill="white"/>
<path d="M97.7324 6.40478H100.797L102.854 20.5501H99.7393L99.3979 17.945H94.7762L93.4355 20.5501H90.2461L97.7324 6.40478ZM95.8504 15.5142H99.198L98.6068 10.1464L95.8504 15.5142Z" fill="white"/>
<path d="M15.548 33.8491L13.6327 38.7274H12.5834L11.9922 32.6379H12.9165L13.3162 37.5161L15.1816 32.6379H16.2308L16.4723 37.5161L18.5625 32.6379H19.5701L16.872 38.7274H15.7728L15.548 33.8491Z" fill="white"/>
<path d="M23.3102 36.952H24.2262C23.8098 38.2213 23.0104 38.8684 21.8279 38.8933C21.2034 38.9514 20.6371 38.8186 20.1291 38.5117C19.6211 38.2047 19.3547 37.5576 19.3297 36.5703C19.3214 36.2799 19.3463 35.9564 19.4046 35.5913C19.4629 35.2346 19.5462 34.8862 19.6628 34.5543C19.7794 34.2225 19.9293 33.9155 20.1125 33.6334C20.4955 33.1273 20.9036 32.7872 21.3449 32.6296C21.7863 32.4719 22.2193 32.3973 22.6357 32.4138C23.9347 32.4802 24.5843 33.202 24.5843 34.5875C24.5843 34.9027 24.551 35.3425 24.4843 35.9149H20.3456C20.2374 36.3961 20.254 36.8773 20.4039 37.3419C20.6204 37.906 21.0285 38.1798 21.628 38.1798C22.4192 38.2047 22.9771 37.7982 23.3102 36.952ZM20.4705 35.1599H23.6433C23.6766 34.9276 23.6932 34.7368 23.6932 34.5875C23.7099 33.65 23.3185 33.1771 22.5108 33.1771C21.9112 33.1356 21.4115 33.3845 21.0118 33.9155C20.7537 34.2722 20.5788 34.687 20.4705 35.1599Z" fill="white"/>
<path d="M26.6216 34.4382H25.7306C25.8305 33.874 26.1053 33.3762 26.555 32.9365C26.9381 32.6213 27.496 32.4636 28.2288 32.4636C29.0199 32.4553 29.5779 32.6544 29.911 33.061C30.1858 33.3679 30.2441 33.8325 30.0942 34.4547L29.5446 37.2672C29.4696 37.6488 29.4946 37.8646 29.6029 37.9143C29.6611 37.9475 29.7694 37.9641 29.9526 37.9641L29.811 38.7274C29.7527 38.7357 29.6195 38.7357 29.4113 38.7357C29.0782 38.7689 28.8617 38.6776 28.7701 38.4785C28.7035 38.3872 28.6702 38.2213 28.6702 37.9973C28.2288 38.5863 27.6043 38.8933 26.7882 38.9182C25.6723 38.9929 25.0811 38.5034 25.0228 37.4331C24.9811 36.5288 25.3392 35.8983 26.097 35.5499C26.3302 35.4337 26.5967 35.3425 26.9048 35.2844C27.2129 35.2263 27.5876 35.1765 28.0123 35.1516C28.5869 35.0936 28.9283 34.994 29.0532 34.8447C29.1698 34.6456 29.2281 34.3801 29.2281 34.0482C29.2614 33.4924 28.9283 33.2186 28.2288 33.2186C27.7209 33.2186 27.3295 33.3347 27.0547 33.567C26.8215 33.7993 26.6799 34.0897 26.6216 34.4382ZM28.97 35.6411C28.8867 35.7158 28.8034 35.7739 28.7285 35.7988C28.6452 35.8236 28.512 35.8485 28.3204 35.8734C28.1289 35.8983 27.8291 35.9315 27.4211 35.9813C26.9964 36.0476 26.6466 36.1638 26.3718 36.3463C26.097 36.5288 25.9555 36.8441 25.9638 37.3004C25.9804 37.8894 26.2802 38.1798 26.8548 38.1798C27.4794 38.13 27.9957 37.848 28.3871 37.3336C28.6202 36.9851 28.7784 36.5703 28.87 36.0891L28.97 35.6411Z" fill="white"/>
<path d="M34.8242 32.5383L34.6493 33.4509C34.0997 33.3679 33.5917 33.5007 33.117 33.8657C32.8256 34.1312 32.6174 34.4133 32.4925 34.7202C32.3676 35.0272 32.251 35.4254 32.1511 35.9315L31.6431 38.7274H30.7188L31.843 32.6379H32.734L32.5258 33.6251H32.5841C32.8256 33.2103 33.1587 32.9116 33.5751 32.7374C33.8915 32.5715 34.3079 32.5134 34.8242 32.5383Z" fill="white"/>
<path d="M44.4011 35.0853C44.3012 35.4337 44.1596 35.7905 43.9847 36.1555C43.8099 36.5205 43.6433 36.8192 43.4684 37.0515L44.3678 38.7274H43.2769L42.7773 37.848C42.4442 38.213 42.0861 38.4785 41.703 38.6527C41.32 38.8269 40.8786 38.9099 40.379 38.9099C39.6462 38.9016 39.1299 38.7025 38.8384 38.3043C38.5469 37.906 38.397 37.4746 38.3804 37.0183C38.3138 36.1223 38.6052 35.3756 39.2548 34.77C39.5546 34.4796 40.0292 34.1893 40.6954 33.8823C40.4123 33.285 40.279 32.7872 40.279 32.4056C40.2541 31.858 40.4039 31.3934 40.7287 31.0118C41.1201 30.5472 41.6114 30.3149 42.2193 30.3149C42.694 30.3149 43.0521 30.4393 43.2936 30.6882C43.535 30.9371 43.6516 31.2524 43.6516 31.634C43.6516 32.165 43.4768 32.6544 43.1353 33.0859C42.8522 33.4841 42.4192 33.8242 41.8529 34.1063L43.0437 36.3214C43.2602 35.9647 43.4434 35.5499 43.5767 35.077H44.4011V35.0853ZM42.4025 37.1013L41.0452 34.5709C40.5788 34.7534 40.1874 35.0272 39.871 35.3922C39.4963 35.7822 39.3131 36.2385 39.3131 36.7528C39.3464 37.5825 39.7544 38.0056 40.5372 38.0305C40.812 38.0305 41.1118 37.9724 41.4365 37.8645C41.7696 37.7484 42.0944 37.4995 42.4025 37.1013ZM41.5281 33.4592C41.9362 33.285 42.2443 33.0527 42.4525 32.7457C42.6607 32.4387 42.7689 32.1484 42.7689 31.8746C42.7856 31.6506 42.7439 31.4681 42.6357 31.327C42.5274 31.186 42.3609 31.1279 42.1444 31.1445C41.8446 31.1445 41.6031 31.2607 41.4116 31.5013C41.22 31.7418 41.1284 32.0073 41.1284 32.2977C41.1368 32.5964 41.27 32.9863 41.5281 33.4592Z" fill="white"/>
<path d="M49.9732 34.4382H49.0822C49.1821 33.874 49.4569 33.3762 49.9066 32.9365C50.2897 32.6213 50.8476 32.4636 51.5804 32.4636C52.3715 32.4553 52.9294 32.6544 53.2625 33.061C53.5373 33.3679 53.5956 33.8325 53.4457 34.4547L52.8961 37.2672C52.8212 37.6488 52.8378 37.8646 52.9544 37.9143C53.0127 37.9475 53.121 37.9641 53.3042 37.9641L53.1626 38.7274C53.1043 38.7357 52.9711 38.7357 52.7629 38.7357C52.4298 38.7689 52.2133 38.6776 52.1217 38.4785C52.0551 38.3872 52.0218 38.2213 52.0218 37.9973C51.5804 38.5863 50.9558 38.8933 50.1398 38.9182C49.0239 38.9929 48.4326 38.5034 48.3743 37.4331C48.3327 36.5288 48.6908 35.8983 49.4486 35.5499C49.6818 35.4337 49.9482 35.3425 50.2647 35.2844C50.5728 35.2263 50.9392 35.1765 51.3722 35.1516C51.9468 35.0936 52.2882 34.994 52.4131 34.8447C52.5297 34.6456 52.588 34.3801 52.588 34.0482C52.6213 33.4924 52.2882 33.2186 51.5887 33.2186C51.0808 33.2186 50.6894 33.3347 50.4146 33.567C50.1814 33.7993 50.0398 34.0897 49.9732 34.4382ZM52.3215 35.6411C52.2383 35.7158 52.155 35.7739 52.08 35.7988C51.9968 35.8236 51.8635 35.8485 51.672 35.8734C51.4805 35.8983 51.1807 35.9315 50.7726 35.9813C50.3479 36.0476 49.9982 36.1638 49.7234 36.3463C49.4403 36.5288 49.307 36.8441 49.3153 37.3004C49.332 37.8894 49.6318 38.1798 50.2064 38.1798C50.8309 38.13 51.3472 37.848 51.7386 37.3336C51.9718 36.9851 52.13 36.5703 52.2216 36.0891L52.3215 35.6411Z" fill="white"/>
<path d="M58.3185 36.5703H59.1929C59.1013 37.0847 58.9014 37.5244 58.5933 37.8894C58.1103 38.5697 57.4441 38.9099 56.5864 38.9099C55.9036 38.9348 55.3623 38.7357 54.9709 38.3291C54.5795 37.9143 54.3797 37.3004 54.3797 36.4957C54.363 35.4918 54.6212 34.5543 55.1375 33.6998C55.6871 32.837 56.4615 32.4055 57.4691 32.4055C58.3935 32.4055 59.0014 32.7125 59.3012 33.3264C59.476 33.7164 59.5426 34.1312 59.501 34.5626H58.635C58.635 33.6002 58.2436 33.1356 57.4608 33.1688C56.7863 33.1688 56.2617 33.5339 55.8703 34.2722C55.5122 34.8945 55.329 35.666 55.329 36.5786C55.329 36.9188 55.4206 37.2838 55.5955 37.6571C55.7703 38.0305 56.1284 38.213 56.678 38.2047C57.111 38.2047 57.4608 38.0554 57.7189 37.7567C57.9938 37.4497 58.1936 37.0598 58.3185 36.5703Z" fill="white"/>
<path d="M63.7287 36.5703H64.6031C64.5115 37.0847 64.3116 37.5244 64.0035 37.8894C63.5205 38.5697 62.8543 38.9099 61.9966 38.9099C61.3137 38.9348 60.7725 38.7357 60.3811 38.3291C59.9897 37.9143 59.7898 37.3004 59.7898 36.4957C59.7732 35.4918 60.0313 34.5543 60.5476 33.6998C61.0972 32.837 61.8717 32.4055 62.8793 32.4055C63.8036 32.4055 64.4115 32.7125 64.7113 33.3264C64.8862 33.7164 64.9528 34.1312 64.9195 34.5626H64.0534C64.0534 33.6002 63.6621 33.1356 62.8793 33.1688C62.2048 33.1688 61.6801 33.5339 61.2887 34.2722C60.9307 34.8945 60.7475 35.666 60.7475 36.5786C60.7475 36.9188 60.8391 37.2838 61.0139 37.6571C61.1888 38.0305 61.5469 38.213 62.0965 38.2047C62.5295 38.2047 62.8793 38.0554 63.1374 37.7567C63.4039 37.4497 63.6038 37.0598 63.7287 36.5703Z" fill="white"/>
<path d="M69.2008 36.952H70.1168C69.7004 38.2213 68.901 38.8684 67.7185 38.8933C67.094 38.9514 66.5277 38.8186 66.0197 38.5117C65.5118 38.2047 65.2453 37.5576 65.2203 36.5703C65.212 36.2799 65.237 35.9564 65.2953 35.5913C65.3452 35.2346 65.4368 34.8862 65.5534 34.5543C65.67 34.2225 65.8199 33.9155 66.0031 33.6334C66.3861 33.1273 66.7942 32.7872 67.2355 32.6296C67.6769 32.4719 68.1099 32.3973 68.5263 32.4138C69.8254 32.4802 70.4749 33.202 70.4749 34.5875C70.4749 34.9027 70.4416 35.3425 70.375 35.9149H66.2363C66.128 36.3961 66.1447 36.8773 66.2945 37.3419C66.5111 37.906 66.9191 38.1798 67.5187 38.1798C68.3181 38.2047 68.876 37.7982 69.2008 36.952ZM66.3695 35.1599H69.5422C69.5755 34.9276 69.5922 34.7368 69.5922 34.5875C69.6088 33.65 69.2175 33.1771 68.4097 33.1771C67.8101 33.1356 67.3105 33.3845 66.9108 33.9155C66.6526 34.2722 66.4694 34.687 66.3695 35.1599Z" fill="white"/>
<path d="M71.0399 36.9354H71.9643C71.906 37.176 71.9476 37.4414 72.0892 37.7318C72.3307 38.0388 72.7054 38.1881 73.1967 38.1881C73.6964 38.1881 74.0794 38.0139 74.3459 37.6571C74.5208 37.4746 74.6124 37.234 74.6124 36.9271C74.6207 36.6616 74.5541 36.4708 74.4042 36.3463C74.2626 36.2219 74.0211 36.1306 73.6797 36.0559C73.5465 36.0228 73.3716 35.9813 73.1551 35.9232C72.9386 35.8651 72.7554 35.8154 72.5971 35.749C72.4389 35.6909 72.314 35.6245 72.2224 35.5582C71.8893 35.3425 71.7228 35.0106 71.7228 34.5709C71.7061 33.9321 71.9143 33.4011 72.3556 32.9863C72.7221 32.6213 73.2717 32.4387 73.9961 32.4387C74.8289 32.4387 75.3785 32.6461 75.6533 33.0444C75.8615 33.3016 75.9531 33.6915 75.9364 34.2142H75.0287C75.0287 33.957 74.9954 33.7496 74.9205 33.5919C74.7373 33.3264 74.4375 33.1771 74.0128 33.1605C73.6381 33.1605 73.2966 33.2767 72.9969 33.5007C72.7803 33.733 72.6721 34.0067 72.6721 34.3137C72.6804 34.5294 72.747 34.6953 72.8636 34.8032C72.9885 34.9111 73.1384 34.994 73.33 35.0521C73.5132 35.1102 73.7547 35.1599 74.0461 35.218C74.5957 35.3673 74.9954 35.5333 75.2536 35.7158C75.5034 35.8983 75.6366 36.2136 75.6366 36.6616C75.6366 37.3004 75.4285 37.8314 75.0204 38.2462C74.5624 38.6527 73.9545 38.8601 73.1967 38.8767C72.3307 38.8767 71.7228 38.6527 71.3564 38.213C71.0566 37.8728 70.9566 37.4414 71.0399 36.9354Z" fill="white"/>
<path d="M76.1884 36.9354H77.1127C77.0544 37.176 77.096 37.4414 77.2376 37.7318C77.4791 38.0388 77.8538 38.1881 78.3451 38.1881C78.8448 38.1881 79.2278 38.0139 79.4943 37.6571C79.6692 37.4746 79.7608 37.234 79.7608 36.9271C79.7691 36.6616 79.7025 36.4708 79.5526 36.3463C79.4111 36.2219 79.1696 36.1306 78.8281 36.0559C78.6949 36.0228 78.52 35.9813 78.3035 35.9232C78.087 35.8651 77.9038 35.8154 77.7456 35.749C77.5874 35.6909 77.4624 35.6245 77.3708 35.5582C77.0378 35.3425 76.8712 35.0106 76.8712 34.5709C76.8545 33.9321 77.0627 33.4011 77.5041 32.9863C77.8705 32.6213 78.4201 32.4387 79.1446 32.4387C79.9773 32.4387 80.5269 32.6461 80.8017 33.0444C81.0099 33.3016 81.1015 33.6915 81.0849 34.2142H80.1772C80.1772 33.957 80.1439 33.7496 80.0689 33.5919C79.8857 33.3264 79.5859 33.1771 79.1612 33.1605C78.7865 33.1605 78.4451 33.2767 78.1453 33.5007C77.9288 33.733 77.8205 34.0067 77.8205 34.3137C77.8288 34.5294 77.8955 34.6953 78.0121 34.8032C78.137 34.9111 78.2869 34.994 78.4784 35.0521C78.6616 35.1102 78.9031 35.1599 79.1945 35.218C79.7441 35.3673 80.1439 35.5333 80.402 35.7158C80.6518 35.8983 80.7851 36.2136 80.7851 36.6616C80.7851 37.3004 80.5769 37.8314 80.1688 38.2462C79.7108 38.6527 79.1029 38.8601 78.3451 38.8767C77.4791 38.8767 76.8712 38.6527 76.5048 38.213C76.205 37.8728 76.1051 37.4414 76.1884 36.9354Z" fill="white"/>
<path d="M81.4593 35.5001C81.6259 34.6456 81.9423 33.9404 82.417 33.3928C82.9582 32.7291 83.6661 32.3973 84.5321 32.3973C84.8152 32.3807 85.1317 32.4221 85.4648 32.53C85.7979 32.6296 86.106 32.8701 86.3725 33.2518C86.6389 33.6334 86.7639 34.1976 86.7472 34.9442C86.7472 35.9398 86.4974 36.8275 85.9894 37.6157C85.6563 38.1383 85.2982 38.4951 84.9152 38.6776C84.5321 38.8601 84.0824 38.9597 83.5745 38.9763C82.8916 38.9763 82.3587 38.7689 81.9589 38.3623C81.5592 37.9558 81.3594 37.3253 81.3594 36.4791C81.3677 36.338 81.401 36.0145 81.4593 35.5001ZM82.4253 35.7988C82.392 36.0477 82.3753 36.2717 82.3753 36.4791C82.3753 37.2091 82.5169 37.6737 82.7917 37.8977C83.0665 38.1134 83.358 38.2296 83.6494 38.2296C84.3656 38.2296 84.9069 37.848 85.2816 37.093C85.5897 36.5039 85.7562 35.7822 85.7812 34.9525C85.7979 34.2142 85.6646 33.7247 85.3732 33.5007C85.0817 33.2767 84.7819 33.1605 84.4738 33.1605C83.8992 33.1605 83.4496 33.4094 83.1081 33.9072C82.7667 34.3884 82.5419 35.0272 82.4253 35.7988Z" fill="white"/>
<path d="M91.227 32.5383L91.0521 33.4509C90.5025 33.3679 89.9946 33.5007 89.5199 33.8657C89.2284 34.1312 89.0203 34.4133 88.8953 34.7202C88.7704 35.0272 88.6538 35.4254 88.5539 35.9315L88.046 38.7274H87.1133L88.2375 32.6379H89.1285L88.9203 33.6251H88.9786C89.2201 33.2103 89.5532 32.9116 89.9696 32.7374C90.2943 32.5715 90.7107 32.5134 91.227 32.5383Z" fill="white"/>
<path d="M91.9612 32.6296H92.8772L91.753 38.7191H90.8203L91.9612 32.6296ZM92.1527 31.4432L92.3442 30.3149H93.3435L93.1437 31.4432H92.1527Z" fill="white"/>
<path d="M97.3219 36.952H98.2379C97.8215 38.2213 97.0221 38.8684 95.8396 38.8933C95.2151 38.9514 94.6488 38.8186 94.1408 38.5117C93.6329 38.2047 93.3664 37.5576 93.3414 36.5703C93.3331 36.2799 93.3581 35.9564 93.4164 35.5913C93.4746 35.2346 93.5579 34.8862 93.6745 34.5543C93.7911 34.2225 93.941 33.9155 94.1242 33.6334C94.5072 33.1273 94.9153 32.7872 95.3566 32.6296C95.798 32.4719 96.231 32.3973 96.6474 32.4138C97.9465 32.4802 98.596 33.202 98.596 34.5875C98.596 34.9027 98.5627 35.3425 98.4961 35.9149H94.3573C94.2491 36.3961 94.2657 36.8773 94.4156 37.3419C94.6322 37.906 95.0402 38.1798 95.6398 38.1798C96.4392 38.2047 96.9971 37.7982 97.3219 36.952ZM94.4906 35.1599H97.655C97.6883 34.9276 97.705 34.7368 97.705 34.5875C97.7216 33.65 97.3302 33.1771 96.5225 33.1771C95.9229 33.1356 95.4233 33.3845 95.0235 33.9155C94.7737 34.2722 94.5905 34.687 94.4906 35.1599Z" fill="white"/>
<path d="M99.164 36.9354H100.088C100.03 37.176 100.072 37.4414 100.213 37.7318C100.455 38.0388 100.829 38.1881 101.321 38.1881C101.82 38.1881 102.203 38.0139 102.47 37.6571C102.645 37.4746 102.736 37.234 102.736 36.9271C102.745 36.6616 102.678 36.4708 102.528 36.3463C102.387 36.2219 102.145 36.1306 101.804 36.0559C101.671 36.0228 101.496 35.9813 101.279 35.9232C101.063 35.8651 100.879 35.8154 100.721 35.749C100.563 35.6909 100.438 35.6245 100.346 35.5582C100.013 35.3425 99.8468 35.0106 99.8468 34.5709C99.8302 33.9321 100.038 33.4011 100.48 32.9863C100.846 32.6213 101.396 32.4387 102.12 32.4387C102.953 32.4387 103.503 32.6461 103.777 33.0444C103.986 33.3016 104.077 33.6915 104.06 34.2142H103.153C103.153 33.957 103.119 33.7496 103.045 33.5919C102.861 33.3264 102.562 33.1771 102.137 33.1605C101.762 33.1605 101.421 33.2767 101.121 33.5007C100.904 33.733 100.796 34.0067 100.796 34.3137C100.804 34.5294 100.871 34.6953 100.988 34.8032C101.113 34.9111 101.262 34.994 101.454 35.0521C101.637 35.1102 101.879 35.1599 102.17 35.218C102.72 35.3673 103.119 35.5333 103.378 35.7158C103.627 35.8983 103.761 36.2136 103.761 36.6616C103.761 37.3004 103.553 37.8314 103.144 38.2462C102.686 38.6527 102.079 38.8601 101.321 38.8767C100.455 38.8767 99.8468 38.6527 99.4804 38.213C99.1889 37.8728 99.0807 37.4414 99.164 36.9354Z" fill="white"/>
</svg>
