<svg width="161" height="37" viewBox="0 0 161 37" fill="none" xmlns="http://www.w3.org/2000/svg">
<path d="M121.066 0H0V37H121.066V0Z" fill="#81859C"/>
<path d="M161.001 0H123.645V36.8684H161.001V0Z" fill="#E5E5E5"/>
<path d="M21.7468 10.8753C20.2698 9.94534 18.5474 9.89862 17.0239 9.89862H10.6758V27.1013H14.6751V20.5319H17.5486C19.0722 20.5319 21.2221 20.5532 22.8979 18.4469C23.7232 17.3937 24.0237 16.2684 24.0237 15.1091C24.0194 12.7565 22.7456 11.4996 21.7468 10.8753ZM19.3219 16.8927C18.6701 17.4957 17.7983 17.5211 17.1974 17.5211H14.6708V12.9052H17.2736C17.9211 12.9052 18.7717 12.9816 19.3684 13.5337C19.7959 13.9328 20.0202 14.5358 20.0202 15.1898C20.0202 15.814 19.7705 16.468 19.3219 16.8927Z" fill="white"/>
<path d="M33.9344 9.64389C32.5082 9.64389 30.6123 9.91991 28.9618 11.402C27.434 12.7821 26.2109 15.1899 26.2109 18.4979C26.2109 21.4068 27.1631 23.891 28.784 25.4155C29.7574 26.3412 31.4333 27.3477 33.9344 27.3477C36.4313 27.3477 38.1072 26.3412 39.0848 25.4197C40.7057 23.891 41.6579 21.4068 41.6579 18.4979C41.6579 15.1899 40.4349 12.7778 38.9071 11.402C37.2566 9.91991 35.3564 9.64389 33.9344 9.64389ZM36.4567 22.8124C35.9785 23.5895 35.1575 24.3411 33.9302 24.3411C32.7071 24.3411 31.8819 23.5895 31.4079 22.8124C31.0566 22.2348 30.5065 21.0076 30.5065 18.4469C30.5065 15.8905 31.0778 14.6845 31.4079 14.1537C32.1316 13.0029 33.0076 12.6547 33.9302 12.6547C34.857 12.6547 35.7288 13.0071 36.4567 14.1537C36.7826 14.6803 37.3539 15.8863 37.3539 18.4469C37.3582 21.0076 36.808 22.2348 36.4567 22.8124Z" fill="white"/>
<path d="M51.9777 12.6547C53.15 12.6547 53.8991 13.1048 54.4746 14.1537C54.8259 14.7822 55.0036 15.5338 55.0502 16.209L58.7998 15.9118C58.6009 13.2747 57.1493 11.7756 56.8488 11.4741C55.2999 9.94539 53.3024 9.64389 51.9777 9.64389C50.6785 9.64389 48.554 9.81799 46.7258 11.6482C45.2784 13.1048 44.25 15.5338 44.25 18.4724C44.25 20.2008 44.6478 22.2603 45.4985 23.7381C46.3491 25.2202 48.3001 27.3477 51.9481 27.3477C54.2969 27.3477 55.8204 26.3964 56.7726 25.4707C57.6952 24.5662 58.5967 23.0884 58.7956 21.1562L55.1264 20.808C55.0502 21.4875 54.8005 22.4387 54.3265 23.1139C53.6536 24.0693 52.7776 24.3411 51.9523 24.3411C51.1017 24.3411 49.904 23.9929 49.1507 22.3368C48.7021 21.3813 48.5498 20.154 48.5498 18.4215C48.5498 16.7908 48.7021 15.6357 49.1507 14.6378C49.7728 13.2789 50.6489 12.6547 51.9777 12.6547Z" fill="white"/>
<path d="M68.9422 12.6547C70.1145 12.6547 70.8636 13.1048 71.4434 14.1537C71.7947 14.7822 71.9682 15.5381 72.019 16.209L75.7643 15.9118C75.5654 13.2747 74.1181 11.7756 73.8176 11.4741C72.2686 9.94539 70.2669 9.64389 68.9422 9.64389C67.6388 9.64389 65.5185 9.81799 63.6945 11.6482C62.2471 13.1048 61.2188 15.5338 61.2188 18.4724C61.2188 20.2008 61.6208 22.2603 62.4672 23.7381C63.3179 25.2202 65.2646 27.3519 68.9169 27.3519C71.2656 27.3519 72.7892 26.3964 73.7414 25.4707C74.664 24.5662 75.5654 23.0884 75.7643 21.1562L72.0951 20.808C72.019 21.4875 71.7693 22.4387 71.2953 23.1139C70.6224 24.0693 69.7463 24.3411 68.9211 24.3411C68.0705 24.3411 66.8685 23.9929 66.1195 22.3368C65.6709 21.3813 65.5185 20.154 65.5185 18.4215C65.5185 16.7908 65.6666 15.6357 66.1195 14.6378C66.7458 13.2789 67.6176 12.6547 68.9422 12.6547Z" fill="white"/>
<path d="M88.7292 11.1259L83.5534 19.4024C83.4052 19.6571 83.054 20.3069 82.8762 20.9608C82.9016 20.7358 83.0032 20.0054 83.0032 18.8291V9.89862H79.0039V27.1013H83.0032V25.7212L88.1748 17.4702C88.3737 17.1432 88.7038 16.417 88.8519 15.916C88.8011 16.2132 88.7249 16.9436 88.7249 18.1496V27.1013H92.7242V9.89862H88.7249V11.1259H88.7292Z" fill="white"/>
<path d="M102.896 9.89862C101.5 9.89862 99.9 10.0515 98.5965 11.0027C97.6485 11.6992 96.6455 12.9604 96.6455 15.1134C96.6455 16.8714 97.2719 17.95 97.8982 18.5488C98.55 19.1773 99.5445 19.6019 100.323 19.8015L96.1758 27.1013H100.526L104.052 20.2304H106.4V27.1013H110.4V9.89862H102.896ZM106.396 17.2196H103.319C102.774 17.2196 101.948 17.1687 101.318 16.6676C100.721 16.1665 100.645 15.4871 100.645 15.0624C100.645 14.1324 101.017 13.6313 101.419 13.3595C101.893 13.0326 102.744 12.9094 103.37 12.9094H106.396V17.2196Z" fill="white"/>
<path d="M132.809 17.449L146.669 10.5102V3.05753L132.809 9.99635V17.449Z" fill="white"/>
<path d="M146.669 32.4817V12.0687L139.754 15.5296V32.4817H146.669Z" fill="white"/>
</svg>
