<svg width="69" height="60" viewBox="0 0 69 60" fill="none" xmlns="http://www.w3.org/2000/svg">
<path d="M2.3634 50.493L4.62832 56.2291L6.81939 50.493H9.08432L5.57615 59.1341H3.63127L0 50.493H2.3634Z" fill="#81859C"/>
<path d="M9.8012 52.3638C10.1951 51.6252 10.7244 51.0836 11.3645 50.7636C12.0046 50.4435 12.6816 50.2835 13.3709 50.2835C14.3434 50.2835 15.1558 50.542 15.8205 51.0713C16.4852 51.5883 16.9283 52.1915 17.1499 52.9054C17.3838 53.644 17.5069 54.2717 17.5069 54.7887C17.5069 55.6627 17.3099 56.4751 16.916 57.2383C16.6206 57.8168 16.2267 58.2846 15.7466 58.617C15.2666 58.9493 14.8111 59.1586 14.3926 59.2447C13.9741 59.3186 13.6294 59.3678 13.3709 59.3678C12.6816 59.3678 12.0661 59.2324 11.5491 58.9739C11.0321 58.7154 10.6013 58.3585 10.2566 57.9276C9.91198 57.4968 9.65348 57.0167 9.48115 56.4751C9.30882 55.9335 9.22266 55.3796 9.22266 54.8134C9.22266 53.9025 9.41961 53.1024 9.8012 52.3638ZM11.5368 55.8104C11.623 56.1305 11.7461 56.4136 11.9061 56.6475C12.0661 56.8813 12.2754 57.0783 12.5216 57.2137C12.7678 57.3491 13.0509 57.4229 13.3709 57.4229H13.4817C13.8264 57.4229 14.1095 57.3368 14.3434 57.1521C14.6019 56.9429 14.7988 56.6967 14.9588 56.4136C15.1065 56.1305 15.2173 55.835 15.2789 55.5273C15.3158 55.3057 15.3404 55.1211 15.3404 54.9611C15.3404 54.8995 15.3404 54.838 15.3281 54.7887C15.3281 54.1363 15.1927 53.5947 14.9219 53.1516C14.6511 52.7085 14.368 52.4376 14.0602 52.3146C13.7771 52.2038 13.5679 52.1545 13.4078 52.1668H13.3586C12.8539 52.1668 12.4354 52.3515 12.103 52.7085C11.8322 53.0039 11.6476 53.3362 11.5491 53.7055C11.4507 54.0748 11.4014 54.4318 11.4014 54.7887C11.4014 55.1457 11.4507 55.4904 11.5368 55.8104Z" fill="#81859C"/>
<path d="M19.1672 52.3642C19.438 51.7979 19.8196 51.3671 20.312 51.0471C20.8043 50.727 21.2598 50.5178 21.6906 50.4193C22.0845 50.3208 22.4046 50.2839 22.6507 50.2839H22.7246C23.1431 50.2839 23.6355 50.37 24.2017 50.5424V47.1819H26.4051V59.1466H24.3741L24.2879 58.4819C24.0786 58.7158 23.8078 58.9128 23.4755 59.0851C23.1431 59.2574 22.7492 59.3436 22.2938 59.3436C21.7029 59.3436 21.1736 59.2205 20.7182 58.962C20.2627 58.7035 19.8811 58.3711 19.5734 57.9526C19.2657 57.5341 19.0318 57.0417 18.8718 56.5001C18.7117 55.9462 18.6256 55.38 18.6256 54.7768C18.6133 53.8536 18.7979 53.0535 19.1672 52.3642ZM20.9028 55.7615C20.9767 56.0939 21.0998 56.377 21.2598 56.6232C21.4198 56.8694 21.6291 57.0663 21.8753 57.2141C22.1214 57.3618 22.4169 57.4356 22.7492 57.4356C23.02 57.4356 23.3031 57.3618 23.5863 57.2141C23.8694 57.0663 24.0786 56.894 24.2017 56.6848V52.4134C23.734 52.2411 23.3278 52.1549 22.9954 52.1549C22.3799 52.1549 21.8753 52.3519 21.4937 52.7581C21.1244 53.152 20.9028 53.5459 20.8413 53.9275C20.792 54.1983 20.7674 54.4198 20.7674 54.5798C20.7674 54.6291 20.7674 54.6783 20.7797 54.7153C20.7797 55.0845 20.8166 55.4292 20.9028 55.7615Z" fill="#81859C"/>
<path d="M27.9294 55.3798C28.1264 55.0351 28.3849 54.752 28.7049 54.5181C29.025 54.2842 29.3696 54.0996 29.7266 53.9765C30.0836 53.8534 30.4282 53.7672 30.7236 53.7303C30.896 53.7057 31.4868 53.6318 32.5208 53.5087V53.3856C32.5208 52.9056 32.3977 52.5609 32.1515 52.364C31.9053 52.167 31.573 52.0562 31.1299 52.0562C30.699 52.0562 30.2805 52.1547 29.8866 52.3394C29.4927 52.524 29.1973 52.7086 28.988 52.881L28.2495 51.3177C28.4956 51.0715 28.9634 50.8253 29.6527 50.6037C30.3667 50.3699 30.9821 50.2591 31.4991 50.2591C32.0531 50.2591 32.5331 50.3452 32.9393 50.5176C33.3455 50.6899 33.6902 50.9238 33.961 51.2315C34.2318 51.5392 34.4288 51.8839 34.5519 52.2901C34.675 52.6963 34.7365 53.1148 34.7365 53.5703V59.1341H32.6808L32.5947 58.4817C32.3608 58.7402 32.0531 58.9495 31.6838 59.1095C31.3145 59.2572 30.9083 59.3434 30.4651 59.3434C30.0959 59.3434 29.7389 59.2818 29.4065 59.1587C29.0619 59.0356 28.7665 58.851 28.4956 58.6171C28.2372 58.3833 28.0156 58.1001 27.8556 57.7555C27.6955 57.4108 27.6094 57.0292 27.6094 56.5984C27.634 56.1306 27.7325 55.7244 27.9294 55.3798ZM30.1205 57.2385C30.3297 57.4108 30.6252 57.497 31.0191 57.497C31.3022 57.497 31.5853 57.4354 31.8561 57.3123C32.1269 57.1892 32.3608 57.0415 32.5454 56.8569V55.0967C31.8192 55.1828 31.3268 55.2444 31.0929 55.2813C30.6129 55.3798 30.2805 55.5398 30.0959 55.7737C29.9112 56.0075 29.8128 56.266 29.8128 56.5368C29.8004 56.8323 29.8989 57.0538 30.1205 57.2385Z" fill="#81859C"/>
<path d="M35.9336 50.4931H37.0784V50.0253C37.0784 49.1883 37.2507 48.5236 37.5954 48.0312C37.9277 47.5265 38.3216 47.2311 38.7771 47.1203C39.2079 47.0095 39.5895 46.9479 39.9218 46.9356C40.4634 46.9356 40.9066 46.9849 41.2636 47.0834C41.6205 47.1818 41.8298 47.2557 41.8913 47.2926L41.6328 49.139C41.559 49.1021 41.4236 49.0529 41.2143 48.9913C41.0051 48.9298 40.7219 48.8928 40.3773 48.8928C40.0695 48.8928 39.811 48.979 39.6018 49.1636C39.3925 49.3483 39.2817 49.6437 39.2817 50.0745V50.4807H41.1528V52.2779H39.3064V59.1342H37.0784V52.2779H35.9336V50.4931Z" fill="#81859C"/>
<path d="M42.1449 52.3638C42.5388 51.6252 43.0681 51.0836 43.7082 50.7636C44.3483 50.4435 45.0253 50.2835 45.7147 50.2835C46.6871 50.2835 47.4995 50.542 48.1642 51.0713C48.8289 51.5883 49.2721 52.1915 49.4936 52.9054C49.7275 53.644 49.8506 54.2717 49.8506 54.7887C49.8506 55.6627 49.6537 56.4751 49.2598 57.2383C48.9643 57.8168 48.5704 58.2846 48.0904 58.617C47.6103 58.9493 47.1549 59.1586 46.7363 59.2447C46.3178 59.3186 45.9732 59.3678 45.7147 59.3678C45.0253 59.3678 44.4099 59.2324 43.8929 58.9739C43.3759 58.7154 42.9451 58.3585 42.6004 57.9276C42.2557 57.4968 41.9972 57.0167 41.8249 56.4751C41.6526 55.9335 41.5664 55.3796 41.5664 54.8134C41.5787 53.9025 41.7634 53.1024 42.1449 52.3638ZM43.8929 55.8104C43.979 56.1305 44.1021 56.4136 44.2622 56.6475C44.4222 56.8813 44.6314 57.0783 44.8776 57.2137C45.1238 57.3491 45.4069 57.4229 45.727 57.4229H45.8378C46.1824 57.4229 46.4655 57.3368 46.6994 57.1521C46.9579 56.9429 47.1549 56.6967 47.3149 56.4136C47.4749 56.1305 47.5734 55.835 47.6349 55.5273C47.6719 55.3057 47.6965 55.1211 47.6965 54.9611C47.6965 54.8995 47.6965 54.838 47.6842 54.7887C47.6842 54.1363 47.5488 53.5947 47.278 53.1516C47.0071 52.7085 46.724 52.4376 46.4163 52.3146C46.1332 52.2038 45.9239 52.1545 45.7639 52.1668H45.7147C45.21 52.1668 44.7915 52.3515 44.4591 52.7085C44.1883 53.0039 44.0037 53.3362 43.9052 53.7055C43.8067 54.0748 43.7575 54.4318 43.7575 54.7887C43.7575 55.1457 43.8067 55.4904 43.8929 55.8104Z" fill="#81859C"/>
<path d="M51.1418 50.4928H53.1605L53.2713 51.1821C53.616 50.899 54.0099 50.6774 54.4407 50.5174C54.8839 50.3574 55.3147 50.2835 55.7578 50.2835C56.4471 50.2835 57.0503 50.4435 57.5304 50.7513C58.0227 51.059 58.3674 51.5268 58.5644 52.1299C58.7613 52.7331 58.8598 53.3732 58.8598 54.0379V59.1586H56.6318V54.2225C56.6318 53.5578 56.4964 53.0531 56.2256 52.6961C55.9548 52.3392 55.5732 52.1545 55.0685 52.1545C54.7238 52.1545 54.4038 52.2407 54.1084 52.4253C53.8129 52.61 53.5544 52.8069 53.3452 53.0162V59.1463H51.1172V50.4928H51.1418Z" fill="#81859C"/>
<path d="M60.4841 52.881C60.6934 52.3148 60.9765 51.847 61.3458 51.4654C61.715 51.0838 62.1336 50.7884 62.6259 50.5792C63.106 50.3699 63.623 50.2714 64.1769 50.2714C65.1494 50.2714 65.9372 50.5422 66.5526 51.0715C67.1681 51.6131 67.5743 52.2409 67.7466 52.9795C67.9313 53.6934 68.0174 54.3581 68.0174 54.9736V55.3675H62.4167C62.4659 56.0938 62.6875 56.6231 63.0937 56.9431C63.4999 57.2632 64.0292 57.4232 64.6693 57.4232C65.2355 57.4232 65.7402 57.337 66.171 57.1524C66.6019 56.98 66.8973 56.8077 67.0573 56.6477L67.6482 58.4572C67.3897 58.6541 67.1312 58.7895 66.8973 58.8634C66.7496 58.9372 66.3926 59.0234 65.8387 59.1342C65.2848 59.2573 64.8047 59.3188 64.3616 59.3188C63.7953 59.3188 63.266 59.2327 62.749 59.048C62.232 58.8634 61.7889 58.5926 61.4073 58.211C61.0257 57.8294 60.718 57.3616 60.4964 56.8077C60.2748 56.2415 60.1641 55.5768 60.1641 54.789C60.1764 54.0873 60.2748 53.4349 60.4841 52.881ZM65.7525 53.7796C65.7156 53.2872 65.5802 52.9179 65.3217 52.6471C65.0755 52.3886 64.8416 52.2163 64.6078 52.1548C64.3862 52.0932 64.2385 52.0563 64.1523 52.0563C63.7707 52.0563 63.4014 52.204 63.0568 52.4871C62.7121 52.7702 62.5152 53.2011 62.4536 53.7796H65.7525Z" fill="#81859C"/>
<path d="M43.4146 2.04336C39.5987 2.58497 36.6445 6.14238 36.5706 10.4753C41.8514 11.4477 45.8396 14.9928 45.8396 21.3198C45.8396 27.4253 40.7681 32.3613 34.4288 32.3613C28.1264 32.3737 23.018 26.8344 23.018 19.6581C23.018 9.76133 31.8069 1.55098 42.9223 1.80948C40.325 0.652397 37.4569 0 34.4288 0C22.9811 0 13.6875 9.28127 13.6875 20.7413C13.6875 32.2013 22.9811 41.4826 34.4288 41.4826C45.8765 41.4826 55.1701 32.2013 55.1701 20.7413C55.1701 12.5063 50.3694 5.39151 43.4146 2.04336Z" fill="#81859C"/>
</svg>
