<svg width="211" height="32" viewBox="0 0 211 32" fill="none" xmlns="http://www.w3.org/2000/svg">
<path fill-rule="evenodd" clip-rule="evenodd" d="M9.47381 0.666687H0L10.8857 15.9386L0 31.263H9.47381L20.3633 15.9386L9.47381 0.666687Z" fill="#E5E5E5"/>
<path d="M21.5101 7.51122H26.0582L29.5553 13.2083L33.174 7.51122H37.4667L31.7545 16.023L37.966 25.3463H33.2963L29.4048 19.1751L25.4328 25.3463H21.0352L27.2588 15.9994L21.5101 7.51122Z" fill="#81859C"/>
<path d="M43.0703 10.4574L42.372 14.4332L42.4244 14.4819C42.9115 13.9993 43.4267 13.6498 43.9746 13.4431C44.5225 13.2311 45.1472 13.1308 45.8448 13.1308C46.7133 13.1308 47.4793 13.2888 48.145 13.6049C48.8099 13.9218 49.3746 14.3436 49.8328 14.8747C50.291 15.4059 50.6406 16.0306 50.883 16.7578C51.1269 17.4805 51.2485 18.2465 51.2485 19.0619C51.2485 19.9669 51.0699 20.7983 50.7211 21.5658C50.3731 22.3409 49.8974 23.0134 49.3092 23.578C48.7127 24.1457 48.0272 24.5758 47.2483 24.8835C46.4618 25.1928 45.6335 25.3387 44.749 25.322C43.8971 25.322 43.0855 25.2088 42.3112 24.9823C41.5399 24.7589 40.8544 24.4132 40.2541 23.9511C39.653 23.4807 39.175 22.9055 38.8179 22.2147C38.4607 21.5255 38.2738 20.7215 38.2578 19.8051H41.8043C41.8856 20.6045 42.185 21.2413 42.7048 21.7109C43.2162 22.1866 43.8736 22.426 44.673 22.426C45.1396 22.426 45.5613 22.3318 45.9306 22.1418C46.3076 21.9503 46.6244 21.7033 46.8836 21.3948C47.1389 21.087 47.338 20.7299 47.4801 20.3241C47.626 19.9145 47.6951 19.4958 47.6951 19.0664C47.6951 18.6204 47.626 18.1948 47.4915 17.7974C47.3623 17.403 47.1594 17.0549 46.8957 16.7548C46.6275 16.4538 46.3152 16.219 45.942 16.0572C45.5773 15.89 45.1555 15.8132 44.6722 15.8132C44.0392 15.8132 43.524 15.9189 43.1266 16.1461C42.7208 16.3733 42.3477 16.7229 41.9989 17.2092H38.8057L40.5299 7.53629H50.3001V10.4581H43.0703" fill="#81859C"/>
<path d="M62.6487 7.51122C63.3783 7.51122 64.0728 7.59709 64.7339 7.78402C65.3867 7.96564 65.9627 8.24149 66.4544 8.62297C66.9453 8.99684 67.3351 9.47863 67.6269 10.0676C67.9149 10.6595 68.0654 11.3579 68.0654 12.1611C68.0654 13.2926 67.7736 14.279 67.1892 15.1058C66.6041 15.9386 65.7439 16.469 64.5926 16.7046V16.7578C65.177 16.8422 65.6595 16.9934 66.0448 17.2168C66.4263 17.4433 66.7424 17.7275 66.9863 18.077C67.2257 18.4342 67.3997 18.8316 67.5091 19.2944C67.6186 19.7488 67.6877 20.2435 67.7242 20.7747C67.7402 21.0749 67.7569 21.4404 67.7728 21.8743C67.7888 22.309 67.8207 22.7429 67.8739 23.1859C67.918 23.6274 68.0031 24.0454 68.1133 24.4306C68.2189 24.8281 68.3648 25.1282 68.5472 25.3479H66.6641C66.5631 25.1776 66.4855 24.9747 66.4247 24.7354C66.3678 24.496 66.3275 24.2437 66.3032 23.9853C66.2788 23.7292 66.2545 23.4739 66.2386 23.2224C66.2219 22.9701 66.2059 22.7596 66.1854 22.5727C66.1527 21.9442 66.1041 21.315 66.0273 20.6904C65.9498 20.0695 65.7917 19.514 65.5486 19.0224C65.3092 18.5276 64.9604 18.1386 64.5022 17.8377C64.047 17.5329 63.4185 17.403 62.6199 17.4357H56.1925V25.3471H54.4805V7.51198H62.6487V7.51122ZM62.5188 15.9751C63.034 15.9751 63.5287 15.8976 63.9915 15.7395C64.4581 15.5815 64.8677 15.3497 65.2165 15.0533C65.5653 14.757 65.8419 14.3877 66.0524 13.9697C66.2553 13.5487 66.3571 13.0616 66.3571 12.5099C66.3571 11.4111 66.044 10.5463 65.4118 9.9133C64.7826 9.28029 63.8213 8.96721 62.5188 8.96721H56.1933V15.9743H62.5188V15.9751Z" fill="#81859C"/>
<path d="M82.9511 7.51122V8.96797H72.342V15.39H82.2778V16.8513H72.342V23.8858H83.0765V25.3463H70.6367V7.51122H82.9511Z" fill="#81859C"/>
<path d="M98.138 7.51122V8.96797H91.9189V25.3463H90.2182V8.96797H84.0234V7.51122H98.138Z" fill="#81859C"/>
<path d="M104.427 7.51122L111.414 25.3463H109.596L107.422 19.7959H99.3065L97.1605 25.3463H95.3633L102.528 7.51122H104.427ZM106.85 18.3369L103.402 9.19594L99.8354 18.3369H106.85Z" fill="#81859C"/>
<path d="M114.865 7.50362H113.16V25.3463H114.865V7.50362Z" fill="#81859C"/>
<path d="M120.283 7.51122V23.8858H130.272V25.3463H118.578V7.51122H120.283Z" fill="#81859C"/>
<path d="M140.342 26.0219C138.945 26.0219 137.696 25.7734 136.601 25.2559C135.522 24.7475 134.608 24.0621 133.882 23.1836C133.159 22.3173 132.615 21.293 132.249 20.1333C131.88 18.9745 131.699 17.7358 131.699 16.4318C131.699 15.1004 131.898 13.8595 132.289 12.6885C132.688 11.5175 133.258 10.4931 133.997 9.62984C134.74 8.75366 135.65 8.06442 136.716 7.56668C137.788 7.06742 139.006 6.81665 140.358 6.81665C141.384 6.81665 142.335 6.96407 143.21 7.25512C144.083 7.5492 144.854 7.97172 145.523 8.51353C146.186 9.06295 146.736 9.71723 147.157 10.4764C147.587 11.2401 147.874 12.1018 148.033 13.038L148.09 13.3724H147.75H147.006L146.964 13.1346C146.823 12.3389 146.564 11.6254 146.192 10.9741C145.815 10.3274 145.352 9.7803 144.785 9.32436C144.22 8.86461 143.568 8.51201 142.823 8.262C142.085 8.01275 141.26 7.89116 140.356 7.89116C139.143 7.89116 138.076 8.11458 137.146 8.55989C136.205 9.00975 135.417 9.61844 134.772 10.3837C134.122 11.1542 133.625 12.054 133.286 13.0943C132.946 14.1338 132.778 15.2501 132.778 16.4326C132.778 17.6226 132.942 18.7419 133.268 19.7868C133.587 20.8233 134.067 21.7307 134.708 22.4944C135.341 23.2543 136.141 23.8622 137.092 24.3159C138.038 24.7574 139.143 24.9869 140.422 24.9869C141.377 24.9869 142.259 24.8227 143.082 24.4945C143.917 24.1654 144.645 23.708 145.252 23.1297C145.865 22.5529 146.341 21.8614 146.696 21.0543C147.044 20.2473 147.219 19.378 147.219 18.4334V17.7951H140.307V17.5094V17.0131V16.7267H148.302V25.6252H148.015H147.218L147.226 22.2223C146.704 23.2269 145.966 24.0552 145.026 24.6981C143.722 25.5842 142.158 26.0219 140.354 26.0219C140.352 26.0219 140.348 26.0219 140.342 26.0219Z" fill="#81859C"/>
<path d="M150.04 25.6321H149.754V7.23157H157.354C159.26 7.23385 160.698 7.59784 161.65 8.41171C162.599 9.21874 163.065 10.4665 163.106 12.0828C163.109 12.1398 163.109 12.1961 163.109 12.2531C163.109 13.4324 162.765 14.4446 162.08 15.254C161.561 15.8695 160.878 16.3376 160.048 16.659C160.38 16.7555 160.677 16.8741 160.941 17.0169C161.446 17.2951 161.846 17.6674 162.121 18.134C162.389 18.5854 162.571 19.1151 162.66 19.7169C162.739 20.3013 162.78 20.9457 162.78 21.6798C162.78 21.9108 162.796 22.2269 162.809 22.6C162.825 22.9708 162.852 23.3371 162.882 23.6966C162.919 24.0575 162.957 24.3812 163.004 24.6776C163.048 24.958 163.117 25.1366 163.154 25.1799L163.485 25.6343H162.922H162.193L162.116 25.4732C162.007 25.2498 161.936 24.9839 161.878 24.651C161.83 24.3395 161.789 23.9975 161.767 23.6403C161.745 23.2877 161.72 22.9351 161.714 22.5719C161.706 22.2079 161.699 21.8895 161.699 21.5992C161.699 20.8811 161.649 20.2428 161.541 19.6873C161.44 19.1561 161.241 18.7245 160.949 18.3734C160.654 18.0307 160.222 17.7525 159.654 17.558C159.076 17.3657 158.282 17.2601 157.271 17.2601H150.839V25.6336H150.551H150.04V25.6321ZM157.225 16.1985C157.869 16.1985 158.476 16.1165 159.066 15.9515C159.637 15.7996 160.143 15.5526 160.574 15.2076C161.01 14.8687 161.354 14.4484 161.624 13.918C161.881 13.4096 162.015 12.7896 162.015 12.0418C161.996 10.8297 161.641 9.94217 160.957 9.28713C160.291 8.6564 159.14 8.30836 157.481 8.30988L150.839 8.30836V16.1993H157.225V16.1985Z" fill="#81859C"/>
<path d="M168.805 25.2552C167.747 24.7445 166.852 24.0507 166.137 23.1692C165.426 22.2877 164.882 21.2664 164.513 20.0992C164.148 18.9426 163.957 17.7146 163.957 16.4219C163.957 15.1271 164.148 13.896 164.513 12.7409C164.881 11.5722 165.426 10.5524 166.137 9.67241C166.852 8.78864 167.747 8.08876 168.803 7.5781C169.874 7.05376 171.096 6.79387 172.46 6.79387C173.831 6.79387 175.052 7.05376 176.117 7.5781C177.176 8.08876 178.073 8.7894 178.789 9.67241C179.502 10.5524 180.046 11.5722 180.415 12.7387C180.781 13.896 180.965 15.1271 180.965 16.4219C180.965 17.713 180.781 18.9395 180.415 20.0992C180.047 21.2664 179.502 22.2877 178.789 23.1692C178.074 24.0507 177.176 24.7445 176.117 25.2552C175.051 25.7719 173.831 26.0234 172.46 26.0234C171.098 26.0234 169.876 25.7719 168.805 25.2552ZM167.06 22.597C167.69 23.347 168.459 23.9352 169.37 24.3623C170.273 24.7817 171.299 24.993 172.46 24.993C173.626 24.993 174.653 24.7825 175.559 24.3645C176.469 23.9352 177.235 23.347 177.866 22.5993C178.49 21.8492 178.984 20.9495 179.331 19.9023C179.679 18.8415 179.862 17.6963 179.878 16.444C179.862 15.1924 179.679 14.0419 179.331 12.9879C178.984 11.94 178.49 11.0357 177.866 10.2834C177.235 9.53791 176.469 8.95354 175.559 8.52419C174.653 8.10092 173.626 7.88966 172.46 7.88966C171.299 7.88966 170.273 8.10092 169.371 8.52419C168.456 8.95354 167.69 9.53411 167.06 10.2834C166.431 11.0357 165.941 11.94 165.59 12.9879C165.247 14.0396 165.065 15.1924 165.049 16.4371C165.065 17.6956 165.247 18.8407 165.59 19.9008V19.9001C165.941 20.9495 166.431 21.8492 167.06 22.597Z" fill="#81859C"/>
<path d="M195.88 7.22322H196.167V18.6941C196.167 21.1304 195.598 22.9853 194.411 24.2065C193.231 25.4269 191.519 26.0234 189.344 26.0234C189.339 26.0234 189.335 26.0234 189.332 26.0234C187.148 26.0257 185.437 25.4292 184.256 24.2065C183.065 22.9853 182.5 21.1304 182.5 18.6941V7.22322H182.788H183.583V18.6941C183.585 20.8021 184.064 22.3523 184.981 23.3964C185.893 24.4276 187.317 24.9671 189.332 24.9702C191.346 24.9671 192.768 24.4276 193.681 23.3964C194.596 22.3508 195.083 20.8013 195.083 18.6941V7.22322H195.369H195.88Z" fill="#81859C"/>
<path d="M198.058 25.6321H197.77V7.23917H205.29C207.047 7.23917 208.453 7.66092 209.474 8.53633C210.491 9.41707 211.003 10.7256 211 12.3967C211 13.2151 210.848 13.9515 210.549 14.6019C210.248 15.2464 209.83 15.7912 209.293 16.2297C208.763 16.6613 208.13 16.9873 207.41 17.2024C206.689 17.4235 205.892 17.5268 205.039 17.5268H198.854V25.6328H198.567H198.058V25.6321ZM205.284 16.4417C205.955 16.4417 206.575 16.3535 207.143 16.1704C207.712 15.9903 208.194 15.7281 208.608 15.3778C209.015 15.0336 209.332 14.6095 209.567 14.1148C209.797 13.6239 209.915 13.0517 209.915 12.3876C209.912 11.0266 209.533 10.0349 208.791 9.35172C208.061 8.67388 206.907 8.30988 205.284 8.30988L198.853 8.30836V16.4425H205.284V16.4417Z" fill="#81859C"/>
</svg>
