<svg width="136" height="39" viewBox="0 0 136 39" fill="none" xmlns="http://www.w3.org/2000/svg">
<path d="M106.67 29.5726C105.922 28.024 104.664 26.7796 103.108 26.0479C101.539 25.275 99.8467 24.7842 98.108 24.598C98.7757 24.436 99.4249 24.2057 100.045 23.9106C100.934 23.5254 101.707 22.9164 102.29 22.1431C102.872 21.3698 103.245 20.4586 103.37 19.4984C103.378 18.4367 103.073 17.3961 102.493 16.5068C101.912 15.6175 101.083 14.9191 100.108 14.4988C99.0916 13.9663 97.9772 13.6473 96.8331 13.5614C93.5084 13.3489 81.2344 13.4364 80.9844 13.4239C81.687 13.8002 82.2626 14.3761 82.6385 15.079C83.0144 15.7818 83.1738 16.5803 83.0967 17.3736C83.0967 22.5732 83.0967 27.9852 83.0092 33.1848C83.0092 35.0472 83.2217 37.222 81.0469 38.3469C86.9089 38.3469 92.6834 38.5219 98.433 38.2594C100.344 38.3453 102.24 37.8812 103.895 36.922C106.807 35.0347 107.77 31.9349 106.67 29.5726ZM87.1714 15.0738C89.7656 14.9097 92.3684 14.939 94.9582 15.1613C96.0206 15.2626 96.9993 15.7816 97.679 16.6043C98.3587 17.427 98.6839 18.486 98.583 19.5484C98.6416 20.0733 98.5923 20.6047 98.4381 21.1099C98.2839 21.6151 98.028 22.0834 97.6862 22.4861C97.3444 22.8887 96.9239 23.2173 96.4504 23.4515C95.977 23.6857 95.4607 23.8207 94.9333 23.8481C92.3616 24.1459 89.7702 24.2378 87.1839 24.1231C87.1589 20.9233 87.1714 15.0738 87.1714 15.0738ZM101.783 31.8974C101.595 34.5847 100.158 36.5221 97.458 36.897C94.5488 37.147 91.6276 37.2305 88.7088 37.147C88.5051 37.159 88.3012 37.129 88.1097 37.0589C87.9182 36.9887 87.7431 36.8799 87.5954 36.7393C87.4477 36.5986 87.3305 36.4291 87.2511 36.2412C87.1717 36.0533 87.1318 35.8511 87.1339 35.6471C87.1339 32.4224 87.1339 29.3101 87.1339 25.9229C90.7836 25.9229 95.4582 25.5604 98.1955 26.6479C99.3096 26.9709 100.277 27.6712 100.931 28.629C101.586 29.5867 101.887 30.7421 101.783 31.8974Z" fill="#DD1F2F"/>
<path d="M134.97 30.3975C134.747 29.227 134.228 28.1332 133.463 27.2206C132.697 26.308 131.709 25.6073 130.595 25.1855C127.695 23.9356 125.433 24.048 121.033 24.073H114.784V14.9488C117.471 14.9488 120.033 14.9488 122.608 14.9488C125.37 14.9488 127.183 17.0236 129.02 18.8985C128.045 17.008 126.947 15.1834 125.733 13.4364H125.12C119.671 13.4364 108.447 13.4364 108.422 13.4364C110.172 14.1238 110.097 15.9362 110.097 17.2736C110.097 22.8231 110.097 28.3602 110.097 33.9098C110.097 35.5721 110.459 37.6595 107.859 38.3094C108.422 38.4844 118.771 38.3094 123.833 38.2469C126.692 38.2835 129.509 37.5588 131.995 36.1471C133.001 35.5867 133.819 34.7426 134.348 33.7202C134.877 32.6977 135.093 31.5421 134.97 30.3975ZM126.62 35.8846C125.41 36.4216 124.116 36.7471 122.796 36.847C120.847 36.9452 118.895 36.9452 116.946 36.847C115.496 36.847 114.884 36.2971 114.809 34.8722C114.734 33.4473 114.809 25.4854 114.809 25.4854C114.809 25.4854 121.646 25.3854 124.708 25.6729C125.817 25.8375 126.859 26.3045 127.72 27.0228C128.399 27.5942 128.924 28.326 129.248 29.152C129.572 29.9779 129.685 30.8718 129.575 31.7522C129.466 32.6327 129.139 33.4719 128.623 34.1936C128.106 34.9152 127.418 35.4965 126.62 35.8846Z" fill="#DD1F2F"/>
<path d="M57.3315 38.322H51.082C51.7666 38.1744 52.4084 37.8726 52.9586 37.4394C53.5088 37.0061 53.9528 36.453 54.2568 35.8222C57.9315 29.3602 66.3558 14.2364 66.9183 13.324C68.1681 16.1237 74.7801 30.4976 76.9174 35.0597C77.5924 36.4721 77.9549 37.347 78.1673 37.772C78.3798 38.197 78.7048 38.3845 78.8673 38.3845H71.3679C72.8053 37.2096 72.4178 35.8847 71.8179 34.5598C70.8679 32.5099 68.6681 27.3978 68.6681 27.3978H60.5563C60.5563 27.3978 57.3315 33.0224 56.0816 35.3097C55.1692 36.9596 55.5817 37.497 56.7066 38.072C56.9067 38.1745 57.1159 38.2582 57.3315 38.322ZM61.3437 25.923H67.9807L65.1809 19.0735L61.3437 25.923Z" fill="#DD1F2F"/>
<path d="M9.5494 33.6722L40.0219 37.9844V38.2219H2.125L20.0611 14.0488L20.361 14.2363L9.5494 33.6722Z" fill="#DD1F2F"/>
<path d="M24.8983 0.962402L43.8218 33.4598L13.3242 30.1601V29.8351L36.0849 29.3851L24.6358 1.12489L24.8983 0.962402Z" fill="#DD1F2F"/>
<path d="M0 32.1974L18.7485 0L30.985 27.8103L30.6975 27.9727L19.011 8.7243L0.26248 32.3974L0 32.1974Z" fill="#DD1F2F"/>
<path d="M71.4062 0.337524H74.831V1.41244H72.5811V2.82482H72.9186H73.3061C73.5768 2.8231 73.8463 2.861 74.106 2.93731C74.3351 3.00362 74.5451 3.1236 74.7185 3.28729C74.8959 3.46151 75.0288 3.67585 75.106 3.91224C75.2042 4.21474 75.2507 4.53167 75.2434 4.84966C75.2633 5.42332 75.0619 5.98268 74.681 6.41203C74.4589 6.60883 74.1995 6.75893 73.9182 6.85341C73.6369 6.94789 73.3395 6.98482 73.0436 6.96199H72.7061H72.2687H71.8062L71.4062 6.887V0.337524ZM73.1311 5.91208C73.246 5.91753 73.3608 5.89926 73.4683 5.85841C73.5758 5.81755 73.6738 5.75498 73.7561 5.67459C73.9387 5.44058 74.0238 5.14498 73.9935 4.84966C73.9998 4.66342 73.9744 4.47747 73.9185 4.2997C73.8786 4.18067 73.8099 4.07333 73.7186 3.98723C73.6334 3.91185 73.53 3.86014 73.4186 3.83724C73.2939 3.8241 73.1683 3.8241 73.0436 3.83724H72.7811H72.5687V5.84958H72.8061L73.1311 5.91208Z" fill="#DD1F2F"/>
<path d="M87.8216 5.37456H86.2843L85.8968 6.86195H84.7344L86.6342 0.287476H87.5591L89.459 6.86195H88.2091L87.8216 5.37456ZM86.5717 4.42464H87.6591L87.2842 2.89977L87.1342 1.87485L86.9717 2.91226L86.5717 4.42464Z" fill="#DD1F2F"/>
<path d="M102.142 4.11222H100.355V6.8745H99.1797V0.337524H100.355V3.02481H102.142V0.337524H103.317V6.8745H102.142V4.11222Z" fill="#DD1F2F"/>
<path d="M114.917 4.07465H114.667V6.87442H113.492V0.33745H114.667V3.22472L114.905 3.11223L116.279 0.324951H117.604L116.079 3.08723L115.642 3.4372L116.092 3.78717L117.817 6.87442H116.379L114.917 4.07465Z" fill="#DD1F2F"/>
</svg>
