<svg width="148" height="28" viewBox="0 0 148 28" fill="none" xmlns="http://www.w3.org/2000/svg">
<path d="M0.709276 26.8401C3.85094 26.9852 8.97326 27.1324 11.933 27.1324C24.8512 27.1324 26.3924 27.1058 26.3924 20.0846C26.3924 14.5453 24.7654 14.1017 17.922 13.8953L9.98096 13.6582C6.34056 13.5376 6.27924 13.1553 6.27924 11.5262C6.27924 9.83788 6.72279 9.83788 15.461 9.83788C17.1166 9.83788 22.3923 9.92578 25.1783 9.98505C25.4706 9.98505 25.6218 9.83788 25.6218 9.53945V5.92562C25.6218 5.63128 25.4706 5.48003 25.2048 5.45345C22.4495 5.3022 17.9486 5.15503 14.719 5.15503C2.03994 5.15298 0 5.39213 0 11.9371C0 17.5377 1.24277 18.2777 9.35754 18.5454L16.6424 18.7805C20.0498 18.899 20.1111 19.314 20.1111 20.5874C20.1111 22.3371 19.9619 22.425 11.9023 22.425C8.1393 22.425 4.25974 22.2778 0.735848 22.1572C0.439465 22.1286 0.292295 22.2778 0.292295 22.5721V26.3638C0.294339 26.6602 0.441509 26.8074 0.709276 26.8401ZM137.42 18.989H127.939L132.295 10.3652H133.066L137.42 18.989ZM109.74 15.9965V16.2929C109.74 21.7729 109.292 21.9508 102.187 21.9508H96.3205V10.3366H102.187C109.292 10.3366 109.74 10.5165 109.74 15.9965ZM78.9831 15.9965V16.2929C78.9831 22.2778 78.748 22.3657 71.7575 22.3657C64.7649 22.3657 64.5278 22.2778 64.5278 16.2929V15.9965C64.5278 10.0137 64.7669 9.92578 71.7575 9.92578C78.748 9.92373 78.9831 10.0116 78.9831 15.9965ZM147.938 26.2739L137.718 5.80503C137.63 5.56996 137.45 5.47798 137.215 5.47798H128.152C127.913 5.47798 127.735 5.56792 127.647 5.80503L117.427 26.2739C117.276 26.6009 117.398 26.8074 117.75 26.8074H123.647C123.882 26.8074 124.062 26.7195 124.15 26.4803L125.691 23.4593H139.674L141.211 26.4803C141.303 26.7195 141.479 26.8074 141.718 26.8074H147.613C147.967 26.8074 148.085 26.6009 147.938 26.2739ZM102.154 5.48003H90.3356C90.0392 5.48003 89.888 5.62924 89.888 5.92562V26.3638C89.888 26.6602 90.0392 26.8074 90.3356 26.8074H102.154C114.805 26.8074 116.464 26.1839 116.464 16.2295V16.0538C116.462 6.10141 114.805 5.48003 102.154 5.48003ZM56.3966 26.2739L44.6047 14.7517L55.6812 6.01352C56.0103 5.77845 55.8877 5.48003 55.4748 5.48003H48.2492C48.0407 5.48003 47.8935 5.5393 47.7157 5.68647L36.4 14.7251V5.92562C36.4 5.63128 36.2528 5.48003 35.9564 5.48003H30.4478C30.1514 5.48003 30.0022 5.62924 30.0022 5.92562V26.3638C30.0022 26.6602 30.1514 26.8074 30.4478 26.8074H35.9564C36.2528 26.8074 36.4 26.6602 36.4 26.3638V21.2108L39.7481 18.574L47.8628 26.5723C48.0407 26.7481 48.1878 26.8074 48.4249 26.8074H56.1882C56.5724 26.8074 56.691 26.5416 56.3966 26.2739ZM57.6537 15.9965V16.2929C57.6537 26.6275 59.3462 27.255 71.7575 27.255C84.1688 27.255 85.8571 26.6295 85.8571 16.2602V15.9965C85.8571 5.6599 84.1688 5.03647 71.7575 5.03647C59.3462 5.03647 57.6537 5.65786 57.6537 15.9965ZM7.72845 0.535534L10.4245 3.61179C10.5737 3.78757 10.7229 3.85094 10.958 3.85094H16.6159C16.855 3.85094 17.0022 3.78962 17.1494 3.61179L19.8454 0.535534C20.0805 0.265723 19.9926 0 19.6063 0H15.788C15.5489 0 15.3976 0.087893 15.2505 0.265723L14.0956 1.92547H13.4701L12.3193 0.265723C12.1722 0.087893 12.025 0 11.7572 0H7.96556C7.57719 0 7.49543 0.265723 7.72845 0.535534Z" fill="black"/>
</svg>
