<svg width="94" height="37" viewBox="0 0 94 37" fill="none" xmlns="http://www.w3.org/2000/svg">
<path d="M89.9678 1.43946C89.9678 1.38805 89.9678 1.38805 89.9678 1.33664C89.9678 1.28523 89.9164 1.28523 89.865 1.23382C89.8136 1.23382 89.7622 1.18242 89.7622 1.18242C89.7107 1.18242 89.6593 1.18242 89.6079 1.18242H89.4537V1.69651H89.5565C89.6593 1.69651 89.7107 1.69651 89.7622 1.69651C89.8136 1.69651 89.865 1.6451 89.9164 1.6451C89.9678 1.6451 89.9678 1.59369 89.9678 1.54228C89.9678 1.54228 89.9678 1.49087 89.9678 1.43946ZM90.7903 2.77611H90.1734L89.6079 2.10778H89.4537V2.77611H88.991V0.925368H89.7107C89.865 0.925368 89.9678 0.925368 90.0192 0.925368C90.122 0.925368 90.1734 0.976778 90.2762 1.02819C90.3791 1.0796 90.4305 1.13101 90.4819 1.18242C90.5333 1.23382 90.5333 1.33664 90.5333 1.43946C90.5333 1.59369 90.4819 1.69651 90.4305 1.79933C90.3791 1.90215 90.2762 1.95356 90.122 2.00496L90.7903 2.77611ZM91.2016 1.90215C91.2016 1.49087 91.0474 1.13101 90.7903 0.873959C90.4819 0.565503 90.1734 0.411275 89.7622 0.411275C89.3509 0.411275 88.991 0.565503 88.734 0.873959C88.4255 1.18242 88.3227 1.49087 88.3227 1.90215C88.3227 2.31342 88.4769 2.67329 88.734 2.93033C89.0424 3.23879 89.3509 3.39302 89.7622 3.39302C90.1734 3.39302 90.5333 3.23879 90.7903 2.93033C91.0474 2.62188 91.2016 2.31342 91.2016 1.90215ZM91.6129 1.90215C91.6129 2.41624 91.4072 2.87892 91.0474 3.23879C90.6875 3.59865 90.2248 3.80429 89.7107 3.80429C89.1966 3.80429 88.734 3.59865 88.3741 3.23879C88.0142 2.87892 87.8086 2.41624 87.8086 1.90215C87.8086 1.38805 88.0142 0.925368 88.3741 0.565503C88.734 0.205637 89.1966 0 89.7107 0C90.2248 0 90.6875 0.205637 91.0474 0.565503C91.4587 0.925368 91.6129 1.38805 91.6129 1.90215Z" fill="#81859C"/>
<path d="M12.9037 1.90229C8.27691 1.90229 4.31839 4.31853 2.2106 7.71155C0.411275 10.8989 0 16.0399 0 19.4329C0 22.8259 0.411275 28.0182 2.2106 31.1542C4.26698 34.5472 8.2255 36.9635 12.9037 36.9635H80.6613C85.2881 36.9635 89.2466 34.5472 91.3544 31.1542C93.1537 28.0182 93.565 22.8259 93.565 19.4329C93.565 16.0399 93.1537 10.8475 91.3544 7.71155C89.298 4.31853 85.3395 1.90229 80.6613 1.90229H12.9037Z" fill="#81859C"/>
<path d="M57.9911 17.5305H63.6976V17.3762C63.6976 14.7544 62.6694 14.6001 60.7672 14.6001C58.4538 14.5487 58.0425 15.2684 57.9911 17.5305ZM17.9432 14.7029C19.794 14.7029 20.8222 14.9086 20.8222 17.4276V17.5305H15.2185C15.27 15.3713 15.7326 14.7029 17.9432 14.7029ZM10.0262 19.5354C10.0262 25.6531 11.5685 27.8637 18.0461 27.8637C20.4623 27.8637 22.4159 27.6581 23.8553 26.887C25.192 26.1158 26.0145 24.7792 26.0145 22.3629H20.925C20.8736 24.1109 19.6912 24.3165 18.0461 24.3165C15.6812 24.3165 15.2185 23.3397 15.2185 20.4094V20.3066H26.0145V19.5354C26.0145 12.8522 24.2152 11.1557 18.0461 11.1557C11.4657 11.1557 10.0262 13.2121 10.0262 19.5354ZM29.4589 16.5023C29.4589 19.7925 30.5899 21.2833 37.4788 21.2833C38.0957 21.2833 39.0725 21.2319 39.638 21.489C40.1521 21.746 40.4091 22.2087 40.4091 23.0313C40.4091 24.4707 39.895 24.625 37.4274 24.625C36.0907 24.625 34.7027 24.5735 34.5999 22.7742H29.4589C29.5103 26.3729 31.2069 27.5553 34.3942 27.8123C35.371 27.8637 36.3992 27.8637 37.4788 27.8637C41.8486 27.8637 45.4987 27.144 45.4987 22.4144C45.4987 17.8903 43.1338 17.5819 37.4788 17.4276C34.6513 17.3762 34.4971 16.7593 34.4971 15.834C34.4971 14.7544 34.5999 14.3945 37.4788 14.3945C38.507 14.3945 39.5866 14.4973 39.7922 15.7825H44.6761V15.1142C44.6761 11.2071 40.5634 11.1557 37.4788 11.1557C32.8005 11.1557 29.4589 11.2585 29.4589 16.5023ZM72.0259 11.1557H84.7754V14.9086H80.9711V27.7095H75.7788V14.9086H71.9745V11.1557H72.0259ZM52.9016 19.4326C52.9016 13.1093 54.2897 11.1043 60.87 11.1043C66.9878 11.1043 68.7871 12.7494 68.7871 19.4326V20.1523H57.9911V20.3066C57.9911 23.2369 58.4538 24.2651 60.87 24.2651C62.4637 24.2651 63.6976 24.1109 63.8004 22.3115H68.7871C68.7357 24.625 67.9645 25.9616 66.6279 26.7327C65.2398 27.5039 63.2863 27.7095 60.87 27.7095C54.4439 27.7095 52.9016 25.5503 52.9016 19.4326ZM6.27332 30.7941C3.65144 27.9666 3.08594 23.5968 3.08594 19.4326C3.08594 15.2685 3.65144 10.8987 6.27332 8.07114C7.91842 6.32322 11.1058 4.98658 13.7791 4.98658H48.686V33.8786H13.7791C11.0544 33.8786 7.91842 32.542 6.27332 30.7941Z" fill="white"/>
</svg>
