<svg width="109" height="37" viewBox="0 0 109 37" fill="none" xmlns="http://www.w3.org/2000/svg">
<path fill-rule="evenodd" clip-rule="evenodd" d="M108.277 33.5524C108.117 33.393 107.934 33.3111 107.726 33.2988V33.2937H93.3662L108.13 14.3728C108.389 14.0568 108.446 13.7406 108.303 13.4253C108.158 13.1091 107.885 12.95 107.485 12.95H85.9634C85.7329 12.95 85.5324 13.0302 85.3599 13.1886C85.1872 13.3454 85.1016 13.539 85.1016 13.7682V15.7516C85.1016 16.0102 85.1809 16.2264 85.3398 16.3971C85.4967 16.57 85.7051 16.656 85.9634 16.656H100.168L85.3599 35.5777C85.1016 35.8934 85.0446 36.2089 85.1872 36.5252C85.3328 36.8429 85.6037 37 86.0066 37H107.726V36.9947C107.934 36.9824 108.117 36.8989 108.277 36.7413C108.449 36.5684 108.535 36.3675 108.535 36.1383V34.1552C108.535 33.9242 108.449 33.7238 108.277 33.5524ZM76.7464 5.55H80.5055C80.7435 5.55 80.9534 5.45898 81.133 5.27931C81.3118 5.09833 81.4016 4.88815 81.4016 4.64666V0.903342C81.4016 0.663433 81.3118 0.451671 81.133 0.271476C80.9534 0.0925965 80.7435 0 80.5055 0H76.7464C76.5083 0 76.2982 0.0925965 76.1204 0.271476C75.9419 0.451671 75.8516 0.663433 75.8516 0.903342V4.64666C75.8516 4.88815 75.9419 5.09833 76.1204 5.27931C76.2982 5.45898 76.5083 5.55 76.7464 5.55ZM80.5124 12.95H76.7392C76.503 12.95 76.2946 13.0583 76.1183 13.2745C75.9412 13.4899 75.8516 13.7126 75.8516 13.9426V36.1368C75.8516 36.3681 75.9412 36.5684 76.1183 36.7413C76.2946 36.9135 76.503 37 76.7392 37H80.5124C80.7485 37 80.957 36.9135 81.1362 36.7413C81.313 36.5684 81.4016 36.3681 81.4016 36.1368V13.9426C81.4016 13.7126 81.313 13.4899 81.1362 13.2745C80.957 13.0583 80.7485 12.95 80.5124 12.95ZM68.8916 13.239C68.099 13.039 67.1418 12.9369 66.02 12.9369H53.4986V0.991972C53.4986 0.763849 53.4142 0.540504 53.2392 0.324705C53.068 0.108654 52.866 0 52.6356 0H48.9663C48.7349 0 48.5339 0.108654 48.3614 0.324705C48.1902 0.540504 48.1016 0.763849 48.1016 0.991972V28.5919C48.1016 28.8213 48.1902 29.0237 48.3614 29.1953C48.5339 29.3675 48.7349 29.4541 48.9663 29.4541H52.6356C52.866 29.4541 53.068 29.3675 53.2392 29.1953C53.4142 29.0237 53.4986 28.8213 53.4986 28.5919V16.647H65.8057C66.2064 16.647 66.4725 16.7327 66.6025 16.9065C66.7326 17.0786 66.7961 17.4513 66.7961 18.0265V31.9124C66.7961 32.4891 66.7326 32.8618 66.6025 33.0339C66.4725 33.2062 66.2064 33.2937 65.8057 33.2937H48.9811H48.7432C48.6102 33.3674 48.4863 33.4383 48.3758 33.5485C48.2028 33.7215 48.1167 33.924 48.1167 34.1534V36.1361C48.1167 36.3654 48.2028 36.5659 48.3758 36.7407C48.5105 36.8752 48.6636 36.9542 48.8331 36.9837L66.02 37C67.1418 37 68.099 36.8999 68.8916 36.6999C69.6821 36.4975 70.3151 36.1594 70.7905 35.6856C71.2642 35.2105 71.6104 34.5855 71.8265 33.8098C72.0428 33.0339 72.1516 32.0572 72.1516 30.8766V19.0615C72.1516 17.8832 72.0428 16.9065 71.8265 16.1289C71.6104 15.3532 71.2642 14.7284 70.7905 14.2526C70.3151 13.7787 69.6821 13.4414 68.8916 13.239Z" fill="#81859C"/>
<path fill-rule="evenodd" clip-rule="evenodd" d="M43.5177 0.324312C43.339 0.108523 43.1305 0 42.8962 0H39.1207C38.8854 0 38.6761 0.108523 38.4998 0.324312C38.3227 0.5396 38.2333 0.762925 38.2333 0.990522V36.1373C38.2333 36.3685 38.3227 36.5687 38.4998 36.7413C38.6761 36.9136 38.8854 37 39.1207 37H42.8962C43.1305 37 43.339 36.9136 43.5177 36.7413C43.6948 36.5687 43.7833 36.3685 43.7833 36.1373V0.990522C43.7833 0.762925 43.6948 0.5396 43.5177 0.324312ZM32.4521 0H28.8451C28.6194 0 28.422 0.108523 28.252 0.324312C28.0828 0.5396 27.9975 0.762925 27.9975 0.990522V33.2946H6.23554C5.83968 33.2946 5.5799 33.2107 5.45248 33.0359C5.32531 32.8633 5.26049 32.4918 5.26049 31.9168V27.0064C5.26049 26.4323 5.32531 26.059 5.45248 25.8872C5.5799 25.7146 5.83968 25.6277 6.23554 25.6277H18.3261V28.5583C18.3261 28.7864 18.4107 28.9897 18.5807 29.16C18.7509 29.3321 18.9481 29.419 19.1755 29.419H22.7387C22.9643 29.419 23.1635 29.3321 23.3308 29.16C23.501 28.9897 23.5863 28.7864 23.5863 28.5583V19.0819C23.5863 17.9053 23.4812 16.9283 23.2687 16.1526C23.0564 15.3783 22.7162 14.7541 22.2508 14.2793C21.7837 13.804 21.16 13.4686 20.3833 13.2667C19.6052 13.067 18.666 12.965 17.5628 12.965H1.52728C1.30015 12.965 1.1042 13.0453 0.93522 13.2029C0.765 13.3616 0.679642 13.552 0.679642 13.7847V15.7649C0.679642 16.0234 0.756835 16.2395 0.912705 16.4121C1.06709 16.5839 1.27269 16.6706 1.52728 16.6706H17.3503C17.7469 16.6706 18.0084 16.7565 18.1358 16.9283C18.263 17.1019 18.3261 17.4445 18.3261 17.9625V20.5467C18.3261 21.1213 18.263 21.4925 18.1358 21.6664C18.0084 21.8375 17.7469 21.9239 17.3503 21.9239H6.02301C4.92054 21.9239 3.98136 22.0249 3.20498 22.2246C2.42514 22.4263 1.8029 22.7629 1.33578 23.2382C0.870397 23.7122 0.530205 24.334 0.317925 25.1115C0.105398 25.8872 0 26.8637 0 28.0403V30.883C0 32.0605 0.105398 33.0359 0.317925 33.8126C0.530205 34.5869 0.870397 35.2119 1.33578 35.6849C1.8029 36.1579 2.42514 36.4966 3.20498 36.6975C3.98136 36.8988 4.92054 36.9985 6.02301 36.9985H28.8302C28.8354 36.9985 28.8401 37 28.8451 37H32.4521C32.6773 37 32.8754 36.9136 33.0471 36.7413C33.2154 36.5687 33.3 36.3685 33.3 36.1373V0.990522C33.3 0.762925 33.2154 0.5396 33.0471 0.324312C32.8754 0.108523 32.6773 0 32.4521 0Z" fill="#E8E8E8"/>
</svg>
