<svg width="165" height="52" viewBox="0 0 165 52" fill="none" xmlns="http://www.w3.org/2000/svg">
<path d="M48.3087 46.5975L48.3214 36.1744H44.1445V32.9427H56.4325V36.1744H52.2812L52.294 46.5975H48.3087Z" fill="#706F6F"/>
<path d="M61.6701 43.3274C62.2321 43.8766 63.0496 44.1449 64.1098 44.1449C64.8635 44.1449 65.5149 43.9533 66.0642 43.5701C66.6134 43.1996 66.9455 42.7909 67.0733 42.3693H70.3816C69.8579 44.0043 69.0404 45.1795 67.9546 45.882C66.8561 46.5846 65.5277 46.9422 63.9949 46.9422C62.9219 46.9422 61.9511 46.7762 61.0825 46.4313C60.2139 46.0864 59.4859 45.601 58.8855 44.9624C58.2852 44.3237 57.8253 43.57 57.4932 42.6887C57.1611 41.8073 57.0078 40.8365 57.0078 39.7891C57.0078 38.7672 57.1739 37.822 57.506 36.9279C57.8381 36.0465 58.3235 35.2801 58.9366 34.6414C59.5497 34.0028 60.2906 33.4918 61.1464 33.1214C62.0022 32.751 62.9474 32.5721 63.9821 32.5721C65.1445 32.5721 66.1536 32.7893 67.0222 33.2491C67.8908 33.6962 68.5933 34.2966 69.1426 35.0502C69.7046 35.8038 70.1006 36.6724 70.3432 37.6432C70.5987 38.614 70.6754 39.6231 70.6115 40.6833H60.7504C60.7887 41.8967 61.1081 42.7781 61.6701 43.3274ZM65.9109 36.1359C65.4638 35.6505 64.774 35.3951 63.8671 35.3951C63.2668 35.3951 62.7686 35.4973 62.3726 35.7016C61.9767 35.906 61.6573 36.1615 61.4146 36.4553C61.1719 36.749 61.0059 37.0684 60.9165 37.4005C60.8143 37.7326 60.7632 38.0392 60.7376 38.2946H66.8433C66.6645 37.3494 66.3579 36.6341 65.9109 36.1359Z" fill="#706F6F"/>
<path d="M88.3274 43.3274C88.8894 43.8766 89.7069 44.1449 90.7544 44.1449C91.508 44.1449 92.1594 43.9533 92.7087 43.5701C93.2452 43.1996 93.5901 42.7909 93.705 42.3693H97.0133C96.4896 44.0043 95.6721 45.1795 94.5864 45.882C93.5006 46.5846 92.1722 46.9422 90.6266 46.9422C89.5537 46.9422 88.5829 46.7762 87.7143 46.4313C86.8457 46.0864 86.1176 45.601 85.53 44.9624C84.9297 44.3237 84.4698 43.57 84.1377 42.6887C83.8184 41.8073 83.6523 40.8365 83.6523 39.7891C83.6523 38.7672 83.8184 37.822 84.1505 36.9279C84.4826 36.0465 84.968 35.2801 85.5811 34.6414C86.1943 34.0028 86.9351 33.4918 87.7909 33.1214C88.6468 32.751 89.592 32.5721 90.6266 32.5721C91.789 32.5721 92.7981 32.7893 93.6667 33.2491C94.5225 33.6962 95.2378 34.2966 95.7999 35.0502C96.3491 35.8038 96.7451 36.6724 97.0006 37.6432C97.256 38.614 97.3327 39.6231 97.2688 40.6833H87.4077C87.4588 41.8967 87.7654 42.7781 88.3274 43.3274ZM92.5682 36.1359C92.1211 35.6505 91.4314 35.3951 90.5117 35.3951C89.9113 35.3951 89.4132 35.4973 89.0172 35.7016C88.6212 35.906 88.3019 36.1615 88.0719 36.4553C87.8292 36.749 87.6632 37.0684 87.5738 37.4005C87.4716 37.7326 87.4205 38.0392 87.395 38.2946H93.5006C93.3346 37.3494 93.028 36.6341 92.5682 36.1359Z" fill="#706F6F"/>
<path d="M98.8047 32.9427H102.662V37.7839L107.312 32.9427H111.885L106.801 37.8861L112.74 46.5975H108.065L104.157 40.5046L102.662 41.948V46.5975H98.8047V32.9427Z" fill="#706F6F"/>
<path d="M74.3293 46.5974L77.1394 36.9152L79.9624 46.5974H83.6794L80.2178 34.7437C79.8602 33.4919 78.9022 32.7511 77.4588 32.5978H77.3438H77.1778H77.1139H76.9478H76.8201C75.3639 32.7511 74.4315 33.4919 74.061 34.7437L70.625 46.5974H74.3293Z" fill="#706F6F"/>
<path d="M131.937 36.9152L134.76 46.5974H138.477L141.287 36.9152L143.267 46.5974H146.984L144.353 34.7437C143.995 33.4919 143.05 32.7383 141.594 32.5978H141.479H141.313H141.249H141.083H140.968C139.512 32.7383 138.579 33.4919 138.209 34.7437L136.625 41.0793L135.015 34.7437C134.658 33.4919 133.713 32.7383 132.256 32.5978H132.141H131.975H131.911H131.745H131.618C130.162 32.7511 129.229 33.4919 128.871 34.7437L126.266 46.5974H129.97L131.937 36.9152Z" fill="#706F6F"/>
<path d="M112.377 36.7874C112.709 35.8933 113.182 35.1396 113.808 34.5137C114.434 33.8878 115.162 33.4024 116.03 33.0576C116.899 32.7127 117.857 32.5466 118.943 32.5466C120.016 32.5466 120.986 32.7255 121.855 33.0576C122.724 33.4024 123.464 33.8878 124.09 34.5137C124.703 35.1396 125.176 35.8933 125.508 36.7874C125.84 37.6815 126.006 38.6651 126.006 39.7636C126.006 40.8621 125.84 41.8457 125.508 42.727C125.176 43.6084 124.703 44.362 124.09 44.9879C123.464 45.6138 122.736 46.0992 121.855 46.4186C120.974 46.7507 120.016 46.9295 118.943 46.9295C117.87 46.9295 116.899 46.7634 116.03 46.4186C115.162 46.0864 114.434 45.6011 113.808 44.9879C113.195 44.362 112.722 43.6084 112.377 42.727C112.045 41.8457 111.879 40.8621 111.879 39.7636C111.879 38.6779 112.045 37.6815 112.377 36.7874ZM115.788 41.3603C115.89 41.884 116.069 42.3438 116.324 42.7654C116.58 43.1869 116.924 43.5062 117.346 43.7617C117.767 44.0044 118.291 44.1321 118.93 44.1321C119.556 44.1321 120.105 44.0172 120.527 43.7617C120.961 43.519 121.306 43.1869 121.561 42.7654C121.817 42.3438 121.995 41.884 122.098 41.3603C122.2 40.8366 122.264 40.3129 122.264 39.7636C122.264 39.2143 122.213 38.6779 122.098 38.1542C121.995 37.6177 121.804 37.1578 121.561 36.7491C121.306 36.3531 120.961 36.021 120.527 35.7528C120.105 35.4973 119.556 35.3696 118.93 35.3696C118.291 35.3696 117.767 35.4973 117.346 35.7528C116.924 36.0082 116.592 36.3403 116.324 36.7491C116.069 37.1578 115.89 37.6177 115.788 38.1542C115.685 38.6779 115.634 39.2143 115.634 39.7636C115.634 40.3129 115.685 40.8493 115.788 41.3603Z" fill="#706F6F"/>
<path d="M14.8438 32.9427H18.7013V37.7839L23.3636 32.9427H27.9237L22.8271 37.8861L28.7795 46.5975H24.1045L20.1958 40.5046L18.7013 41.948V46.5975H14.8438V32.9427Z" fill="#00B5DD"/>
<path d="M43.6313 40.0959C43.6313 39.0101 43.4652 38.0138 43.1331 37.1324C42.801 36.2511 42.3156 35.4974 41.7025 34.8715C41.0894 34.2456 40.3485 33.773 39.4672 33.4409C38.5986 33.1088 37.6278 32.9427 36.5548 32.9427C34.9071 32.9427 33.387 33.888 33.2465 33.9391V32.9427H29.5039V51.5536H33.2593V46.3037C33.387 46.3548 34.9198 47.3001 36.5676 47.3001C37.6406 47.3001 38.6113 47.134 39.4799 46.8019C40.3485 46.4698 41.1022 45.9844 41.7153 45.3713C42.3284 44.7454 42.801 43.9917 43.1459 43.1104C43.478 42.229 43.6441 41.2455 43.6441 40.147V40.0959H43.6313ZM39.7226 41.7564C39.6204 42.2801 39.4416 42.74 39.1862 43.1615C38.9307 43.583 38.5858 43.9023 38.1515 44.1578C37.7172 44.4005 37.1807 44.5282 36.5548 44.5282C35.9162 44.5282 35.3924 44.4005 34.9582 44.1578C34.5366 43.9151 34.2045 43.583 33.9363 43.1615C33.6808 42.74 33.502 42.2801 33.3998 41.7564C33.2976 41.271 33.2465 40.7856 33.2465 40.2875V39.9809C33.2593 39.4827 33.3104 38.9973 33.3998 38.512C33.502 37.9882 33.6936 37.5284 33.9363 37.1069C34.1917 36.6981 34.5366 36.366 34.9582 36.1233C35.3797 35.8806 35.9162 35.7529 36.5548 35.7529C37.1807 35.7529 37.7172 35.8806 38.1515 36.1233C38.5858 36.366 38.9307 36.6981 39.1862 37.1069C39.4416 37.5284 39.6204 37.9882 39.7226 38.512C39.8248 39.0357 39.8887 39.5594 39.8887 40.1086V40.1597C39.8887 40.6962 39.8248 41.2327 39.7226 41.7564Z" fill="#00B5DD"/>
<path d="M8.82643 32.9425V40.6193C8.82643 41.5262 8.59651 42.216 8.18776 42.663C7.76623 43.1229 7.14034 43.4039 6.16956 43.4039C5.41593 43.4039 4.8028 43.2123 4.38128 42.8291C3.95976 42.4459 3.67874 41.8455 3.66597 40.8875V32.9425H0.0127734C0.0127734 32.9425 0 37.6814 0 40.4788C0 43.2761 0.574803 44.1447 1.5839 45.1411C2.43972 45.9841 3.72984 46.6228 5.59475 46.6228C7.45967 46.6228 8.63482 45.5626 8.85197 45.371C8.91584 46.2779 8.80088 47.1976 7.94506 47.8874C7.42135 48.3216 5.64585 49.2541 2.81015 47.9895L2.00543 51.0041C3.0273 51.5405 4.56011 51.8982 6.23342 51.8727C7.42135 51.8599 9.04358 51.4256 10.2954 50.442C11.5472 49.4713 12.4796 47.9512 12.4796 45.4093V32.9297H8.82643" fill="#00B5DD"/>
<path d="M120.415 8.16223C119.099 8.16223 118.039 9.2352 118.039 10.5381V22.5579H130.199C131.515 22.5579 132.575 21.4849 132.575 20.182V8.16223H120.415Z" fill="#009640"/>
<path d="M120.411 8.16221H132.571V5.64585C132.571 4.34296 131.498 3.26999 130.195 3.26999H127.359V0L123.783 3.26999H110.243C108.94 3.26999 107.867 4.34296 107.867 5.64585V20.182C107.867 21.4976 108.94 22.5578 110.243 22.5578H118.022V10.5508C118.022 9.23517 119.095 8.16221 120.411 8.16221Z" fill="#AFCB37"/>
<path d="M165 12.9266C165 7.45959 158.856 3.02722 151.269 3.02722C146.07 3.02722 141.548 5.10929 139.211 8.17491H150.554C151.857 8.17491 152.93 9.24787 152.93 10.5508V22.7494C154.539 22.6089 156.072 22.2768 157.451 21.7658L161.897 23.6307L160.376 20.348C163.212 18.5214 165 15.8645 165 12.9266Z" fill="#E83363"/>
<path d="M137.541 12.9268C137.541 11.2023 138.154 9.58012 139.215 8.17505H132.572V20.1948C132.572 21.5105 131.499 22.5707 130.196 22.5707H118.023V25.0998C118.023 26.4027 119.096 27.4757 120.399 27.4757H123.733V30.7584L127.335 27.4757H150.545C151.847 27.4757 152.92 26.4027 152.92 25.0998V22.7623C152.371 22.8134 151.822 22.8389 151.26 22.8389C143.685 22.8261 137.541 18.3938 137.541 12.9268Z" fill="#00B5DD"/>
<path d="M150.563 8.16223H139.22C138.147 9.58008 137.547 11.1895 137.547 12.9139C137.547 18.381 143.691 22.8133 151.278 22.8133C151.84 22.8133 152.39 22.7878 152.939 22.7367V10.5509C152.926 9.2352 151.866 8.16223 150.563 8.16223Z" fill="#643877"/>
</svg>
