<svg width="88" height="38" viewBox="0 0 88 38" fill="none" xmlns="http://www.w3.org/2000/svg">
<path fill-rule="evenodd" clip-rule="evenodd" d="M13.3641 27.8634H23.4211C22.4664 26.2726 21.9176 24.4102 21.9176 22.4201C21.9176 14.2521 28.5388 7.63155 36.7073 7.63155L87.3377 7.86515L84.7244 16.9762H74.7358L68.9984 36.9749H58.25L63.9851 16.9762H53.8936C54.8483 18.5675 55.3969 20.4294 55.3969 22.4202C55.3969 30.5865 48.7757 37.2082 40.6078 37.2082L40.3419 37.2066L0 36.975L8.34787 7.86527H19.0985L13.3641 27.8634ZM32.5147 22.4205C32.5147 19.0282 35.2651 16.2785 38.6572 16.2785C42.05 16.2785 44.8003 19.0283 44.8003 22.4205C44.8003 25.8129 42.0503 28.563 38.6572 28.563C35.2648 28.563 32.5147 25.813 32.5147 22.4205ZM37.2346 23.4773L40.658 16.6112C41.0801 16.8172 41.364 17.2671 41.364 17.7681C41.364 18.0057 41.3006 18.2285 41.1868 18.4183L38.2401 23.3226L39.2353 23.169C39.2866 23.161 39.3397 23.1573 39.3933 23.1573C39.9496 23.1573 40.4005 23.6088 40.4005 24.165H43.1736L42.9243 23.8512H42.4171L42.3055 23.6977H43.7796C43.9387 23.9628 44.2216 24.1458 44.5487 24.165L44.5012 24.3186H38.2665L40.8451 26.2973C41.1313 26.5165 41.3108 26.8663 41.3108 27.2547C41.3108 27.589 41.1777 27.8971 40.9587 28.1166L37.0936 24.3186H32.8139L32.7664 24.165L37.2344 23.4771" fill="#81859C"/>
<path fill-rule="evenodd" clip-rule="evenodd" d="M13.7004 0.000562191H14.5199L13.3921 3.93399H12.5724L13.7004 0.000562191ZM55.5891 0.655885L55.7776 0.000562191H53.8936C53.3769 0.000562191 52.842 0.248365 52.6918 0.771924L52.5135 1.39557C52.3908 1.82346 52.6354 2.21327 53.2472 2.21327H54.1659C54.2969 2.21327 54.4786 2.28642 54.3752 2.64489L54.3305 2.80291C54.2472 3.09201 53.9891 3.27872 53.7521 3.27872H51.9746L51.7868 3.93399H53.7592C54.2786 3.93399 54.8826 3.73111 55.0808 3.04229L55.2201 2.5576C55.4174 1.87138 54.9272 1.55755 54.4554 1.55755H53.5897C53.4675 1.55755 53.2958 1.52728 53.3654 1.28355L53.4311 1.05481C53.5194 0.744711 53.6874 0.655885 53.9206 0.655885H55.5891ZM41.6492 -3.09944e-06H42.4687L41.3405 3.93399H40.521L41.6492 -3.09944e-06ZM31.7008 -3.09944e-06H32.5207L31.3925 3.93399H30.5732L31.7008 -3.09944e-06ZM38.3723 -3.09944e-06H39.1916L38.2519 3.27872H40.0535L39.8657 3.93399H37.2439L38.3723 -3.09944e-06ZM20.1779 0.000562191L19.051 3.93399H19.8377L20.2846 2.37751H22.2835L21.8371 3.93399H22.6237L23.7517 0.000562191H22.9653L22.4714 1.72224H20.472L20.9657 0.000562191H20.1779ZM47.8511 3.93399L48.9794 0.000562191H51.7673L51.5795 0.655885H49.5418L49.283 1.55755L50.9755 1.55715L50.7876 2.21282H49.0954L48.7897 3.27872H50.8274L50.6391 3.93399H47.8511ZM42.8157 3.93399L43.9427 -3.09944e-06H44.9698L45.7941 2.95057C45.8621 3.193 45.8621 3.27872 45.8621 3.27872L46.803 -3.09944e-06H47.5031L46.376 3.93399H45.3227L44.5229 0.984708C44.4654 0.771471 44.4597 0.636423 44.4597 0.636423L43.5162 3.93399H42.8157ZM18.5053 0.655885L18.694 0.000562191H16.8097C16.2933 0.000562191 15.7584 0.248365 15.6082 0.771924L15.4296 1.39557C15.3067 1.82346 15.552 2.21327 16.1636 2.21327H17.0818C17.2131 2.21327 17.395 2.28642 17.2915 2.64489L17.2465 2.80291C17.1633 3.09201 16.9055 3.27872 16.6683 3.27872H14.891L14.7029 3.93399H16.6758C17.1952 3.93399 17.7988 3.73111 17.9972 3.04229L18.1365 2.5576C18.3338 1.87138 17.8436 1.55755 17.3713 1.55755H16.5059C16.3837 1.55755 16.212 1.52728 16.2815 1.28355L16.3475 1.05481C16.4361 0.744711 16.6038 0.655885 16.837 0.655885H18.5053ZM10.4233 -3.09944e-06H11.2426L10.3025 3.27872H12.1045L11.9167 3.93399H9.29513L10.4233 -3.09944e-06ZM2.87035 0.655885C3.12782 0.655885 3.17026 0.876422 3.12937 1.01832L2.99898 1.47314C2.89201 1.84269 2.55741 1.96711 2.37595 1.96711H1.37857L1.75471 0.655885H2.87035ZM1.12887 -3.09944e-06L0 3.93399H0.819681L1.21726 2.54056H2.45861C2.86083 2.54056 3.56762 2.34436 3.73775 1.75093L3.94328 1.03382C4.16207 0.270995 3.50061 -3.09944e-06 3.20999 -3.09944e-06H1.12887ZM33.9218 0.000562191H36.0032C36.2938 0.000562191 36.9539 0.270433 36.7362 1.03337L36.6096 1.47534C36.432 2.09638 35.6739 2.1576 35.6739 2.1576C36.2772 2.40665 36.2982 2.55318 36.2224 3.11453C36.1473 3.67589 36.2275 3.9035 36.2618 3.93399H35.5181C35.5181 3.93399 35.3656 3.72228 35.4706 3.17202C35.5959 2.51052 35.3992 2.46215 35.2164 2.45859H34.0323L33.6124 3.93399H32.7931L33.9218 0.000562191ZM35.6633 0.655885C35.9207 0.655885 35.9628 0.876422 35.9225 1.01832L35.7921 1.47314C35.702 1.72004 35.3998 1.80247 35.2179 1.80247H34.2208L34.5479 0.655885H35.6633ZM29.5893 3.93399L29.18 0.000562191H28.2783L25.5743 3.93399H26.4451L26.9633 3.11386L28.7362 3.11453L28.7705 3.93399H29.5893ZM28.7115 2.52444L28.6335 0.655208C28.6297 0.567061 28.6467 0.452551 28.6467 0.452551L28.5218 0.655885L27.3361 2.52489L28.7115 2.52444ZM5.7561 3.2781H6.86822C7.16412 3.2781 7.50692 3.03872 7.62358 2.63233L8.02363 1.2367C8.12417 0.887512 7.82957 0.66098 7.64943 0.661432L6.5179 0.663638C6.20407 0.66426 5.86574 0.925077 5.77777 1.23161L5.39722 2.55714C5.25445 3.05485 5.54087 3.2781 5.7561 3.2781ZM6.60079 0.00565147H7.70539C8.28218 0.00565147 8.95737 0.531022 8.76682 1.19625L8.29101 2.85705C8.10646 3.50061 7.40723 3.93399 6.75682 3.93399H5.88917C5.06106 3.93399 4.42745 3.33773 4.65155 2.55714L5.08649 1.04044C5.27103 0.397332 5.95301 0.00565147 6.60081 0.00565147" fill="#81859C"/>
</svg>
