<svg width="262" height="30" viewBox="0 0 262 30" fill="none" xmlns="http://www.w3.org/2000/svg">
<path fill-rule="evenodd" clip-rule="evenodd" d="M11.3569 22.1252C5.33837 22.1252 0.503906 17.291 0.503906 11.2798C0.503906 5.34563 5.33837 0.427368 11.3569 0.427368C17.2914 0.427368 22.2029 5.34563 22.2029 11.2798C22.2029 17.291 17.2914 22.1252 11.3569 22.1252Z" fill="#E8E8E8"/>
<path fill-rule="evenodd" clip-rule="evenodd" d="M11.3569 22.1252C5.33837 22.1252 0.503906 17.291 0.503906 11.2798C0.503906 5.34563 5.33837 0.427368 11.3569 0.427368C17.2914 0.427368 22.2029 5.34563 22.2029 11.2798C22.2029 17.291 17.2914 22.1252 11.3569 22.1252Z" fill="#E8E8E8"/>
<path fill-rule="evenodd" clip-rule="evenodd" d="M11.4416 2.55021C11.1053 2.45913 10.7689 2.38206 10.4256 2.38206C7.46189 2.38206 7.11858 5.08641 6.95743 5.17048C6.78226 5.26156 6.6071 4.66604 5.67524 4.66604C4.57523 4.66604 3.39113 6.1093 2.96374 6.95703C2.28411 8.21812 1.85671 9.74545 1.85671 11.3568C1.85671 16.5273 6.09563 20.766 11.3505 20.766H11.4346V10.8524C10.4186 9.66137 10.3345 8.21812 10.3345 7.71369C10.3345 7.12518 10.5097 7.0341 10.6779 7.0341C11.0212 7.0341 11.1823 7.53853 11.4346 8.21812V2.55021H11.4416ZM11.4416 0V0.42737H11.3575C5.33893 0.42737 0.504466 5.34563 0.504466 11.2798C0.504466 17.291 5.33893 22.1252 11.3575 22.1252H11.4416V22.6366H11.3575C5.0867 22.6366 0 17.5502 0 11.2798C0 5.08641 5.0867 0 11.3575 0H11.4416ZM14.7416 21.6137C13.7327 21.95 12.6257 22.1252 11.4346 22.1252V22.6366C12.6257 22.6366 13.7257 22.3774 14.7416 22.0411V21.6137ZM14.7416 7.9659V11.7842C14.5805 11.7842 14.4894 11.9524 14.4894 12.2046C14.4894 12.2887 14.5735 12.3727 14.7416 12.3727V12.709V13.9841C14.2372 14.4115 13.6416 13.9841 13.2212 13.3956C12.969 13.823 12.7938 14.2433 12.7938 14.6637C12.7938 15.7637 13.6416 16.6955 14.7416 16.6955V20.0864C13.7327 20.5138 12.6257 20.766 11.4346 20.766V10.8524C11.7779 11.1046 12.1142 11.4479 12.5416 11.7001C12.5416 11.7001 12.3734 11.1887 12.4575 10.425C12.2053 9.82952 12.0371 9.49323 11.7779 8.89771C11.6097 8.72957 11.5256 8.47034 11.4346 8.21812V2.5432C12.7938 3.04064 13.6346 4.40682 13.6346 5.84306C13.6346 6.85194 13.5505 7.28632 13.5505 7.88183C13.5505 8.47034 13.8027 8.72256 13.9779 8.72256C14.1461 8.72256 14.2301 8.46334 14.2301 8.13405C14.2301 7.79075 14.3072 7.28631 14.2301 7.11817C14.4123 7.37739 14.5805 7.71369 14.7416 7.9659ZM14.7416 0.511443C13.7327 0.168146 12.6257 0 11.4416 0V0.42737C12.6327 0.42737 13.7327 0.679589 14.7486 1.02289V0.511443H14.7416ZM14.7416 11.7842C14.8257 11.7001 14.9168 11.7001 14.9168 11.7001C15.2601 11.7001 15.3442 11.7842 15.6805 11.7842C16.0168 11.7842 16.1079 11.525 16.276 11.1887C16.4442 11.0206 16.5283 10.7683 16.5283 10.425C16.5283 9.74545 15.8486 8.39327 15.5123 7.12518C15.5123 7.46147 15.5123 8.21812 15.176 8.21812C15.0009 8.21812 14.8327 8.13405 14.7416 7.9659V11.7842ZM14.7416 13.9841L14.8257 13.9C15.2531 13.4797 14.9098 12.8842 14.7416 12.716V13.9841ZM14.7416 20.0864C18.3079 18.7272 20.7602 15.3363 20.7602 11.3568C20.7602 9.32508 20.0876 7.37739 18.9805 5.85007L18.8965 5.93414C18.8965 5.93414 19.3238 6.95703 19.3238 8.05698C19.3238 11.1887 16.1849 12.4638 14.9168 12.3797H14.7416V12.716C15.8416 12.716 16.7805 13.5708 16.7805 14.6637C16.7805 15.7637 15.8486 16.6955 14.7416 16.6955V20.0864ZM14.7416 22.0411V21.6207C19.0646 20.1775 22.2035 16.107 22.2035 11.2798C22.2035 6.52966 19.0646 2.45913 14.7416 1.02989V0.511443C19.3238 1.95469 22.6309 6.27744 22.6309 11.2798C22.6309 16.3592 19.3238 20.5979 14.7416 22.0411ZM52.7167 14.3274L50.0893 22.6366H52.7167V14.3274ZM52.7167 3.13872V11.4479L50.5096 18.3069H42.6344L46.0185 7.62961H40.6866L37.3795 18.3069H29.4902L34.3247 3.13171H52.7167V3.13872ZM52.7167 11.4479L55.3441 3.13872H52.7167V11.4479ZM61.6149 15.2592V18.482C59.8353 18.2228 59.2397 17.4661 58.9034 16.9547L57.0397 22.6366H52.7167V14.3274L54.8326 7.71369H61.3557L60.676 9.66137C60.9283 9.41616 61.1875 9.07286 61.6079 8.82065V10.9365C60.5079 11.2798 60.1716 12.4638 59.9123 13.0523C59.6531 13.823 59.2327 15.4274 60.9283 15.4274C61.1945 15.4274 61.4468 15.3433 61.6149 15.2592ZM70.345 16.191V18.3139H69.6653L70.345 16.191ZM63.3946 13.2275C63.2264 13.7389 62.799 14.9229 61.6149 15.2592V18.482C61.9512 18.5661 62.3786 18.5661 62.7219 18.5661C67.4653 18.5661 69.5042 15.7707 70.352 13.9911V8.9958C69.6723 8.05698 68.4042 7.46847 66.1131 7.46847C63.913 7.46847 62.5538 8.14806 61.6219 8.82065V10.9365C61.8811 10.9365 62.0493 10.8524 62.3085 10.8524C64.0672 10.8524 63.5627 12.4568 63.3946 13.2275ZM70.345 13.9841V8.98879C71.5291 10.5091 70.7724 12.8842 70.5972 13.2205C70.5972 13.3956 70.429 13.7319 70.345 13.9841ZM89.9211 11.9524C89.837 12.2957 89.7459 12.6319 89.6688 12.8001C89.5007 13.4797 89.0733 15.0911 89.9211 16.3592V11.9524ZM89.9211 7.71369H82.0388L77.0432 13.9841L79.3343 7.71369H73.0635L70.352 16.191V18.3139H77.975L83.2299 11.8683L80.8547 18.3139H87.1255L89.9211 9.41616V7.71369ZM89.9211 9.41616V7.71369H90.5166L89.9211 9.41616ZM98.56 7.54554V10.6843C97.7122 11.1046 97.2919 12.0434 97.1237 12.8001C96.7804 13.7389 96.1078 15.5114 97.7122 15.5114C98.0556 15.5114 98.3078 15.4274 98.56 15.3433V18.482C97.9715 18.5661 97.3759 18.5661 96.7804 18.5661C92.6326 18.5661 90.7618 17.5502 89.914 16.3592V11.9524C90.6848 10.425 92.7236 7.9659 98.56 7.54554ZM106.533 18.2228L105.09 22.6296H106.533V18.2228ZM106.533 8.72957C105.426 7.9659 103.486 7.46147 100.347 7.46147C99.6671 7.46147 99.0715 7.46147 98.56 7.54554V10.6843C98.8193 10.6002 99.0645 10.5161 99.3237 10.5161C100.851 10.5161 100.424 11.9524 100.172 12.8001C99.9193 13.5708 99.583 14.8319 98.56 15.3433V18.482C102.967 18.1387 105.251 16.5343 106.526 14.9229V8.72957H106.533ZM106.533 14.9159V8.72957C108.145 9.82952 108.061 11.4479 107.802 12.3727C107.626 12.9752 107.297 13.9 106.533 14.9159ZM116.616 8.82065V11.0276C115.593 11.3638 115.081 12.4638 114.92 13.0593C114.668 13.83 114.241 15.4344 115.936 15.4344C116.188 15.4344 116.441 15.3433 116.616 15.2662V18.489C114.92 18.2298 114.241 17.4731 113.904 16.9617L112.125 22.6436H106.533V18.2368L109.833 7.7277H116.363L115.684 9.67539C115.936 9.41616 116.272 9.07286 116.616 8.82065ZM116.616 18.482C116.952 18.5661 117.379 18.5661 117.8 18.5661C123.314 18.5661 125.255 14.6707 125.682 13.2275C126.102 11.7071 127.125 7.46847 121.107 7.46847C118.991 7.46847 117.541 8.14806 116.616 8.82065V11.0276C116.868 10.9365 117.12 10.8594 117.379 10.8594C119.082 10.8594 118.648 12.4638 118.395 13.2345C118.227 13.83 117.807 15.014 116.616 15.2662V18.482ZM135.176 1.52732V6.52265C134.924 6.52265 134.755 6.60673 134.58 6.6908C133.48 7.11817 132.212 8.13405 132.037 9.31808C133.228 8.46334 134.069 7.9589 135.169 7.70668V10.7613C134.496 11.0976 133.985 11.8613 133.726 12.7931C133.305 14.0682 132.969 15.5044 134.321 15.5044C134.657 15.5044 134.917 15.5044 135.169 15.3363V18.475C134.573 18.5591 133.985 18.5591 133.305 18.5591C124.827 18.5591 126.187 13.9 126.271 13.7319C126.523 12.1205 127.118 10.7613 127.714 9.49323C128.394 7.79776 129.746 5.51378 130.937 4.24568C132.037 3.13872 133.312 2.29099 134.748 1.6184C134.917 1.6184 135.008 1.52732 135.176 1.52732ZM135.176 6.52966C136.276 6.19337 137.383 6.1093 138.406 5.93414C139.415 5.85007 140.522 5.68192 141.37 5.4227L141.454 5.25455L143.142 0C142.883 0 142.631 0.0910789 142.379 0.0910789C141.187 0.259225 140.003 0.42737 138.735 0.595516C137.383 0.847735 136.192 1.10696 135.176 1.52732V6.52966ZM143.731 14.7478C143.563 15.0841 143.479 15.4274 143.394 15.7637C143.219 16.3592 143.394 16.9477 143.731 17.3751V14.7478ZM143.731 9.82952C143.051 8.56142 141.187 7.54554 137.376 7.54554C136.528 7.54554 135.764 7.63662 135.169 7.71369V10.7683C135.337 10.6843 135.596 10.6002 135.848 10.6002C137.292 10.6002 136.948 11.8683 136.605 12.8912C136.353 13.6548 136.01 14.9229 135.162 15.3433V18.482C140.921 18.0617 142.96 15.2592 143.724 13.3115V9.82952H143.731ZM143.731 13.3115V9.82952C144.235 10.6773 144.235 11.6091 144.067 12.2957C143.99 12.6319 143.906 12.9752 143.731 13.3115ZM152.124 11.532V13.7389C151.788 13.7389 151.613 13.823 151.361 13.823C150.597 13.9911 150.17 14.4185 150.002 14.8389C150.002 14.9229 150.002 15.007 150.002 15.0981C149.917 15.6095 150.429 15.8547 151.361 15.8547C151.613 15.8547 151.872 15.8547 152.124 15.7707V17.5572C151.193 18.0687 149.756 18.5731 147.802 18.5731C145.938 18.5731 144.41 18.1457 143.731 17.3891V14.7618C144.67 13.2275 146.87 11.532 152.124 11.532ZM152.124 7.46147V10.1728C151.956 10.1728 151.788 10.1728 151.704 10.1728C149.756 10.1728 147.381 10.7613 146.533 11.0206L147.465 8.05698C148.481 7.88884 150.009 7.54554 152.124 7.46147ZM160.686 16.3592L160.091 18.3069H160.686V16.3592ZM160.686 9.07286C159.839 8.14106 157.884 7.46147 153.729 7.46147C153.133 7.46147 152.629 7.46147 152.124 7.46147V10.1728C154.752 10.2499 155.004 10.9295 154.927 11.4479C154.927 11.525 154.927 11.6091 154.836 11.7001C154.5 11.6091 152.72 11.525 152.209 11.525H152.124V13.7319C152.461 13.6478 152.972 13.6478 153.568 13.6478H154.247L154.163 13.9841C153.988 14.4956 153.652 14.9159 153.14 15.3363C152.804 15.5044 152.461 15.6726 152.124 15.7637V17.5502C152.545 17.2069 152.888 16.9547 153.14 16.7865L152.636 18.3069H159.159L160.686 13.3115V9.07286ZM160.686 13.3115V9.07286C161.366 9.66137 161.45 10.425 161.366 11.0206C161.282 11.2728 161.282 11.532 161.191 11.8613L160.686 13.3115ZM178.735 14.5866L177.544 18.3069H178.735V14.5866ZM178.735 7.71369V11.4479L176.528 18.3069H169.585L170.769 14.4956H168.309L167.125 18.3069H160.686V16.3592L163.482 7.71369H170.516L169.325 11.4479H171.785L172.969 7.71369H178.735ZM178.735 11.4479L179.919 7.71369H178.735V11.4479ZM178.735 18.3069V14.5866L182.378 3.04764H189.413L186.533 11.9524L191.956 7.71369H199.923L193.477 12.3797L196.7 18.3139H188.481L186.19 13.1434L184.494 18.3139H178.735V18.3069Z" fill="#81859C"/>
<path fill-rule="evenodd" clip-rule="evenodd" d="M257.137 5.85709C257.151 5.91313 257.165 5.97619 257.179 6.03224C257.172 5.97619 257.158 5.91313 257.137 5.85709Z" fill="#81859C"/>
<path fill-rule="evenodd" clip-rule="evenodd" d="M256.941 5.2966C256.962 5.34564 256.983 5.39469 257.004 5.44373C256.983 5.39469 256.962 5.34564 256.941 5.2966Z" fill="#81859C"/>
<path fill-rule="evenodd" clip-rule="evenodd" d="M256.816 5.05139C256.837 5.09343 256.865 5.14247 256.887 5.19151C256.865 5.13546 256.837 5.09343 256.816 5.05139Z" fill="#81859C"/>
<path fill-rule="evenodd" clip-rule="evenodd" d="M257.047 5.56982C257.068 5.61887 257.082 5.67492 257.103 5.73096C257.082 5.67492 257.068 5.61887 257.047 5.56982Z" fill="#81859C"/>
<path fill-rule="evenodd" clip-rule="evenodd" d="M256.809 3.06165V3.71321V3.74123C257.509 4.44184 258.091 5.53479 258.105 7.23026C258.119 8.72956 257.53 9.71741 256.83 10.341C257.846 10.9995 258.805 12.1275 258.812 13.858C258.819 15.1681 258.371 16.2961 257.467 17.1999C257.264 17.4031 257.04 17.5922 256.809 17.7604V18.2999H262V3.71321V3.06165H256.809Z" fill="#81859C"/>
<path fill-rule="evenodd" clip-rule="evenodd" d="M257.27 6.50165C257.277 6.57871 257.284 6.65578 257.298 6.73985C257.284 6.66279 257.277 6.57871 257.27 6.50165Z" fill="#81859C"/>
<path fill-rule="evenodd" clip-rule="evenodd" d="M257.215 6.17236C257.229 6.23542 257.236 6.30548 257.25 6.36853C257.236 6.29847 257.229 6.23542 257.215 6.17236Z" fill="#81859C"/>
<path fill-rule="evenodd" clip-rule="evenodd" d="M257.305 6.85895C257.312 6.98506 257.319 7.11117 257.319 7.23728C257.319 7.11117 257.312 6.98506 257.305 6.85895Z" fill="#81859C"/>
<path fill-rule="evenodd" clip-rule="evenodd" d="M244.899 10.0467C244.835 10.1938 244.765 10.3339 244.688 10.4601C244.765 10.3339 244.835 10.1938 244.899 10.0467Z" fill="#81859C"/>
<path fill-rule="evenodd" clip-rule="evenodd" d="M244.633 10.5582C244.654 10.5231 244.675 10.4951 244.696 10.4601C244.668 10.4951 244.654 10.5231 244.633 10.5582Z" fill="#81859C"/>
<path fill-rule="evenodd" clip-rule="evenodd" d="M245.192 9.04483C245.143 9.32507 245.073 9.5843 244.988 9.8155C245.073 9.5843 245.143 9.33208 245.192 9.04483Z" fill="#81859C"/>
<path fill-rule="evenodd" clip-rule="evenodd" d="M244.633 16.128L245.95 18.2999L244.633 16.128Z" fill="#81859C"/>
<path fill-rule="evenodd" clip-rule="evenodd" d="M245.263 8.13406C245.263 8.35125 245.249 8.56143 245.228 8.76461C245.256 8.56143 245.263 8.35125 245.263 8.13406C245.263 6.80991 245.024 5.83607 244.625 5.11444C245.024 5.82906 245.263 6.80991 245.263 8.13406Z" fill="#81859C"/>
<path fill-rule="evenodd" clip-rule="evenodd" d="M244.449 10.8244C244.513 10.7403 244.576 10.6492 244.632 10.5581C244.569 10.6492 244.513 10.7403 244.449 10.8244Z" fill="white"/>
<path fill-rule="evenodd" clip-rule="evenodd" d="M256.613 4.72211C256.634 4.75013 256.655 4.78516 256.676 4.82019C256.655 4.78516 256.634 4.75013 256.613 4.72211Z" fill="white"/>
<path fill-rule="evenodd" clip-rule="evenodd" d="M255.926 4.00748C255.94 4.02149 255.954 4.0355 255.975 4.04951C255.961 4.0355 255.94 4.02149 255.926 4.00748Z" fill="white"/>
<path fill-rule="evenodd" clip-rule="evenodd" d="M255.23 3.59412C255.259 3.60813 255.287 3.62214 255.322 3.63615C255.294 3.62214 255.259 3.60813 255.23 3.59412Z" fill="white"/>
<path fill-rule="evenodd" clip-rule="evenodd" d="M256.113 4.16162C256.134 4.18264 256.155 4.20366 256.176 4.22468C256.155 4.20366 256.134 4.18264 256.113 4.16162Z" fill="white"/>
<path fill-rule="evenodd" clip-rule="evenodd" d="M256.289 4.32974C256.31 4.35076 256.338 4.37879 256.359 4.40681C256.338 4.38579 256.31 4.35777 256.289 4.32974Z" fill="white"/>
<path fill-rule="evenodd" clip-rule="evenodd" d="M256.457 4.51892C256.478 4.54695 256.499 4.57497 256.527 4.60299C256.499 4.57497 256.478 4.54695 256.457 4.51892Z" fill="white"/>
<path fill-rule="evenodd" clip-rule="evenodd" d="M255.672 3.83932C255.693 3.85334 255.707 3.86034 255.728 3.87436C255.714 3.86034 255.693 3.84633 255.672 3.83932Z" fill="white"/>
<path fill-rule="evenodd" clip-rule="evenodd" d="M255.532 3.74824C255.511 3.73423 255.497 3.72722 255.477 3.72021C255.49 3.72722 255.511 3.73423 255.532 3.74824Z" fill="white"/>
<path fill-rule="evenodd" clip-rule="evenodd" d="M256.81 5.03737C256.796 5.00934 256.775 4.97431 256.754 4.94629C256.775 4.97431 256.796 5.00934 256.81 5.03737Z" fill="white"/>
<path fill-rule="evenodd" clip-rule="evenodd" d="M255.016 3.50305C255.044 3.51706 255.079 3.53108 255.107 3.53808C255.079 3.52407 255.051 3.51006 255.016 3.50305Z" fill="white"/>
<path fill-rule="evenodd" clip-rule="evenodd" d="M254.355 3.28586C254.391 3.29286 254.419 3.29987 254.454 3.31388C254.426 3.30688 254.391 3.29286 254.355 3.28586Z" fill="white"/>
<path fill-rule="evenodd" clip-rule="evenodd" d="M255.47 3.71323C255.463 3.70622 255.456 3.70622 255.449 3.69922C255.456 3.70622 255.463 3.71323 255.47 3.71323Z" fill="white"/>
<path fill-rule="evenodd" clip-rule="evenodd" d="M254.141 3.23682C254.176 3.24382 254.204 3.25083 254.239 3.25783C254.204 3.25083 254.169 3.24382 254.141 3.23682Z" fill="white"/>
<path fill-rule="evenodd" clip-rule="evenodd" d="M254.578 3.34891C254.613 3.35591 254.641 3.36993 254.676 3.37693C254.641 3.36993 254.606 3.35591 254.578 3.34891Z" fill="white"/>
<path fill-rule="evenodd" clip-rule="evenodd" d="M254.797 3.41898C254.832 3.43299 254.86 3.43999 254.895 3.45401C254.86 3.43999 254.832 3.43299 254.797 3.41898Z" fill="white"/>
<path fill-rule="evenodd" clip-rule="evenodd" d="M251.24 14.6217H249.838V12.1065H250.861H251.436C252.137 12.1065 252.676 12.653 252.676 13.3536C252.676 14.1382 251.94 14.6217 251.24 14.6217ZM249.831 6.59271H250.238H250.861C251.618 6.59271 252.2 7.09014 252.2 7.72068C252.2 8.35123 251.611 8.84166 250.833 8.86267H249.831V6.59271ZM256.81 11.2938C255.976 10.6072 255.03 10.404 255.03 10.404C255.03 10.404 256.137 10.2078 256.81 9.17795C257.111 8.71555 257.328 8.09201 257.321 7.23726C257.321 7.10415 257.314 6.97804 257.307 6.85894C257.307 6.8169 257.3 6.78187 257.293 6.73983C257.286 6.66277 257.279 6.57869 257.265 6.50163C257.258 6.45258 257.251 6.41055 257.244 6.36851C257.23 6.29845 257.223 6.2354 257.209 6.17234C257.202 6.1233 257.188 6.08126 257.181 6.03923C257.167 5.97617 257.153 5.92012 257.139 5.86407C257.125 5.82204 257.111 5.78 257.097 5.73796C257.083 5.68192 257.062 5.62587 257.041 5.57683C257.027 5.53479 257.013 5.49275 256.992 5.45772C256.971 5.40868 256.95 5.35964 256.929 5.31059C256.915 5.27556 256.894 5.23353 256.873 5.1985C256.852 5.14946 256.824 5.10742 256.803 5.05838C256.803 5.05137 256.796 5.05137 256.796 5.04436C256.782 5.01634 256.761 4.98131 256.74 4.95329C256.712 4.91125 256.691 4.86921 256.663 4.82718C256.642 4.79215 256.621 4.76412 256.6 4.72909C256.572 4.68705 256.544 4.65202 256.509 4.60999C256.488 4.58196 256.467 4.55394 256.439 4.52591C256.404 4.49088 256.376 4.44885 256.341 4.41382C256.319 4.38579 256.291 4.36478 256.27 4.33675C256.235 4.30172 256.193 4.26669 256.158 4.23166C256.137 4.21064 256.116 4.18962 256.095 4.1686C256.053 4.12657 256.004 4.09154 255.955 4.05651C255.941 4.0425 255.927 4.02848 255.906 4.01447C255.843 3.96543 255.78 3.92339 255.71 3.87435C255.689 3.86034 255.675 3.85333 255.654 3.83932C255.605 3.8113 255.556 3.77626 255.507 3.74824C255.486 3.73423 255.472 3.72722 255.451 3.72022C255.444 3.71321 255.437 3.71321 255.43 3.7062C255.388 3.68519 255.346 3.65716 255.304 3.63614C255.276 3.62213 255.248 3.60812 255.212 3.59411C255.17 3.57309 255.128 3.55908 255.086 3.53806C255.058 3.52405 255.023 3.51003 254.995 3.50303C254.953 3.48902 254.911 3.468 254.876 3.45399C254.841 3.43997 254.813 3.43297 254.778 3.41896C254.736 3.40494 254.694 3.39093 254.659 3.37692C254.624 3.36991 254.596 3.3559 254.561 3.34889C254.519 3.33488 254.477 3.32788 254.442 3.31386C254.407 3.30686 254.379 3.29285 254.344 3.28584C254.302 3.27883 254.26 3.26482 254.225 3.25782C254.19 3.25081 254.162 3.2438 254.126 3.2368C254.084 3.22979 254.042 3.22279 254 3.20877C253.972 3.20177 253.937 3.19476 253.909 3.18776C253.867 3.18075 253.825 3.17374 253.783 3.16674C253.755 3.15973 253.72 3.15973 253.692 3.15272C253.65 3.14572 253.608 3.13871 253.559 3.13871C253.531 3.13171 253.503 3.13171 253.482 3.13171C253.433 3.1247 253.391 3.1247 253.342 3.11769C253.321 3.11769 253.3 3.11069 253.272 3.11069C253.139 3.09668 253.005 3.08967 252.879 3.08266C252.858 3.08266 252.837 3.08266 252.816 3.08266C252.774 3.08266 252.732 3.07566 252.69 3.07566C252.669 3.07566 252.648 3.07566 252.62 3.07566C252.585 3.07566 252.543 3.07566 252.508 3.07566C252.487 3.07566 252.466 3.07566 252.438 3.07566C252.403 3.07566 252.368 3.07566 252.34 3.07566C252.319 3.07566 252.291 3.07566 252.27 3.07566C252.256 3.07566 252.235 3.07566 252.221 3.07566C252.207 3.07566 252.2 3.07566 252.186 3.07566C252.144 3.07566 252.102 3.07566 252.067 3.07566C252.004 3.07566 251.947 3.07566 251.891 3.07566H249.271V3.06165H244.598V3.71321V3.78327C245.445 4.64502 246.013 5.99719 246.02 8.13404C246.02 9.84352 245.389 11.0205 244.598 11.7982V13.0103V14.6217L246.587 17.9005L246.833 18.3069H252.872C253.755 18.2928 255.563 17.9005 256.775 16.7585C257.49 16.0859 258.001 15.1471 257.994 13.872C258.022 12.6389 257.455 11.8262 256.81 11.2938Z" fill="#81859C"/>
<path fill-rule="evenodd" clip-rule="evenodd" d="M257.25 6.36853C257.257 6.41057 257.264 6.45961 257.271 6.50165C257.264 6.45961 257.257 6.41057 257.25 6.36853Z" fill="white"/>
<path fill-rule="evenodd" clip-rule="evenodd" d="M256.816 5.05179C256.816 5.04457 256.809 5.04457 256.809 5.03735C256.809 5.04457 256.816 5.04457 256.816 5.05179Z" fill="white"/>
<path fill-rule="evenodd" clip-rule="evenodd" d="M257.293 6.73984C257.3 6.78187 257.3 6.8169 257.307 6.85894C257.307 6.8169 257.3 6.78187 257.293 6.73984Z" fill="white"/>
<path fill-rule="evenodd" clip-rule="evenodd" d="M256.887 5.18451C256.908 5.21954 256.922 5.26158 256.943 5.29661C256.922 5.26158 256.908 5.21954 256.887 5.18451Z" fill="white"/>
<path fill-rule="evenodd" clip-rule="evenodd" d="M257.102 5.73096C257.116 5.77299 257.13 5.81503 257.144 5.85707C257.13 5.81503 257.116 5.77299 257.102 5.73096Z" fill="white"/>
<path fill-rule="evenodd" clip-rule="evenodd" d="M257.188 6.03925C257.195 6.08128 257.209 6.13032 257.216 6.17236C257.209 6.12332 257.195 6.08128 257.188 6.03925Z" fill="white"/>
<path fill-rule="evenodd" clip-rule="evenodd" d="M257.004 5.44373C257.018 5.48576 257.039 5.52079 257.053 5.56283C257.032 5.5278 257.018 5.48576 257.004 5.44373Z" fill="white"/>
<path fill-rule="evenodd" clip-rule="evenodd" d="M239.742 9.04485C239.686 9.17096 239.609 9.28306 239.518 9.38114C239.489 9.41617 239.454 9.4442 239.419 9.47923C239.349 9.54228 239.279 9.59833 239.202 9.64737C238.964 9.7945 238.677 9.87857 238.368 9.87857H237.275V7.15321H237.717H238.396C238.446 7.15321 238.502 7.15321 238.551 7.16022C238.649 7.16722 238.747 7.18824 238.838 7.21626C238.894 7.23028 238.95 7.25129 239.006 7.27231C239.167 7.34237 239.314 7.43345 239.44 7.54555C239.503 7.6086 239.567 7.67166 239.616 7.74172C239.644 7.77675 239.665 7.81178 239.686 7.85382C239.777 8.00795 239.833 8.1761 239.854 8.36526C239.861 8.4143 239.861 8.45634 239.861 8.50538C239.861 8.69455 239.819 8.8767 239.742 9.04485ZM244.632 16.128L243.848 14.8389L242.271 12.2466C242.271 12.2466 242.691 12.1626 243.217 11.8753C243.35 11.8052 243.49 11.7212 243.63 11.6161C243.7 11.567 243.777 11.511 243.848 11.4479C243.918 11.3919 243.988 11.3358 244.051 11.2658C244.142 11.1747 244.233 11.0836 244.324 10.9785C244.366 10.9295 244.408 10.8734 244.45 10.8174C244.513 10.7333 244.576 10.6422 244.632 10.5512C244.653 10.5161 244.674 10.4881 244.695 10.4531C244.772 10.327 244.842 10.1868 244.905 10.0397C244.941 9.96965 244.969 9.89258 244.997 9.80851C245.081 9.5703 245.151 9.31809 245.2 9.03784C245.214 8.94676 245.228 8.84868 245.242 8.75059C245.263 8.55442 245.277 8.34424 245.277 8.12005C245.277 6.7959 245.039 5.82206 244.639 5.10043C244.562 4.9533 244.471 4.82019 244.38 4.69408C244.289 4.56797 244.191 4.45587 244.086 4.34377C244.009 4.26671 243.932 4.19665 243.848 4.12659C243.798 4.08455 243.749 4.04251 243.7 4.00748C243.623 3.95143 243.546 3.89539 243.469 3.84634C243.392 3.7973 243.308 3.74826 243.224 3.70622C243.091 3.63616 242.958 3.57311 242.818 3.51706C242.656 3.454 242.495 3.39795 242.327 3.35592C241.991 3.26484 241.64 3.19478 241.276 3.15274C241.094 3.13172 240.912 3.11071 240.73 3.09669C240.547 3.08268 240.358 3.07568 240.169 3.06867C240.078 3.06867 239.98 3.06166 239.889 3.06166C239.7 3.05466 239.51 3.05466 239.328 3.05466C239.237 3.05466 239.139 3.05466 239.048 3.05466H236.435H232.098V3.71323V18.2999H237.289V12.5269L240.162 18.2999H243.848H244.632H245.949L244.632 16.128Z" fill="#81859C"/>
<path fill-rule="evenodd" clip-rule="evenodd" d="M218.834 23.5684H221.979L221.951 23.7506C221.769 24.8575 221.356 25.7613 220.704 26.4689C219.983 27.2536 219.086 27.639 218.014 27.639C217.103 27.639 216.381 27.3307 215.842 26.7212C215.33 26.1467 215.078 25.411 215.078 24.5212C215.078 24.29 215.099 24.0588 215.134 23.8276C215.309 22.7487 215.772 21.8449 216.528 21.1093C217.32 20.3386 218.252 19.9603 219.317 19.9603C219.934 19.9603 220.48 20.1144 220.936 20.4157C221.398 20.717 221.727 21.1513 221.916 21.7048L220.55 22.3844C220.452 22.0411 220.277 21.7679 220.025 21.5507C219.751 21.3335 219.436 21.2214 219.065 21.2214C218.427 21.2214 217.867 21.5086 217.39 22.0761C216.97 22.5806 216.704 23.1691 216.599 23.8347C216.571 24.0098 216.556 24.178 216.556 24.3461C216.556 24.9206 216.69 25.39 216.963 25.7613C217.264 26.1817 217.699 26.3919 218.252 26.3919C218.7 26.3919 219.107 26.2237 219.485 25.8944C219.864 25.5652 220.095 25.1798 220.186 24.7314H218.637L218.834 23.5684Z" fill="#81859C"/>
<path fill-rule="evenodd" clip-rule="evenodd" d="M229.296 22.6997L229.219 23.1901H229.24C229.59 22.7557 230.017 22.5385 230.515 22.5385C230.69 22.5385 230.872 22.5806 231.054 22.6576L230.697 23.9187C230.55 23.7926 230.368 23.7366 230.164 23.7366C229.744 23.7366 229.422 23.9117 229.205 24.255C229.064 24.4862 228.952 24.8435 228.875 25.32L228.532 27.4568H227.18L227.936 22.6997H229.296Z" fill="#81859C"/>
<path fill-rule="evenodd" clip-rule="evenodd" d="M238.661 23.7366C238.282 23.7366 237.953 23.9117 237.673 24.255C237.42 24.5773 237.294 24.9346 237.294 25.3199C237.294 25.6282 237.371 25.8804 237.526 26.0836C237.701 26.3078 237.939 26.4269 238.226 26.4269C238.605 26.4269 238.927 26.2517 239.2 25.9084C239.459 25.5862 239.592 25.2289 239.592 24.8435C239.592 24.5353 239.508 24.276 239.34 24.0658C239.186 23.8417 238.955 23.7366 238.661 23.7366ZM238.843 22.5455C239.494 22.5455 240.013 22.7347 240.405 23.113C240.791 23.4914 240.987 23.9888 240.987 24.6123C240.987 24.7665 240.973 24.9276 240.945 25.0887C240.826 25.8314 240.503 26.4409 239.964 26.9103C239.424 27.3797 238.787 27.6179 238.044 27.6179C237.392 27.6179 236.874 27.4288 236.489 27.0504C236.103 26.6721 235.914 26.1747 235.914 25.5651C235.914 25.411 235.928 25.2499 235.956 25.0887C236.075 24.3461 236.398 23.7366 236.937 23.2602C237.47 22.7837 238.107 22.5455 238.843 22.5455Z" fill="#81859C"/>
<path fill-rule="evenodd" clip-rule="evenodd" d="M247.099 22.6997H248.451L248.052 25.2779C248.01 25.4531 247.989 25.6072 247.989 25.7333C247.989 26.2237 248.199 26.4689 248.626 26.4689C249.152 26.4689 249.474 26.0696 249.607 25.2779L250.007 22.6997H251.359L250.911 25.4951C250.686 26.9033 249.86 27.6039 248.444 27.6039C247.218 27.6039 246.602 27.0715 246.602 26.0135C246.602 25.8524 246.616 25.6773 246.651 25.4881L247.099 22.6997Z" fill="#81859C"/>
<path fill-rule="evenodd" clip-rule="evenodd" d="M259.22 26.4199C259.592 26.4199 259.914 26.2447 260.194 25.9014C260.453 25.5792 260.579 25.2219 260.579 24.8365C260.579 24.5283 260.495 24.276 260.334 24.0729C260.166 23.8487 259.935 23.7296 259.641 23.7296C259.262 23.7296 258.94 23.9047 258.667 24.248C258.407 24.5703 258.274 24.9206 258.274 25.2989C258.274 25.6072 258.351 25.8594 258.506 26.0696C258.702 26.3008 258.933 26.4199 259.22 26.4199ZM258.821 22.6997L258.751 23.134C259.143 22.7417 259.613 22.5455 260.159 22.5455C260.727 22.5455 261.175 22.7487 261.504 23.1621C261.813 23.5404 261.967 24.0238 261.967 24.5983C261.967 25.362 261.721 26.0416 261.231 26.6441C260.706 27.2886 260.068 27.6109 259.318 27.6109C258.758 27.6109 258.365 27.4077 258.148 27.0084H258.127L257.665 30H256.312L257.462 22.6997H258.821Z" fill="#81859C"/>
<path fill-rule="evenodd" clip-rule="evenodd" d="M215.184 3.04764H230.409V18.2858L215.184 18.2788V3.04764Z" fill="#D9DADA"/>
<path fill-rule="evenodd" clip-rule="evenodd" d="M215.184 3.04764H230.409V18.2858L215.184 18.2788V3.04764Z" fill="#81859C"/>
<path fill-rule="evenodd" clip-rule="evenodd" d="M215.59 17.8585V3.47501H229.981L229.967 17.8585H215.59Z" fill="#E8E8E8"/>
<path fill-rule="evenodd" clip-rule="evenodd" d="M222.769 12.4988L227.351 17.0738L229.145 15.2802L224.556 10.6983L225.453 9.80851V8.02196L226.09 7.3844V8.86269L226.714 9.47922L228.949 7.23728L229.551 7.83279C229.551 7.44746 229.439 6.12331 228.374 5.08641C227.183 3.9234 225.992 4.60299 225.579 5.01635L223.421 7.18123L223.96 7.7207L222.769 8.90472L221.578 7.7207L222.117 7.18123L219.959 5.01635C219.546 4.60299 218.355 3.9234 217.164 5.08641C216.099 6.12331 216.008 7.44746 216.008 7.83279L216.589 7.23728L218.824 9.47922L219.448 8.85568V7.3844L220.086 8.02196V9.8015L220.982 10.6913L216.442 15.2312L218.236 17.0178L222.769 12.4988Z" fill="#81859C"/>
</svg>
