<svg width="127" height="61" viewBox="0 0 127 61" fill="none" xmlns="http://www.w3.org/2000/svg">
<path d="M39.1914 39.8819H47.244V42.513H43.4133V61H39.1914V39.8819Z" fill="#81859C"/>
<path d="M52.0191 53.0721L52.7427 42.513H52.985L53.7086 53.0721H52.0191ZM47.3438 61H51.4773L51.8686 55.3916H53.8592L54.2521 61H58.384L56.1822 39.8819H49.5456L47.3438 61Z" fill="#81859C"/>
<path d="M64.4306 53.6087V57.5899C64.4306 58.1266 64.8461 58.2823 65.0884 58.2823C65.4865 58.2823 65.7635 57.9535 65.7635 57.5899V52.6739C65.7635 52.0162 65.6423 51.2891 64.0671 51.2891H62.3534V48.9696H64.1364C65.3307 48.9696 65.7635 48.6927 65.7635 47.3944V43.2054C65.7635 42.8419 65.4865 42.513 65.0884 42.513C64.8461 42.513 64.4306 42.6515 64.4306 43.2054V46.6501H60.207V43.6555C60.207 42.1841 60.3801 39.8819 63.3401 39.8819H66.8367C69.7967 39.8819 69.9871 42.1841 69.9871 43.6555V47.0309C69.9871 49.3331 68.3773 49.9563 67.1137 49.9044V50.1121C69.9525 50.0428 69.9871 52.2239 69.9871 52.9682V57.2264C69.9871 58.7151 69.7967 61 66.8367 61H63.3401C60.3801 61 60.207 58.7151 60.207 57.2264V53.6087H64.4306Z" fill="#81859C"/>
<path d="M72.7539 39.8819H82.534V61H78.3104V42.513H76.9775V61H72.7539V39.8819Z" fill="#81859C"/>
<path d="M89.5244 51.4969V42.513H90.0783C90.5284 42.513 90.8572 42.8938 90.8572 43.5689V50.441C90.8572 51.1161 90.5284 51.4969 90.0783 51.4969H89.5244ZM85.3008 61H89.5244V53.8164H91.9478C94.8905 53.8164 95.0809 51.5315 95.0809 50.0428V43.6555C95.0809 42.1841 94.8905 39.8819 91.9478 39.8819H85.3008V61Z" fill="#81859C"/>
<path d="M103.412 57.5899C103.412 57.9535 103.135 58.2823 102.737 58.2823C102.495 58.2823 102.079 58.1266 102.079 57.5899V43.2054C102.079 42.6515 102.495 42.513 102.737 42.513C103.135 42.513 103.412 42.8419 103.412 43.2054V57.5899ZM97.8555 57.2264C97.8555 58.7151 98.0459 61 100.989 61H104.502C107.445 61 107.636 58.7151 107.636 57.2264V43.6555C107.636 42.1841 107.445 39.8819 104.502 39.8819H100.989C98.0459 39.8819 97.8555 42.1841 97.8555 43.6555V57.2264Z" fill="#81859C"/>
<path d="M121.373 39.8819H126.877V61H122.654V47.7579H122.498L120.317 61H116.942L114.778 47.7579H114.622V61H110.398V39.8819H115.886L118.638 54.7338L121.373 39.8819Z" fill="#81859C"/>
<path d="M33.7192 11.0091C32.4262 5.34875 29.1858 0.744326 28.7392 0C28.0329 1.0559 25.4485 5.12372 24.1347 9.6243C22.6997 14.6615 22.4886 19.1274 22.9836 23.5068C23.4752 27.9035 25.3326 32.4214 25.3326 32.4214C26.3192 34.7756 27.7975 37.3201 28.7599 38.5664C30.1707 36.7316 33.4128 31.2617 34.4237 24.13C34.9863 20.1487 35.0105 16.6694 33.7192 11.0091ZM28.7392 37.147C28.1039 35.9526 27.1172 33.6851 27.0237 30.1538C26.9995 26.7611 28.3618 23.8357 28.7599 23.2299C29.1148 23.8357 30.2884 26.3803 30.4286 29.8596C30.5238 33.2523 29.3952 35.9353 28.7392 37.147ZM33.3436 20.6161C33.2951 22.7798 33.0372 25.0647 32.7083 26.4322C32.826 24.0781 32.5439 20.7719 32.0038 18.1754C31.4637 15.5962 29.9353 11.2687 28.7149 9.2781C27.5881 11.1822 26.1998 14.9211 25.4728 18.1581C24.7423 21.395 24.7215 25.3244 24.7215 26.5014C24.5277 25.5148 24.043 21.9663 24.1797 18.4177C24.294 15.4923 24.9794 12.4631 25.3551 11.0783C26.7883 6.45659 28.4103 3.4966 28.7149 3.02922C29.0196 3.4966 31.0621 7.14898 32.1215 10.9745C33.1757 14.8 33.3886 18.4697 33.3436 20.6161Z" fill="#81859C"/>
<path d="M30.9293 39.882H21.099V46.4771C21.1077 46.4771 21.1146 46.4598 21.1233 46.4598C23.4393 44.1403 27.1956 44.1403 29.5134 46.4598C31.8294 48.762 31.8294 52.5183 29.5134 54.8378C29.503 54.8551 29.4926 54.8551 29.4822 54.8724C29.4701 54.8724 29.458 54.8897 29.4476 54.907C27.1367 57.1919 24.1179 58.3344 21.099 58.3344C18.0663 58.3344 15.0336 57.1919 12.721 54.8724C8.64283 50.8046 8.15989 44.4865 11.2687 39.882C11.6876 39.2589 12.1706 38.6703 12.721 38.1164C15.0336 35.7969 18.0663 34.6544 21.099 34.6544V18.7986C9.44602 18.7986 0 28.2325 0 39.882C0 51.5316 9.44602 60.9828 21.099 60.9828C27.1748 60.9828 32.6482 58.4036 36.4979 54.3012V39.882H30.9293Z" fill="#81859C"/>
</svg>
