<svg width="127" height="61" viewBox="0 0 127 61" fill="none" xmlns="http://www.w3.org/2000/svg">
<path d="M39.2231 39.8823H47.2813V42.5134H43.4466V61.0011H39.2188V39.8823" fill="#0079C2"/>
<path d="M52.0648 53.0684L52.7899 42.509H53.0344L53.7595 53.0684H52.0648ZM47.3828 60.9967H51.5189L51.912 55.3897H53.9036L54.2967 60.9967H58.4327L56.2271 39.8779H49.5841L47.3828 60.9967Z" fill="#0079C2"/>
<path d="M64.4856 53.6052V57.5846C64.4856 58.1213 64.9005 58.2784 65.1451 58.2784C65.5426 58.2784 65.8221 57.9511 65.8221 57.5846V52.6671C65.8221 52.0082 65.6998 51.2839 64.1231 51.2839H62.4067V48.9626H64.193C65.3897 48.9626 65.8221 48.6833 65.8221 47.3874V43.1985C65.8221 42.8364 65.5469 42.5048 65.1451 42.5048C64.9005 42.5048 64.4856 42.6444 64.4856 43.1985V46.6412H60.2578V43.648C60.2578 42.1775 60.4325 39.8737 63.3937 39.8737H66.8921C69.8534 39.8737 70.0455 42.1775 70.0455 43.648V47.0252C70.0455 49.3291 68.4339 49.953 67.1717 49.9007V50.1101C70.015 50.0403 70.0455 52.222 70.0455 52.9638V57.2224C70.0455 58.7103 69.8534 60.9968 66.8921 60.9968H63.3937C60.4325 60.9968 60.2578 58.7103 60.2578 57.2224V53.6052H64.4856Z" fill="#0079C2"/>
<path d="M72.8203 39.8823H82.608V61.0011H78.3802V42.5134H77.0481V61.0011H72.8203V39.8823Z" fill="#0079C2"/>
<path d="M89.6067 51.4976V42.5134H90.1614C90.6112 42.5134 90.9388 42.893 90.9388 43.5694V50.4417C90.9388 51.118 90.6112 51.4976 90.1614 51.4976H89.6067ZM85.3789 60.9967H89.6067V53.8146H92.0307C94.9744 53.8146 95.1666 51.5281 95.1666 50.0402V43.6522C95.1666 42.1818 94.9744 39.8779 92.0307 39.8779H85.3789V60.9967Z" fill="#0079C2"/>
<path d="M103.501 57.5889C103.501 57.9511 103.226 58.2827 102.824 58.2827C102.58 58.2827 102.165 58.1256 102.165 57.5889V43.2072C102.165 42.6531 102.58 42.5134 102.824 42.5134C103.222 42.5134 103.501 42.8407 103.501 43.2072V57.5889ZM97.9414 57.2267C97.9414 58.7147 98.1336 61.0011 101.077 61.0011H104.593C107.537 61.0011 107.729 58.7147 107.729 57.2267V43.6566C107.729 42.1862 107.537 39.8823 104.593 39.8823H101.077C98.1336 39.8823 97.9414 42.1862 97.9414 43.6566V57.2267Z" fill="#0079C2"/>
<path d="M121.489 39.8823H126.997V61.0011H122.769V47.7582H122.612L120.428 61.0011H117.047L114.881 47.7582H114.724V61.0011H110.496V39.8823H115.99L118.746 54.7352L121.489 39.8823Z" fill="#0079C2"/>
<path d="M33.7466 11.0099C32.4538 5.35059 29.2087 0.747236 28.7632 0.00109863C28.0557 1.05704 25.4701 5.1237 24.1554 9.62671C22.7185 14.662 22.5089 19.1301 23.0024 23.5066C23.4959 27.9049 25.3522 32.421 25.3522 32.421C26.3392 34.7772 27.8198 37.3211 28.7851 38.5646C30.1958 36.7276 33.4409 31.2603 34.4542 24.1306C35.0132 20.1468 35.0394 16.6692 33.7466 11.0099ZM28.7589 37.1465C28.1212 35.951 27.1341 33.6864 27.0424 30.152C27.0162 26.7617 28.3833 23.8339 28.7807 23.2273C29.1345 23.8339 30.3093 26.3777 30.4491 29.8553C30.5452 33.25 29.4184 35.9335 28.7589 37.1465ZM33.371 20.6137C33.323 22.7779 33.0653 25.0643 32.7333 26.4301C32.8513 24.0782 32.5674 20.7708 32.0302 18.1746C31.4886 15.5958 29.9599 11.2673 28.737 9.27763C27.6102 11.1801 26.2213 14.9195 25.4919 18.1571C24.7625 21.3947 24.7407 25.3218 24.7407 26.4999C24.5485 25.5138 24.0637 21.9663 24.1991 18.4145C24.3127 15.4911 24.9984 12.4585 25.374 11.0754C26.8066 6.45453 28.4313 3.4918 28.737 3.02492C29.0428 3.4918 31.0868 7.14394 32.1481 10.9706C33.2007 14.7973 33.4147 18.4713 33.371 20.6137Z" fill="#0079C2"/>
<path d="M30.9568 39.8823H21.1167V46.4754C21.1254 46.4754 21.1342 46.4579 21.1429 46.4579C23.4621 44.1366 27.2226 44.1366 29.5417 46.4579C31.8609 48.7618 31.8609 52.5143 29.5417 54.8356C29.533 54.8531 29.5199 54.8531 29.5112 54.8705C29.4981 54.8705 29.485 54.888 29.4762 54.9054C27.1614 57.1918 24.1434 58.335 21.1211 58.335C18.0856 58.335 15.0502 57.1918 12.7354 54.8749C8.65168 50.8082 8.17125 44.4901 11.281 39.8867C11.7002 39.2627 12.185 38.6737 12.7354 38.1195C15.0502 35.7982 18.0856 34.6594 21.1211 34.6594V18.8029C9.45531 18.8029 0.00390625 28.2365 0.00390625 39.8867C0.00390625 51.5369 9.45968 60.988 21.1211 60.988C27.2007 60.988 32.682 58.4092 36.5342 54.3076V39.891H30.9568" fill="#0079C2"/>
</svg>
