<svg width="105" height="61" viewBox="0 0 105 61" fill="none" xmlns="http://www.w3.org/2000/svg">
<path d="M26.6424 22.4778C29.656 22.5527 44.2194 23.1547 51.6106 23.128C58.9991 23.1547 73.5652 22.5554 76.5787 22.4778C76.7869 22.4724 76.891 22.5768 76.9044 22.732C76.9151 22.4805 76.9177 22.2263 76.9177 21.9694C76.9177 21.7152 76.9124 21.4637 76.9044 21.2069C76.891 21.3674 76.7869 21.4664 76.5787 21.4637C73.5652 21.3835 58.9964 20.7814 51.6106 20.8189C44.2168 20.7841 29.656 21.3835 26.6424 21.4637C26.4369 21.4691 26.3328 21.3754 26.3141 21.2202C26.3061 21.4664 26.3008 21.7179 26.3008 21.9694C26.3008 22.2209 26.3061 22.4724 26.3141 22.7186C26.3328 22.5688 26.4369 22.4724 26.6424 22.4778Z" fill="white"/>
<path d="M26.4727 19.4249C26.5314 19.2002 26.6995 19.0851 26.9291 19.0932C27.156 19.0985 44.0523 20.0671 51.6116 20.1286C59.1656 20.0644 76.0673 19.0958 76.2942 19.0932C76.5264 19.0851 76.6999 19.2109 76.7533 19.4437C76.6812 18.9059 76.5878 18.3761 76.4757 17.8517C76.481 18.0577 76.3102 18.1915 76.1127 18.1915C72.9736 18.1326 56.6485 17.7741 51.609 17.7741C46.5748 17.7741 30.2496 18.1326 27.1106 18.1915C26.9051 18.1915 26.7342 18.047 26.7476 17.8383C26.6355 18.3627 26.5447 18.8925 26.4727 19.4249Z" fill="white"/>
<path d="M27.207 16.1072C27.2818 15.9466 27.3859 15.869 27.57 15.8744C30.6957 16.0483 51.6093 17.2202 51.6093 17.2202C51.6093 17.2202 72.5255 16.0483 75.6566 15.8744C75.8274 15.8744 75.9288 15.9413 76.0009 16.0884C75.8487 15.6041 75.6752 15.1252 75.4831 14.6543C75.5711 14.9112 75.4377 15.0717 75.1868 15.0744C74.6583 15.0744 63.8051 15.2108 63.8051 15.2108H39.4135C39.4135 15.2108 28.5577 15.0744 28.0345 15.0744C27.7836 15.069 27.6501 14.9138 27.7302 14.673C27.538 15.1386 27.3618 15.6229 27.207 16.1072Z" fill="white"/>
<path d="M76.0009 27.8558C75.9288 28.0029 75.8274 28.0725 75.6565 28.0671C72.5255 27.8959 51.6093 26.7213 51.6093 26.7213C51.6093 26.7213 30.6957 27.8959 27.57 28.0671C27.3859 28.0725 27.2844 28.0003 27.207 27.837C27.3618 28.3213 27.538 28.7976 27.7302 29.2685C27.6501 29.025 27.7836 28.8645 28.0292 28.8645C28.5577 28.8591 39.4108 28.7307 39.4108 28.7307H63.8024C63.8024 28.7307 74.6582 28.8591 75.1841 28.8645C75.435 28.8645 75.5685 29.0357 75.4804 29.2819C75.6752 28.811 75.8487 28.3401 76.0009 27.8558Z" fill="white"/>
<path d="M76.7572 24.4979C76.7038 24.7307 76.5303 24.8564 76.2981 24.8484C76.0712 24.8404 59.1695 23.8745 51.6155 23.8129C44.0589 23.8745 27.1626 24.8404 26.933 24.8484C26.7034 24.8591 26.5353 24.7414 26.4766 24.5113C26.5486 25.0491 26.6367 25.5842 26.7542 26.1086C26.7408 25.8919 26.9143 25.7447 27.1172 25.7501C30.2562 25.8089 46.5813 26.1675 51.6155 26.1675C56.6551 26.1675 72.9802 25.8089 76.1193 25.7501C76.3168 25.7447 76.4876 25.8838 76.4823 26.0899C76.5917 25.5708 76.6851 25.0384 76.7572 24.4979Z" fill="white"/>
<path d="M51.611 0C62.635 0 72.036 6.13517 75.474 14.6329C75.5808 14.8978 75.4473 15.0771 75.1884 15.0771C74.6599 15.0771 63.8068 15.2135 63.8068 15.2135H39.4152C39.4152 15.2135 28.5593 15.0771 28.0335 15.0771C27.7746 15.0771 27.6411 14.8978 27.7479 14.6329C31.1859 6.13785 40.587 0 51.611 0Z" fill="#81859C"/>
<path d="M51.6078 17.774C56.6473 17.774 72.9724 18.1326 76.1115 18.1914C76.3277 18.1914 76.5092 18.0309 76.4691 17.7954C76.4211 17.5091 76.1061 16.3827 76.0314 16.1606C75.9593 15.9573 75.8525 15.869 75.655 15.8743C72.524 16.0483 51.6078 17.2202 51.6078 17.2202C51.6078 17.2202 30.6942 16.0483 27.5685 15.8743C27.3657 15.869 27.2589 15.96 27.1895 16.1606C27.1094 16.3854 26.7998 17.5091 26.7517 17.7954C26.7117 18.0282 26.8905 18.1914 27.1094 18.1914C30.2484 18.1326 46.5736 17.774 51.6078 17.774Z" fill="#81859C"/>
<path d="M51.6079 20.8189C58.9964 20.7841 73.5625 21.3835 76.5761 21.4638C76.8029 21.4691 76.9017 21.346 76.9017 21.1668C76.9017 20.8082 76.7949 19.7085 76.7576 19.4811C76.7175 19.2216 76.5334 19.0771 76.2878 19.0905C76.0609 19.0958 59.1592 20.0644 51.6053 20.1259C44.0486 20.0617 27.1523 19.0932 26.9227 19.0905C26.6771 19.0771 26.493 19.2216 26.4529 19.4811C26.4129 19.7085 26.3088 20.8082 26.3088 21.1668C26.3035 21.346 26.4076 21.4664 26.6371 21.4638C29.6534 21.3835 44.2168 20.7841 51.6079 20.8189Z" fill="#81859C"/>
<path d="M51.611 43.9469C62.635 43.9469 72.036 37.809 75.474 29.3113C75.5808 29.041 75.4473 28.8671 75.1884 28.8671C74.6599 28.8618 63.8068 28.7333 63.8068 28.7333H39.4152C39.4152 28.7333 28.5593 28.8618 28.0335 28.8671C27.7746 28.8671 27.6411 29.041 27.7479 29.3113C31.1859 37.809 40.587 43.9469 51.611 43.9469Z" fill="#81859C"/>
<path d="M51.6078 26.1674C56.6473 26.1674 72.9724 25.8089 76.1115 25.75C76.3277 25.7447 76.5092 25.9106 76.4691 26.1487C76.4211 26.4296 76.1061 27.5614 76.0314 27.7808C75.9593 27.9868 75.8525 28.0725 75.655 28.0671C72.524 27.8905 51.6078 26.7213 51.6078 26.7213C51.6078 26.7213 30.6942 27.8905 27.5685 28.0671C27.3657 28.0725 27.2589 27.9868 27.1895 27.7808C27.1094 27.5614 26.7998 26.4296 26.7517 26.1487C26.7117 25.9106 26.8905 25.7447 27.1094 25.75C30.2484 25.8089 46.5736 26.1674 51.6078 26.1674Z" fill="#81859C"/>
<path d="M51.6079 23.1226C58.9964 23.1547 73.5625 22.5527 76.5761 22.4778C76.8029 22.4725 76.9017 22.5902 76.9017 22.7721C76.9017 23.128 76.7949 24.225 76.7576 24.4578C76.7175 24.7173 76.5334 24.8564 76.2878 24.8484C76.0609 24.8404 59.1592 23.8745 51.6053 23.8129C44.0486 23.8745 27.1523 24.8404 26.9227 24.8484C26.6771 24.8591 26.493 24.72 26.4529 24.4578C26.4129 24.225 26.3088 23.1253 26.3088 22.7721C26.3035 22.5902 26.4076 22.4725 26.6371 22.4778C29.6534 22.5527 44.2168 23.1547 51.6079 23.1226Z" fill="#81859C"/>
<path d="M12.8241 59.5697C11.7697 59.5697 10.1094 58.7858 10.1094 56.26C10.1094 53.7316 11.7644 52.9262 12.8241 52.9262C13.8837 52.9262 15.5333 53.7316 15.5333 56.26C15.536 58.7938 13.8811 59.5697 12.8241 59.5697ZM12.816 51.6526C10.379 51.6526 8.39844 53.7155 8.39844 56.2627C8.39844 58.8045 10.379 60.8728 12.816 60.8728C15.2584 60.8728 17.239 58.8045 17.239 56.2627C17.2417 53.7155 15.2584 51.6526 12.816 51.6526Z" fill="#81859C"/>
<path d="M80.7901 59.5697C79.7358 59.5697 78.0755 58.7858 78.0755 56.26C78.0755 53.7316 79.7305 52.9262 80.7901 52.9262C81.8498 52.9262 83.5021 53.7316 83.5021 56.26C83.5021 58.7938 81.8445 59.5697 80.7901 59.5697ZM80.7821 51.6526C78.3451 51.6526 76.3672 53.7155 76.3672 56.2627C76.3672 58.8045 78.3451 60.8728 80.7821 60.8728C83.2245 60.8728 85.2051 58.8045 85.2051 56.2627C85.2051 53.7155 83.2245 51.6526 80.7821 51.6526Z" fill="#81859C"/>
<path d="M0 51.864H1.59621V60.6587H0V51.864Z" fill="#81859C"/>
<path d="M28.5039 51.864H30.1001V60.6587H28.5039V51.864Z" fill="#81859C"/>
<path d="M63.5078 51.864H65.104V60.6587H63.5078V51.864Z" fill="#81859C"/>
<path d="M37.3932 53.0413H38.0926L38.1727 51.9068C37.823 51.8667 37.5614 51.848 37.2064 51.848C33.8111 51.848 31.625 53.6647 31.625 56.26C31.625 58.8607 33.8111 60.6721 37.2064 60.6721C37.5614 60.6721 37.823 60.6534 38.1727 60.6186L38.0926 59.4815H37.3932C34.9829 59.4815 33.3947 58.2266 33.3947 56.252C33.3947 54.2747 34.9909 53.0413 37.3932 53.0413Z" fill="#81859C"/>
<path d="M24.8938 57.1136C24.8938 57.1323 24.8885 57.1376 24.8805 57.1216C23.714 54.9704 21.2236 52.7095 19.7075 51.864H18.6211V60.6587H20.1239C20.1239 60.6587 20.0625 53.8814 20.0625 53.868C20.0625 53.8413 20.0652 53.8359 20.0812 53.8413C21.9737 55.1497 24.0263 57.6781 25.1074 60.6587H26.3406V51.864H24.8351C24.8324 51.864 24.8938 57.1029 24.8938 57.1136Z" fill="#81859C"/>
<path d="M73.5046 57.1136C73.5046 57.1323 73.4966 57.1376 73.4886 57.1216C72.3248 54.9704 69.8344 52.7095 68.3183 51.864H67.2266V60.6587H68.7293C68.7293 60.6587 68.668 53.8814 68.668 53.868C68.668 53.8413 68.6733 53.8359 68.6893 53.8413C70.5818 55.1497 72.6345 57.6781 73.7128 60.6587H74.9514V51.864H73.4459C73.4406 51.864 73.5046 57.1029 73.5046 57.1136Z" fill="#81859C"/>
<path d="M38.6641 60.6587H40.1749C40.1749 60.6587 42.5371 55.048 42.6252 54.858C42.7293 55.0507 45.5401 60.6587 45.5401 60.6587H47.3445L42.6493 51.6901L38.6641 60.6587Z" fill="#81859C"/>
<path d="M99.9344 51.6901L95.9492 60.6587H97.46C97.46 60.6587 99.8223 55.048 99.9104 54.858C100.017 55.0507 102.825 60.6587 102.825 60.6587H104.632L99.9344 51.6901Z" fill="#81859C"/>
<path d="M4.43494 55.4413C5.36117 54.4808 7.86492 51.864 7.86492 51.864H5.94574L2.29688 55.7142C4.05057 56.8647 5.51332 58.4433 6.41552 60.6587H8.09181C7.40048 58.5798 6.07119 56.6721 4.43494 55.4413Z" fill="#81859C"/>
<path d="M88.1861 51.864H86.5898V60.6587H91.6614V59.4387H88.1861V51.864Z" fill="#81859C"/>
<path d="M96.9535 51.864H90.9023V53.0841H93.1312V60.6587H94.7274V53.0841H96.9562V51.864" fill="#81859C"/>
<path d="M57.0345 56.1851C56.8744 56.4901 56.6502 57.0734 56.498 57.4854C56.4927 57.4934 56.4793 57.4934 56.474 57.4854C56.3272 57.0814 56.1029 56.4928 55.9455 56.1931C55.1794 54.6011 53.9729 52.4125 53.2549 51.6472C52.8331 52.4258 51.1622 59.1871 50.8125 60.6587H52.414C52.414 60.6587 53.6713 54.8954 53.6766 54.8767C53.6819 54.858 53.6899 54.8499 53.698 54.8633C54.2478 55.7115 55.3129 57.8948 55.9561 59.8774H57.0158C57.6057 58.0205 58.7161 55.6981 59.2607 54.8526C59.2687 54.8473 59.2767 54.8526 59.2767 54.866C59.282 54.8794 60.5606 60.664 60.5606 60.664H62.1621C61.8071 59.1951 60.1415 52.4339 59.7171 51.6526C58.9857 52.4151 57.8006 54.6038 57.0345 56.1851Z" fill="#81859C"/>
</svg>
