<svg width="148" height="28" viewBox="0 0 148 28" fill="none" xmlns="http://www.w3.org/2000/svg">
<path d="M7.72761 0.851856L10.4248 3.92913C10.5715 4.10545 10.721 4.16682 10.9566 4.16682H16.6155C16.8539 4.16682 17.0013 4.10545 17.148 3.92913L19.8452 0.851856C20.0808 0.582426 19.9926 0.317231 19.6075 0.317231H15.7888C15.5483 0.317231 15.3988 0.405394 15.2514 0.582426L14.0982 2.24343H13.4725L12.3193 0.582426C12.1719 0.405394 12.0238 0.317231 11.7572 0.317231H7.96602C7.57738 0.317231 7.49485 0.582426 7.72761 0.851856ZM57.6538 16.3116V16.6085C57.6538 26.9441 59.3473 27.5697 71.7562 27.5697C84.1686 27.5697 85.8572 26.9441 85.8572 16.5768V16.3116C85.8572 5.97594 84.1686 5.35244 71.7562 5.35244C59.3473 5.35244 57.6538 5.97594 57.6538 16.3116ZM56.3969 26.5908L44.6059 15.0674L55.6831 6.3293C56.0111 6.09302 55.8891 5.79608 55.475 5.79608H48.2475C48.0415 5.79608 47.892 5.85533 47.715 6.00274L36.4 15.0406V6.24043C36.4 5.94632 36.2519 5.79608 35.9556 5.79608H30.4463C30.1494 5.79608 29.9999 5.94632 29.9999 6.24043V26.6789C29.9999 26.9759 30.1494 27.1233 30.4463 27.1233H35.9564C36.2526 27.1233 36.4 26.9759 36.4 26.6789V21.5259L39.7468 18.8881L47.8624 26.8877C48.0415 27.064 48.189 27.1233 48.4238 27.1233H56.1867C56.5718 27.1233 56.6917 26.8581 56.3969 26.5908ZM102.155 5.79608H90.3361C90.0412 5.79608 89.8889 5.94632 89.8889 6.24043V26.6789C89.8889 26.9759 90.0412 27.1233 90.3361 27.1233H102.155C114.805 27.1233 116.463 26.4998 116.463 16.5471V16.3708C116.463 6.41746 114.805 5.79608 102.155 5.79608ZM147.938 26.5908L137.718 6.12264C137.629 5.88707 137.45 5.79608 137.214 5.79608H128.152C127.91 5.79608 127.734 5.88707 127.646 6.12264L117.426 26.5908C117.275 26.9173 117.398 27.1233 117.749 27.1233H123.646C123.881 27.1233 124.061 27.0351 124.148 26.7967L125.691 23.7759H139.673L141.212 26.7967C141.303 27.0351 141.479 27.1233 141.718 27.1233H147.611C147.967 27.1233 148.086 26.9173 147.938 26.5908ZM78.9837 16.3116V16.6085C78.9837 22.5931 78.7475 22.6812 71.7562 22.6812C64.765 22.6812 64.5266 22.5931 64.5266 16.6085V16.3116C64.5266 10.3284 64.765 10.2402 71.7562 10.2402C78.7475 10.2402 78.9837 10.3284 78.9837 16.3116ZM109.74 16.3116V16.6085C109.74 22.0881 109.293 22.2665 102.186 22.2665H96.3208V10.6529H102.186C109.293 10.6529 109.74 10.832 109.74 16.3116ZM137.42 19.3049H127.942L132.297 10.6818H133.066L137.42 19.3049ZM0.709564 27.155C3.85041 27.2996 8.97182 27.447 11.9307 27.447C24.8488 27.447 26.39 27.4202 26.39 20.4002C26.39 14.8607 24.7628 14.4171 17.9189 14.2111L9.98044 13.9728C6.33882 13.8528 6.27745 13.4699 6.27745 11.8406C6.27745 10.1521 6.72181 10.1521 15.4602 10.1521C17.1163 10.1521 22.39 10.2402 25.1775 10.2995C25.4695 10.2995 25.6219 10.1521 25.6219 9.85515V6.24043C25.6219 5.94632 25.4695 5.79608 25.2043 5.76928C22.4486 5.61764 17.9486 5.47023 14.7189 5.47023C2.04194 5.47023 0 5.70863 0 12.2525C0 17.8527 1.24138 18.5939 9.35763 18.8613L16.6423 19.0968C20.0512 19.2146 20.1125 19.6286 20.1125 20.9024C20.1125 22.6523 19.963 22.7405 11.9039 22.7405C8.14235 22.7405 4.26232 22.5931 0.738482 22.4732C0.442243 22.4435 0.294829 22.5931 0.294829 22.8879V26.6789C0.294829 26.9759 0.442243 27.1233 0.709564 27.155Z" fill="#81859C"/>
</svg>
