<svg width="25" height="26" viewBox="0 0 25 26" fill="none" xmlns="http://www.w3.org/2000/svg">
<path d="M23.6934 6.04124C23.0851 3.64754 20.462 1.10186 18.029 0.569929H17.991C14.0754 -0.189976 10.0837 -0.189976 6.16807 0.569929H6.13005C3.77307 1.13986 1.11196 3.64754 0.541725 6.04124V6.07924C-0.180575 9.38483 -0.180575 12.7284 0.541725 16.034V16.072C1.11196 18.3517 3.54497 20.7454 5.86394 21.4293V24.051C5.86394 25.0009 7.04243 25.4568 7.6887 24.7729L10.3498 21.9993C10.92 22.0372 11.5283 22.0372 12.0985 22.0372C14.0754 22.0372 16.0522 21.8473 17.991 21.4673H18.029C20.462 20.9354 23.0851 18.3897 23.6934 16.034V15.996C24.4157 12.6904 24.4157 9.34683 23.6934 6.04124ZM21.6025 15.5401C21.2223 17.0979 19.2075 18.9976 17.6108 19.3396C15.52 19.7195 13.4291 19.9095 11.3382 19.8335C11.3002 19.8335 11.2622 19.8335 11.2242 19.8715C10.92 20.1755 9.28536 21.8853 9.28536 21.8853L7.19449 24.013C7.04243 24.165 6.77632 24.051 6.77632 23.861V19.4916C6.77632 19.4156 6.7383 19.3396 6.66227 19.3396C5.06561 18.9976 3.05077 17.0599 2.67061 15.5401C2.02434 12.5384 2.02434 9.53681 2.67061 6.53518C3.05077 4.97738 5.06561 3.07761 6.66227 2.73566C10.3118 2.05174 13.9993 2.05174 17.6488 2.73566C19.2455 3.07761 21.2603 5.01537 21.6405 6.53518C22.2488 9.53681 22.2488 12.5384 21.6025 15.5401Z" fill="#593EBC"/>
<path d="M15.596 17.5537C15.3679 17.4777 15.1018 17.4397 14.9117 17.3257C12.6688 16.4139 10.6159 15.198 8.98126 13.3362C8.06888 12.2724 7.30857 11.0945 6.70031 9.84069C6.39619 9.23276 6.16809 8.62484 5.90198 8.01691C5.67388 7.44699 6.01603 6.87706 6.35817 6.45911C6.70031 6.07916 7.11849 5.77519 7.57468 5.54722C7.95483 5.35725 8.29698 5.47123 8.56309 5.77519C9.13332 6.42111 9.66555 7.14302 10.0837 7.90293C10.3498 8.35887 10.2738 8.9668 9.81761 9.27076C9.70356 9.34675 9.58951 9.42274 9.47547 9.53672C9.39944 9.61271 9.28539 9.6887 9.24737 9.80269C9.13333 9.99267 9.13333 10.2206 9.20936 10.4106C9.7796 12.0064 10.768 13.2603 12.4027 13.9442C12.6688 14.0582 12.9349 14.1721 13.201 14.1341C13.6952 14.0582 13.8473 13.5262 14.2274 13.2603C14.5696 12.9943 14.9878 12.9943 15.3679 13.2223C15.7481 13.4502 16.0902 13.7162 16.4324 13.9442C16.7745 14.2101 17.1166 14.4381 17.4588 14.7041C17.7629 14.97 17.877 15.35 17.6869 15.692C17.3828 16.3759 16.8886 16.9458 16.2423 17.2878C16.0142 17.4397 15.7861 17.4777 15.596 17.5537C15.3299 17.4777 15.7861 17.4777 15.596 17.5537Z" fill="#593EBC"/>
<path d="M12.1365 4.82532C15.0638 4.90131 17.4968 6.83907 17.991 9.7647C18.067 10.2586 18.105 10.7526 18.143 11.2845C18.143 11.5125 18.029 11.7025 17.8009 11.7025C17.5728 11.7025 17.4588 11.5125 17.4588 11.2845C17.4207 10.8666 17.4207 10.4486 17.3447 10.0307C17.0406 7.82694 15.2919 6.04117 13.125 5.66121C12.7828 5.58522 12.4787 5.58522 12.1365 5.54723C11.9084 5.50923 11.6423 5.50923 11.6043 5.24327C11.5663 5.01529 11.7564 4.86331 11.9465 4.82532C12.0225 4.82532 12.0605 4.82532 12.1365 4.82532C15.0638 4.90131 12.0605 4.82532 12.1365 4.82532Z" fill="#593EBC"/>
<path d="M16.5845 10.6007C16.5845 10.6386 16.5845 10.7146 16.5464 10.7906C16.4704 11.0946 16.0142 11.1326 15.9002 10.8286C15.8622 10.7526 15.8622 10.6386 15.8622 10.5627C15.8622 9.95473 15.7101 9.30881 15.406 8.77688C15.1018 8.20695 14.6076 7.75101 13.9994 7.48504C13.6572 7.33306 13.2771 7.21908 12.8969 7.14309C12.7449 7.10509 12.5548 7.10509 12.4027 7.06709C12.2506 7.0291 12.1366 6.87712 12.1366 6.68714C12.1366 6.49717 12.2887 6.34519 12.4787 6.38318C13.163 6.42118 13.8093 6.57316 14.4175 6.87712C15.6341 7.52304 16.3183 8.54891 16.5464 9.91674C16.5464 9.99273 16.5845 10.0307 16.5845 10.1067C16.5845 10.2587 16.5845 10.4107 16.5845 10.6007C16.5845 10.6386 16.5845 10.4107 16.5845 10.6007Z" fill="#593EBC"/>
<path d="M14.7597 10.5248C14.5316 10.5248 14.3795 10.4108 14.3415 10.1828C14.3415 10.0309 14.3035 9.87887 14.2655 9.72689C14.1895 9.42293 14.0374 9.15696 13.7713 8.96699C13.6572 8.891 13.5052 8.81501 13.3911 8.77701C13.201 8.73901 13.011 8.73902 12.8589 8.70102C12.6688 8.66303 12.5548 8.51104 12.5928 8.32107C12.6308 8.16909 12.7829 8.0171 12.973 8.0551C14.1134 8.13109 14.9118 8.73902 15.0258 10.0688C15.0258 10.1448 15.0258 10.2588 15.0258 10.3348C14.9878 10.4488 14.8737 10.5248 14.7597 10.5248C14.5316 10.5248 14.8737 10.5248 14.7597 10.5248Z" fill="#593EBC"/>
</svg>
