<svg width="40" height="42" viewBox="0 0 40 42" fill="none" xmlns="http://www.w3.org/2000/svg">
<path d="M15.2603 3.36755L13.8373 2.8932V2.8932L15.2603 3.36755ZM13.8989 7.45172L14.5148 8.81943L15.1141 8.54956L15.3219 7.92607L13.8989 7.45172ZM11.3513 8.92522L11.0506 10.3948L11.6955 10.5267L12.2293 10.1414L11.3513 8.92522ZM7.13036 8.06147L7.43108 6.59192H7.43108L7.13036 8.06147ZM4.99735 9.02087L3.69831 8.27087L4.99735 9.02087ZM2.26797 13.7483L3.56701 14.4983L2.26797 13.7483ZM2.50362 16.0752L3.62592 15.08H3.62592L2.50362 16.0752ZM5.36204 19.2987L6.8546 19.448L6.91994 18.7947L6.48435 18.3035L5.36204 19.2987ZM5.36205 22.2395L6.48435 23.2347L6.91994 22.7435L6.8546 22.0902L5.36205 22.2395ZM2.50368 25.4629L3.62598 26.4582H3.62598L2.50368 25.4629ZM2.26803 27.7899L3.56707 27.0399L2.26803 27.7899ZM4.99741 32.5173L3.69837 33.2673L4.99741 32.5173ZM7.13042 33.4767L6.8297 32.0072H6.8297L7.13042 33.4767ZM11.3513 32.613L12.2293 31.3968L11.6955 31.0114L11.0505 31.1434L11.3513 32.613ZM13.8989 34.0865L15.322 33.6122L15.1141 32.9887L14.5149 32.7188L13.8989 34.0865ZM15.2603 38.1705L13.8373 38.6448L15.2603 38.1705ZM24.5138 38.1705L23.0907 37.6962L24.5138 38.1705ZM25.8751 34.0865L25.2592 32.7188L24.6599 32.9887L24.4521 33.6122L25.8751 34.0865ZM28.4229 32.6129L28.7236 31.1434L28.0786 31.0114L27.5448 31.3968L28.4229 32.6129ZM32.6439 33.4767L32.3431 34.9462H32.3431L32.6439 33.4767ZM34.7769 32.5173L36.0759 33.2673V33.2673L34.7769 32.5173ZM37.5063 27.7899L38.8053 28.5399L38.8053 28.5399L37.5063 27.7899ZM37.2706 25.4629L36.1483 26.4582L37.2706 25.4629ZM34.4121 22.2393L32.9195 22.0901L32.8542 22.7433L33.2897 23.2345L34.4121 22.2393ZM34.4121 19.2989L33.2898 18.3037L32.8542 18.7949L32.9195 19.4482L34.4121 19.2989ZM37.2707 16.0752L38.393 17.0704L37.2707 16.0752ZM37.5063 13.7483L36.2073 14.4983V14.4983L37.5063 13.7483ZM34.7769 9.02086L36.076 8.27086V8.27086L34.7769 9.02086ZM32.6439 8.06147L32.3432 6.59192L32.6439 8.06147ZM28.4228 8.92525L27.5448 10.1414L28.0786 10.5268L28.7236 10.3948L28.4228 8.92525ZM25.8751 7.4517L24.4521 7.92604L24.66 8.54954L25.2592 8.81941L25.8751 7.4517ZM24.5138 3.36754L25.9368 2.8932V2.8932L24.5138 3.36754ZM16.6833 3.84189C16.7514 3.63771 16.9424 3.5 17.1576 3.5V0.5C15.6511 0.5 14.3136 1.46401 13.8373 2.8932L16.6833 3.84189ZM15.3219 7.92607L16.6833 3.84189L13.8373 2.8932L12.4759 6.97738L15.3219 7.92607ZM12.2293 10.1414C12.9412 9.62744 13.7064 9.1835 14.5148 8.81943L13.2829 6.08402C12.2882 6.53199 11.3476 7.07782 10.4733 7.70904L12.2293 10.1414ZM6.82964 9.53102L11.0506 10.3948L11.652 7.45567L7.43108 6.59192L6.82964 9.53102ZM6.29639 9.77087C6.40399 9.58448 6.61879 9.48787 6.82964 9.53102L7.43108 6.59192C5.95516 6.2899 4.45156 6.96619 3.69831 8.27087L6.29639 9.77087ZM3.56701 14.4983L6.29639 9.77087L3.69831 8.27087L0.968935 12.9983L3.56701 14.4983ZM3.62592 15.08C3.48313 14.919 3.4594 14.6847 3.56701 14.4983L0.968935 12.9983C0.215681 14.303 0.381793 15.9433 1.38131 17.0704L3.62592 15.08ZM6.48435 18.3035L3.62592 15.08L1.38131 17.0704L4.23974 20.2939L6.48435 18.3035ZM6.78891 20.7691C6.78891 20.3227 6.81118 19.882 6.8546 19.448L3.86949 19.1494C3.81617 19.6825 3.78891 20.2229 3.78891 20.7691H6.78891ZM6.8546 22.0902C6.81118 21.6562 6.78891 21.2155 6.78891 20.7691H3.78891C3.78891 21.3154 3.81617 21.8557 3.86949 22.3888L6.8546 22.0902ZM3.62598 26.4582L6.48435 23.2347L4.23974 21.2443L1.38137 24.4677L3.62598 26.4582ZM3.56707 27.0399C3.45946 26.8535 3.48319 26.6192 3.62598 26.4582L1.38137 24.4677C0.381851 25.5949 0.215742 27.2352 0.968995 28.5399L3.56707 27.0399ZM6.29645 31.7673L3.56707 27.0399L0.968995 28.5399L3.69837 33.2673L6.29645 31.7673ZM6.8297 32.0072C6.61885 32.0503 6.40405 31.9537 6.29645 31.7673L3.69837 33.2673C4.45162 34.572 5.95522 35.2483 7.43114 34.9462L6.8297 32.0072ZM11.0505 31.1434L6.8297 32.0072L7.43114 34.9462L11.652 34.0825L11.0505 31.1434ZM14.5149 32.7188C13.7064 32.3547 12.9412 31.9108 12.2293 31.3968L10.4732 33.8291C11.3476 34.4604 12.2883 35.0062 13.283 35.4542L14.5149 32.7188ZM16.6833 37.6962L15.322 33.6122L12.4759 34.5609L13.8373 38.6448L16.6833 37.6962ZM17.1576 38.038C16.9424 38.038 16.7514 37.9003 16.6833 37.6962L13.8373 38.6448C14.3136 40.074 15.6511 41.038 17.1576 41.038V38.038ZM22.6164 38.038H17.1576V41.038H22.6164V38.038ZM23.0907 37.6962C23.0227 37.9003 22.8316 38.038 22.6164 38.038V41.038C24.1229 41.038 25.4604 40.074 25.9368 38.6448L23.0907 37.6962ZM24.4521 33.6122L23.0907 37.6962L25.9368 38.6448L27.2981 34.5609L24.4521 33.6122ZM27.5448 31.3968C26.8329 31.9108 26.0676 32.3547 25.2592 32.7188L26.491 35.4542C27.4858 35.0062 28.4265 34.4604 29.3009 33.8291L27.5448 31.3968ZM32.9446 32.0072L28.7236 31.1434L28.1222 34.0825L32.3431 34.9462L32.9446 32.0072ZM33.4778 31.7673C33.3702 31.9537 33.1554 32.0503 32.9446 32.0072L32.3431 34.9462C33.8191 35.2483 35.3227 34.572 36.0759 33.2673L33.4778 31.7673ZM36.2072 27.0399L33.4778 31.7673L36.0759 33.2673L38.8053 28.5399L36.2072 27.0399ZM36.1483 26.4582C36.2911 26.6192 36.3148 26.8535 36.2072 27.0399L38.8053 28.5399C39.5585 27.2352 39.3924 25.5949 38.3929 24.4677L36.1483 26.4582ZM33.2897 23.2345L36.1483 26.4582L38.3929 24.4677L35.5344 21.2441L33.2897 23.2345ZM32.9852 20.7691C32.9852 21.2154 32.9629 21.6561 32.9195 22.0901L35.9046 22.3886C35.9579 21.8556 35.9852 21.3153 35.9852 20.7691H32.9852ZM32.9195 19.4482C32.9629 19.8822 32.9852 20.3228 32.9852 20.7691H35.9852C35.9852 20.2229 35.9579 19.6827 35.9046 19.1497L32.9195 19.4482ZM36.1484 15.08L33.2898 18.3037L35.5344 20.2941L38.393 17.0704L36.1484 15.08ZM36.2073 14.4983C36.3149 14.6847 36.2911 14.919 36.1484 15.08L38.393 17.0704C39.3925 15.9433 39.5586 14.303 38.8053 12.9983L36.2073 14.4983ZM33.4779 9.77086L36.2073 14.4983L38.8053 12.9983L36.076 8.27086L33.4779 9.77086ZM32.9446 9.53102C33.1555 9.48787 33.3703 9.58448 33.4779 9.77087L36.076 8.27086C35.3227 6.96619 33.8191 6.2899 32.3432 6.59192L32.9446 9.53102ZM28.7236 10.3948L32.9446 9.53102L32.3432 6.59192L28.1221 7.4557L28.7236 10.3948ZM25.2592 8.81941C26.0677 9.18349 26.8329 9.62745 27.5448 10.1414L29.3009 7.70908C28.4265 7.07783 27.4858 6.53198 26.4911 6.084L25.2592 8.81941ZM23.0907 3.84189L24.4521 7.92604L27.2982 6.97736L25.9368 2.8932L23.0907 3.84189ZM22.6164 3.5C22.8316 3.5 23.0227 3.63772 23.0907 3.84189L25.9368 2.8932C25.4604 1.464 24.1229 0.5 22.6164 0.5V3.5ZM17.1576 3.5H22.6164V0.5H17.1576V3.5Z" fill="#593EBC"/>
<path fill-rule="evenodd" clip-rule="evenodd" d="M20 24C21.6569 24 23 22.6569 23 21C23 19.3431 21.6569 18 20 18C18.3431 18 17 19.3431 17 21C17 22.6569 18.3431 24 20 24Z" stroke="#593EBC" stroke-width="3"/>
</svg>
