<svg width="40" height="43" viewBox="0 0 40 43" fill="none" xmlns="http://www.w3.org/2000/svg">
<path d="M38 14.7357L35.3689 30.6928C35.2893 31.1758 34.8717 31.5301 34.3822 31.5301H10.6756C10.1861 31.5301 9.76854 31.1758 9.6889 30.6928L7.19587 15.5731C7.11623 15.0901 6.69868 14.7357 6.20919 14.7357H2" stroke="#593EBC" stroke-width="3" stroke-linecap="round" stroke-linejoin="round"/>
<path fill-rule="evenodd" clip-rule="evenodd" d="M13.1964 40.8603C14.2269 40.8603 15.0624 40.0248 15.0624 38.9942C15.0624 37.9636 14.2269 37.1282 13.1964 37.1282C12.1658 37.1282 11.3303 37.9636 11.3303 38.9942C11.3303 40.0248 12.1658 40.8603 13.1964 40.8603Z" stroke="#593EBC" stroke-width="3"/>
<path fill-rule="evenodd" clip-rule="evenodd" d="M31.8566 40.8603C32.8872 40.8603 33.7227 40.0248 33.7227 38.9942C33.7227 37.9636 32.8872 37.1282 31.8566 37.1282C30.8261 37.1282 29.9906 37.9636 29.9906 38.9942C29.9906 40.0248 30.8261 40.8603 31.8566 40.8603Z" stroke="#593EBC" stroke-width="3"/>
<path d="M21.9999 2V4.85708" stroke="#593EBC" stroke-width="3" stroke-linecap="round"/>
<path d="M21.9999 21.9995V24.8566" stroke="#593EBC" stroke-width="3" stroke-linecap="round"/>
<path d="M26.9998 7.71422C26.9998 7.71422 26.2855 4.85715 21.9999 4.85715C17.7143 4.85715 17 7.65211 17 9.14276C17 15.0574 26.9998 11.9498 26.9998 17.714C26.9998 19.2046 26.2855 21.9996 21.9999 21.9996C17.7143 21.9996 17 19.1425 17 19.1425" stroke="#593EBC" stroke-width="3" stroke-linecap="round"/>
</svg>
