<svg width="40" height="40" viewBox="0 0 40 40" fill="none" xmlns="http://www.w3.org/2000/svg">
<path fill-rule="evenodd" clip-rule="evenodd" d="M20 38C29.9411 38 38 29.9411 38 20C38 10.0589 29.9411 2 20 2C10.0589 2 2 10.0589 2 20C2 29.9411 10.0589 38 20 38Z" stroke="#593EBC" stroke-width="3"/>
<path fill-rule="evenodd" clip-rule="evenodd" d="M20 36.2C20 36.2 27.2 30.3091 27.2 20C27.2 9.69091 20 3.8 20 3.8C20 3.8 12.8 9.69091 12.8 20C12.8 30.3091 20 36.2 20 36.2Z" stroke="#593EBC" stroke-width="3"/>
<path d="M2.9 14.6H37.1" stroke="#593EBC" stroke-width="3" stroke-linecap="round"/>
<path d="M2.9 25.4H37.1" stroke="#593EBC" stroke-width="3" stroke-linecap="round"/>
</svg>
