<svg width="37" height="57" viewBox="0 0 37 57" fill="none" xmlns="http://www.w3.org/2000/svg">
<g clip-path="url(#clip0)">
<path d="M19.6649 19.8422L21.383 23.3756C21.599 23.822 22.0215 24.126 22.5003 24.202L26.3495 24.7719C27.57 24.9523 28.0582 26.4721 27.1757 27.3459L24.3873 30.091C24.04 30.4329 23.8804 30.9364 23.9555 31.4208L24.6127 35.2961C24.8192 36.5309 23.5424 37.4618 22.4533 36.8824L19.0077 35.0492C18.5759 34.8212 18.0595 34.8212 17.6183 35.0492L14.1727 36.8824C13.0836 37.4618 11.8068 36.5214 12.0133 35.2961L12.6705 31.4208C12.755 30.9364 12.5954 30.4329 12.2387 30.091L9.45028 27.3459C8.56776 26.4721 9.05596 24.9523 10.2765 24.7719L14.1257 24.202C14.6139 24.126 15.027 23.822 15.243 23.3756L16.9611 19.8422C17.5431 18.7214 19.1204 18.7214 19.6649 19.8422Z" fill="#F7B916"/>
<path d="M35.5936 52.7258V4.27433C35.5936 2.70709 34.3262 1.4248 32.7771 1.4248H4.2267C2.6776 1.4248 1.41016 2.70709 1.41016 4.27433V52.7258C1.41016 54.293 2.6776 55.5753 4.2267 55.5753H32.7771C34.3262 55.5753 35.5936 54.293 35.5936 52.7258Z" stroke="#1062AA" stroke-width="3" stroke-miterlimit="10" stroke-linecap="round" stroke-linejoin="round"/>
<path d="M1.41016 13.2028H35.5936" stroke="#1062AA" stroke-width="3" stroke-miterlimit="10" stroke-linecap="round" stroke-linejoin="round"/>
<path d="M1.41016 42.8663H35.5936" stroke="#1062AA" stroke-width="3" stroke-miterlimit="10" stroke-linecap="round" stroke-linejoin="round"/>
<path d="M17.7617 6.71533H27.7041" stroke="#F7B916" stroke-width="2" stroke-miterlimit="10" stroke-linecap="round" stroke-linejoin="round"/>
<path d="M12.1583 8.12113C12.936 8.12113 13.5665 7.48324 13.5665 6.69637C13.5665 5.90949 12.936 5.27161 12.1583 5.27161C11.3805 5.27161 10.75 5.90949 10.75 6.69637C10.75 7.48324 11.3805 8.12113 12.1583 8.12113Z" fill="#F7B916"/>
<path d="M18.494 52.2698C20.1066 52.2698 21.4139 50.9473 21.4139 49.3158C21.4139 47.6844 20.1066 46.3618 18.494 46.3618C16.8815 46.3618 15.5742 47.6844 15.5742 49.3158C15.5742 50.9473 16.8815 52.2698 18.494 52.2698Z" fill="#F7B916"/>
</g>
<defs>
<clipPath id="clip0">
<rect width="37" height="57" fill="white"/>
</clipPath>
</defs>
</svg>
