<svg width="68" height="57" viewBox="0 0 68 57" fill="none" xmlns="http://www.w3.org/2000/svg">
<g clip-path="url(#clip0)">
<path d="M26.3432 55.201C39.8912 55.201 50.874 44.2223 50.874 30.6793C50.874 17.1363 39.8912 6.15759 26.3432 6.15759C12.7953 6.15759 1.8125 17.1363 1.8125 30.6793C1.8125 44.2223 12.7953 55.201 26.3432 55.201Z" stroke="#1062AA" stroke-width="3" stroke-miterlimit="10" stroke-linecap="round" stroke-linejoin="round"/>
<path d="M46.9727 17.7363L66.189 1.81104" stroke="#1062AA" stroke-width="3" stroke-miterlimit="10" stroke-linecap="round" stroke-linejoin="round"/>
<path d="M26.4213 47.8628C17.0193 47.8628 9.375 40.2701 9.375 30.9314C9.375 21.5928 17.0193 14 26.4213 14C35.8234 14 43.4677 21.5928 43.4677 30.9314C43.4677 31.3224 43.1472 31.6407 42.7536 31.6407C42.3599 31.6407 42.0395 31.3224 42.0395 30.9314C42.0395 22.3748 35.036 15.4185 26.4213 15.4185C17.8066 15.4185 10.8032 22.3748 10.8032 30.9314C10.8032 39.488 17.8066 46.4443 26.4213 46.4443C26.815 46.4443 27.1354 46.7625 27.1354 47.1536C27.1354 47.5446 26.815 47.8628 26.4213 47.8628Z" fill="#F7B916" stroke="#F7B916" stroke-miterlimit="10"/>
<path d="M26.4239 40.2065C21.2697 40.2065 17.0859 36.0418 17.0859 30.9315C17.0859 25.8211 21.2789 21.6565 26.4239 21.6565C31.5689 21.6565 35.7618 25.8211 35.7618 30.9315C35.7618 36.0418 31.5689 40.2065 26.4239 40.2065ZM26.4239 23.075C22.057 23.075 18.5141 26.6032 18.5141 30.9315C18.5141 35.2598 22.0662 38.788 26.4239 38.788C30.7816 38.788 34.3337 35.2598 34.3337 30.9315C34.3337 26.6032 30.7816 23.075 26.4239 23.075Z" fill="#F7B916" stroke="#F7B916" stroke-miterlimit="10"/>
<path d="M38.9003 35.6599C36.3827 35.6599 34.332 33.6231 34.332 31.1225H35.7602C35.7602 32.8411 37.17 34.2414 38.9003 34.2414C40.6947 34.2414 42.0404 32.741 42.0404 30.7496H43.4686C43.4686 33.5503 41.5094 35.6599 38.9003 35.6599Z" fill="#F7B916" stroke="#F7B916" stroke-miterlimit="10"/>
<path d="M23 30.69L26.1013 33.7454L30.6973 28" stroke="#1062AA" stroke-width="2" stroke-miterlimit="10" stroke-linecap="round" stroke-linejoin="round"/>
</g>
<defs>
<clipPath id="clip0">
<rect width="68" height="57" fill="white"/>
</clipPath>
</defs>
</svg>
