<svg width="51" height="57" viewBox="0 0 51 57" fill="none" xmlns="http://www.w3.org/2000/svg">
<path d="M14.7584 55.1782H41.7881C45.8425 55.1782 49.1598 51.8988 49.1598 47.8907V15.5952C49.1598 11.5871 45.8425 8.30774 41.7881 8.30774H14.7584C10.704 8.30774 7.38672 11.5871 7.38672 15.5952V47.8907C7.38672 51.8988 10.704 55.1782 14.7584 55.1782Z" stroke="#1062AA" stroke-width="3" stroke-miterlimit="10" stroke-linecap="round" stroke-linejoin="round"/>
<path d="M43.6168 8.30773V5.61137C43.6168 3.53445 41.8968 1.8219 39.7835 1.8219H5.67704C3.56382 1.8219 1.84375 3.5223 1.84375 5.61137V44.915C1.84375 46.9919 3.56382 48.7045 5.67704 48.7045H7.38483" stroke="#1062AA" stroke-width="3" stroke-miterlimit="10" stroke-linecap="round" stroke-linejoin="round"/>
<path d="M16.1445 21.6924H40.4958" stroke="#F7B916" stroke-width="3" stroke-miterlimit="10" stroke-linecap="round" stroke-linejoin="round"/>
<path d="M16.1445 31.8097H40.4958" stroke="#F7B916" stroke-width="3" stroke-miterlimit="10" stroke-linecap="round" stroke-linejoin="round"/>
<path d="M16.1445 41.915H40.4958" stroke="#F7B916" stroke-width="3" stroke-miterlimit="10" stroke-linecap="round" stroke-linejoin="round"/>
</svg>
