<svg width="69" height="57" viewBox="0 0 69 57" fill="none" xmlns="http://www.w3.org/2000/svg">
<path d="M49.7312 27.9714L49.6716 28.0654C49.8622 27.7717 49.9694 27.4192 49.9813 27.0433C49.9932 25.986 49.1238 25.1167 48.052 25.1049L40.3946 25.0345C39.3228 25.0227 38.4416 25.8803 38.4297 26.9376C38.4297 27.243 38.5011 27.525 38.6202 27.7834C38.6202 27.7834 38.7036 27.9596 38.8584 28.1476C39.692 29.1814 42.6454 32.6 42.6454 32.6C43.0027 33.0347 43.5386 33.3284 44.1579 33.3284C44.8009 33.3284 45.3606 33.0347 45.7298 32.5647L45.6822 32.6235L49.5287 28.2533C49.8146 27.9244 49.9813 27.5015 49.9813 27.0316C49.9932 25.9743 49.1238 25.1049 48.052 25.0932L40.3946 25.0227C39.3228 25.011 38.4416 25.8685 38.4297 26.9258C38.4297 27.384 38.5845 27.8069 38.8584 28.1359" fill="#F7B916"/>
<path d="M63.6426 55.2378H24.7602C22.7952 55.2378 21.1875 53.6519 21.1875 51.7135V24.4001C21.1875 22.4617 22.7952 20.8757 24.7602 20.8757H63.6426C65.6076 20.8757 67.2153 22.4617 67.2153 24.4001V51.7135C67.2153 53.6519 65.6076 55.2378 63.6426 55.2378Z" stroke="#1062AA" stroke-width="3" stroke-miterlimit="10" stroke-linecap="round" stroke-linejoin="round"/>
<path d="M21.1875 30.2152L40.5275 36.8057C42.9093 37.6163 45.5054 37.6163 47.8872 36.8057L67.2272 30.2152" stroke="#1062AA" stroke-width="3" stroke-miterlimit="10" stroke-linecap="round" stroke-linejoin="round"/>
<path d="M21.1856 53.0058L2.83407 34.9026C1.44073 33.5281 1.44073 31.2842 2.83407 29.9215L30.3197 2.796C31.7131 1.42152 33.9877 1.42152 35.3691 2.796L53.3991 20.5821" stroke="#1062AA" stroke-width="3" stroke-miterlimit="10" stroke-linecap="round" stroke-linejoin="round"/>
<path d="M32.7148 20.7583L39.5505 6.90771" stroke="#1062AA" stroke-width="3" stroke-miterlimit="10" stroke-linecap="round" stroke-linejoin="round"/>
<path d="M7.00391 39.0142L21.0564 32.2593" stroke="#1062AA" stroke-width="3" stroke-miterlimit="10" stroke-linecap="round" stroke-linejoin="round"/>
</svg>
