<svg width="47" height="35" viewBox="0 0 47 35" fill="none" xmlns="http://www.w3.org/2000/svg">
<path fill-rule="evenodd" clip-rule="evenodd" d="M43.5 11H11.5V32H36.8103L43.5 25.7038V11ZM11.5 8C9.84315 8 8.5 9.34315 8.5 11V32C8.5 33.6569 9.84315 35 11.5 35H36.8103C37.5745 35 38.3099 34.7084 38.8664 34.1846L45.5561 27.8884C46.1585 27.3215 46.5 26.531 46.5 25.7038V11C46.5 9.34315 45.1569 8 43.5 8H11.5Z" fill="#64E408"/>
<path fill-rule="evenodd" clip-rule="evenodd" d="M43.5 11H11.5V32H36.8103L43.5 25.7038V11ZM11.5 8C9.84315 8 8.5 9.34315 8.5 11V32C8.5 33.6569 9.84315 35 11.5 35H36.8103C37.5745 35 38.3099 34.7084 38.8664 34.1846L45.5561 27.8884C46.1585 27.3215 46.5 26.531 46.5 25.7038V11C46.5 9.34315 45.1569 8 43.5 8H11.5Z" fill="url(#paint0_linear)"/>
<path fill-rule="evenodd" clip-rule="evenodd" d="M0 5C0 2.51472 2.01472 0.5 4.5 0.5H39.5C40.3284 0.5 41 1.17157 41 2C41 2.82843 40.3284 3.5 39.5 3.5H4.5C3.67157 3.5 3 4.17157 3 5V26C3 26.8284 3.67157 27.5 4.5 27.5H10C10.8284 27.5 11.5 28.1716 11.5 29C11.5 29.8284 10.8284 30.5 10 30.5H4.5C2.01472 30.5 0 28.4853 0 26V5Z" fill="#64E408"/>
<path fill-rule="evenodd" clip-rule="evenodd" d="M0 5C0 2.51472 2.01472 0.5 4.5 0.5H39.5C40.3284 0.5 41 1.17157 41 2C41 2.82843 40.3284 3.5 39.5 3.5H4.5C3.67157 3.5 3 4.17157 3 5V26C3 26.8284 3.67157 27.5 4.5 27.5H10C10.8284 27.5 11.5 28.1716 11.5 29C11.5 29.8284 10.8284 30.5 10 30.5H4.5C2.01472 30.5 0 28.4853 0 26V5Z" fill="url(#paint1_linear)"/>
<path fill-rule="evenodd" clip-rule="evenodd" d="M39.5 0.5C40.3284 0.5 41 1.17157 41 2V9.5C41 10.3284 40.3284 11 39.5 11C38.6716 11 38 10.3284 38 9.5V2C38 1.17157 38.6716 0.5 39.5 0.5Z" fill="#64E408"/>
<path fill-rule="evenodd" clip-rule="evenodd" d="M39.5 0.5C40.3284 0.5 41 1.17157 41 2V9.5C41 10.3284 40.3284 11 39.5 11C38.6716 11 38 10.3284 38 9.5V2C38 1.17157 38.6716 0.5 39.5 0.5Z" fill="url(#paint2_linear)"/>
<path fill-rule="evenodd" clip-rule="evenodd" d="M15 15C15 14.1716 15.6716 13.5 16.5 13.5H29.5C30.3284 13.5 31 14.1716 31 15V28C31 28.8284 30.3284 29.5 29.5 29.5H16.5C15.6716 29.5 15 28.8284 15 28V15ZM18 16.5V26.5H28V16.5H18Z" fill="#64E408"/>
<path fill-rule="evenodd" clip-rule="evenodd" d="M15 15C15 14.1716 15.6716 13.5 16.5 13.5H29.5C30.3284 13.5 31 14.1716 31 15V28C31 28.8284 30.3284 29.5 29.5 29.5H16.5C15.6716 29.5 15 28.8284 15 28V15ZM18 16.5V26.5H28V16.5H18Z" fill="url(#paint3_linear)"/>
<defs>
<linearGradient id="paint0_linear" x1="23.25" y1="0.5" x2="23.25" y2="35" gradientUnits="userSpaceOnUse">
<stop stop-color="#04CE9B"/>
<stop offset="1" stop-color="white" stop-opacity="0"/>
</linearGradient>
<linearGradient id="paint1_linear" x1="23.25" y1="0.5" x2="23.25" y2="35" gradientUnits="userSpaceOnUse">
<stop stop-color="#04CE9B"/>
<stop offset="1" stop-color="white" stop-opacity="0"/>
</linearGradient>
<linearGradient id="paint2_linear" x1="23.25" y1="0.5" x2="23.25" y2="35" gradientUnits="userSpaceOnUse">
<stop stop-color="#04CE9B"/>
<stop offset="1" stop-color="white" stop-opacity="0"/>
</linearGradient>
<linearGradient id="paint3_linear" x1="23.25" y1="0.5" x2="23.25" y2="35" gradientUnits="userSpaceOnUse">
<stop stop-color="#04CE9B"/>
<stop offset="1" stop-color="white" stop-opacity="0"/>
</linearGradient>
</defs>
</svg>
