<svg width="42" height="42" viewBox="0 0 42 42" fill="none" xmlns="http://www.w3.org/2000/svg">
<path fill-rule="evenodd" clip-rule="evenodd" d="M21 3.36047C10.9464 3.36047 2.86022 11.2928 2.86022 21C2.86022 21.7899 2.21994 22.4302 1.43011 22.4302C0.640281 22.4302 0 21.7899 0 21C0 9.64337 9.43727 0.5 21 0.5C32.5627 0.5 42 9.64337 42 21C42 21.7899 41.3597 22.4302 40.5699 22.4302C39.7801 22.4302 39.1398 21.7899 39.1398 21C39.1398 11.2928 31.0536 3.36047 21 3.36047ZM21 9.3825C14.3701 9.3825 8.88174 15.1905 8.88174 22.0037C8.88174 22.7936 8.24146 23.4339 7.45163 23.4339C6.6618 23.4339 6.02152 22.7936 6.02152 22.0037C6.02152 13.7395 12.6648 6.52203 21 6.52203C29.3353 6.52203 35.9785 13.7395 35.9785 22.0037C35.9785 22.7936 35.3382 23.4339 34.5484 23.4339C33.7586 23.4339 33.1183 22.7936 33.1183 22.0037C33.1183 15.1905 27.6299 9.3825 21 9.3825ZM21 17.4119C19.2957 17.4119 17.914 18.7937 17.914 20.4982C17.914 22.2027 19.2957 23.5845 21 23.5845C22.7044 23.5845 24.0861 22.2027 24.0861 20.4982C24.0861 18.7937 22.7044 17.4119 21 17.4119ZM15.0538 20.4982C15.0538 17.2139 17.716 14.5514 21 14.5514C24.2841 14.5514 26.9463 17.2139 26.9463 20.4982C26.9463 23.1062 25.2676 25.322 22.9319 26.124V31.448L30.5417 39.0584C31.1002 39.617 31.1002 40.5225 30.5417 41.0811C29.9833 41.6396 29.0778 41.6396 28.5193 41.0811L21.5018 34.063L14.4844 41.0811C13.9259 41.6396 13.0204 41.6396 12.4619 41.0811C11.9034 40.5226 11.9034 39.617 12.4619 39.0584L20.0717 31.448V26.3729C17.2286 25.9271 15.0538 23.4666 15.0538 20.4982Z" fill="#64E408"/>
<path fill-rule="evenodd" clip-rule="evenodd" d="M21 3.36047C10.9464 3.36047 2.86022 11.2928 2.86022 21C2.86022 21.7899 2.21994 22.4302 1.43011 22.4302C0.640281 22.4302 0 21.7899 0 21C0 9.64337 9.43727 0.5 21 0.5C32.5627 0.5 42 9.64337 42 21C42 21.7899 41.3597 22.4302 40.5699 22.4302C39.7801 22.4302 39.1398 21.7899 39.1398 21C39.1398 11.2928 31.0536 3.36047 21 3.36047ZM21 9.3825C14.3701 9.3825 8.88174 15.1905 8.88174 22.0037C8.88174 22.7936 8.24146 23.4339 7.45163 23.4339C6.6618 23.4339 6.02152 22.7936 6.02152 22.0037C6.02152 13.7395 12.6648 6.52203 21 6.52203C29.3353 6.52203 35.9785 13.7395 35.9785 22.0037C35.9785 22.7936 35.3382 23.4339 34.5484 23.4339C33.7586 23.4339 33.1183 22.7936 33.1183 22.0037C33.1183 15.1905 27.6299 9.3825 21 9.3825ZM21 17.4119C19.2957 17.4119 17.914 18.7937 17.914 20.4982C17.914 22.2027 19.2957 23.5845 21 23.5845C22.7044 23.5845 24.0861 22.2027 24.0861 20.4982C24.0861 18.7937 22.7044 17.4119 21 17.4119ZM15.0538 20.4982C15.0538 17.2139 17.716 14.5514 21 14.5514C24.2841 14.5514 26.9463 17.2139 26.9463 20.4982C26.9463 23.1062 25.2676 25.322 22.9319 26.124V31.448L30.5417 39.0584C31.1002 39.617 31.1002 40.5225 30.5417 41.0811C29.9833 41.6396 29.0778 41.6396 28.5193 41.0811L21.5018 34.063L14.4844 41.0811C13.9259 41.6396 13.0204 41.6396 12.4619 41.0811C11.9034 40.5226 11.9034 39.617 12.4619 39.0584L20.0717 31.448V26.3729C17.2286 25.9271 15.0538 23.4666 15.0538 20.4982Z" fill="url(#paint0_linear)"/>
<defs>
<linearGradient id="paint0_linear" x1="21" y1="0.5" x2="21" y2="41.5" gradientUnits="userSpaceOnUse">
<stop stop-color="#04CE9B"/>
<stop offset="1" stop-color="white" stop-opacity="0"/>
</linearGradient>
</defs>
</svg>
