<svg width="355" height="2" viewBox="0 0 355 2" fill="none" xmlns="http://www.w3.org/2000/svg">
<path fill-rule="evenodd" clip-rule="evenodd" d="M0 1C0 0.447715 0.447715 0 1 0H4.26852C4.8208 0 5.26852 0.447715 5.26852 1C5.26852 1.55228 4.8208 2 4.26852 2H1C0.447715 2 0 1.55228 0 1ZM9.80556 1C9.80556 0.447715 10.2533 0 10.8056 0H17.3426C17.8949 0 18.3426 0.447715 18.3426 1C18.3426 1.55228 17.8949 2 17.3426 2H10.8056C10.2533 2 9.80556 1.55228 9.80556 1ZM22.8796 1C22.8796 0.447715 23.3273 0 23.8796 0H30.4167C30.969 0 31.4167 0.447715 31.4167 1C31.4167 1.55228 30.969 2 30.4167 2H23.8796C23.3273 2 22.8796 1.55228 22.8796 1ZM35.9537 1C35.9537 0.447715 36.4014 0 36.9537 0H43.4907C44.043 0 44.4907 0.447715 44.4907 1C44.4907 1.55228 44.043 2 43.4907 2H36.9537C36.4014 2 35.9537 1.55228 35.9537 1ZM49.0278 1C49.0278 0.447715 49.4755 0 50.0278 0H56.5648C57.1171 0 57.5648 0.447715 57.5648 1C57.5648 1.55228 57.1171 2 56.5648 2H50.0278C49.4755 2 49.0278 1.55228 49.0278 1ZM62.1019 1C62.1019 0.447715 62.5496 0 63.1019 0H69.6389C70.1912 0 70.6389 0.447715 70.6389 1C70.6389 1.55228 70.1912 2 69.6389 2H63.1019C62.5496 2 62.1019 1.55228 62.1019 1ZM75.1759 1C75.1759 0.447715 75.6236 0 76.1759 0H82.713C83.2652 0 83.713 0.447715 83.713 1C83.713 1.55228 83.2652 2 82.713 2H76.1759C75.6236 2 75.1759 1.55228 75.1759 1ZM88.25 1C88.25 0.447715 88.6977 0 89.25 0H95.787C96.3393 0 96.787 0.447715 96.787 1C96.787 1.55228 96.3393 2 95.787 2H89.25C88.6977 2 88.25 1.55228 88.25 1ZM101.324 1C101.324 0.447715 101.772 0 102.324 0H108.861C109.413 0 109.861 0.447715 109.861 1C109.861 1.55228 109.413 2 108.861 2H102.324C101.772 2 101.324 1.55228 101.324 1ZM114.398 1C114.398 0.447715 114.846 0 115.398 0H121.935C122.487 0 122.935 0.447715 122.935 1C122.935 1.55228 122.487 2 121.935 2H115.398C114.846 2 114.398 1.55228 114.398 1ZM127.472 1C127.472 0.447715 127.92 0 128.472 0H135.009C135.562 0 136.009 0.447715 136.009 1C136.009 1.55228 135.562 2 135.009 2H128.472C127.92 2 127.472 1.55228 127.472 1ZM140.546 1C140.546 0.447715 140.994 0 141.546 0H148.083C148.636 0 149.083 0.447715 149.083 1C149.083 1.55228 148.636 2 148.083 2H141.546C140.994 2 140.546 1.55228 140.546 1ZM153.62 1C153.62 0.447715 154.068 0 154.62 0H161.157C161.71 0 162.157 0.447715 162.157 1C162.157 1.55228 161.71 2 161.157 2H154.62C154.068 2 153.62 1.55228 153.62 1ZM166.694 1C166.694 0.447715 167.142 0 167.694 0H174.231C174.784 0 175.231 0.447715 175.231 1C175.231 1.55228 174.784 2 174.231 2H167.694C167.142 2 166.694 1.55228 166.694 1ZM179.768 1C179.768 0.447715 180.216 0 180.768 0H187.305C187.858 0 188.305 0.447715 188.305 1C188.305 1.55228 187.858 2 187.305 2H180.768C180.216 2 179.768 1.55228 179.768 1ZM192.843 1C192.843 0.447715 193.29 0 193.843 0H200.38C200.932 0 201.38 0.447715 201.38 1C201.38 1.55228 200.932 2 200.38 2H193.843C193.29 2 192.843 1.55228 192.843 1ZM205.917 1C205.917 0.447715 206.364 0 206.917 0H213.454C214.006 0 214.454 0.447715 214.454 1C214.454 1.55228 214.006 2 213.454 2H206.917C206.364 2 205.917 1.55228 205.917 1ZM218.991 1C218.991 0.447715 219.438 0 219.991 0H226.528C227.08 0 227.528 0.447715 227.528 1C227.528 1.55228 227.08 2 226.528 2H219.991C219.438 2 218.991 1.55228 218.991 1ZM232.065 1C232.065 0.447715 232.512 0 233.065 0H239.602C240.154 0 240.602 0.447715 240.602 1C240.602 1.55228 240.154 2 239.602 2H233.065C232.512 2 232.065 1.55228 232.065 1ZM245.139 1C245.139 0.447715 245.586 0 246.139 0H252.676C253.228 0 253.676 0.447715 253.676 1C253.676 1.55228 253.228 2 252.676 2H246.139C245.586 2 245.139 1.55228 245.139 1ZM258.213 1C258.213 0.447715 258.661 0 259.213 0H265.75C266.302 0 266.75 0.447715 266.75 1C266.75 1.55228 266.302 2 265.75 2H259.213C258.661 2 258.213 1.55228 258.213 1ZM271.287 1C271.287 0.447715 271.735 0 272.287 0H278.824C279.376 0 279.824 0.447715 279.824 1C279.824 1.55228 279.376 2 278.824 2H272.287C271.735 2 271.287 1.55228 271.287 1ZM284.361 1C284.361 0.447715 284.809 0 285.361 0H291.898C292.45 0 292.898 0.447715 292.898 1C292.898 1.55228 292.45 2 291.898 2H285.361C284.809 2 284.361 1.55228 284.361 1ZM297.435 1C297.435 0.447715 297.883 0 298.435 0H304.972C305.524 0 305.972 0.447715 305.972 1C305.972 1.55228 305.524 2 304.972 2H298.435C297.883 2 297.435 1.55228 297.435 1ZM310.509 1C310.509 0.447715 310.957 0 311.509 0H318.046C318.599 0 319.046 0.447715 319.046 1C319.046 1.55228 318.599 2 318.046 2H311.509C310.957 2 310.509 1.55228 310.509 1ZM323.583 1C323.583 0.447715 324.031 0 324.583 0H331.12C331.673 0 332.12 0.447715 332.12 1C332.12 1.55228 331.673 2 331.12 2H324.583C324.031 2 323.583 1.55228 323.583 1ZM336.657 1C336.657 0.447715 337.105 0 337.657 0H344.194C344.747 0 345.194 0.447715 345.194 1C345.194 1.55228 344.747 2 344.194 2H337.657C337.105 2 336.657 1.55228 336.657 1ZM349.732 1C349.732 0.447715 350.179 0 350.732 0H354C354.552 0 355 0.447715 355 1C355 1.55228 354.552 2 354 2H350.732C350.179 2 349.732 1.55228 349.732 1Z" fill="#64E408"/>
<path fill-rule="evenodd" clip-rule="evenodd" d="M0 1C0 0.447715 0.447715 0 1 0H4.26852C4.8208 0 5.26852 0.447715 5.26852 1C5.26852 1.55228 4.8208 2 4.26852 2H1C0.447715 2 0 1.55228 0 1ZM9.80556 1C9.80556 0.447715 10.2533 0 10.8056 0H17.3426C17.8949 0 18.3426 0.447715 18.3426 1C18.3426 1.55228 17.8949 2 17.3426 2H10.8056C10.2533 2 9.80556 1.55228 9.80556 1ZM22.8796 1C22.8796 0.447715 23.3273 0 23.8796 0H30.4167C30.969 0 31.4167 0.447715 31.4167 1C31.4167 1.55228 30.969 2 30.4167 2H23.8796C23.3273 2 22.8796 1.55228 22.8796 1ZM35.9537 1C35.9537 0.447715 36.4014 0 36.9537 0H43.4907C44.043 0 44.4907 0.447715 44.4907 1C44.4907 1.55228 44.043 2 43.4907 2H36.9537C36.4014 2 35.9537 1.55228 35.9537 1ZM49.0278 1C49.0278 0.447715 49.4755 0 50.0278 0H56.5648C57.1171 0 57.5648 0.447715 57.5648 1C57.5648 1.55228 57.1171 2 56.5648 2H50.0278C49.4755 2 49.0278 1.55228 49.0278 1ZM62.1019 1C62.1019 0.447715 62.5496 0 63.1019 0H69.6389C70.1912 0 70.6389 0.447715 70.6389 1C70.6389 1.55228 70.1912 2 69.6389 2H63.1019C62.5496 2 62.1019 1.55228 62.1019 1ZM75.1759 1C75.1759 0.447715 75.6236 0 76.1759 0H82.713C83.2652 0 83.713 0.447715 83.713 1C83.713 1.55228 83.2652 2 82.713 2H76.1759C75.6236 2 75.1759 1.55228 75.1759 1ZM88.25 1C88.25 0.447715 88.6977 0 89.25 0H95.787C96.3393 0 96.787 0.447715 96.787 1C96.787 1.55228 96.3393 2 95.787 2H89.25C88.6977 2 88.25 1.55228 88.25 1ZM101.324 1C101.324 0.447715 101.772 0 102.324 0H108.861C109.413 0 109.861 0.447715 109.861 1C109.861 1.55228 109.413 2 108.861 2H102.324C101.772 2 101.324 1.55228 101.324 1ZM114.398 1C114.398 0.447715 114.846 0 115.398 0H121.935C122.487 0 122.935 0.447715 122.935 1C122.935 1.55228 122.487 2 121.935 2H115.398C114.846 2 114.398 1.55228 114.398 1ZM127.472 1C127.472 0.447715 127.92 0 128.472 0H135.009C135.562 0 136.009 0.447715 136.009 1C136.009 1.55228 135.562 2 135.009 2H128.472C127.92 2 127.472 1.55228 127.472 1ZM140.546 1C140.546 0.447715 140.994 0 141.546 0H148.083C148.636 0 149.083 0.447715 149.083 1C149.083 1.55228 148.636 2 148.083 2H141.546C140.994 2 140.546 1.55228 140.546 1ZM153.62 1C153.62 0.447715 154.068 0 154.62 0H161.157C161.71 0 162.157 0.447715 162.157 1C162.157 1.55228 161.71 2 161.157 2H154.62C154.068 2 153.62 1.55228 153.62 1ZM166.694 1C166.694 0.447715 167.142 0 167.694 0H174.231C174.784 0 175.231 0.447715 175.231 1C175.231 1.55228 174.784 2 174.231 2H167.694C167.142 2 166.694 1.55228 166.694 1ZM179.768 1C179.768 0.447715 180.216 0 180.768 0H187.305C187.858 0 188.305 0.447715 188.305 1C188.305 1.55228 187.858 2 187.305 2H180.768C180.216 2 179.768 1.55228 179.768 1ZM192.843 1C192.843 0.447715 193.29 0 193.843 0H200.38C200.932 0 201.38 0.447715 201.38 1C201.38 1.55228 200.932 2 200.38 2H193.843C193.29 2 192.843 1.55228 192.843 1ZM205.917 1C205.917 0.447715 206.364 0 206.917 0H213.454C214.006 0 214.454 0.447715 214.454 1C214.454 1.55228 214.006 2 213.454 2H206.917C206.364 2 205.917 1.55228 205.917 1ZM218.991 1C218.991 0.447715 219.438 0 219.991 0H226.528C227.08 0 227.528 0.447715 227.528 1C227.528 1.55228 227.08 2 226.528 2H219.991C219.438 2 218.991 1.55228 218.991 1ZM232.065 1C232.065 0.447715 232.512 0 233.065 0H239.602C240.154 0 240.602 0.447715 240.602 1C240.602 1.55228 240.154 2 239.602 2H233.065C232.512 2 232.065 1.55228 232.065 1ZM245.139 1C245.139 0.447715 245.586 0 246.139 0H252.676C253.228 0 253.676 0.447715 253.676 1C253.676 1.55228 253.228 2 252.676 2H246.139C245.586 2 245.139 1.55228 245.139 1ZM258.213 1C258.213 0.447715 258.661 0 259.213 0H265.75C266.302 0 266.75 0.447715 266.75 1C266.75 1.55228 266.302 2 265.75 2H259.213C258.661 2 258.213 1.55228 258.213 1ZM271.287 1C271.287 0.447715 271.735 0 272.287 0H278.824C279.376 0 279.824 0.447715 279.824 1C279.824 1.55228 279.376 2 278.824 2H272.287C271.735 2 271.287 1.55228 271.287 1ZM284.361 1C284.361 0.447715 284.809 0 285.361 0H291.898C292.45 0 292.898 0.447715 292.898 1C292.898 1.55228 292.45 2 291.898 2H285.361C284.809 2 284.361 1.55228 284.361 1ZM297.435 1C297.435 0.447715 297.883 0 298.435 0H304.972C305.524 0 305.972 0.447715 305.972 1C305.972 1.55228 305.524 2 304.972 2H298.435C297.883 2 297.435 1.55228 297.435 1ZM310.509 1C310.509 0.447715 310.957 0 311.509 0H318.046C318.599 0 319.046 0.447715 319.046 1C319.046 1.55228 318.599 2 318.046 2H311.509C310.957 2 310.509 1.55228 310.509 1ZM323.583 1C323.583 0.447715 324.031 0 324.583 0H331.12C331.673 0 332.12 0.447715 332.12 1C332.12 1.55228 331.673 2 331.12 2H324.583C324.031 2 323.583 1.55228 323.583 1ZM336.657 1C336.657 0.447715 337.105 0 337.657 0H344.194C344.747 0 345.194 0.447715 345.194 1C345.194 1.55228 344.747 2 344.194 2H337.657C337.105 2 336.657 1.55228 336.657 1ZM349.732 1C349.732 0.447715 350.179 0 350.732 0H354C354.552 0 355 0.447715 355 1C355 1.55228 354.552 2 354 2H350.732C350.179 2 349.732 1.55228 349.732 1Z" fill="url(#paint0_linear)"/>
<defs>
<linearGradient id="paint0_linear" x1="355" y1="2.00186" x2="0" y2="2.00186" gradientUnits="userSpaceOnUse">
<stop stop-color="white"/>
<stop offset="1" stop-color="white" stop-opacity="0"/>
</linearGradient>
</defs>
</svg>
