<svg width="31" height="42" viewBox="0 0 31 42" fill="none" xmlns="http://www.w3.org/2000/svg">
<path fill-rule="evenodd" clip-rule="evenodd" d="M15.0437 3.5C12.8942 3.5 10.7839 4.07526 8.93174 5.16607C7.07961 6.25689 5.55316 7.8235 4.51082 9.70333C3.46848 11.5832 2.94823 13.7077 3.00406 15.8565C3.05965 17.9959 3.68432 20.0817 4.81354 21.8993L15.0593 36.9835L25.2732 21.9002C26.4028 20.0824 27.0276 17.9962 27.0832 15.8565C27.139 13.7077 26.6188 11.5832 25.5765 9.70333C24.5341 7.8235 23.0077 6.25689 21.1555 5.16607C19.3034 4.07526 17.1931 3.5 15.0437 3.5ZM7.4093 2.58108C9.72277 1.21855 12.3588 0.5 15.0437 0.5C17.7286 0.5 20.3645 1.21855 22.678 2.58108C24.9915 3.94361 26.8981 5.90045 28.2001 8.24854C29.5021 10.5966 30.1519 13.2504 30.0822 15.9344C30.0125 18.6184 29.2257 21.2348 27.8035 23.5121C27.7937 23.5278 27.7837 23.5433 27.7733 23.5586L16.3032 40.4969C16.0243 40.9087 15.5595 41.1555 15.0622 41.1559C14.5649 41.1562 14.0997 40.9101 13.8203 40.4987L2.31522 23.5604C2.30443 23.5445 2.29394 23.5284 2.28377 23.5121C0.861606 21.2348 0.0748155 18.6184 0.00507677 15.9344C-0.0646617 13.2504 0.585178 10.5966 1.88716 8.24854C3.18915 5.90045 5.09582 3.94361 7.4093 2.58108ZM15.0521 11.1633C12.6334 11.1633 10.6727 13.124 10.6727 15.5427C10.6727 17.9614 12.6334 19.9221 15.0521 19.9221C17.4708 19.9221 19.4315 17.9614 19.4315 15.5427C19.4315 13.124 17.4708 11.1633 15.0521 11.1633ZM7.67271 15.5427C7.67271 11.4671 10.9766 8.16327 15.0521 8.16327C19.1277 8.16327 22.4315 11.4671 22.4315 15.5427C22.4315 19.6182 19.1277 22.9221 15.0521 22.9221C10.9766 22.9221 7.67271 19.6182 7.67271 15.5427Z" fill="#64E408"/>
<path fill-rule="evenodd" clip-rule="evenodd" d="M15.0437 3.5C12.8942 3.5 10.7839 4.07526 8.93174 5.16607C7.07961 6.25689 5.55316 7.8235 4.51082 9.70333C3.46848 11.5832 2.94823 13.7077 3.00406 15.8565C3.05965 17.9959 3.68432 20.0817 4.81354 21.8993L15.0593 36.9835L25.2732 21.9002C26.4028 20.0824 27.0276 17.9962 27.0832 15.8565C27.139 13.7077 26.6188 11.5832 25.5765 9.70333C24.5341 7.8235 23.0077 6.25689 21.1555 5.16607C19.3034 4.07526 17.1931 3.5 15.0437 3.5ZM7.4093 2.58108C9.72277 1.21855 12.3588 0.5 15.0437 0.5C17.7286 0.5 20.3645 1.21855 22.678 2.58108C24.9915 3.94361 26.8981 5.90045 28.2001 8.24854C29.5021 10.5966 30.1519 13.2504 30.0822 15.9344C30.0125 18.6184 29.2257 21.2348 27.8035 23.5121C27.7937 23.5278 27.7837 23.5433 27.7733 23.5586L16.3032 40.4969C16.0243 40.9087 15.5595 41.1555 15.0622 41.1559C14.5649 41.1562 14.0997 40.9101 13.8203 40.4987L2.31522 23.5604C2.30443 23.5445 2.29394 23.5284 2.28377 23.5121C0.861606 21.2348 0.0748155 18.6184 0.00507677 15.9344C-0.0646617 13.2504 0.585178 10.5966 1.88716 8.24854C3.18915 5.90045 5.09582 3.94361 7.4093 2.58108ZM15.0521 11.1633C12.6334 11.1633 10.6727 13.124 10.6727 15.5427C10.6727 17.9614 12.6334 19.9221 15.0521 19.9221C17.4708 19.9221 19.4315 17.9614 19.4315 15.5427C19.4315 13.124 17.4708 11.1633 15.0521 11.1633ZM7.67271 15.5427C7.67271 11.4671 10.9766 8.16327 15.0521 8.16327C19.1277 8.16327 22.4315 11.4671 22.4315 15.5427C22.4315 19.6182 19.1277 22.9221 15.0521 22.9221C10.9766 22.9221 7.67271 19.6182 7.67271 15.5427Z" fill="url(#paint0_linear)"/>
<defs>
<linearGradient id="paint0_linear" x1="15.0436" y1="0.5" x2="15.0436" y2="41.1559" gradientUnits="userSpaceOnUse">
<stop stop-color="#04CE9B"/>
<stop offset="1" stop-color="white" stop-opacity="0"/>
</linearGradient>
</defs>
</svg>
