<svg width="53" height="53" viewBox="0 0 53 53" fill="none" xmlns="http://www.w3.org/2000/svg">
<circle cx="26.5" cy="26.5" r="26.5" fill="white"/>
<path fill-rule="evenodd" clip-rule="evenodd" d="M21 41.2H32C35.866 41.2 39 38.066 39 34.2L39 16.2L14 16.2L14 34.2C14 38.066 17.134 41.2 21 41.2ZM32 44.2C37.5228 44.2 42 39.7228 42 34.2L42 16.2C42 14.5431 40.6569 13.2 39 13.2L14 13.2C12.3431 13.2 11 14.5431 11 16.2L11 34.2C11 39.7228 15.4772 44.2 21 44.2H32Z" fill="#64E408"/>
<path fill-rule="evenodd" clip-rule="evenodd" d="M21 41.2H32C35.866 41.2 39 38.066 39 34.2L39 16.2L14 16.2L14 34.2C14 38.066 17.134 41.2 21 41.2ZM32 44.2C37.5228 44.2 42 39.7228 42 34.2L42 16.2C42 14.5431 40.6569 13.2 39 13.2L14 13.2C12.3431 13.2 11 14.5431 11 16.2L11 34.2C11 39.7228 15.4772 44.2 21 44.2H32Z" fill="url(#paint0_linear)"/>
<path fill-rule="evenodd" clip-rule="evenodd" d="M25.9833 8.5C22.5316 8.5 19.7333 11.2982 19.7333 14.75H16.7333C16.7333 9.64137 20.8747 5.5 25.9833 5.5C31.092 5.5 35.2333 9.64137 35.2333 14.75H32.2333C32.2333 11.2982 29.4351 8.5 25.9833 8.5Z" fill="#64E408"/>
<path fill-rule="evenodd" clip-rule="evenodd" d="M25.9833 8.5C22.5316 8.5 19.7333 11.2982 19.7333 14.75H16.7333C16.7333 9.64137 20.8747 5.5 25.9833 5.5C31.092 5.5 35.2333 9.64137 35.2333 14.75H32.2333C32.2333 11.2982 29.4351 8.5 25.9833 8.5Z" fill="url(#paint1_linear)"/>
<path d="M29 26C29 27.6569 27.6569 29 26 29C24.3431 29 23 27.6569 23 26C23 24.3431 24.3431 23 26 23C27.6569 23 29 24.3431 29 26Z" fill="#64E408"/>
<path d="M29 26C29 27.6569 27.6569 29 26 29C24.3431 29 23 27.6569 23 26C23 24.3431 24.3431 23 26 23C27.6569 23 29 24.3431 29 26Z" fill="url(#paint2_linear)"/>
<path d="M23.4387 32.6838L24.7721 28.6838C24.9082 28.2754 25.2903 28 25.7208 28H26.2792C26.7097 28 27.0918 28.2754 27.2279 28.6838L28.5613 32.6838C28.7771 33.3313 28.2951 34 27.6126 34H24.3874C23.7049 34 23.2229 33.3313 23.4387 32.6838Z" fill="#64E408"/>
<path d="M23.4387 32.6838L24.7721 28.6838C24.9082 28.2754 25.2903 28 25.7208 28H26.2792C26.7097 28 27.0918 28.2754 27.2279 28.6838L28.5613 32.6838C28.7771 33.3313 28.2951 34 27.6126 34H24.3874C23.7049 34 23.2229 33.3313 23.4387 32.6838Z" fill="url(#paint3_linear)"/>
<defs>
<linearGradient id="paint0_linear" x1="26.5" y1="5.5" x2="26.5" y2="44.2" gradientUnits="userSpaceOnUse">
<stop stop-color="#04CE9B"/>
<stop offset="1" stop-color="white" stop-opacity="0"/>
</linearGradient>
<linearGradient id="paint1_linear" x1="26.5" y1="5.5" x2="26.5" y2="44.2" gradientUnits="userSpaceOnUse">
<stop stop-color="#04CE9B"/>
<stop offset="1" stop-color="white" stop-opacity="0"/>
</linearGradient>
<linearGradient id="paint2_linear" x1="26.5" y1="5.5" x2="26.5" y2="44.2" gradientUnits="userSpaceOnUse">
<stop stop-color="#04CE9B"/>
<stop offset="1" stop-color="white" stop-opacity="0"/>
</linearGradient>
<linearGradient id="paint3_linear" x1="26.5" y1="5.5" x2="26.5" y2="44.2" gradientUnits="userSpaceOnUse">
<stop stop-color="#04CE9B"/>
<stop offset="1" stop-color="white" stop-opacity="0"/>
</linearGradient>
</defs>
</svg>
