<svg width="38" height="42" viewBox="0 0 38 42" fill="none" xmlns="http://www.w3.org/2000/svg">
<path fill-rule="evenodd" clip-rule="evenodd" d="M0 7.5C0 3.35786 3.35786 0 7.5 0H30.5C34.6421 0 38 3.35786 38 7.5V42H0V7.5ZM7.5 3C5.01472 3 3 5.01472 3 7.5V39H35V7.5C35 5.01472 32.9853 3 30.5 3H7.5Z" fill="#64E408"/>
<path fill-rule="evenodd" clip-rule="evenodd" d="M0 7.5C0 3.35786 3.35786 0 7.5 0H30.5C34.6421 0 38 3.35786 38 7.5V42H0V7.5ZM7.5 3C5.01472 3 3 5.01472 3 7.5V39H35V7.5C35 5.01472 32.9853 3 30.5 3H7.5Z" fill="url(#paint0_linear)"/>
<path fill-rule="evenodd" clip-rule="evenodd" d="M36.5 13.5L2.5 13.5L2.5 10.5L36.5 10.5V13.5Z" fill="#64E408"/>
<path fill-rule="evenodd" clip-rule="evenodd" d="M36.5 13.5L2.5 13.5L2.5 10.5L36.5 10.5V13.5Z" fill="url(#paint1_linear)"/>
<path fill-rule="evenodd" clip-rule="evenodd" d="M19 21C13.8042 21 10 24.5665 10 28.5C10 29.3284 9.32843 30 8.5 30C7.67157 30 7 29.3284 7 28.5C7 22.4924 12.5978 18 19 18C25.4022 18 31 22.4924 31 28.5C31 29.3284 30.3284 30 29.5 30C28.6716 30 28 29.3284 28 28.5C28 24.5665 24.1958 21 19 21Z" fill="#64E408"/>
<path fill-rule="evenodd" clip-rule="evenodd" d="M19 21C13.8042 21 10 24.5665 10 28.5C10 29.3284 9.32843 30 8.5 30C7.67157 30 7 29.3284 7 28.5C7 22.4924 12.5978 18 19 18C25.4022 18 31 22.4924 31 28.5C31 29.3284 30.3284 30 29.5 30C28.6716 30 28 29.3284 28 28.5C28 24.5665 24.1958 21 19 21Z" fill="url(#paint2_linear)"/>
<path fill-rule="evenodd" clip-rule="evenodd" d="M19 25C16.1233 25 14 27.1255 14 29.5C14 30.3284 13.3284 31 12.5 31C11.6716 31 11 30.3284 11 29.5C11 25.2471 14.697 22 19 22C23.303 22 27 25.2471 27 29.5C27 30.3284 26.3284 31 25.5 31C24.6716 31 24 30.3284 24 29.5C24 27.1255 21.8767 25 19 25Z" fill="#64E408"/>
<path fill-rule="evenodd" clip-rule="evenodd" d="M19 25C16.1233 25 14 27.1255 14 29.5C14 30.3284 13.3284 31 12.5 31C11.6716 31 11 30.3284 11 29.5C11 25.2471 14.697 22 19 22C23.303 22 27 25.2471 27 29.5C27 30.3284 26.3284 31 25.5 31C24.6716 31 24 30.3284 24 29.5C24 27.1255 21.8767 25 19 25Z" fill="url(#paint3_linear)"/>
<path fill-rule="evenodd" clip-rule="evenodd" d="M18.1693 29.2571C18.0037 29.3896 18 29.485 18 29.5C18 30.3284 17.3284 31 16.5 31C15.6716 31 15 30.3284 15 29.5C15 27.272 17.1205 26 19 26C20.8795 26 23 27.272 23 29.5C23 30.3284 22.3284 31 21.5 31C20.6716 31 20 30.3284 20 29.5C20 29.485 19.9963 29.3896 19.8307 29.2571C19.6624 29.1224 19.3736 29 19 29C18.6264 29 18.3376 29.1224 18.1693 29.2571Z" fill="#64E408"/>
<path fill-rule="evenodd" clip-rule="evenodd" d="M18.1693 29.2571C18.0037 29.3896 18 29.485 18 29.5C18 30.3284 17.3284 31 16.5 31C15.6716 31 15 30.3284 15 29.5C15 27.272 17.1205 26 19 26C20.8795 26 23 27.272 23 29.5C23 30.3284 22.3284 31 21.5 31C20.6716 31 20 30.3284 20 29.5C20 29.485 19.9963 29.3896 19.8307 29.2571C19.6624 29.1224 19.3736 29 19 29C18.6264 29 18.3376 29.1224 18.1693 29.2571Z" fill="url(#paint4_linear)"/>
<path fill-rule="evenodd" clip-rule="evenodd" d="M12.5 7C12.5 6.17157 13.1716 5.5 14 5.5H24C24.8284 5.5 25.5 6.17157 25.5 7C25.5 7.82843 24.8284 8.5 24 8.5H14C13.1716 8.5 12.5 7.82843 12.5 7Z" fill="#64E408"/>
<path fill-rule="evenodd" clip-rule="evenodd" d="M12.5 7C12.5 6.17157 13.1716 5.5 14 5.5H24C24.8284 5.5 25.5 6.17157 25.5 7C25.5 7.82843 24.8284 8.5 24 8.5H14C13.1716 8.5 12.5 7.82843 12.5 7Z" fill="url(#paint5_linear)"/>
<defs>
<linearGradient id="paint0_linear" x1="19" y1="0" x2="19" y2="42" gradientUnits="userSpaceOnUse">
<stop stop-color="#04CE9B"/>
<stop offset="1" stop-color="white" stop-opacity="0"/>
</linearGradient>
<linearGradient id="paint1_linear" x1="19" y1="0" x2="19" y2="42" gradientUnits="userSpaceOnUse">
<stop stop-color="#04CE9B"/>
<stop offset="1" stop-color="white" stop-opacity="0"/>
</linearGradient>
<linearGradient id="paint2_linear" x1="19" y1="0" x2="19" y2="42" gradientUnits="userSpaceOnUse">
<stop stop-color="#04CE9B"/>
<stop offset="1" stop-color="white" stop-opacity="0"/>
</linearGradient>
<linearGradient id="paint3_linear" x1="19" y1="0" x2="19" y2="42" gradientUnits="userSpaceOnUse">
<stop stop-color="#04CE9B"/>
<stop offset="1" stop-color="white" stop-opacity="0"/>
</linearGradient>
<linearGradient id="paint4_linear" x1="19" y1="0" x2="19" y2="42" gradientUnits="userSpaceOnUse">
<stop stop-color="#04CE9B"/>
<stop offset="1" stop-color="white" stop-opacity="0"/>
</linearGradient>
<linearGradient id="paint5_linear" x1="19" y1="0" x2="19" y2="42" gradientUnits="userSpaceOnUse">
<stop stop-color="#04CE9B"/>
<stop offset="1" stop-color="white" stop-opacity="0"/>
</linearGradient>
</defs>
</svg>
