<svg width="53" height="53" viewBox="0 0 53 53" fill="none" xmlns="http://www.w3.org/2000/svg">
<circle cx="26.5" cy="26.5" r="26.5" fill="white"/>
<path fill-rule="evenodd" clip-rule="evenodd" d="M26.5437 8.5C24.3942 8.5 22.2839 9.07526 20.4317 10.1661C18.5796 11.2569 17.0532 12.8235 16.0108 14.7033C14.9685 16.5832 14.4482 18.7077 14.5041 20.8565C14.5597 22.9959 15.1843 25.0817 16.3135 26.8993L26.5593 41.9835L36.7732 26.9002C37.9028 25.0824 38.5276 22.9962 38.5832 20.8565C38.639 18.7077 38.1188 16.5832 37.0765 14.7033C36.0341 12.8235 34.5077 11.2569 32.6555 10.1661C30.8034 9.07526 28.6931 8.5 26.5437 8.5ZM18.9093 7.58108C21.2228 6.21855 23.8588 5.5 26.5437 5.5C29.2286 5.5 31.8645 6.21855 34.178 7.58108C36.4915 8.94361 38.3981 10.9004 39.7001 13.2485C41.0021 15.5966 41.6519 18.2504 41.5822 20.9344C41.5125 23.6184 40.7257 26.2348 39.3035 28.5121C39.2937 28.5278 39.2837 28.5433 39.2733 28.5586L27.8032 45.4969C27.5243 45.9087 27.0595 46.1555 26.5622 46.1559C26.0649 46.1562 25.5997 45.9101 25.3203 45.4987L13.8152 28.5604C13.8044 28.5445 13.7939 28.5284 13.7838 28.5121C12.3616 26.2348 11.5748 23.6184 11.5051 20.9344C11.4353 18.2504 12.0852 15.5966 13.3872 13.2485C14.6891 10.9004 16.5958 8.94361 18.9093 7.58108ZM26.5521 16.1633C24.1334 16.1633 22.1727 18.124 22.1727 20.5427C22.1727 22.9614 24.1334 24.9221 26.5521 24.9221C28.9708 24.9221 30.9315 22.9614 30.9315 20.5427C30.9315 18.124 28.9708 16.1633 26.5521 16.1633ZM19.1727 20.5427C19.1727 16.4671 22.4766 13.1633 26.5521 13.1633C30.6277 13.1633 33.9315 16.4671 33.9315 20.5427C33.9315 24.6182 30.6277 27.9221 26.5521 27.9221C22.4766 27.9221 19.1727 24.6182 19.1727 20.5427Z" fill="#64E408"/>
<path fill-rule="evenodd" clip-rule="evenodd" d="M26.5437 8.5C24.3942 8.5 22.2839 9.07526 20.4317 10.1661C18.5796 11.2569 17.0532 12.8235 16.0108 14.7033C14.9685 16.5832 14.4482 18.7077 14.5041 20.8565C14.5597 22.9959 15.1843 25.0817 16.3135 26.8993L26.5593 41.9835L36.7732 26.9002C37.9028 25.0824 38.5276 22.9962 38.5832 20.8565C38.639 18.7077 38.1188 16.5832 37.0765 14.7033C36.0341 12.8235 34.5077 11.2569 32.6555 10.1661C30.8034 9.07526 28.6931 8.5 26.5437 8.5ZM18.9093 7.58108C21.2228 6.21855 23.8588 5.5 26.5437 5.5C29.2286 5.5 31.8645 6.21855 34.178 7.58108C36.4915 8.94361 38.3981 10.9004 39.7001 13.2485C41.0021 15.5966 41.6519 18.2504 41.5822 20.9344C41.5125 23.6184 40.7257 26.2348 39.3035 28.5121C39.2937 28.5278 39.2837 28.5433 39.2733 28.5586L27.8032 45.4969C27.5243 45.9087 27.0595 46.1555 26.5622 46.1559C26.0649 46.1562 25.5997 45.9101 25.3203 45.4987L13.8152 28.5604C13.8044 28.5445 13.7939 28.5284 13.7838 28.5121C12.3616 26.2348 11.5748 23.6184 11.5051 20.9344C11.4353 18.2504 12.0852 15.5966 13.3872 13.2485C14.6891 10.9004 16.5958 8.94361 18.9093 7.58108ZM26.5521 16.1633C24.1334 16.1633 22.1727 18.124 22.1727 20.5427C22.1727 22.9614 24.1334 24.9221 26.5521 24.9221C28.9708 24.9221 30.9315 22.9614 30.9315 20.5427C30.9315 18.124 28.9708 16.1633 26.5521 16.1633ZM19.1727 20.5427C19.1727 16.4671 22.4766 13.1633 26.5521 13.1633C30.6277 13.1633 33.9315 16.4671 33.9315 20.5427C33.9315 24.6182 30.6277 27.9221 26.5521 27.9221C22.4766 27.9221 19.1727 24.6182 19.1727 20.5427Z" fill="url(#paint0_linear)"/>
<defs>
<linearGradient id="paint0_linear" x1="26.5436" y1="5.5" x2="26.5436" y2="46.1559" gradientUnits="userSpaceOnUse">
<stop stop-color="#04CE9B"/>
<stop offset="1" stop-color="white" stop-opacity="0"/>
</linearGradient>
</defs>
</svg>
